<?xml version="1.0" encoding="UTF-8" standalone="no"?>
<svg
   x="0"
   y="0"
   width="420"
   height="383.33334"
   style="fill:none"
   version="1.1"
   id="svg185"
   sodipodi:docname="Coordinate_Descent.svg"
   inkscape:version="1.1.2 (b8e25be833, 2022-02-05)"
   xmlns:inkscape="http://www.inkscape.org/namespaces/inkscape"
   xmlns:sodipodi="http://sodipodi.sourceforge.net/DTD/sodipodi-0.dtd"
   xmlns="http://www.w3.org/2000/svg"
   xmlns:svg="http://www.w3.org/2000/svg">
  <defs
     id="defs189" />
  <sodipodi:namedview
     id="namedview187"
     pagecolor="#ffffff"
     bordercolor="#666666"
     borderopacity="1.0"
     inkscape:pageshadow="2"
     inkscape:pageopacity="0.0"
     inkscape:pagecheckerboard="0"
     showgrid="false"
     inkscape:zoom="1.454637"
     inkscape:cx="330.66669"
     inkscape:cy="191.80043"
     inkscape:window-width="1920"
     inkscape:window-height="986"
     inkscape:window-x="-11"
     inkscape:window-y="-11"
     inkscape:window-maximized="1"
     inkscape:current-layer="svg185" />
  <svg
     version="1.1"
     id="svg100"
     width="100%"
     height="100%" />
  <svg
     class="role-diagram-draw-area"
     version="1.1"
     id="svg181"
     width="100%"
     height="100%">
    <g
       class="shapes-region"
       style="fill:none;stroke:#000000"
       id="g173">
      <g
         class="composite-shape"
         data-amt="diagram/shapes/plot"
         transform="translate(38.333313,20.666664)"
         id="g129">
        <g
           id="g127">
          <g
             id="g102" />
          <g
             id="g125">
            <g
               class="test-plot-expression"
               id="g121">
              <defs
                 id="defs107">
                <clipPath
                   id="cpnmb1bavue">
                  <rect
                     x="1"
                     y="1"
                     width="327"
                     height="335"
                     id="rect104" />
                </clipPath>
              </defs>
              <g
                 clip-path="url(#cpnmb1bavue)"
                 id="g119">
                <path
                   d="m 86.64,220.97 -0.14,-0.8 -0.16,-1.12 -0.13,-1.12 -0.09,-1.13 -0.07,-1.12 -0.04,-1.12 -0.01,-1.13 0.01,-1.12 0.04,-1.12 0.06,-1.13 0.08,-1.12 0.11,-1.12 0.12,-1.13 0.15,-1.12 0.07,-0.46 0.1,-0.66 0.18,-1.13 0.21,-1.12 0.23,-1.12 0.24,-1.13 0.13,-0.59 0.13,-0.53 0.28,-1.12 0.29,-1.13 0.31,-1.12 0.09,-0.31 0.24,-0.81 0.34,-1.13 0.36,-1.12 0.16,-0.46 0.22,-0.66 0.39,-1.13 0.4,-1.12 0.08,-0.22 0.34,-0.9 0.44,-1.13 0.32,-0.81 0.12,-0.31 0.47,-1.12 0.47,-1.13 0.04,-0.07 0.46,-1.05 0.5,-1.12 0.13,-0.29 0.39,-0.84 0.53,-1.12 0.18,-0.37 0.37,-0.75 0.56,-1.13 0.17,-0.33 0.4,-0.79 0.59,-1.12 0.1,-0.21 0.5,-0.92 0.6,-1.11 0.01,-0.01 0.63,-1.12 0.46,-0.82 0.17,-0.31 0.66,-1.12 0.26,-0.45 0.4,-0.67 0.68,-1.13 0.02,-0.03 0.67,-1.09 0.43,-0.68 0.27,-0.44 0.72,-1.13 0.1,-0.15 0.63,-0.97 0.47,-0.71 0.28,-0.41 0.75,-1.13 0.07,-0.09 0.7,-1.03 0.39,-0.56 0.4,-0.56 0.7,-0.99 0.09,-0.14 0.82,-1.12 0.19,-0.26 0.63,-0.86 0.46,-0.63 0.38,-0.5 0.72,-0.95 0.13,-0.17 0.86,-1.12 0.11,-0.13 0.78,-1 0.31,-0.4 0.58,-0.72 0.52,-0.64 0.39,-0.48 0.71,-0.87 0.21,-0.26 0.88,-1.06 0.06,-0.06 0.95,-1.12 0.09,-0.11 0.88,-1.02 0.22,-0.25 0.76,-0.87 0.33,-0.37 0.67,-0.75 0.43,-0.48 0.59,-0.65 0.51,-0.55 0.52,-0.57 0.57,-0.62 0.47,-0.5 0.63,-0.67 0.44,-0.46 0.66,-0.68 0.42,-0.44 0.67,-0.69 0.43,-0.43 0.67,-0.68 0.45,-0.45 0.65,-0.64 0.48,-0.48 0.61,-0.6 0.54,-0.52 0.56,-0.54 0.62,-0.59 0.48,-0.45 0.71,-0.67 0.38,-0.36 0.83,-0.76 0.27,-0.25 0.97,-0.88 0.13,-0.11 1.09,-0.98 0.03,-0.03 1.07,-0.94 0.21,-0.18 0.89,-0.77 0.42,-0.36 0.67,-0.57 0.65,-0.55 0.45,-0.37 0.9,-0.75 0.2,-0.16 1.09,-0.9 0.09,-0.07 1.01,-0.8 0.4,-0.32 0.7,-0.55 0.73,-0.57 0.36,-0.28 1.1,-0.84 0.01,-0.01 1.09,-0.82 0.4,-0.3 0.69,-0.51 0.84,-0.61 0.26,-0.19 1.1,-0.79 0.21,-0.15 0.88,-0.62 0.72,-0.5 0.38,-0.26 1.1,-0.75 0.17,-0.11 0.92,-0.62 0.76,-0.51 0.34,-0.22 1.1,-0.71 0.3,-0.19 0.79,-0.51 0.99,-0.61 0.11,-0.07 1.1,-0.67 0.63,-0.39 0.46,-0.28 1.1,-0.64 0.34,-0.2 0.76,-0.44 1.09,-0.62 0.11,-0.06 0.99,-0.55 1.05,-0.58 0.05,-0.02 1.09,-0.58 0.99,-0.52 0.11,-0.06 1.1,-0.56 1.01,-0.5 0.08,-0.05 1.1,-0.53 1.1,-0.52 0.05,-0.03 1.04,-0.48 1.1,-0.5 0.33,-0.14 0.77,-0.34 1.09,-0.47 0.76,-0.31 0.34,-0.14 1.1,-0.44 1.09,-0.43 0.3,-0.12 0.8,-0.3 1.1,-0.4 1.09,-0.39 0.1,-0.03 1,-0.34 1.1,-0.35 1.09,-0.35 0.29,-0.08 0.81,-0.24 1.1,-0.31 1.09,-0.3 1.08,-0.28 h 0.02 l 1.1,-0.26 1.09,-0.25 1.1,-0.23 1.1,-0.22 0.91,-0.16 0.18,-0.03 1.1,-0.18 1.1,-0.15 1.09,-0.14 1.1,-0.12 1.1,-0.1 1.09,-0.08 1.1,-0.05 1.1,-0.04 h 1.09 l 1.1,0.01 1.1,0.04 1.09,0.07 1.1,0.1 1.1,0.12 1.09,0.16 1.1,0.18 1.02,0.21 0.08,0.02 1.09,0.26 1.1,0.3 1.1,0.34 0.6,0.2 0.49,0.18 1.1,0.44 1.1,0.48 0.05,0.03 1.04,0.52 1.09,0.6 0.01,0.01 1.1,0.68 0.63,0.43 0.46,0.34 1.02,0.79 0.08,0.06 1.1,0.96 0.1,0.1 0.99,0.99 0.13,0.13 0.97,1.11 0.01,0.02 0.87,1.12 0.22,0.3 0.56,0.82 0.53,0.86 0.16,0.27 0.62,1.12 0.32,0.64 0.23,0.48 0.49,1.13 0.38,0.96 0.06,0.16 0.38,1.12 0.34,1.13 0.3,1.12 0.01,0.07 0.24,1.05 0.22,1.13 0.18,1.12 0.15,1.12 0.12,1.13 0.08,1.12 0.06,1.12 0.03,1.13 0.01,1.12 -0.03,1.12 -0.04,1.13 -0.07,1.12 -0.09,1.12 -0.12,1.13 -0.13,1.12 -0.16,1.12 -0.17,1.13 -0.19,1.12 -0.09,0.43 -0.13,0.69 -0.23,1.13 -0.25,1.12 -0.27,1.12 -0.21,0.87 -0.07,0.26 -0.3,1.12 -0.32,1.12 -0.33,1.13 -0.08,0.25 -0.27,0.87 -0.37,1.12 -0.37,1.13 -0.09,0.23 -0.31,0.89 -0.41,1.12 -0.37,0.99 -0.05,0.14 -0.45,1.12 -0.45,1.12 -0.15,0.37 -0.32,0.76 -0.48,1.12 -0.3,0.67 -0.2,0.45 -0.51,1.13 -0.38,0.83 -0.14,0.29 -0.54,1.12 -0.42,0.87 -0.13,0.26 -0.56,1.12 -0.41,0.79 -0.17,0.33 -0.59,1.13 -0.33,0.62 -0.27,0.5 -0.62,1.12 -0.21,0.38 -0.42,0.75 -0.64,1.12 -0.04,0.05 -0.62,1.07 -0.47,0.79 -0.2,0.34 -0.69,1.12 -0.21,0.35 -0.48,0.77 -0.62,0.98 -0.09,0.15 -0.72,1.12 -0.28,0.43 -0.46,0.69 -0.64,0.97 -0.11,0.16 -0.76,1.12 -0.23,0.33 -0.54,0.79 -0.55,0.79 -0.24,0.34 -0.8,1.12 -0.06,0.08 -0.76,1.04 -0.34,0.46 -0.49,0.67 -0.6,0.8 -0.24,0.32 -0.86,1.12 v 0.01 l -0.87,1.12 -0.23,0.29 -0.66,0.83 -0.43,0.55 -0.47,0.57 -0.63,0.79 -0.28,0.34 -0.82,0.99 -0.11,0.13 -0.94,1.12 -0.04,0.06 -0.92,1.07 -0.18,0.21 -0.79,0.91 -0.31,0.35 -0.68,0.77 -0.41,0.47 -0.59,0.66 -0.51,0.56 -0.52,0.56 -0.58,0.63 -0.45,0.49 -0.64,0.69 -0.41,0.44 -0.69,0.72 -0.39,0.4 -0.71,0.74 -0.37,0.38 -0.72,0.74 -0.39,0.39 -0.71,0.71 -0.41,0.41 -0.69,0.68 -0.45,0.44 -0.64,0.63 -0.52,0.5 -0.58,0.55 -0.6,0.57 -0.5,0.46 -0.7,0.66 -0.39,0.36 -0.83,0.77 -0.27,0.24 -0.98,0.88 -0.12,0.11 -1.09,0.97 -0.05,0.04 -1.05,0.92 -0.24,0.21 -0.86,0.73 -0.45,0.39 -0.64,0.54 -0.7,0.58 -0.4,0.34 -0.96,0.79 -0.14,0.11 -1.09,0.89 -0.15,0.12 -0.95,0.75 -0.47,0.37 -0.63,0.49 -0.82,0.64 -0.27,0.21 -1.1,0.83 -0.1,0.08 -1,0.74 -0.51,0.38 -0.58,0.43 -0.96,0.7 -0.14,0.1 -1.1,0.78 -0.34,0.24 -0.75,0.53 -0.87,0.59 -0.23,0.16 -1.1,0.75 -0.33,0.22 -0.76,0.51 -0.94,0.61 -0.16,0.1 -1.1,0.71 -0.49,0.31 -0.6,0.38 -1.1,0.68 -0.1,0.07 -1,0.6 -0.86,0.52 -0.23,0.14 -1.1,0.64 -0.6,0.34 -0.5,0.29 -1.09,0.62 -0.4,0.22 -0.7,0.38 -1.1,0.6 -0.27,0.14 -0.82,0.44 -1.1,0.56 -0.23,0.12 -0.87,0.44 -1.09,0.54 -0.3,0.15 -0.8,0.38 -1.1,0.52 -0.48,0.22 -0.61,0.28 -1.1,0.49 -0.81,0.35 -0.29,0.13 -1.09,0.46 -1.1,0.45 -0.21,0.09 -0.89,0.35 -1.09,0.42 -0.94,0.35 -0.16,0.06 -1.1,0.39 -1.09,0.38 -0.86,0.29 -0.24,0.08 -1.1,0.35 -1.09,0.34 -1.1,0.32 -0.13,0.04 -0.97,0.26 -1.09,0.29 -1.1,0.28 -1.1,0.26 -0.15,0.03 -0.94,0.21 -1.1,0.22 -1.1,0.2 -1.09,0.19 -1.1,0.17 -0.94,0.13 -0.16,0.02 -1.09,0.13 -1.1,0.11 -1.1,0.09 -1.09,0.07 -1.1,0.05 -1.1,0.02 h -1.09 l -1.1,-0.03 -1.1,-0.05 -1.09,-0.08 -1.1,-0.1 -1.1,-0.14 -0.58,-0.09 -0.51,-0.08 -1.1,-0.2 -1.1,-0.24 -1.09,-0.27 -1.1,-0.32 -0.04,-0.01 -1.06,-0.35 -1.09,-0.4 -0.91,-0.37 -0.19,-0.09 -1.1,-0.51 -1.02,-0.53 -0.07,-0.04 -1.1,-0.64 -0.69,-0.44 -0.41,-0.27 -1.09,-0.8 -0.08,-0.05 -1.02,-0.84 -0.32,-0.29 -0.78,-0.73 -0.39,-0.39 -0.7,-0.75 -0.33,-0.37 -0.77,-0.94 -0.14,-0.19 -0.81,-1.12 -0.15,-0.22 -0.57,-0.9 -0.52,-0.9 -0.13,-0.23 -0.57,-1.12 -0.4,-0.87 -0.11,-0.25 -0.45,-1.13 -0.41,-1.12 -0.13,-0.39 -0.22,-0.73 -0.31,-1.13 -0.27,-1.12 -0.24,-1.12 -0.05,-0.33"
                   style="stroke:#f58231;stroke-width:2;stroke-opacity:0.4"
                   id="path109" />
                <path
                   d="m 54.83,242.45 -0.14,-0.93 -0.15,-1.13 -0.13,-1.12 -0.11,-1.12 -0.09,-1.13 -0.06,-1.12 -0.05,-1.12 -0.02,-1.13 -0.01,-1.12 0.01,-1.12 0.02,-1.13 0.05,-1.12 0.06,-1.12 0.08,-1.13 0.09,-1.12 0.11,-1.12 0.12,-1.13 0.14,-1.12 0.08,-0.62 0.07,-0.5 0.17,-1.13 0.18,-1.12 0.2,-1.12 0.2,-1.13 0.22,-1.12 0.06,-0.27 0.18,-0.85 0.25,-1.13 0.25,-1.12 0.27,-1.12 0.15,-0.57 0.14,-0.56 0.29,-1.12 0.31,-1.12 0.32,-1.13 0.03,-0.12 0.3,-1 0.34,-1.12 0.35,-1.13 0.11,-0.33 0.26,-0.79 0.37,-1.12 0.39,-1.13 0.08,-0.22 0.31,-0.9 0.41,-1.12 0.37,-1.01 0.05,-0.12 0.42,-1.12 0.44,-1.12 0.19,-0.48 0.26,-0.65 0.46,-1.12 0.38,-0.91 0.08,-0.21 0.48,-1.13 0.49,-1.12 0.04,-0.1 0.46,-1.02 0.51,-1.13 0.13,-0.29 0.38,-0.83 0.53,-1.12 0.19,-0.39 0.35,-0.74 0.54,-1.12 0.2,-0.41 0.36,-0.71 0.56,-1.13 0.18,-0.34 0.4,-0.78 0.58,-1.12 0.12,-0.22 0.48,-0.91 0.6,-1.12 0.01,-0.03 0.6,-1.09 0.5,-0.91 0.12,-0.22 0.63,-1.12 0.35,-0.61 0.29,-0.51 0.65,-1.13 0.15,-0.26 0.51,-0.86 0.59,-0.99 0.08,-0.13 0.67,-1.13 0.35,-0.56 0.34,-0.56 0.7,-1.12 0.05,-0.1 0.65,-1.03 0.45,-0.7 0.26,-0.42 0.73,-1.12 0.11,-0.17 0.62,-0.96 0.47,-0.71 0.27,-0.41 0.75,-1.12 0.08,-0.12 0.69,-1.01 0.41,-0.6 0.36,-0.52 0.73,-1.07 0.04,-0.05 0.79,-1.13 0.27,-0.37 0.53,-0.75 0.57,-0.79 0.24,-0.33 0.82,-1.13 0.03,-0.05 0.8,-1.07 0.3,-0.41 0.53,-0.71 0.57,-0.75 0.28,-0.38 0.81,-1.07 0.04,-0.05 0.87,-1.12 0.19,-0.25 0.69,-0.88 0.41,-0.51 0.48,-0.61 0.61,-0.78 0.28,-0.34 0.82,-1.02 0.09,-0.11 0.91,-1.12 0.1,-0.11 0.83,-1.01 0.26,-0.32 0.68,-0.81 0.42,-0.5 0.53,-0.62 0.57,-0.67 0.39,-0.45 0.7,-0.82 0.27,-0.31 0.83,-0.95 0.15,-0.17 0.95,-1.08 0.04,-0.04 1,-1.13 0.05,-0.06 0.96,-1.06 0.14,-0.15 0.89,-0.97 0.21,-0.23 0.83,-0.9 0.26,-0.28 0.79,-0.84 0.31,-0.33 0.75,-0.79 0.35,-0.37 0.72,-0.76 0.37,-0.39 0.71,-0.73 0.39,-0.4 0.71,-0.72 0.39,-0.4 0.72,-0.73 0.37,-0.37 0.75,-0.75 0.35,-0.35 0.79,-0.77 0.31,-0.31 0.83,-0.82 0.26,-0.25 0.91,-0.87 0.19,-0.19 0.98,-0.93 0.12,-0.11 1.07,-1.02 0.02,-0.02 1.1,-1.02 0.09,-0.08 1.01,-0.93 0.21,-0.19 0.88,-0.81 0.35,-0.32 0.75,-0.67 0.5,-0.45 0.6,-0.53 0.67,-0.59 0.42,-0.38 0.86,-0.75 0.24,-0.21 1.05,-0.91 0.05,-0.04 1.09,-0.94 0.18,-0.14 0.92,-0.78 0.41,-0.35 0.69,-0.57 0.66,-0.55 0.43,-0.36 0.94,-0.76 0.16,-0.14 1.1,-0.88 0.12,-0.11 0.97,-0.77 0.44,-0.35 0.66,-0.52 0.77,-0.6 0.33,-0.26 1.09,-0.85 0.02,-0.02 1.08,-0.82 0.4,-0.3 0.7,-0.53 0.79,-0.59 0.3,-0.23 1.1,-0.81 0.11,-0.09 0.99,-0.72 0.55,-0.4 0.54,-0.39 1.03,-0.73 0.07,-0.06 1.1,-0.77 0.42,-0.3 0.67,-0.47 0.95,-0.65 0.15,-0.1 1.1,-0.75 0.4,-0.27 0.69,-0.47 0.98,-0.66 0.12,-0.07 1.1,-0.72 0.5,-0.33 0.59,-0.39 1.1,-0.7 0.05,-0.03 1.05,-0.67 0.73,-0.46 0.36,-0.22 1.1,-0.68 0.36,-0.22 0.74,-0.45 1.09,-0.66 0.03,-0.01 1.07,-0.64 0.83,-0.49 0.27,-0.15 1.09,-0.63 0.59,-0.34 0.51,-0.29 1.1,-0.62 0.39,-0.21 0.7,-0.39 1.1,-0.6 0.25,-0.14 0.85,-0.45 1.09,-0.58 0.18,-0.09 0.92,-0.48 1.1,-0.56 0.16,-0.08 0.93,-0.47 1.1,-0.55 0.22,-0.11 0.88,-0.42 1.09,-0.53 0.36,-0.17 0.74,-0.35 1.1,-0.5 0.59,-0.27 0.5,-0.23 1.1,-0.49 0.92,-0.41 0.18,-0.07 1.09,-0.47 1.1,-0.46 0.28,-0.12 0.82,-0.33 1.09,-0.44 0.89,-0.35 0.21,-0.09 1.1,-0.42 1.09,-0.41 0.56,-0.21 0.54,-0.19 1.1,-0.4 1.09,-0.38 0.45,-0.15 0.65,-0.22 1.1,-0.36 1.09,-0.35 0.61,-0.19 0.49,-0.16 1.1,-0.32 1.09,-0.32 1.1,-0.31 0.05,-0.02 1.05,-0.28 1.09,-0.29 1.1,-0.27 1.1,-0.26 0.06,-0.02 1.03,-0.23 1.1,-0.24 1.1,-0.23 1.09,-0.22 1.1,-0.2 h 0.02 l 1.08,-0.19 1.09,-0.18 1.1,-0.16 1.1,-0.15 1.09,-0.14 1.1,-0.12 1.1,-0.11 0.93,-0.08 0.16,-0.01 1.1,-0.08 1.1,-0.06 1.09,-0.05 1.1,-0.03 1.1,-0.01 h 1.09 l 1.1,0.02 1.1,0.04 1.09,0.06 1.1,0.07 0.6,0.05 0.5,0.05 1.09,0.11 1.1,0.14 1.1,0.16 1.09,0.19 1.1,0.2 1.1,0.24 0.17,0.04 0.92,0.22 1.1,0.28 1.1,0.32 0.97,0.3 0.12,0.04 1.1,0.38 1.1,0.41 0.74,0.29 0.35,0.15 1.1,0.49 1.04,0.49 0.06,0.03 1.09,0.57 0.95,0.52 0.15,0.09 1.1,0.66 0.58,0.37 0.51,0.35 1.1,0.77 0.01,0.01 1.09,0.84 0.35,0.28 0.74,0.63 0.56,0.49 0.54,0.51 0.64,0.62 0.46,0.46 0.61,0.66 0.48,0.54 0.51,0.58 0.59,0.73 0.31,0.4 0.79,1.05 0.05,0.07 0.76,1.12 0.28,0.44 0.43,0.69 0.65,1.12 0.02,0.04 0.58,1.08 0.52,1.05 0.04,0.08 0.5,1.12 0.48,1.12 0.07,0.2 0.36,0.93 0.39,1.12 0.35,1.06 0.02,0.06 0.33,1.13 0.3,1.12 0.27,1.12 0.18,0.81 0.06,0.32 0.22,1.12 0.19,1.12 0.17,1.13 0.14,1.12 0.12,1.12 0.1,1.13 0.08,1.12 0.01,0.18 0.05,0.94 0.04,1.13 0.02,1.12 v 1.12 l -0.01,1.13 -0.04,1.12 -0.05,1.12 -0.01,0.17 -0.05,0.96 -0.09,1.12 -0.1,1.12 -0.11,1.13 -0.13,1.12 -0.14,1.12 -0.16,1.13 -0.17,1.12 -0.14,0.85 -0.05,0.27 -0.2,1.13 -0.21,1.12 -0.23,1.12 -0.23,1.13 -0.18,0.78 -0.08,0.34 -0.26,1.12 -0.28,1.13 -0.28,1.12 -0.2,0.73 -0.1,0.39 -0.31,1.13 -0.33,1.12 -0.33,1.12 -0.02,0.08 -0.33,1.05 -0.35,1.12 -0.37,1.12 -0.05,0.15 -0.33,0.98 -0.39,1.12 -0.38,1.07 -0.02,0.05 -0.41,1.13 -0.42,1.12 -0.24,0.64 -0.19,0.48 -0.44,1.13 -0.45,1.12 -0.02,0.04 -0.44,1.08 -0.48,1.13 -0.18,0.42 -0.3,0.7 -0.49,1.12 -0.3,0.69 -0.2,0.44 -0.51,1.12 -0.39,0.84 -0.13,0.28 -0.53,1.13 -0.44,0.9 -0.1,0.22 -0.55,1.12 -0.44,0.89 -0.12,0.24 -0.57,1.12 -0.41,0.8 -0.17,0.32 -0.58,1.13 -0.35,0.64 -0.25,0.48 -0.61,1.12 -0.23,0.44 -0.38,0.69 -0.63,1.12 -0.09,0.17 -0.54,0.95 -0.56,0.98 -0.08,0.15 -0.66,1.12 -0.35,0.61 -0.31,0.51 -0.67,1.13 -0.12,0.2 -0.56,0.92 -0.54,0.88 -0.15,0.24 -0.7,1.13 -0.24,0.39 -0.47,0.73 -0.63,0.99 -0.08,0.13 -0.73,1.13 -0.29,0.43 -0.45,0.69 -0.64,0.98 -0.1,0.14 -0.76,1.13 -0.24,0.36 -0.52,0.76 -0.58,0.84 -0.19,0.28 -0.79,1.13 -0.11,0.16 -0.68,0.96 -0.42,0.59 -0.38,0.53 -0.72,0.99 -0.09,0.14 -0.82,1.12 -0.18,0.24 -0.66,0.88 -0.44,0.6 -0.4,0.53 -0.7,0.92 -0.15,0.2 -0.85,1.12 -0.09,0.12 -0.79,1.01 -0.31,0.4 -0.57,0.72 -0.53,0.67 -0.36,0.45 -0.73,0.92 -0.17,0.21 -0.91,1.12 -0.02,0.03 -0.9,1.09 -0.2,0.25 -0.73,0.88 -0.36,0.43 -0.58,0.69 -0.52,0.62 -0.43,0.5 -0.67,0.78 -0.29,0.35 -0.8,0.92 -0.18,0.2 -0.92,1.05 -0.06,0.07 -1,1.13 -0.04,0.04 -0.96,1.08 -0.13,0.14 -0.89,0.98 -0.21,0.23 -0.82,0.9 -0.28,0.3 -0.76,0.82 -0.33,0.35 -0.72,0.77 -0.38,0.4 -0.69,0.73 -0.41,0.42 -0.67,0.7 -0.42,0.44 -0.67,0.68 -0.43,0.45 -0.67,0.68 -0.43,0.43 -0.68,0.69 -0.41,0.41 -0.72,0.71 -0.38,0.38 -0.76,0.75 -0.34,0.33 -0.81,0.79 -0.28,0.27 -0.89,0.85 -0.21,0.21 -0.97,0.92 -0.13,0.12 -1.06,1 -0.03,0.03 -1.1,1.02 -0.08,0.07 -1.02,0.93 -0.21,0.2 -0.88,0.8 -0.36,0.32 -0.74,0.67 -0.51,0.45 -0.59,0.52 -0.68,0.61 -0.41,0.36 -0.88,0.76 -0.22,0.19 -1.08,0.93 -0.02,0.02 -1.09,0.93 -0.21,0.18 -0.89,0.74 -0.45,0.38 -0.65,0.53 -0.71,0.59 -0.38,0.32 -0.99,0.81 -0.11,0.08 -1.1,0.89 -0.19,0.15 -0.9,0.72 -0.51,0.4 -0.59,0.47 -0.85,0.66 -0.25,0.19 -1.09,0.85 -0.11,0.08 -0.99,0.75 -0.49,0.37 -0.61,0.46 -0.89,0.67 -0.2,0.15 -1.1,0.81 -0.22,0.16 -0.88,0.63 -0.67,0.49 -0.42,0.31 -1.1,0.78 -0.06,0.04 -1.04,0.73 -0.56,0.39 -0.53,0.37 -1.1,0.75 v 0.01 l -1.1,0.74 -0.56,0.38 -0.53,0.36 -1.1,0.72 -0.05,0.04 -1.05,0.68 -0.68,0.44 -0.41,0.27 -1.1,0.7 -0.25,0.16 -0.85,0.53 -0.94,0.59 -0.15,0.1 -1.1,0.67 -0.58,0.35 -0.52,0.31 -1.09,0.66 -0.27,0.16 -0.83,0.49 -1.08,0.63 -0.02,0.01 -1.09,0.63 -0.86,0.48 -0.24,0.14 -1.1,0.61 -0.68,0.38 -0.41,0.22 -1.1,0.6 -0.57,0.3 -0.53,0.28 -1.09,0.58 -0.51,0.26 -0.59,0.31 -1.1,0.55 -0.52,0.27 -0.57,0.28 -1.1,0.54 -0.61,0.3 -0.49,0.24 -1.09,0.52 -0.78,0.36 -0.32,0.15 -1.1,0.5 -1.04,0.48 -0.05,0.02 -1.1,0.48 -1.1,0.48 -0.32,0.14 -0.77,0.33 -1.1,0.45 -0.83,0.34 -0.27,0.11 -1.09,0.44 -1.1,0.43 -0.39,0.15 -0.71,0.27 -1.09,0.4 -1.1,0.4 -0.13,0.05 -0.97,0.34 -1.09,0.38 -1.1,0.37 -0.11,0.03 -0.99,0.32 -1.09,0.35 -1.1,0.34 -0.4,0.12 -0.7,0.2 -1.09,0.32 -1.1,0.3 -1.1,0.3 h -0.01 l -1.08,0.28 -1.1,0.27 -1.1,0.25 -1.09,0.25 -0.33,0.07 -0.77,0.17 -1.1,0.22 -1.09,0.21 -1.1,0.2 -1.1,0.18 -0.92,0.15 -0.17,0.02 -1.1,0.16 -1.1,0.14 -1.09,0.14 -1.1,0.11 -1.1,0.1 -1.09,0.09 -1.1,0.07 -1.1,0.06 -1.09,0.04 -1.1,0.03 h -1.1 l -1.09,-0.01 -1.1,-0.02 -1.1,-0.05 -1.09,-0.07 -1.1,-0.08 -1.1,-0.1 -1.09,-0.13 -1.1,-0.15 -1.1,-0.17 -1.08,-0.18 -0.01,-0.01 -1.1,-0.22 -1.1,-0.24 -1.09,-0.27 -1.1,-0.29 -0.32,-0.1 -0.78,-0.23 -1.09,-0.36 -1.1,-0.39 -0.38,-0.14 -0.72,-0.28 -1.09,-0.46 -0.85,-0.38 -0.25,-0.12 -1.1,-0.54 -0.88,-0.47 -0.21,-0.11 -1.1,-0.64 -0.61,-0.37 -0.49,-0.31 -1.09,-0.74 -0.1,-0.07 -1,-0.74 -0.5,-0.39 -0.6,-0.48 -0.75,-0.64 -0.34,-0.3 -0.89,-0.82 -0.21,-0.21 -0.9,-0.92 -0.2,-0.21 -0.81,-0.91 -0.28,-0.33 -0.66,-0.79 -0.44,-0.58 -0.41,-0.55 -0.69,-0.96 -0.1,-0.16 -0.73,-1.12 -0.26,-0.44 -0.41,-0.69 -0.62,-1.12 -0.07,-0.13 -0.5,-0.99 -0.53,-1.13 -0.07,-0.15 -0.41,-0.97 -0.45,-1.12 -0.23,-0.64 -0.18,-0.49 -0.37,-1.12 -0.34,-1.12 -0.21,-0.75 -0.1,-0.38 -0.28,-1.12 -0.26,-1.12 -0.22,-1.13 -0.21,-1.12 -0.03,-0.19"
                   style="stroke:#f58231;stroke-width:2;stroke-opacity:0.6"
                   id="path111" />
                <path
                   d="m 29.61,249.95 -0.02,-0.57 -0.02,-1.12 v -1.13 l 0.01,-1.12 0.02,-1.12 0.01,-0.34 0.03,-0.79 0.05,-1.12 0.06,-1.12 0.08,-1.13 0.09,-1.12 0.11,-1.12 0.11,-1.13 0.13,-1.12 0.14,-1.12 0.15,-1.13 0.15,-0.98 0.02,-0.14 0.17,-1.12 0.19,-1.13 0.2,-1.12 0.21,-1.12 0.21,-1.13 0.09,-0.44 0.14,-0.68 0.24,-1.12 0.25,-1.13 0.26,-1.12 0.21,-0.86 0.06,-0.26 0.29,-1.13 0.29,-1.12 0.3,-1.12 0.16,-0.59 0.14,-0.54 0.32,-1.12 0.33,-1.12 0.3,-1.01 0.04,-0.12 0.35,-1.12 0.35,-1.12 0.36,-1.11 0.01,-0.02 0.37,-1.12 0.38,-1.12 0.34,-0.97 0.05,-0.16 0.4,-1.12 0.41,-1.12 0.23,-0.63 0.19,-0.5 0.42,-1.12 0.44,-1.12 0.05,-0.14 0.39,-0.99 0.45,-1.12 0.26,-0.63 0.2,-0.49 0.47,-1.13 0.42,-1.01 0.05,-0.11 0.49,-1.12 0.49,-1.13 0.07,-0.16 0.43,-0.96 0.5,-1.12 0.17,-0.36 0.35,-0.77 0.52,-1.12 0.22,-0.47 0.31,-0.65 0.54,-1.13 0.25,-0.51 0.3,-0.61 0.55,-1.12 0.25,-0.49 0.31,-0.64 0.57,-1.12 0.21,-0.41 0.37,-0.71 0.59,-1.13 0.14,-0.27 0.45,-0.85 0.6,-1.12 0.05,-0.09 0.56,-1.04 0.53,-0.97 0.08,-0.15 0.63,-1.12 0.39,-0.7 0.24,-0.43 0.64,-1.12 0.22,-0.38 0.42,-0.74 0.66,-1.13 0.01,-0.03 0.65,-1.09 0.45,-0.76 0.22,-0.36 0.67,-1.13 0.21,-0.33 0.48,-0.79 0.61,-1 0.08,-0.12 0.7,-1.13 0.32,-0.51 0.39,-0.61 0.71,-1.12 v 0 l 0.72,-1.13 0.37,-0.57 0.36,-0.55 0.74,-1.12 v -0.01 l 0.74,-1.12 0.36,-0.53 0.4,-0.59 0.69,-1.03 0.06,-0.09 0.77,-1.13 0.27,-0.38 0.51,-0.74 0.59,-0.85 0.19,-0.27 0.79,-1.13 0.11,-0.15 0.69,-0.97 0.41,-0.57 0.4,-0.55 0.7,-0.97 0.11,-0.16 0.82,-1.12 0.16,-0.22 0.67,-0.9 0.43,-0.58 0.41,-0.55 0.69,-0.91 0.16,-0.21 0.85,-1.12 0.08,-0.11 0.78,-1.02 0.32,-0.41 0.55,-0.71 0.55,-0.7 0.33,-0.42 0.76,-0.97 0.13,-0.16 0.89,-1.12 0.08,-0.1 0.82,-1.02 0.28,-0.34 0.64,-0.79 0.45,-0.56 0.46,-0.56 0.64,-0.77 0.29,-0.35 0.81,-0.97 0.13,-0.16 0.94,-1.12 0.02,-0.02 0.94,-1.1 0.16,-0.19 0.8,-0.94 0.3,-0.34 0.67,-0.78 0.42,-0.48 0.56,-0.64 0.54,-0.62 0.45,-0.51 0.65,-0.72 0.35,-0.4 0.74,-0.83 0.27,-0.29 0.83,-0.93 0.18,-0.2 0.92,-1 0.11,-0.12 0.98,-1.07 0.05,-0.05 1.05,-1.13 v 0 l 1.05,-1.12 0.05,-0.05 1.02,-1.07 0.07,-0.08 1,-1.05 0.1,-0.1 0.98,-1.02 0.12,-0.12 0.98,-1 0.11,-0.12 0.99,-1.01 0.11,-0.11 1.01,-1.01 0.09,-0.09 1.03,-1.03 0.06,-0.06 1.08,-1.07 0.02,-0.02 1.1,-1.07 0.02,-0.03 1.07,-1.04 0.09,-0.08 1.01,-0.97 0.16,-0.16 0.94,-0.89 0.24,-0.23 0.85,-0.8 0.34,-0.32 0.76,-0.71 0.45,-0.42 0.65,-0.6 0.56,-0.52 0.53,-0.49 0.7,-0.63 0.4,-0.37 0.84,-0.76 0.26,-0.23 0.99,-0.89 0.1,-0.09 1.1,-0.98 0.07,-0.05 1.03,-0.91 0.24,-0.22 0.85,-0.74 0.45,-0.38 0.65,-0.56 0.65,-0.56 0.45,-0.38 0.87,-0.75 0.22,-0.19 1.1,-0.92 0.01,-0.01 1.09,-0.9 0.26,-0.22 0.83,-0.69 0.54,-0.44 0.56,-0.46 0.81,-0.66 0.29,-0.23 1.09,-0.88 0.02,-0.01 1.08,-0.87 0.33,-0.26 0.77,-0.6 0.66,-0.52 0.43,-0.34 1.01,-0.78 0.09,-0.07 1.1,-0.85 0.27,-0.21 0.82,-0.62 0.66,-0.5 0.44,-0.33 1.06,-0.79 0.04,-0.03 1.09,-0.82 0.39,-0.28 0.71,-0.52 0.82,-0.6 0.28,-0.2 1.09,-0.79 0.19,-0.13 0.91,-0.65 0.67,-0.48 0.43,-0.3 1.09,-0.77 0.08,-0.05 1.02,-0.71 0.6,-0.41 0.5,-0.34 1.09,-0.75 0.06,-0.04 1.04,-0.7 0.63,-0.42 0.47,-0.31 1.09,-0.72 0.14,-0.09 0.96,-0.63 0.76,-0.5 0.34,-0.21 1.09,-0.7 0.33,-0.21 0.77,-0.49 1.01,-0.63 0.09,-0.06 1.09,-0.68 0.63,-0.39 0.47,-0.28 1.1,-0.67 0.28,-0.17 0.81,-0.49 1.07,-0.63 0.03,-0.02 1.1,-0.65 0.79,-0.46 0.3,-0.17 1.1,-0.63 0.55,-0.32 0.55,-0.31 1.09,-0.61 0.36,-0.2 0.74,-0.41 1.1,-0.6 0.2,-0.12 0.89,-0.48 1.1,-0.59 0.1,-0.05 1,-0.53 1.09,-0.57 0.05,-0.02 1.05,-0.54 1.1,-0.56 0.05,-0.03 1.04,-0.52 1.1,-0.55 0.11,-0.05 0.99,-0.48 1.09,-0.53 0.24,-0.11 0.86,-0.41 1.1,-0.51 0.44,-0.21 0.65,-0.3 1.1,-0.5 0.72,-0.32 0.38,-0.17 1.09,-0.48 1.09,-0.47 0.01,-0.01 1.1,-0.46 1.09,-0.46 0.47,-0.2 0.63,-0.26 1.1,-0.44 1.05,-0.42 0.04,-0.02 1.1,-0.43 1.1,-0.42 0.68,-0.25 0.41,-0.16 1.1,-0.4 1.1,-0.4 0.46,-0.17 0.63,-0.22 1.1,-0.38 1.1,-0.37 0.45,-0.15 0.64,-0.21 1.1,-0.36 1.1,-0.34 0.68,-0.21 0.41,-0.13 1.1,-0.33 1.1,-0.32 1.09,-0.31 0.14,-0.04 0.96,-0.26 1.1,-0.29 1.09,-0.29 1.1,-0.27 0.03,-0.01 1.07,-0.26 1.09,-0.25 1.1,-0.25 1.1,-0.23 0.63,-0.13 0.46,-0.1 1.1,-0.21 1.1,-0.21 1.09,-0.19 1.1,-0.19 1.1,-0.17 0.35,-0.06 0.74,-0.11 1.1,-0.15 1.1,-0.14 1.09,-0.13 1.1,-0.12 1.1,-0.1 1.09,-0.1 1.1,-0.08 1.1,-0.07 1.09,-0.06 1.1,-0.04 0.62,-0.02 0.48,-0.01 1.09,-0.02 h 1.1 l 1.1,0.01 1.02,0.02 h 0.07 l 1.1,0.04 1.1,0.06 1.09,0.07 1.1,0.09 1.1,0.1 1.09,0.12 1.1,0.14 1.1,0.15 1.09,0.18 1,0.17 0.1,0.02 1.1,0.22 1.09,0.23 1.1,0.26 1.1,0.27 0.46,0.13 0.63,0.17 1.1,0.33 1.1,0.35 0.8,0.27 0.29,0.1 1.1,0.41 1.1,0.43 0.45,0.18 0.64,0.28 1.1,0.49 0.75,0.36 0.35,0.16 1.09,0.57 0.73,0.39 0.37,0.2 1.1,0.64 0.46,0.28 0.63,0.4 1.1,0.72 v 0.01 l 1.1,0.77 0.47,0.35 0.62,0.48 0.81,0.64 0.29,0.24 1.03,0.89 0.07,0.05 1.09,1.02 0.06,0.05 1.04,1.04 0.08,0.08 1.02,1.09 0.03,0.04 0.97,1.12 0.09,0.11 0.82,1.01 0.28,0.37 0.56,0.76 0.54,0.75 0.25,0.37 0.75,1.12 0.09,0.16 0.6,0.97 0.5,0.86 0.15,0.26 0.61,1.12 0.34,0.67 0.23,0.46 0.53,1.12 0.33,0.75 0.17,0.37 0.46,1.13 0.44,1.12 0.03,0.09 0.37,1.03 0.38,1.13 0.35,1.11 v 0.01 l 0.32,1.12 0.3,1.13 0.28,1.12 0.19,0.86 0.06,0.26 0.23,1.13 0.21,1.12 0.19,1.12 0.17,1.13 0.15,1.12 0.09,0.77 0.04,0.35 0.11,1.13 0.1,1.12 0.08,1.12 0.06,1.13 0.05,1.12 0.03,1.12 0.01,1.13 v 1.12 l -0.01,1.12 -0.03,1.13 -0.04,1.12 -0.06,1.12 -0.07,1.13 -0.08,1.12 -0.1,1.12 -0.09,0.96 -0.02,0.17 -0.12,1.12 -0.13,1.12 -0.15,1.13 -0.15,1.12 -0.17,1.12 -0.18,1.13 -0.18,1.06 -0.01,0.06 -0.2,1.12 -0.21,1.13 -0.23,1.12 -0.23,1.12 -0.21,1 -0.03,0.13 -0.26,1.12 -0.26,1.12 -0.27,1.13 -0.28,1.09 -0.01,0.03 -0.29,1.12 -0.31,1.13 -0.31,1.12 -0.18,0.62 -0.14,0.5 -0.33,1.13 -0.34,1.12 -0.28,0.9 -0.07,0.22 -0.36,1.13 -0.37,1.12 -0.3,0.9 -0.08,0.22 -0.38,1.13 -0.4,1.12 -0.24,0.67 -0.16,0.45 -0.41,1.13 -0.42,1.12 -0.1,0.27 -0.33,0.85 -0.44,1.13 -0.33,0.84 -0.11,0.28 -0.46,1.12 -0.46,1.13 -0.07,0.17 -0.4,0.95 -0.47,1.12 -0.22,0.51 -0.27,0.62 -0.5,1.12 -0.33,0.75 -0.17,0.37 -0.51,1.13 -0.42,0.91 -0.09,0.21 -0.53,1.12 -0.47,1 -0.06,0.13 -0.55,1.12 -0.49,1.01 -0.06,0.11 -0.55,1.13 -0.49,0.96 -0.08,0.16 -0.57,1.12 -0.44,0.86 -0.14,0.27 -0.59,1.12 -0.37,0.7 -0.22,0.42 -0.61,1.13 -0.27,0.49 -0.34,0.63 -0.62,1.12 -0.13,0.25 -0.49,0.88 -0.61,1.07 -0.03,0.05 -0.64,1.12 -0.43,0.75 -0.22,0.38 -0.65,1.12 -0.22,0.37 -0.45,0.75 -0.65,1.1 -0.02,0.03 -0.68,1.12 -0.4,0.65 -0.29,0.47 -0.69,1.13 -0.11,0.18 -0.59,0.94 -0.51,0.81 -0.2,0.31 -0.72,1.13 -0.18,0.27 -0.54,0.85 -0.55,0.85 -0.18,0.27 -0.74,1.13 -0.18,0.26 -0.57,0.86 -0.53,0.78 -0.23,0.34 -0.76,1.13 -0.1,0.15 -0.67,0.97 -0.43,0.62 -0.35,0.5 -0.75,1.07 -0.03,0.06 -0.8,1.12 -0.26,0.37 -0.54,0.75 -0.56,0.78 -0.25,0.35 -0.81,1.12 -0.04,0.04 -0.79,1.08 -0.3,0.41 -0.53,0.72 -0.57,0.75 -0.27,0.37 -0.83,1.09 -0.02,0.03 -0.86,1.13 -0.21,0.28 -0.65,0.84 -0.45,0.57 -0.43,0.55 -0.67,0.86 -0.21,0.27 -0.88,1.12 h -0.01 l -0.89,1.12 -0.2,0.25 -0.71,0.88 -0.39,0.47 -0.52,0.65 -0.57,0.69 -0.36,0.43 -0.74,0.9 -0.19,0.23 -0.91,1.08 -0.03,0.04 -0.95,1.12 -0.11,0.14 -0.84,0.99 -0.26,0.3 -0.71,0.82 -0.39,0.45 -0.58,0.67 -0.51,0.59 -0.48,0.54 -0.62,0.7 -0.37,0.42 -0.73,0.82 -0.27,0.3 -0.82,0.92 -0.19,0.21 -0.91,1 -0.11,0.12 -0.99,1.08 -0.04,0.04 -1.04,1.13 -0.01,0.01 -1.04,1.11 -0.06,0.07 -0.99,1.05 -0.11,0.11 -0.96,1.02 -0.13,0.14 -0.95,0.98 -0.15,0.16 -0.94,0.96 -0.16,0.17 -0.93,0.96 -0.16,0.16 -0.95,0.96 -0.15,0.15 -0.97,0.97 -0.13,0.13 -1,1 -0.09,0.09 -1.05,1.03 -0.05,0.05 -1.1,1.07 v 0 l -1.09,1.06 -0.07,0.07 -1.03,0.98 -0.14,0.14 -0.96,0.9 -0.23,0.22 -0.86,0.82 -0.33,0.31 -0.77,0.71 -0.44,0.41 -0.66,0.6 -0.56,0.52 -0.53,0.49 -0.7,0.64 -0.4,0.36 -0.85,0.76 -0.25,0.22 -1,0.9 -0.09,0.08 -1.1,0.97 -0.08,0.08 -1.02,0.88 -0.27,0.24 -0.82,0.72 -0.47,0.4 -0.63,0.54 -0.68,0.59 -0.42,0.35 -0.91,0.77 -0.18,0.16 -1.1,0.92 -0.06,0.04 -1.04,0.87 -0.31,0.26 -0.78,0.64 -0.59,0.48 -0.51,0.42 -0.87,0.7 -0.23,0.18 -1.09,0.88 -0.08,0.07 -1.02,0.8 -0.4,0.32 -0.7,0.55 -0.73,0.57 -0.36,0.28 -1.09,0.85 h -0.01 l -1.1,0.84 -0.36,0.28 -0.73,0.56 -0.76,0.56 -0.34,0.26 -1.1,0.82 -0.06,0.05 -1.03,0.76 -0.5,0.36 -0.6,0.44 -0.94,0.68 -0.16,0.12 -1.09,0.78 -0.31,0.23 -0.79,0.55 -0.8,0.57 -0.3,0.21 -1.09,0.76 -0.22,0.15 -0.88,0.61 -0.75,0.52 -0.35,0.23 -1.09,0.75 -0.22,0.14 -0.88,0.59 -0.8,0.53 -0.3,0.2 -1.09,0.72 -0.32,0.21 -0.78,0.51 -0.95,0.61 -0.15,0.09 -1.09,0.7 -0.53,0.33 -0.57,0.37 -1.1,0.68 -0.12,0.08 -0.97,0.6 -0.85,0.52 -0.25,0.15 -1.1,0.66 -0.51,0.31 -0.58,0.35 -1.1,0.65 -0.22,0.13 -0.88,0.51 -1.05,0.61 -0.04,0.03 -1.1,0.62 -0.83,0.47 -0.27,0.16 -1.09,0.61 -0.65,0.36 -0.45,0.24 -1.1,0.6 -0.51,0.28 -0.58,0.31 -1.1,0.59 -0.43,0.22 -0.67,0.36 -1.09,0.57 -0.39,0.2 -0.71,0.36 -1.1,0.55 -0.41,0.21 -0.68,0.34 -1.1,0.54 -0.5,0.24 -0.6,0.29 -1.09,0.53 -0.65,0.31 -0.45,0.21 -1.1,0.51 -0.87,0.4 -0.22,0.1 -1.1,0.49 -1.1,0.49 -0.09,0.04 -1,0.44 -1.1,0.48 -0.5,0.21 -0.6,0.25 -1.09,0.46 -1.01,0.41 -0.09,0.04 -1.1,0.44 -1.09,0.43 -0.55,0.21 -0.55,0.22 -1.1,0.41 -1.09,0.41 -0.23,0.09 -0.87,0.31 -1.1,0.4 -1.09,0.38 -0.08,0.03 -1.02,0.35 -1.1,0.37 -1.09,0.36 -0.15,0.04 -0.95,0.31 -1.1,0.34 -1.09,0.33 -0.49,0.15 -0.61,0.18 -1.1,0.31 -1.09,0.31 -1.1,0.3 -0.08,0.02 -1.02,0.27 -1.09,0.28 -1.1,0.27 -1.1,0.26 -0.19,0.04 -0.9,0.21 -1.1,0.24 -1.1,0.23 -1.09,0.23 -1.1,0.21 -0.05,0.01 -1.05,0.19 -1.09,0.19 -1.1,0.18 -1.1,0.17 -1.09,0.16 -1.1,0.15 -0.66,0.08 -0.44,0.05 -1.09,0.13 -1.1,0.11 -1.1,0.1 -1.09,0.09 -1.1,0.08 -1.1,0.06 -1.09,0.06 -1.1,0.03 -1.1,0.03 -1.09,0.01 h -1.1 l -1.1,-0.02 -1.09,-0.03 -1.1,-0.04 -1.1,-0.07 -1.09,-0.07 -1.1,-0.1 -1.1,-0.11 -1.09,-0.12 -1.1,-0.15 -0.28,-0.04 -0.82,-0.12 -1.09,-0.19 -1.1,-0.2 -1.1,-0.22 -1.09,-0.24 -0.65,-0.15 -0.45,-0.11 -1.1,-0.29 -1.09,-0.31 -1.1,-0.34 -0.25,-0.08 -0.85,-0.28 -1.09,-0.38 -1.1,-0.41 -0.12,-0.05 -0.98,-0.4 -1.09,-0.47 -0.56,-0.25 -0.54,-0.26 -1.1,-0.54 -0.63,-0.33 -0.46,-0.24 -1.1,-0.62 -0.45,-0.26 -0.65,-0.39 -1.09,-0.7 -0.06,-0.03 -1.04,-0.71 -0.58,-0.42 -0.52,-0.38 -0.96,-0.74 -0.13,-0.1 -1.1,-0.91 -0.13,-0.11 -0.97,-0.86 -0.28,-0.27 -0.81,-0.78 -0.35,-0.34 -0.75,-0.78 -0.32,-0.34 -0.78,-0.87 -0.22,-0.26 -0.87,-1.05 -0.06,-0.07 -0.86,-1.12 -0.18,-0.24 -0.63,-0.89 -0.47,-0.67 -0.29,-0.45 -0.72,-1.12 -0.08,-0.15 -0.58,-0.98 -0.52,-0.93 -0.1,-0.19 -0.58,-1.12 -0.42,-0.85 -0.13,-0.28 -0.51,-1.12 -0.45,-1.06 -0.03,-0.06 -0.44,-1.13 -0.42,-1.12 -0.21,-0.61 -0.18,-0.51 -0.35,-1.13 -0.34,-1.12 -0.23,-0.83 -0.08,-0.29 -0.28,-1.13 -0.26,-1.12 -0.24,-1.12 -0.22,-1.13 -0.01,-0.08 -0.18,-1.04 -0.18,-1.12 -0.16,-1.13 -0.13,-1.12 -0.12,-1.12 -0.11,-1.13 -0.08,-1.12 -0.07,-1.12 -0.05,-1.13 -0.02,-0.55"
                   style="stroke:#f58231;stroke-width:2;stroke-opacity:0.8"
                   id="path113" />
                <path
                   d="m 9.87,272.82 -0.14,-0.97 -0.15,-1.13 -0.13,-1.12 -0.12,-1.12 -0.1,-1.13 -0.09,-1.12 -0.07,-1.12 -0.06,-1.13 -0.04,-1.12 -0.04,-1.12 -0.01,-1.13 -0.01,-1.12 0.01,-1.12 0.02,-1.13 0.04,-1.12 0.04,-1.12 0.06,-1.13 0.07,-1.12 0.08,-1.12 0.09,-1.13 0.1,-1.12 0.11,-1.12 0.13,-1.13 0.13,-1.12 0.08,-0.63 0.06,-0.49 0.16,-1.13 0.16,-1.12 0.18,-1.12 0.18,-1.13 0.2,-1.12 0.16,-0.9 0.04,-0.22 0.21,-1.13 0.22,-1.12 0.23,-1.12 0.24,-1.13 0.15,-0.67 0.1,-0.45 0.26,-1.12 0.27,-1.13 0.27,-1.12 0.2,-0.79 0.09,-0.33 0.29,-1.13 0.3,-1.12 0.31,-1.12 0.11,-0.39 0.2,-0.74 0.33,-1.12 0.33,-1.12 0.23,-0.77 0.11,-0.36 0.35,-1.12 0.36,-1.12 0.28,-0.87 0.08,-0.26 0.38,-1.12 0.38,-1.12 0.26,-0.76 0.12,-0.37 0.4,-1.12 0.4,-1.12 0.17,-0.48 0.24,-0.65 0.42,-1.12 0.42,-1.12 0.02,-0.05 0.42,-1.08 0.43,-1.12 0.25,-0.61 0.2,-0.51 0.45,-1.13 0.44,-1.07 0.02,-0.05 0.47,-1.12 0.48,-1.13 0.13,-0.31 0.35,-0.81 0.49,-1.12 0.26,-0.59 0.23,-0.54 0.51,-1.12 0.35,-0.78 0.16,-0.34 0.51,-1.13 0.43,-0.91 0.1,-0.21 0.53,-1.12 0.47,-0.99 0.06,-0.14 0.55,-1.12 0.48,-0.99 0.07,-0.13 0.56,-1.13 0.47,-0.94 0.09,-0.18 0.57,-1.12 0.44,-0.85 0.14,-0.28 0.58,-1.12 0.37,-0.71 0.22,-0.41 0.6,-1.13 0.28,-0.52 0.32,-0.6 0.61,-1.12 0.17,-0.3 0.45,-0.83 0.62,-1.12 0.02,-0.03 0.62,-1.09 0.48,-0.86 0.15,-0.27 0.65,-1.12 0.3,-0.52 0.35,-0.6 0.65,-1.13 0.09,-0.15 0.57,-0.97 0.53,-0.88 0.14,-0.24 0.68,-1.13 0.28,-0.45 0.4,-0.67 0.69,-1.12 V 164 l 0.7,-1.12 0.4,-0.64 0.3,-0.48 0.71,-1.12 0.09,-0.14 0.62,-0.99 0.47,-0.73 0.26,-0.39 0.72,-1.12 0.12,-0.18 0.62,-0.95 0.48,-0.72 0.26,-0.4 0.75,-1.12 0.08,-0.13 0.68,-1 0.42,-0.62 0.34,-0.5 0.76,-1.11 v -0.01 l 0.78,-1.13 0.31,-0.45 0.47,-0.67 0.63,-0.9 0.16,-0.22 0.79,-1.13 0.15,-0.2 0.66,-0.92 0.43,-0.61 0.38,-0.51 0.72,-1 0.09,-0.13 0.82,-1.12 0.19,-0.25 0.64,-0.87 0.45,-0.61 0.39,-0.52 0.71,-0.95 0.13,-0.17 0.85,-1.12 0.12,-0.16 0.74,-0.97 0.35,-0.46 0.51,-0.66 0.59,-0.76 0.28,-0.36 0.82,-1.05 0.06,-0.08 0.88,-1.12 0.15,-0.19 0.75,-0.93 0.35,-0.45 0.54,-0.68 0.56,-0.68 0.35,-0.44 0.74,-0.92 0.17,-0.2 0.92,-1.13 0.01,-0.01 0.92,-1.11 0.18,-0.21 0.76,-0.91 0.33,-0.4 0.61,-0.73 0.49,-0.58 0.46,-0.54 0.64,-0.75 0.32,-0.37 0.77,-0.91 0.19,-0.22 0.91,-1.04 0.07,-0.08 0.98,-1.12 0.05,-0.06 0.93,-1.07 0.16,-0.18 0.84,-0.94 0.26,-0.29 0.75,-0.83 0.35,-0.39 0.66,-0.74 0.43,-0.48 0.59,-0.64 0.51,-0.56 0.52,-0.56 0.58,-0.63 0.45,-0.5 0.64,-0.69 0.41,-0.43 0.69,-0.74 0.36,-0.38 0.74,-0.78 0.32,-0.35 0.77,-0.81 0.3,-0.31 0.8,-0.83 0.28,-0.29 0.82,-0.85 0.27,-0.28 0.82,-0.84 0.27,-0.28 0.83,-0.84 0.28,-0.28 0.82,-0.83 0.29,-0.3 0.8,-0.8 0.32,-0.32 0.78,-0.77 0.36,-0.35 0.74,-0.73 0.4,-0.4 0.69,-0.68 0.46,-0.44 0.64,-0.62 0.52,-0.5 0.58,-0.56 0.59,-0.57 0.5,-0.48 0.68,-0.64 0.42,-0.4 0.77,-0.72 0.33,-0.31 0.87,-0.82 0.22,-0.21 0.99,-0.91 0.11,-0.1 1.1,-1.01 0.01,-0.01 1.08,-0.99 0.15,-0.14 0.95,-0.86 0.29,-0.26 0.81,-0.72 0.45,-0.4 0.64,-0.58 0.62,-0.55 0.48,-0.42 0.79,-0.7 0.31,-0.26 0.98,-0.86 0.11,-0.1 1.1,-0.95 0.09,-0.08 1.01,-0.86 0.3,-0.26 0.79,-0.67 0.53,-0.45 0.57,-0.48 0.77,-0.65 0.33,-0.27 1.02,-0.85 0.07,-0.06 1.1,-0.91 0.19,-0.15 0.91,-0.75 0.46,-0.38 0.63,-0.51 0.76,-0.61 0.34,-0.28 1.06,-0.84 0.04,-0.03 1.09,-0.87 0.28,-0.23 0.82,-0.64 0.61,-0.48 0.49,-0.38 0.96,-0.74 0.13,-0.11 1.1,-0.84 0.23,-0.18 0.87,-0.66 0.6,-0.46 0.49,-0.37 1,-0.75 0.1,-0.08 1.1,-0.81 0.31,-0.24 0.78,-0.57 0.75,-0.55 0.35,-0.26 1.1,-0.8 0.09,-0.06 1,-0.73 0.56,-0.4 0.54,-0.38 1.03,-0.74 0.07,-0.04 1.09,-0.78 0.44,-0.3 0.66,-0.46 0.96,-0.67 0.14,-0.09 1.09,-0.76 0.41,-0.27 0.69,-0.47 0.96,-0.65 0.14,-0.09 1.09,-0.74 0.45,-0.3 0.65,-0.43 1.05,-0.69 0.05,-0.03 1.09,-0.71 0.59,-0.38 0.51,-0.33 1.1,-0.71 0.14,-0.09 0.95,-0.6 0.82,-0.52 0.28,-0.17 1.1,-0.69 0.43,-0.26 0.66,-0.41 1.1,-0.68 0.06,-0.04 1.04,-0.62 0.82,-0.5 0.27,-0.16 1.1,-0.65 0.52,-0.31 0.58,-0.34 1.09,-0.64 0.25,-0.15 0.85,-0.49 1.1,-0.63 h 0.01 l 1.08,-0.62 0.91,-0.5 0.19,-0.11 1.1,-0.61 0.73,-0.41 0.36,-0.19 1.1,-0.6 0.61,-0.33 0.49,-0.26 1.09,-0.59 0.53,-0.27 0.57,-0.3 1.1,-0.57 0.49,-0.26 0.6,-0.31 1.1,-0.56 0.5,-0.25 0.6,-0.3 1.09,-0.55 0.56,-0.27 0.54,-0.27 1.1,-0.53 0.68,-0.33 0.41,-0.2 1.1,-0.52 0.86,-0.4 0.24,-0.11 1.09,-0.51 1.1,-0.5 h 0.01 l 1.09,-0.49 1.09,-0.49 0.34,-0.15 0.76,-0.33 1.1,-0.48 0.73,-0.31 0.36,-0.15 1.1,-0.46 1.1,-0.46 0.13,-0.05 0.96,-0.4 1.1,-0.44 0.73,-0.29 0.37,-0.14 1.09,-0.43 1.1,-0.42 0.35,-0.13 0.75,-0.28 1.09,-0.41 1.1,-0.4 0.1,-0.03 1,-0.36 1.09,-0.38 1.1,-0.38 0.02,-0.01 1.08,-0.36 1.09,-0.36 1.1,-0.36 0.13,-0.04 0.97,-0.31 1.09,-0.34 1.1,-0.33 0.48,-0.14 0.62,-0.19 1.09,-0.31 1.1,-0.31 1.1,-0.31 0.03,-0.01 1.06,-0.28 1.1,-0.29 1.1,-0.28 1.09,-0.27 h 0.01 l 1.09,-0.26 1.1,-0.25 1.09,-0.25 1.1,-0.24 0.6,-0.12 0.5,-0.11 1.09,-0.21 1.1,-0.22 1.1,-0.2 1.09,-0.19 1.1,-0.19 0.06,-0.01 1.04,-0.16 1.09,-0.17 1.1,-0.15 1.1,-0.15 1.09,-0.14 1.1,-0.12 1.1,-0.12 1.09,-0.11 h 0.03 l 1.07,-0.09 1.1,-0.09 1.09,-0.07 1.1,-0.07 1.1,-0.05 1.09,-0.04 1.1,-0.03 1.1,-0.02 1.09,-0.01 1.1,0.01 1.1,0.02 1.09,0.03 1.1,0.04 1.1,0.06 1.09,0.07 1.1,0.08 1.1,0.1 0.59,0.06 0.5,0.05 1.1,0.13 1.1,0.15 1.09,0.15 1.1,0.18 1.1,0.19 1.09,0.21 0.32,0.06 0.78,0.17 1.1,0.24 1.09,0.26 1.1,0.29 0.62,0.17 0.48,0.13 1.09,0.32 1.1,0.35 0.97,0.32 0.13,0.04 1.09,0.4 1.1,0.41 0.69,0.27 0.41,0.17 1.09,0.47 1.1,0.49 v 0 l 1.1,0.52 1.09,0.55 0.1,0.05 1,0.54 1.05,0.58 0.05,0.03 1.09,0.65 0.71,0.45 0.39,0.24 1.1,0.73 0.21,0.15 0.88,0.62 0.68,0.5 0.42,0.32 1.03,0.81 0.07,0.05 1.09,0.92 0.18,0.15 0.92,0.82 0.32,0.3 0.78,0.74 0.39,0.39 0.7,0.71 0.39,0.41 0.71,0.77 0.32,0.35 0.78,0.9 0.18,0.23 0.91,1.12 v 0 l 0.86,1.12 0.24,0.34 0.56,0.79 0.54,0.78 0.23,0.34 0.72,1.12 0.14,0.24 0.53,0.89 0.57,0.98 0.08,0.14 0.6,1.12 0.42,0.81 0.15,0.32 0.54,1.12 0.4,0.87 0.12,0.25 0.48,1.13 0.45,1.12 0.05,0.13 0.38,0.99 0.4,1.13 0.32,0.94 0.06,0.18 0.35,1.12 0.33,1.13 0.31,1.12 0.04,0.16 0.25,0.96 0.27,1.13 0.25,1.12 0.23,1.12 0.1,0.54 0.11,0.59 0.19,1.12 0.18,1.12 0.16,1.13 0.14,1.12 0.13,1.12 0.11,1.13 0.08,0.88 0.02,0.24 0.08,1.12 0.07,1.13 0.05,1.12 0.04,1.12 0.02,1.13 0.02,1.12 v 1.12 l -0.02,1.13 -0.02,1.12 -0.04,1.12 -0.05,1.13 -0.06,1.12 -0.07,1.12 -0.04,0.55 -0.05,0.58 -0.09,1.12 -0.11,1.12 -0.12,1.13 -0.12,1.12 -0.14,1.12 -0.15,1.13 -0.16,1.12 -0.16,1.1 v 0.02 l -0.18,1.13 -0.19,1.12 -0.2,1.12 -0.2,1.13 -0.22,1.12 -0.11,0.54 -0.11,0.58 -0.24,1.13 -0.24,1.12 -0.25,1.12 -0.25,1.08 -0.01,0.05 -0.28,1.12 -0.27,1.12 -0.29,1.13 -0.25,0.95 -0.04,0.17 -0.31,1.12 -0.31,1.13 -0.32,1.12 -0.12,0.4 -0.21,0.72 -0.33,1.13 -0.35,1.12 -0.2,0.66 -0.15,0.46 -0.36,1.13 -0.37,1.12 -0.22,0.67 -0.15,0.45 -0.38,1.13 -0.39,1.12 -0.18,0.49 -0.22,0.63 -0.41,1.13 -0.41,1.12 -0.05,0.14 -0.37,0.98 -0.43,1.13 -0.3,0.78 -0.13,0.34 -0.44,1.12 -0.45,1.13 -0.08,0.18 -0.38,0.94 -0.46,1.12 -0.25,0.6 -0.22,0.53 -0.48,1.12 -0.4,0.93 -0.08,0.19 -0.5,1.13 -0.49,1.12 -0.03,0.05 -0.48,1.07 -0.51,1.13 -0.1,0.22 -0.42,0.9 -0.53,1.12 -0.15,0.33 -0.38,0.8 -0.54,1.12 -0.18,0.37 -0.37,0.75 -0.55,1.13 -0.17,0.35 -0.39,0.77 -0.56,1.12 -0.15,0.29 -0.43,0.84 -0.58,1.12 -0.09,0.17 -0.49,0.95 -0.6,1.13 v 0.01 l -0.6,1.11 -0.5,0.93 -0.1,0.19 -0.62,1.13 -0.38,0.69 -0.23,0.43 -0.63,1.12 -0.23,0.42 -0.4,0.71 -0.64,1.12 -0.06,0.1 -0.59,1.02 -0.51,0.88 -0.14,0.25 -0.66,1.12 -0.29,0.5 -0.37,0.62 -0.68,1.13 -0.05,0.09 -0.63,1.03 -0.47,0.77 -0.21,0.35 -0.69,1.13 -0.19,0.31 -0.51,0.81 -0.59,0.94 -0.11,0.18 -0.72,1.13 -0.27,0.42 -0.44,0.7 -0.65,1.01 -0.08,0.11 -0.73,1.13 -0.29,0.44 -0.45,0.68 -0.65,0.98 -0.09,0.14 -0.75,1.13 -0.25,0.37 -0.51,0.75 -0.59,0.87 -0.17,0.25 -0.77,1.13 -0.16,0.22 -0.62,0.9 -0.47,0.68 -0.31,0.44 -0.79,1.12 v 0.01 l -0.8,1.12 -0.3,0.41 -0.51,0.71 -0.58,0.82 -0.23,0.31 -0.81,1.12 -0.06,0.08 -0.77,1.04 -0.33,0.45 -0.5,0.68 -0.59,0.79 -0.25,0.33 -0.84,1.12 -0.01,0.01 -0.85,1.12 -0.25,0.32 -0.61,0.8 -0.48,0.63 -0.38,0.49 -0.72,0.93 -0.15,0.2 -0.88,1.12 -0.07,0.08 -0.82,1.04 -0.27,0.34 -0.63,0.79 -0.47,0.59 -0.43,0.53 -0.67,0.83 -0.24,0.29 -0.85,1.05 -0.06,0.08 -0.93,1.12 -0.11,0.14 -0.82,0.98 -0.28,0.34 -0.66,0.79 -0.43,0.52 -0.51,0.6 -0.59,0.7 -0.36,0.42 -0.74,0.86 -0.22,0.27 -0.87,1.01 -0.1,0.11 -0.98,1.12 -0.02,0.03 -0.96,1.1 -0.14,0.15 -0.85,0.97 -0.24,0.27 -0.76,0.85 -0.34,0.38 -0.67,0.75 -0.43,0.47 -0.58,0.65 -0.51,0.56 -0.52,0.56 -0.58,0.64 -0.45,0.49 -0.65,0.7 -0.39,0.42 -0.7,0.76 -0.34,0.36 -0.76,0.81 -0.3,0.32 -0.8,0.84 -0.26,0.28 -0.83,0.87 -0.25,0.25 -0.85,0.89 -0.23,0.24 -0.87,0.89 -0.22,0.23 -0.87,0.89 -0.23,0.23 -0.87,0.89 -0.24,0.24 -0.86,0.86 -0.25,0.26 -0.84,0.84 -0.29,0.28 -0.81,0.81 -0.33,0.32 -0.77,0.75 -0.37,0.37 -0.72,0.71 -0.43,0.41 -0.67,0.65 -0.5,0.48 -0.6,0.57 -0.57,0.55 -0.52,0.5 -0.67,0.62 -0.43,0.41 -0.76,0.72 -0.34,0.31 -0.86,0.81 -0.23,0.22 -0.99,0.9 -0.11,0.11 -1.1,1.01 -0.01,0.01 -1.08,0.98 -0.15,0.14 -0.95,0.85 -0.3,0.27 -0.8,0.72 -0.46,0.41 -0.63,0.56 -0.64,0.56 -0.46,0.41 -0.82,0.71 -0.28,0.25 -1.01,0.88 -0.08,0.07 -1.1,0.95 -0.12,0.1 -0.98,0.84 -0.33,0.28 -0.76,0.65 -0.57,0.48 -0.53,0.44 -0.81,0.68 -0.29,0.24 -1.06,0.88 -0.03,0.03 -1.1,0.9 -0.24,0.2 -0.86,0.7 -0.52,0.42 -0.57,0.47 -0.82,0.65 -0.28,0.23 -1.1,0.87 -0.02,0.03 -1.07,0.84 -0.36,0.28 -0.74,0.58 -0.69,0.54 -0.41,0.32 -1.04,0.81 -0.05,0.04 -1.1,0.84 -0.32,0.24 -0.78,0.59 -0.7,0.53 -0.39,0.3 -1.1,0.82 v 0.01 l -1.1,0.81 -0.42,0.31 -0.67,0.5 -0.86,0.62 -0.24,0.18 -1.1,0.8 -0.21,0.15 -0.88,0.63 -0.68,0.49 -0.42,0.3 -1.1,0.77 -0.07,0.05 -1.02,0.72 -0.58,0.41 -0.52,0.36 -1.1,0.76 v 0 l -1.09,0.75 -0.56,0.37 -0.54,0.37 -1.1,0.74 -0.02,0.02 -1.07,0.71 -0.62,0.41 -0.48,0.32 -1.1,0.72 -0.13,0.08 -0.96,0.63 -0.78,0.5 -0.32,0.21 -1.1,0.7 -0.33,0.21 -0.76,0.48 -1.03,0.64 -0.07,0.05 -1.1,0.68 -0.64,0.4 -0.45,0.28 -1.1,0.66 -0.29,0.18 -0.81,0.49 -1.06,0.63 -0.03,0.02 -1.1,0.65 -0.77,0.46 -0.33,0.19 -1.09,0.64 -0.51,0.29 -0.59,0.34 -1.1,0.62 -0.28,0.16 -0.81,0.46 -1.1,0.62 -0.09,0.05 -1.01,0.55 -1.03,0.57 -0.06,0.03 -1.1,0.6 -0.92,0.49 -0.18,0.1 -1.09,0.58 -0.86,0.45 -0.24,0.12 -1.1,0.57 -0.83,0.43 -0.26,0.13 -1.1,0.56 -0.86,0.43 -0.24,0.12 -1.09,0.54 -0.95,0.47 -0.15,0.07 -1.1,0.53 -1.08,0.52 -0.01,0.01 -1.1,0.51 -1.1,0.51 -0.19,0.09 -0.9,0.42 -1.1,0.5 -0.47,0.21 -0.63,0.28 -1.09,0.48 -0.82,0.36 -0.28,0.12 -1.1,0.47 -1.09,0.47 -0.16,0.06 -0.94,0.4 -1.1,0.45 -0.68,0.28 -0.41,0.16 -1.1,0.44 -1.1,0.43 -0.22,0.09 -0.87,0.34 -1.1,0.41 -0.99,0.37 -0.11,0.04 -1.09,0.41 -1.1,0.39 -0.8,0.29 -0.3,0.1 -1.09,0.38 -1.1,0.38 -0.78,0.26 -0.32,0.11 -1.09,0.36 -1.1,0.35 -0.96,0.3 -0.14,0.04 -1.09,0.34 -1.1,0.33 -1.1,0.33 -0.31,0.09 -0.78,0.22 -1.1,0.31 -1.1,0.3 -1.09,0.29 h -0.01 l -1.09,0.28 -1.1,0.28 -1.09,0.26 -1.1,0.26 -0.18,0.04 -0.92,0.21 -1.09,0.24 -1.1,0.24 -1.1,0.22 -1.07,0.22 h -0.02 l -1.1,0.21 -1.1,0.2 -1.09,0.19 -1.1,0.18 -1.1,0.17 -1.09,0.16 -0.07,0.01 -1.03,0.14 -1.1,0.14 -1.09,0.14 -1.1,0.12 -1.1,0.11 -1.09,0.11 -1.1,0.09 -1.1,0.08 -1.09,0.07 -1.1,0.06 -1.1,0.05 -0.42,0.01 -0.67,0.03 -1.1,0.02 -1.1,0.02 h -1.09 l -1.1,-0.01 -1.1,-0.03 -0.93,-0.03 H 66.9 l -1.1,-0.05 -1.1,-0.06 -1.09,-0.08 -1.1,-0.09 -1.1,-0.11 -1.09,-0.11 -1.1,-0.14 -1.1,-0.15 -1.09,-0.16 -1.02,-0.17 -0.08,-0.01 -1.1,-0.2 -1.09,-0.22 -1.1,-0.23 -1.1,-0.25 -0.85,-0.21 -0.24,-0.06 -1.1,-0.3 -1.1,-0.31 -1.09,-0.33 -0.41,-0.13 -0.69,-0.22 -1.1,-0.38 -1.09,-0.4 -0.32,-0.12 -0.78,-0.3 -1.1,-0.45 -0.85,-0.37 -0.24,-0.11 -1.1,-0.5 -1.06,-0.52 -0.04,-0.02 -1.09,-0.56 -1,-0.54 -0.1,-0.06 -1.1,-0.63 -0.72,-0.43 -0.37,-0.24 -1.1,-0.7 -0.28,-0.19 -0.82,-0.56 -0.79,-0.56 -0.3,-0.23 -1.1,-0.83 -0.08,-0.06 -1.02,-0.83 -0.35,-0.3 -0.74,-0.64 -0.54,-0.48 -0.56,-0.51 -0.64,-0.61 -0.46,-0.45 -0.66,-0.68 -0.43,-0.45 -0.62,-0.67 -0.48,-0.54 -0.5,-0.58 -0.6,-0.71 -0.33,-0.42 -0.76,-0.97 -0.12,-0.15 -0.82,-1.12 -0.16,-0.23 -0.62,-0.9 -0.48,-0.73 -0.25,-0.39 -0.69,-1.12 -0.15,-0.25 -0.51,-0.88 -0.59,-1.07 -0.03,-0.05 -0.58,-1.12 -0.49,-0.99 -0.06,-0.14 -0.52,-1.12 -0.5,-1.12 -0.01,-0.04 -0.45,-1.09 -0.44,-1.12 -0.21,-0.58 -0.2,-0.54 -0.38,-1.13 -0.37,-1.12 -0.15,-0.49 -0.18,-0.63 -0.32,-1.13 -0.3,-1.12 -0.28,-1.12 -0.01,-0.08 -0.24,-1.05 -0.24,-1.12 -0.21,-1.12 -0.2,-1.13 -0.19,-1.12 -0.02,-0.15"
                   style="stroke:#f58231;stroke-width:2;stroke-opacity:1"
                   id="path115" />
                <path
                   d="m 115.15,203.06 -0.21,-0.86 -0.23,-1.12 -0.17,-1.13 -0.11,-1.12 -0.07,-1.12 -0.03,-1.13 0.01,-1.12 0.06,-1.12 0.08,-1.13 0.13,-1.12 0.15,-1.12 0.19,-1.13 0.2,-1.05 0.01,-0.07 0.25,-1.12 0.28,-1.13 0.29,-1.12 0.27,-0.91 0.06,-0.21 0.35,-1.13 0.38,-1.12 0.3,-0.87 0.09,-0.25 0.43,-1.13 0.44,-1.12 0.14,-0.33 0.33,-0.79 0.49,-1.13 0.28,-0.6 0.24,-0.52 0.53,-1.12 0.32,-0.66 0.23,-0.47 0.58,-1.12 0.29,-0.55 0.31,-0.57 0.62,-1.13 0.17,-0.3 0.47,-0.82 0.62,-1.07 0.03,-0.05 0.69,-1.13 0.38,-0.61 0.32,-0.51 0.72,-1.12 0.06,-0.09 0.68,-1.04 0.41,-0.6 0.36,-0.52 0.74,-1.07 0.04,-0.05 0.81,-1.13 0.25,-0.34 0.58,-0.78 0.51,-0.69 0.34,-0.43 0.76,-0.99 0.11,-0.14 0.89,-1.12 0.1,-0.12 0.82,-1 0.27,-0.33 0.67,-0.8 0.43,-0.5 0.53,-0.62 0.57,-0.64 0.42,-0.48 0.67,-0.75 0.34,-0.38 0.76,-0.82 0.28,-0.3 0.82,-0.86 0.25,-0.26 0.84,-0.87 0.25,-0.26 0.85,-0.85 0.27,-0.27 0.83,-0.81 0.32,-0.31 0.77,-0.74 0.41,-0.39 0.69,-0.64 0.53,-0.48 0.57,-0.52 0.67,-0.6 0.42,-0.37 0.86,-0.76 0.24,-0.2 1.08,-0.92 0.02,-0.01 1.09,-0.91 0.25,-0.2 0.85,-0.68 0.56,-0.45 0.54,-0.42 0.9,-0.7 0.19,-0.14 1.1,-0.83 0.21,-0.15 0.89,-0.65 0.67,-0.48 0.42,-0.3 1.1,-0.76 0.08,-0.06 1.02,-0.68 0.66,-0.44 0.43,-0.28 1.1,-0.71 0.22,-0.14 0.88,-0.54 0.96,-0.58 0.13,-0.08 1.1,-0.64 0.71,-0.4 0.39,-0.22 1.09,-0.61 0.57,-0.3 0.53,-0.28 1.1,-0.56 0.56,-0.28 0.53,-0.26 1.1,-0.53 0.73,-0.33 0.37,-0.17 1.09,-0.48 1.1,-0.46 0.04,-0.02 1.06,-0.42 1.09,-0.41 0.8,-0.29 0.3,-0.11 1.1,-0.37 1.09,-0.35 1,-0.29 0.1,-0.03 1.1,-0.3 1.09,-0.27 1.1,-0.25 1.1,-0.23 0.27,-0.05 0.82,-0.14 1.1,-0.16 1.1,-0.14 1.09,-0.1 1.1,-0.07 1.1,-0.03 1.09,0.01 1.1,0.04 1.1,0.09 1.09,0.13 1.1,0.19 0.86,0.18 0.24,0.06 1.09,0.3 1.1,0.37 0.99,0.4 0.11,0.04 1.09,0.54 0.94,0.54 0.16,0.1 1.1,0.76 0.33,0.26 0.76,0.66 0.5,0.47 0.6,0.63 0.42,0.49 0.68,0.89 0.16,0.23 0.7,1.13 0.23,0.42 0.36,0.7 0.49,1.12 0.25,0.69 0.15,0.44 0.33,1.12 0.26,1.12 0.21,1.13 0.15,1.1 v 0.02 l 0.1,1.12 0.05,1.13 0.01,1.12 -0.03,1.12 -0.06,1.13 -0.07,0.81 -0.03,0.31 -0.14,1.12 -0.17,1.13 -0.19,1.12 -0.23,1.12 -0.25,1.13 -0.09,0.34 -0.2,0.78 -0.31,1.12 -0.33,1.13 -0.26,0.79 -0.1,0.33 -0.39,1.12 -0.4,1.13 -0.2,0.52 -0.24,0.6 -0.45,1.12 -0.41,0.98 -0.06,0.15 -0.51,1.12 -0.51,1.12 -0.02,0.03 -0.53,1.1 -0.56,1.12 v 0.01 l -0.58,1.11 -0.52,0.97 -0.09,0.16 -0.63,1.12 -0.38,0.67 -0.26,0.45 -0.67,1.13 -0.16,0.27 -0.53,0.85 -0.57,0.91 -0.13,0.21 -0.73,1.13 -0.24,0.35 -0.52,0.77 -0.57,0.84 -0.2,0.28 -0.79,1.13 -0.11,0.15 -0.7,0.97 -0.4,0.53 -0.44,0.59 -0.65,0.86 -0.21,0.27 -0.87,1.12 -0.02,0.02 -0.89,1.1 -0.21,0.26 -0.71,0.87 -0.38,0.45 -0.57,0.67 -0.53,0.61 -0.45,0.51 -0.65,0.74 -0.34,0.39 -0.75,0.82 -0.27,0.3 -0.83,0.89 -0.22,0.23 -0.88,0.92 -0.2,0.21 -0.89,0.91 -0.21,0.21 -0.89,0.89 -0.24,0.23 -0.86,0.83 -0.3,0.3 -0.79,0.74 -0.41,0.38 -0.69,0.64 -0.53,0.48 -0.57,0.51 -0.69,0.62 -0.4,0.35 -0.89,0.77 -0.21,0.18 -1.1,0.92 -0.03,0.02 -1.06,0.88 -0.31,0.25 -0.79,0.62 -0.63,0.5 -0.47,0.36 -0.99,0.76 -0.1,0.08 -1.1,0.81 -0.32,0.24 -0.78,0.55 -0.8,0.57 -0.29,0.21 -1.1,0.75 -0.24,0.16 -0.86,0.57 -0.84,0.56 -0.25,0.16 -1.1,0.69 -0.44,0.27 -0.66,0.4 -1.09,0.66 -0.11,0.06 -0.99,0.57 -0.98,0.56 -0.12,0.06 -1.09,0.59 -0.89,0.47 -0.21,0.11 -1.1,0.55 -0.94,0.46 -0.15,0.08 -1.1,0.51 -1.1,0.5 -0.09,0.04 -1,0.42 -1.1,0.46 -0.62,0.24 -0.48,0.19 -1.09,0.4 -1.1,0.39 -0.43,0.14 -0.67,0.22 -1.09,0.34 -1.1,0.31 -0.94,0.26 -0.16,0.04 -1.09,0.26 -1.1,0.23 -1.1,0.22 -1.09,0.18 -1.1,0.15 -0.33,0.04 -0.77,0.08 -1.09,0.09 -1.1,0.05 -1.1,0.02 -1.09,-0.02 -1.1,-0.06 -1.1,-0.1 -0.4,-0.06 -0.69,-0.1 -1.1,-0.21 -1.1,-0.27 -1.09,-0.32 -0.63,-0.22 -0.47,-0.18 -1.1,-0.48 -0.9,-0.47 -0.19,-0.1 -1.1,-0.69 -0.47,-0.33 -0.63,-0.49 -0.73,-0.63 -0.36,-0.35 -0.73,-0.78 -0.37,-0.43 -0.53,-0.69 -0.57,-0.82 -0.18,-0.3 -0.63,-1.13 -0.28,-0.59 -0.24,-0.53 -0.43,-1.12 -0.36,-1.13 -0.07,-0.26"
                   style="stroke:#f58231;stroke-width:2;stroke-opacity:0.3"
                   id="path117" />
              </g>
            </g>
            <rect
               class="real"
               x="1"
               y="1"
               width="327"
               height="335"
               style="stroke:none"
               id="rect123" />
          </g>
        </g>
      </g>
      <g
         class="composite-shape"
         id="g133">
        <path
           class="real"
           d="M 19,14 H 392.33 V 363.67 H 19 Z"
           style="fill:none;fill-opacity:1;stroke:#000000;stroke-width:1"
           id="path131" />
      </g>
      <g
         class="arrow-line"
         id="g137">
        <path
           class="connection real"
           stroke-dasharray="none"
           d="m 144,241 v 97"
           style="fill:none;fill-opacity:1;stroke:#7ed321;stroke-width:2;stroke-opacity:1"
           id="path135" />
      </g>
      <g
         class="arrow-line"
         id="g141">
        <path
           class="connection real"
           stroke-dasharray="none"
           d="m 144,241 h 27.33"
           style="fill:none;fill-opacity:1;stroke:#7ed321;stroke-width:2;stroke-opacity:1"
           id="path139" />
      </g>
      <g
         class="composite-shape"
         id="g145">
        <path
           class="real"
           d="m 139,337.17 c 0,-2.86 2.31,-5.17 5.17,-5.17 2.85,0 5.16,2.31 5.16,5.17 0,2.85 -2.31,5.16 -5.16,5.16 -2.86,0 -5.17,-2.31 -5.17,-5.16 z"
           style="fill:#ffffff;fill-opacity:1;stroke:#7ed321;stroke-width:2;stroke-opacity:1"
           id="path143" />
      </g>
      <g
         class="arrow-line"
         id="g149">
        <path
           class="connection real"
           stroke-dasharray="none"
           d="m 171.33,212 v 29"
           style="fill:none;fill-opacity:1;stroke:#7ed321;stroke-width:2;stroke-opacity:1"
           id="path147" />
      </g>
      <g
         class="arrow-line"
         id="g153">
        <path
           class="connection real"
           stroke-dasharray="none"
           d="m 171.33,212 h 15"
           style="fill:none;fill-opacity:1;stroke:#7ed321;stroke-width:2;stroke-opacity:1"
           id="path151" />
      </g>
      <g
         class="arrow-line"
         id="g157">
        <path
           class="connection real"
           stroke-dasharray="none"
           d="m 186.33,199 v 13"
           style="fill:none;fill-opacity:1;stroke:#7ed321;stroke-width:2;stroke-opacity:1"
           id="path155" />
      </g>
      <g
         class="arrow-line"
         id="g161">
        <path
           class="connection real"
           stroke-dasharray="none"
           d="m 186.33,199 h 10"
           style="fill:none;fill-opacity:1;stroke:#7ed321;stroke-width:2;stroke-opacity:1"
           id="path159" />
      </g>
      <g
         class="arrow-line"
         id="g165">
        <path
           class="connection real"
           stroke-dasharray="none"
           d="m 196.33,191 v 8"
           style="fill:none;fill-opacity:1;stroke:#7ed321;stroke-width:2;stroke-opacity:1"
           id="path163" />
      </g>
      <g
         class="arrow-line"
         id="g169">
        <path
           class="connection real"
           stroke-dasharray="none"
           d="m 196.33,191 5,0.67"
           style="fill:none;fill-opacity:1;stroke:#7ed321;stroke-width:2;stroke-opacity:1"
           id="path167" />
      </g>
      <g
         id="g171" />
    </g>
    <g
       id="g175" />
    <g
       id="g177" />
    <g
       id="g179" />
  </svg>
  <svg
     width="660"
     height="382"
     style="font-family:Asana-Math, Asana"
     version="1.1"
     id="svg183" />
</svg>
