<?xml version="1.0" encoding="UTF-8" standalone="no"?>
<svg
   x="0"
   y="0"
   width="500"
   height="294.33334"
   style="fill:none"
   version="1.1"
   id="svg547"
   sodipodi:docname="SGD_with_momentum.svg"
   inkscape:version="1.1.2 (b8e25be833, 2022-02-05)"
   xmlns:inkscape="http://www.inkscape.org/namespaces/inkscape"
   xmlns:sodipodi="http://sodipodi.sourceforge.net/DTD/sodipodi-0.dtd"
   xmlns="http://www.w3.org/2000/svg"
   xmlns:svg="http://www.w3.org/2000/svg">
  <defs
     id="defs551" />
  <sodipodi:namedview
     id="namedview549"
     pagecolor="#ffffff"
     bordercolor="#666666"
     borderopacity="1.0"
     inkscape:pageshadow="2"
     inkscape:pageopacity="0.0"
     inkscape:pagecheckerboard="0"
     showgrid="false"
     inkscape:zoom="1.454637"
     inkscape:cx="330.66669"
     inkscape:cy="147.11574"
     inkscape:window-width="1920"
     inkscape:window-height="986"
     inkscape:window-x="-11"
     inkscape:window-y="-11"
     inkscape:window-maximized="1"
     inkscape:current-layer="svg547" />
  <svg
     version="1.1"
     id="svg281"
     width="100%"
     height="100%" />
  <svg
     class="role-diagram-draw-area"
     version="1.1"
     id="svg469"
     width="100%"
     height="100%">
    <g
       class="shapes-region"
       style="fill:none;stroke:#000000"
       id="g457">
      <g
         class="composite-shape"
         id="g285">
        <path
           class="real"
           d="M 13.61,10.33 H 485.33 V 281 H 13.61 Z"
           style="fill:none;fill-opacity:1;stroke:#000000;stroke-width:1"
           id="path283" />
      </g>
      <g
         class="grouped-shape"
         id="g311">
        <g
           class="composite-shape"
           id="g289">
          <path
             class="real"
             d="m 14.04,153.24 c 156.3,48.06 313.38,50.81 471.26,8.22"
             style="fill:none;fill-opacity:1;stroke:#000000;stroke-width:1;stroke-opacity:0.6"
             id="path287" />
        </g>
        <g
           class="composite-shape"
           id="g293">
          <path
             class="real"
             d="m 13.46,186.23 c 156.37,44.08 313.46,46.82 471.26,8.23"
             style="fill:none;fill-opacity:1;stroke:#000000;stroke-width:1;stroke-opacity:0.6"
             id="path291" />
        </g>
        <g
           class="composite-shape"
           id="g297">
          <path
             class="real"
             d="m 12.04,210.21 c 156.46,38.74 313.56,41.48 471.27,8.23"
             style="fill:none;fill-opacity:1;stroke:#000000;stroke-width:1;stroke-opacity:0.6"
             id="path295" />
        </g>
        <g
           class="composite-shape"
           id="g301">
          <path
             class="real"
             d="m 11.75,227.21 c 156.55,33.41 313.63,36.15 471.26,8.23"
             style="fill:none;fill-opacity:1;stroke:#000000;stroke-width:1;stroke-opacity:0.6"
             id="path299" />
        </g>
        <g
           class="composite-shape"
           id="g305">
          <path
             class="real"
             d="m 12.47,243.22 c 156.69,25.41 313.78,28.15 471.26,8.23"
             style="fill:none;fill-opacity:1;stroke:#000000;stroke-width:1;stroke-opacity:0.6"
             id="path303" />
        </g>
        <g
           class="composite-shape"
           id="g309">
          <path
             class="real"
             d="m 11.29,253.21 c 156.74,22.74 313.83,25.48 471.27,8.22"
             style="fill:none;fill-opacity:1;stroke:#000000;stroke-width:1;stroke-opacity:0.6"
             id="path307" />
        </g>
      </g>
      <g
         class="grouped-shape"
         id="g337">
        <g
           class="composite-shape"
           id="g315">
          <path
             class="real"
             d="M 485.33,134.33 C 328.22,89 171.11,89 14,134.33"
             style="fill:none;fill-opacity:1;stroke:#000000;stroke-width:1;stroke-opacity:0.6"
             id="path313" />
        </g>
        <g
           class="composite-shape"
           id="g319">
          <path
             class="real"
             d="M 485.33,101.33 C 328.22,60 171.11,60 14,101.33"
             style="fill:none;fill-opacity:1;stroke:#000000;stroke-width:1;stroke-opacity:0.6"
             id="path317" />
        </g>
        <g
           class="composite-shape"
           id="g323">
          <path
             class="real"
             d="M 486.33,77.33 C 329.22,41.34 172.11,41.34 15,77.33"
             style="fill:none;fill-opacity:1;stroke:#000000;stroke-width:1;stroke-opacity:0.6"
             id="path321" />
        </g>
        <g
           class="composite-shape"
           id="g327">
          <path
             class="real"
             d="M 486.33,60.33 C 329.22,29.67 172.11,29.67 15,60.33"
             style="fill:none;fill-opacity:1;stroke:#000000;stroke-width:1;stroke-opacity:0.6"
             id="path325" />
        </g>
        <g
           class="composite-shape"
           id="g331">
          <path
             class="real"
             d="M 485.33,44.33 C 328.22,21.67 171.11,21.67 14,44.33"
             style="fill:none;fill-opacity:1;stroke:#000000;stroke-width:1;stroke-opacity:0.6"
             id="path329" />
        </g>
        <g
           class="composite-shape"
           id="g335">
          <path
             class="real"
             d="M 486.33,34.33 C 329.22,14.34 172.11,14.34 15,34.33"
             style="fill:none;fill-opacity:1;stroke:#000000;stroke-width:1;stroke-opacity:0.6"
             id="path333" />
        </g>
      </g>
      <g
         class="composite-shape"
         id="g341">
        <path
           class="real"
           d="m 73.47,145.67 c 0,-8.56 78.8,-15.5 176,-15.5 97.2,0 176,6.94 176,15.5 0,8.56 -78.8,15.5 -176,15.5 -97.2,0 -176,-6.94 -176,-15.5 z"
           style="fill:none;fill-opacity:1;stroke:#000000;stroke-width:1;stroke-opacity:0.6"
           id="path339" />
      </g>
      <g
         class="composite-shape"
         id="g345">
        <path
           class="real"
           d="m 249.47,145.67 c 0,-1.94 1.57,-3.5 3.5,-3.5 1.93,0 3.5,1.56 3.5,3.5 0,1.93 -1.57,3.5 -3.5,3.5 -1.93,0 -3.5,-1.57 -3.5,-3.5 z"
           style="fill:#d0021b;fill-opacity:1;stroke:none;stroke-width:1;stroke-opacity:1"
           id="path343" />
      </g>
      <g
         class="composite-shape"
         id="g349">
        <path
           class="real"
           d="m 59.19,67.99 c 0,-2.59 2.1,-4.68 4.69,-4.68 2.58,0 4.68,2.09 4.68,4.68 0,2.59 -2.1,4.69 -4.68,4.69 -2.59,0 -4.69,-2.1 -4.69,-4.69 z"
           style="fill:#7ed321;fill-opacity:1;stroke:none;stroke-width:6;stroke-opacity:1"
           id="path347" />
      </g>
      <g
         class="arrow-line"
         id="g357">
        <path
           class="connection real"
           stroke-dasharray="none"
           d="M 63.88,67.99 78.94,219.35"
           style="fill:none;fill-opacity:1;stroke:#4a90e2;stroke-width:2;stroke-opacity:1"
           id="path351" />
        <g
           stroke="none"
           fill="rgb(74,144,226)"
           transform="rotate(-95.68,140.77784,75.749569)"
           style="fill:#4a90e2;stroke:none;stroke-width:2"
           fill-opacity="1"
           id="g355">
          <path
             d="M 11.61,-5.58 0,0 11.61,5.58 Z"
             id="path353" />
        </g>
      </g>
      <g
         class="arrow-line"
         id="g365">
        <path
           class="connection real"
           stroke-dasharray="none"
           d="M 79.33,223.33 94.88,86.97"
           style="fill:none;fill-opacity:1;stroke:#4a90e2;stroke-width:2;stroke-opacity:1"
           id="path359" />
        <g
           stroke="none"
           fill="rgb(74,144,226)"
           fill-opacity="1"
           transform="rotate(96.5,10.62649,84.044118)"
           style="fill:#4a90e2;stroke:none;stroke-width:2"
           id="g363">
          <path
             d="M 11.61,-5.58 0,0 11.61,5.58 Z"
             id="path361" />
        </g>
      </g>
      <g
         class="arrow-line"
         id="g373">
        <path
           class="connection real"
           stroke-dasharray="none"
           d="m 95.33,83 9.68,120.35"
           style="fill:none;fill-opacity:1;stroke:#4a90e2;stroke-width:2;stroke-opacity:1"
           id="path367" />
        <g
           stroke="none"
           fill="rgb(74,144,226)"
           fill-opacity="1"
           transform="rotate(-94.6,148.3275,55.067276)"
           style="fill:#4a90e2;stroke:none;stroke-width:2"
           id="g371">
          <path
             d="M 11.61,-5.58 0,0 11.61,5.58 Z"
             id="path369" />
        </g>
      </g>
      <g
         class="arrow-line"
         id="g381">
        <path
           class="connection real"
           stroke-dasharray="none"
           d="M 105.33,207.33 120.7,111.28"
           style="fill:none;fill-opacity:1;stroke:#4a90e2;stroke-width:2;stroke-opacity:1"
           id="path375" />
        <g
           stroke="none"
           fill="rgb(74,144,226)"
           fill-opacity="1"
           transform="rotate(99.09,14.903839,105.39854)"
           style="fill:#4a90e2;stroke:none;stroke-width:2"
           id="g379">
          <path
             d="M 11.61,-5.58 0,0 11.61,5.58 Z"
             id="path377" />
        </g>
      </g>
      <g
         class="arrow-line"
         id="g389">
        <path
           class="connection real"
           stroke-dasharray="none"
           d="m 121.33,107.33 9.53,80.03"
           style="fill:none;fill-opacity:1;stroke:#4a90e2;stroke-width:2;stroke-opacity:1"
           id="path383" />
        <g
           stroke="none"
           fill="rgb(74,144,226)"
           fill-opacity="1"
           transform="rotate(-96.79,150.61843,37.354834)"
           style="fill:#4a90e2;stroke:none;stroke-width:2"
           id="g387">
          <path
             d="M 11.61,-5.58 0,0 11.61,5.58 Z"
             id="path385" />
        </g>
      </g>
      <g
         class="arrow-line"
         id="g397">
        <path
           class="connection real"
           stroke-dasharray="none"
           d="m 131.33,191.33 13.24,-68.07"
           style="fill:none;fill-opacity:1;stroke:#4a90e2;stroke-width:2;stroke-opacity:1"
           id="path391" />
        <g
           stroke="none"
           fill="rgb(74,144,226)"
           fill-opacity="1"
           transform="rotate(101,23.481251,119.56844)"
           style="fill:#4a90e2;stroke:none;stroke-width:2"
           id="g395">
          <path
             d="M 11.61,-5.58 0,0 11.61,5.58 Z"
             id="path393" />
        </g>
      </g>
      <g
         class="arrow-line"
         id="g405">
        <path
           class="connection real"
           stroke-dasharray="none"
           d="m 145.33,119.33 7.51,61.03"
           style="fill:none;fill-opacity:1;stroke:#4a90e2;stroke-width:2;stroke-opacity:1"
           id="path399" />
        <g
           stroke="none"
           fill="rgb(74,144,226)"
           fill-opacity="1"
           transform="rotate(-97.02,158.18016,24.36159)"
           style="fill:#4a90e2;stroke:none;stroke-width:2"
           id="g403">
          <path
             d="M 11.61,-5.58 0,0 11.61,5.58 Z"
             id="path401" />
        </g>
      </g>
      <g
         class="arrow-line"
         id="g413">
        <path
           class="connection real"
           stroke-dasharray="none"
           d="m 153.33,184.33 11.09,-47.1"
           style="fill:none;fill-opacity:1;stroke:#4a90e2;stroke-width:2;stroke-opacity:1"
           id="path407" />
        <g
           stroke="none"
           fill="rgb(74,144,226)"
           fill-opacity="1"
           transform="rotate(103.24,29.865187,132.14048)"
           style="fill:#4a90e2;stroke:none;stroke-width:2"
           id="g411">
          <path
             d="M 11.61,-5.58 0,0 11.61,5.58 Z"
             id="path409" />
        </g>
      </g>
      <g
         class="arrow-line"
         id="g421">
        <path
           class="connection real"
           stroke-dasharray="none"
           d="m 165.33,133.33 5.41,36.05"
           style="fill:none;fill-opacity:1;stroke:#4a90e2;stroke-width:2;stroke-opacity:1"
           id="path415" />
        <g
           stroke="none"
           fill="rgb(74,144,226)"
           fill-opacity="1"
           transform="rotate(-98.53,160.30391,12.890628)"
           style="fill:#4a90e2;stroke:none;stroke-width:2"
           id="g419">
          <path
             d="M 11.61,-5.58 0,0 11.61,5.58 Z"
             id="path417" />
        </g>
      </g>
      <g
         class="arrow-line"
         id="g429">
        <path
           class="connection real"
           stroke-dasharray="none"
           d="M 61.88,67.99 76.94,219.35"
           style="fill:none;fill-opacity:1;stroke:#f5a623;stroke-width:2;stroke-opacity:1"
           id="path423" />
        <g
           stroke="none"
           fill="rgb(245,166,35)"
           fill-opacity="1"
           transform="rotate(-95.68,139.77784,76.655043)"
           style="fill:#f5a623;stroke:none;stroke-width:2"
           id="g427">
          <path
             d="M 11.61,-5.58 0,0 11.61,5.58 Z"
             id="path425" />
        </g>
      </g>
      <g
         class="arrow-line"
         id="g437">
        <path
           class="connection real"
           stroke-dasharray="none"
           d="m 79.33,223.33 32.69,-94.22"
           style="fill:none;fill-opacity:1;stroke:#f5a623;stroke-width:2;stroke-opacity:1"
           id="path431" />
        <g
           stroke="none"
           fill="rgb(245,166,35)"
           fill-opacity="1"
           transform="rotate(109.13,12.074137,102.98968)"
           style="fill:#f5a623;stroke:none;stroke-width:2"
           id="g435">
          <path
             d="M 11.61,-5.58 0,0 11.61,5.58 Z"
             id="path433" />
        </g>
      </g>
      <g
         class="arrow-line"
         id="g445">
        <path
           class="connection real"
           stroke-dasharray="none"
           d="m 113.33,125.33 42.05,38.31"
           style="fill:none;fill-opacity:1;stroke:#f5a623;stroke-width:2;stroke-opacity:1"
           id="path439" />
        <g
           stroke="none"
           fill="rgb(245,166,35)"
           fill-opacity="1"
           transform="rotate(-137.66,111.37479,52.50762)"
           style="fill:#f5a623;stroke:none;stroke-width:2"
           id="g443">
          <path
             d="M 11.61,-5.58 0,0 11.61,5.58 Z"
             id="path441" />
        </g>
      </g>
      <g
         class="arrow-line"
         id="g453">
        <path
           class="connection real"
           stroke-dasharray="none"
           d="m 158.33,166.33 60.34,-26.39"
           style="fill:none;fill-opacity:1;stroke:#f5a623;stroke-width:2;stroke-opacity:1"
           id="path447" />
        <g
           stroke="none"
           fill="rgb(245,166,35)"
           fill-opacity="1"
           transform="rotate(156.37,96.698088,92.420964)"
           style="fill:#f5a623;stroke:none;stroke-width:2"
           id="g451">
          <path
             d="M 11.61,-5.58 0,0 11.61,5.58 Z"
             id="path449" />
        </g>
      </g>
      <g
         id="g455" />
    </g>
    <g
       id="g459" />
    <g
       id="g465">
      <g
         id="g463">
        <rect
           rx="0"
           ry="0"
           x="40.44405"
           y="32.666668"
           width="46"
           height="28"
           style="fill:#ffffff;fill-opacity:1;stroke:none;stroke-width:1;stroke-opacity:1"
           id="rect461" />
      </g>
    </g>
    <g
       id="g467" />
  </svg>
  <g
     id="g543"
     style="font-family:Asana-Math, Asana">
    <g
       id="g541">
      <g
         id="g539">
        <g
           transform="translate(44.104156,54.066672)"
           id="g537">
          <path
             transform="scale(0.0204,-0.0204)"
             d="M 31,148 C 26,97 20,62 9,16 47,-2 81,-11 116,-11 c 49,0 95,18 146,58 51,40 72,77 72,127 0,54 -32,83 -106,97 l -43,8 c -60,11 -79,28 -79,69 0,53 45,94 102,94 41,0 79,-18 95,-45 v -55 h 23 c 4,35 8,62 19,113 -39,19 -67,27 -100,27 C 193,482 132,452 84,404 58,377 47,352 47,316 47,260 78,228 144,215 l 63,-12 c 44,-8 60,-26 60,-65 C 267,73 221,29 150,29 115,29 84,40 56,64 v 84 z M 513,390 457,107 c -1,-8 -13,-46 -13,-76 0,-25 11,-40 30,-40 35,0 70,20 148,83 l 31,25 -10,18 -45,-31 C 569,66 549,56 538,56 c -9,0 -14,8 -14,20 0,26 14,107 43,252 l 13,62 h 107 l 11,50 c -38,-4 -72,-6 -110,-6 16,94 27,143 45,197 l -11,15 C 602,634 575,622 544,610 L 519,440 c -44,-21 -70,-32 -88,-37 l -2,-13 z M 991,204 962,77 c -4,-17 -6,-35 -6,-51 0,-22 9,-35 24,-35 23,0 64,26 146,94 l -7,21 c -24,-20 -53,-47 -75,-47 -9,0 -15,9 -15,23 0,5 0,8 1,11 l 92,379 -10,9 -33,-18 c -41,15 -58,19 -85,19 -28,0 -48,-5 -75,-18 C 857,433 824,403 799,354 755,265 724,145 724,67 c 0,-44 15,-78 34,-78 37,0 117,52 233,215 z m 48,210 C 1017,305 998,253 964,201 907,117 846,59 814,59 c -12,0 -18,13 -18,40 0,64 28,181 63,261 24,55 47,73 95,73 23,0 41,-4 85,-19 z m 492,-49 c 3,38 8,70 16,111 -11,5 -15,6 -20,6 -31,0 -62,-24 -98,-75 -39,-56 -78,-116 -94,-151 l 32,152 c 4,17 6,30 6,42 0,20 -8,32 -23,32 -21,0 -59,-21 -133,-74 l -28,-20 7,-20 32,21 c 28,18 39,23 48,23 10,0 17,-9 17,-22 0,-58 -43,-264 -83,-392 l 10,-7 c 15,5 31,8 54,13 l 13,2 26,120 c 18,83 41,136 85,193 34,44 61,65 83,65 15,0 25,-5 36,-19 z m 145,25 -56,-283 c -1,-8 -13,-46 -13,-76 0,-25 11,-40 30,-40 35,0 70,20 148,83 l 31,25 -10,18 -45,-31 c -29,-20 -49,-30 -60,-30 -9,0 -14,8 -14,20 0,26 14,107 43,252 l 13,62 h 107 l 11,50 c -38,-4 -72,-6 -110,-6 16,94 27,143 45,197 l -11,15 c -20,-12 -47,-24 -78,-36 l -25,-170 c -44,-21 -70,-32 -88,-37 l -2,-13 z"
             stroke="#000000"
             stroke-opacity="1"
             stroke-width="8"
             fill="#000000"
             fill-opacity="1"
             id="path535" />
        </g>
      </g>
    </g>
  </g>
</svg>
