<?xml version="1.0" standalone="no"?><!DOCTYPE svg PUBLIC "-//W3C//DTD SVG 1.1//EN" "http://www.w3.org/Graphics/SVG/1.1/DTD/svg11.dtd"><svg t="1633436420037" class="icon" viewBox="0 0 1024 1024" version="1.1" xmlns="http://www.w3.org/2000/svg" p-id="35742" xmlns:xlink="http://www.w3.org/1999/xlink" width="200" height="200"><defs><style type="text/css"></style></defs><path d="M978.467 409.614H455.101v0.011a45.51 45.51 0 0 0-45.51 45.499l-0.046 113.775a45.51 45.51 0 0 0 45.51 45.521l318.617-0.01a45.51 45.51 0 0 1 45.51 45.51v22.754c0 75.4-61.132 136.53-136.53 136.53h-432.38a45.51 45.51 0 0 1-45.51-45.51V341.35h-0.012c0-75.4 61.12-136.53 136.53-136.53h637.062v-0.024a45.51 45.51 0 0 0 45.51-45.487l0.102-113.775h0.023A45.51 45.51 0 0 0 978.467 0L341.326 0.023C152.823 0.023 0 152.846 0 341.349v637.14A45.51 45.51 0 0 0 45.51 1024h671.274c169.662 0 307.193-137.532 307.193-307.193V455.124a45.51 45.51 0 0 0-45.51-45.51z" fill="#C71D23" p-id="35743"></path></svg>