<svg xmlns="http://www.w3.org/2000/svg" xmlns:xlink="http://www.w3.org/1999/xlink" x="0" y="0" width="410" height="343.66668701171875" style="
        background: #FFF;
        fill: none;
">
        <svg xmlns="http://www.w3.org/2000/svg"/>
        
        <svg xmlns="http://www.w3.org/2000/svg" class="role-diagram-draw-area"><g class="shapes-region" style="stroke: black; fill: none;"><g class="composite-shape"><path class="real" d=" M41,26.33 L361,26.33 L361,282.33 L41,282.33 Z" style="stroke-width: 1; stroke: none; fill: none; fill-opacity: 1; stroke-dasharray: 1.125, 3.35;"/><path class="real" d=" M105,26.33 L105,282.33 M169,26.33 L169,282.33 M233,26.33 L233,282.33 M297,26.33 L297,282.33" style="stroke-width: 1; stroke: rgb(0, 0, 0); fill: none; fill-opacity: 1; stroke-dasharray: 1.125, 3.35;"/><path class="real" d=" M41,90.33 L361,90.33 M41,154.33 L361,154.33 M41,218.33 L361,218.33" style="stroke-width: 1; stroke: rgb(0, 0, 0); fill: none; fill-opacity: 1; stroke-dasharray: 1.125, 3.35;"/><path class="real" d=" M41,26.33 L361,26.33 L361,282.33 L41,282.33 Z" style="stroke-width: 1; stroke: rgb(0, 0, 0); fill: none; fill-opacity: 1; stroke-dasharray: 1.125, 3.35;"/></g><g class="arrow-line"><path class="connection real" stroke-dasharray="" d="  M355.33,272 C321.33,92.67 82.33,219.67 49.33,35" style="stroke: rgb(208, 2, 27); stroke-opacity: 1; stroke-width: 1; fill: none; fill-opacity: 1;"/></g><g class="composite-shape"><path class="real" d=" M41,26.33 L361,26.33 L361,282.33 L41,282.33 Z" style="stroke-width: 1; stroke: rgb(0, 0, 0); fill: none; fill-opacity: 1;"/></g><g/></g><g/><g/><g/></svg>
        <svg xmlns="http://www.w3.org/2000/svg" xmlns:xlink="http://www.w3.org/1999/xlink" width="806" height="342.3333435058594" style="width:806px;height:342.3333435058594px;font-family:Asana-Math, Asana;background:#FFF;"><g><g><g><text x="38.666656494140625" y="292.6666717529297" style="white-space:pre;stroke:none;fill:rgb(0,0,0);fill-opacity:1;font-size:15px;font-family:Arial, Helvetica, sans-serif;font-weight:400;font-style:normal;dominant-baseline:text-before-edge;text-decoration:none solid rgb(0, 0, 0);">0</text></g></g></g><g><g><g><text x="350.66668701171875" y="292.6666717529297" style="white-space:pre;stroke:none;fill:rgb(0,0,0);fill-opacity:1;font-size:15px;font-family:Arial, Helvetica, sans-serif;font-weight:400;font-style:normal;dominant-baseline:text-before-edge;text-decoration:none solid rgb(0, 0, 0);">1.0</text></g></g></g><g><g><g><text x="92.66665649414062" y="292.6666717529297" style="white-space:pre;stroke:none;fill:rgb(0,0,0);fill-opacity:1;font-size:15px;font-family:Arial, Helvetica, sans-serif;font-weight:400;font-style:normal;dominant-baseline:text-before-edge;text-decoration:none solid rgb(0, 0, 0);">0.2</text></g></g></g><g><g><g><text x="159.66668701171875" y="293.6666717529297" style="white-space:pre;stroke:none;fill:rgb(0,0,0);fill-opacity:1;font-size:15px;font-family:Arial, Helvetica, sans-serif;font-weight:400;font-style:normal;dominant-baseline:text-before-edge;text-decoration:none solid rgb(0, 0, 0);">0.4</text></g></g></g><g><g><g><text x="222.66668701171875" y="293.6666717529297" style="white-space:pre;stroke:none;fill:rgb(0,0,0);fill-opacity:1;font-size:15px;font-family:Arial, Helvetica, sans-serif;font-weight:400;font-style:normal;dominant-baseline:text-before-edge;text-decoration:none solid rgb(0, 0, 0);">0.6</text></g></g></g><g><g><g><text x="287.66668701171875" y="292.6666717529297" style="white-space:pre;stroke:none;fill:rgb(0,0,0);fill-opacity:1;font-size:15px;font-family:Arial, Helvetica, sans-serif;font-weight:400;font-style:normal;dominant-baseline:text-before-edge;text-decoration:none solid rgb(0, 0, 0);">0.8</text></g></g></g><g><g><g><g transform="matrix(1,0,0,1,195.66668701171875,330.00001525878906)"><path transform="matrix(0.017,0,0,-0.017,0,0)" d="M332 222C342 251 348 268 347 263C268 261 191 262 113 262C132 349 187 438 287 438C347 438 369 420 396 369L416 369L457 422C282 592 13 361 13 155C13 42 79 -11 186 -11C263 -11 327 47 386 92L386 111C339 78 283 39 224 39C150 39 89 126 105 220C117 219 305 222 332 222Z" stroke="rgb(0,0,0)" stroke-opacity="1" stroke-width="8" fill="rgb(0,0,0)" fill-opacity="1"></path></g></g></g></g><g><g><g><g transform="matrix(1,0,0,1,110.16665649414062,72.64375)"><path transform="matrix(0.015300000000000001,0,0,-0.015300000000000001,0,0)" d="M400 -16C446 -16 513 54 545 84L545 97L532 97C513 79 489 55 462 55C417 55 424 184 424 216C474 278 520 343 558 413C551 428 544 444 536 459L525 459C511 391 456 315 420 257C422 336 445 472 332 473C164 473 27 243 24 93C23 33 43 -16 111 -16C203 -16 297 64 357 131C357 96 348 -15 400 -16ZM284 437C371 437 358 224 357 164C314 113 233 28 162 28C109 28 98 70 99 115C100 202 175 437 284 437Z" stroke="rgb(0,0,0)" stroke-opacity="1" stroke-width="8" fill="rgb(0,0,0)" fill-opacity="1"></path></g></g><g><g transform="matrix(1,0,0,1,123.84375,72.64375)"><path transform="matrix(0.015300000000000001,0,0,-0.015300000000000001,0,0)" d="M604 347L604 406L65 406L65 347ZM604 134L604 193L65 193L65 134Z" stroke="rgb(0,0,0)" stroke-opacity="1" stroke-width="8" fill="rgb(0,0,0)" fill-opacity="1"></path></g></g><g><g><g><g><g transform="matrix(1,0,0,1,140.17706298828125,62.28957824707031)"><path transform="matrix(0.015300000000000001,0,0,-0.015300000000000001,0,0)" d="M418 -3L418 27L366 30C311 33 301 44 301 96L301 700L60 598L67 548L217 614L217 96C217 44 206 33 152 30L96 27L96 -3C250 0 250 0 261 0C292 0 402 -3 418 -3Z" stroke="rgb(0,0,0)" stroke-opacity="1" stroke-width="8" fill="rgb(0,0,0)" fill-opacity="1"></path></g></g></g></g><g><g><g><g transform="matrix(1,0,0,1,140.17706298828125,84.99792175292968)"><path transform="matrix(0.015300000000000001,0,0,-0.015300000000000001,0,0)" d="M16 23L16 -3C203 -3 203 0 239 0C275 0 275 -3 468 -3L468 82C353 77 307 81 122 77L304 270C401 373 431 428 431 503C431 618 353 689 226 689C154 689 105 669 56 619L39 483L68 483L81 529C97 587 133 612 200 612C286 612 341 558 341 473C341 398 299 324 186 204Z" stroke="rgb(0,0,0)" stroke-opacity="1" stroke-width="8" fill="rgb(0,0,0)" fill-opacity="1"></path></g></g></g></g><line style="fill:none;stroke-width:0.666667px;stroke:rgb(0, 0, 0);" x1="140.17706298828125" y1="68.85416668653488" x2="147.81247997283936" y2="68.85416668653488"></line></g><g><g><g transform="matrix(1,0,0,1,152.38543701171875,72.64375)"><path transform="matrix(0.015300000000000001,0,0,-0.015300000000000001,0,0)" d="M23 661L79 661C97 661 104 650 104 620L104 102C104 39 101 32 67 30L21 27L21 -3C121 0 121 0 146 0C171 0 171 0 271 -3L271 27L225 30C191 32 188 39 188 102L188 718L179 726C135 709 102 701 23 689ZM700 -3C761 0 762 0 779 0C793 0 793 0 862 -3L862 27L821 30C787 32 784 38 784 102L784 295C784 412 729 469 617 469C580 469 559 462 538 444L462 378L462 465L453 469C402 448 350 434 297 428L297 400L334 400C374 400 378 393 378 327L378 102C378 39 375 32 341 30L296 27L296 -3C364 -1 391 0 420 0C449 0 476 -1 544 -3L544 27L499 30C465 32 462 39 462 102L462 314C462 359 528 408 589 408C656 408 700 358 700 281Z" stroke="rgb(0,0,0)" stroke-opacity="1" stroke-width="8" fill="rgb(0,0,0)" fill-opacity="1"></path></g></g></g><g><svg x="166.78125" overflow="visible" y="48.01042175292969" height="43" width="7.645833492279053"><path d=" M 5.65 1.53 c 0.00 -0.05 -0.04 -0.07 -0.08 -0.07 c -0.03 0.00 -0.05 0.01 -0.08 0.02 c -2.29 1.20 -4.18 3.36 -4.18 8.46 v 0.54 h 1.38 v -0.54 c 0.00 -2.91 0.58 -6.32 2.98 -8.15 c 0.11 -0.08 0.11 -0.17 0.11 -0.26 z   M 1.29 10.48 v 22.05 h 1.38 v -22.05 z" style="fill:rgb(0,0,0);fill-opacity:1;stroke-width:1px;stroke:none;stroke-opacity:1;"></path><path d=" M 5.65 41.47 c 0.00 0.05 -0.04 0.07 -0.08 0.07 c -0.03 0.00 -0.05 -0.01 -0.08 -0.02 c -2.29 -1.20 -4.18 -3.36 -4.18 -8.46 v -0.54 h 1.38 v 0.54 c 0.00 2.91 0.58 6.32 2.98 8.15 c 0.11 0.08 0.11 0.17 0.11 0.26 z" style="fill:rgb(0,0,0);fill-opacity:1;stroke-width:1px;stroke:none;stroke-opacity:1;"></path></svg></g><g><g><g><g><g transform="matrix(1,0,0,1,174.42706298828125,62.28957824707031)"><path transform="matrix(0.015300000000000001,0,0,-0.015300000000000001,0,0)" d="M418 -3L418 27L366 30C311 33 301 44 301 96L301 700L60 598L67 548L217 614L217 96C217 44 206 33 152 30L96 27L96 -3C250 0 250 0 261 0C292 0 402 -3 418 -3Z" stroke="rgb(0,0,0)" stroke-opacity="1" stroke-width="8" fill="rgb(0,0,0)" fill-opacity="1"></path></g></g><g><g transform="matrix(1,0,0,1,185.11456298828125,62.28957824707031)"><path transform="matrix(0.015300000000000001,0,0,-0.015300000000000001,0,0)" d="M555 243L555 299L51 299L51 243Z" stroke="rgb(0,0,0)" stroke-opacity="1" stroke-width="8" fill="rgb(0,0,0)" fill-opacity="1"></path></g></g><g><g transform="matrix(1,0,0,1,197.42706298828125,62.28957824707031)"><path transform="matrix(0.015300000000000001,0,0,-0.015300000000000001,0,0)" d="M332 222C342 251 348 268 347 263C268 261 191 262 113 262C132 349 187 438 287 438C347 438 369 420 396 369L416 369L457 422C282 592 13 361 13 155C13 42 79 -11 186 -11C263 -11 327 47 386 92L386 111C339 78 283 39 224 39C150 39 89 126 105 220C117 219 305 222 332 222Z" stroke="rgb(0,0,0)" stroke-opacity="1" stroke-width="8" fill="rgb(0,0,0)" fill-opacity="1"></path></g></g></g></g><g><g><g><g transform="matrix(1,0,0,1,185.92706298828125,84.99792175292968)"><path transform="matrix(0.015300000000000001,0,0,-0.015300000000000001,0,0)" d="M332 222C342 251 348 268 347 263C268 261 191 262 113 262C132 349 187 438 287 438C347 438 369 420 396 369L416 369L457 422C282 592 13 361 13 155C13 42 79 -11 186 -11C263 -11 327 47 386 92L386 111C339 78 283 39 224 39C150 39 89 126 105 220C117 219 305 222 332 222Z" stroke="rgb(0,0,0)" stroke-opacity="1" stroke-width="8" fill="rgb(0,0,0)" fill-opacity="1"></path></g></g></g></g><line style="fill:none;stroke-width:0.666667px;stroke:rgb(0, 0, 0);" x1="174.42706298828125" y1="68.85416668653488" x2="204.54164695739746" y2="68.85416668653488"></line></g><g><svg x="204.54168701171875" overflow="visible" y="48.01042175292969" height="43" width="7.645833492279053"><path d=" M 1.57 1.53 c 0.00 -0.05 0.04 -0.07 0.08 -0.07 c 0.03 0.00 0.05 0.01 0.08 0.02 c 2.29 1.20 4.18 3.36 4.18 8.46 v 0.54 h -1.38 v -0.54 c 0.00 -2.91 -0.58 -6.32 -2.98 -8.15 c -0.11 -0.08 -0.11 -0.17 -0.11 -0.26 z  M 5.93 10.48 v 22.05 h -1.38 v -22.05 z" style="fill:rgb(0,0,0);fill-opacity:1;stroke-width:1px;stroke:none;stroke-opacity:1;"></path><path d=" M 1.57 41.47 c 0.00 0.05 0.04 0.07 0.08 0.07 c 0.03 0.00 0.05 -0.01 0.08 -0.02 c 2.29 -1.20 4.18 -3.36 4.18 -8.46 v -0.54 h -1.38 v 0.54 c 0.00 2.91 -0.58 6.32 -2.98 8.15 c -0.11 0.08 -0.11 0.17 -0.11 0.26 z" style="fill:rgb(0,0,0);fill-opacity:1;stroke-width:1px;stroke:none;stroke-opacity:1;"></path></svg></g></g></g><g><g><g><text x="21.666656494140625" y="149" style="white-space:pre;stroke:none;fill:rgb(0,0,0);fill-opacity:1;font-size:15px;font-family:Arial, Helvetica, sans-serif;font-weight:400;font-style:normal;dominant-baseline:text-before-edge;text-decoration:none solid rgb(0, 0, 0);">0</text></g></g></g><g><g><g><text x="19.666656494140625" y="212.00001525878906" style="white-space:pre;stroke:none;fill:rgb(0,0,0);fill-opacity:1;font-size:15px;font-family:Arial, Helvetica, sans-serif;font-weight:400;font-style:normal;dominant-baseline:text-before-edge;text-decoration:none solid rgb(0, 0, 0);">-1</text></g></g></g><g><g><g><text x="18.666656494140625" y="270.00001525878906" style="white-space:pre;stroke:none;fill:rgb(0,0,0);fill-opacity:1;font-size:15px;font-family:Arial, Helvetica, sans-serif;font-weight:400;font-style:normal;dominant-baseline:text-before-edge;text-decoration:none solid rgb(0, 0, 0);">-2</text></g></g></g><g><g><g><text x="20.666656494140625" y="84" style="white-space:pre;stroke:none;fill:rgb(0,0,0);fill-opacity:1;font-size:15px;font-family:Arial, Helvetica, sans-serif;font-weight:400;font-style:normal;dominant-baseline:text-before-edge;text-decoration:none solid rgb(0, 0, 0);">1</text></g></g></g><g><g><g><text x="23.666656494140625" y="21" style="white-space:pre;stroke:none;fill:rgb(0,0,0);fill-opacity:1;font-size:15px;font-family:Arial, Helvetica, sans-serif;font-weight:400;font-style:normal;dominant-baseline:text-before-edge;text-decoration:none solid rgb(0, 0, 0);">2</text></g></g></g></svg>
</svg>
