<svg xmlns="http://www.w3.org/2000/svg" xmlns:xlink="http://www.w3.org/1999/xlink" x="0" y="0" width="808" height="620" style="
        width:808px;
        height:620px;
        background: #FFF;
        fill: none;
">
        <svg xmlns="http://www.w3.org/2000/svg"/>
        
        <svg xmlns="http://www.w3.org/2000/svg" class="role-diagram-draw-area"><g class="shapes-region" style="stroke: black; fill: none;"><g class="composite-shape"><path class="real" d=" M37,155 L165,155 L165,266.67 L37,266.67 Z" style="stroke-width: 1; stroke: rgb(0, 0, 0); fill: none; fill-opacity: 1;"/></g><g class="composite-shape"><path class="real" d=" M63,176 C63,172.69 65.69,170 69,170 C72.31,170 75,172.69 75,176 C75,179.31 72.31,182 69,182 C65.69,182 63,179.31 63,176 Z" style="stroke-width: 1; stroke: rgb(0, 0, 0); fill: rgb(208, 2, 27); fill-opacity: 1;"/></g><g class="composite-shape"><path class="real" d=" M98,187 C98,183.69 100.69,181 104,181 C107.31,181 110,183.69 110,187 C110,190.31 107.31,193 104,193 C100.69,193 98,190.31 98,187 Z" style="stroke-width: 1; stroke: rgb(0, 0, 0); fill: rgb(208, 2, 27); fill-opacity: 1;"/></g><g class="composite-shape"><path class="real" d=" M46,201 C46,197.69 48.69,195 52,195 C55.31,195 58,197.69 58,201 C58,204.31 55.31,207 52,207 C48.69,207 46,204.31 46,201 Z" style="stroke-width: 1; stroke: rgb(0, 0, 0); fill: rgb(208, 2, 27); fill-opacity: 1;"/></g><g class="composite-shape"><path class="real" d=" M69,243 C69,239.69 71.69,237 75,237 C78.31,237 81,239.69 81,243 C81,246.31 78.31,249 75,249 C71.69,249 69,246.31 69,243 Z" style="stroke-width: 1; stroke: rgb(0, 0, 0); fill: rgb(208, 2, 27); fill-opacity: 1;"/></g><g class="composite-shape"><path class="real" d=" M115,170 C115,166.69 117.69,164 121,164 C124.31,164 127,166.69 127,170 C127,173.31 124.31,176 121,176 C117.69,176 115,173.31 115,170 Z" style="stroke-width: 1; stroke: rgb(0, 0, 0); fill: rgb(74, 144, 226); fill-opacity: 1;"/></g><g class="composite-shape"><path class="real" d=" M139,193 C139,189.69 141.69,187 145,187 C148.31,187 151,189.69 151,193 C151,196.31 148.31,199 145,199 C141.69,199 139,196.31 139,193 Z" style="stroke-width: 1; stroke: rgb(0, 0, 0); fill: rgb(74, 144, 226); fill-opacity: 1;"/></g><g class="composite-shape"><path class="real" d=" M93,222 C93,218.69 95.69,216 99,216 C102.31,216 105,218.69 105,222 C105,225.31 102.31,228 99,228 C95.69,228 93,225.31 93,222 Z" style="stroke-width: 1; stroke: rgb(0, 0, 0); fill: rgb(74, 144, 226); fill-opacity: 1;"/></g><g class="composite-shape"><path class="real" d=" M126,226 C126,222.69 128.69,220 132,220 C135.31,220 138,222.69 138,226 C138,229.31 135.31,232 132,232 C128.69,232 126,229.31 126,226 Z" style="stroke-width: 1; stroke: rgb(0, 0, 0); fill: rgb(74, 144, 226); fill-opacity: 1;"/></g><g class="composite-shape"><path class="real" d=" M98,247 C98,243.69 100.69,241 104,241 C107.31,241 110,243.69 110,247 C110,250.31 107.31,253 104,253 C100.69,253 98,250.31 98,247 Z" style="stroke-width: 1; stroke: rgb(0, 0, 0); fill: rgb(74, 144, 226); fill-opacity: 1;"/></g><g class="arrow-line"><path class="connection real" stroke-dasharray="" d="  M187,368.67 L91.88,396.82" style="stroke: rgb(0, 0, 0); stroke-width: 1; fill: none; fill-opacity: 1;"/><g stroke="none" fill="#000" transform="matrix(0.9589188165093667,-0.28368063618138534,0.28368063618138534,0.9589188165093667,89,397.6666564941406)" style="stroke: none; fill: rgb(0, 0, 0); stroke-width: 1;"><path d=" M8.93,-4.29 L0,0 L8.93,4.29 Z"/></g></g><g class="arrow-line"><path class="connection real" stroke-dasharray="" d="  M187,368.67 L157.75,355.87" style="stroke: rgb(0, 0, 0); stroke-width: 1; fill: none; fill-opacity: 1;"/><g stroke="none" fill="#000" transform="matrix(0.9161529816955394,0.400828784059195,-0.400828784059195,0.9161529816955394,155,354.6666564941406)" style="stroke: none; fill: rgb(0, 0, 0); stroke-width: 1;"><path d=" M8.93,-4.29 L0,0 L8.93,4.29 Z"/></g></g><g class="composite-shape"><path class="real" d=" M37,314.33 L165,314.33 L165,426 L37,426 Z" style="stroke-width: 1; stroke: rgb(0, 0, 0); fill: none; fill-opacity: 1;"/></g><g class="composite-shape"><path class="real" d=" M63,335.33 C63,332.02 65.69,329.33 69,329.33 C72.31,329.33 75,332.02 75,335.33 C75,338.65 72.31,341.33 69,341.33 C65.69,341.33 63,338.65 63,335.33 Z" style="stroke-width: 1; stroke: rgb(0, 0, 0); fill: rgb(208, 2, 27); fill-opacity: 1;"/></g><g class="composite-shape"><path class="real" d=" M98,346.33 C98,343.02 100.69,340.33 104,340.33 C107.31,340.33 110,343.02 110,346.33 C110,349.65 107.31,352.33 104,352.33 C100.69,352.33 98,349.65 98,346.33 Z" style="stroke-width: 1; stroke: rgb(0, 0, 0); fill: rgb(208, 2, 27); fill-opacity: 1;"/></g><g class="composite-shape"><path class="real" d=" M46,360.33 C46,357.02 48.69,354.33 52,354.33 C55.31,354.33 58,357.02 58,360.33 C58,363.65 55.31,366.33 52,366.33 C48.69,366.33 46,363.65 46,360.33 Z" style="stroke-width: 1; stroke: rgb(0, 0, 0); fill: rgb(208, 2, 27); fill-opacity: 1;"/></g><g class="composite-shape"><path class="real" d=" M135,349.67 C135,344.33 139.33,340 144.67,340 C150.01,340 154.33,344.33 154.33,349.67 C154.33,355.01 150.01,359.33 144.67,359.33 C139.33,359.33 135,355.01 135,349.67 Z" style="stroke-width: 1; stroke: rgb(0, 0, 0); fill: rgb(74, 144, 226); fill-opacity: 1;"/></g><g class="composite-shape"><path class="real" d=" M93,381.33 C93,378.02 95.69,375.33 99,375.33 C102.31,375.33 105,378.02 105,381.33 C105,384.65 102.31,387.33 99,387.33 C95.69,387.33 93,384.65 93,381.33 Z" style="stroke-width: 1; stroke: rgb(0, 0, 0); fill: rgb(74, 144, 226); fill-opacity: 1;"/></g><g class="composite-shape"><path class="real" d=" M126,385.33 C126,382.02 128.69,379.33 132,379.33 C135.31,379.33 138,382.02 138,385.33 C138,388.65 135.31,391.33 132,391.33 C128.69,391.33 126,388.65 126,385.33 Z" style="stroke-width: 1; stroke: rgb(0, 0, 0); fill: rgb(74, 144, 226); fill-opacity: 1;"/></g><g class="composite-shape"><path class="real" d=" M98,406.33 C98,403.02 100.69,400.33 104,400.33 C107.31,400.33 110,403.02 110,406.33 C110,409.65 107.31,412.33 104,412.33 C100.69,412.33 98,409.65 98,406.33 Z" style="stroke-width: 1; stroke: rgb(0, 0, 0); fill: rgb(74, 144, 226); fill-opacity: 1;"/></g><g class="arrow-line"><path class="connection real" stroke-dasharray="2.25 3.685" d="  M46,375.67 L157,362.67" style="stroke: rgb(0, 0, 0); stroke-width: 2; fill: none; fill-opacity: 1;"/></g><g class="arrow-line"><path class="connection real" stroke-dasharray="" d="  M187,368.67 L139.32,329.57" style="stroke: rgb(0, 0, 0); stroke-width: 1; fill: none; fill-opacity: 1;"/><g stroke="none" fill="#000" transform="matrix(0.7732871860578444,0.6340559343454967,-0.6340559343454967,0.7732871860578444,137,327.6666564941406)" style="stroke: none; fill: rgb(0, 0, 0); stroke-width: 1;"><path d=" M8.93,-4.29 L0,0 L8.93,4.29 Z"/></g></g><g class="composite-shape"><path class="real" d=" M112,326.67 C112,321.33 116.33,317 121.67,317 C127.01,317 131.33,321.33 131.33,326.67 C131.33,332.01 127.01,336.33 121.67,336.33 C116.33,336.33 112,332.01 112,326.67 Z" style="stroke-width: 1; stroke: rgb(0, 0, 0); fill: rgb(74, 144, 226); fill-opacity: 1;"/></g><g class="composite-shape"><path class="real" d=" M65,399.67 C65,394.33 69.33,390 74.67,390 C80.01,390 84.33,394.33 84.33,399.67 C84.33,405.01 80.01,409.33 74.67,409.33 C69.33,409.33 65,405.01 65,399.67 Z" style="stroke-width: 1; stroke: rgb(0, 0, 0); fill: rgb(208, 2, 27); fill-opacity: 1;"/></g><g class="composite-shape"><path class="real" d=" M283,157.33 L411,157.33 L411,269 L283,269 Z" style="stroke-width: 1; stroke: rgb(0, 0, 0); fill: none; fill-opacity: 1;"/></g><g class="composite-shape"><path class="real" d=" M309,178.33 C309,175.02 311.69,172.33 315,172.33 C318.31,172.33 321,175.02 321,178.33 C321,181.65 318.31,184.33 315,184.33 C311.69,184.33 309,181.65 309,178.33 Z" style="stroke-width: 1; stroke: rgb(0, 0, 0); fill: rgb(208, 2, 27); fill-opacity: 1;"/></g><g class="composite-shape"><path class="real" d=" M344,189.33 C344,186.02 346.69,183.33 350,183.33 C353.31,183.33 356,186.02 356,189.33 C356,192.65 353.31,195.33 350,195.33 C346.69,195.33 344,192.65 344,189.33 Z" style="stroke-width: 1; stroke: rgb(0, 0, 0); fill: rgb(208, 2, 27); fill-opacity: 1;"/></g><g class="composite-shape"><path class="real" d=" M292,203.33 C292,200.02 294.69,197.33 298,197.33 C301.31,197.33 304,200.02 304,203.33 C304,206.65 301.31,209.33 298,209.33 C294.69,209.33 292,206.65 292,203.33 Z" style="stroke-width: 1; stroke: rgb(0, 0, 0); fill: rgb(208, 2, 27); fill-opacity: 1;"/></g><g class="composite-shape"><path class="real" d=" M339,224.33 C339,221.02 341.69,218.33 345,218.33 C348.31,218.33 351,221.02 351,224.33 C351,227.65 348.31,230.33 345,230.33 C341.69,230.33 339,227.65 339,224.33 Z" style="stroke-width: 1; stroke: rgb(0, 0, 0); fill: rgb(74, 144, 226); fill-opacity: 1;"/></g><g class="composite-shape"><path class="real" d=" M372,228.33 C372,225.02 374.69,222.33 378,222.33 C381.31,222.33 384,225.02 384,228.33 C384,231.65 381.31,234.33 378,234.33 C374.69,234.33 372,231.65 372,228.33 Z" style="stroke-width: 1; stroke: rgb(0, 0, 0); fill: rgb(74, 144, 226); fill-opacity: 1;"/></g><g class="composite-shape"><path class="real" d=" M344,249.33 C344,246.02 346.69,243.33 350,243.33 C353.31,243.33 356,246.02 356,249.33 C356,252.65 353.31,255.33 350,255.33 C346.69,255.33 344,252.65 344,249.33 Z" style="stroke-width: 1; stroke: rgb(0, 0, 0); fill: rgb(74, 144, 226); fill-opacity: 1;"/></g><g class="composite-shape"><path class="real" d=" M380,196 C380,190.66 384.33,186.33 389.67,186.33 C395.01,186.33 399.33,190.66 399.33,196 C399.33,201.34 395.01,205.67 389.67,205.67 C384.33,205.67 380,201.34 380,196 Z" style="stroke-width: 1; stroke: rgb(0, 0, 0); fill: rgb(74, 144, 226); fill-opacity: 1;"/></g><g class="composite-shape"><path class="real" d=" M357,173 C357,167.66 361.33,163.33 366.67,163.33 C372.01,163.33 376.33,167.66 376.33,173 C376.33,178.34 372.01,182.67 366.67,182.67 C361.33,182.67 357,178.34 357,173 Z" style="stroke-width: 1; stroke: rgb(0, 0, 0); fill: rgb(74, 144, 226); fill-opacity: 1;"/></g><g class="composite-shape"><path class="real" d=" M310,246 C310,240.66 314.33,236.33 319.67,236.33 C325.01,236.33 329.33,240.66 329.33,246 C329.33,251.34 325.01,255.67 319.67,255.67 C314.33,255.67 310,251.34 310,246 Z" style="stroke-width: 1; stroke: rgb(0, 0, 0); fill: rgb(208, 2, 27); fill-opacity: 1;"/></g><g class="arrow-line"><path class="connection real" stroke-dasharray="" d="  M425,365.67 L365.95,376.14" style="stroke: rgb(0, 0, 0); stroke-width: 1; fill: none; fill-opacity: 1;"/><g stroke="none" fill="#000" transform="matrix(0.9846253691177965,-0.17467937053253613,0.17467937053253613,0.9846253691177965,363,376.66666412353516)" style="stroke: none; fill: rgb(0, 0, 0); stroke-width: 1;"><path d=" M8.93,-4.29 L0,0 L8.93,4.29 Z"/></g></g><g class="composite-shape"><path class="real" d=" M284,315.33 L412,315.33 L412,427 L284,427 Z" style="stroke-width: 1; stroke: rgb(0, 0, 0); fill: none; fill-opacity: 1;"/></g><g class="composite-shape"><path class="real" d=" M310,336.33 C310,333.02 312.69,330.33 316,330.33 C319.31,330.33 322,333.02 322,336.33 C322,339.65 319.31,342.33 316,342.33 C312.69,342.33 310,339.65 310,336.33 Z" style="stroke-width: 1; stroke: rgb(0, 0, 0); fill: rgb(208, 2, 27); fill-opacity: 1;"/></g><g class="composite-shape"><path class="real" d=" M345,347.33 C345,344.02 347.69,341.33 351,341.33 C354.31,341.33 357,344.02 357,347.33 C357,350.65 354.31,353.33 351,353.33 C347.69,353.33 345,350.65 345,347.33 Z" style="stroke-width: 1; stroke: rgb(0, 0, 0); fill: rgb(208, 2, 27); fill-opacity: 1;"/></g><g class="composite-shape"><path class="real" d=" M293,361.33 C293,358.02 295.69,355.33 299,355.33 C302.31,355.33 305,358.02 305,361.33 C305,364.65 302.31,367.33 299,367.33 C295.69,367.33 293,364.65 293,361.33 Z" style="stroke-width: 1; stroke: rgb(0, 0, 0); fill: rgb(208, 2, 27); fill-opacity: 1;"/></g><g class="composite-shape"><path class="real" d=" M382,350.67 C382,345.33 386.33,341 391.67,341 C397.01,341 401.33,345.33 401.33,350.67 C401.33,356.01 397.01,360.33 391.67,360.33 C386.33,360.33 382,356.01 382,350.67 Z" style="stroke-width: 1; stroke: rgb(0, 0, 0); fill: rgb(74, 144, 226); fill-opacity: 1;"/></g><g class="composite-shape"><path class="real" d=" M373,386.33 C373,383.02 375.69,380.33 379,380.33 C382.31,380.33 385,383.02 385,386.33 C385,389.65 382.31,392.33 379,392.33 C375.69,392.33 373,389.65 373,386.33 Z" style="stroke-width: 1; stroke: rgb(0, 0, 0); fill: rgb(74, 144, 226); fill-opacity: 1;"/></g><g class="arrow-line"><path class="connection real" stroke-dasharray="2.25 3.685" d="  M350,320 L378,415" style="stroke: rgb(0, 0, 0); stroke-width: 2; fill: none; fill-opacity: 1;"/></g><g class="composite-shape"><path class="real" d=" M359,327.67 C359,322.33 363.33,318 368.67,318 C374.01,318 378.33,322.33 378.33,327.67 C378.33,333.01 374.01,337.33 368.67,337.33 C363.33,337.33 359,333.01 359,327.67 Z" style="stroke-width: 1; stroke: rgb(0, 0, 0); fill: rgb(74, 144, 226); fill-opacity: 1;"/></g><g class="composite-shape"><path class="real" d=" M312,402.67 C312,397.33 316.33,393 321.67,393 C327.01,393 331.33,397.33 331.33,402.67 C331.33,408.01 327.01,412.33 321.67,412.33 C316.33,412.33 312,408.01 312,402.67 Z" style="stroke-width: 1; stroke: rgb(0, 0, 0); fill: rgb(208, 2, 27); fill-opacity: 1;"/></g><g class="arrow-line"><path class="connection real" stroke-dasharray="" d="  M425,365.67 L367.52,403.03" style="stroke: rgb(0, 0, 0); stroke-width: 1; fill: none; fill-opacity: 1;"/><g stroke="none" fill="#000" transform="matrix(0.8384804019666341,-0.5449317530827797,0.5449317530827797,0.8384804019666341,365,404.66666412353516)" style="stroke: none; fill: rgb(0, 0, 0); stroke-width: 1;"><path d=" M8.93,-4.29 L0,0 L8.93,4.29 Z"/></g></g><g class="composite-shape"><path class="real" d=" M339.33,380.83 C339.33,375.49 343.66,371.17 349,371.17 C354.34,371.17 358.67,375.49 358.67,380.83 C358.67,386.17 354.34,390.5 349,390.5 C343.66,390.5 339.33,386.17 339.33,380.83 Z" style="stroke-width: 1; stroke: rgb(0, 0, 0); fill: rgb(74, 144, 226); fill-opacity: 1;"/></g><g class="composite-shape"><path class="real" d=" M341.33,407.83 C341.33,402.49 345.66,398.17 351,398.17 C356.34,398.17 360.67,402.49 360.67,407.83 C360.67,413.17 356.34,417.5 351,417.5 C345.66,417.5 341.33,413.17 341.33,407.83 Z" style="stroke-width: 1; stroke: rgb(0, 0, 0); fill: rgb(74, 144, 226); fill-opacity: 1;"/></g><g class="arrow-line"><path class="connection real" stroke-dasharray="2.25 3.685" d="  M579,322.67 L585,418.67" style="stroke: rgb(0, 0, 0); stroke-width: 2; fill: none; fill-opacity: 1;"/></g><g class="arrow-line"><path class="connection real" stroke-dasharray="2.25 3.685" d="  M597,318.67 L625,413.67" style="stroke: rgb(0, 0, 0); stroke-width: 2; fill: none; fill-opacity: 1;"/></g><g class="arrow-line"><path class="connection real" stroke-dasharray="2.25 3.685" d="  M539.5,376 L650.5,363" style="stroke: rgb(0, 0, 0); stroke-width: 2; fill: none; fill-opacity: 1;"/></g><g class="composite-shape"><path class="real" d=" M530,156.67 L658,156.67 L658,268.33 L530,268.33 Z" style="stroke-width: 1; stroke: rgb(0, 0, 0); fill: none; fill-opacity: 1;"/></g><g class="composite-shape"><path class="real" d=" M556,177.67 C556,174.35 558.69,171.67 562,171.67 C565.31,171.67 568,174.35 568,177.67 C568,180.98 565.31,183.67 562,183.67 C558.69,183.67 556,180.98 556,177.67 Z" style="stroke-width: 1; stroke: rgb(0, 0, 0); fill: rgb(208, 2, 27); fill-opacity: 1;"/></g><g class="composite-shape"><path class="real" d=" M591,188.67 C591,185.35 593.69,182.67 597,182.67 C600.31,182.67 603,185.35 603,188.67 C603,191.98 600.31,194.67 597,194.67 C593.69,194.67 591,191.98 591,188.67 Z" style="stroke-width: 1; stroke: rgb(0, 0, 0); fill: rgb(208, 2, 27); fill-opacity: 1;"/></g><g class="composite-shape"><path class="real" d=" M539,202.67 C539,199.35 541.69,196.67 545,196.67 C548.31,196.67 551,199.35 551,202.67 C551,205.98 548.31,208.67 545,208.67 C541.69,208.67 539,205.98 539,202.67 Z" style="stroke-width: 1; stroke: rgb(0, 0, 0); fill: rgb(208, 2, 27); fill-opacity: 1;"/></g><g class="composite-shape"><path class="real" d=" M619,227.67 C619,224.35 621.69,221.67 625,221.67 C628.31,221.67 631,224.35 631,227.67 C631,230.98 628.31,233.67 625,233.67 C621.69,233.67 619,230.98 619,227.67 Z" style="stroke-width: 1; stroke: rgb(0, 0, 0); fill: rgb(74, 144, 226); fill-opacity: 1;"/></g><g class="composite-shape"><path class="real" d=" M628,193.33 C628,187.99 632.33,183.67 637.67,183.67 C643.01,183.67 647.33,187.99 647.33,193.33 C647.33,198.67 643.01,203 637.67,203 C632.33,203 628,198.67 628,193.33 Z" style="stroke-width: 1; stroke: rgb(0, 0, 0); fill: rgb(74, 144, 226); fill-opacity: 1;"/></g><g class="composite-shape"><path class="real" d=" M605,170.33 C605,164.99 609.33,160.67 614.67,160.67 C620.01,160.67 624.33,164.99 624.33,170.33 C624.33,175.67 620.01,180 614.67,180 C609.33,180 605,175.67 605,170.33 Z" style="stroke-width: 1; stroke: rgb(0, 0, 0); fill: rgb(74, 144, 226); fill-opacity: 1;"/></g><g class="composite-shape"><path class="real" d=" M558,245.33 C558,239.99 562.33,235.67 567.67,235.67 C573.01,235.67 577.33,239.99 577.33,245.33 C577.33,250.67 573.01,255 567.67,255 C562.33,255 558,250.67 558,245.33 Z" style="stroke-width: 1; stroke: rgb(0, 0, 0); fill: rgb(208, 2, 27); fill-opacity: 1;"/></g><g class="composite-shape"><path class="real" d=" M585.33,223.5 C585.33,218.16 589.66,213.83 595,213.83 C600.34,213.83 604.67,218.16 604.67,223.5 C604.67,228.84 600.34,233.17 595,233.17 C589.66,233.17 585.33,228.84 585.33,223.5 Z" style="stroke-width: 1; stroke: rgb(0, 0, 0); fill: rgb(74, 144, 226); fill-opacity: 1;"/></g><g class="composite-shape"><path class="real" d=" M587.33,250.5 C587.33,245.16 591.66,240.83 597,240.83 C602.34,240.83 606.67,245.16 606.67,250.5 C606.67,255.84 602.34,260.17 597,260.17 C591.66,260.17 587.33,255.84 587.33,250.5 Z" style="stroke-width: 1; stroke: rgb(0, 0, 0); fill: rgb(74, 144, 226); fill-opacity: 1;"/></g><g class="composite-shape"><path class="real" d=" M531,315.67 L659,315.67 L659,427.33 L531,427.33 Z" style="stroke-width: 1; stroke: rgb(0, 0, 0); fill: none; fill-opacity: 1;"/></g><g class="composite-shape"><path class="real" d=" M557,336.67 C557,333.35 559.69,330.67 563,330.67 C566.31,330.67 569,333.35 569,336.67 C569,339.98 566.31,342.67 563,342.67 C559.69,342.67 557,339.98 557,336.67 Z" style="stroke-width: 1; stroke: rgb(0, 0, 0); fill: rgb(208, 2, 27); fill-opacity: 1;"/></g><g class="composite-shape"><path class="real" d=" M592,347.67 C592,344.35 594.69,341.67 598,341.67 C601.31,341.67 604,344.35 604,347.67 C604,350.98 601.31,353.67 598,353.67 C594.69,353.67 592,350.98 592,347.67 Z" style="stroke-width: 1; stroke: rgb(0, 0, 0); fill: rgb(208, 2, 27); fill-opacity: 1;"/></g><g class="composite-shape"><path class="real" d=" M540,361.67 C540,358.35 542.69,355.67 546,355.67 C549.31,355.67 552,358.35 552,361.67 C552,364.98 549.31,367.67 546,367.67 C542.69,367.67 540,364.98 540,361.67 Z" style="stroke-width: 1; stroke: rgb(0, 0, 0); fill: rgb(208, 2, 27); fill-opacity: 1;"/></g><g class="composite-shape"><path class="real" d=" M620,386.67 C620,383.35 622.69,380.67 626,380.67 C629.31,380.67 632,383.35 632,386.67 C632,389.98 629.31,392.67 626,392.67 C622.69,392.67 620,389.98 620,386.67 Z" style="stroke-width: 1; stroke: rgb(0, 0, 0); fill: rgb(74, 144, 226); fill-opacity: 1;"/></g><g class="composite-shape"><path class="real" d=" M629,352.33 C629,346.99 633.33,342.67 638.67,342.67 C644.01,342.67 648.33,346.99 648.33,352.33 C648.33,357.67 644.01,362 638.67,362 C633.33,362 629,357.67 629,352.33 Z" style="stroke-width: 1; stroke: rgb(0, 0, 0); fill: rgb(74, 144, 226); fill-opacity: 1;"/></g><g class="composite-shape"><path class="real" d=" M606,329.33 C606,323.99 610.33,319.67 615.67,319.67 C621.01,319.67 625.33,323.99 625.33,329.33 C625.33,334.67 621.01,339 615.67,339 C610.33,339 606,334.67 606,329.33 Z" style="stroke-width: 1; stroke: rgb(0, 0, 0); fill: rgb(74, 144, 226); fill-opacity: 1;"/></g><g class="composite-shape"><path class="real" d=" M559,404.33 C559,398.99 563.33,394.67 568.67,394.67 C574.01,394.67 578.33,398.99 578.33,404.33 C578.33,409.67 574.01,414 568.67,414 C563.33,414 559,409.67 559,404.33 Z" style="stroke-width: 1; stroke: rgb(0, 0, 0); fill: rgb(208, 2, 27); fill-opacity: 1;"/></g><g class="composite-shape"><path class="real" d=" M586.33,382.5 C586.33,377.16 590.66,372.83 596,372.83 C601.34,372.83 605.67,377.16 605.67,382.5 C605.67,387.84 601.34,392.17 596,392.17 C590.66,392.17 586.33,387.84 586.33,382.5 Z" style="stroke-width: 1; stroke: rgb(0, 0, 0); fill: rgb(74, 144, 226); fill-opacity: 1;"/></g><g class="composite-shape"><path class="real" d=" M588.33,409.5 C588.33,404.16 592.66,399.83 598,399.83 C603.34,399.83 607.67,404.16 607.67,409.5 C607.67,414.84 603.34,419.17 598,419.17 C592.66,419.17 588.33,414.84 588.33,409.5 Z" style="stroke-width: 1; stroke: rgb(0, 0, 0); fill: rgb(74, 144, 226); fill-opacity: 1;"/></g><g class="arrow-line"><path class="connection real" stroke-dasharray="" d="  M165,332.67 L278.07,227.39" style="stroke: rgb(126, 211, 33); stroke-opacity: 1; stroke-width: 2; fill: none; fill-opacity: 1;"/><g stroke="none" fill="rgb(126,211,33)" fill-opacity="1" transform="matrix(-0.7319485789086158,0.6813598739533007,-0.6813598739533007,-0.7319485789086158,281,224.66665649414062)" style="stroke: none; fill: rgb(126, 211, 33); stroke-width: 2;"><path d=" M11.61,-5.58 L0,0 L11.61,5.58 Z"/></g></g><g class="arrow-line"><path class="connection real" stroke-dasharray="7.5 6" d="  M412,334.67 L525.07,229.39" style="stroke: rgb(126, 211, 33); stroke-opacity: 1; stroke-width: 2; fill: none; fill-opacity: 1;"/><g stroke="none" fill="rgb(126,211,33)" fill-opacity="1" transform="matrix(-0.7319485789086158,0.6813598739533007,-0.6813598739533007,-0.7319485789086158,528,226.66665649414062)" style="stroke: none; fill: rgb(126, 211, 33); stroke-width: 2;"><path d=" M11.61,-5.58 L0,0 L11.61,5.58 Z"/></g></g><g class="arrow-line"><path class="connection real" stroke-dasharray="" d="  M101,267.67 L101,310.67" style="stroke: rgb(74, 144, 226); stroke-opacity: 1; stroke-width: 2; fill: none; fill-opacity: 1;"/><g stroke="none" fill="rgb(74,144,226)" fill-opacity="1" transform="matrix(-1.8369701987210297e-16,-1,1,-1.8369701987210297e-16,101,314.6666564941406)" style="stroke: none; fill: rgb(74, 144, 226); stroke-width: 2;"><path d=" M11.61,-5.58 L0,0 L11.61,5.58 Z"/></g></g><g class="arrow-line"><path class="connection real" stroke-dasharray="" d="  M348,267.67 L348,310.67" style="stroke: rgb(74, 144, 226); stroke-opacity: 1; stroke-width: 2; fill: none; fill-opacity: 1;"/><g stroke="none" fill="rgb(74,144,226)" fill-opacity="1" transform="matrix(-1.8369701987210297e-16,-1,1,-1.8369701987210297e-16,348,314.66665649414057)" style="stroke: none; fill: rgb(74, 144, 226); stroke-width: 2;"><path d=" M11.61,-5.58 L0,0 L11.61,5.58 Z"/></g></g><g class="arrow-line"><path class="connection real" stroke-dasharray="" d="  M597,269.67 L597,312.67" style="stroke: rgb(74, 144, 226); stroke-opacity: 1; stroke-width: 2; fill: none; fill-opacity: 1;"/><g stroke="none" fill="rgb(74,144,226)" fill-opacity="1" transform="matrix(-1.8369701987210297e-16,-1,1,-1.8369701987210297e-16,597,316.66668701171875)" style="stroke: none; fill: rgb(74, 144, 226); stroke-width: 2;"><path d=" M11.61,-5.58 L0,0 L11.61,5.58 Z"/></g></g><g class="arrow-line"><path class="connection real" stroke-dasharray="" d="  M103,106.67 L103,149.67" style="stroke: rgb(74, 144, 226); stroke-opacity: 1; stroke-width: 2; fill: none; fill-opacity: 1;"/><g stroke="none" fill="rgb(74,144,226)" fill-opacity="1" transform="matrix(-1.8369701987210297e-16,-1,1,-1.8369701987210297e-16,103,153.6666564941406)" style="stroke: none; fill: rgb(74, 144, 226); stroke-width: 2;"><path d=" M11.61,-5.58 L0,0 L11.61,5.58 Z"/></g></g><g class="arrow-line"><path class="connection real" stroke-dasharray="" d="  M347,83.67 L347,151.67" style="stroke: rgb(74, 144, 226); stroke-opacity: 1; stroke-width: 2; fill: none; fill-opacity: 1;"/><g stroke="none" fill="rgb(74,144,226)" fill-opacity="1" transform="matrix(-1.8369701987210297e-16,-1,1,-1.8369701987210297e-16,347,155.66665649414062)" style="stroke: none; fill: rgb(74, 144, 226); stroke-width: 2;"><path d=" M11.61,-5.58 L0,0 L11.61,5.58 Z"/></g></g><g class="arrow-line"><path class="connection real" stroke-dasharray="" d="  M595,108.67 L595,151.67" style="stroke: rgb(74, 144, 226); stroke-opacity: 1; stroke-width: 2; fill: none; fill-opacity: 1;"/><g stroke="none" fill="rgb(74,144,226)" fill-opacity="1" transform="matrix(-1.8369701987210297e-16,-1,1,-1.8369701987210297e-16,595,155.66665649414062)" style="stroke: none; fill: rgb(74, 144, 226); stroke-width: 2;"><path d=" M11.61,-5.58 L0,0 L11.61,5.58 Z"/></g></g><g class="arrow-line"><path class="connection real" stroke-dasharray="" d="  M103,106.67 L595,108.67" style="stroke: rgb(74, 144, 226); stroke-width: 2; fill: none; fill-opacity: 1; stroke-opacity: 1;"/></g><g class="arrow-line"><path class="connection real" stroke-dasharray="" d="  M97,519 L601,519.33" style="stroke: rgb(245, 166, 35); stroke-opacity: 1; stroke-width: 2; fill: none; fill-opacity: 1;"/></g><g class="arrow-line"><path class="connection real" stroke-dasharray="" d="  M97,488 L97,519" style="stroke: rgb(245, 166, 35); stroke-opacity: 1; stroke-width: 2; fill: none; fill-opacity: 1;"/></g><g class="arrow-line"><path class="connection real" stroke-dasharray="" d="  M349,489.17 L349,519.17" style="stroke: rgb(245, 166, 35); stroke-opacity: 1; stroke-width: 2; fill: none; fill-opacity: 1;"/></g><g class="arrow-line"><path class="connection real" stroke-dasharray="" d="  M601,490.33 L601,519.33" style="stroke: rgb(245, 166, 35); stroke-opacity: 1; stroke-width: 2; fill: none; fill-opacity: 1;"/></g><g class="composite-shape"><path class="real" d=" M342,553.8 L346.5,553.8 L346.5,533 L355.5,533 L355.5,553.8 L360,553.8 L351,565 Z" style="stroke-width: 2; stroke: rgb(126, 211, 33); stroke-opacity: 1; fill: rgb(126, 211, 33); fill-opacity: 0.5;"/></g><g/></g><g/><g><g><ellipse cx="346" cy="51.5" rx="107.48023074035521" ry="30.40559159102154" style="stroke: rgb(126, 211, 33); stroke-width: 2; fill: none; fill-opacity: 1; stroke-opacity: 1;"/></g><g><rect rx="0" ry="0" x="312" y="572.9333330154419" width="83" height="25" style="stroke: rgb(245, 166, 35); stroke-opacity: 1; stroke-width: 1; fill: rgb(245, 166, 35); fill-opacity: 0.3;"/></g><g><rect rx="0" ry="0" x="330" y="504.9333330154419" width="44" height="29" style="stroke: none; stroke-opacity: 1; stroke-width: 1; fill: rgb(255, 255, 255); fill-opacity: 1;"/></g></g><g/></svg>
        <svg xmlns="http://www.w3.org/2000/svg" xmlns:xlink="http://www.w3.org/1999/xlink" width="806" height="618" style="width:806px;height:618px;font-family:Asana-Math, Asana;background:#FFF;"><g><g><g><text x="185" y="348.3333282470703" style="white-space:pre;stroke:none;fill:rgb(0,0,0);fill-opacity:1;font-size:15px;font-family:Arial, Helvetica, sans-serif;font-weight:400;font-style:normal;dominant-baseline:text-before-edge;text-decoration:none solid rgb(0, 0, 0);">Increasing</text></g></g><g><g><text x="194.16668701171875" y="369.3333282470703" style="white-space:pre;stroke:none;fill:rgb(0,0,0);fill-opacity:1;font-size:15px;font-family:Arial, Helvetica, sans-serif;font-weight:400;font-style:normal;dominant-baseline:text-before-edge;text-decoration:none solid rgb(0, 0, 0);">weights</text></g></g></g><g><g><g><text x="427" y="344.3333282470703" style="white-space:pre;stroke:none;fill:rgb(0,0,0);fill-opacity:1;font-size:15px;font-family:Arial, Helvetica, sans-serif;font-weight:400;font-style:normal;dominant-baseline:text-before-edge;text-decoration:none solid rgb(0, 0, 0);">Increasing</text></g></g><g><g><text x="436.16668701171875" y="365.3333282470703" style="white-space:pre;stroke:none;fill:rgb(0,0,0);fill-opacity:1;font-size:15px;font-family:Arial, Helvetica, sans-serif;font-weight:400;font-style:normal;dominant-baseline:text-before-edge;text-decoration:none solid rgb(0, 0, 0);">weights</text></g></g></g><g><g><g><text x="332.0521240234375" y="441.00001525878906" style="white-space:pre;stroke:none;fill:rgb(0,0,0);fill-opacity:1;font-size:15px;font-family:Arial, Helvetica, sans-serif;font-weight:400;font-style:normal;dominant-baseline:text-before-edge;text-decoration:none solid rgb(0, 0, 0);">Weak</text></g></g><g><g><text x="314" y="462.00001525878906" style="white-space:pre;stroke:none;fill:rgb(0,0,0);fill-opacity:1;font-size:15px;font-family:Arial, Helvetica, sans-serif;font-weight:400;font-style:normal;dominant-baseline:text-before-edge;text-decoration:none solid rgb(0, 0, 0);">Classifier 2</text></g></g></g><g><g><g><text x="83.05209350585938" y="441.00001525878906" style="white-space:pre;stroke:none;fill:rgb(0,0,0);fill-opacity:1;font-size:15px;font-family:Arial, Helvetica, sans-serif;font-weight:400;font-style:normal;dominant-baseline:text-before-edge;text-decoration:none solid rgb(0, 0, 0);">Weak</text></g></g><g><g><text x="65" y="462.00001525878906" style="white-space:pre;stroke:none;fill:rgb(0,0,0);fill-opacity:1;font-size:15px;font-family:Arial, Helvetica, sans-serif;font-weight:400;font-style:normal;dominant-baseline:text-before-edge;text-decoration:none solid rgb(0, 0, 0);">Classifier 1</text></g></g></g><g><g><g><text x="580.3333740234375" y="439.00001525878906" style="white-space:pre;stroke:none;fill:rgb(0,0,0);fill-opacity:1;font-size:15px;font-family:Arial, Helvetica, sans-serif;font-weight:400;font-style:normal;dominant-baseline:text-before-edge;text-decoration:none solid rgb(0, 0, 0);">Weak</text></g></g><g><g><text x="562" y="460.00001525878906" style="white-space:pre;stroke:none;fill:rgb(0,0,0);fill-opacity:1;font-size:15px;font-family:Arial, Helvetica, sans-serif;font-weight:400;font-style:normal;dominant-baseline:text-before-edge;text-decoration:none solid rgb(0, 0, 0);">Classifier T</text></g></g></g><g><g><g><g transform="matrix(1,0,0,1,465.3125,463.7333282470703)"><path transform="matrix(0.020399999999999998,0,0,-0.020399999999999998,0,0)" d="M499 329C469 329 442 301 442 271C442 241 469 213 498 213C530 213 558 240 558 271C558 301 530 329 499 329ZM166 329C136 329 109 301 109 271C109 241 136 213 165 213C197 213 225 240 225 271C225 301 197 329 166 329ZM832 329C802 329 775 301 775 271C775 241 802 213 831 213C863 213 891 240 891 271C891 301 863 329 832 329Z" stroke="rgb(0,0,0)" stroke-opacity="1" stroke-width="8" fill="rgb(0,0,0)" fill-opacity="1"></path></g></g></g></g><g><g><g><text x="288.96875" y="32" style="white-space:pre;stroke:none;fill:rgb(0,0,0);fill-opacity:1;font-size:15px;font-family:Arial, Helvetica, sans-serif;font-weight:400;font-style:normal;dominant-baseline:text-before-edge;text-decoration:none solid rgb(0, 0, 0);">Training datasets</text></g></g><g><g><g><g><g><g transform="matrix(1,0,0,1,272,67.33332824707031)"><path transform="matrix(0.017,0,0,-0.017,0,0)" d="M730 103L704 86C675 67 653 56 643 56C636 56 630 65 630 76C630 86 632 95 637 116L712 413C716 430 719 446 719 454C719 471 709 482 693 482C664 482 626 464 565 421C502 376 467 341 418 272L448 409C452 429 455 444 455 451C455 470 445 482 429 482C399 482 353 460 298 418C254 384 234 363 169 275L202 408C206 424 208 439 208 451C208 470 199 482 185 482C164 482 126 461 52 408L24 388L31 368C68 391 103 414 110 414C121 414 128 404 128 389C128 338 87 145 46 2L49 -9L117 6L139 108C163 219 190 278 245 338C287 384 332 414 360 414C367 414 371 406 371 393C371 358 349 244 308 69L292 2L297 -9L366 6L387 113C403 194 437 269 481 318C536 379 586 414 618 414C626 414 631 405 631 389C631 365 628 351 606 264C566 105 550 84 550 31C550 6 561 -9 580 -9C606 -9 642 12 740 85Z" stroke="rgb(0,0,0)" stroke-opacity="1" stroke-width="8" fill="rgb(0,0,0)" fill-opacity="1"></path></g></g></g></g></g><g><text x="285.21875" y="54.33332824707031" style="white-space:pre;stroke:none;fill:rgb(0,0,0);fill-opacity:1;font-size:15px;font-family:Arial, Helvetica, sans-serif;font-weight:400;font-style:normal;dominant-baseline:text-before-edge;text-decoration:none solid rgb(0, 0, 0);"> samples, </text></g><g><g><g><g><g transform="matrix(1,0,0,1,353.5833740234375,67.33332824707031)"><path transform="matrix(0.017,0,0,-0.017,0,0)" d="M483 722L471 733C419 707 383 698 311 691L307 670L355 670C379 670 389 663 389 646C389 638 388 629 387 622L359 468C329 477 302 482 277 482C208 482 114 410 68 323C37 265 17 170 17 86C17 21 32 -11 61 -11C88 -11 125 6 159 33C213 77 246 116 313 217L290 126C279 82 274 50 274 24C274 3 283 -9 300 -9C317 -9 341 3 375 28L456 88L446 107L402 76C388 66 372 59 363 59C355 59 349 68 349 82C349 90 350 99 357 128ZM114 59C98 59 89 73 89 98C89 224 135 380 184 418C197 428 216 433 243 433C287 433 316 427 349 410L337 351C300 171 159 59 114 59Z" stroke="rgb(0,0,0)" stroke-opacity="1" stroke-width="8" fill="rgb(0,0,0)" fill-opacity="1"></path></g></g></g></g></g><g><text x="362.07293701171875" y="54.33332824707031" style="white-space:pre;stroke:none;fill:rgb(0,0,0);fill-opacity:1;font-size:15px;font-family:Arial, Helvetica, sans-serif;font-weight:400;font-style:normal;dominant-baseline:text-before-edge;text-decoration:none solid rgb(0, 0, 0);"> features</text></g></g></g><g><g><g><text x="671.354248046875" y="191.00001525878906" style="white-space:pre;stroke:none;fill:rgb(0,0,0);fill-opacity:1;font-size:15px;font-family:Arial, Helvetica, sans-serif;font-weight:400;font-style:normal;dominant-baseline:text-before-edge;text-decoration:none solid rgb(0, 0, 0);">Bootstrap</text></g></g><g><g><text x="669" y="212.00001525878906" style="white-space:pre;stroke:none;fill:rgb(0,0,0);fill-opacity:1;font-size:15px;font-family:Arial, Helvetica, sans-serif;font-weight:400;font-style:normal;dominant-baseline:text-before-edge;text-decoration:none solid rgb(0, 0, 0);">T samples</text></g></g></g><g><g><g><text x="668" y="352.00001525878906" style="white-space:pre;stroke:none;fill:rgb(0,0,0);fill-opacity:1;font-size:15px;font-family:Arial, Helvetica, sans-serif;font-weight:400;font-style:normal;dominant-baseline:text-before-edge;text-decoration:none solid rgb(0, 0, 0);">Building T classifier</text></g></g><g><g><text x="675.2083740234375" y="373.00001525878906" style="white-space:pre;stroke:none;fill:rgb(0,0,0);fill-opacity:1;font-size:15px;font-family:Arial, Helvetica, sans-serif;font-weight:400;font-style:normal;dominant-baseline:text-before-edge;text-decoration:none solid rgb(0, 0, 0);">one after another</text></g></g></g><g><g><g><text x="334" y="508.9270782470703" style="white-space:pre;stroke:none;fill:rgb(0,0,0);fill-opacity:1;font-size:18px;font-family:Arial, Helvetica, sans-serif;font-weight:400;font-style:normal;dominant-baseline:text-before-edge;text-decoration:none solid rgb(0, 0, 0);">Vote</text></g></g></g><g><g><g><text x="316" y="576.9270782470703" style="white-space:pre;stroke:none;fill:rgb(0,0,0);fill-opacity:1;font-size:15px;font-family:Arial, Helvetica, sans-serif;font-weight:400;font-style:normal;dominant-baseline:text-before-edge;text-decoration:none solid rgb(0, 0, 0);">Final-Class</text></g></g></g><g><g><g><g transform="matrix(1,0,0,1,461.3125,219.73332824707032)"><path transform="matrix(0.020399999999999998,0,0,-0.020399999999999998,0,0)" d="M499 329C469 329 442 301 442 271C442 241 469 213 498 213C530 213 558 240 558 271C558 301 530 329 499 329ZM166 329C136 329 109 301 109 271C109 241 136 213 165 213C197 213 225 240 225 271C225 301 197 329 166 329ZM832 329C802 329 775 301 775 271C775 241 802 213 831 213C863 213 891 240 891 271C891 301 863 329 832 329Z" stroke="rgb(0,0,0)" stroke-opacity="1" stroke-width="8" fill="rgb(0,0,0)" fill-opacity="1"></path></g></g></g></g><g><g><g><g transform="matrix(1,0,0,1,109.19793701171875,507.7333282470703)"><path transform="matrix(0.020399999999999998,0,0,-0.020399999999999998,0,0)" d="M167 420C188 420 201 421 226 424C171 350 72 266 72 126C72 44 107 -11 160 -11C224 -11 276 44 350 187C341 143 338 118 338 95C338 32 367 -11 412 -11C546 -11 699 238 699 384C699 441 673 482 637 482C624 482 612 478 604 470L554 423L565 404C574 410 583 413 592 413C619 413 635 390 635 350C635 205 538 39 453 39C424 39 403 79 403 134C403 181 412 247 424 290L476 474L469 482L395 460L366 311C354 249 340 209 311 155C271 80 233 39 203 39C168 39 145 78 145 136C145 255 186 352 285 464L275 482C255 473 242 470 214 470C186 470 144 472 115 475L103 476C97 477 92 477 91 477C79 477 70 475 59 470C45 443 34 407 21 352L43 352L60 394C67 411 87 422 111 422C145 422 128 420 167 420Z" stroke="rgb(0,0,0)" stroke-opacity="1" stroke-width="8" fill="rgb(0,0,0)" fill-opacity="1"></path></g></g><g><g><g><g><g transform="matrix(1,0,0,1,124.51043701171875,511.99876525878904)"><path transform="matrix(0.01428,0,0,-0.01428,0,0)" d="M418 -3L418 27L366 30C311 33 301 44 301 96L301 700L60 598L67 548L217 614L217 96C217 44 206 33 152 30L96 27L96 -3C250 0 250 0 261 0C292 0 402 -3 418 -3Z" stroke="rgb(0,0,0)" stroke-opacity="1" stroke-width="8" fill="rgb(0,0,0)" fill-opacity="1"></path></g></g></g></g></g></g></g><g><g><g><g transform="matrix(1,0,0,1,369.19793701171875,501.7333282470703)"><path transform="matrix(0.020399999999999998,0,0,-0.020399999999999998,0,0)" d="M167 420C188 420 201 421 226 424C171 350 72 266 72 126C72 44 107 -11 160 -11C224 -11 276 44 350 187C341 143 338 118 338 95C338 32 367 -11 412 -11C546 -11 699 238 699 384C699 441 673 482 637 482C624 482 612 478 604 470L554 423L565 404C574 410 583 413 592 413C619 413 635 390 635 350C635 205 538 39 453 39C424 39 403 79 403 134C403 181 412 247 424 290L476 474L469 482L395 460L366 311C354 249 340 209 311 155C271 80 233 39 203 39C168 39 145 78 145 136C145 255 186 352 285 464L275 482C255 473 242 470 214 470C186 470 144 472 115 475L103 476C97 477 92 477 91 477C79 477 70 475 59 470C45 443 34 407 21 352L43 352L60 394C67 411 87 422 111 422C145 422 128 420 167 420Z" stroke="rgb(0,0,0)" stroke-opacity="1" stroke-width="8" fill="rgb(0,0,0)" fill-opacity="1"></path></g></g><g><g><g><g><g transform="matrix(1,0,0,1,384.51043701171875,505.99876525878904)"><path transform="matrix(0.01428,0,0,-0.01428,0,0)" d="M16 23L16 -3C203 -3 203 0 239 0C275 0 275 -3 468 -3L468 82C353 77 307 81 122 77L304 270C401 373 431 428 431 503C431 618 353 689 226 689C154 689 105 669 56 619L39 483L68 483L81 529C97 587 133 612 200 612C286 612 341 558 341 473C341 398 299 324 186 204Z" stroke="rgb(0,0,0)" stroke-opacity="1" stroke-width="8" fill="rgb(0,0,0)" fill-opacity="1"></path></g></g></g></g></g></g></g><g><g><g><g transform="matrix(1,0,0,1,618.1979370117188,504.7333282470703)"><path transform="matrix(0.020399999999999998,0,0,-0.020399999999999998,0,0)" d="M167 420C188 420 201 421 226 424C171 350 72 266 72 126C72 44 107 -11 160 -11C224 -11 276 44 350 187C341 143 338 118 338 95C338 32 367 -11 412 -11C546 -11 699 238 699 384C699 441 673 482 637 482C624 482 612 478 604 470L554 423L565 404C574 410 583 413 592 413C619 413 635 390 635 350C635 205 538 39 453 39C424 39 403 79 403 134C403 181 412 247 424 290L476 474L469 482L395 460L366 311C354 249 340 209 311 155C271 80 233 39 203 39C168 39 145 78 145 136C145 255 186 352 285 464L275 482C255 473 242 470 214 470C186 470 144 472 115 475L103 476C97 477 92 477 91 477C79 477 70 475 59 470C45 443 34 407 21 352L43 352L60 394C67 411 87 422 111 422C145 422 128 420 167 420Z" stroke="rgb(0,0,0)" stroke-opacity="1" stroke-width="8" fill="rgb(0,0,0)" fill-opacity="1"></path></g></g><g><g><g><g><g transform="matrix(1,0,0,1,633.5104370117188,508.99876525878904)"><path transform="matrix(0.01428,0,0,-0.01428,0,0)" d="M390 646L463 646C541 646 577 641 580 629C583 621 585 602 584 592L580 528L608 528L635 692L544 691C456 690 388 689 353 689C316 689 252 690 166 691L71 692L53 528L82 528L97 588C102 610 109 626 115 633C121 640 159 646 196 646L308 646L222 125C206 34 204 31 164 28L113 25L109 -3L166 -2C206 -1 235 0 251 0C270 0 301 -1 340 -2L384 -3L387 25L328 28C302 29 292 37 292 58C292 67 293 74 296 93Z" stroke="rgb(0,0,0)" stroke-opacity="1" stroke-width="8" fill="rgb(0,0,0)" fill-opacity="1"></path></g></g></g></g></g></g></g></svg>
</svg>
