<svg xmlns="http://www.w3.org/2000/svg" xmlns:xlink="http://www.w3.org/1999/xlink" x="0" y="0" width="807.3333740234375" height="555" style="
        width:807.3333740234375px;
        height:555px;
        background: #FFF;
        fill: none;
">
        <svg xmlns="http://www.w3.org/2000/svg"/>
        
        <svg xmlns="http://www.w3.org/2000/svg" class="role-diagram-draw-area"><g class="shapes-region" style="stroke: black; fill: none;"><g class="composite-shape"><path class="real" d=" M14,155 L142,155 L142,266.67 L14,266.67 Z" style="stroke-width: 1; stroke: rgb(0, 0, 0); fill: none; fill-opacity: 1;"/></g><g class="composite-shape"><path class="real" d=" M40,176 C40,172.69 42.69,170 46,170 C49.31,170 52,172.69 52,176 C52,179.31 49.31,182 46,182 C42.69,182 40,179.31 40,176 Z" style="stroke-width: 1; stroke: rgb(0, 0, 0); fill: rgb(208, 2, 27); fill-opacity: 1;"/></g><g class="composite-shape"><path class="real" d=" M75,187 C75,183.69 77.69,181 81,181 C84.31,181 87,183.69 87,187 C87,190.31 84.31,193 81,193 C77.69,193 75,190.31 75,187 Z" style="stroke-width: 1; stroke: rgb(0, 0, 0); fill: rgb(208, 2, 27); fill-opacity: 1;"/></g><g class="composite-shape"><path class="real" d=" M23,201 C23,197.69 25.69,195 29,195 C32.31,195 35,197.69 35,201 C35,204.31 32.31,207 29,207 C25.69,207 23,204.31 23,201 Z" style="stroke-width: 1; stroke: rgb(0, 0, 0); fill: rgb(208, 2, 27); fill-opacity: 1;"/></g><g class="composite-shape"><path class="real" d=" M46,243 C46,239.69 48.69,237 52,237 C55.31,237 58,239.69 58,243 C58,246.31 55.31,249 52,249 C48.69,249 46,246.31 46,243 Z" style="stroke-width: 1; stroke: rgb(0, 0, 0); fill: rgb(208, 2, 27); fill-opacity: 1;"/></g><g class="composite-shape"><path class="real" d=" M92,170 C92,166.69 94.69,164 98,164 C101.31,164 104,166.69 104,170 C104,173.31 101.31,176 98,176 C94.69,176 92,173.31 92,170 Z" style="stroke-width: 1; stroke: rgb(0, 0, 0); fill: rgb(74, 144, 226); fill-opacity: 1;"/></g><g class="composite-shape"><path class="real" d=" M116,193 C116,189.69 118.69,187 122,187 C125.31,187 128,189.69 128,193 C128,196.31 125.31,199 122,199 C118.69,199 116,196.31 116,193 Z" style="stroke-width: 1; stroke: rgb(0, 0, 0); fill: rgb(74, 144, 226); fill-opacity: 1;"/></g><g class="composite-shape"><path class="real" d=" M70,222 C70,218.69 72.69,216 76,216 C79.31,216 82,218.69 82,222 C82,225.31 79.31,228 76,228 C72.69,228 70,225.31 70,222 Z" style="stroke-width: 1; stroke: rgb(0, 0, 0); fill: rgb(74, 144, 226); fill-opacity: 1;"/></g><g class="composite-shape"><path class="real" d=" M103,226 C103,222.69 105.69,220 109,220 C112.31,220 115,222.69 115,226 C115,229.31 112.31,232 109,232 C105.69,232 103,229.31 103,226 Z" style="stroke-width: 1; stroke: rgb(0, 0, 0); fill: rgb(74, 144, 226); fill-opacity: 1;"/></g><g class="composite-shape"><path class="real" d=" M75,247 C75,243.69 77.69,241 81,241 C84.31,241 87,243.69 87,247 C87,250.31 84.31,253 81,253 C77.69,253 75,250.31 75,247 Z" style="stroke-width: 1; stroke: rgb(0, 0, 0); fill: rgb(74, 144, 226); fill-opacity: 1;"/></g><g class="arrow-line"><path class="connection real" stroke-dasharray="" d="  M235.33,207.33 L282.72,233.87" style="stroke: rgb(0, 0, 0); stroke-width: 1; fill: none; fill-opacity: 1;"/><g stroke="none" fill="#000" transform="matrix(-0.8724960070727971,-0.488621241496955,0.488621241496955,-0.8724960070727971,285.33331298828125,235.33333206176758)" style="stroke: none; fill: rgb(0, 0, 0); stroke-width: 1;"><path d=" M8.93,-4.29 L0,0 L8.93,4.29 Z"/></g></g><g class="arrow-line"><path class="connection real" stroke-dasharray="" d="  M235.33,207.33 L350.35,195.64" style="stroke: rgb(0, 0, 0); stroke-width: 1; fill: none; fill-opacity: 1;"/><g stroke="none" fill="#000" transform="matrix(-0.9948630560248211,0.10122993508322424,-0.10122993508322424,-0.9948630560248211,353.3333129882812,195.33333206176758)" style="stroke: none; fill: rgb(0, 0, 0); stroke-width: 1;"><path d=" M8.93,-4.29 L0,0 L8.93,4.29 Z"/></g></g><g class="composite-shape"><path class="real" d=" M260,156.33 L388,156.33 L388,268 L260,268 Z" style="stroke-width: 1; stroke: rgb(0, 0, 0); fill: none; fill-opacity: 1;"/></g><g class="composite-shape"><path class="real" d=" M286,177.33 C286,174.02 288.69,171.33 292,171.33 C295.31,171.33 298,174.02 298,177.33 C298,180.65 295.31,183.33 292,183.33 C288.69,183.33 286,180.65 286,177.33 Z" style="stroke-width: 1; stroke: rgb(0, 0, 0); fill: rgb(208, 2, 27); fill-opacity: 1;"/></g><g class="composite-shape"><path class="real" d=" M321,188.33 C321,185.02 323.69,182.33 327,182.33 C330.31,182.33 333,185.02 333,188.33 C333,191.65 330.31,194.33 327,194.33 C323.69,194.33 321,191.65 321,188.33 Z" style="stroke-width: 1; stroke: rgb(0, 0, 0); fill: rgb(208, 2, 27); fill-opacity: 1;"/></g><g class="composite-shape"><path class="real" d=" M269,202.33 C269,199.02 271.69,196.33 275,196.33 C278.31,196.33 281,199.02 281,202.33 C281,205.65 278.31,208.33 275,208.33 C271.69,208.33 269,205.65 269,202.33 Z" style="stroke-width: 1; stroke: rgb(0, 0, 0); fill: rgb(208, 2, 27); fill-opacity: 1;"/></g><g class="composite-shape"><path class="real" d=" M358,191.67 C358,186.33 362.33,182 367.67,182 C373.01,182 377.33,186.33 377.33,191.67 C377.33,197.01 373.01,201.33 367.67,201.33 C362.33,201.33 358,197.01 358,191.67 Z" style="stroke-width: 1; stroke: rgb(0, 0, 0); fill: rgb(74, 144, 226); fill-opacity: 1;"/></g><g class="composite-shape"><path class="real" d=" M316,223.33 C316,220.02 318.69,217.33 322,217.33 C325.31,217.33 328,220.02 328,223.33 C328,226.65 325.31,229.33 322,229.33 C318.69,229.33 316,226.65 316,223.33 Z" style="stroke-width: 1; stroke: rgb(0, 0, 0); fill: rgb(74, 144, 226); fill-opacity: 1;"/></g><g class="composite-shape"><path class="real" d=" M349,227.33 C349,224.02 351.69,221.33 355,221.33 C358.31,221.33 361,224.02 361,227.33 C361,230.65 358.31,233.33 355,233.33 C351.69,233.33 349,230.65 349,227.33 Z" style="stroke-width: 1; stroke: rgb(0, 0, 0); fill: rgb(74, 144, 226); fill-opacity: 1;"/></g><g class="composite-shape"><path class="real" d=" M321,248.33 C321,245.02 323.69,242.33 327,242.33 C330.31,242.33 333,245.02 333,248.33 C333,251.65 330.31,254.33 327,254.33 C323.69,254.33 321,251.65 321,248.33 Z" style="stroke-width: 1; stroke: rgb(0, 0, 0); fill: rgb(74, 144, 226); fill-opacity: 1;"/></g><g class="arrow-line"><path class="connection real" stroke-dasharray="2.25 3.685" d="  M269,217.67 L380,204.67" style="stroke: rgb(0, 0, 0); stroke-width: 2; fill: none; fill-opacity: 1;"/></g><g class="arrow-line"><path class="connection real" stroke-dasharray="" d="  M235.33,207.33 L327.51,174.34" style="stroke: rgb(0, 0, 0); stroke-width: 1; fill: none; fill-opacity: 1;"/><g stroke="none" fill="#000" transform="matrix(-0.9415293646938458,0.3369309356814879,-0.3369309356814879,-0.9415293646938458,330.33331298828125,173.33333206176758)" style="stroke: none; fill: rgb(0, 0, 0); stroke-width: 1;"><path d=" M8.93,-4.29 L0,0 L8.93,4.29 Z"/></g></g><g class="composite-shape"><path class="real" d=" M335,168.67 C335,163.33 339.33,159 344.67,159 C350.01,159 354.33,163.33 354.33,168.67 C354.33,174.01 350.01,178.33 344.67,178.33 C339.33,178.33 335,174.01 335,168.67 Z" style="stroke-width: 1; stroke: rgb(0, 0, 0); fill: rgb(74, 144, 226); fill-opacity: 1;"/></g><g class="composite-shape"><path class="real" d=" M288,241.67 C288,236.33 292.33,232 297.67,232 C303.01,232 307.33,236.33 307.33,241.67 C307.33,247.01 303.01,251.33 297.67,251.33 C292.33,251.33 288,247.01 288,241.67 Z" style="stroke-width: 1; stroke: rgb(0, 0, 0); fill: rgb(208, 2, 27); fill-opacity: 1;"/></g><g class="arrow-line"><path class="connection real" stroke-dasharray="" d="  M497.33,212.67 L554.37,221.22" style="stroke: rgb(0, 0, 0); stroke-width: 1; fill: none; fill-opacity: 1;"/><g stroke="none" fill="#000" transform="matrix(-0.9889383349666097,-0.14832723833965816,0.14832723833965816,-0.9889383349666097,557.3333129882812,221.6666669845581)" style="stroke: none; fill: rgb(0, 0, 0); stroke-width: 1;"><path d=" M8.93,-4.29 L0,0 L8.93,4.29 Z"/></g></g><g class="composite-shape"><path class="real" d=" M507,156.33 L635,156.33 L635,268 L507,268 Z" style="stroke-width: 1; stroke: rgb(0, 0, 0); fill: none; fill-opacity: 1;"/></g><g class="composite-shape"><path class="real" d=" M533,177.33 C533,174.02 535.69,171.33 539,171.33 C542.31,171.33 545,174.02 545,177.33 C545,180.65 542.31,183.33 539,183.33 C535.69,183.33 533,180.65 533,177.33 Z" style="stroke-width: 1; stroke: rgb(0, 0, 0); fill: rgb(208, 2, 27); fill-opacity: 1;"/></g><g class="composite-shape"><path class="real" d=" M568,188.33 C568,185.02 570.69,182.33 574,182.33 C577.31,182.33 580,185.02 580,188.33 C580,191.65 577.31,194.33 574,194.33 C570.69,194.33 568,191.65 568,188.33 Z" style="stroke-width: 1; stroke: rgb(0, 0, 0); fill: rgb(208, 2, 27); fill-opacity: 1;"/></g><g class="composite-shape"><path class="real" d=" M516,202.33 C516,199.02 518.69,196.33 522,196.33 C525.31,196.33 528,199.02 528,202.33 C528,205.65 525.31,208.33 522,208.33 C518.69,208.33 516,205.65 516,202.33 Z" style="stroke-width: 1; stroke: rgb(0, 0, 0); fill: rgb(208, 2, 27); fill-opacity: 1;"/></g><g class="composite-shape"><path class="real" d=" M605,191.67 C605,186.33 609.33,182 614.67,182 C620.01,182 624.33,186.33 624.33,191.67 C624.33,197.01 620.01,201.33 614.67,201.33 C609.33,201.33 605,197.01 605,191.67 Z" style="stroke-width: 1; stroke: rgb(0, 0, 0); fill: rgb(74, 144, 226); fill-opacity: 1;"/></g><g class="composite-shape"><path class="real" d=" M596,227.33 C596,224.02 598.69,221.33 602,221.33 C605.31,221.33 608,224.02 608,227.33 C608,230.65 605.31,233.33 602,233.33 C598.69,233.33 596,230.65 596,227.33 Z" style="stroke-width: 1; stroke: rgb(0, 0, 0); fill: rgb(74, 144, 226); fill-opacity: 1;"/></g><g class="arrow-line"><path class="connection real" stroke-dasharray="2.25 3.685" d="  M573,161 L601,256" style="stroke: rgb(0, 0, 0); stroke-width: 2; fill: none; fill-opacity: 1;"/></g><g class="composite-shape"><path class="real" d=" M582,168.67 C582,163.33 586.33,159 591.67,159 C597.01,159 601.33,163.33 601.33,168.67 C601.33,174.01 597.01,178.33 591.67,178.33 C586.33,178.33 582,174.01 582,168.67 Z" style="stroke-width: 1; stroke: rgb(0, 0, 0); fill: rgb(74, 144, 226); fill-opacity: 1;"/></g><g class="composite-shape"><path class="real" d=" M535,243.67 C535,238.33 539.33,234 544.67,234 C550.01,234 554.33,238.33 554.33,243.67 C554.33,249.01 550.01,253.33 544.67,253.33 C539.33,253.33 535,249.01 535,243.67 Z" style="stroke-width: 1; stroke: rgb(0, 0, 0); fill: rgb(208, 2, 27); fill-opacity: 1;"/></g><g class="arrow-line"><path class="connection real" stroke-dasharray="" d="  M497.33,212.67 L561.6,241.44" style="stroke: rgb(0, 0, 0); stroke-width: 1; fill: none; fill-opacity: 1;"/><g stroke="none" fill="#000" transform="matrix(-0.9126915874035026,-0.4086490747363493,0.4086490747363493,-0.9126915874035026,564.3333129882812,242.6666669845581)" style="stroke: none; fill: rgb(0, 0, 0); stroke-width: 1;"><path d=" M8.93,-4.29 L0,0 L8.93,4.29 Z"/></g></g><g class="composite-shape"><path class="real" d=" M562.33,221.83 C562.33,216.49 566.66,212.17 572,212.17 C577.34,212.17 581.67,216.49 581.67,221.83 C581.67,227.17 577.34,231.5 572,231.5 C566.66,231.5 562.33,227.17 562.33,221.83 Z" style="stroke-width: 1; stroke: rgb(0, 0, 0); fill: rgb(74, 144, 226); fill-opacity: 1;"/></g><g class="composite-shape"><path class="real" d=" M564.33,248.83 C564.33,243.49 568.66,239.17 574,239.17 C579.34,239.17 583.67,243.49 583.67,248.83 C583.67,254.17 579.34,258.5 574,258.5 C568.66,258.5 564.33,254.17 564.33,248.83 Z" style="stroke-width: 1; stroke: rgb(0, 0, 0); fill: rgb(74, 144, 226); fill-opacity: 1;"/></g><g class="arrow-line"><path class="connection real" stroke-dasharray="" d="  M93.33,387.33 L252.42,237.41" style="stroke: rgb(126, 211, 33); stroke-opacity: 1; stroke-width: 2; fill: none; fill-opacity: 1;"/><g stroke="none" fill="rgb(126,211,33)" fill-opacity="1" transform="matrix(-0.7277727576572096,0.6858183529273771,-0.6858183529273771,-0.7277727576572096,255.33331298828125,234.6666660308838)" style="stroke: none; fill: rgb(126, 211, 33); stroke-width: 2;"><path d=" M11.61,-5.58 L0,0 L11.61,5.58 Z"/></g></g><g class="arrow-line"><path class="connection real" stroke-dasharray="" d="  M78,267.67 L77.42,295.33" style="stroke: rgb(74, 144, 226); stroke-opacity: 1; stroke-width: 2; fill: none; fill-opacity: 1;"/><g stroke="none" fill="rgb(74,144,226)" fill-opacity="1" transform="matrix(0.021116914210743905,-0.9997770131055305,0.9997770131055305,0.021116914210743905,77.33331298828125,299.33333587646484)" style="stroke: none; fill: rgb(74, 144, 226); stroke-width: 2;"><path d=" M11.61,-5.58 L0,0 L11.61,5.58 Z"/></g></g><g class="arrow-line"><path class="connection real" stroke-dasharray="" d="  M80,106.67 L80,149.67" style="stroke: rgb(74, 144, 226); stroke-opacity: 1; stroke-width: 2; fill: none; fill-opacity: 1;"/><g stroke="none" fill="rgb(74,144,226)" fill-opacity="1" transform="matrix(-1.8369701987210297e-16,-1,1,-1.8369701987210297e-16,80,153.66665649414062)" style="stroke: none; fill: rgb(74, 144, 226); stroke-width: 2;"><path d=" M11.61,-5.58 L0,0 L11.61,5.58 Z"/></g></g><g class="arrow-line"><path class="connection real" stroke-dasharray="" d="  M324,83.67 L324,151.67" style="stroke: rgb(74, 144, 226); stroke-opacity: 1; stroke-width: 2; fill: none; fill-opacity: 1;"/><g stroke="none" fill="rgb(74,144,226)" fill-opacity="1" transform="matrix(-1.8369701987210297e-16,-1,1,-1.8369701987210297e-16,324,155.66665649414062)" style="stroke: none; fill: rgb(74, 144, 226); stroke-width: 2;"><path d=" M11.61,-5.58 L0,0 L11.61,5.58 Z"/></g></g><g class="arrow-line"><path class="connection real" stroke-dasharray="" d="  M572,108.67 L572,151.67" style="stroke: rgb(74, 144, 226); stroke-opacity: 1; stroke-width: 2; fill: none; fill-opacity: 1;"/><g stroke="none" fill="rgb(74,144,226)" fill-opacity="1" transform="matrix(-1.8369701987210297e-16,-1,1,-1.8369701987210297e-16,572,155.66665649414062)" style="stroke: none; fill: rgb(74, 144, 226); stroke-width: 2;"><path d=" M11.61,-5.58 L0,0 L11.61,5.58 Z"/></g></g><g class="arrow-line"><path class="connection real" stroke-dasharray="" d="  M80,106.67 L572,108.67" style="stroke: rgb(74, 144, 226); stroke-opacity: 1; stroke-width: 2; fill: none; fill-opacity: 1;"/></g><g class="arrow-line"><path class="connection real" stroke-dasharray="" d="  M76,468 L575,466.58" style="stroke: rgb(245, 166, 35); stroke-opacity: 1; stroke-width: 2; fill: none; fill-opacity: 1;"/></g><g class="arrow-line"><path class="connection real" stroke-dasharray="" d="  M76,437 L76,468" style="stroke: rgb(245, 166, 35); stroke-opacity: 1; stroke-width: 2; fill: none; fill-opacity: 1;"/></g><g class="composite-shape"><path class="real" d=" M315,493.8 L319.5,493.8 L319.5,473 L328.5,473 L328.5,493.8 L333,493.8 L324,505 Z" style="stroke-width: 2; stroke: rgb(126, 211, 33); stroke-opacity: 1; fill: rgb(126, 211, 33); fill-opacity: 0.5;"/></g><g class="composite-shape"><path class="real" d=" M49.54,409.12 C49.54,393.96 61.84,381.67 77,381.67 C92.16,381.67 104.46,393.96 104.46,409.12 C104.46,424.29 92.16,436.58 77,436.58 C61.84,436.58 49.54,424.29 49.54,409.12 Z" style="stroke-width: 1; stroke: rgb(126, 211, 33); stroke-opacity: 1; fill: rgb(126, 211, 33); fill-opacity: 0.3;"/></g><g class="composite-shape"><path class="real" d=" M50,310.07 C50,305.06 54.06,301 59.07,301 L96.27,301 C101.27,301 105.33,305.06 105.33,310.07 L105.33,337.27 C105.33,342.27 101.27,346.33 96.27,346.33 L59.07,346.33 C54.06,346.33 50,342.27 50,337.27 Z" style="stroke-width: 1; stroke: rgb(245, 166, 35); stroke-opacity: 1; fill: rgb(245, 166, 35); fill-opacity: 0.3;"/></g><g class="arrow-line"><path class="connection real" stroke-dasharray="" d="  M77,345 L77,374" style="stroke: rgb(245, 166, 35); stroke-opacity: 1; stroke-width: 2; fill: none; fill-opacity: 1;"/><g stroke="none" fill="rgb(245,166,35)" fill-opacity="1" transform="matrix(-1.8369701987210297e-16,-1,1,-1.8369701987210297e-16,77,378)" style="stroke: none; fill: rgb(245, 166, 35); stroke-width: 2;"><path d=" M11.61,-5.58 L0,0 L11.61,5.58 Z"/></g></g><g class="arrow-line"><path class="connection real" stroke-dasharray="" d="  M338.33,386.33 L497.42,236.41" style="stroke: rgb(126, 211, 33); stroke-opacity: 1; stroke-width: 2; fill: none; fill-opacity: 1;"/><g stroke="none" fill="rgb(126,211,33)" fill-opacity="1" transform="matrix(-0.7277727576572096,0.6858183529273771,-0.6858183529273771,-0.7277727576572096,500.33331298828136,233.6666660308838)" style="stroke: none; fill: rgb(126, 211, 33); stroke-width: 2;"><path d=" M11.61,-5.58 L0,0 L11.61,5.58 Z"/></g></g><g class="arrow-line"><path class="connection real" stroke-dasharray="" d="  M323,266.67 L322.42,294.33" style="stroke: rgb(74, 144, 226); stroke-opacity: 1; stroke-width: 2; fill: none; fill-opacity: 1;"/><g stroke="none" fill="rgb(74,144,226)" fill-opacity="1" transform="matrix(0.021116914210743905,-0.9997770131055305,0.9997770131055305,0.021116914210743905,322.33331298828125,298.33333587646484)" style="stroke: none; fill: rgb(74, 144, 226); stroke-width: 2;"><path d=" M11.61,-5.58 L0,0 L11.61,5.58 Z"/></g></g><g class="composite-shape"><path class="real" d=" M294.54,408.12 C294.54,392.96 306.84,380.67 322,380.67 C337.16,380.67 349.46,392.96 349.46,408.12 C349.46,423.29 337.16,435.58 322,435.58 C306.84,435.58 294.54,423.29 294.54,408.12 Z" style="stroke-width: 1; stroke: rgb(126, 211, 33); stroke-opacity: 1; fill: rgb(126, 211, 33); fill-opacity: 0.3;"/></g><g class="composite-shape"><path class="real" d=" M295,309.07 C295,304.06 299.06,300 304.07,300 L341.27,300 C346.27,300 350.33,304.06 350.33,309.07 L350.33,336.27 C350.33,341.27 346.27,345.33 341.27,345.33 L304.07,345.33 C299.06,345.33 295,341.27 295,336.27 Z" style="stroke-width: 1; stroke: rgb(245, 166, 35); stroke-opacity: 1; fill: rgb(245, 166, 35); fill-opacity: 0.3;"/></g><g class="arrow-line"><path class="connection real" stroke-dasharray="" d="  M322,344 L322,373" style="stroke: rgb(245, 166, 35); stroke-opacity: 1; stroke-width: 2; fill: none; fill-opacity: 1;"/><g stroke="none" fill="rgb(245,166,35)" fill-opacity="1" transform="matrix(-1.8369701987210297e-16,-1,1,-1.8369701987210297e-16,322,376.99999999999994)" style="stroke: none; fill: rgb(245, 166, 35); stroke-width: 2;"><path d=" M11.61,-5.58 L0,0 L11.61,5.58 Z"/></g></g><g class="arrow-line"><path class="connection real" stroke-dasharray="" d="  M576,266.67 L575.42,294.33" style="stroke: rgb(74, 144, 226); stroke-opacity: 1; stroke-width: 2; fill: none; fill-opacity: 1;"/><g stroke="none" fill="rgb(74,144,226)" fill-opacity="1" transform="matrix(0.021116914210743905,-0.9997770131055305,0.9997770131055305,0.021116914210743905,575.3333129882812,298.33333587646484)" style="stroke: none; fill: rgb(74, 144, 226); stroke-width: 2;"><path d=" M11.61,-5.58 L0,0 L11.61,5.58 Z"/></g></g><g class="composite-shape"><path class="real" d=" M547.54,408.12 C547.54,392.96 559.84,380.67 575,380.67 C590.16,380.67 602.46,392.96 602.46,408.12 C602.46,423.29 590.16,435.58 575,435.58 C559.84,435.58 547.54,423.29 547.54,408.12 Z" style="stroke-width: 1; stroke: rgb(126, 211, 33); stroke-opacity: 1; fill: rgb(126, 211, 33); fill-opacity: 0.3;"/></g><g class="composite-shape"><path class="real" d=" M548,309.07 C548,304.06 552.06,300 557.07,300 L594.27,300 C599.27,300 603.33,304.06 603.33,309.07 L603.33,336.27 C603.33,341.27 599.27,345.33 594.27,345.33 L557.07,345.33 C552.06,345.33 548,341.27 548,336.27 Z" style="stroke-width: 1; stroke: rgb(245, 166, 35); stroke-opacity: 1; fill: rgb(245, 166, 35); fill-opacity: 0.3;"/></g><g class="arrow-line"><path class="connection real" stroke-dasharray="" d="  M575,344 L575,373" style="stroke: rgb(245, 166, 35); stroke-opacity: 1; stroke-width: 2; fill: none; fill-opacity: 1;"/><g stroke="none" fill="rgb(245,166,35)" fill-opacity="1" transform="matrix(-1.8369701987210297e-16,-1,1,-1.8369701987210297e-16,575,377)" style="stroke: none; fill: rgb(245, 166, 35); stroke-width: 2;"><path d=" M11.61,-5.58 L0,0 L11.61,5.58 Z"/></g></g><g class="arrow-line"><path class="connection real" stroke-dasharray="" d="  M322,435.58 L322,466.58" style="stroke: rgb(245, 166, 35); stroke-opacity: 1; stroke-width: 2; fill: none; fill-opacity: 1;"/></g><g class="arrow-line"><path class="connection real" stroke-dasharray="" d="  M575,435.58 L575,466.58" style="stroke: rgb(245, 166, 35); stroke-opacity: 1; stroke-width: 2; fill: none; fill-opacity: 1;"/></g><g/></g><g/><g><g><ellipse cx="323" cy="51.5" rx="107.48023074035521" ry="30.40559159102154" style="stroke: rgb(126, 211, 33); stroke-opacity: 1; stroke-width: 2; fill: none; fill-opacity: 1;"/></g><g><rect rx="0" ry="0" x="282" y="510.9333330154419" width="82" height="24" style="stroke: rgb(245, 166, 35); stroke-opacity: 1; stroke-width: 1; fill: rgb(245, 166, 35); fill-opacity: 0.3;"/></g></g><g/></svg>
        <svg xmlns="http://www.w3.org/2000/svg" xmlns:xlink="http://www.w3.org/1999/xlink" width="806" height="553.6666870117188" style="width:806px;height:553.6666870117188px;font-family:Asana-Math, Asana;background:#FFF;"><g><g><g><text x="165.66668701171875" y="186" style="white-space:pre;stroke:none;fill:rgb(0,0,0);fill-opacity:1;font-size:15px;font-family:Arial, Helvetica, sans-serif;font-weight:400;font-style:normal;dominant-baseline:text-before-edge;text-decoration:none solid rgb(0, 0, 0);">Increasing</text></g></g><g><g><text x="174.83331298828125" y="207" style="white-space:pre;stroke:none;fill:rgb(0,0,0);fill-opacity:1;font-size:15px;font-family:Arial, Helvetica, sans-serif;font-weight:400;font-style:normal;dominant-baseline:text-before-edge;text-decoration:none solid rgb(0, 0, 0);">weights</text></g></g></g><g><g><g><text x="420.66668701171875" y="188" style="white-space:pre;stroke:none;fill:rgb(0,0,0);fill-opacity:1;font-size:15px;font-family:Arial, Helvetica, sans-serif;font-weight:400;font-style:normal;dominant-baseline:text-before-edge;text-decoration:none solid rgb(0, 0, 0);">Increasing</text></g></g><g><g><text x="429.83331298828125" y="209" style="white-space:pre;stroke:none;fill:rgb(0,0,0);fill-opacity:1;font-size:15px;font-family:Arial, Helvetica, sans-serif;font-weight:400;font-style:normal;dominant-baseline:text-before-edge;text-decoration:none solid rgb(0, 0, 0);">weights</text></g></g></g><g><g><g><text x="265.63543701171875" y="31.666656494140625" style="white-space:pre;stroke:none;fill:rgb(0,0,0);fill-opacity:1;font-size:15px;font-family:Arial, Helvetica, sans-serif;font-weight:400;font-style:normal;dominant-baseline:text-before-edge;text-decoration:none solid rgb(0, 0, 0);">Training datasets</text></g></g><g><g><g><g><g><g transform="matrix(1,0,0,1,248.66668701171875,67)"><path transform="matrix(0.017,0,0,-0.017,0,0)" d="M730 103L704 86C675 67 653 56 643 56C636 56 630 65 630 76C630 86 632 95 637 116L712 413C716 430 719 446 719 454C719 471 709 482 693 482C664 482 626 464 565 421C502 376 467 341 418 272L448 409C452 429 455 444 455 451C455 470 445 482 429 482C399 482 353 460 298 418C254 384 234 363 169 275L202 408C206 424 208 439 208 451C208 470 199 482 185 482C164 482 126 461 52 408L24 388L31 368C68 391 103 414 110 414C121 414 128 404 128 389C128 338 87 145 46 2L49 -9L117 6L139 108C163 219 190 278 245 338C287 384 332 414 360 414C367 414 371 406 371 393C371 358 349 244 308 69L292 2L297 -9L366 6L387 113C403 194 437 269 481 318C536 379 586 414 618 414C626 414 631 405 631 389C631 365 628 351 606 264C566 105 550 84 550 31C550 6 561 -9 580 -9C606 -9 642 12 740 85Z" stroke="rgb(0,0,0)" stroke-opacity="1" stroke-width="8" fill="rgb(0,0,0)" fill-opacity="1"></path></g></g></g></g></g><g><text x="261.88543701171875" y="54" style="white-space:pre;stroke:none;fill:rgb(0,0,0);fill-opacity:1;font-size:15px;font-family:Arial, Helvetica, sans-serif;font-weight:400;font-style:normal;dominant-baseline:text-before-edge;text-decoration:none solid rgb(0, 0, 0);"> samples, </text></g><g><g><g><g><g transform="matrix(1,0,0,1,330.25,67)"><path transform="matrix(0.017,0,0,-0.017,0,0)" d="M483 722L471 733C419 707 383 698 311 691L307 670L355 670C379 670 389 663 389 646C389 638 388 629 387 622L359 468C329 477 302 482 277 482C208 482 114 410 68 323C37 265 17 170 17 86C17 21 32 -11 61 -11C88 -11 125 6 159 33C213 77 246 116 313 217L290 126C279 82 274 50 274 24C274 3 283 -9 300 -9C317 -9 341 3 375 28L456 88L446 107L402 76C388 66 372 59 363 59C355 59 349 68 349 82C349 90 350 99 357 128ZM114 59C98 59 89 73 89 98C89 224 135 380 184 418C197 428 216 433 243 433C287 433 316 427 349 410L337 351C300 171 159 59 114 59Z" stroke="rgb(0,0,0)" stroke-opacity="1" stroke-width="8" fill="rgb(0,0,0)" fill-opacity="1"></path></g></g></g></g></g><g><text x="338.73956298828125" y="54" style="white-space:pre;stroke:none;fill:rgb(0,0,0);fill-opacity:1;font-size:15px;font-family:Arial, Helvetica, sans-serif;font-weight:400;font-style:normal;dominant-baseline:text-before-edge;text-decoration:none solid rgb(0, 0, 0);"> features</text></g></g></g><g><g><g><text x="636.6666870117188" y="311.6666564941406" style="white-space:pre;stroke:none;fill:rgb(208,2,27);fill-opacity:1;font-size:15px;font-family:Arial, Helvetica, sans-serif;font-weight:400;font-style:normal;dominant-baseline:text-before-edge;text-decoration:none solid rgb(208, 2, 27);">Bootstrap sampling</text></g></g></g><g><g><g><text x="636.6666870117188" y="390.6666564941406" style="white-space:pre;stroke:none;fill:rgb(208,2,27);fill-opacity:1;font-size:15px;font-family:Arial, Helvetica, sans-serif;font-weight:400;font-style:normal;dominant-baseline:text-before-edge;text-decoration:none solid rgb(208, 2, 27);">Building weak classifier</text></g></g><g><g><text x="657.0729370117188" y="411.6666564941406" style="white-space:pre;stroke:none;fill:rgb(208,2,27);fill-opacity:1;font-size:15px;font-family:Arial, Helvetica, sans-serif;font-weight:400;font-style:normal;dominant-baseline:text-before-edge;text-decoration:none solid rgb(208, 2, 27);">one after another</text></g></g></g><g><g><g><text x="285.66668701171875" y="514.5937805175781" style="white-space:pre;stroke:none;fill:rgb(0,0,0);fill-opacity:1;font-size:15px;font-family:Arial, Helvetica, sans-serif;font-weight:400;font-style:normal;dominant-baseline:text-before-edge;text-decoration:none solid rgb(0, 0, 0);">Final-Class</text></g></g></g><g><g><g><g transform="matrix(1,0,0,1,82.86456298828125,458.4000305175781)"><path transform="matrix(0.020399999999999998,0,0,-0.020399999999999998,0,0)" d="M400 -16C446 -16 513 54 545 84L545 97L532 97C513 79 489 55 462 55C417 55 424 184 424 216C474 278 520 343 558 413C551 428 544 444 536 459L525 459C511 391 456 315 420 257C422 336 445 472 332 473C164 473 27 243 24 93C23 33 43 -16 111 -16C203 -16 297 64 357 131C357 96 348 -15 400 -16ZM284 437C371 437 358 224 357 164C314 113 233 28 162 28C109 28 98 70 99 115C100 202 175 437 284 437Z" stroke="rgb(0,0,0)" stroke-opacity="1" stroke-width="8" fill="rgb(0,0,0)" fill-opacity="1"></path></g></g><g><g><g><g><g transform="matrix(1,0,0,1,95.58331298828125,462.6654064941406)"><path transform="matrix(0.01428,0,0,-0.01428,0,0)" d="M418 -3L418 27L366 30C311 33 301 44 301 96L301 700L60 598L67 548L217 614L217 96C217 44 206 33 152 30L96 27L96 -3C250 0 250 0 261 0C292 0 402 -3 418 -3Z" stroke="rgb(0,0,0)" stroke-opacity="1" stroke-width="8" fill="rgb(0,0,0)" fill-opacity="1"></path></g></g></g></g></g></g></g><g><g><g><g transform="matrix(1,0,0,1,327.66668701171875,455.98334350585935)"><path transform="matrix(0.020399999999999998,0,0,-0.020399999999999998,0,0)" d="M400 -16C446 -16 513 54 545 84L545 97L532 97C513 79 489 55 462 55C417 55 424 184 424 216C474 278 520 343 558 413C551 428 544 444 536 459L525 459C511 391 456 315 420 257C422 336 445 472 332 473C164 473 27 243 24 93C23 33 43 -16 111 -16C203 -16 297 64 357 131C357 96 348 -15 400 -16ZM284 437C371 437 358 224 357 164C314 113 233 28 162 28C109 28 98 70 99 115C100 202 175 437 284 437Z" stroke="rgb(0,0,0)" stroke-opacity="1" stroke-width="8" fill="rgb(0,0,0)" fill-opacity="1"></path></g></g><g><g><g><g><g transform="matrix(1,0,0,1,340.38543701171875,460.2487805175781)"><path transform="matrix(0.01428,0,0,-0.01428,0,0)" d="M16 23L16 -3C203 -3 203 0 239 0C275 0 275 -3 468 -3L468 82C353 77 307 81 122 77L304 270C401 373 431 428 431 503C431 618 353 689 226 689C154 689 105 669 56 619L39 483L68 483L81 529C97 587 133 612 200 612C286 612 341 558 341 473C341 398 299 324 186 204Z" stroke="rgb(0,0,0)" stroke-opacity="1" stroke-width="8" fill="rgb(0,0,0)" fill-opacity="1"></path></g></g></g></g></g></g></g><g><g><g><g transform="matrix(1,0,0,1,581.8645629882812,455.4000305175781)"><path transform="matrix(0.020399999999999998,0,0,-0.020399999999999998,0,0)" d="M400 -16C446 -16 513 54 545 84L545 97L532 97C513 79 489 55 462 55C417 55 424 184 424 216C474 278 520 343 558 413C551 428 544 444 536 459L525 459C511 391 456 315 420 257C422 336 445 472 332 473C164 473 27 243 24 93C23 33 43 -16 111 -16C203 -16 297 64 357 131C357 96 348 -15 400 -16ZM284 437C371 437 358 224 357 164C314 113 233 28 162 28C109 28 98 70 99 115C100 202 175 437 284 437Z" stroke="rgb(0,0,0)" stroke-opacity="1" stroke-width="8" fill="rgb(0,0,0)" fill-opacity="1"></path></g></g><g><g><g><g><g transform="matrix(1,0,0,1,594.5833129882812,459.6654064941406)"><path transform="matrix(0.01428,0,0,-0.01428,0,0)" d="M462 224C462 345 355 366 308 374C388 436 418 482 418 541C418 630 344 689 233 689C165 689 120 670 72 622L43 498L74 498L92 554C103 588 166 622 218 622C283 622 336 569 336 506C336 431 277 368 206 368C198 368 187 369 174 370L159 371L147 318L154 312C192 329 211 334 238 334C321 334 369 281 369 190C369 88 308 21 215 21C169 21 128 36 98 64C74 86 61 109 42 163L15 153C36 92 44 56 50 6C103 -12 147 -20 184 -20C307 -20 462 87 462 224Z" stroke="rgb(0,0,0)" stroke-opacity="1" stroke-width="8" fill="rgb(0,0,0)" fill-opacity="1"></path></g></g></g></g></g></g></g><g><g><g><g transform="matrix(1,0,0,1,68.86456298828125,414.0666564941406)"><path transform="matrix(0.020399999999999998,0,0,-0.020399999999999998,0,0)" d="M236 722L224 733C179 711 138 697 64 691L60 670L108 670C126 670 142 667 142 647C142 641 142 632 140 622L98 388C78 272 36 80 10 2L17 -9L86 7C94 64 108 164 148 236C193 317 296 414 338 414C349 414 360 407 360 393C360 375 355 342 345 303L294 107C288 85 281 55 281 31C281 6 291 -9 312 -9C344 -9 412 41 471 85L461 103L435 86C412 71 386 56 374 56C367 56 361 65 361 76C361 88 364 101 368 116L432 372C438 398 443 423 443 447C443 464 437 482 411 482C376 482 299 437 231 374C198 343 172 308 144 273L140 275Z" stroke="rgb(0,0,0)" stroke-opacity="1" stroke-width="8" fill="rgb(0,0,0)" fill-opacity="1"></path></g></g><g><g><g><g><g transform="matrix(1,0,0,1,79.64581298828125,418.33209350585935)"><path transform="matrix(0.01428,0,0,-0.01428,0,0)" d="M418 -3L418 27L366 30C311 33 301 44 301 96L301 700L60 598L67 548L217 614L217 96C217 44 206 33 152 30L96 27L96 -3C250 0 250 0 261 0C292 0 402 -3 418 -3Z" stroke="rgb(0,0,0)" stroke-opacity="1" stroke-width="8" fill="rgb(0,0,0)" fill-opacity="1"></path></g></g></g></g></g></g></g><g><g><g><g transform="matrix(1,0,0,1,65.86456298828125,330.4)"><path transform="matrix(0.020399999999999998,0,0,-0.020399999999999998,0,0)" d="M316 -3C388 -3 437 8 489 34C645 114 741 265 741 431C741 529 711 599 650 642C604 675 519 693 424 692L220 689L210 689C201 689 198 689 97 692L94 664L147 662C171 661 182 653 182 635C182 621 178 589 173 559L86 55C81 31 56 29 33 23L28 -3L121 0L176 0C211 0 282 -3 316 -3ZM384 655C566 655 649 579 649 415C649 225 549 41 329 41C285 41 236 46 168 56C168 68 169 75 172 93L268 650C291 650 349 655 384 655Z" stroke="rgb(0,0,0)" stroke-opacity="1" stroke-width="8" fill="rgb(0,0,0)" fill-opacity="1"></path></g></g><g><g><g><g><g transform="matrix(1,0,0,1,82.32290649414062,334.6654064941406)"><path transform="matrix(0.01428,0,0,-0.01428,0,0)" d="M418 -3L418 27L366 30C311 33 301 44 301 96L301 700L60 598L67 548L217 614L217 96C217 44 206 33 152 30L96 27L96 -3C250 0 250 0 261 0C292 0 402 -3 418 -3Z" stroke="rgb(0,0,0)" stroke-opacity="1" stroke-width="8" fill="rgb(0,0,0)" fill-opacity="1"></path></g></g></g></g></g></g></g><g><g><g><text x="651.6666870117188" y="201.66665649414062" style="white-space:pre;stroke:none;fill:rgb(208,2,27);fill-opacity:1;font-size:15px;font-family:Arial, Helvetica, sans-serif;font-weight:400;font-style:normal;dominant-baseline:text-before-edge;text-decoration:none solid rgb(208, 2, 27);">Updating weights</text></g></g></g><g><g><g><g transform="matrix(1,0,0,1,313.86456298828125,413.0666564941406)"><path transform="matrix(0.020399999999999998,0,0,-0.020399999999999998,0,0)" d="M236 722L224 733C179 711 138 697 64 691L60 670L108 670C126 670 142 667 142 647C142 641 142 632 140 622L98 388C78 272 36 80 10 2L17 -9L86 7C94 64 108 164 148 236C193 317 296 414 338 414C349 414 360 407 360 393C360 375 355 342 345 303L294 107C288 85 281 55 281 31C281 6 291 -9 312 -9C344 -9 412 41 471 85L461 103L435 86C412 71 386 56 374 56C367 56 361 65 361 76C361 88 364 101 368 116L432 372C438 398 443 423 443 447C443 464 437 482 411 482C376 482 299 437 231 374C198 343 172 308 144 273L140 275Z" stroke="rgb(0,0,0)" stroke-opacity="1" stroke-width="8" fill="rgb(0,0,0)" fill-opacity="1"></path></g></g><g><g><g><g><g transform="matrix(1,0,0,1,324.64581298828125,417.33209350585935)"><path transform="matrix(0.01428,0,0,-0.01428,0,0)" d="M16 23L16 -3C203 -3 203 0 239 0C275 0 275 -3 468 -3L468 82C353 77 307 81 122 77L304 270C401 373 431 428 431 503C431 618 353 689 226 689C154 689 105 669 56 619L39 483L68 483L81 529C97 587 133 612 200 612C286 612 341 558 341 473C341 398 299 324 186 204Z" stroke="rgb(0,0,0)" stroke-opacity="1" stroke-width="8" fill="rgb(0,0,0)" fill-opacity="1"></path></g></g></g></g></g></g></g><g><g><g><g transform="matrix(1,0,0,1,310.86456298828125,329.4)"><path transform="matrix(0.020399999999999998,0,0,-0.020399999999999998,0,0)" d="M316 -3C388 -3 437 8 489 34C645 114 741 265 741 431C741 529 711 599 650 642C604 675 519 693 424 692L220 689L210 689C201 689 198 689 97 692L94 664L147 662C171 661 182 653 182 635C182 621 178 589 173 559L86 55C81 31 56 29 33 23L28 -3L121 0L176 0C211 0 282 -3 316 -3ZM384 655C566 655 649 579 649 415C649 225 549 41 329 41C285 41 236 46 168 56C168 68 169 75 172 93L268 650C291 650 349 655 384 655Z" stroke="rgb(0,0,0)" stroke-opacity="1" stroke-width="8" fill="rgb(0,0,0)" fill-opacity="1"></path></g></g><g><g><g><g><g transform="matrix(1,0,0,1,327.32293701171875,333.6654064941406)"><path transform="matrix(0.01428,0,0,-0.01428,0,0)" d="M16 23L16 -3C203 -3 203 0 239 0C275 0 275 -3 468 -3L468 82C353 77 307 81 122 77L304 270C401 373 431 428 431 503C431 618 353 689 226 689C154 689 105 669 56 619L39 483L68 483L81 529C97 587 133 612 200 612C286 612 341 558 341 473C341 398 299 324 186 204Z" stroke="rgb(0,0,0)" stroke-opacity="1" stroke-width="8" fill="rgb(0,0,0)" fill-opacity="1"></path></g></g></g></g></g></g></g><g><g><g><g transform="matrix(1,0,0,1,563.8645629882812,329.4)"><path transform="matrix(0.020399999999999998,0,0,-0.020399999999999998,0,0)" d="M316 -3C388 -3 437 8 489 34C645 114 741 265 741 431C741 529 711 599 650 642C604 675 519 693 424 692L220 689L210 689C201 689 198 689 97 692L94 664L147 662C171 661 182 653 182 635C182 621 178 589 173 559L86 55C81 31 56 29 33 23L28 -3L121 0L176 0C211 0 282 -3 316 -3ZM384 655C566 655 649 579 649 415C649 225 549 41 329 41C285 41 236 46 168 56C168 68 169 75 172 93L268 650C291 650 349 655 384 655Z" stroke="rgb(0,0,0)" stroke-opacity="1" stroke-width="8" fill="rgb(0,0,0)" fill-opacity="1"></path></g></g><g><g><g><g><g transform="matrix(1,0,0,1,580.3229370117188,333.6654064941406)"><path transform="matrix(0.01428,0,0,-0.01428,0,0)" d="M462 224C462 345 355 366 308 374C388 436 418 482 418 541C418 630 344 689 233 689C165 689 120 670 72 622L43 498L74 498L92 554C103 588 166 622 218 622C283 622 336 569 336 506C336 431 277 368 206 368C198 368 187 369 174 370L159 371L147 318L154 312C192 329 211 334 238 334C321 334 369 281 369 190C369 88 308 21 215 21C169 21 128 36 98 64C74 86 61 109 42 163L15 153C36 92 44 56 50 6C103 -12 147 -20 184 -20C307 -20 462 87 462 224Z" stroke="rgb(0,0,0)" stroke-opacity="1" stroke-width="8" fill="rgb(0,0,0)" fill-opacity="1"></path></g></g></g></g></g></g></g><g><g><g><g transform="matrix(1,0,0,1,566.8645629882812,415.0666564941406)"><path transform="matrix(0.020399999999999998,0,0,-0.020399999999999998,0,0)" d="M236 722L224 733C179 711 138 697 64 691L60 670L108 670C126 670 142 667 142 647C142 641 142 632 140 622L98 388C78 272 36 80 10 2L17 -9L86 7C94 64 108 164 148 236C193 317 296 414 338 414C349 414 360 407 360 393C360 375 355 342 345 303L294 107C288 85 281 55 281 31C281 6 291 -9 312 -9C344 -9 412 41 471 85L461 103L435 86C412 71 386 56 374 56C367 56 361 65 361 76C361 88 364 101 368 116L432 372C438 398 443 423 443 447C443 464 437 482 411 482C376 482 299 437 231 374C198 343 172 308 144 273L140 275Z" stroke="rgb(0,0,0)" stroke-opacity="1" stroke-width="8" fill="rgb(0,0,0)" fill-opacity="1"></path></g></g><g><g><g><g><g transform="matrix(1,0,0,1,577.6458129882812,419.33209350585935)"><path transform="matrix(0.01428,0,0,-0.01428,0,0)" d="M462 224C462 345 355 366 308 374C388 436 418 482 418 541C418 630 344 689 233 689C165 689 120 670 72 622L43 498L74 498L92 554C103 588 166 622 218 622C283 622 336 569 336 506C336 431 277 368 206 368C198 368 187 369 174 370L159 371L147 318L154 312C192 329 211 334 238 334C321 334 369 281 369 190C369 88 308 21 215 21C169 21 128 36 98 64C74 86 61 109 42 163L15 153C36 92 44 56 50 6C103 -12 147 -20 184 -20C307 -20 462 87 462 224Z" stroke="rgb(0,0,0)" stroke-opacity="1" stroke-width="8" fill="rgb(0,0,0)" fill-opacity="1"></path></g></g></g></g></g></g></g></svg>
</svg>
