<?xml version="1.0" encoding="UTF-8" standalone="no"?>
<svg
   x="0"
   y="0"
   width="450"
   height="380"
   style="fill:none"
   version="1.1"
   id="svg747"
   sodipodi:docname="GBDT-example.svg"
   inkscape:version="1.1.2 (b8e25be833, 2022-02-05)"
   xmlns:inkscape="http://www.inkscape.org/namespaces/inkscape"
   xmlns:sodipodi="http://sodipodi.sourceforge.net/DTD/sodipodi-0.dtd"
   xmlns="http://www.w3.org/2000/svg"
   xmlns:svg="http://www.w3.org/2000/svg">
  <defs
     id="defs751" />
  <sodipodi:namedview
     id="namedview749"
     pagecolor="#ffffff"
     bordercolor="#666666"
     borderopacity="1.0"
     inkscape:pageshadow="2"
     inkscape:pageopacity="0.0"
     inkscape:pagecheckerboard="0"
     showgrid="false"
     inkscape:zoom="1.1905941"
     inkscape:cx="404"
     inkscape:cy="189.82121"
     inkscape:window-width="1920"
     inkscape:window-height="986"
     inkscape:window-x="-11"
     inkscape:window-y="-11"
     inkscape:window-maximized="1"
     inkscape:current-layer="svg747" />
  <svg
     version="1.1"
     id="svg381"
     width="100%"
     height="100%" />
  <svg
     class="role-diagram-draw-area"
     version="1.1"
     id="svg509"
     width="100%"
     height="100%">
    <g
       class="shapes-region"
       style="fill:none;stroke:#000000"
       id="g501">
      <g
         class="composite-shape"
         id="g385">
        <path
           class="real"
           d="m 105,63.47 c 0,-3.39 2.75,-6.14 6.13,-6.14 h 40.74 c 3.38,0 6.13,2.75 6.13,6.14 v 18.4 c 0,3.38 -2.75,6.13 -6.13,6.13 H 111.13 C 107.75,88 105,85.25 105,81.87 Z"
           style="fill:#4a90e2;fill-opacity:0.8;stroke:none;stroke-width:1;stroke-opacity:1"
           id="path383" />
      </g>
      <g
         class="composite-shape"
         id="g389">
        <path
           class="real"
           d="m 229,72.83 c 0,-9.66 14.91,-17.5 33.31,-17.5 18.39,0 33.3,7.84 33.3,17.5 0,9.67 -14.91,17.5 -33.3,17.5 -18.4,0 -33.31,-7.83 -33.31,-17.5 z"
           style="fill:#f5a623;fill-opacity:1;stroke:none;stroke-width:1;stroke-opacity:1"
           id="path387" />
      </g>
      <g
         class="arrow-line"
         id="g397">
        <path
           class="connection real"
           stroke-dasharray="none"
           d="m 164,75 55,-0.93"
           style="fill:none;fill-opacity:1;stroke:#4a90e2;stroke-width:2;stroke-opacity:1"
           id="path391" />
        <g
           stroke="none"
           fill="rgb(74,144,226)"
           fill-opacity="1"
           transform="rotate(179.03,111.18679,37.943853)"
           style="fill:#4a90e2;stroke:none;stroke-width:2"
           id="g395">
          <path
             d="M 11.61,-5.58 0,0 11.61,5.58 Z"
             id="path393" />
        </g>
      </g>
      <g
         class="arrow-line"
         id="g405">
        <path
           class="connection real"
           stroke-dasharray="none"
           d="M 144.66,138.38 245,94"
           style="fill:none;fill-opacity:1;stroke:#7ed321;stroke-width:2;stroke-opacity:1"
           id="path399" />
        <g
           stroke="none"
           fill="rgb(126,211,33)"
           fill-opacity="1"
           transform="rotate(-23.86,401.81395,-263.68048)"
           style="fill:#7ed321;stroke:none;stroke-width:2"
           id="g403">
          <path
             d="M 11.61,-5.58 0,0 11.61,5.58 Z"
             id="path401" />
        </g>
      </g>
      <g
         class="arrow-line"
         id="g413">
        <path
           class="connection real"
           stroke-dasharray="none"
           d="m 131,92 v 44"
           style="fill:none;fill-opacity:1;stroke:#7ed321;stroke-width:2;stroke-opacity:1"
           id="path407" />
        <g
           stroke="none"
           fill="rgb(126,211,33)"
           fill-opacity="1"
           transform="rotate(-90,135.5,4.5)"
           style="fill:#7ed321;stroke:none;stroke-width:2"
           id="g411">
          <path
             d="M 11.61,-5.58 0,0 11.61,5.58 Z"
             id="path409" />
        </g>
      </g>
      <g
         class="composite-shape"
         id="g417">
        <path
           class="real"
           d="m 108,153.47 c 0,-3.39 2.75,-6.14 6.13,-6.14 h 40.74 c 3.38,0 6.13,2.75 6.13,6.14 v 18.4 c 0,3.38 -2.75,6.13 -6.13,6.13 h -40.74 c -3.38,0 -6.13,-2.75 -6.13,-6.13 z"
           style="fill:#4a90e2;fill-opacity:0.8;stroke:none;stroke-width:1;stroke-opacity:1"
           id="path415" />
      </g>
      <g
         class="composite-shape"
         id="g421">
        <path
           class="real"
           d="m 232,162.83 c 0,-9.66 14.91,-17.5 33.31,-17.5 18.39,0 33.3,7.84 33.3,17.5 0,9.67 -14.91,17.5 -33.3,17.5 -18.4,0 -33.31,-7.83 -33.31,-17.5 z"
           style="fill:#f5a623;fill-opacity:1;stroke:none;stroke-width:1;stroke-opacity:1"
           id="path419" />
      </g>
      <g
         class="arrow-line"
         id="g429">
        <path
           class="connection real"
           stroke-dasharray="none"
           d="m 167,165 55,-0.93"
           style="fill:none;fill-opacity:1;stroke:#4a90e2;stroke-width:2;stroke-opacity:1"
           id="path423" />
        <g
           stroke="none"
           fill="rgb(74,144,226)"
           fill-opacity="1"
           transform="rotate(179.03,112.30587,82.956551)"
           style="fill:#4a90e2;stroke:none;stroke-width:2"
           id="g427">
          <path
             d="M 11.61,-5.58 0,0 11.61,5.58 Z"
             id="path425" />
        </g>
      </g>
      <g
         class="arrow-line"
         id="g437">
        <path
           class="connection real"
           stroke-dasharray="none"
           d="M 147.66,228.38 248,184"
           style="fill:none;fill-opacity:1;stroke:#7ed321;stroke-width:2;stroke-opacity:1"
           id="path431" />
        <g
           stroke="none"
           fill="rgb(126,211,33)"
           fill-opacity="1"
           transform="rotate(-23.86,616.30149,-225.78007)"
           style="fill:#7ed321;stroke:none;stroke-width:2"
           id="g435">
          <path
             d="M 11.61,-5.58 0,0 11.61,5.58 Z"
             id="path433" />
        </g>
      </g>
      <g
         class="arrow-line"
         id="g445">
        <path
           class="connection real"
           stroke-dasharray="none"
           d="m 134,182 v 44"
           style="fill:none;fill-opacity:1;stroke:#7ed321;stroke-width:2;stroke-opacity:1"
           id="path439" />
        <g
           stroke="none"
           fill="rgb(126,211,33)"
           fill-opacity="1"
           transform="rotate(-90,182,48)"
           style="fill:#7ed321;stroke:none;stroke-width:2"
           id="g443">
          <path
             d="M 11.61,-5.58 0,0 11.61,5.58 Z"
             id="path441" />
        </g>
      </g>
      <g
         class="composite-shape"
         id="g449">
        <path
           class="real"
           d="m 106,242.47 c 0,-3.39 2.75,-6.14 6.13,-6.14 h 40.74 c 3.38,0 6.13,2.75 6.13,6.14 v 18.4 c 0,3.38 -2.75,6.13 -6.13,6.13 h -40.74 c -3.38,0 -6.13,-2.75 -6.13,-6.13 z"
           style="fill:#4a90e2;fill-opacity:0.8;stroke:none;stroke-width:1;stroke-opacity:1"
           id="path447" />
      </g>
      <g
         class="composite-shape"
         id="g453">
        <path
           class="real"
           d="m 230,251.83 c 0,-9.66 14.91,-17.5 33.31,-17.5 18.39,0 33.3,7.84 33.3,17.5 0,9.67 -14.91,17.5 -33.3,17.5 -18.4,0 -33.31,-7.83 -33.31,-17.5 z"
           style="fill:#f5a623;fill-opacity:1;stroke:none;stroke-width:1;stroke-opacity:1"
           id="path451" />
      </g>
      <g
         class="arrow-line"
         id="g461">
        <path
           class="connection real"
           stroke-dasharray="none"
           d="m 165,254 55,-0.93"
           style="fill:none;fill-opacity:1;stroke:#4a90e2;stroke-width:2;stroke-opacity:1"
           id="path455" />
        <g
           stroke="none"
           fill="rgb(74,144,226)"
           fill-opacity="1"
           transform="rotate(179.03,110.92917,127.44809)"
           style="fill:#4a90e2;stroke:none;stroke-width:2"
           id="g459">
          <path
             d="M 11.61,-5.58 0,0 11.61,5.58 Z"
             id="path457" />
        </g>
      </g>
      <g
         class="arrow-line"
         id="g469">
        <path
           class="connection real"
           stroke-dasharray="none"
           d="M 145.66,317.38 246,273"
           style="fill:none;fill-opacity:1;stroke:#7ed321;stroke-width:2;stroke-opacity:1"
           id="path463" />
        <g
           stroke="none"
           fill="rgb(126,211,33)"
           fill-opacity="1"
           transform="rotate(-23.86,825.92251,-176.54701)"
           style="fill:#7ed321;stroke:none;stroke-width:2"
           id="g467">
          <path
             d="M 11.61,-5.58 0,0 11.61,5.58 Z"
             id="path465" />
        </g>
      </g>
      <g
         class="arrow-line"
         id="g477">
        <path
           class="connection real"
           stroke-dasharray="none"
           d="m 132,271 v 44"
           style="fill:none;fill-opacity:1;stroke:#7ed321;stroke-width:2;stroke-opacity:1"
           id="path471" />
        <g
           stroke="none"
           fill="rgb(126,211,33)"
           fill-opacity="1"
           transform="rotate(-90,225.5,93.5)"
           style="fill:#7ed321;stroke:none;stroke-width:2"
           id="g475">
          <path
             d="M 11.61,-5.58 0,0 11.61,5.58 Z"
             id="path473" />
        </g>
      </g>
      <g
         class="composite-shape"
         id="g481">
        <path
           class="real"
           d="m 109,332.47 c 0,-3.39 2.75,-6.14 6.13,-6.14 h 40.74 c 3.38,0 6.13,2.75 6.13,6.14 v 18.4 c 0,3.38 -2.75,6.13 -6.13,6.13 h -40.74 c -3.38,0 -6.13,-2.75 -6.13,-6.13 z"
           style="fill:#4a90e2;fill-opacity:0.8;stroke:none;stroke-width:1;stroke-opacity:1"
           id="path479" />
      </g>
      <g
         class="composite-shape"
         id="g485">
        <path
           class="real"
           d="m 233,341.83 c 0,-9.66 14.91,-17.5 33.31,-17.5 18.39,0 33.3,7.84 33.3,17.5 0,9.67 -14.91,17.5 -33.3,17.5 -18.4,0 -33.31,-7.83 -33.31,-17.5 z"
           style="fill:#f5a623;fill-opacity:1;stroke:none;stroke-width:1;stroke-opacity:1"
           id="path483" />
      </g>
      <g
         class="arrow-line"
         id="g493">
        <path
           class="connection real"
           stroke-dasharray="none"
           d="m 168,344 55,-0.93"
           style="fill:none;fill-opacity:1;stroke:#4a90e2;stroke-width:2;stroke-opacity:1"
           id="path487" />
        <g
           stroke="none"
           fill="rgb(74,144,226)"
           fill-opacity="1"
           transform="rotate(179.03,112.04824,172.46078)"
           style="fill:#4a90e2;stroke:none;stroke-width:2"
           id="g491">
          <path
             d="M 11.61,-5.58 0,0 11.61,5.58 Z"
             id="path489" />
        </g>
      </g>
      <g
         class="composite-shape"
         id="g497">
        <path
           class="real"
           d="m 319,342 q 7,0 7,-7 V 215.5 q 0,-10 7,-10 -7,0 -7,-10 m 0,3 V 76 q 0,-7 -7,-7"
           style="fill:none;fill-opacity:1;stroke:#f5a623;stroke-width:2;stroke-opacity:1"
           id="path495" />
      </g>
      <g
         id="g499" />
    </g>
    <g
       id="g503" />
    <g
       id="g505" />
    <g
       id="g507" />
  </svg>
  <svg
     width="806"
     height="378"
     style="font-family:Asana-Math, Asana"
     version="1.1"
     id="svg745">
    <g
       id="g523">
      <g
         id="g515">
        <g
           id="g513">
          <text
             x="29.072937"
             y="52"
             style="font-style:normal;font-weight:400;font-size:15px;font-family:Arial, Helvetica, sans-serif;text-decoration:none;text-decoration-line:none;text-decoration-style:solid;text-decoration-color:#000000;dominant-baseline:text-before-edge;white-space:pre;fill:#000000;fill-opacity:1;stroke:none"
             id="text511">Weak</text>
        </g>
      </g>
      <g
         id="g521">
        <g
           id="g519">
          <text
             x="16"
             y="73"
             style="font-style:normal;font-weight:400;font-size:15px;font-family:Arial, Helvetica, sans-serif;text-decoration:none;text-decoration-line:none;text-decoration-style:solid;text-decoration-color:#000000;dominant-baseline:text-before-edge;white-space:pre;fill:#000000;fill-opacity:1;stroke:none"
             id="text517">Learner 1</text>
        </g>
      </g>
    </g>
    <g
       id="g543">
      <g
         id="g541">
        <g
           id="g527">
          <text
             x="111"
             y="19"
             style="font-style:normal;font-weight:400;font-size:18px;font-family:Arial, Helvetica, sans-serif;text-decoration:none;text-decoration-line:none;text-decoration-style:solid;text-decoration-color:#000000;dominant-baseline:text-before-edge;white-space:pre;fill:#000000;fill-opacity:1;stroke:none"
             id="text525">label </text>
        </g>
        <g
           id="g539">
          <g
             id="g537">
            <g
               id="g535">
              <g
                 id="g533">
                <g
                   transform="translate(154.03125,34.733328)"
                   id="g531">
                  <path
                     transform="scale(0.0204,-0.0204)"
                     d="m -7,-180 c -1,-7 -1,-13 -1,-18 0,-43 37,-78 82,-78 106,0 216,124 275,309 l 141,440 -11,9 C 450,471 427,465 405,463 L 370,331 C 358,284 323,211 290,162 255,111 206,67 184,67 c -12,0 -21,23 -20,48 l 16,207 c 2,31 4,69 4,97 0,45 -7,63 -24,63 -13,0 -27,-7 -75,-40 L 3,386 14,368 64,398 c 5,3 16,12 25,12 14,0 22,-19 22,-52 0,-1 0,-7 -1,-15 L 93,100 92,60 c 0,-42 18,-71 43,-71 37,0 121,85 196,198 L 282,16 c -51,-177 -101,-250 -171,-250 -35,0 -62,27 -62,62 0,5 1,13 2,22 l -10,4 z"
                     stroke="#000000"
                     stroke-opacity="1"
                     stroke-width="8"
                     fill="#000000"
                     fill-opacity="1"
                     id="path529" />
                </g>
              </g>
            </g>
          </g>
        </g>
      </g>
    </g>
    <g
       id="g573">
      <g
         id="g571">
        <g
           id="g547">
          <text
             x="244"
             y="19"
             style="font-style:normal;font-weight:400;font-size:18px;font-family:Arial, Helvetica, sans-serif;text-decoration:none;text-decoration-line:none;text-decoration-style:solid;text-decoration-color:#000000;dominant-baseline:text-before-edge;white-space:pre;fill:#000000;fill-opacity:1;stroke:none"
             id="text545">pred </text>
        </g>
        <g
           id="g569">
          <g
             id="g567">
            <g
               id="g565">
              <g
                 id="g563">
                <g
                   id="g557">
                  <g
                     id="g555">
                    <g
                       id="g553">
                      <g
                         transform="translate(285.03125,34.733328)"
                         id="g551">
                        <path
                           transform="scale(0.0204,-0.0204)"
                           d="m -7,-180 c -1,-7 -1,-13 -1,-18 0,-43 37,-78 82,-78 106,0 216,124 275,309 l 141,440 -11,9 C 450,471 427,465 405,463 L 370,331 C 358,284 323,211 290,162 255,111 206,67 184,67 c -12,0 -21,23 -20,48 l 16,207 c 2,31 4,69 4,97 0,45 -7,63 -24,63 -13,0 -27,-7 -75,-40 L 3,386 14,368 64,398 c 5,3 16,12 25,12 14,0 22,-19 22,-52 0,-1 0,-7 -1,-15 L 93,100 92,60 c 0,-42 18,-71 43,-71 37,0 121,85 196,198 L 282,16 c -51,-177 -101,-250 -171,-250 -35,0 -62,27 -62,62 0,5 1,13 2,22 l -10,4 z"
                           stroke="#000000"
                           stroke-opacity="1"
                           stroke-width="8"
                           fill="#000000"
                           fill-opacity="1"
                           id="path549" />
                      </g>
                    </g>
                  </g>
                </g>
                <svg
                   x="285.03125"
                   overflow="visible"
                   y="13"
                   height="9.989584"
                   width="10.177084"
                   version="1.1"
                   id="svg561">
                  <polyline
                     points="0.00,8.86 5.09,5.46 10.18,8.86"
                     style="fill:none;fill-opacity:1;stroke:#000000;stroke-width:1px;stroke-opacity:1"
                     id="polyline559" />
                </svg>
              </g>
            </g>
          </g>
        </g>
      </g>
    </g>
    <g
       id="g581">
      <g
         id="g579">
        <g
           id="g577">
          <text
             x="114"
             y="65.333328"
             style="font-style:normal;font-weight:400;font-size:15px;font-family:Arial, Helvetica, sans-serif;text-decoration:none;text-decoration-line:none;text-decoration-style:solid;text-decoration-color:#000000;dominant-baseline:text-before-edge;white-space:pre;fill:#ffffff;fill-opacity:1;stroke:none"
             id="text575">30 岁</text>
        </g>
      </g>
    </g>
    <g
       id="g589">
      <g
         id="g587">
        <g
           id="g585">
          <text
             x="244"
             y="65.333328"
             style="font-style:normal;font-weight:400;font-size:15px;font-family:Arial, Helvetica, sans-serif;text-decoration:none;text-decoration-line:none;text-decoration-style:solid;text-decoration-color:#000000;dominant-baseline:text-before-edge;white-space:pre;fill:#ffffff;fill-opacity:1;stroke:none"
             id="text583">20 岁</text>
        </g>
      </g>
    </g>
    <g
       id="g597">
      <g
         id="g595">
        <g
           id="g593">
          <text
             x="172"
             y="47"
             style="font-style:normal;font-weight:400;font-size:15px;font-family:Arial, Helvetica, sans-serif;text-decoration:none;text-decoration-line:none;text-decoration-style:solid;text-decoration-color:#000000;dominant-baseline:text-before-edge;white-space:pre;fill:#000000;fill-opacity:1;stroke:none"
             id="text591">预测</text>
        </g>
      </g>
    </g>
    <g
       id="g605">
      <g
         id="g603">
        <g
           id="g601">
          <text
             x="134"
             y="101"
             style="font-style:normal;font-weight:400;font-size:15px;font-family:Arial, Helvetica, sans-serif;text-decoration:none;text-decoration-line:none;text-decoration-style:solid;text-decoration-color:#000000;dominant-baseline:text-before-edge;white-space:pre;fill:#000000;fill-opacity:1;stroke:none"
             id="text599">计算残差</text>
        </g>
      </g>
    </g>
    <g
       id="g613">
      <g
         id="g611">
        <g
           id="g609">
          <text
             x="117"
             y="155.33334"
             style="font-style:normal;font-weight:400;font-size:15px;font-family:Arial, Helvetica, sans-serif;text-decoration:none;text-decoration-line:none;text-decoration-style:solid;text-decoration-color:#000000;dominant-baseline:text-before-edge;white-space:pre;fill:#ffffff;fill-opacity:1;stroke:none"
             id="text607">10 岁</text>
        </g>
      </g>
    </g>
    <g
       id="g621">
      <g
         id="g619">
        <g
           id="g617">
          <text
             x="251"
             y="155.33334"
             style="font-style:normal;font-weight:400;font-size:15px;font-family:Arial, Helvetica, sans-serif;text-decoration:none;text-decoration-line:none;text-decoration-style:solid;text-decoration-color:#000000;dominant-baseline:text-before-edge;white-space:pre;fill:#ffffff;fill-opacity:1;stroke:none"
             id="text615">6 岁</text>
        </g>
      </g>
    </g>
    <g
       id="g629">
      <g
         id="g627">
        <g
           id="g625">
          <text
             x="175"
             y="137"
             style="font-style:normal;font-weight:400;font-size:15px;font-family:Arial, Helvetica, sans-serif;text-decoration:none;text-decoration-line:none;text-decoration-style:solid;text-decoration-color:#000000;dominant-baseline:text-before-edge;white-space:pre;fill:#000000;fill-opacity:1;stroke:none"
             id="text623">预测</text>
        </g>
      </g>
    </g>
    <g
       id="g637">
      <g
         id="g635">
        <g
           id="g633">
          <text
             x="137"
             y="191"
             style="font-style:normal;font-weight:400;font-size:15px;font-family:Arial, Helvetica, sans-serif;text-decoration:none;text-decoration-line:none;text-decoration-style:solid;text-decoration-color:#000000;dominant-baseline:text-before-edge;white-space:pre;fill:#000000;fill-opacity:1;stroke:none"
             id="text631">计算残差</text>
        </g>
      </g>
    </g>
    <g
       id="g645">
      <g
         id="g643">
        <g
           id="g641">
          <text
             x="119"
             y="244.33334"
             style="font-style:normal;font-weight:400;font-size:15px;font-family:Arial, Helvetica, sans-serif;text-decoration:none;text-decoration-line:none;text-decoration-style:solid;text-decoration-color:#000000;dominant-baseline:text-before-edge;white-space:pre;fill:#ffffff;fill-opacity:1;stroke:none"
             id="text639">4 岁</text>
        </g>
      </g>
    </g>
    <g
       id="g653">
      <g
         id="g651">
        <g
           id="g649">
          <text
             x="251"
             y="244.33334"
             style="font-style:normal;font-weight:400;font-size:15px;font-family:Arial, Helvetica, sans-serif;text-decoration:none;text-decoration-line:none;text-decoration-style:solid;text-decoration-color:#000000;dominant-baseline:text-before-edge;white-space:pre;fill:#ffffff;fill-opacity:1;stroke:none"
             id="text647">3 岁</text>
        </g>
      </g>
    </g>
    <g
       id="g661">
      <g
         id="g659">
        <g
           id="g657">
          <text
             x="173"
             y="226"
             style="font-style:normal;font-weight:400;font-size:15px;font-family:Arial, Helvetica, sans-serif;text-decoration:none;text-decoration-line:none;text-decoration-style:solid;text-decoration-color:#000000;dominant-baseline:text-before-edge;white-space:pre;fill:#000000;fill-opacity:1;stroke:none"
             id="text655">预测</text>
        </g>
      </g>
    </g>
    <g
       id="g669">
      <g
         id="g667">
        <g
           id="g665">
          <text
             x="135"
             y="280"
             style="font-style:normal;font-weight:400;font-size:15px;font-family:Arial, Helvetica, sans-serif;text-decoration:none;text-decoration-line:none;text-decoration-style:solid;text-decoration-color:#000000;dominant-baseline:text-before-edge;white-space:pre;fill:#000000;fill-opacity:1;stroke:none"
             id="text663">计算残差</text>
        </g>
      </g>
    </g>
    <g
       id="g677">
      <g
         id="g675">
        <g
           id="g673">
          <text
             x="123"
             y="334.33334"
             style="font-style:normal;font-weight:400;font-size:15px;font-family:Arial, Helvetica, sans-serif;text-decoration:none;text-decoration-line:none;text-decoration-style:solid;text-decoration-color:#000000;dominant-baseline:text-before-edge;white-space:pre;fill:#ffffff;fill-opacity:1;stroke:none"
             id="text671">1 岁</text>
        </g>
      </g>
    </g>
    <g
       id="g685">
      <g
         id="g683">
        <g
           id="g681">
          <text
             x="252"
             y="334.33334"
             style="font-style:normal;font-weight:400;font-size:15px;font-family:Arial, Helvetica, sans-serif;text-decoration:none;text-decoration-line:none;text-decoration-style:solid;text-decoration-color:#000000;dominant-baseline:text-before-edge;white-space:pre;fill:#ffffff;fill-opacity:1;stroke:none"
             id="text679">1 岁</text>
        </g>
      </g>
    </g>
    <g
       id="g693">
      <g
         id="g691">
        <g
           id="g689">
          <text
             x="176"
             y="316"
             style="font-style:normal;font-weight:400;font-size:15px;font-family:Arial, Helvetica, sans-serif;text-decoration:none;text-decoration-line:none;text-decoration-style:solid;text-decoration-color:#000000;dominant-baseline:text-before-edge;white-space:pre;fill:#000000;fill-opacity:1;stroke:none"
             id="text687">预测</text>
        </g>
      </g>
    </g>
    <g
       id="g707">
      <g
         id="g699">
        <g
           id="g697">
          <text
             x="29.072937"
             y="144"
             style="font-style:normal;font-weight:400;font-size:15px;font-family:Arial, Helvetica, sans-serif;text-decoration:none;text-decoration-line:none;text-decoration-style:solid;text-decoration-color:#000000;dominant-baseline:text-before-edge;white-space:pre;fill:#000000;fill-opacity:1;stroke:none"
             id="text695">Weak</text>
        </g>
      </g>
      <g
         id="g705">
        <g
           id="g703">
          <text
             x="16"
             y="165"
             style="font-style:normal;font-weight:400;font-size:15px;font-family:Arial, Helvetica, sans-serif;text-decoration:none;text-decoration-line:none;text-decoration-style:solid;text-decoration-color:#000000;dominant-baseline:text-before-edge;white-space:pre;fill:#000000;fill-opacity:1;stroke:none"
             id="text701">Learner 2</text>
        </g>
      </g>
    </g>
    <g
       id="g721">
      <g
         id="g713">
        <g
           id="g711">
          <text
             x="32.072937"
             y="232"
             style="font-style:normal;font-weight:400;font-size:15px;font-family:Arial, Helvetica, sans-serif;text-decoration:none;text-decoration-line:none;text-decoration-style:solid;text-decoration-color:#000000;dominant-baseline:text-before-edge;white-space:pre;fill:#000000;fill-opacity:1;stroke:none"
             id="text709">Weak</text>
        </g>
      </g>
      <g
         id="g719">
        <g
           id="g717">
          <text
             x="19"
             y="253"
             style="font-style:normal;font-weight:400;font-size:15px;font-family:Arial, Helvetica, sans-serif;text-decoration:none;text-decoration-line:none;text-decoration-style:solid;text-decoration-color:#000000;dominant-baseline:text-before-edge;white-space:pre;fill:#000000;fill-opacity:1;stroke:none"
             id="text715">Learner 3</text>
        </g>
      </g>
    </g>
    <g
       id="g735">
      <g
         id="g727">
        <g
           id="g725">
          <text
             x="33.072937"
             y="317"
             style="font-style:normal;font-weight:400;font-size:15px;font-family:Arial, Helvetica, sans-serif;text-decoration:none;text-decoration-line:none;text-decoration-style:solid;text-decoration-color:#000000;dominant-baseline:text-before-edge;white-space:pre;fill:#000000;fill-opacity:1;stroke:none"
             id="text723">Weak</text>
        </g>
      </g>
      <g
         id="g733">
        <g
           id="g731">
          <text
             x="20"
             y="338"
             style="font-style:normal;font-weight:400;font-size:15px;font-family:Arial, Helvetica, sans-serif;text-decoration:none;text-decoration-line:none;text-decoration-style:solid;text-decoration-color:#000000;dominant-baseline:text-before-edge;white-space:pre;fill:#000000;fill-opacity:1;stroke:none"
             id="text729">Learner 4</text>
        </g>
      </g>
    </g>
    <g
       id="g743">
      <g
         id="g741">
        <g
           id="g739">
          <text
             x="341"
             y="198.33334"
             style="font-style:normal;font-weight:400;font-size:15px;font-family:Arial, Helvetica, sans-serif;text-decoration:none;text-decoration-line:none;text-decoration-style:solid;text-decoration-color:#000000;dominant-baseline:text-before-edge;white-space:pre;fill:#d0021b;fill-opacity:1;stroke:none"
             id="text737">20+6+3+1=30</text>
        </g>
      </g>
    </g>
  </svg>
</svg>
