<?xml version="1.0" encoding="UTF-8" standalone="no"?>
<svg
   x="0"
   y="0"
   width="600"
   height="532.66669"
   style="fill:none"
   version="1.1"
   id="svg1583"
   sodipodi:docname="GBDT_cost_function.svg"
   inkscape:version="1.1.2 (b8e25be833, 2022-02-05)"
   xmlns:inkscape="http://www.inkscape.org/namespaces/inkscape"
   xmlns:sodipodi="http://sodipodi.sourceforge.net/DTD/sodipodi-0.dtd"
   xmlns="http://www.w3.org/2000/svg"
   xmlns:svg="http://www.w3.org/2000/svg">
  <defs
     id="defs1587" />
  <sodipodi:namedview
     id="namedview1585"
     pagecolor="#ffffff"
     bordercolor="#666666"
     borderopacity="1.0"
     inkscape:pageshadow="2"
     inkscape:pageopacity="0.0"
     inkscape:pagecheckerboard="0"
     showgrid="false"
     inkscape:zoom="1.1915771"
     inkscape:cx="403.66669"
     inkscape:cy="266.03397"
     inkscape:window-width="1920"
     inkscape:window-height="986"
     inkscape:window-x="-11"
     inkscape:window-y="-11"
     inkscape:window-maximized="1"
     inkscape:current-layer="svg1583" />
  <svg
     version="1.1"
     id="svg799"
     width="100%"
     height="100%" />
  <svg
     class="role-diagram-draw-area"
     version="1.1"
     id="svg863"
     width="100%"
     height="100%">
    <g
       class="shapes-region"
       style="fill:none;stroke:#000000"
       id="g855">
      <g
         class="arrow-line"
         id="g807">
        <path
           class="connection real"
           stroke-dasharray="none"
           d="m 136.33,196.67 83,-2.58"
           style="fill:none;fill-opacity:1;stroke:#000000;stroke-width:1"
           id="path801" />
        <g
           stroke="none"
           transform="rotate(178.22,109.65979,98.726938)"
           style="fill:#000000;stroke:none;stroke-width:1"
           fill="#000"
           id="g805">
          <path
             d="M 8.93,-4.29 0,0 8.93,4.29 Z"
             id="path803" />
        </g>
      </g>
      <g
         class="shape"
         id="g811">
        <path
           class="real"
           d="m 159.33,111.67 c 36,-50 188.54,-84.03 302.27,25.48 113.73,109.52 59.73,146.52 27.73,221.52 -32,75 -239.67,87.91 -300.23,-15.23 C 128.54,240.29 123.33,161.67 159.33,111.67 Z"
           style="fill:none;fill-opacity:1;stroke:#000000;stroke-width:1"
           id="path809" />
      </g>
      <g
         class="composite-shape"
         id="g815">
        <path
           class="real"
           d="m 255.68,190.19 c 39.14,-25.24 97.19,-72.34 176.11,0 78.92,72.33 22.18,94.2 0,151.4 -22.18,57.2 -136.97,75.7 -176.11,0 -39.13,-75.7 -39.13,-126.17 0,-151.4 z"
           style="fill:none;fill-opacity:1;stroke:#000000;stroke-width:1"
           id="path813" />
      </g>
      <g
         class="composite-shape"
         id="g819">
        <path
           class="real"
           d="m 302.47,260.17 c 24.18,-14.08 60.05,-40.38 108.81,0 48.77,40.39 13.71,52.6 0,84.54 -13.7,31.93 -84.63,42.26 -108.81,0 -24.18,-42.27 -24.18,-70.45 0,-84.54 z"
           style="fill:none;fill-opacity:1;stroke:#000000;stroke-width:1"
           id="path817" />
      </g>
      <g
         class="composite-shape"
         id="g823">
        <path
           class="real"
           d="m 367.92,291.3 c 11.49,-0.59 30.27,-3.73 31.22,23.99 0.95,27.72 -13.05,25.12 -27.3,35.51 -14.24,10.4 -37.93,-0.91 -31.21,-23.99 6.71,-23.09 15.81,-34.93 27.29,-35.51 z"
           style="fill:none;fill-opacity:1;stroke:#000000;stroke-width:1"
           id="path821" />
      </g>
      <g
         class="composite-shape"
         id="g827">
        <path
           class="real"
           d="m 90.33,62 h 449 v 376.67 h -449 z"
           style="fill:none;fill-opacity:1;stroke:#000000;stroke-width:1"
           id="path825" />
      </g>
      <g
         class="composite-shape"
         id="g831">
        <path
           class="real"
           d="m 364,320.83 c 0,-3.4 2.76,-6.16 6.17,-6.16 3.4,0 6.16,2.76 6.16,6.16 0,3.41 -2.76,6.17 -6.16,6.17 -3.41,0 -6.17,-2.76 -6.17,-6.17 z"
           style="fill:none;fill-opacity:1;stroke:#d0021b;stroke-width:6;stroke-opacity:1"
           id="path829" />
      </g>
      <g
         class="arrow-line"
         id="g835">
        <path
           class="connection real"
           stroke-dasharray="6, 6"
           d="M 89.33,317.67 364,320.83"
           style="fill:none;fill-opacity:1;stroke:#000000;stroke-width:1"
           id="path833" />
      </g>
      <g
         class="arrow-line"
         id="g839">
        <path
           class="connection real"
           stroke-dasharray="6, 6"
           d="M 369.33,437.67 370.17,327"
           style="fill:none;fill-opacity:1;stroke:#000000;stroke-width:1"
           id="path837" />
      </g>
      <g
         class="arrow-line"
         id="g843">
        <path
           class="connection real"
           stroke-dasharray="6, 6"
           d="m 89.33,195.67 47,1"
           style="fill:none;fill-opacity:1;stroke:#000000;stroke-width:1"
           id="path841" />
      </g>
      <g
         class="arrow-line"
         id="g847">
        <path
           class="connection real"
           stroke-dasharray="6, 6"
           d="m 137.33,438.33 -1,-241.66"
           style="fill:none;fill-opacity:1;stroke:#000000;stroke-width:1"
           id="path845" />
      </g>
      <g
         class="composite-shape"
         id="g851">
        <path
           class="real"
           d="m 130.17,196.67 c 0,-3.41 2.76,-6.17 6.16,-6.17 3.41,0 6.17,2.76 6.17,6.17 0,3.4 -2.76,6.16 -6.17,6.16 -3.4,0 -6.16,-2.76 -6.16,-6.16 z"
           style="fill:#f5a623;fill-opacity:1;stroke:none;stroke-width:6;stroke-opacity:1"
           id="path849" />
      </g>
      <g
         id="g853" />
    </g>
    <g
       id="g857" />
    <g
       id="g859" />
    <g
       id="g861" />
  </svg>
  <svg
     width="806"
     height="531.33337"
     style="font-family:Asana-Math, Asana"
     version="1.1"
     id="svg1581">
    <g
       id="g885">
      <g
         id="g883">
        <g
           id="g869">
          <g
             transform="translate(57.666656,319.4)"
             id="g867">
            <path
               transform="scale(0.0204,-0.0204)"
               d="m -7,-180 c -1,-7 -1,-13 -1,-18 0,-43 37,-78 82,-78 106,0 216,124 275,309 l 141,440 -11,9 C 450,471 427,465 405,463 L 370,331 C 358,284 323,211 290,162 255,111 206,67 184,67 c -12,0 -21,23 -20,48 l 16,207 c 2,31 4,69 4,97 0,45 -7,63 -24,63 -13,0 -27,-7 -75,-40 L 3,386 14,368 64,398 c 5,3 16,12 25,12 14,0 22,-19 22,-52 0,-1 0,-7 -1,-15 L 93,100 92,60 c 0,-42 18,-71 43,-71 37,0 121,85 196,198 L 282,16 c -51,-177 -101,-250 -171,-250 -35,0 -62,27 -62,62 0,5 1,13 2,22 l -10,4 z"
               stroke="#000000"
               stroke-opacity="1"
               stroke-width="8"
               fill="#000000"
               fill-opacity="1"
               id="path865" />
          </g>
        </g>
        <g
           id="g881">
          <g
             id="g879">
            <g
               id="g877">
              <g
                 id="g875">
                <g
                   transform="translate(68.447906,323.66544)"
                   id="g873">
                  <path
                     transform="scale(0.01428,-0.01428)"
                     d="M 16,23 V -3 c 187,0 187,3 223,3 36,0 36,-3 229,-3 V 82 C 353,77 307,81 122,77 l 182,193 c 97,103 127,158 127,233 0,115 -78,186 -205,186 -72,0 -121,-20 -170,-70 L 39,483 h 29 l 13,46 c 16,58 52,83 119,83 86,0 141,-54 141,-139 0,-75 -42,-149 -155,-269 z"
                     stroke="#000000"
                     stroke-opacity="1"
                     stroke-width="8"
                     fill="#000000"
                     fill-opacity="1"
                     id="path871" />
                </g>
              </g>
            </g>
          </g>
        </g>
      </g>
    </g>
    <g
       id="g907">
      <g
         id="g905">
        <g
           id="g891">
          <g
             transform="translate(362.66666,461.4)"
             id="g889">
            <path
               transform="scale(0.0204,-0.0204)"
               d="m -7,-180 c -1,-7 -1,-13 -1,-18 0,-43 37,-78 82,-78 106,0 216,124 275,309 l 141,440 -11,9 C 450,471 427,465 405,463 L 370,331 C 358,284 323,211 290,162 255,111 206,67 184,67 c -12,0 -21,23 -20,48 l 16,207 c 2,31 4,69 4,97 0,45 -7,63 -24,63 -13,0 -27,-7 -75,-40 L 3,386 14,368 64,398 c 5,3 16,12 25,12 14,0 22,-19 22,-52 0,-1 0,-7 -1,-15 L 93,100 92,60 c 0,-42 18,-71 43,-71 37,0 121,85 196,198 L 282,16 c -51,-177 -101,-250 -171,-250 -35,0 -62,27 -62,62 0,5 1,13 2,22 l -10,4 z"
               stroke="#000000"
               stroke-opacity="1"
               stroke-width="8"
               fill="#000000"
               fill-opacity="1"
               id="path887" />
          </g>
        </g>
        <g
           id="g903">
          <g
             id="g901">
            <g
               id="g899">
              <g
                 id="g897">
                <g
                   transform="translate(373.44791,465.66544)"
                   id="g895">
                  <path
                     transform="scale(0.01428,-0.01428)"
                     d="m 418,-3 v 30 l -52,3 c -55,3 -65,14 -65,66 V 700 L 60,598 67,548 217,614 V 96 C 217,44 206,33 152,30 L 96,27 V -3 c 154,3 154,3 165,3 31,0 141,-3 157,-3 z"
                     stroke="#000000"
                     stroke-opacity="1"
                     stroke-width="8"
                     fill="#000000"
                     fill-opacity="1"
                     id="path893" />
                </g>
              </g>
            </g>
          </g>
        </g>
      </g>
    </g>
    <g
       id="g959">
      <g
         id="g957">
        <g
           id="g913">
          <g
             transform="translate(108.66666,463.4)"
             id="g911">
            <path
               transform="scale(0.0204,-0.0204)"
               d="m 345,437 h -16 l 21,112 c 16,86 44,124 90,124 30,0 57,-15 72,-39 l 10,4 c 5,16 15,47 23,67 l 5,15 c -16,7 -47,13 -70,13 -11,0 -27,-3 -35,-7 C 421,715 339,654 316,630 294,608 282,578 271,521 l -15,-79 c -41,-20 -61,-28 -86,-37 l -5,-22 h 81 l -9,-56 c -30,-195 -67,-381 -89,-450 -18,-59 -48,-90 -84,-90 -23,0 -34,7 -52,29 l -14,-4 c -4,-23 -18,-71 -23,-80 9,-5 24,-8 35,-8 41,0 95,31 134,78 71,84 91,180 175,581 h 104 c 4,19 11,42 17,56 l -4,7 c -29,-7 -28,-9 -91,-9 z"
               stroke="#000000"
               stroke-opacity="1"
               stroke-width="8"
               fill="#000000"
               fill-opacity="1"
               id="path909" />
          </g>
        </g>
        <g
           id="g925">
          <g
             id="g923">
            <g
               id="g921">
              <g
                 id="g919">
                <g
                   transform="translate(120.48959,467.66544)"
                   id="g917">
                  <path
                     transform="scale(0.01428,-0.01428)"
                     d="M 730,103 704,86 C 675,67 653,56 643,56 c -7,0 -13,9 -13,20 0,10 2,19 7,40 l 75,297 c 4,17 7,33 7,41 0,17 -10,28 -26,28 -29,0 -67,-18 -128,-61 -63,-45 -98,-80 -147,-149 l 30,137 c 4,20 7,35 7,42 0,19 -10,31 -26,31 -30,0 -76,-22 -131,-64 -44,-34 -64,-55 -129,-143 l 33,133 c 4,16 6,31 6,43 0,19 -9,31 -23,31 -21,0 -59,-21 -133,-74 l -28,-20 7,-20 c 37,23 72,46 79,46 11,0 18,-10 18,-25 C 128,338 87,145 46,2 l 3,-11 68,15 22,102 c 24,111 51,170 106,230 42,46 87,76 115,76 7,0 11,-8 11,-21 0,-35 -22,-149 -63,-324 l -16,-67 5,-11 69,15 21,107 c 16,81 50,156 94,205 55,61 105,96 137,96 8,0 13,-9 13,-25 0,-24 -3,-38 -25,-125 C 566,105 550,84 550,31 c 0,-25 11,-40 30,-40 26,0 62,21 160,94 z m 602,140 v 56 H 828 V 243 Z M 1800,-3 v 30 l -52,3 c -55,3 -65,14 -65,66 v 604 l -241,-102 7,-50 150,66 V 96 c 0,-52 -11,-63 -65,-66 l -56,-3 V -3 c 154,3 154,3 165,3 31,0 141,-3 157,-3 z"
                     stroke="#000000"
                     stroke-opacity="1"
                     stroke-width="8"
                     fill="#000000"
                     fill-opacity="1"
                     id="path915" />
                </g>
              </g>
            </g>
          </g>
        </g>
        <g
           id="g931">
          <g
             transform="translate(148.57291,464.06669)"
             id="g929">
            <path
               transform="scale(0.0204,-0.0204)"
               d="m 146,266 c 0,260 97,366 155,434 l -19,26 C 225,675 60,542 60,266 60,159 85,58 133,-32 c 35,-67 67,-106 149,-183 l 19,21 c -46,57 -155,179 -155,460 z"
               stroke="#000000"
               stroke-opacity="1"
               stroke-width="8"
               fill="#000000"
               fill-opacity="1"
               id="path927" />
          </g>
        </g>
        <g
           id="g937">
          <g
             transform="translate(155.34375,463.4)"
             id="g935">
            <path
               transform="scale(0.0204,-0.0204)"
               d="m 288,254 142,166 c 6,7 17,11 34,11 h 14 v 28 H 396 L 272,284 196,400 c -15,22 -26,35 -60,69 l -116,-20 5,-26 21,-2 c 18,-1 40,-15 50,-29 L 216,218 67,42 C 60,33 47,27 37,27 H 20 V 0 h 86 L 240,192 373,-3 c 52,3 52,3 61,3 10,0 10,0 62,-3 v 30 l -25,3 c -12,1 -24,9 -35,24 z"
               stroke="#000000"
               stroke-opacity="1"
               stroke-width="24"
               fill="#000000"
               fill-opacity="1"
               id="path933" />
          </g>
        </g>
        <g
           id="g949">
          <g
             id="g947">
            <g
               id="g945">
              <g
                 id="g943">
                <g
                   transform="translate(166.45834,467.66544)"
                   id="g941">
                  <path
                     transform="scale(0.01428,-0.01428)"
                     d="m 418,-3 v 30 l -52,3 c -55,3 -65,14 -65,66 V 700 L 60,598 67,548 217,614 V 96 C 217,44 206,33 152,30 L 96,27 V -3 c 154,3 154,3 165,3 31,0 141,-3 157,-3 z"
                     stroke="#000000"
                     stroke-opacity="1"
                     stroke-width="8"
                     fill="#000000"
                     fill-opacity="1"
                     id="path939" />
                </g>
              </g>
            </g>
          </g>
        </g>
        <g
           id="g955">
          <g
             transform="translate(174.8125,464.06669)"
             id="g953">
            <path
               transform="scale(0.0204,-0.0204)"
               d="M 51,726 32,700 C 87,636 187,526 187,266 187,-10 83,-131 32,-194 l 19,-21 c 53,50 222,192 222,480 0,277 -165,410 -222,461 z"
               stroke="#000000"
               stroke-opacity="1"
               stroke-width="8"
               fill="#000000"
               fill-opacity="1"
               id="path951" />
          </g>
        </g>
      </g>
    </g>
    <g
       id="g1011">
      <g
         id="g1009">
        <g
           id="g965">
          <g
             transform="translate(14.666656,204.4)"
             id="g963">
            <path
               transform="scale(0.0204,-0.0204)"
               d="m 345,437 h -16 l 21,112 c 16,86 44,124 90,124 30,0 57,-15 72,-39 l 10,4 c 5,16 15,47 23,67 l 5,15 c -16,7 -47,13 -70,13 -11,0 -27,-3 -35,-7 C 421,715 339,654 316,630 294,608 282,578 271,521 l -15,-79 c -41,-20 -61,-28 -86,-37 l -5,-22 h 81 l -9,-56 c -30,-195 -67,-381 -89,-450 -18,-59 -48,-90 -84,-90 -23,0 -34,7 -52,29 l -14,-4 c -4,-23 -18,-71 -23,-80 9,-5 24,-8 35,-8 41,0 95,31 134,78 71,84 91,180 175,581 h 104 c 4,19 11,42 17,56 l -4,7 c -29,-7 -28,-9 -91,-9 z"
               stroke="#000000"
               stroke-opacity="1"
               stroke-width="8"
               fill="#000000"
               fill-opacity="1"
               id="path961" />
          </g>
        </g>
        <g
           id="g977">
          <g
             id="g975">
            <g
               id="g973">
              <g
                 id="g971">
                <g
                   transform="translate(26.489594,208.66542)"
                   id="g969">
                  <path
                     transform="scale(0.01428,-0.01428)"
                     d="M 730,103 704,86 C 675,67 653,56 643,56 c -7,0 -13,9 -13,20 0,10 2,19 7,40 l 75,297 c 4,17 7,33 7,41 0,17 -10,28 -26,28 -29,0 -67,-18 -128,-61 -63,-45 -98,-80 -147,-149 l 30,137 c 4,20 7,35 7,42 0,19 -10,31 -26,31 -30,0 -76,-22 -131,-64 -44,-34 -64,-55 -129,-143 l 33,133 c 4,16 6,31 6,43 0,19 -9,31 -23,31 -21,0 -59,-21 -133,-74 l -28,-20 7,-20 c 37,23 72,46 79,46 11,0 18,-10 18,-25 C 128,338 87,145 46,2 l 3,-11 68,15 22,102 c 24,111 51,170 106,230 42,46 87,76 115,76 7,0 11,-8 11,-21 0,-35 -22,-149 -63,-324 l -16,-67 5,-11 69,15 21,107 c 16,81 50,156 94,205 55,61 105,96 137,96 8,0 13,-9 13,-25 0,-24 -3,-38 -25,-125 C 566,105 550,84 550,31 c 0,-25 11,-40 30,-40 26,0 62,21 160,94 z m 602,140 v 56 H 828 V 243 Z M 1800,-3 v 30 l -52,3 c -55,3 -65,14 -65,66 v 604 l -241,-102 7,-50 150,66 V 96 c 0,-52 -11,-63 -65,-66 l -56,-3 V -3 c 154,3 154,3 165,3 31,0 141,-3 157,-3 z"
                     stroke="#000000"
                     stroke-opacity="1"
                     stroke-width="8"
                     fill="#000000"
                     fill-opacity="1"
                     id="path967" />
                </g>
              </g>
            </g>
          </g>
        </g>
        <g
           id="g983">
          <g
             transform="translate(54.572906,205.06667)"
             id="g981">
            <path
               transform="scale(0.0204,-0.0204)"
               d="m 146,266 c 0,260 97,366 155,434 l -19,26 C 225,675 60,542 60,266 60,159 85,58 133,-32 c 35,-67 67,-106 149,-183 l 19,21 c -46,57 -155,179 -155,460 z"
               stroke="#000000"
               stroke-opacity="1"
               stroke-width="8"
               fill="#000000"
               fill-opacity="1"
               id="path979" />
          </g>
        </g>
        <g
           id="g989">
          <g
             transform="translate(61.34375,204.4)"
             id="g987">
            <path
               transform="scale(0.0204,-0.0204)"
               d="m 288,254 142,166 c 6,7 17,11 34,11 h 14 v 28 H 396 L 272,284 196,400 c -15,22 -26,35 -60,69 l -116,-20 5,-26 21,-2 c 18,-1 40,-15 50,-29 L 216,218 67,42 C 60,33 47,27 37,27 H 20 V 0 h 86 L 240,192 373,-3 c 52,3 52,3 61,3 10,0 10,0 62,-3 v 30 l -25,3 c -12,1 -24,9 -35,24 z"
               stroke="#000000"
               stroke-opacity="1"
               stroke-width="24"
               fill="#000000"
               fill-opacity="1"
               id="path985" />
          </g>
        </g>
        <g
           id="g1001">
          <g
             id="g999">
            <g
               id="g997">
              <g
                 id="g995">
                <g
                   transform="translate(72.458344,208.66542)"
                   id="g993">
                  <path
                     transform="scale(0.01428,-0.01428)"
                     d="M 16,23 V -3 c 187,0 187,3 223,3 36,0 36,-3 229,-3 V 82 C 353,77 307,81 122,77 l 182,193 c 97,103 127,158 127,233 0,115 -78,186 -205,186 -72,0 -121,-20 -170,-70 L 39,483 h 29 l 13,46 c 16,58 52,83 119,83 86,0 141,-54 141,-139 0,-75 -42,-149 -155,-269 z"
                     stroke="#000000"
                     stroke-opacity="1"
                     stroke-width="8"
                     fill="#000000"
                     fill-opacity="1"
                     id="path991" />
                </g>
              </g>
            </g>
          </g>
        </g>
        <g
           id="g1007">
          <g
             transform="translate(80.8125,205.06667)"
             id="g1005">
            <path
               transform="scale(0.0204,-0.0204)"
               d="M 51,726 32,700 C 87,636 187,526 187,266 187,-10 83,-131 32,-194 l 19,-21 c 53,50 222,192 222,480 0,277 -165,410 -222,461 z"
               stroke="#000000"
               stroke-opacity="1"
               stroke-width="8"
               fill="#000000"
               fill-opacity="1"
               id="path1003" />
          </g>
        </g>
      </g>
    </g>
    <g
       id="g1051">
      <g
         id="g1049">
        <g
           id="g1017">
          <g
             transform="translate(506.66666,461.4)"
             id="g1015">
            <path
               transform="scale(0.0204,-0.0204)"
               d="m 345,437 h -16 l 21,112 c 16,86 44,124 90,124 30,0 57,-15 72,-39 l 10,4 c 5,16 15,47 23,67 l 5,15 c -16,7 -47,13 -70,13 -11,0 -27,-3 -35,-7 C 421,715 339,654 316,630 294,608 282,578 271,521 l -15,-79 c -41,-20 -61,-28 -86,-37 l -5,-22 h 81 l -9,-56 c -30,-195 -67,-381 -89,-450 -18,-59 -48,-90 -84,-90 -23,0 -34,7 -52,29 l -14,-4 c -4,-23 -18,-71 -23,-80 9,-5 24,-8 35,-8 41,0 95,31 134,78 71,84 91,180 175,581 h 104 c 4,19 11,42 17,56 l -4,7 c -29,-7 -28,-9 -91,-9 z"
               stroke="#000000"
               stroke-opacity="1"
               stroke-width="8"
               fill="#000000"
               fill-opacity="1"
               id="path1013" />
          </g>
        </g>
        <g
           id="g1023">
          <g
             transform="translate(517.88541,462.06669)"
             id="g1021">
            <path
               transform="scale(0.0204,-0.0204)"
               d="m 146,266 c 0,260 97,366 155,434 l -19,26 C 225,675 60,542 60,266 60,159 85,58 133,-32 c 35,-67 67,-106 149,-183 l 19,21 c -46,57 -155,179 -155,460 z"
               stroke="#000000"
               stroke-opacity="1"
               stroke-width="8"
               fill="#000000"
               fill-opacity="1"
               id="path1019" />
          </g>
        </g>
        <g
           id="g1029">
          <g
             transform="translate(524.65628,461.4)"
             id="g1027">
            <path
               transform="scale(0.0204,-0.0204)"
               d="m 288,254 142,166 c 6,7 17,11 34,11 h 14 v 28 H 396 L 272,284 196,400 c -15,22 -26,35 -60,69 l -116,-20 5,-26 21,-2 c 18,-1 40,-15 50,-29 L 216,218 67,42 C 60,33 47,27 37,27 H 20 V 0 h 86 L 240,192 373,-3 c 52,3 52,3 61,3 10,0 10,0 62,-3 v 30 l -25,3 c -12,1 -24,9 -35,24 z"
               stroke="#000000"
               stroke-opacity="1"
               stroke-width="24"
               fill="#000000"
               fill-opacity="1"
               id="path1025" />
          </g>
        </g>
        <g
           id="g1041">
          <g
             id="g1039">
            <g
               id="g1037">
              <g
                 id="g1035">
                <g
                   transform="translate(535.77084,465.66544)"
                   id="g1033">
                  <path
                     transform="scale(0.01428,-0.01428)"
                     d="m 418,-3 v 30 l -52,3 c -55,3 -65,14 -65,66 V 700 L 60,598 67,548 217,614 V 96 C 217,44 206,33 152,30 L 96,27 V -3 c 154,3 154,3 165,3 31,0 141,-3 157,-3 z"
                     stroke="#000000"
                     stroke-opacity="1"
                     stroke-width="8"
                     fill="#000000"
                     fill-opacity="1"
                     id="path1031" />
                </g>
              </g>
            </g>
          </g>
        </g>
        <g
           id="g1047">
          <g
             transform="translate(544.12503,462.06669)"
             id="g1045">
            <path
               transform="scale(0.0204,-0.0204)"
               d="M 51,726 32,700 C 87,636 187,526 187,266 187,-10 83,-131 32,-194 l 19,-21 c 53,50 222,192 222,480 0,277 -165,410 -222,461 z"
               stroke="#000000"
               stroke-opacity="1"
               stroke-width="8"
               fill="#000000"
               fill-opacity="1"
               id="path1043" />
          </g>
        </g>
      </g>
    </g>
    <g
       id="g1091">
      <g
         id="g1089">
        <g
           id="g1057">
          <g
             transform="translate(36.666656,76.4)"
             id="g1055">
            <path
               transform="scale(0.0204,-0.0204)"
               d="m 345,437 h -16 l 21,112 c 16,86 44,124 90,124 30,0 57,-15 72,-39 l 10,4 c 5,16 15,47 23,67 l 5,15 c -16,7 -47,13 -70,13 -11,0 -27,-3 -35,-7 C 421,715 339,654 316,630 294,608 282,578 271,521 l -15,-79 c -41,-20 -61,-28 -86,-37 l -5,-22 h 81 l -9,-56 c -30,-195 -67,-381 -89,-450 -18,-59 -48,-90 -84,-90 -23,0 -34,7 -52,29 l -14,-4 c -4,-23 -18,-71 -23,-80 9,-5 24,-8 35,-8 41,0 95,31 134,78 71,84 91,180 175,581 h 104 c 4,19 11,42 17,56 l -4,7 c -29,-7 -28,-9 -91,-9 z"
               stroke="#000000"
               stroke-opacity="1"
               stroke-width="8"
               fill="#000000"
               fill-opacity="1"
               id="path1053" />
          </g>
        </g>
        <g
           id="g1063">
          <g
             transform="translate(47.885406,77.066668)"
             id="g1061">
            <path
               transform="scale(0.0204,-0.0204)"
               d="m 146,266 c 0,260 97,366 155,434 l -19,26 C 225,675 60,542 60,266 60,159 85,58 133,-32 c 35,-67 67,-106 149,-183 l 19,21 c -46,57 -155,179 -155,460 z"
               stroke="#000000"
               stroke-opacity="1"
               stroke-width="8"
               fill="#000000"
               fill-opacity="1"
               id="path1059" />
          </g>
        </g>
        <g
           id="g1069">
          <g
             transform="translate(54.65625,76.4)"
             id="g1067">
            <path
               transform="scale(0.0204,-0.0204)"
               d="m 288,254 142,166 c 6,7 17,11 34,11 h 14 v 28 H 396 L 272,284 196,400 c -15,22 -26,35 -60,69 l -116,-20 5,-26 21,-2 c 18,-1 40,-15 50,-29 L 216,218 67,42 C 60,33 47,27 37,27 H 20 V 0 h 86 L 240,192 373,-3 c 52,3 52,3 61,3 10,0 10,0 62,-3 v 30 l -25,3 c -12,1 -24,9 -35,24 z"
               stroke="#000000"
               stroke-opacity="1"
               stroke-width="24"
               fill="#000000"
               fill-opacity="1"
               id="path1065" />
          </g>
        </g>
        <g
           id="g1081">
          <g
             id="g1079">
            <g
               id="g1077">
              <g
                 id="g1075">
                <g
                   transform="translate(65.770844,80.665418)"
                   id="g1073">
                  <path
                     transform="scale(0.01428,-0.01428)"
                     d="M 16,23 V -3 c 187,0 187,3 223,3 36,0 36,-3 229,-3 V 82 C 353,77 307,81 122,77 l 182,193 c 97,103 127,158 127,233 0,115 -78,186 -205,186 -72,0 -121,-20 -170,-70 L 39,483 h 29 l 13,46 c 16,58 52,83 119,83 86,0 141,-54 141,-139 0,-75 -42,-149 -155,-269 z"
                     stroke="#000000"
                     stroke-opacity="1"
                     stroke-width="8"
                     fill="#000000"
                     fill-opacity="1"
                     id="path1071" />
                </g>
              </g>
            </g>
          </g>
        </g>
        <g
           id="g1087">
          <g
             transform="translate(74.125,77.066668)"
             id="g1085">
            <path
               transform="scale(0.0204,-0.0204)"
               d="M 51,726 32,700 C 87,636 187,526 187,266 187,-10 83,-131 32,-194 l 19,-21 c 53,50 222,192 222,480 0,277 -165,410 -222,461 z"
               stroke="#000000"
               stroke-opacity="1"
               stroke-width="8"
               fill="#000000"
               fill-opacity="1"
               id="path1083" />
          </g>
        </g>
      </g>
    </g>
    <g
       id="g1143">
      <g
         id="g1141">
        <g
           id="g1097">
          <g
             transform="translate(222.66666,463.4)"
             id="g1095">
            <path
               transform="scale(0.0204,-0.0204)"
               d="m 345,437 h -16 l 21,112 c 16,86 44,124 90,124 30,0 57,-15 72,-39 l 10,4 c 5,16 15,47 23,67 l 5,15 c -16,7 -47,13 -70,13 -11,0 -27,-3 -35,-7 C 421,715 339,654 316,630 294,608 282,578 271,521 l -15,-79 c -41,-20 -61,-28 -86,-37 l -5,-22 h 81 l -9,-56 c -30,-195 -67,-381 -89,-450 -18,-59 -48,-90 -84,-90 -23,0 -34,7 -52,29 l -14,-4 c -4,-23 -18,-71 -23,-80 9,-5 24,-8 35,-8 41,0 95,31 134,78 71,84 91,180 175,581 h 104 c 4,19 11,42 17,56 l -4,7 c -29,-7 -28,-9 -91,-9 z"
               stroke="#000000"
               stroke-opacity="1"
               stroke-width="8"
               fill="#000000"
               fill-opacity="1"
               id="path1093" />
          </g>
        </g>
        <g
           id="g1109">
          <g
             id="g1107">
            <g
               id="g1105">
              <g
                 id="g1103">
                <g
                   transform="translate(234.48959,467.66544)"
                   id="g1101">
                  <path
                     transform="scale(0.01428,-0.01428)"
                     d="M 730,103 704,86 C 675,67 653,56 643,56 c -7,0 -13,9 -13,20 0,10 2,19 7,40 l 75,297 c 4,17 7,33 7,41 0,17 -10,28 -26,28 -29,0 -67,-18 -128,-61 -63,-45 -98,-80 -147,-149 l 30,137 c 4,20 7,35 7,42 0,19 -10,31 -26,31 -30,0 -76,-22 -131,-64 -44,-34 -64,-55 -129,-143 l 33,133 c 4,16 6,31 6,43 0,19 -9,31 -23,31 -21,0 -59,-21 -133,-74 l -28,-20 7,-20 c 37,23 72,46 79,46 11,0 18,-10 18,-25 C 128,338 87,145 46,2 l 3,-11 68,15 22,102 c 24,111 51,170 106,230 42,46 87,76 115,76 7,0 11,-8 11,-21 0,-35 -22,-149 -63,-324 l -16,-67 5,-11 69,15 21,107 c 16,81 50,156 94,205 55,61 105,96 137,96 8,0 13,-9 13,-25 0,-24 -3,-38 -25,-125 C 566,105 550,84 550,31 c 0,-25 11,-40 30,-40 26,0 62,21 160,94 z"
                     stroke="#000000"
                     stroke-opacity="1"
                     stroke-width="8"
                     fill="#000000"
                     fill-opacity="1"
                     id="path1099" />
                </g>
              </g>
            </g>
          </g>
        </g>
        <g
           id="g1115">
          <g
             transform="translate(246.81253,464.06669)"
             id="g1113">
            <path
               transform="scale(0.0204,-0.0204)"
               d="m 146,266 c 0,260 97,366 155,434 l -19,26 C 225,675 60,542 60,266 60,159 85,58 133,-32 c 35,-67 67,-106 149,-183 l 19,21 c -46,57 -155,179 -155,460 z"
               stroke="#000000"
               stroke-opacity="1"
               stroke-width="8"
               fill="#000000"
               fill-opacity="1"
               id="path1111" />
          </g>
        </g>
        <g
           id="g1121">
          <g
             transform="translate(253.58334,463.4)"
             id="g1119">
            <path
               transform="scale(0.0204,-0.0204)"
               d="m 288,254 142,166 c 6,7 17,11 34,11 h 14 v 28 H 396 L 272,284 196,400 c -15,22 -26,35 -60,69 l -116,-20 5,-26 21,-2 c 18,-1 40,-15 50,-29 L 216,218 67,42 C 60,33 47,27 37,27 H 20 V 0 h 86 L 240,192 373,-3 c 52,3 52,3 61,3 10,0 10,0 62,-3 v 30 l -25,3 c -12,1 -24,9 -35,24 z"
               stroke="#000000"
               stroke-opacity="1"
               stroke-width="24"
               fill="#000000"
               fill-opacity="1"
               id="path1117" />
          </g>
        </g>
        <g
           id="g1133">
          <g
             id="g1131">
            <g
               id="g1129">
              <g
                 id="g1127">
                <g
                   transform="translate(264.69791,467.66544)"
                   id="g1125">
                  <path
                     transform="scale(0.01428,-0.01428)"
                     d="m 418,-3 v 30 l -52,3 c -55,3 -65,14 -65,66 V 700 L 60,598 67,548 217,614 V 96 C 217,44 206,33 152,30 L 96,27 V -3 c 154,3 154,3 165,3 31,0 141,-3 157,-3 z"
                     stroke="#000000"
                     stroke-opacity="1"
                     stroke-width="8"
                     fill="#000000"
                     fill-opacity="1"
                     id="path1123" />
                </g>
              </g>
            </g>
          </g>
        </g>
        <g
           id="g1139">
          <g
             transform="translate(273.05209,464.06669)"
             id="g1137">
            <path
               transform="scale(0.0204,-0.0204)"
               d="M 51,726 32,700 C 87,636 187,526 187,266 187,-10 83,-131 32,-194 l 19,-21 c 53,50 222,192 222,480 0,277 -165,410 -222,461 z"
               stroke="#000000"
               stroke-opacity="1"
               stroke-width="8"
               fill="#000000"
               fill-opacity="1"
               id="path1135" />
          </g>
        </g>
      </g>
    </g>
    <g
       id="g1195">
      <g
         id="g1193">
        <g
           id="g1149">
          <g
             transform="translate(22.666656,244.4)"
             id="g1147">
            <path
               transform="scale(0.0204,-0.0204)"
               d="m 345,437 h -16 l 21,112 c 16,86 44,124 90,124 30,0 57,-15 72,-39 l 10,4 c 5,16 15,47 23,67 l 5,15 c -16,7 -47,13 -70,13 -11,0 -27,-3 -35,-7 C 421,715 339,654 316,630 294,608 282,578 271,521 l -15,-79 c -41,-20 -61,-28 -86,-37 l -5,-22 h 81 l -9,-56 c -30,-195 -67,-381 -89,-450 -18,-59 -48,-90 -84,-90 -23,0 -34,7 -52,29 l -14,-4 c -4,-23 -18,-71 -23,-80 9,-5 24,-8 35,-8 41,0 95,31 134,78 71,84 91,180 175,581 h 104 c 4,19 11,42 17,56 l -4,7 c -29,-7 -28,-9 -91,-9 z"
               stroke="#000000"
               stroke-opacity="1"
               stroke-width="8"
               fill="#000000"
               fill-opacity="1"
               id="path1145" />
          </g>
        </g>
        <g
           id="g1161">
          <g
             id="g1159">
            <g
               id="g1157">
              <g
                 id="g1155">
                <g
                   transform="translate(34.489594,248.66542)"
                   id="g1153">
                  <path
                     transform="scale(0.01428,-0.01428)"
                     d="M 730,103 704,86 C 675,67 653,56 643,56 c -7,0 -13,9 -13,20 0,10 2,19 7,40 l 75,297 c 4,17 7,33 7,41 0,17 -10,28 -26,28 -29,0 -67,-18 -128,-61 -63,-45 -98,-80 -147,-149 l 30,137 c 4,20 7,35 7,42 0,19 -10,31 -26,31 -30,0 -76,-22 -131,-64 -44,-34 -64,-55 -129,-143 l 33,133 c 4,16 6,31 6,43 0,19 -9,31 -23,31 -21,0 -59,-21 -133,-74 l -28,-20 7,-20 c 37,23 72,46 79,46 11,0 18,-10 18,-25 C 128,338 87,145 46,2 l 3,-11 68,15 22,102 c 24,111 51,170 106,230 42,46 87,76 115,76 7,0 11,-8 11,-21 0,-35 -22,-149 -63,-324 l -16,-67 5,-11 69,15 21,107 c 16,81 50,156 94,205 55,61 105,96 137,96 8,0 13,-9 13,-25 0,-24 -3,-38 -25,-125 C 566,105 550,84 550,31 c 0,-25 11,-40 30,-40 26,0 62,21 160,94 z"
                     stroke="#000000"
                     stroke-opacity="1"
                     stroke-width="8"
                     fill="#000000"
                     fill-opacity="1"
                     id="path1151" />
                </g>
              </g>
            </g>
          </g>
        </g>
        <g
           id="g1167">
          <g
             transform="translate(46.8125,245.06667)"
             id="g1165">
            <path
               transform="scale(0.0204,-0.0204)"
               d="m 146,266 c 0,260 97,366 155,434 l -19,26 C 225,675 60,542 60,266 60,159 85,58 133,-32 c 35,-67 67,-106 149,-183 l 19,21 c -46,57 -155,179 -155,460 z"
               stroke="#000000"
               stroke-opacity="1"
               stroke-width="8"
               fill="#000000"
               fill-opacity="1"
               id="path1163" />
          </g>
        </g>
        <g
           id="g1173">
          <g
             transform="translate(53.583344,244.4)"
             id="g1171">
            <path
               transform="scale(0.0204,-0.0204)"
               d="m 288,254 142,166 c 6,7 17,11 34,11 h 14 v 28 H 396 L 272,284 196,400 c -15,22 -26,35 -60,69 l -116,-20 5,-26 21,-2 c 18,-1 40,-15 50,-29 L 216,218 67,42 C 60,33 47,27 37,27 H 20 V 0 h 86 L 240,192 373,-3 c 52,3 52,3 61,3 10,0 10,0 62,-3 v 30 l -25,3 c -12,1 -24,9 -35,24 z"
               stroke="#000000"
               stroke-opacity="1"
               stroke-width="24"
               fill="#000000"
               fill-opacity="1"
               id="path1169" />
          </g>
        </g>
        <g
           id="g1185">
          <g
             id="g1183">
            <g
               id="g1181">
              <g
                 id="g1179">
                <g
                   transform="translate(64.697906,248.66542)"
                   id="g1177">
                  <path
                     transform="scale(0.01428,-0.01428)"
                     d="M 16,23 V -3 c 187,0 187,3 223,3 36,0 36,-3 229,-3 V 82 C 353,77 307,81 122,77 l 182,193 c 97,103 127,158 127,233 0,115 -78,186 -205,186 -72,0 -121,-20 -170,-70 L 39,483 h 29 l 13,46 c 16,58 52,83 119,83 86,0 141,-54 141,-139 0,-75 -42,-149 -155,-269 z"
                     stroke="#000000"
                     stroke-opacity="1"
                     stroke-width="8"
                     fill="#000000"
                     fill-opacity="1"
                     id="path1175" />
                </g>
              </g>
            </g>
          </g>
        </g>
        <g
           id="g1191">
          <g
             transform="translate(73.052094,245.06667)"
             id="g1189">
            <path
               transform="scale(0.0204,-0.0204)"
               d="M 51,726 32,700 C 87,636 187,526 187,266 187,-10 83,-131 32,-194 l 19,-21 c 53,50 222,192 222,480 0,277 -165,410 -222,461 z"
               stroke="#000000"
               stroke-opacity="1"
               stroke-width="8"
               fill="#000000"
               fill-opacity="1"
               id="path1187" />
          </g>
        </g>
      </g>
    </g>
    <g
       id="g1265">
      <g
         id="g1263">
        <g
           id="g1201">
          <g
             transform="translate(180.66666,179.33334)"
             id="g1199">
            <path
               transform="scale(0.017,-0.017)"
               d="m 146,266 c 0,260 97,366 155,434 l -19,26 C 225,675 60,542 60,266 60,159 85,58 133,-32 c 35,-67 67,-106 149,-183 l 19,21 c -46,57 -155,179 -155,460 z"
               stroke="#000000"
               stroke-opacity="1"
               stroke-width="8"
               fill="#000000"
               fill-opacity="1"
               id="path1197" />
          </g>
        </g>
        <g
           id="g1207">
          <g
             transform="translate(186.31253,178.66667)"
             id="g1205">
            <path
               transform="scale(0.017,-0.017)"
               d="m 555,243 v 56 H 51 v -56 z"
               stroke="#000000"
               stroke-opacity="1"
               stroke-width="8"
               fill="#000000"
               fill-opacity="1"
               id="path1203" />
          </g>
        </g>
        <g
           id="g1213">
          <g
             transform="translate(196.60416,178.66667)"
             id="g1211">
            <path
               transform="scale(0.017,-0.017)"
               d="M 275,482 C 208,482 55,419 55,259 c 0,-77 45,-123 122,-123 8,0 19,0 30,1 L 166,99 C 150,84 139,66 139,52 139,42 146,31 160,19 91,-4 -37,-48 -37,-159 c 0,-71 70,-117 179,-117 129,0 242,72 242,155 0,36 -21,72 -64,107 l -60,49 c -34,27 -47,46 -47,65 0,14 15,28 27,46 98,24 169,107 169,196 0,15 -3,34 -4,38 17,-2 25,-2 34,-2 17,0 27,1 50,4 l 9,45 -3,6 c -28,-7 -48,-9 -102,-9 0,1 -24,58 -118,58 z M 176,1 253,-58 c 46,-36 65,-63 65,-96 0,-52 -69,-94 -152,-94 -82,0 -139,42 -139,103 0,102 110,134 149,146 z m 74,447 c 58,0 87,-36 87,-107 0,-103 -48,-173 -118,-173 -61,0 -93,41 -93,120 0,95 51,160 124,160 z"
               stroke="#000000"
               stroke-opacity="1"
               stroke-width="8"
               fill="#000000"
               fill-opacity="1"
               id="path1209" />
          </g>
        </g>
        <g
           id="g1225">
          <g
             id="g1223">
            <g
               id="g1221">
              <g
                 id="g1219">
                <g
                   transform="translate(205.59378,182.4375)"
                   id="g1217">
                  <path
                     transform="scale(0.012,-0.012)"
                     d="m 418,-3 v 30 l -52,3 c -55,3 -65,14 -65,66 V 700 L 60,598 67,548 217,614 V 96 C 217,44 206,33 152,30 L 96,27 V -3 c 154,3 154,3 165,3 31,0 141,-3 157,-3 z"
                     stroke="#000000"
                     stroke-opacity="1"
                     stroke-width="8"
                     fill="#000000"
                     fill-opacity="1"
                     id="path1215" />
                </g>
              </g>
            </g>
          </g>
        </g>
        <g
           id="g1231">
          <g
             transform="translate(212.59378,178.66667)"
             id="g1229">
            <path
               transform="scale(0.017,-0.017)"
               d="M 204,123 C 177,114 159,108 106,93 99,17 74,-48 16,-144 l 14,-11 41,19 c 81,105 119,168 147,245 z"
               stroke="#000000"
               stroke-opacity="1"
               stroke-width="8"
               fill="#000000"
               fill-opacity="1"
               id="path1227" />
          </g>
        </g>
        <g
           id="g1237">
          <g
             transform="translate(223.62503,178.66667)"
             id="g1235">
            <path
               transform="scale(0.017,-0.017)"
               d="m 555,243 v 56 H 51 v -56 z"
               stroke="#000000"
               stroke-opacity="1"
               stroke-width="8"
               fill="#000000"
               fill-opacity="1"
               id="path1233" />
          </g>
        </g>
        <g
           id="g1243">
          <g
             transform="translate(237.31253,178.66667)"
             id="g1241">
            <path
               transform="scale(0.017,-0.017)"
               d="M 275,482 C 208,482 55,419 55,259 c 0,-77 45,-123 122,-123 8,0 19,0 30,1 L 166,99 C 150,84 139,66 139,52 139,42 146,31 160,19 91,-4 -37,-48 -37,-159 c 0,-71 70,-117 179,-117 129,0 242,72 242,155 0,36 -21,72 -64,107 l -60,49 c -34,27 -47,46 -47,65 0,14 15,28 27,46 98,24 169,107 169,196 0,15 -3,34 -4,38 17,-2 25,-2 34,-2 17,0 27,1 50,4 l 9,45 -3,6 c -28,-7 -48,-9 -102,-9 0,1 -24,58 -118,58 z M 176,1 253,-58 c 46,-36 65,-63 65,-96 0,-52 -69,-94 -152,-94 -82,0 -139,42 -139,103 0,102 110,134 149,146 z m 74,447 c 58,0 87,-36 87,-107 0,-103 -48,-173 -118,-173 -61,0 -93,41 -93,120 0,95 51,160 124,160 z"
               stroke="#000000"
               stroke-opacity="1"
               stroke-width="8"
               fill="#000000"
               fill-opacity="1"
               id="path1239" />
          </g>
        </g>
        <g
           id="g1255">
          <g
             id="g1253">
            <g
               id="g1251">
              <g
                 id="g1249">
                <g
                   transform="translate(246.30209,182.4375)"
                   id="g1247">
                  <path
                     transform="scale(0.012,-0.012)"
                     d="M 16,23 V -3 c 187,0 187,3 223,3 36,0 36,-3 229,-3 V 82 C 353,77 307,81 122,77 l 182,193 c 97,103 127,158 127,233 0,115 -78,186 -205,186 -72,0 -121,-20 -170,-70 L 39,483 h 29 l 13,46 c 16,58 52,83 119,83 86,0 141,-54 141,-139 0,-75 -42,-149 -155,-269 z"
                     stroke="#000000"
                     stroke-opacity="1"
                     stroke-width="8"
                     fill="#000000"
                     fill-opacity="1"
                     id="path1245" />
                </g>
              </g>
            </g>
          </g>
        </g>
        <g
           id="g1261">
          <g
             transform="translate(253.30209,179.33334)"
             id="g1259">
            <path
               transform="scale(0.017,-0.017)"
               d="M 51,726 32,700 C 87,636 187,526 187,266 187,-10 83,-131 32,-194 l 19,-21 c 53,50 222,192 222,480 0,277 -165,410 -222,461 z"
               stroke="#000000"
               stroke-opacity="1"
               stroke-width="8"
               fill="#000000"
               fill-opacity="1"
               id="path1257" />
          </g>
        </g>
      </g>
    </g>
    <g
       id="g1443">
      <g
         id="g1441">
        <g
           id="g1271">
          <g
             transform="translate(178.66666,39.4)"
             id="g1269">
            <path
               transform="scale(0.0204,-0.0204)"
               d="m 342,330 h 23 c 8,65 15,102 24,128 -24,15 -59,24 -96,24 C 248,483 175,463 118,400 64,352 25,241 25,136 25,40 67,-11 147,-11 c 54,0 102,20 157,65 l 50,41 -8,20 -15,-10 C 259,57 221,40 186,40 c -56,0 -85,40 -85,119 0,108 35,212 84,250 21,16 45,24 76,24 45,0 81,-19 81,-43 z m 81,-178 c 0,-106 45,-163 128,-163 55,0 115,26 160,68 62,59 106,173 106,274 0,94 -50,151 -133,151 C 580,482 423,382 423,152 Z m 224,292 c 61,0 94,-45 94,-129 0,-96 -31,-202 -75,-255 -18,-21 -44,-33 -75,-33 -58,0 -92,45 -92,124 0,113 39,236 88,276 13,11 36,17 60,17 z M 880,148 C 875,97 869,62 858,16 c 38,-18 72,-27 107,-27 49,0 95,18 146,58 51,40 72,77 72,127 0,54 -32,83 -106,97 l -43,8 c -60,11 -79,28 -79,69 0,53 45,94 102,94 41,0 79,-18 95,-45 v -55 h 23 c 4,35 8,62 19,113 -39,19 -67,27 -100,27 -52,0 -113,-30 -161,-78 -26,-27 -37,-52 -37,-88 0,-56 31,-88 97,-101 l 63,-12 c 44,-8 60,-26 60,-65 0,-65 -46,-109 -117,-109 -35,0 -66,11 -94,35 v 84 z m 482,242 -56,-283 c -1,-8 -13,-46 -13,-76 0,-25 11,-40 30,-40 35,0 70,20 148,83 l 31,25 -10,18 -45,-31 c -29,-20 -49,-30 -60,-30 -9,0 -14,8 -14,20 0,26 14,107 43,252 l 13,62 h 107 l 11,50 c -38,-4 -72,-6 -110,-6 16,94 27,143 45,197 l -11,15 c -20,-12 -47,-24 -78,-36 l -25,-170 c -44,-21 -70,-32 -88,-37 l -2,-13 z"
               stroke="#000000"
               stroke-opacity="1"
               stroke-width="8"
               fill="#000000"
               fill-opacity="1"
               id="path1267" />
          </g>
        </g>
        <g
           id="g1277">
          <g
             transform="translate(216.78128,39.4)"
             id="g1275">
            <path
               transform="scale(0.0204,-0.0204)"
               d="m 604,347 v 59 H 65 v -59 z m 0,-213 v 59 H 65 v -59 z"
               stroke="#000000"
               stroke-opacity="1"
               stroke-width="8"
               fill="#000000"
               fill-opacity="1"
               id="path1273" />
          </g>
        </g>
        <g
           id="g1283">
          <g
             transform="translate(236.52084,39.4)"
             id="g1281">
            <path
               transform="scale(0.0204,-0.0204)"
               d="m 349,664 3,28 -114,-3 c -16,0 -34,0 -77,1 l -64,2 -3,-28 47,-2 c 24,-1 35,-9 35,-27 L 81,55 C 77,37 65,30 21,23 l -5,-26 41,1 c 31,1 93,2 113,2 0,0 297,-1 297,-1 0,0 33,1 33,1 -1,25 10,103 23,165 H 492 L 475,103 C 466,71 457,54 448,49 435,44 371,39 304,39 c -49,0 -76,1 -142,7 3,18 94,559 94,567 7,38 14,45 51,48 z"
               stroke="#000000"
               stroke-opacity="1"
               stroke-width="8"
               fill="#000000"
               fill-opacity="1"
               id="path1279" />
          </g>
        </g>
        <g
           id="g1289">
          <g
             transform="translate(247.84378,40.066667)"
             id="g1287">
            <path
               transform="scale(0.0204,-0.0204)"
               d="m 146,266 c 0,260 97,366 155,434 l -19,26 C 225,675 60,542 60,266 60,159 85,58 133,-32 c 35,-67 67,-106 149,-183 l 19,21 c -46,57 -155,179 -155,460 z"
               stroke="#000000"
               stroke-opacity="1"
               stroke-width="8"
               fill="#000000"
               fill-opacity="1"
               id="path1285" />
          </g>
        </g>
        <g
           id="g1295">
          <g
             transform="translate(254.61459,39.4)"
             id="g1293">
            <path
               transform="scale(0.0204,-0.0204)"
               d="m -7,-180 c -1,-7 -1,-13 -1,-18 0,-43 37,-78 82,-78 106,0 216,124 275,309 l 141,440 -11,9 C 450,471 427,465 405,463 L 370,331 C 358,284 323,211 290,162 255,111 206,67 184,67 c -12,0 -21,23 -20,48 l 16,207 c 2,31 4,69 4,97 0,45 -7,63 -24,63 -13,0 -27,-7 -75,-40 L 3,386 14,368 64,398 c 5,3 16,12 25,12 14,0 22,-19 22,-52 0,-1 0,-7 -1,-15 L 93,100 92,60 c 0,-42 18,-71 43,-71 37,0 121,85 196,198 L 282,16 c -51,-177 -101,-250 -171,-250 -35,0 -62,27 -62,62 0,5 1,13 2,22 l -10,4 z"
               stroke="#000000"
               stroke-opacity="1"
               stroke-width="8"
               fill="#000000"
               fill-opacity="1"
               id="path1291" />
          </g>
        </g>
        <g
           id="g1307">
          <g
             id="g1305">
            <g
               id="g1303">
              <g
                 id="g1301">
                <g
                   transform="translate(265.39584,43.665418)"
                   id="g1299">
                  <path
                     transform="scale(0.01428,-0.01428)"
                     d="m 418,-3 v 30 l -52,3 c -55,3 -65,14 -65,66 V 700 L 60,598 67,548 217,614 V 96 C 217,44 206,33 152,30 L 96,27 V -3 c 154,3 154,3 165,3 31,0 141,-3 157,-3 z"
                     stroke="#000000"
                     stroke-opacity="1"
                     stroke-width="8"
                     fill="#000000"
                     fill-opacity="1"
                     id="path1297" />
                </g>
              </g>
            </g>
          </g>
        </g>
        <g
           id="g1313">
          <g
             transform="translate(273.75003,39.4)"
             id="g1311">
            <path
               transform="scale(0.0204,-0.0204)"
               d="M 204,123 C 177,114 159,108 106,93 99,17 74,-48 16,-144 l 14,-11 41,19 c 81,105 119,168 147,245 z"
               stroke="#000000"
               stroke-opacity="1"
               stroke-width="8"
               fill="#000000"
               fill-opacity="1"
               id="path1309" />
          </g>
        </g>
        <g
           id="g1319">
          <g
             transform="translate(282.90628,39.4)"
             id="g1317">
            <path
               transform="scale(0.0204,-0.0204)"
               d="m 345,437 h -16 l 21,112 c 16,86 44,124 90,124 30,0 57,-15 72,-39 l 10,4 c 5,16 15,47 23,67 l 5,15 c -16,7 -47,13 -70,13 -11,0 -27,-3 -35,-7 C 421,715 339,654 316,630 294,608 282,578 271,521 l -15,-79 c -41,-20 -61,-28 -86,-37 l -5,-22 h 81 l -9,-56 c -30,-195 -67,-381 -89,-450 -18,-59 -48,-90 -84,-90 -23,0 -34,7 -52,29 l -14,-4 c -4,-23 -18,-71 -23,-80 9,-5 24,-8 35,-8 41,0 95,31 134,78 71,84 91,180 175,581 h 104 c 4,19 11,42 17,56 l -4,7 c -29,-7 -28,-9 -91,-9 z"
               stroke="#000000"
               stroke-opacity="1"
               stroke-width="8"
               fill="#000000"
               fill-opacity="1"
               id="path1315" />
          </g>
        </g>
        <g
           id="g1325">
          <g
             transform="translate(294.12503,40.066667)"
             id="g1323">
            <path
               transform="scale(0.0204,-0.0204)"
               d="m 146,266 c 0,260 97,366 155,434 l -19,26 C 225,675 60,542 60,266 60,159 85,58 133,-32 c 35,-67 67,-106 149,-183 l 19,21 c -46,57 -155,179 -155,460 z"
               stroke="#000000"
               stroke-opacity="1"
               stroke-width="8"
               fill="#000000"
               fill-opacity="1"
               id="path1321" />
          </g>
        </g>
        <g
           id="g1331">
          <g
             transform="translate(300.89584,39.4)"
             id="g1329">
            <path
               transform="scale(0.0204,-0.0204)"
               d="m 288,254 142,166 c 6,7 17,11 34,11 h 14 v 28 H 396 L 272,284 196,400 c -15,22 -26,35 -60,69 l -116,-20 5,-26 21,-2 c 18,-1 40,-15 50,-29 L 216,218 67,42 C 60,33 47,27 37,27 H 20 V 0 h 86 L 240,192 373,-3 c 52,3 52,3 61,3 10,0 10,0 62,-3 v 30 l -25,3 c -12,1 -24,9 -35,24 z"
               stroke="#000000"
               stroke-opacity="1"
               stroke-width="24"
               fill="#000000"
               fill-opacity="1"
               id="path1327" />
          </g>
        </g>
        <g
           id="g1343">
          <g
             id="g1341">
            <g
               id="g1339">
              <g
                 id="g1337">
                <g
                   transform="translate(312.01041,43.665418)"
                   id="g1335">
                  <path
                     transform="scale(0.01428,-0.01428)"
                     d="m 418,-3 v 30 l -52,3 c -55,3 -65,14 -65,66 V 700 L 60,598 67,548 217,614 V 96 C 217,44 206,33 152,30 L 96,27 V -3 c 154,3 154,3 165,3 31,0 141,-3 157,-3 z"
                     stroke="#000000"
                     stroke-opacity="1"
                     stroke-width="8"
                     fill="#000000"
                     fill-opacity="1"
                     id="path1333" />
                </g>
              </g>
            </g>
          </g>
        </g>
        <g
           id="g1349">
          <g
             transform="translate(320.36459,40.066667)"
             id="g1347">
            <path
               transform="scale(0.0204,-0.0204)"
               d="M 51,726 32,700 C 87,636 187,526 187,266 187,-10 83,-131 32,-194 l 19,-21 c 53,50 222,192 222,480 0,277 -165,410 -222,461 z"
               stroke="#000000"
               stroke-opacity="1"
               stroke-width="8"
               fill="#000000"
               fill-opacity="1"
               id="path1345" />
          </g>
        </g>
        <g
           id="g1355">
          <g
             transform="translate(327.13541,40.066667)"
             id="g1353">
            <path
               transform="scale(0.0204,-0.0204)"
               d="M 51,726 32,700 C 87,636 187,526 187,266 187,-10 83,-131 32,-194 l 19,-21 c 53,50 222,192 222,480 0,277 -165,410 -222,461 z"
               stroke="#000000"
               stroke-opacity="1"
               stroke-width="8"
               fill="#000000"
               fill-opacity="1"
               id="path1351" />
          </g>
        </g>
        <g
           id="g1361">
          <g
             transform="translate(337.97916,39.4)"
             id="g1359">
            <path
               transform="scale(0.0204,-0.0204)"
               d="m 604,241 v 59 H 364 V 538 H 305 V 300 H 65 V 241 H 305 V 0 h 59 v 241 z"
               stroke="#000000"
               stroke-opacity="1"
               stroke-width="8"
               fill="#000000"
               fill-opacity="1"
               id="path1357" />
          </g>
        </g>
        <g
           id="g1367">
          <g
             transform="translate(355.67709,39.4)"
             id="g1365">
            <path
               transform="scale(0.0204,-0.0204)"
               d="m 349,664 3,28 -114,-3 c -16,0 -34,0 -77,1 l -64,2 -3,-28 47,-2 c 24,-1 35,-9 35,-27 L 81,55 C 77,37 65,30 21,23 l -5,-26 41,1 c 31,1 93,2 113,2 0,0 297,-1 297,-1 0,0 33,1 33,1 -1,25 10,103 23,165 H 492 L 475,103 C 466,71 457,54 448,49 435,44 371,39 304,39 c -49,0 -76,1 -142,7 3,18 94,559 94,567 7,38 14,45 51,48 z"
               stroke="#000000"
               stroke-opacity="1"
               stroke-width="8"
               fill="#000000"
               fill-opacity="1"
               id="path1363" />
          </g>
        </g>
        <g
           id="g1373">
          <g
             transform="translate(367.00003,40.066667)"
             id="g1371">
            <path
               transform="scale(0.0204,-0.0204)"
               d="m 146,266 c 0,260 97,366 155,434 l -19,26 C 225,675 60,542 60,266 60,159 85,58 133,-32 c 35,-67 67,-106 149,-183 l 19,21 c -46,57 -155,179 -155,460 z"
               stroke="#000000"
               stroke-opacity="1"
               stroke-width="8"
               fill="#000000"
               fill-opacity="1"
               id="path1369" />
          </g>
        </g>
        <g
           id="g1379">
          <g
             transform="translate(373.77084,39.4)"
             id="g1377">
            <path
               transform="scale(0.0204,-0.0204)"
               d="m -7,-180 c -1,-7 -1,-13 -1,-18 0,-43 37,-78 82,-78 106,0 216,124 275,309 l 141,440 -11,9 C 450,471 427,465 405,463 L 370,331 C 358,284 323,211 290,162 255,111 206,67 184,67 c -12,0 -21,23 -20,48 l 16,207 c 2,31 4,69 4,97 0,45 -7,63 -24,63 -13,0 -27,-7 -75,-40 L 3,386 14,368 64,398 c 5,3 16,12 25,12 14,0 22,-19 22,-52 0,-1 0,-7 -1,-15 L 93,100 92,60 c 0,-42 18,-71 43,-71 37,0 121,85 196,198 L 282,16 c -51,-177 -101,-250 -171,-250 -35,0 -62,27 -62,62 0,5 1,13 2,22 l -10,4 z"
               stroke="#000000"
               stroke-opacity="1"
               stroke-width="8"
               fill="#000000"
               fill-opacity="1"
               id="path1375" />
          </g>
        </g>
        <g
           id="g1391">
          <g
             id="g1389">
            <g
               id="g1387">
              <g
                 id="g1385">
                <g
                   transform="translate(384.55209,43.665418)"
                   id="g1383">
                  <path
                     transform="scale(0.01428,-0.01428)"
                     d="M 16,23 V -3 c 187,0 187,3 223,3 36,0 36,-3 229,-3 V 82 C 353,77 307,81 122,77 l 182,193 c 97,103 127,158 127,233 0,115 -78,186 -205,186 -72,0 -121,-20 -170,-70 L 39,483 h 29 l 13,46 c 16,58 52,83 119,83 86,0 141,-54 141,-139 0,-75 -42,-149 -155,-269 z"
                     stroke="#000000"
                     stroke-opacity="1"
                     stroke-width="8"
                     fill="#000000"
                     fill-opacity="1"
                     id="path1381" />
                </g>
              </g>
            </g>
          </g>
        </g>
        <g
           id="g1397">
          <g
             transform="translate(392.90628,39.4)"
             id="g1395">
            <path
               transform="scale(0.0204,-0.0204)"
               d="M 204,123 C 177,114 159,108 106,93 99,17 74,-48 16,-144 l 14,-11 41,19 c 81,105 119,168 147,245 z"
               stroke="#000000"
               stroke-opacity="1"
               stroke-width="8"
               fill="#000000"
               fill-opacity="1"
               id="path1393" />
          </g>
        </g>
        <g
           id="g1403">
          <g
             transform="translate(402.06253,39.4)"
             id="g1401">
            <path
               transform="scale(0.0204,-0.0204)"
               d="m 345,437 h -16 l 21,112 c 16,86 44,124 90,124 30,0 57,-15 72,-39 l 10,4 c 5,16 15,47 23,67 l 5,15 c -16,7 -47,13 -70,13 -11,0 -27,-3 -35,-7 C 421,715 339,654 316,630 294,608 282,578 271,521 l -15,-79 c -41,-20 -61,-28 -86,-37 l -5,-22 h 81 l -9,-56 c -30,-195 -67,-381 -89,-450 -18,-59 -48,-90 -84,-90 -23,0 -34,7 -52,29 l -14,-4 c -4,-23 -18,-71 -23,-80 9,-5 24,-8 35,-8 41,0 95,31 134,78 71,84 91,180 175,581 h 104 c 4,19 11,42 17,56 l -4,7 c -29,-7 -28,-9 -91,-9 z"
               stroke="#000000"
               stroke-opacity="1"
               stroke-width="8"
               fill="#000000"
               fill-opacity="1"
               id="path1399" />
          </g>
        </g>
        <g
           id="g1409">
          <g
             transform="translate(413.28128,40.066667)"
             id="g1407">
            <path
               transform="scale(0.0204,-0.0204)"
               d="m 146,266 c 0,260 97,366 155,434 l -19,26 C 225,675 60,542 60,266 60,159 85,58 133,-32 c 35,-67 67,-106 149,-183 l 19,21 c -46,57 -155,179 -155,460 z"
               stroke="#000000"
               stroke-opacity="1"
               stroke-width="8"
               fill="#000000"
               fill-opacity="1"
               id="path1405" />
          </g>
        </g>
        <g
           id="g1415">
          <g
             transform="translate(420.05209,39.4)"
             id="g1413">
            <path
               transform="scale(0.0204,-0.0204)"
               d="m 288,254 142,166 c 6,7 17,11 34,11 h 14 v 28 H 396 L 272,284 196,400 c -15,22 -26,35 -60,69 l -116,-20 5,-26 21,-2 c 18,-1 40,-15 50,-29 L 216,218 67,42 C 60,33 47,27 37,27 H 20 V 0 h 86 L 240,192 373,-3 c 52,3 52,3 61,3 10,0 10,0 62,-3 v 30 l -25,3 c -12,1 -24,9 -35,24 z"
               stroke="#000000"
               stroke-opacity="1"
               stroke-width="24"
               fill="#000000"
               fill-opacity="1"
               id="path1411" />
          </g>
        </g>
        <g
           id="g1427">
          <g
             id="g1425">
            <g
               id="g1423">
              <g
                 id="g1421">
                <g
                   transform="translate(431.16666,43.665418)"
                   id="g1419">
                  <path
                     transform="scale(0.01428,-0.01428)"
                     d="M 16,23 V -3 c 187,0 187,3 223,3 36,0 36,-3 229,-3 V 82 C 353,77 307,81 122,77 l 182,193 c 97,103 127,158 127,233 0,115 -78,186 -205,186 -72,0 -121,-20 -170,-70 L 39,483 h 29 l 13,46 c 16,58 52,83 119,83 86,0 141,-54 141,-139 0,-75 -42,-149 -155,-269 z"
                     stroke="#000000"
                     stroke-opacity="1"
                     stroke-width="8"
                     fill="#000000"
                     fill-opacity="1"
                     id="path1417" />
                </g>
              </g>
            </g>
          </g>
        </g>
        <g
           id="g1433">
          <g
             transform="translate(439.52084,40.066667)"
             id="g1431">
            <path
               transform="scale(0.0204,-0.0204)"
               d="M 51,726 32,700 C 87,636 187,526 187,266 187,-10 83,-131 32,-194 l 19,-21 c 53,50 222,192 222,480 0,277 -165,410 -222,461 z"
               stroke="#000000"
               stroke-opacity="1"
               stroke-width="8"
               fill="#000000"
               fill-opacity="1"
               id="path1429" />
          </g>
        </g>
        <g
           id="g1439">
          <g
             transform="translate(446.29166,40.066667)"
             id="g1437">
            <path
               transform="scale(0.0204,-0.0204)"
               d="M 51,726 32,700 C 87,636 187,526 187,266 187,-10 83,-131 32,-194 l 19,-21 c 53,50 222,192 222,480 0,277 -165,410 -222,461 z"
               stroke="#000000"
               stroke-opacity="1"
               stroke-width="8"
               fill="#000000"
               fill-opacity="1"
               id="path1435" />
          </g>
        </g>
      </g>
    </g>
    <g
       id="g1579">
      <g
         id="g1577">
        <g
           id="g1449">
          <g
             transform="translate(194.66666,503.4)"
             id="g1447">
            <path
               transform="scale(0.0204,-0.0204)"
               d="m 345,437 h -16 l 21,112 c 16,86 44,124 90,124 30,0 57,-15 72,-39 l 10,4 c 5,16 15,47 23,67 l 5,15 c -16,7 -47,13 -70,13 -11,0 -27,-3 -35,-7 C 421,715 339,654 316,630 294,608 282,578 271,521 l -15,-79 c -41,-20 -61,-28 -86,-37 l -5,-22 h 81 l -9,-56 c -30,-195 -67,-381 -89,-450 -18,-59 -48,-90 -84,-90 -23,0 -34,7 -52,29 l -14,-4 c -4,-23 -18,-71 -23,-80 9,-5 24,-8 35,-8 41,0 95,31 134,78 71,84 91,180 175,581 h 104 c 4,19 11,42 17,56 l -4,7 c -29,-7 -28,-9 -91,-9 z"
               stroke="#000000"
               stroke-opacity="1"
               stroke-width="8"
               fill="#000000"
               fill-opacity="1"
               id="path1445" />
          </g>
        </g>
        <g
           id="g1461">
          <g
             id="g1459">
            <g
               id="g1457">
              <g
                 id="g1455">
                <g
                   transform="translate(206.48959,507.66544)"
                   id="g1453">
                  <path
                     transform="scale(0.01428,-0.01428)"
                     d="M 730,103 704,86 C 675,67 653,56 643,56 c -7,0 -13,9 -13,20 0,10 2,19 7,40 l 75,297 c 4,17 7,33 7,41 0,17 -10,28 -26,28 -29,0 -67,-18 -128,-61 -63,-45 -98,-80 -147,-149 l 30,137 c 4,20 7,35 7,42 0,19 -10,31 -26,31 -30,0 -76,-22 -131,-64 -44,-34 -64,-55 -129,-143 l 33,133 c 4,16 6,31 6,43 0,19 -9,31 -23,31 -21,0 -59,-21 -133,-74 l -28,-20 7,-20 c 37,23 72,46 79,46 11,0 18,-10 18,-25 C 128,338 87,145 46,2 l 3,-11 68,15 22,102 c 24,111 51,170 106,230 42,46 87,76 115,76 7,0 11,-8 11,-21 0,-35 -22,-149 -63,-324 l -16,-67 5,-11 69,15 21,107 c 16,81 50,156 94,205 55,61 105,96 137,96 8,0 13,-9 13,-25 0,-24 -3,-38 -25,-125 C 566,105 550,84 550,31 c 0,-25 11,-40 30,-40 26,0 62,21 160,94 z"
                     stroke="#000000"
                     stroke-opacity="1"
                     stroke-width="8"
                     fill="#000000"
                     fill-opacity="1"
                     id="path1451" />
                </g>
              </g>
            </g>
          </g>
        </g>
        <g
           id="g1467">
          <g
             transform="translate(218.81253,504.06669)"
             id="g1465">
            <path
               transform="scale(0.0204,-0.0204)"
               d="m 146,266 c 0,260 97,366 155,434 l -19,26 C 225,675 60,542 60,266 60,159 85,58 133,-32 c 35,-67 67,-106 149,-183 l 19,21 c -46,57 -155,179 -155,460 z"
               stroke="#000000"
               stroke-opacity="1"
               stroke-width="8"
               fill="#000000"
               fill-opacity="1"
               id="path1463" />
          </g>
        </g>
        <g
           id="g1473">
          <g
             transform="translate(225.58334,503.4)"
             id="g1471">
            <path
               transform="scale(0.0204,-0.0204)"
               d="m 288,254 142,166 c 6,7 17,11 34,11 h 14 v 28 H 396 L 272,284 196,400 c -15,22 -26,35 -60,69 l -116,-20 5,-26 21,-2 c 18,-1 40,-15 50,-29 L 216,218 67,42 C 60,33 47,27 37,27 H 20 V 0 h 86 L 240,192 373,-3 c 52,3 52,3 61,3 10,0 10,0 62,-3 v 30 l -25,3 c -12,1 -24,9 -35,24 z"
               stroke="#000000"
               stroke-opacity="1"
               stroke-width="24"
               fill="#000000"
               fill-opacity="1"
               id="path1469" />
          </g>
        </g>
        <g
           id="g1479">
          <g
             transform="translate(236.09378,504.06669)"
             id="g1477">
            <path
               transform="scale(0.0204,-0.0204)"
               d="M 51,726 32,700 C 87,636 187,526 187,266 187,-10 83,-131 32,-194 l 19,-21 c 53,50 222,192 222,480 0,277 -165,410 -222,461 z"
               stroke="#000000"
               stroke-opacity="1"
               stroke-width="8"
               fill="#000000"
               fill-opacity="1"
               id="path1475" />
          </g>
        </g>
        <g
           id="g1485">
          <g
             transform="translate(248.97916,503.4)"
             id="g1483">
            <path
               transform="scale(0.0204,-0.0204)"
               d="m 604,347 v 59 H 65 v -59 z m 0,-213 v 59 H 65 v -59 z"
               stroke="#000000"
               stroke-opacity="1"
               stroke-width="8"
               fill="#000000"
               fill-opacity="1"
               id="path1481" />
          </g>
        </g>
        <g
           id="g1491">
          <g
             transform="translate(268.71878,503.4)"
             id="g1489">
            <path
               transform="scale(0.0204,-0.0204)"
               d="m 345,437 h -16 l 21,112 c 16,86 44,124 90,124 30,0 57,-15 72,-39 l 10,4 c 5,16 15,47 23,67 l 5,15 c -16,7 -47,13 -70,13 -11,0 -27,-3 -35,-7 C 421,715 339,654 316,630 294,608 282,578 271,521 l -15,-79 c -41,-20 -61,-28 -86,-37 l -5,-22 h 81 l -9,-56 c -30,-195 -67,-381 -89,-450 -18,-59 -48,-90 -84,-90 -23,0 -34,7 -52,29 l -14,-4 c -4,-23 -18,-71 -23,-80 9,-5 24,-8 35,-8 41,0 95,31 134,78 71,84 91,180 175,581 h 104 c 4,19 11,42 17,56 l -4,7 c -29,-7 -28,-9 -91,-9 z"
               stroke="#000000"
               stroke-opacity="1"
               stroke-width="8"
               fill="#000000"
               fill-opacity="1"
               id="path1487" />
          </g>
        </g>
        <g
           id="g1503">
          <g
             id="g1501">
            <g
               id="g1499">
              <g
                 id="g1497">
                <g
                   transform="translate(280.54166,507.66544)"
                   id="g1495">
                  <path
                     transform="scale(0.01428,-0.01428)"
                     d="M 730,103 704,86 C 675,67 653,56 643,56 c -7,0 -13,9 -13,20 0,10 2,19 7,40 l 75,297 c 4,17 7,33 7,41 0,17 -10,28 -26,28 -29,0 -67,-18 -128,-61 -63,-45 -98,-80 -147,-149 l 30,137 c 4,20 7,35 7,42 0,19 -10,31 -26,31 -30,0 -76,-22 -131,-64 -44,-34 -64,-55 -129,-143 l 33,133 c 4,16 6,31 6,43 0,19 -9,31 -23,31 -21,0 -59,-21 -133,-74 l -28,-20 7,-20 c 37,23 72,46 79,46 11,0 18,-10 18,-25 C 128,338 87,145 46,2 l 3,-11 68,15 22,102 c 24,111 51,170 106,230 42,46 87,76 115,76 7,0 11,-8 11,-21 0,-35 -22,-149 -63,-324 l -16,-67 5,-11 69,15 21,107 c 16,81 50,156 94,205 55,61 105,96 137,96 8,0 13,-9 13,-25 0,-24 -3,-38 -25,-125 C 566,105 550,84 550,31 c 0,-25 11,-40 30,-40 26,0 62,21 160,94 z m 602,140 v 56 H 828 V 243 Z M 1800,-3 v 30 l -52,3 c -55,3 -65,14 -65,66 v 604 l -241,-102 7,-50 150,66 V 96 c 0,-52 -11,-63 -65,-66 l -56,-3 V -3 c 154,3 154,3 165,3 31,0 141,-3 157,-3 z"
                     stroke="#000000"
                     stroke-opacity="1"
                     stroke-width="8"
                     fill="#000000"
                     fill-opacity="1"
                     id="path1493" />
                </g>
              </g>
            </g>
          </g>
        </g>
        <g
           id="g1509">
          <g
             transform="translate(308.62503,504.06669)"
             id="g1507">
            <path
               transform="scale(0.0204,-0.0204)"
               d="m 146,266 c 0,260 97,366 155,434 l -19,26 C 225,675 60,542 60,266 60,159 85,58 133,-32 c 35,-67 67,-106 149,-183 l 19,21 c -46,57 -155,179 -155,460 z"
               stroke="#000000"
               stroke-opacity="1"
               stroke-width="8"
               fill="#000000"
               fill-opacity="1"
               id="path1505" />
          </g>
        </g>
        <g
           id="g1515">
          <g
             transform="translate(315.39584,503.4)"
             id="g1513">
            <path
               transform="scale(0.0204,-0.0204)"
               d="m 288,254 142,166 c 6,7 17,11 34,11 h 14 v 28 H 396 L 272,284 196,400 c -15,22 -26,35 -60,69 l -116,-20 5,-26 21,-2 c 18,-1 40,-15 50,-29 L 216,218 67,42 C 60,33 47,27 37,27 H 20 V 0 h 86 L 240,192 373,-3 c 52,3 52,3 61,3 10,0 10,0 62,-3 v 30 l -25,3 c -12,1 -24,9 -35,24 z"
               stroke="#000000"
               stroke-opacity="1"
               stroke-width="24"
               fill="#000000"
               fill-opacity="1"
               id="path1511" />
          </g>
        </g>
        <g
           id="g1521">
          <g
             transform="translate(325.90628,504.06669)"
             id="g1519">
            <path
               transform="scale(0.0204,-0.0204)"
               d="M 51,726 32,700 C 87,636 187,526 187,266 187,-10 83,-131 32,-194 l 19,-21 c 53,50 222,192 222,480 0,277 -165,410 -222,461 z"
               stroke="#000000"
               stroke-opacity="1"
               stroke-width="8"
               fill="#000000"
               fill-opacity="1"
               id="path1517" />
          </g>
        </g>
        <g
           id="g1527">
          <g
             transform="translate(336.75003,503.4)"
             id="g1525">
            <path
               transform="scale(0.0204,-0.0204)"
               d="m 604,241 v 59 H 364 V 538 H 305 V 300 H 65 V 241 H 305 V 0 h 59 v 241 z"
               stroke="#000000"
               stroke-opacity="1"
               stroke-width="8"
               fill="#000000"
               fill-opacity="1"
               id="path1523" />
          </g>
        </g>
        <g
           id="g1533">
          <g
             transform="translate(354.44791,503.4)"
             id="g1531">
            <path
               transform="scale(0.0204,-0.0204)"
               d="m 390,646 h 73 c 78,0 114,-5 117,-17 3,-8 5,-27 4,-37 l -4,-64 h 28 l 27,164 -91,-1 c -88,-1 -156,-2 -191,-2 -37,0 -101,1 -187,2 L 71,692 53,528 h 29 l 15,60 c 5,22 12,38 18,45 6,7 44,13 81,13 H 308 L 222,125 C 206,34 204,31 164,28 l -51,-3 -4,-28 57,1 c 40,1 69,2 85,2 19,0 50,-1 89,-2 l 44,-1 3,28 -59,3 c -26,1 -36,9 -36,30 0,9 1,16 4,35 z"
               stroke="#000000"
               stroke-opacity="1"
               stroke-width="8"
               fill="#000000"
               fill-opacity="1"
               id="path1529" />
          </g>
        </g>
        <g
           id="g1539">
          <g
             transform="translate(366.89584,504.06669)"
             id="g1537">
            <path
               transform="scale(0.0204,-0.0204)"
               d="m 146,266 c 0,260 97,366 155,434 l -19,26 C 225,675 60,542 60,266 60,159 85,58 133,-32 c 35,-67 67,-106 149,-183 l 19,21 c -46,57 -155,179 -155,460 z"
               stroke="#000000"
               stroke-opacity="1"
               stroke-width="8"
               fill="#000000"
               fill-opacity="1"
               id="path1535" />
          </g>
        </g>
        <g
           id="g1545">
          <g
             transform="translate(373.66666,503.4)"
             id="g1543">
            <path
               transform="scale(0.0204,-0.0204)"
               d="m 288,254 142,166 c 6,7 17,11 34,11 h 14 v 28 H 396 L 272,284 196,400 c -15,22 -26,35 -60,69 l -116,-20 5,-26 21,-2 c 18,-1 40,-15 50,-29 L 216,218 67,42 C 60,33 47,27 37,27 H 20 V 0 h 86 L 240,192 373,-3 c 52,3 52,3 61,3 10,0 10,0 62,-3 v 30 l -25,3 c -12,1 -24,9 -35,24 z"
               stroke="#000000"
               stroke-opacity="1"
               stroke-width="24"
               fill="#000000"
               fill-opacity="1"
               id="path1541" />
          </g>
        </g>
        <g
           id="g1551">
          <g
             transform="translate(384.17709,503.4)"
             id="g1549">
            <path
               transform="scale(0.0204,-0.0204)"
               d="M 204,125 C 177,116 159,110 106,95 99,19 74,-46 16,-142 l 14,-11 41,19 c 81,105 119,168 147,245 z m -54,331 c -30,0 -57,-28 -57,-58 0,-30 27,-58 56,-58 32,0 60,27 60,57 0,31 -28,59 -59,59 z"
               stroke="#000000"
               stroke-opacity="1"
               stroke-width="8"
               fill="#000000"
               fill-opacity="1"
               id="path1547" />
          </g>
        </g>
        <g
           id="g1557">
          <g
             transform="translate(393.33334,503.4)"
             id="g1555">
            <path
               transform="scale(0.0204,-0.0204)"
               d="M 764,367 C 764,589 612,709 398,709 166,709 22,550 22,344 22,120 174,-20 377,-20 596,-20 764,152 764,367 Z M 657,336 C 657,152 576,22 409,22 211,22 129,206 129,381 c 0,164 79,286 253,286 186,0 275,-133 275,-331 z M 238,481 h -15 l -3,-4 c 1,-76 1,-152 0,-228 l 3,-4 h 15 l 3,4 c 10,45 9,78 63,78 h 178 c 55,0 54,-33 63,-78 l 4,-4 h 14 l 3,4 c -1,76 -1,152 0,228 l -3,4 h -14 l -4,-4 c -9,-44 -8,-77 -63,-77 H 304 c -68,0 -52,62 -66,81 z"
               stroke="#000000"
               stroke-opacity="1"
               stroke-width="8"
               fill="#000000"
               fill-opacity="1"
               id="path1553" />
          </g>
        </g>
        <g
           id="g1569">
          <g
             id="g1567">
            <g
               id="g1565">
              <g
                 id="g1563">
                <g
                   transform="translate(409.94791,507.66544)"
                   id="g1561">
                  <path
                     transform="scale(0.01428,-0.01428)"
                     d="M 730,103 704,86 C 675,67 653,56 643,56 c -7,0 -13,9 -13,20 0,10 2,19 7,40 l 75,297 c 4,17 7,33 7,41 0,17 -10,28 -26,28 -29,0 -67,-18 -128,-61 -63,-45 -98,-80 -147,-149 l 30,137 c 4,20 7,35 7,42 0,19 -10,31 -26,31 -30,0 -76,-22 -131,-64 -44,-34 -64,-55 -129,-143 l 33,133 c 4,16 6,31 6,43 0,19 -9,31 -23,31 -21,0 -59,-21 -133,-74 l -28,-20 7,-20 c 37,23 72,46 79,46 11,0 18,-10 18,-25 C 128,338 87,145 46,2 l 3,-11 68,15 22,102 c 24,111 51,170 106,230 42,46 87,76 115,76 7,0 11,-8 11,-21 0,-35 -22,-149 -63,-324 l -16,-67 5,-11 69,15 21,107 c 16,81 50,156 94,205 55,61 105,96 137,96 8,0 13,-9 13,-25 0,-24 -3,-38 -25,-125 C 566,105 550,84 550,31 c 0,-25 11,-40 30,-40 26,0 62,21 160,94 z"
                     stroke="#000000"
                     stroke-opacity="1"
                     stroke-width="8"
                     fill="#000000"
                     fill-opacity="1"
                     id="path1559" />
                </g>
              </g>
            </g>
          </g>
        </g>
        <g
           id="g1575">
          <g
             transform="translate(422.27084,504.06669)"
             id="g1573">
            <path
               transform="scale(0.0204,-0.0204)"
               d="M 51,726 32,700 C 87,636 187,526 187,266 187,-10 83,-131 32,-194 l 19,-21 c 53,50 222,192 222,480 0,277 -165,410 -222,461 z"
               stroke="#000000"
               stroke-opacity="1"
               stroke-width="8"
               fill="#000000"
               fill-opacity="1"
               id="path1571" />
          </g>
        </g>
      </g>
    </g>
  </svg>
</svg>
