<?xml version="1.0" encoding="UTF-8" standalone="no"?>
<svg
   t="1636783296700"
   class="icon"
   viewBox="0 0 2629 537.6"
   version="1.1"
   p-id="28002"
   width="513.47656"
   height="105"
   id="svg37"
   sodipodi:docname="xgboost.svg"
   inkscape:version="1.1.2 (b8e25be833, 2022-02-05)"
   xmlns:inkscape="http://www.inkscape.org/namespaces/inkscape"
   xmlns:sodipodi="http://sodipodi.sourceforge.net/DTD/sodipodi-0.dtd"
   xmlns="http://www.w3.org/2000/svg"
   xmlns:svg="http://www.w3.org/2000/svg">
  <sodipodi:namedview
     id="namedview39"
     pagecolor="#ffffff"
     bordercolor="#666666"
     borderopacity="1.0"
     inkscape:pageshadow="2"
     inkscape:pageopacity="0.0"
     inkscape:pagecheckerboard="0"
     showgrid="false"
     height="100px"
     inkscape:zoom="1.8735032"
     inkscape:cx="242.86054"
     inkscape:cy="99.813012"
     inkscape:window-width="1920"
     inkscape:window-height="986"
     inkscape:window-x="-11"
     inkscape:window-y="-11"
     inkscape:window-maximized="1"
     inkscape:current-layer="svg37" />
  <defs
     id="defs27">
    <style
       type="text/css"
       id="style25" />
  </defs>
  <path
     d="M 0,530.2302 H 116.68111 L 239.93581,348.79928 278.88429,530.2302 H 395.5654 L 324.24202,264.49307 512.24651,11.57444 H 395.5654 L 278.88429,199.57893 239.93581,5.00085 H 129.66394 l 71.32338,259.49222 z"
     fill="#f89939"
     p-id="28003"
     id="path29" />
  <path
     d="m 677.57214,326.4491 19.55641,-84.30621 h 155.6296 l -51.93132,220.54373 c 0,0 -6.40924,64.7498 -45.35772,64.7498 H 606.24876 c 0,0 -110.27187,12.98278 -136.07319,-116.68111 0,0 -19.55641,-142.64677 38.78415,-246.50939 58.34055,-103.86262 103.86262,-123.2547 103.86262,-123.2547 0,0 77.73263,-71.32338 285.29353,-12.98282 l -12.98283,77.89696 -84.30621,-6.57358 c 0,0 -103.69828,-19.39207 -149.22035,32.86792 -45.52206,52.25999 -77.73262,129.82828 -77.73262,265.90146 a 57.190178,57.190178 0 0 0 45.35772,51.93131 h 77.89697 L 729.99647,326.77778 Z M 1293.6813,202.70138 A 239.77146,239.77146 0 0 0 1306.6641,99.0031 c 0,0 -12.9828,-84.79923 -116.8455,-90.71545 H 982.42208 L 865.74097,526.9434 h 188.00453 c 0,0 116.6811,12.9828 180.7735,-71.32338 64.0925,-84.30622 25.8013,-175.02167 -12.9828,-188.0045 a 137.55224,137.55224 0 0 0 72.1451,-64.91414 z M 1099.1032,439.51474 H 988.83133 l 32.86787,-126.54149 h 97.1247 c 0,0 35.6617,3.28679 38.9485,51.93131 3.2868,48.64452 -58.6692,74.61018 -58.6692,74.61018 z m 81.0194,-239.93581 a 65.735837,65.735837 0 0 1 -49.3019,25.96566 h -90.0581 l 32.868,-123.2547 h 84.3062 c 54.7251,19.39207 41.7422,71.32338 22.1858,97.28904 z m 775.5185,-44.70037 c -79.2116,-45.68641 -191.1269,0 -250.1248,102.38357 -58.9979,102.38356 -42.7283,222.02279 36.319,267.70919 79.0474,45.68638 191.127,0 250.1249,-102.38356 58.9979,-102.38357 43.057,-222.02279 -36.3191,-267.7092 z m -49.3018,208.71128 c -21.6929,59.65528 -65.7359,98.60376 -99.5898,86.11395 -33.854,-12.48981 -42.564,-70.33735 -20.8711,-129.82828 21.6928,-59.49093 65.7358,-98.60375 98.6037,-86.11394 32.8679,12.4898 44.043,70.33734 21.8572,129.82827 z m 437.8006,-121.93997 19.3921,-77.73263 a 340.01862,340.01862 0 0 0 -180.7735,-19.55641 162.6962,162.6962 0 0 0 -116.6811,103.86262 c 0,0 -32.868,97.1247 77.8969,129.66394 110.7649,32.53924 71.3234,51.76697 51.767,64.7498 -19.5564,12.98282 -103.6983,0 -103.6983,0 l -58.3405,-6.40925 -19.3921,77.73263 51.767,12.98283 a 394.41502,394.41502 0 0 0 162.2031,0 112.40828,112.40828 0 0 0 90.7155,-103.69828 v -65.73584 c 0,0 -14.7906,-37.46943 -110.2719,-64.7498 -45.3577,-12.98283 -42.2353,-43.38565 -19.3921,-58.34055 a 47.822821,47.822821 0 0 1 32.868,-6.57359 c 18.2417,0.8217 121.9399,13.80453 121.9399,13.80453 z m 64.7498,-94.00225 -19.392,87.593 h 38.9485 l -25.9657,129.66394 c 0,0 -19.3921,97.28904 -19.3921,110.27187 a 74.117156,74.117156 0 0 0 58.3406,58.34057 222.18713,222.18713 0 0 0 71.3234,0 l 45.3577,-12.98284 v -71.32339 h -45.3577 c 0,0 -19.5564,0 -19.5564,-12.98283 0,-12.98282 38.9484,-200.98732 38.9484,-200.98732 h 84.3063 l 12.9828,-87.593 h -77.7326 l 25.8013,-100.57583 h -110.1076 l -18.7347,100.57583 z"
     fill="#179fdd"
     p-id="28004"
     id="path31" />
  <path
     d="m 1586.3701,154.87856 c -79.2117,-45.68641 -191.127,0 -250.1249,102.38357 -58.9979,102.38356 -42.7283,222.02279 36.3191,267.70919 79.0473,45.68638 191.1269,0 250.1248,-102.38356 58.9979,-102.38357 42.7283,-222.02279 -36.319,-267.7092 z m -49.3019,208.71128 c -21.6928,59.65528 -65.7358,98.60376 -99.5898,86.11395 -33.8539,-12.48981 -42.5639,-70.33735 -20.8711,-129.82828 21.6928,-59.49093 65.7358,-98.60375 99.4254,-86.11394 33.6897,12.4898 42.8927,70.33734 21.1998,129.82827 z"
     fill="#179fdd"
     p-id="28006"
     id="path35" />
</svg>
