<?xml version="1.0" encoding="UTF-8" standalone="no"?>
<svg
   x="0"
   y="0"
   width="380"
   height="200"
   viewBox="0 0 380 200"
   version="1.1"
   encoding="UTF-8"
   id="svg67"
   sodipodi:docname="Galileo_telescope.svg"
   inkscape:version="1.2.2 (b0a8486, 2022-12-01)"
   xmlns:inkscape="http://www.inkscape.org/namespaces/inkscape"
   xmlns:sodipodi="http://sodipodi.sourceforge.net/DTD/sodipodi-0.dtd"
   xmlns="http://www.w3.org/2000/svg"
   xmlns:svg="http://www.w3.org/2000/svg"
   xmlns:rdf="http://www.w3.org/1999/02/22-rdf-syntax-ns#"
   xmlns:cc="http://creativecommons.org/ns#"
   xmlns:dc="http://purl.org/dc/elements/1.1/">
  <sodipodi:namedview
     id="namedview69"
     pagecolor="#ffffff"
     bordercolor="#000000"
     borderopacity="0.25"
     inkscape:showpageshadow="2"
     inkscape:pageopacity="0.0"
     inkscape:pagecheckerboard="0"
     inkscape:deskcolor="#d1d1d1"
     showgrid="false"
     inkscape:zoom="2.64"
     inkscape:cx="206.81818"
     inkscape:cy="121.21212"
     inkscape:window-width="1280"
     inkscape:window-height="680"
     inkscape:window-x="0"
     inkscape:window-y="25"
     inkscape:window-maximized="0"
     inkscape:current-layer="svg67" />
  <title
     id="title2">Galileo telescope</title>
  <defs
     id="defs15491">
    <marker
       orient="auto"
       markerHeight="3"
       markerWidth="3"
       refY="5"
       refX="1"
       viewBox="0 0 10 10"
       id="arrow">
      <path
         fill="red"
         d="m0,0l10,5l-10,5l0,-10z"
         id="path89" />
    </marker>
    <marker
       orient="auto"
       markerHeight="5"
       markerWidth="5"
       refY="5"
       refX="1"
       viewBox="0 0 10 10"
       id="a2">
      <path
         stroke="orange"
         stroke-width="2"
         fill="none"
         d="m0,0l10,5l-10,5"
         id="path92" />
    </marker>
    <linearGradient
       id="linearGradient11284">
      <stop
         style="stop-color:#717071;stop-opacity:1;"
         offset="0"
         id="stop11282" />
    </linearGradient>
    <filter
       style="color-interpolation-filters:sRGB"
       id="filter15685"
       x="-0.020703181"
       y="-0.012841916"
       width="1.1318783"
       height="1.0317712">
      <feGaussianBlur
         stdDeviation="0.029430329"
         id="feGaussianBlur15687" />
    </filter>
    <filter
       style="color-interpolation-filters:sRGB"
       id="filter15689"
       x="-0.005411379"
       y="-0.0020851174"
       width="1.0108228"
       height="1.0041702">
      <feGaussianBlur
         stdDeviation="0.01272477"
         id="feGaussianBlur15691" />
    </filter>
  </defs>
  <g
     transform="translate(100,100)"
     id="g15499">
    <!-- 中线 -->
    <line
       x1="-80"
       y1="0"
       x2="260"
       y2="0"
       stroke="gray"
       stroke-width="1"
       stroke-dasharray="10,5,2,5"
       id="line15493" />
    <!-- 物镜 -->
    <ellipse
       cx="0"
       cy="0"
       rx="6"
       ry="52"
       fill="#19AEFF"
       stroke="#0084C8"
       fill-opacity="0.5"
       id="ellipse15495" />
    <text
       font-family="Serif"
       text-anchor="middle"
       font-size="10"
       x="0"
       y="75"
       id="text15497">物镜</text>
  </g>
  <g
     transform="translate(260,100)"
     id="g15571">
    <!-- 目镜 -->
    <path
       d="M-8 -40Q0 0 -8 40L8 40Q0 0 8 -40z"
       fill="#19AEFF"
       stroke="#0084C8"
       fill-opacity="0.5"
       id="path15501" />
    <text
       font-family="Serif"
       text-anchor="middle"
       font-size="10"
       x="0"
       y="75"
       id="text15503">目镜</text>
    <!-- 焦距 -->
    <g
       stroke="black"
       stroke-width="1"
       fill="none"
       id="g15511">
      <path
         d="m-40,0l0,-3"
         id="path15505" />
      <path
         d="m40,0l0,-3"
         id="path15507" />
      <path
         d="m80,0l0,-3"
         id="path15509" />
    </g>
    <text
       font-family="Serif"
       text-anchor="middle"
       font-size="8"
       id="text15517"><tspan
         x="-45"
         y="8"
         id="tspan15513">F2</tspan><tspan
         x="40"
         y="8"
         id="tspan15515">F1 (F2)</tspan></text>
    <!-- 虚物 -->
    <path
       d="m60,-30L60,25"
       stroke="red"
       stroke-width="2"
       stroke-dasharray="2,2"
       marker-end="url(#arrow)"
       id="path15519" />
    <!-- 虚像 -->
    <path
       d="m-120,60L-120,-55"
       stroke="red"
       stroke-width="2"
       stroke-dasharray="2,2"
       marker-end="url(#arrow)"
       id="path15521" />
    <!-- 光线 -->
    <g
       fill="none"
       stroke="orange"
       stroke-width="1"
       id="g15555">
      <!-- <path d="m-80,30L-30,30L0,30" marker-mid="url(#a2)"/>
    <path d="m0,30L20,45L40,60" marker-mid="url(#a2)"/>
    <path d="m0,30L60,30" stroke-dasharray="4,4"/>
    <path d="m0,30L-120,-60" stroke-dasharray="4,4"/>

    <path d="m-140,-70L-30,-15L0,0" marker-mid="url(#a2)"/>
    <path d="m0,0l30,15L60,30" marker-mid="url(#a2)"/> -->
      <path
         d="m-226,-9L-193,-4.5L-160,0"
         marker-mid="url(#a2)"
         id="path15523" />
      <path
         d="m-160,0L-80,10.9L0,21.8"
         marker-mid="url(#a2)"
         id="path15525" />
      <path
         d="m0,21.8L60,30"
         stroke-dasharray="5,5"
         id="path15527" />
      <path
         d="m-120,-60L0,21.8"
         stroke-dasharray="5,5"
         id="path15529" />
      <path
         d="m0,21.8l25,17.05L50,56"
         marker-mid="url(#a2)"
         id="path15531" />
      <path
         d="m-226,43l33,4.5L-160,52"
         marker-mid="url(#a2)"
         id="path15533" />
      <path
         d="m-160,52l80,-8L0,36"
         marker-mid="url(#a2)"
         id="path15535" />
      <path
         d="m0,36L60,30"
         stroke-dasharray="5,5"
         id="path15537" />
      <path
         d="m-120,-60L0,36"
         stroke-dasharray="5,5"
         id="path15539" />
      <path
         d="m0,36l20,16L40,68"
         marker-mid="url(#a2)"
         id="path15541" />
      <path
         d="m-226,-61L-193,-56.5L-160,-52"
         marker-mid="url(#a2)"
         id="path15543" />
      <path
         d="m-160,-52L-80,-22.18L0,7.64"
         marker-mid="url(#a2)"
         id="path15545" />
      <path
         d="m0,7.64L60,30"
         stroke-dasharray="5,5"
         id="path15547" />
      <path
         d="m-120,-60L0,7.64"
         stroke-dasharray="5,5"
         id="path15549" />
      <path
         d="m0,7.64l30,16.9L60,41.44"
         marker-mid="url(#a2)"
         id="path15551" />
      <path
         d="m-226,-61L-160,-52L0,7.64             L60,41.44L40,68             L0,36L-160,52-226,43z"
         fill="orange"
         fill-opacity="0.5"
         stroke-width="0"
         id="path15553" />
    </g>
    <text
       font-family="Serif"
       text-anchor="middle"
       font-size="10"
       id="text15569"><tspan
         x="-120"
         y="-65"
         id="tspan15557">A'</tspan><tspan
         x="-120"
         y="75"
         id="tspan15559">B'</tspan><tspan
         x="75"
         y="30"
         id="tspan49">A''</tspan><tspan
         x="75"
         y="-30"
         id="tspan15563">B''</tspan><tspan
         x="-230"
         y="-70"
         id="tspan15565">A</tspan><tspan
         x="-230"
         y="70"
         id="tspan15567">B</tspan></text>
  </g>
  <metadata
     id="metadata71">
    <rdf:RDF>
      <cc:Work
         rdf:about="">
        <dc:title>Galileo telescope</dc:title>
      </cc:Work>
    </rdf:RDF>
  </metadata>
</svg>
