<?xml version="1.0" encoding="UTF-8" standalone="no"?>
<svg
   x="0"
   y="0"
   width="850"
   height="407"
   style="fill:none"
   version="1.1"
   id="svg238"
   sodipodi:docname="Stern-Gerlach实验.svg"
   inkscape:version="1.2.2 (b0a8486, 2022-12-01)"
   xmlns:inkscape="http://www.inkscape.org/namespaces/inkscape"
   xmlns:sodipodi="http://sodipodi.sourceforge.net/DTD/sodipodi-0.dtd"
   xmlns="http://www.w3.org/2000/svg"
   xmlns:svg="http://www.w3.org/2000/svg">
  <defs
     id="defs242" />
  <sodipodi:namedview
     id="namedview240"
     pagecolor="#ffffff"
     bordercolor="#000000"
     borderopacity="0.25"
     inkscape:showpageshadow="2"
     inkscape:pageopacity="0.0"
     inkscape:pagecheckerboard="0"
     inkscape:deskcolor="#d1d1d1"
     showgrid="false"
     inkscape:zoom="1.1808732"
     inkscape:cx="736.31954"
     inkscape:cy="203.66285"
     inkscape:window-width="1280"
     inkscape:window-height="677"
     inkscape:window-x="0"
     inkscape:window-y="25"
     inkscape:window-maximized="0"
     inkscape:current-layer="svg238" />
  <svg
     class="role-diagram-draw-area"
     version="1.1"
     id="svg136"
     width="100%"
     height="100%">
    <g
       class="shapes-region"
       style="fill:none;stroke:#000000"
       id="g128">
      <g
         class="shape"
         id="g4">
        <polygon
           class="real"
           points="134.5,256 134.5,194 168.5,160 168.5,222 "
           style="fill:#9b9b9b;fill-opacity:0.5;stroke:#000000;stroke-width:1"
           id="polygon2" />
      </g>
      <g
         class="grouped-shape"
         id="g32">
        <g
           class="grouped-shape"
           id="g26">
          <g
             class="composite-shape"
             id="g12">
            <path
               class="real"
               d="M 266,180.29 292.29,154 H 580.5 v 69.71 L 554.21,250 H 266 Z"
               style="fill:#ffffff;fill-opacity:1;stroke:#bd10e0;stroke-width:2;stroke-opacity:1"
               id="path6" />
            <path
               class="real"
               d="m 580.5,154 -26.29,26.29 H 266"
               style="fill:none;fill-opacity:1;stroke:#bd10e0;stroke-width:2;stroke-opacity:1"
               id="path8" />
            <path
               class="real"
               d="M 554.21,180.29 V 250"
               style="fill:none;fill-opacity:1;stroke:#bd10e0;stroke-width:2;stroke-opacity:1"
               id="path10" />
          </g>
          <g
             class="shape"
             id="g16">
            <polygon
               class="real"
               points="230.29,262 266,225.29 554.21,225.29 518.5,262 "
               style="fill:#ffffff;fill-opacity:1;stroke:#bd10e0;stroke-width:2;stroke-opacity:1"
               id="polygon14" />
          </g>
          <g
             class="composite-shape"
             id="g24">
            <path
               class="real"
               d="M 204,243.29 230.29,217 H 518.5 v 69.71 L 492.21,313 H 204 Z"
               style="fill:#ffffff;fill-opacity:1;stroke:#bd10e0;stroke-width:2;stroke-opacity:1"
               id="path18" />
            <path
               class="real"
               d="m 518.5,217 -26.29,26.29 H 204"
               style="fill:none;fill-opacity:1;stroke:#bd10e0;stroke-width:2;stroke-opacity:1"
               id="path20" />
            <path
               class="real"
               d="M 492.21,243.29 V 313"
               style="fill:none;fill-opacity:1;stroke:#bd10e0;stroke-width:2;stroke-opacity:1"
               id="path22" />
          </g>
        </g>
        <g
           class="arrow-line"
           id="g30">
          <path
             class="connection real"
             stroke-dasharray="none"
             d="m 580.5,154 v 69.71 L 492.21,313 V 243.29 L 518.5,217 v 45 l 35.71,-36.71 v -45"
             style="fill:#ffffff;fill-opacity:1;stroke:#bd10e0;stroke-width:2;stroke-opacity:1"
             id="path28" />
        </g>
      </g>
      <g
         class="grouped-shape"
         id="g62">
        <g
           class="shape"
           id="g36">
          <polygon
             class="real"
             points="537.61,186.85 255.4,186.85 237.4,170.85 519.61,170.85 "
             style="fill:#ffffff;fill-opacity:1;stroke:#4a90e2;stroke-width:2;stroke-opacity:1"
             id="polygon34" />
        </g>
        <g
           class="composite-shape"
           id="g44">
          <path
             class="real"
             d="m 237.4,136.85 36,-36 h 282.21 v 34 l -36,36 H 237.4 Z"
             style="fill:#ffffff;fill-opacity:1;stroke:#4a90e2;stroke-width:2;stroke-opacity:1"
             id="path38" />
          <path
             class="real"
             d="m 555.61,100.85 -36,36 H 237.4"
             style="fill:none;fill-opacity:1;stroke:#4a90e2;stroke-width:2;stroke-opacity:1"
             id="path40" />
          <path
             class="real"
             d="m 519.61,136.85 v 34"
             style="fill:none;fill-opacity:1;stroke:#4a90e2;stroke-width:2;stroke-opacity:1"
             id="path42" />
        </g>
        <g
           class="arrow-line"
           id="g48">
          <path
             class="connection real"
             stroke-dasharray="none"
             d="m 519.61,136.85 36,-36"
             style="fill:none;fill-opacity:1;stroke:#000000;stroke-width:1"
             id="path46" />
        </g>
        <g
           class="arrow-line"
           id="g52">
          <path
             class="connection real"
             stroke-dasharray="none"
             d="m 519.61,170.85 18,16"
             style="fill:none;fill-opacity:1;stroke:#000000;stroke-width:1"
             id="path50" />
        </g>
        <g
           class="arrow-line"
           id="g56">
          <path
             class="connection real"
             stroke-dasharray="none"
             d="m 537.61,186.85 18,-52"
             style="fill:none;fill-opacity:1;stroke:#000000;stroke-width:1"
             id="path54" />
        </g>
        <g
           class="shape"
           id="g60">
          <polygon
             class="real"
             points="555.61,134.85 537.61,186.85 519.61,170.85 519.75,138.22 555.61,100.85 "
             style="fill:#ffffff;fill-opacity:1;stroke:#4a90e2;stroke-width:2;stroke-opacity:1"
             id="polygon58" />
        </g>
      </g>
      <g
         class="composite-shape"
         id="g70">
        <path
           class="real"
           d="m 34,196 34,-34 h 57.5 v 62 l -34,34 H 34 Z"
           style="fill:none;fill-opacity:1;stroke:#000000;stroke-width:1"
           id="path64" />
        <path
           class="real"
           d="m 125.5,162 -34,34 H 34"
           style="fill:none;fill-opacity:1;stroke:#000000;stroke-width:1"
           id="path66" />
        <path
           class="real"
           d="m 91.5,196 v 62"
           style="fill:none;fill-opacity:1;stroke:#000000;stroke-width:1"
           id="path68" />
      </g>
      <g
         class="shape"
         id="g74">
        <polygon
           class="real"
           points="177.5,255 177.5,193 211.5,159 211.5,221 "
           style="fill:#9b9b9b;fill-opacity:0.5;stroke:#000000;stroke-width:1"
           id="polygon72" />
      </g>
      <g
         class="grouped-shape"
         id="g92">
        <g
           class="composite-shape axis2d"
           style="stroke:#000000;stroke-width:1"
           id="g82">
          <path
             class="real"
             d="m 717,271 h 69.5 M 717,207 v 64 z"
             id="path76" />
          <path
             d="m 779.5,266 7,5 -7,5"
             id="path78" />
          <path
             d="m 712,214 5,-7 5,7"
             id="path80" />
        </g>
        <g
           class="arrow-line"
           id="g90">
          <path
             class="connection real"
             stroke-dasharray="none"
             d="m 717,271 37.11,-38.56"
             style="fill:none;fill-opacity:1;stroke:#000000;stroke-width:1"
             id="path84" />
          <g
             stroke="#000"
             transform="rotate(133.91,328.61606,276.19562)"
             style="stroke:#000000;stroke-width:1"
             id="g88">
            <path
               d="M 10.93,-3.29 Q 4.96,-0.45 0,0 4.96,0.45 10.93,3.29"
               id="path86" />
          </g>
        </g>
      </g>
      <g
         class="composite-shape"
         id="g96">
        <path
           class="real"
           d="m 103.54,209.83 c 0.51,-4.11 3.36,-7.15 6.38,-6.77 3.01,0.37 5.05,4 4.54,8.11 -0.51,4.11 -3.36,7.15 -6.38,6.77 -3.01,-0.37 -5.05,-4 -4.54,-8.11 z"
           style="fill:#ffffff;fill-opacity:1;stroke:#9b9b9b;stroke-width:2;stroke-opacity:1"
           id="path94" />
      </g>
      <g
         class="composite-shape"
         id="g100">
        <path
           class="real"
           d="m 146.54,208.83 c 0.51,-4.11 3.36,-7.15 6.38,-6.77 3.01,0.37 5.05,4 4.54,8.11 -0.51,4.11 -3.36,7.15 -6.38,6.77 -3.01,-0.37 -5.05,-4 -4.54,-8.11 z"
           style="fill:#ffffff;fill-opacity:1;stroke:none;stroke-width:4;stroke-opacity:1"
           id="path98" />
      </g>
      <g
         class="composite-shape"
         id="g104">
        <path
           class="real"
           d="m 191.54,207.83 c 0.51,-4.11 3.36,-7.15 6.38,-6.77 3.01,0.37 5.05,4 4.54,8.11 -0.51,4.11 -3.36,7.15 -6.38,6.77 -3.01,-0.37 -5.05,-4 -4.54,-8.11 z"
           style="fill:#ffffff;fill-opacity:1;stroke:none;stroke-width:4;stroke-opacity:1"
           id="path102" />
      </g>
      <g
         class="arrow-line"
         id="g108">
        <path
           class="connection real"
           stroke-dasharray="none"
           d="M 109,210.5 243.5,210"
           style="fill:none;fill-opacity:1;stroke:#f5a623;stroke-width:7;stroke-opacity:0.6"
           id="path106" />
      </g>
      <g
         class="arrow-line"
         id="g112">
        <path
           class="connection real"
           stroke-dasharray="none"
           d="m 243.5,210 c 55,1 354,-6 395,-27"
           style="fill:none;fill-opacity:1;stroke:#f5a623;stroke-width:4;stroke-opacity:0.6"
           id="path110" />
      </g>
      <g
         class="arrow-line"
         id="g116">
        <path
           class="connection real"
           stroke-dasharray="none"
           d="m 243.5,210 c 55,1 355,-4 395,19"
           style="fill:none;fill-opacity:1;stroke:#f5a623;stroke-width:4;stroke-opacity:0.6"
           id="path114" />
      </g>
      <g
         class="composite-shape"
         id="g120">
        <path
           class="real"
           d="m 628.5,206 c 0,-12.7 7.5,-23 16.75,-23 9.25,0 16.75,10.3 16.75,23 0,12.7 -7.5,23 -16.75,23 -9.25,0 -16.75,-10.3 -16.75,-23 z"
           style="fill:none;fill-opacity:1;stroke:#f5a623;stroke-width:4;stroke-opacity:0.6"
           id="path118" />
      </g>
      <g
         class="shape"
         id="g124">
        <polygon
           class="real"
           points="609.5,307 609.5,163 676.5,98 675.5,242 "
           style="fill:#7ed321;fill-opacity:0.5;stroke:#7ed321;stroke-width:1;stroke-opacity:1"
           id="polygon122" />
      </g>
      <g
         id="g126" />
    </g>
    <g
       id="g130" />
    <g
       id="g132" />
    <g
       id="g134" />
  </svg>
  <svg
     width="960"
     height="405"
     style="font-family:Asana-Math, Asana"
     version="1.1"
     id="svg236">
    <g
       id="g146">
      <g
         id="g144">
        <g
           id="g142">
          <g
             transform="translate(530,157.48)"
             id="g140">
            <path
               transform="scale(0.02448,-0.02448)"
               d="m 108,471 c 0,-85 38,-132 122,-152 l 95,-23 C 379,283 406,248 406,191 406,96 335,30 232,30 178,30 140,42 96,73 v 99 H 66 C 60,117 53,72 42,20 91,-5 144,-18 197,-18 c 155,0 288,117 288,252 0,79 -43,121 -144,143 l -65,14 c -66,14 -96,51 -96,117 0,87 67,150 159,150 49,0 82,-13 112,-45 v -76 h 30 c 4,54 11,92 25,135 -45,24 -85,34 -132,34 -124,0 -266,-92 -266,-235 z"
               stroke="#4a90e2"
               stroke-opacity="1"
               stroke-width="0"
               fill="#4a90e2"
               fill-opacity="1"
               id="path138" />
          </g>
        </g>
      </g>
    </g>
    <g
       id="g156">
      <g
         id="g154">
        <g
           id="g152">
          <g
             transform="translate(539.34375,292.82375)"
             id="g150">
            <path
               transform="scale(0.02448,-0.02448)"
               d="M 582,103 237,692 H 75 l -5,-28 35,-2 c 45,-2 79,-47 80,-56 L 92,102 C 80,40 74,32 38,28 L 7,25 2,-3 113,0 c 12,0 13,0 110,-3 l 5,28 -42,3 c -40,3 -49,11 -49,44 0,8 1,19 3,30 l 80,464 338,-577 h 50 l 94,553 c 21,113 23,117 60,120 l 37,2 3,27 -213,1 -5,-28 47,-2 c 26,-1 36,-8 36,-24 0,-7 -83,-522 -85,-535 z"
               stroke="#bd10e0"
               stroke-opacity="1"
               stroke-width="0"
               fill="#bd10e0"
               fill-opacity="1"
               id="path148" />
          </g>
        </g>
      </g>
    </g>
    <g
       id="g166">
      <g
         id="g164">
        <g
           id="g162">
          <g
             transform="translate(793,278)"
             id="g160">
            <path
               transform="scale(0.017,-0.017)"
               d="m 9,1 c 15,-8 31,-12 43,-12 33,0 72,29 103,76 l 76,117 11,-69 c 13,-85 36,-124 72,-124 22,0 54,17 86,46 l 49,44 -9,19 C 404,68 379,53 363,53 c -15,0 -28,10 -38,30 -9,19 -20,56 -25,85 l -18,101 35,49 c 47,65 74,88 105,88 16,0 28,-8 33,-23 l 14,4 15,85 c -12,7 -21,10 -30,10 -40,0 -80,-36 -142,-128 l -37,-55 -6,48 c -12,99 -39,135 -98,135 -26,0 -48,-8 -57,-21 L 56,378 73,368 c 30,34 50,48 69,48 33,0 55,-41 72,-139 l 11,-62 -40,-62 C 142,86 108,54 80,54 65,54 54,58 52,63 L 41,91 21,88 C 21,53 13,27 9,1 Z"
               stroke="#000000"
               stroke-opacity="1"
               stroke-width="0"
               fill="#000000"
               fill-opacity="1"
               id="path158" />
          </g>
        </g>
      </g>
    </g>
    <g
       id="g176">
      <g
         id="g174">
        <g
           id="g172">
          <g
             transform="translate(763,226)"
             id="g170">
            <path
               transform="scale(0.017,-0.017)"
               d="m -7,-180 c -1,-7 -1,-13 -1,-18 0,-43 37,-78 82,-78 106,0 216,124 275,309 l 141,440 -11,9 C 450,471 427,465 405,463 L 370,331 C 358,284 323,211 290,162 255,111 206,67 184,67 c -12,0 -21,23 -20,48 l 16,207 c 2,31 4,69 4,97 0,45 -7,63 -24,63 -13,0 -27,-7 -75,-40 L 3,386 14,368 64,398 c 5,3 16,12 25,12 14,0 22,-19 22,-52 0,-1 0,-7 -1,-15 L 93,100 92,60 c 0,-42 18,-71 43,-71 37,0 121,85 196,198 L 282,16 c -51,-177 -101,-250 -171,-250 -35,0 -62,27 -62,62 0,5 1,13 2,22 l -10,4 z"
               stroke="#000000"
               stroke-opacity="1"
               stroke-width="0"
               fill="#000000"
               fill-opacity="1"
               id="path168" />
          </g>
        </g>
      </g>
    </g>
    <g
       id="g186">
      <g
         id="g184">
        <g
           id="g182">
          <g
             transform="translate(711,199)"
             id="g180">
            <path
               transform="scale(0.017,-0.017)"
               d="m 322,-11 c 12,0 21,2 50,10 11,62 19,96 30,143 H 380 L 358,82 c -6,-18 -18,-25 -39,-25 -12,0 -28,2 -49,7 l -18,4 c -33,7 -67,12 -86,12 -32,0 -59,-6 -95,-21 l 339,382 6,32 -9,9 -23,-23 c -10,-10 -20,-14 -34,-14 -34,0 -86,8 -134,21 l -18,5 c -28,7 -48,11 -62,11 -17,0 -37,-3 -61,-10 L 43,350 h 21 l 30,58 c 17,4 26,5 39,5 41,0 73,-15 126,-15 36,0 60,6 93,23 L -1,21 8,-6 c 29,23 56,32 91,32 63,0 154,-37 223,-37 z"
               stroke="#000000"
               stroke-opacity="1"
               stroke-width="0"
               fill="#000000"
               fill-opacity="1"
               id="path178" />
          </g>
        </g>
      </g>
    </g>
    <g
       id="g194">
      <g
         id="g192">
        <g
           id="g190">
          <text
             x="331"
             y="338"
             style="font-style:normal;font-weight:400;font-size:18px;font-family:Arial, Helvetica, sans-serif;text-decoration:none;text-decoration-line:none;dominant-baseline:text-before-edge;white-space:pre;fill:#000000;fill-opacity:1;stroke:none"
             id="text188">不均匀磁场</text>
        </g>
      </g>
    </g>
    <g
       id="g234">
      <g
         id="g232">
        <g
           id="g218">
          <g
             id="g204">
            <g
               id="g202">
              <g
                 id="g200">
                <g
                   transform="translate(548.03815,47.4)"
                   id="g198">
                  <path
                     transform="scale(0.0204,-0.0204)"
                     d="m 91,666 c 44,25 77,36 111,38 101,5 164,-86 173,-249 2,-29 0,-52 -2,-102 -67,47 -103,61 -154,58 C 170,408 130,388 96,347 54,299 33,235 36,173 42,65 129,-16 233,-11 c 69,4 126,40 165,103 42,70 68,205 62,321 C 450,613 327,758 175,750 136,748 102,738 48,715 Z M 369,318 C 359,206 351,163 328,111 305,57 263,21 219,19 c -54,-3 -91,48 -95,133 -6,114 56,212 137,216 38,3 70,-14 108,-50 z m 668,-91 c 0,110 -84,126 -166,138 57,20 82,32 113,60 46,39 69,86 69,137 0,82 -58,130 -158,130 -2,0 -12,0 -27,-1 l -63,-1 c -12,-1 -48,-1 -60,-1 -19,0 -50,1 -99,2 l -52,1 -3,-28 53,-2 c 24,-1 35,-9 35,-27 0,-14 -4,-46 -9,-76 L 583,55 C 579,37 567,30 525,23 l -5,-26 37,1 c 27,2 42,2 54,2 11,0 37,-1 63,-2 l 37,-1 20,-1 c 19,-1 32,-2 40,-2 115,0 266,93 266,233 z M 660,41 711,340 h 85 C 899,340 949,298 949,211 949,108 876,34 776,34 c -54,0 -75,4 -116,7 z m 186,614 c 81,0 121,-36 121,-111 0,-105 -74,-168 -198,-168 h -52 l 49,274 c 16,0 57,5 80,5 z"
                     stroke="#000000"
                     stroke-opacity="1"
                     stroke-width="0"
                     fill="#000000"
                     fill-opacity="1"
                     id="path196" />
                </g>
              </g>
            </g>
          </g>
          <g
             id="g214">
            <g
               id="g212">
              <g
                 id="g210">
                <g
                   transform="translate(549.70813,77.4)"
                   id="g208">
                  <path
                     transform="scale(0.0204,-0.0204)"
                     d="m 91,666 c 44,25 77,36 111,38 101,5 164,-86 173,-249 2,-29 0,-52 -2,-102 -67,47 -103,61 -154,58 C 170,408 130,388 96,347 54,299 33,235 36,173 42,65 129,-16 233,-11 c 69,4 126,40 165,103 42,70 68,205 62,321 C 450,613 327,758 175,750 136,748 102,738 48,715 Z M 369,318 C 359,206 351,163 328,111 305,57 263,21 219,19 c -54,-3 -91,48 -95,133 -6,114 56,212 137,216 38,3 70,-14 108,-50 z M 816,-11 c 12,0 21,2 50,10 11,62 19,96 30,143 H 874 L 852,82 c -6,-18 -18,-25 -39,-25 -12,0 -28,2 -49,7 l -18,4 c -33,7 -67,12 -86,12 -32,0 -59,-6 -95,-21 l 339,382 6,32 -9,9 -23,-23 c -10,-10 -20,-14 -34,-14 -34,0 -86,8 -134,21 l -18,5 c -28,7 -48,11 -62,11 -17,0 -37,-3 -61,-10 L 537,350 h 21 l 30,58 c 17,4 26,5 39,5 41,0 73,-15 126,-15 36,0 60,6 93,23 L 493,21 502,-6 c 29,23 56,32 91,32 63,0 154,-37 223,-37 z"
                     stroke="#000000"
                     stroke-opacity="1"
                     stroke-width="0"
                     fill="#000000"
                     fill-opacity="1"
                     id="path206" />
                </g>
              </g>
            </g>
          </g>
          <line
             style="fill:none;stroke:#000000;stroke-width:1px"
             x1="548.03125"
             y1="56"
             x2="570.125"
             y2="56"
             id="line216" />
        </g>
        <g
           id="g224">
          <g
             transform="translate(578.26562,61.4)"
             id="g222">
            <path
               transform="scale(0.0204,-0.0204)"
               d="M 604,0 V 59 L 166,264 604,469 v 59 L 65,273 v -21 z"
               stroke="#000000"
               stroke-opacity="1"
               stroke-width="0"
               fill="#000000"
               fill-opacity="1"
               id="path220" />
          </g>
        </g>
        <g
           id="g230">
          <g
             transform="translate(597.73499,61.4)"
             id="g228">
            <path
               transform="scale(0.0204,-0.0204)"
               d="M 263,689 C 108,689 29,566 29,324 29,207 50,106 85,57 c 35,-49 91,-77 153,-77 151,0 227,130 227,386 0,219 -65,323 -202,323 z M 245,654 C 342,654 381,556 381,316 381,103 343,15 251,15 154,15 113,116 113,360 c 0,211 37,294 132,294 z"
               stroke="#000000"
               stroke-opacity="1"
               stroke-width="0"
               fill="#000000"
               fill-opacity="1"
               id="path226" />
          </g>
        </g>
      </g>
    </g>
  </svg>
</svg>
