<?xml version="1.0" encoding="UTF-8" standalone="no"?>
<svg
   x="0"
   y="0"
   width="520"
   height="327"
   style="fill:none"
   version="1.1"
   id="svg202"
   sodipodi:docname="diagram-20230917.svg"
   inkscape:version="1.2.2 (b0a8486, 2022-12-01)"
   xmlns:inkscape="http://www.inkscape.org/namespaces/inkscape"
   xmlns:sodipodi="http://sodipodi.sourceforge.net/DTD/sodipodi-0.dtd"
   xmlns="http://www.w3.org/2000/svg"
   xmlns:svg="http://www.w3.org/2000/svg">
  <defs
     id="defs206" />
  <sodipodi:namedview
     id="namedview204"
     pagecolor="#ffffff"
     bordercolor="#000000"
     borderopacity="0.25"
     inkscape:showpageshadow="2"
     inkscape:pageopacity="0.0"
     inkscape:pagecheckerboard="0"
     inkscape:deskcolor="#d1d1d1"
     showgrid="false"
     inkscape:zoom="1.1808732"
     inkscape:cx="302.74208"
     inkscape:cy="163.8618"
     inkscape:window-width="1280"
     inkscape:window-height="677"
     inkscape:window-x="0"
     inkscape:window-y="25"
     inkscape:window-maximized="0"
     inkscape:current-layer="svg202" />
  <svg
     class="role-diagram-draw-area"
     version="1.1"
     id="svg124"
     width="100%"
     height="100%">
    <g
       class="shapes-region"
       style="fill:none;stroke:#000000"
       id="g116">
      <g
         class="arrow-line"
         id="g4">
        <path
           class="connection real"
           stroke-dasharray="6, 6"
           d="M 104.25,104.5 479.5,223"
           style="fill:none;fill-opacity:1;stroke:#000000;stroke-width:1"
           id="path2" />
      </g>
      <g
         class="composite-shape"
         id="g8">
        <path
           class="real"
           d="M 123,125.5 C 123,89.33 143.71,60 169.25,60 c 25.54,0 46.25,29.33 46.25,65.5 0,36.17 -20.71,65.5 -46.25,65.5 C 143.71,191 123,161.67 123,125.5 Z"
           style="fill:#f5a623;fill-opacity:0.5;stroke:#f5a623;stroke-width:1;stroke-opacity:1"
           id="path6" />
      </g>
      <g
         class="arrow-line"
         id="g16">
        <path
           class="connection real"
           stroke-dasharray="none"
           d="m 169.25,31.75 v 190.5"
           style="fill:none;fill-opacity:1;stroke:#4a90e2;stroke-width:1;stroke-opacity:1"
           id="path10" />
        <g
           stroke="none"
           fill="rgb(74,144,226)"
           transform="rotate(90,70.25,99)"
           fill-opacity="1"
           style="fill:#4a90e2;stroke:none;stroke-width:1"
           id="g14">
          <path
             d="M 10.72,-5.15 0,0 10.72,5.15 7.12,0 Z"
             id="path12" />
        </g>
      </g>
      <g
         class="composite-shape"
         id="g20">
        <path
           class="real"
           d="m 229,157.5 c 0,-36.17 20.71,-65.5 46.25,-65.5 25.54,0 46.25,29.33 46.25,65.5 0,36.17 -20.71,65.5 -46.25,65.5 C 249.71,223 229,193.67 229,157.5 Z"
           style="fill:#d0021b;fill-opacity:0.5;stroke:#d0021b;stroke-width:1;stroke-opacity:1"
           id="path18" />
      </g>
      <g
         class="arrow-line"
         id="g28">
        <path
           class="connection real"
           stroke-dasharray="none"
           d="m 275.25,63.75 v 190.5"
           style="fill:none;fill-opacity:1;stroke:#4a90e2;stroke-width:1;stroke-opacity:1"
           id="path22" />
        <g
           stroke="none"
           fill="rgb(74,144,226)"
           transform="rotate(90,107.25,168)"
           fill-opacity="1"
           style="fill:#4a90e2;stroke:none;stroke-width:1"
           id="g26">
          <path
             d="M 10.72,-5.15 0,0 10.72,5.15 7.12,0 Z"
             id="path24" />
        </g>
      </g>
      <g
         class="arrow-line"
         id="g36">
        <path
           class="connection real"
           stroke-dasharray="none"
           d="M 196.88,199 350.97,117.4"
           style="fill:none;fill-opacity:1;stroke:#4a90e2;stroke-width:1;stroke-opacity:1"
           id="path30" />
        <g
           stroke="none"
           transform="rotate(152.1,162.40086,101.91957)"
           fill="rgb(74,144,226)"
           fill-opacity="1"
           style="fill:#4a90e2;stroke:none;stroke-width:1"
           id="g34">
          <path
             d="M 10.72,-5.15 0,0 10.72,5.15 7.12,0 Z"
             id="path32" />
        </g>
      </g>
      <g
         class="composite-shape"
         id="g40">
        <path
           class="real"
           d="m 354.77,149 77.17,-41.6 -0.83,131.75 -77.17,41.61 z"
           style="fill:#7ed321;fill-opacity:0.5;stroke:#7ed321;stroke-width:1;stroke-opacity:1"
           id="path38" />
      </g>
      <g
         class="arrow-line"
         id="g48">
        <path
           class="connection real"
           stroke-dasharray="none"
           d="M 90.88,167 244.97,85.4"
           style="fill:none;fill-opacity:1;stroke:#4a90e2;stroke-width:1;stroke-opacity:1"
           id="path42" />
        <g
           stroke="none"
           transform="rotate(152.1,113.37528,72.754297)"
           fill="rgb(74,144,226)"
           fill-opacity="1"
           style="fill:#4a90e2;stroke:none;stroke-width:1"
           id="g46">
          <path
             d="M 10.72,-5.15 0,0 10.72,5.15 7.12,0 Z"
             id="path44" />
        </g>
      </g>
      <g
         class="arrow-line"
         id="g56">
        <path
           class="connection real"
           stroke-dasharray="none"
           d="m 392.94,100.33 v 190.5"
           style="fill:none;fill-opacity:1;stroke:#4a90e2;stroke-width:1;stroke-opacity:1"
           id="path50" />
        <g
           stroke="none"
           fill="rgb(74,144,226)"
           transform="rotate(90,147.8065,245.13271)"
           fill-opacity="1"
           style="fill:#4a90e2;stroke:none;stroke-width:1"
           id="g54">
          <path
             d="M 10.72,-5.15 0,0 10.72,5.15 7.12,0 Z"
             id="path52" />
        </g>
      </g>
      <g
         class="arrow-line"
         id="g64">
        <path
           class="connection real"
           stroke-dasharray="none"
           d="m 314.57,235.58 154.08,-81.6"
           style="fill:none;fill-opacity:1;stroke:#4a90e2;stroke-width:1;stroke-opacity:1"
           id="path58" />
        <g
           stroke="none"
           transform="rotate(152.1,216.70267,134.82474)"
           fill="rgb(74,144,226)"
           fill-opacity="1"
           style="fill:#4a90e2;stroke:none;stroke-width:1"
           id="g62">
          <path
             d="M 10.72,-5.15 0,0 10.72,5.15 7.12,0 Z"
             id="path60" />
        </g>
      </g>
      <g
         class="arrow-line"
         id="g72">
        <path
           class="connection real"
           stroke-dasharray="none"
           d="M 61.25,57.5 123.4,77.58"
           style="fill:none;fill-opacity:1;stroke:#4a90e2;stroke-width:2;stroke-opacity:1"
           id="path66" />
        <g
           stroke="rgb(74,144,226)"
           transform="rotate(-162.1,69.306483,29.308443)"
           stroke-opacity="1"
           style="stroke:#4a90e2;stroke-width:2"
           id="g70">
          <path
             d="M 14.21,-4.28 Q 6.45,-0.59 0,0 6.45,0.59 14.21,4.28"
             id="path68" />
        </g>
      </g>
      <g
         class="arrow-line"
         id="g80">
        <path
           class="connection real"
           stroke-dasharray="none"
           d="M 54.25,73.5 116.4,93.58"
           style="fill:none;fill-opacity:1;stroke:#4a90e2;stroke-width:2;stroke-opacity:1"
           id="path74" />
        <g
           stroke="rgb(74,144,226)"
           transform="rotate(-162.1,67.066403,37.859658)"
           stroke-opacity="1"
           style="stroke:#4a90e2;stroke-width:2"
           id="g78">
          <path
             d="M 14.21,-4.28 Q 6.45,-0.59 0,0 6.45,0.59 14.21,4.28"
             id="path76" />
        </g>
      </g>
      <g
         class="arrow-line"
         id="g88">
        <path
           class="connection real"
           stroke-dasharray="none"
           d="m 46.25,96.5 62.15,20.08"
           style="fill:none;fill-opacity:1;stroke:#4a90e2;stroke-width:2;stroke-opacity:1"
           id="path82" />
        <g
           stroke="rgb(74,144,226)"
           transform="rotate(-162.1,64.877538,49.989618)"
           stroke-opacity="1"
           style="stroke:#4a90e2;stroke-width:2"
           id="g86">
          <path
             d="M 14.21,-4.28 Q 6.45,-0.59 0,0 6.45,0.59 14.21,4.28"
             id="path84" />
        </g>
      </g>
      <g
         class="arrow-line"
         id="g96">
        <path
           class="connection real"
           stroke-dasharray="none"
           d="m 46.25,112.5 62.15,20.08"
           style="fill:none;fill-opacity:1;stroke:#4a90e2;stroke-width:2;stroke-opacity:1"
           id="path90" />
        <g
           stroke="rgb(74,144,226)"
           transform="rotate(-162.1,66.137458,57.989618)"
           stroke-opacity="1"
           style="stroke:#4a90e2;stroke-width:2"
           id="g94">
          <path
             d="M 14.21,-4.28 Q 6.45,-0.59 0,0 6.45,0.59 14.21,4.28"
             id="path92" />
        </g>
      </g>
      <g
         class="arrow-line"
         id="g100">
        <path
           class="connection real"
           stroke-dasharray="none"
           d="m 141.5,177 56,-102"
           style="fill:none;fill-opacity:1;stroke:#f5a623;stroke-width:2;stroke-opacity:1"
           id="path98" />
      </g>
      <g
         class="arrow-line"
         id="g104">
        <path
           class="connection real"
           stroke-dasharray="none"
           d="m 230.38,182 89.74,-49"
           style="fill:none;fill-opacity:1;stroke:#d0021b;stroke-width:2;stroke-opacity:1"
           id="path102" />
      </g>
      <g
         class="arrow-line"
         id="g108">
        <path
           class="connection real"
           stroke-dasharray="none"
           d="m 364.94,245.08 56,-102"
           style="fill:none;fill-opacity:1;stroke:#f5a623;stroke-width:2;stroke-opacity:1"
           id="path106" />
      </g>
      <g
         class="arrow-line"
         id="g112">
        <path
           class="connection real"
           stroke-dasharray="none"
           d="m 348.07,218.58 89.74,-49"
           style="fill:none;fill-opacity:1;stroke:#d0021b;stroke-width:2;stroke-opacity:1"
           id="path110" />
      </g>
      <g
         id="g114" />
    </g>
    <g
       id="g118" />
    <g
       id="g120" />
    <g
       id="g122" />
  </svg>
  <svg
     width="960"
     height="325"
     style="font-family:Asana-Math, Asana"
     version="1.1"
     id="svg200">
    <g
       id="g134">
      <g
         id="g132">
        <g
           id="g130">
          <g
             transform="translate(476,150.4)"
             id="g128">
            <path
               transform="scale(0.0204,-0.0204)"
               d="m 9,1 c 15,-8 31,-12 43,-12 33,0 72,29 103,76 l 76,117 11,-69 c 13,-85 36,-124 72,-124 22,0 54,17 86,46 l 49,44 -9,19 C 404,68 379,53 363,53 c -15,0 -28,10 -38,30 -9,19 -20,56 -25,85 l -18,101 35,49 c 47,65 74,88 105,88 16,0 28,-8 33,-23 l 14,4 15,85 c -12,7 -21,10 -30,10 -40,0 -80,-36 -142,-128 l -37,-55 -6,48 c -12,99 -39,135 -98,135 -26,0 -48,-8 -57,-21 L 56,378 73,368 c 30,34 50,48 69,48 33,0 55,-41 72,-139 l 11,-62 -40,-62 C 142,86 108,54 80,54 65,54 54,58 52,63 L 41,91 21,88 C 21,53 13,27 9,1 Z"
               stroke="#000000"
               stroke-opacity="1"
               stroke-width="0"
               fill="#000000"
               fill-opacity="1"
               id="path126" />
          </g>
        </g>
      </g>
    </g>
    <g
       id="g144">
      <g
         id="g142">
        <g
           id="g140">
          <g
             transform="translate(386,87.4)"
             id="g138">
            <path
               transform="scale(0.0204,-0.0204)"
               d="m -7,-180 c -1,-7 -1,-13 -1,-18 0,-43 37,-78 82,-78 106,0 216,124 275,309 l 141,440 -11,9 C 450,471 427,465 405,463 L 370,331 C 358,284 323,211 290,162 255,111 206,67 184,67 c -12,0 -21,23 -20,48 l 16,207 c 2,31 4,69 4,97 0,45 -7,63 -24,63 -13,0 -27,-7 -75,-40 L 3,386 14,368 64,398 c 5,3 16,12 25,12 14,0 22,-19 22,-52 0,-1 0,-7 -1,-15 L 93,100 92,60 c 0,-42 18,-71 43,-71 37,0 121,85 196,198 L 282,16 c -51,-177 -101,-250 -171,-250 -35,0 -62,27 -62,62 0,5 1,13 2,22 l -10,4 z"
               stroke="#000000"
               stroke-opacity="1"
               stroke-width="0"
               fill="#000000"
               fill-opacity="1"
               id="path136" />
          </g>
        </g>
      </g>
    </g>
    <g
       id="g166">
      <g
         id="g164">
        <g
           id="g150">
          <g
             transform="translate(128,205.4)"
             id="g148">
            <path
               transform="scale(0.0204,-0.0204)"
               d="m 105,664 55,-2 c 24,-1 35,-9 35,-27 L 112,125 C 95,34 94,31 54,28 L 13,25 9,-3 51,-2 c 41,1 72,2 90,2 17,0 46,-1 86,-2 l 53,-1 3,28 -65,3 c -26,1 -36,9 -36,30 0,9 1,16 4,35 l 98,555 c 36,6 52,8 71,8 102,0 151,-44 151,-137 0,-108 -72,-196 -160,-196 -22,0 -42,5 -79,19 l 2,-31 c 37,-18 57,-23 86,-23 129,0 239,117 239,253 0,101 -63,154 -182,151 H 108 Z"
               stroke="#000000"
               stroke-opacity="1"
               stroke-width="0"
               fill="#000000"
               fill-opacity="1"
               id="path146" />
          </g>
        </g>
        <g
           id="g162">
          <g
             id="g160">
            <g
               id="g158">
              <g
                 id="g156">
                <g
                   transform="translate(140.79687,208.99875)"
                   id="g154">
                  <path
                     transform="scale(0.01428,-0.01428)"
                     d="m 418,-3 v 30 l -52,3 c -55,3 -65,14 -65,66 V 700 L 60,598 67,548 217,614 V 96 C 217,44 206,33 152,30 L 96,27 V -3 c 154,3 154,3 165,3 31,0 141,-3 157,-3 z"
                     stroke="#000000"
                     stroke-opacity="1"
                     stroke-width="0"
                     fill="#000000"
                     fill-opacity="1"
                     id="path152" />
                </g>
              </g>
            </g>
          </g>
        </g>
      </g>
    </g>
    <g
       id="g188">
      <g
         id="g186">
        <g
           id="g172">
          <g
             transform="translate(216,216.4)"
             id="g170">
            <path
               transform="scale(0.0204,-0.0204)"
               d="m 105,664 55,-2 c 24,-1 35,-9 35,-27 L 112,125 C 95,34 94,31 54,28 L 13,25 9,-3 51,-2 c 41,1 72,2 90,2 17,0 46,-1 86,-2 l 53,-1 3,28 -65,3 c -26,1 -36,9 -36,30 0,9 1,16 4,35 l 98,555 c 36,6 52,8 71,8 102,0 151,-44 151,-137 0,-108 -72,-196 -160,-196 -22,0 -42,5 -79,19 l 2,-31 c 37,-18 57,-23 86,-23 129,0 239,117 239,253 0,101 -63,154 -182,151 H 108 Z"
               stroke="#000000"
               stroke-opacity="1"
               stroke-width="0"
               fill="#000000"
               fill-opacity="1"
               id="path168" />
          </g>
        </g>
        <g
           id="g184">
          <g
             id="g182">
            <g
               id="g180">
              <g
                 id="g178">
                <g
                   transform="translate(228.79687,219.99875)"
                   id="g176">
                  <path
                     transform="scale(0.01428,-0.01428)"
                     d="M 16,23 V -3 c 187,0 187,3 223,3 36,0 36,-3 229,-3 V 82 C 353,77 307,81 122,77 l 182,193 c 97,103 127,158 127,233 0,115 -78,186 -205,186 -72,0 -121,-20 -170,-70 L 39,483 h 29 l 13,46 c 16,58 52,83 119,83 86,0 141,-54 141,-139 0,-75 -42,-149 -155,-269 z"
                     stroke="#000000"
                     stroke-opacity="1"
                     stroke-width="0"
                     fill="#000000"
                     fill-opacity="1"
                     id="path174" />
                </g>
              </g>
            </g>
          </g>
        </g>
      </g>
    </g>
    <g
       id="g198">
      <g
         id="g196">
        <g
           id="g194">
          <g
             transform="translate(395.9375,215.4625)"
             id="g192">
            <path
               transform="scale(0.0204,-0.0204)"
               d="M 748,425 C 748,603 644,706 464,706 227,706 53,523 53,272 53,83 147,-18 323,-18 595,-18 748,207 748,425 Z M 660,409 C 660,221 571,24 360,24 216,24 141,110 141,277 c 0,148 58,387 292,387 116,0 227,-54 227,-255 z"
               stroke="#000000"
               stroke-opacity="1"
               stroke-width="0"
               fill="#000000"
               fill-opacity="1"
               id="path190" />
          </g>
        </g>
      </g>
    </g>
  </svg>
</svg>
