<?xml version="1.0" encoding="UTF-8" standalone="no"?>
<svg
   x="0"
   y="0"
   width="300"
   height="230"
   style="fill:none"
   version="1.1"
   id="svg204"
   sodipodi:docname="光子自旋角动量.svg"
   inkscape:version="1.2.2 (b0a8486, 2022-12-01)"
   xmlns:inkscape="http://www.inkscape.org/namespaces/inkscape"
   xmlns:sodipodi="http://sodipodi.sourceforge.net/DTD/sodipodi-0.dtd"
   xmlns="http://www.w3.org/2000/svg"
   xmlns:svg="http://www.w3.org/2000/svg">
  <defs
     id="defs208" />
  <sodipodi:namedview
     id="namedview206"
     pagecolor="#ffffff"
     bordercolor="#000000"
     borderopacity="0.25"
     inkscape:showpageshadow="2"
     inkscape:pageopacity="0.0"
     inkscape:pagecheckerboard="0"
     inkscape:deskcolor="#d1d1d1"
     showgrid="false"
     inkscape:zoom="1.1808732"
     inkscape:cx="200.27553"
     inkscape:cy="186.72623"
     inkscape:window-width="1280"
     inkscape:window-height="677"
     inkscape:window-x="0"
     inkscape:window-y="25"
     inkscape:window-maximized="0"
     inkscape:current-layer="svg204" />
  <svg
     class="role-diagram-draw-area"
     version="1.1"
     id="svg32"
     width="100%"
     height="100%">
    <g
       class="shapes-region"
       style="fill:none;stroke:#000000"
       id="g24">
      <g
         class="composite-shape axis2d"
         style="stroke:#4a90e2;stroke-width:2;stroke-opacity:1"
         id="g8">
        <path
           class="real"
           d="M 122,178 H 246.5 M 122,63 v 115 z"
           id="path2" />
        <path
           d="m 239.5,173 7,5 -7,5"
           id="path4" />
        <path
           d="m 117,70 5,-7 5,7"
           id="path6" />
      </g>
      <g
         class="composite-shape axis2d"
         style="stroke:#4a90e2;stroke-width:2;stroke-opacity:1"
         id="g16">
        <path
           class="real"
           d="M 121.42,177.88 223.41,106.47 M 55.46,83.67 121.42,177.88 Z"
           id="path10" />
        <path
           d="m 214.8,106.39 8.61,0.08 -2.87,8.11"
           id="path12" />
        <path
           d="m 55.38,92.28 0.08,-8.61 8.11,2.87"
           id="path14" />
      </g>
      <g
         class="composite-shape"
         id="g20">
        <path
           class="real"
           d="m 147.73,159.99 c 2.71,5.26 4.27,11.42 4.27,18.01 h -30 z"
           style="fill:#4a90e2;fill-opacity:0.5;stroke:none;stroke-width:1;stroke-opacity:1"
           id="path18" />
      </g>
      <g
         id="g22" />
    </g>
    <g
       id="g26" />
    <g
       id="g28" />
    <g
       id="g30" />
  </svg>
  <svg
     width="960"
     height="228"
     style="font-family:Asana-Math, Asana"
     version="1.1"
     id="svg202">
    <g
       id="g42">
      <g
         id="g40">
        <g
           id="g38">
          <g
             transform="translate(160,167.4)"
             id="g36">
            <path
               transform="scale(0.0204,-0.0204)"
               d="M 522,473 C 432,473 333,398 296,322 266,261 244,86 234,17 141,41 110,116 112,206 c 2,137 80,226 209,262 v 17 C 172,462 32,363 29,201 27,73 113,11 232,-6 c -12,-88 -33,-184 -52,-271 23,11 55,19 77,26 l 33,247 c 186,4 349,146 353,336 2,80 -34,141 -121,141 z m -37,-33 c 70,0 88,-65 87,-123 C 569,156 451,32 291,15 l 31,163 c 17,89 42,262 163,262 z"
               stroke="#000000"
               stroke-opacity="1"
               stroke-width="0"
               fill="#000000"
               fill-opacity="1"
               id="path34" />
          </g>
        </g>
      </g>
    </g>
    <g
       transform="rotate(-35.85,46.765625,65.265625)"
       id="g94">
      <g
         id="g92">
        <g
           id="g48">
          <g
             transform="translate(33.828125,73.165625)"
             id="g46">
            <path
               transform="scale(0.0204,-0.0204)"
               d="m 179.50274,-172 v 885 h -59 v -885 z"
               stroke="#000000"
               stroke-opacity="1"
               stroke-width="0"
               fill="#000000"
               fill-opacity="1"
               id="path44" />
          </g>
        </g>
        <g
           id="g84">
          <g
             id="g58">
            <g
               id="g56">
              <g
                 id="g54">
                <g
                   transform="translate(40.94751,74.15)"
                   id="g52">
                  <path
                     transform="scale(0.0204,-0.0204)"
                     d="m -7,-180 c -1,-7 -1,-13 -1,-18 0,-43 37,-78 82,-78 106,0 216,124 275,309 l 141,440 -11,9 C 450,471 427,465 405,463 L 370,331 C 358,284 323,211 290,162 255,111 206,67 184,67 c -12,0 -21,23 -20,48 l 16,207 c 2,31 4,69 4,97 0,45 -7,63 -24,63 -13,0 -27,-7 -75,-40 L 3,386 14,368 64,398 c 5,3 16,12 25,12 14,0 22,-19 22,-52 0,-1 0,-7 -1,-15 L 93,100 92,60 c 0,-42 18,-71 43,-71 37,0 121,85 196,198 L 282,16 c -51,-177 -101,-250 -171,-250 -35,0 -62,27 -62,62 0,5 1,13 2,22 l -10,4 z"
                     stroke="#000000"
                     stroke-opacity="1"
                     stroke-width="0"
                     fill="#000000"
                     fill-opacity="1"
                     id="path50" />
                </g>
              </g>
            </g>
          </g>
          <svg
             x="40.84375"
             y="56.75"
             height="6.984375"
             width="10.1875"
             version="1.1"
             id="svg82">
            <defs
               id="defs63">
              <clipPath
                 id="ccp0.8464844769984194">
                <rect
                   x="-0.5"
                   y="-0.5"
                   width="10.6875"
                   height="7.484375"
                   id="rect60" />
              </clipPath>
            </defs>
            <g
               clip-path="url(#ccp0.8464844769984194)"
               id="g80">
              <svg
                 x="0"
                 y="0"
                 height="24"
                 width="20"
                 version="1.1"
                 id="svg78">
                <defs
                   id="defs68">
                  <clipPath
                     id="ccp0.5768670631165401">
                    <rect
                       x="-0.5"
                       y="-0.5"
                       width="20.5"
                       height="24.5"
                       id="rect65" />
                  </clipPath>
                </defs>
                <g
                   clip-path="url(#ccp0.5768670631165401)"
                   id="g76">
                  <g
                     id="g74">
                    <g
                       transform="translate(0,20.4)"
                       id="g72">
                      <path
                         transform="scale(0.0204,-0.0204)"
                         d="m -877,790 h 2754 v 60 H -877 Z"
                         stroke="#000000"
                         stroke-opacity="1"
                         stroke-width="0"
                         fill="#000000"
                         fill-opacity="1"
                         id="path70" />
                    </g>
                  </g>
                </g>
              </svg>
            </g>
          </svg>
        </g>
        <g
           id="g90">
          <g
             transform="translate(52.046875,73.165625)"
             id="g88">
            <path
               transform="scale(0.0204,-0.0204)"
               d="M 329,271 103,713 H 53 L 257,271 53,-172 h 50 z"
               stroke="#000000"
               stroke-opacity="1"
               stroke-width="0"
               fill="#000000"
               fill-opacity="1"
               id="path86" />
          </g>
        </g>
      </g>
    </g>
    <g
       transform="rotate(-35.85,243.76563,95.265625)"
       id="g146">
      <g
         id="g144">
        <g
           id="g100">
          <g
             transform="translate(230.82812,103.16563)"
             id="g98">
            <path
               transform="scale(0.0204,-0.0204)"
               d="m 179.50274,-172 v 885 h -59 v -885 z"
               stroke="#000000"
               stroke-opacity="1"
               stroke-width="0"
               fill="#000000"
               fill-opacity="1"
               id="path96" />
          </g>
        </g>
        <g
           id="g136">
          <g
             id="g110">
            <g
               id="g108">
              <g
                 id="g106">
                <g
                   transform="translate(237.94751,104.15)"
                   id="g104">
                  <path
                     transform="scale(0.0204,-0.0204)"
                     d="m 9,1 c 15,-8 31,-12 43,-12 33,0 72,29 103,76 l 76,117 11,-69 c 13,-85 36,-124 72,-124 22,0 54,17 86,46 l 49,44 -9,19 C 404,68 379,53 363,53 c -15,0 -28,10 -38,30 -9,19 -20,56 -25,85 l -18,101 35,49 c 47,65 74,88 105,88 16,0 28,-8 33,-23 l 14,4 15,85 c -12,7 -21,10 -30,10 -40,0 -80,-36 -142,-128 l -37,-55 -6,48 c -12,99 -39,135 -98,135 -26,0 -48,-8 -57,-21 L 56,378 73,368 c 30,34 50,48 69,48 33,0 55,-41 72,-139 l 11,-62 -40,-62 C 142,86 108,54 80,54 65,54 54,58 52,63 L 41,91 21,88 C 21,53 13,27 9,1 Z"
                     stroke="#000000"
                     stroke-opacity="1"
                     stroke-width="0"
                     fill="#000000"
                     fill-opacity="1"
                     id="path102" />
                </g>
              </g>
            </g>
          </g>
          <svg
             x="237.84375"
             y="86.75"
             height="6.984375"
             width="10.1875"
             version="1.1"
             id="svg134">
            <defs
               id="defs115">
              <clipPath
                 id="ccp0.40583233780768535">
                <rect
                   x="-0.5"
                   y="-0.5"
                   width="10.6875"
                   height="7.484375"
                   id="rect112" />
              </clipPath>
            </defs>
            <g
               clip-path="url(#ccp0.40583233780768535)"
               id="g132">
              <svg
                 x="0"
                 y="0"
                 height="24"
                 width="20"
                 version="1.1"
                 id="svg130">
                <defs
                   id="defs120">
                  <clipPath
                     id="ccp0.8497208653942315">
                    <rect
                       x="-0.5"
                       y="-0.5"
                       width="20.5"
                       height="24.5"
                       id="rect117" />
                  </clipPath>
                </defs>
                <g
                   clip-path="url(#ccp0.8497208653942315)"
                   id="g128">
                  <g
                     id="g126">
                    <g
                       transform="translate(0,20.4)"
                       id="g124">
                      <path
                         transform="scale(0.0204,-0.0204)"
                         d="m -877,790 h 2754 v 60 H -877 Z"
                         stroke="#000000"
                         stroke-opacity="1"
                         stroke-width="0"
                         fill="#000000"
                         fill-opacity="1"
                         id="path122" />
                    </g>
                  </g>
                </g>
              </svg>
            </g>
          </svg>
        </g>
        <g
           id="g142">
          <g
             transform="translate(249.04687,103.16563)"
             id="g140">
            <path
               transform="scale(0.0204,-0.0204)"
               d="M 329,271 103,713 H 53 L 257,271 53,-172 h 50 z"
               stroke="#000000"
               stroke-opacity="1"
               stroke-width="0"
               fill="#000000"
               fill-opacity="1"
               id="path138" />
          </g>
        </g>
      </g>
    </g>
    <g
       transform="rotate(3,268.77344,179)"
       id="g168">
      <g
         id="g166">
        <g
           id="g152">
          <g
             transform="translate(256.96875,187.4)"
             id="g150">
            <path
               transform="scale(0.0204,-0.0204)"
               d="m 179.50274,-172 v 885 h -59 v -885 z"
               stroke="#000000"
               stroke-opacity="1"
               stroke-width="0"
               fill="#000000"
               fill-opacity="1"
               id="path148" />
          </g>
        </g>
        <g
           id="g158">
          <g
             transform="translate(262.96875,187.4)"
             id="g156">
            <path
               transform="scale(0.0204,-0.0204)"
               d="m 9,1 c 15,-8 31,-12 43,-12 33,0 72,29 103,76 l 76,117 11,-69 c 13,-85 36,-124 72,-124 22,0 54,17 86,46 l 49,44 -9,19 C 404,68 379,53 363,53 c -15,0 -28,10 -38,30 -9,19 -20,56 -25,85 l -18,101 35,49 c 47,65 74,88 105,88 16,0 28,-8 33,-23 l 14,4 15,85 c -12,7 -21,10 -30,10 -40,0 -80,-36 -142,-128 l -37,-55 -6,48 c -12,99 -39,135 -98,135 -26,0 -48,-8 -57,-21 L 56,378 73,368 c 30,34 50,48 69,48 33,0 55,-41 72,-139 l 11,-62 -40,-62 C 142,86 108,54 80,54 65,54 54,58 52,63 L 41,91 21,88 C 21,53 13,27 9,1 Z"
               stroke="#000000"
               stroke-opacity="1"
               stroke-width="0"
               fill="#000000"
               fill-opacity="1"
               id="path154" />
          </g>
        </g>
        <g
           id="g164">
          <g
             transform="translate(272.94873,187.4)"
             id="g162">
            <path
               transform="scale(0.0204,-0.0204)"
               d="M 329,271 103,713 H 53 L 257,271 53,-172 h 50 z"
               stroke="#000000"
               stroke-opacity="1"
               stroke-width="0"
               fill="#000000"
               fill-opacity="1"
               id="path160" />
          </g>
        </g>
      </g>
    </g>
    <g
       transform="rotate(3,124.77344,44)"
       id="g190">
      <g
         id="g188">
        <g
           id="g174">
          <g
             transform="translate(112.96875,52.4)"
             id="g172">
            <path
               transform="scale(0.0204,-0.0204)"
               d="m 179.50274,-172 v 885 h -59 v -885 z"
               stroke="#000000"
               stroke-opacity="1"
               stroke-width="0"
               fill="#000000"
               fill-opacity="1"
               id="path170" />
          </g>
        </g>
        <g
           id="g180">
          <g
             transform="translate(118.96875,52.4)"
             id="g178">
            <path
               transform="scale(0.0204,-0.0204)"
               d="m -7,-180 c -1,-7 -1,-13 -1,-18 0,-43 37,-78 82,-78 106,0 216,124 275,309 l 141,440 -11,9 C 450,471 427,465 405,463 L 370,331 C 358,284 323,211 290,162 255,111 206,67 184,67 c -12,0 -21,23 -20,48 l 16,207 c 2,31 4,69 4,97 0,45 -7,63 -24,63 -13,0 -27,-7 -75,-40 L 3,386 14,368 64,398 c 5,3 16,12 25,12 14,0 22,-19 22,-52 0,-1 0,-7 -1,-15 L 93,100 92,60 c 0,-42 18,-71 43,-71 37,0 121,85 196,198 L 282,16 c -51,-177 -101,-250 -171,-250 -35,0 -62,27 -62,62 0,5 1,13 2,22 l -10,4 z"
               stroke="#000000"
               stroke-opacity="1"
               stroke-width="0"
               fill="#000000"
               fill-opacity="1"
               id="path176" />
          </g>
        </g>
        <g
           id="g186">
          <g
             transform="translate(128.94873,52.4)"
             id="g184">
            <path
               transform="scale(0.0204,-0.0204)"
               d="M 329,271 103,713 H 53 L 257,271 53,-172 h 50 z"
               stroke="#000000"
               stroke-opacity="1"
               stroke-width="0"
               fill="#000000"
               fill-opacity="1"
               id="path182" />
          </g>
        </g>
      </g>
    </g>
    <g
       id="g200">
      <g
         id="g198">
        <g
           id="g196">
          <g
             transform="translate(115,204.4)"
             id="g194">
            <path
               transform="scale(0.0204,-0.0204)"
               d="M 748,425 C 748,603 644,706 464,706 227,706 53,523 53,272 53,83 147,-18 323,-18 595,-18 748,207 748,425 Z M 660,409 C 660,221 571,24 360,24 216,24 141,110 141,277 c 0,148 58,387 292,387 116,0 227,-54 227,-255 z"
               stroke="#000000"
               stroke-opacity="1"
               stroke-width="0"
               fill="#000000"
               fill-opacity="1"
               id="path192" />
          </g>
        </g>
      </g>
    </g>
  </svg>
</svg>
