<?xml version="1.0" encoding="UTF-8" standalone="no"?>
<svg
   x="0"
   y="0"
   width="250"
   height="354"
   style="fill:none"
   version="1.1"
   id="svg382"
   sodipodi:docname="单摆.svg"
   inkscape:version="1.2.2 (b0a8486, 2022-12-01)"
   xmlns:inkscape="http://www.inkscape.org/namespaces/inkscape"
   xmlns:sodipodi="http://sodipodi.sourceforge.net/DTD/sodipodi-0.dtd"
   xmlns="http://www.w3.org/2000/svg"
   xmlns:svg="http://www.w3.org/2000/svg">
  <defs
     id="defs386" />
  <sodipodi:namedview
     id="namedview384"
     pagecolor="#ffffff"
     bordercolor="#000000"
     borderopacity="0.25"
     inkscape:showpageshadow="2"
     inkscape:pageopacity="0.0"
     inkscape:pagecheckerboard="0"
     inkscape:deskcolor="#d1d1d1"
     showgrid="false"
     inkscape:zoom="1.4858757"
     inkscape:cx="372.84411"
     inkscape:cy="183.73004"
     inkscape:window-width="1280"
     inkscape:window-height="678"
     inkscape:window-x="0"
     inkscape:window-y="25"
     inkscape:window-maximized="0"
     inkscape:current-layer="svg382" />
  <g
     class="shape"
     id="g4"
     style="fill:none;stroke:#000000">
    <polygon
       class="real"
       points="185.07,276.19 147.9,293.23 115.21,211.5 152.38,194.46 "
       style="fill:#4a90e2;fill-opacity:0.2;stroke:#4a90e2;stroke-width:1;stroke-dasharray:6, 6;stroke-opacity:1"
       id="polygon2" />
  </g>
  <g
     class="arrow-line"
     id="g8"
     style="fill:none;stroke:#000000">
    <path
       class="connection real"
       stroke-dasharray="none"
       d="m 42,31 h 90"
       style="fill:none;fill-opacity:1;stroke:#000000;stroke-width:1"
       id="path6" />
  </g>
  <g
     class="arrow-line"
     id="g12"
     style="fill:none;stroke:#000000">
    <path
       class="connection real"
       stroke-dasharray="none"
       d="m 54,31 8.41,-7.8"
       style="fill:none;fill-opacity:1;stroke:#000000;stroke-width:1"
       id="path10" />
  </g>
  <g
     class="arrow-line"
     id="g16"
     style="fill:none;stroke:#000000">
    <path
       class="connection real"
       stroke-dasharray="none"
       d="m 67,31 8.41,-7.8"
       style="fill:none;fill-opacity:1;stroke:#000000;stroke-width:1"
       id="path14" />
  </g>
  <g
     class="arrow-line"
     id="g20"
     style="fill:none;stroke:#000000">
    <path
       class="connection real"
       stroke-dasharray="none"
       d="m 78,31 8.41,-7.8"
       style="fill:none;fill-opacity:1;stroke:#000000;stroke-width:1"
       id="path18" />
  </g>
  <g
     class="arrow-line"
     id="g24"
     style="fill:none;stroke:#000000">
    <path
       class="connection real"
       stroke-dasharray="none"
       d="m 89,31 8.41,-7.8"
       style="fill:none;fill-opacity:1;stroke:#000000;stroke-width:1"
       id="path22" />
  </g>
  <g
     class="arrow-line"
     id="g28"
     style="fill:none;stroke:#000000">
    <path
       class="connection real"
       stroke-dasharray="none"
       d="m 45,31 8.41,-7.8"
       style="fill:none;fill-opacity:1;stroke:#000000;stroke-width:1"
       id="path26" />
  </g>
  <g
     class="arrow-line"
     id="g32"
     style="fill:none;stroke:#000000">
    <path
       class="connection real"
       stroke-dasharray="none"
       d="m 99,31 8.41,-7.8"
       style="fill:none;fill-opacity:1;stroke:#000000;stroke-width:1"
       id="path30" />
  </g>
  <g
     class="arrow-line"
     id="g36"
     style="fill:none;stroke:#000000">
    <path
       class="connection real"
       stroke-dasharray="none"
       d="m 110,31 8.41,-7.8"
       style="fill:none;fill-opacity:1;stroke:#000000;stroke-width:1"
       id="path34" />
  </g>
  <g
     class="arrow-line"
     id="g40"
     style="fill:none;stroke:#000000">
    <path
       class="connection real"
       stroke-dasharray="none"
       d="m 121,31 8.41,-7.8"
       style="fill:none;fill-opacity:1;stroke:#000000;stroke-width:1"
       id="path38" />
  </g>
  <g
     class="arrow-line"
     id="g48"
     style="fill:none;stroke:#000000">
    <path
       class="connection real"
       stroke-dasharray="6, 6"
       d="m 87,31 0.98,173.98"
       style="fill:none;fill-opacity:1;stroke:#000000;stroke-width:1;stroke-opacity:1"
       id="path42" />
    <g
       stroke="rgb(0,0,0)"
       transform="rotate(89.68,-60.582474,148.24643)"
       stroke-opacity="1"
       style="stroke:#000000;stroke-width:1"
       id="g46">
      <circle
         cx="0"
         cy="0"
         r="4.02"
         id="circle44" />
    </g>
  </g>
  <g
     class="composite-shape"
     id="g52"
     style="fill:none;stroke:#000000">
    <path
       class="real"
       d="M 152.38,194.46 C 132.17,202.55 110.1,207 87,207 63.83,207 41.71,202.52 21.45,194.39 L 87,31 Z"
       style="fill:none;fill-opacity:1;stroke:#000000;stroke-width:1;stroke-dasharray:6, 6"
       id="path50" />
  </g>
  <g
     class="arrow-line"
     id="g56"
     style="fill:none;stroke:#000000">
    <path
       class="connection real"
       stroke-dasharray="none"
       d="m 87,31 65.38,163.46"
       style="fill:none;fill-opacity:1;stroke:#000000;stroke-width:1"
       id="path54" />
  </g>
  <g
     class="arrow-line"
     id="g64"
     style="fill:none;stroke:#000000">
    <path
       class="connection real"
       stroke-dasharray="none"
       d="M 152.38,194.46 121.17,116.44"
       style="fill:none;fill-opacity:1;stroke:#d0021b;stroke-width:2;stroke-opacity:1"
       id="path58" />
    <g
       stroke="none"
       transform="rotate(68.2,-23.405107,144.75425)"
       fill="rgb(208,2,27)"
       fill-opacity="1"
       style="fill:#d0021b;stroke:none;stroke-width:2"
       id="g62">
      <path
         d="M 13.4,-6.43 0,0 13.4,6.44 8.9,0 Z"
         id="path60" />
    </g>
  </g>
  <g
     class="arrow-line"
     id="g72"
     style="fill:none;stroke:#000000">
    <path
       class="connection real"
       stroke-dasharray="none"
       d="m 183.58,272.47 -31.2,-78.01"
       style="fill:none;fill-opacity:1;stroke:#4a90e2;stroke-width:2;stroke-opacity:1"
       id="path66" />
    <g
       stroke="none"
       fill="rgb(74,144,226)"
       transform="rotate(-111.8,186.0294,75.442775)"
       fill-opacity="1"
       style="fill:#4a90e2;stroke:none;stroke-width:2"
       id="g70">
      <path
         d="M 13.4,-6.43 0,0 13.4,6.44 8.9,0 Z"
         id="path68" />
    </g>
  </g>
  <g
     class="arrow-line"
     id="g80"
     style="fill:none;stroke:#000000">
    <path
       class="connection real"
       stroke-dasharray="none"
       d="m 118.85,209.83 33.53,-15.37"
       style="fill:none;fill-opacity:1;stroke:#4a90e2;stroke-width:2;stroke-opacity:1"
       id="path74" />
    <g
       stroke="none"
       fill="rgb(74,144,226)"
       transform="rotate(-24.63,542.00701,-158.12047)"
       fill-opacity="1"
       style="fill:#4a90e2;stroke:none;stroke-width:2"
       id="g78">
      <path
         d="M 13.4,-6.43 0,0 13.4,6.44 8.9,0 Z"
         id="path76" />
    </g>
  </g>
  <g
     class="arrow-line"
     id="g88"
     style="fill:none;stroke:#000000">
    <path
       class="connection real"
       stroke-dasharray="none"
       d="m 148.08,289.23 4.3,-94.77"
       style="fill:none;fill-opacity:1;stroke:#4a90e2;stroke-width:2;stroke-opacity:1"
       id="path82" />
    <g
       stroke="none"
       fill="rgb(74,144,226)"
       transform="rotate(-87.4,227.37238,69.229637)"
       fill-opacity="1"
       style="fill:#4a90e2;stroke:none;stroke-width:2"
       id="g86">
      <path
         d="M 13.4,-6.43 0,0 13.4,6.44 8.9,0 Z"
         id="path84" />
    </g>
  </g>
  <g
     class="arrow-line"
     id="g92"
     style="fill:none;stroke:#000000">
    <path
       class="connection real"
       stroke-dasharray="none"
       d="m 86.81,69.3 c 7,3 7.86,2.37 14,-2"
       style="fill:none;fill-opacity:1;stroke:#000000;stroke-width:1"
       id="path90" />
  </g>
  <g
     class="intersections-group"
     id="g176"
     style="fill:none;stroke:#000000">
    <g
       style="fill:none;fill-opacity:1;stroke:#000000;stroke-width:1"
       id="g174">
      <g
         id="g164" />
      <g
         id="g166" />
      <g
         id="g168" />
      <g
         id="g170" />
      <g
         id="g172" />
    </g>
  </g>
  <g
     id="g180" />
  <g
     id="g182" />
  <g
     id="g184" />
  <g
     id="g196"
     style="font-family:Asana-Math, Asana">
    <g
       id="g194">
      <g
         id="g192">
        <g
           transform="translate(131,113.4)"
           id="g190">
          <path
             transform="scale(0.0204,-0.0204)"
             d="m 390,646 h 73 c 78,0 114,-5 117,-17 3,-8 5,-27 4,-37 l -4,-64 h 28 l 27,164 -91,-1 c -88,-1 -156,-2 -191,-2 -37,0 -101,1 -187,2 L 71,692 53,528 h 29 l 15,60 c 5,22 12,38 18,45 6,7 44,13 81,13 H 308 L 222,125 C 206,34 204,31 164,28 l -51,-3 -4,-28 57,1 c 40,1 69,2 85,2 19,0 50,-1 89,-2 l 44,-1 3,28 -59,3 c -26,1 -36,9 -36,30 0,9 1,16 4,35 z"
             stroke="#d0021b"
             stroke-opacity="1"
             stroke-width="0"
             fill="#d0021b"
             fill-opacity="1"
             id="path188" />
        </g>
      </g>
    </g>
  </g>
  <g
     id="g206"
     style="font-family:Asana-Math, Asana">
    <g
       id="g204">
      <g
         id="g202">
        <g
           transform="translate(131,317.4)"
           id="g200">
          <path
             transform="scale(0.0204,-0.0204)"
             d="M 730,103 704,86 C 675,67 653,56 643,56 c -7,0 -13,9 -13,20 0,10 2,19 7,40 l 75,297 c 4,17 7,33 7,41 0,17 -10,28 -26,28 -29,0 -67,-18 -128,-61 -63,-45 -98,-80 -147,-149 l 30,137 c 4,20 7,35 7,42 0,19 -10,31 -26,31 -30,0 -76,-22 -131,-64 -44,-34 -64,-55 -129,-143 l 33,133 c 4,16 6,31 6,43 0,19 -9,31 -23,31 -21,0 -59,-21 -133,-74 l -28,-20 7,-20 c 37,23 72,46 79,46 11,0 18,-10 18,-25 C 128,338 87,145 46,2 l 3,-11 68,15 22,102 c 24,111 51,170 106,230 42,46 87,76 115,76 7,0 11,-8 11,-21 0,-35 -22,-149 -63,-324 l -16,-67 5,-11 69,15 21,107 c 16,81 50,156 94,205 55,61 105,96 137,96 8,0 13,-9 13,-25 0,-24 -3,-38 -25,-125 C 566,105 550,84 550,31 c 0,-25 11,-40 30,-40 26,0 62,21 160,94 z m 322,379 c -67,0 -220,-63 -220,-223 0,-77 45,-123 122,-123 8,0 19,0 30,1 L 943,99 C 927,84 916,66 916,52 916,42 923,31 937,19 868,-4 740,-48 740,-159 c 0,-71 70,-117 179,-117 129,0 242,72 242,155 0,36 -21,72 -64,107 l -60,49 c -34,27 -47,46 -47,65 0,14 15,28 27,46 98,24 169,107 169,196 0,15 -3,34 -4,38 17,-2 25,-2 34,-2 17,0 27,1 50,4 l 9,45 -3,6 c -28,-7 -48,-9 -102,-9 0,1 -24,58 -118,58 z M 953,1 l 77,-59 c 46,-36 65,-63 65,-96 0,-52 -69,-94 -152,-94 -82,0 -139,42 -139,103 0,102 110,134 149,146 z m 74,447 c 58,0 87,-36 87,-107 0,-103 -48,-173 -118,-173 -61,0 -93,41 -93,120 0,95 51,160 124,160 z"
             stroke="#4a90e2"
             stroke-opacity="1"
             stroke-width="0"
             fill="#4a90e2"
             fill-opacity="1"
             id="path198" />
        </g>
      </g>
    </g>
  </g>
  <g
     id="g216"
     style="font-family:Asana-Math, Asana">
    <g
       id="g214">
      <g
         id="g212">
        <g
           transform="translate(93,98.4)"
           id="g210">
          <path
             transform="scale(0.0204,-0.0204)"
             d="m 237,-16 c 236,0 335,332 339,520 2,114 -30,198 -157,198 C 159,702 72,412 69,199 67,80 101,-16 237,-16 Z m 164,692 c 135,0 105,-185 84,-295 H 169 c 25,104 103,295 232,295 z M 253,13 C 102,13 147,261 163,349 H 479 C 454,237 396,13 253,13 Z"
             stroke="#000000"
             stroke-opacity="1"
             stroke-width="0"
             fill="#000000"
             fill-opacity="1"
             id="path208" />
        </g>
      </g>
    </g>
  </g>
  <g
     id="g238"
     style="font-family:Asana-Math, Asana">
    <g
       id="g236">
      <g
         id="g222">
        <g
           transform="translate(188.0625,297.57187)"
           id="g220">
          <path
             transform="scale(0.0204,-0.0204)"
             d="M 730,103 704,86 C 675,67 653,56 643,56 c -7,0 -13,9 -13,20 0,10 2,19 7,40 l 75,297 c 4,17 7,33 7,41 0,17 -10,28 -26,28 -29,0 -67,-18 -128,-61 -63,-45 -98,-80 -147,-149 l 30,137 c 4,20 7,35 7,42 0,19 -10,31 -26,31 -30,0 -76,-22 -131,-64 -44,-34 -64,-55 -129,-143 l 33,133 c 4,16 6,31 6,43 0,19 -9,31 -23,31 -21,0 -59,-21 -133,-74 l -28,-20 7,-20 c 37,23 72,46 79,46 11,0 18,-10 18,-25 C 128,338 87,145 46,2 l 3,-11 68,15 22,102 c 24,111 51,170 106,230 42,46 87,76 115,76 7,0 11,-8 11,-21 0,-35 -22,-149 -63,-324 l -16,-67 5,-11 69,15 21,107 c 16,81 50,156 94,205 55,61 105,96 137,96 8,0 13,-9 13,-25 0,-24 -3,-38 -25,-125 C 566,105 550,84 550,31 c 0,-25 11,-40 30,-40 26,0 62,21 160,94 z m 318,101 -29,-127 c -4,-17 -6,-35 -6,-51 0,-22 9,-35 24,-35 23,0 64,26 146,94 l -7,21 c -24,-20 -53,-47 -75,-47 -9,0 -15,9 -15,23 0,5 0,8 1,11 l 92,379 -10,9 -33,-18 c -41,15 -58,19 -85,19 -28,0 -48,-5 -75,-18 C 914,433 881,403 856,354 812,265 781,145 781,67 c 0,-44 15,-78 34,-78 37,0 117,52 233,215 z m 48,210 C 1074,305 1055,253 1021,201 964,117 903,59 871,59 c -12,0 -18,13 -18,40 0,64 28,181 63,261 24,55 47,73 95,73 23,0 41,-4 85,-19 z"
             stroke="#4a90e2"
             stroke-opacity="1"
             stroke-width="0"
             fill="#4a90e2"
             fill-opacity="1"
             id="path218" />
        </g>
      </g>
      <g
         id="g234">
        <g
           id="g232">
          <g
             id="g230">
            <g
               id="g228">
              <g
                 transform="translate(213.0625,301.17062)"
                 id="g226">
                <path
                   transform="scale(0.01428,-0.01428)"
                   d="m 24,388 7,-20 32,21 c 37,23 40,25 47,25 11,0 18,-10 18,-25 C 128,338 87,145 46,2 l 7,-11 c 25,7 48,13 70,17 19,126 40,191 86,260 54,84 129,146 174,146 11,0 17,-9 17,-24 0,-18 -3,-39 -11,-71 L 337,107 c -9,-37 -13,-60 -13,-76 0,-25 11,-40 30,-40 26,0 62,21 160,94 L 504,103 478,86 C 449,67 427,56 417,56 c -7,0 -13,9 -13,20 0,5 1,16 2,20 l 66,276 c 7,29 11,57 11,74 0,23 -11,36 -31,36 -42,0 -111,-38 -170,-93 -38,-35 -66,-69 -118,-142 l 38,161 c 4,18 6,30 6,41 0,21 -8,33 -23,33 -21,0 -60,-22 -133,-74 z"
                   stroke="#4a90e2"
                   stroke-opacity="1"
                   stroke-width="0"
                   fill="#4a90e2"
                   fill-opacity="1"
                   id="path224" />
              </g>
            </g>
          </g>
        </g>
      </g>
    </g>
  </g>
  <g
     id="g260"
     style="font-family:Asana-Math, Asana">
    <g
       id="g258">
      <g
         id="g244">
        <g
           transform="translate(83.0625,232.57187)"
           id="g242">
          <path
             transform="scale(0.0204,-0.0204)"
             d="M 730,103 704,86 C 675,67 653,56 643,56 c -7,0 -13,9 -13,20 0,10 2,19 7,40 l 75,297 c 4,17 7,33 7,41 0,17 -10,28 -26,28 -29,0 -67,-18 -128,-61 -63,-45 -98,-80 -147,-149 l 30,137 c 4,20 7,35 7,42 0,19 -10,31 -26,31 -30,0 -76,-22 -131,-64 -44,-34 -64,-55 -129,-143 l 33,133 c 4,16 6,31 6,43 0,19 -9,31 -23,31 -21,0 -59,-21 -133,-74 l -28,-20 7,-20 c 37,23 72,46 79,46 11,0 18,-10 18,-25 C 128,338 87,145 46,2 l 3,-11 68,15 22,102 c 24,111 51,170 106,230 42,46 87,76 115,76 7,0 11,-8 11,-21 0,-35 -22,-149 -63,-324 l -16,-67 5,-11 69,15 21,107 c 16,81 50,156 94,205 55,61 105,96 137,96 8,0 13,-9 13,-25 0,-24 -3,-38 -25,-125 C 566,105 550,84 550,31 c 0,-25 11,-40 30,-40 26,0 62,21 160,94 z m 318,101 -29,-127 c -4,-17 -6,-35 -6,-51 0,-22 9,-35 24,-35 23,0 64,26 146,94 l -7,21 c -24,-20 -53,-47 -75,-47 -9,0 -15,9 -15,23 0,5 0,8 1,11 l 92,379 -10,9 -33,-18 c -41,15 -58,19 -85,19 -28,0 -48,-5 -75,-18 C 914,433 881,403 856,354 812,265 781,145 781,67 c 0,-44 15,-78 34,-78 37,0 117,52 233,215 z m 48,210 C 1074,305 1055,253 1021,201 964,117 903,59 871,59 c -12,0 -18,13 -18,40 0,64 28,181 63,261 24,55 47,73 95,73 23,0 41,-4 85,-19 z"
             stroke="#4a90e2"
             stroke-opacity="1"
             stroke-width="0"
             fill="#4a90e2"
             fill-opacity="1"
             id="path240" />
        </g>
      </g>
      <g
         id="g256">
        <g
           id="g254">
          <g
             id="g252">
            <g
               id="g250">
              <g
                 transform="translate(108.0625,235.17062)"
                 id="g248">
                <path
                   transform="scale(0.01428,-0.01428)"
                   d="m 63,278 v 3 C 118,423 114,402 279,408 237,307 190,180 187,71 183,-74 360,-4 411,59 v 6 L 397,75 V 74 C 374,56 347,33 318,33 c -120,0 -5,337 8,379 45,1 105,-1 150,8 v 43 H 108 C 81,448 56,310 48,278 Z"
                   stroke="#4a90e2"
                   stroke-opacity="1"
                   stroke-width="0"
                   fill="#4a90e2"
                   fill-opacity="1"
                   id="path246" />
              </g>
            </g>
          </g>
        </g>
      </g>
    </g>
  </g>
  <g
     id="g270"
     style="font-family:Asana-Math, Asana">
    <g
       id="g268">
      <g
         id="g266">
        <g
           transform="translate(28,111.4)"
           id="g264">
          <path
             transform="scale(0.0204,-0.0204)"
             d="m 349,664 3,28 -114,-3 c -16,0 -34,0 -77,1 l -64,2 -3,-28 47,-2 c 24,-1 35,-9 35,-27 L 81,55 C 77,37 65,30 21,23 l -5,-26 41,1 c 31,1 93,2 113,2 0,0 297,-1 297,-1 0,0 33,1 33,1 -1,25 10,103 23,165 H 492 L 475,103 C 466,71 457,54 448,49 435,44 371,39 304,39 c -49,0 -76,1 -142,7 3,18 94,559 94,567 7,38 14,45 51,48 z"
             stroke="#000000"
             stroke-opacity="1"
             stroke-width="0"
             fill="#000000"
             fill-opacity="1"
             id="path262" />
        </g>
      </g>
    </g>
  </g>
</svg>
