<svg xmlns="http://www.w3.org/2000/svg" xmlns:xlink="http://www.w3.org/1999/xlink" x="0" y="0" width="662" height="267" style="
        width:662px;
        height:267px;
        background: transparent;
        fill: none;
">
        
        
        <svg xmlns="http://www.w3.org/2000/svg" class="role-diagram-draw-area"><g class="shapes-region" style="stroke: black; fill: none;"><g class="arrow-line"><path class="connection real" stroke-dasharray="" d="  M269.5,93.08 L56.5,214.08" style="stroke: rgb(74, 144, 226); stroke-opacity: 1; stroke-width: 1; fill: none; fill-opacity: 1;"/></g><g class="composite-shape"><path class="real" d=" M427.67,94.79 L557.17,64.8 L577.5,152.58 L448,182.58 Z" style="stroke-width: 1; stroke: none; stroke-opacity: 1; fill: rgb(74, 144, 226); fill-opacity: 0.3;"/></g><g class="arrow-line"><path class="connection real" stroke-dasharray="" d="  M462.63,116.98 L448,182.58" style="stroke: rgb(74, 144, 226); stroke-opacity: 1; stroke-width: 2; fill: none; fill-opacity: 1;"/><g stroke="none" fill="rgb(74,144,226)" fill-opacity="1" transform="matrix(-0.2176322226956502,0.9760308476910712,-0.9760308476910712,-0.2176322226956502,463.49999999999994,113.078125)" style="stroke: none; fill: rgb(74, 144, 226); stroke-width: 2;"><path d=" M11.61,-5.58 L0,0 L11.61,5.58 Z"/></g></g><g class="arrow-line"><path class="connection real" stroke-dasharray="" d="  M532.91,140.84 L448,182.58" style="stroke: rgb(74, 144, 226); stroke-opacity: 1; stroke-width: 2; fill: none; fill-opacity: 1;"/><g stroke="none" fill="rgb(74,144,226)" fill-opacity="1" transform="matrix(-0.8974124296230541,0.4411926236441934,-0.4411926236441934,-0.8974124296230541,536.5000000000001,139.078125)" style="stroke: none; fill: rgb(74, 144, 226); stroke-width: 2;"><path d=" M11.61,-5.58 L0,0 L11.61,5.58 Z"/></g></g><g class="arrow-line"><path class="connection real" stroke-dasharray="" d="  M126,174.58 L126,66.08" style="stroke: rgb(126, 211, 33); stroke-opacity: 1; stroke-width: 1; fill: none; fill-opacity: 1;"/><g stroke="rgb(126,211,33)" stroke-opacity="1" transform="matrix(3.061616997868383e-16,1,-1,3.061616997868383e-16,125.99999999999999,64.078125)" style="stroke: rgb(126, 211, 33); stroke-width: 1;"><path d=" M10.93,-3.29 Q4.96,-0.45 0,0 Q4.96,0.45 10.93,3.29"/></g></g><g class="arrow-line"><path class="connection real" stroke-dasharray="" d="  M126,174.58 L236.5,174.58" style="stroke: rgb(126, 211, 33); stroke-opacity: 1; stroke-width: 1; fill: none; fill-opacity: 1;"/><g stroke="rgb(126,211,33)" stroke-opacity="1" transform="matrix(-1,1.2246467991473532e-16,-1.2246467991473532e-16,-1,238.49999999999997,174.57812500000003)" style="stroke: rgb(126, 211, 33); stroke-width: 1;"><path d=" M10.93,-3.29 Q4.96,-0.45 0,0 Q4.96,0.45 10.93,3.29"/></g></g><g class="arrow-line"><path class="connection real" stroke-dasharray="" d="  M126,174.58 L61.91,238.66" style="stroke: rgb(126, 211, 33); stroke-opacity: 1; stroke-width: 1; fill: none; fill-opacity: 1;"/><g stroke="rgb(126,211,33)" stroke-opacity="1" transform="matrix(0.7071067811865474,-0.7071067811865477,0.7071067811865477,0.7071067811865474,60.5,240.078125)" style="stroke: rgb(126, 211, 33); stroke-width: 1;"><path d=" M10.93,-3.29 Q4.96,-0.45 0,0 Q4.96,0.45 10.93,3.29"/></g></g><g class="arrow-line"><path class="connection real" stroke-dasharray="" d="  M184.04,141.08 L126,174.58" style="stroke: rgb(74, 144, 226); stroke-opacity: 1; stroke-width: 2; fill: none; fill-opacity: 1;"/><g stroke="none" fill="rgb(74,144,226)" fill-opacity="1" transform="matrix(-0.8660254037844387,0.49999999999999994,-0.49999999999999994,-0.8660254037844387,187.5,139.078125)" style="stroke: none; fill: rgb(74, 144, 226); stroke-width: 2;"><path d=" M11.61,-5.58 L0,0 L11.61,5.58 Z"/></g></g><g class="arrow-line"><path class="connection real" stroke-dasharray="" d="  M448,182.58 L448,74.08" style="stroke: rgb(126, 211, 33); stroke-opacity: 1; stroke-width: 1; fill: none; fill-opacity: 1;"/><g stroke="rgb(126,211,33)" stroke-opacity="1" transform="matrix(3.061616997868383e-16,1,-1,3.061616997868383e-16,448,72.078125)" style="stroke: rgb(126, 211, 33); stroke-width: 1;"><path d=" M10.93,-3.29 Q4.96,-0.45 0,0 Q4.96,0.45 10.93,3.29"/></g></g><g class="arrow-line"><path class="connection real" stroke-dasharray="" d="  M448,182.58 L558.5,182.58" style="stroke: rgb(126, 211, 33); stroke-opacity: 1; stroke-width: 1; fill: none; fill-opacity: 1;"/><g stroke="rgb(126,211,33)" stroke-opacity="1" transform="matrix(-1,1.2246467991473532e-16,-1.2246467991473532e-16,-1,560.5,182.578125)" style="stroke: rgb(126, 211, 33); stroke-width: 1;"><path d=" M10.93,-3.29 Q4.96,-0.45 0,0 Q4.96,0.45 10.93,3.29"/></g></g><g class="arrow-line"><path class="connection real" stroke-dasharray="" d="  M448,182.58 L399.93,229.68" style="stroke: rgb(126, 211, 33); stroke-opacity: 1; stroke-width: 1; fill: none; fill-opacity: 1;"/><g stroke="rgb(126,211,33)" stroke-opacity="1" transform="matrix(0.7142284075306495,-0.6999126958958756,0.6999126958958756,0.7142284075306495,398.5,231.078125)" style="stroke: rgb(126, 211, 33); stroke-width: 1;"><path d=" M10.93,-3.29 Q4.96,-0.45 0,0 Q4.96,0.45 10.93,3.29"/></g></g><g/></g><g/><g/><g/></svg>
        <svg xmlns="http://www.w3.org/2000/svg" xmlns:xlink="http://www.w3.org/1999/xlink" width="660" height="265" style="width:660px;height:265px;font-family:Asana-Math, Asana;background:transparent;"><g><g><g><g transform="matrix(1,0,0,1,461,110.4)"><path transform="matrix(0.020399999999999998,0,0,-0.020399999999999998,0,0)" d="M283 49C203 49 183 94 183 170L183 465L174 469C123 448 71 434 18 428L18 400L55 400C95 400 99 393 99 327L99 159C99 70 104 -12 240 -12C285 -12 325 2 352 27L419 89C419 60 418 44 415 -3C482 0 483 0 498 0C512 0 512 0 581 -3L581 27L540 30C506 32 503 38 503 102L503 465L494 469C443 448 391 434 338 428L338 400L375 400C415 400 419 393 419 327L419 164C419 126 370 49 283 49Z" stroke="rgb(74,144,226)" stroke-opacity="1" stroke-width="24" fill="rgb(74,144,226)" fill-opacity="1"></path></g></g></g></g><g><g><g><g transform="matrix(1,0,0,1,528,130.48)"><path transform="matrix(0.024480000000000002,0,0,-0.024480000000000002,0,0)" d="M539 431L539 459C479 457 461 456 445 456C429 456 411 457 351 459L351 431L392 429C408 428 416 419 416 403C416 387 409 360 397 330C385 301 331 167 293 84L174 372C168 386 165 399 165 410C165 421 174 428 190 429L239 431L239 459C141 456 141 456 122 456C103 456 55 457 6 459L6 431L40 429C55 427 60 421 71 396L243 -7L293 -7L452 362C474 409 488 427 508 429Z" stroke="rgb(74,144,226)" stroke-opacity="1" stroke-width="24" fill="rgb(74,144,226)" fill-opacity="1"></path></g></g></g></g><g><g><g><g><g><g><text x="413" y="17" style="white-space:pre;stroke:none;fill:rgb(74,144,226);fill-opacity:1;font-size:21.6px;font-family:Arial, Helvetica, sans-serif;font-weight:400;font-style:normal;dominant-baseline:text-before-edge;text-decoration:none;">span</text></g></g></g></g><g><g transform="matrix(1,0,0,1,460.71875,38.480000000000004)"><path transform="matrix(0.024480000000000002,0,0,-0.024480000000000002,0,0)" d="M289 -175C226 -161 206 -117 206 -45L206 128C206 207 197 253 125 272L125 274C194 292 206 335 206 409L206 595C206 667 224 707 289 726C189 726 134 703 134 578L134 392C134 327 120 292 58 273C124 254 134 223 134 151L134 -17C134 -149 176 -175 289 -175Z" stroke="rgb(74,144,226)" stroke-opacity="1" stroke-width="0" fill="rgb(74,144,226)" fill-opacity="1"></path></g></g><g><g transform="matrix(1,0,0,1,469.90625,37.480000000000004)"><path transform="matrix(0.024480000000000002,0,0,-0.024480000000000002,0,0)" d="M283 49C203 49 183 94 183 170L183 465L174 469C123 448 71 434 18 428L18 400L55 400C95 400 99 393 99 327L99 159C99 70 104 -12 240 -12C285 -12 325 2 352 27L419 89C419 60 418 44 415 -3C482 0 483 0 498 0C512 0 512 0 581 -3L581 27L540 30C506 32 503 38 503 102L503 465L494 469C443 448 391 434 338 428L338 400L375 400C415 400 419 393 419 327L419 164C419 126 370 49 283 49Z" stroke="rgb(74,144,226)" stroke-opacity="1" stroke-width="24" fill="rgb(74,144,226)" fill-opacity="1"></path></g></g><g><g transform="matrix(1,0,0,1,485.354248046875,37.480000000000004)"><path transform="matrix(0.024480000000000002,0,0,-0.024480000000000002,0,0)" d="M204 123C177 114 159 108 106 93C99 17 74 -48 16 -144L30 -155L71 -136C152 -31 190 32 218 109Z" stroke="rgb(74,144,226)" stroke-opacity="1" stroke-width="0" fill="rgb(74,144,226)" fill-opacity="1"></path></g></g><g><g transform="matrix(1,0,0,1,496.22088623046875,37.480000000000004)"><path transform="matrix(0.024480000000000002,0,0,-0.024480000000000002,0,0)" d="M539 431L539 459C479 457 461 456 445 456C429 456 411 457 351 459L351 431L392 429C408 428 416 419 416 403C416 387 409 360 397 330C385 301 331 167 293 84L174 372C168 386 165 399 165 410C165 421 174 428 190 429L239 431L239 459C141 456 141 456 122 456C103 456 55 457 6 459L6 431L40 429C55 427 60 421 71 396L243 -7L293 -7L452 362C474 409 488 427 508 429Z" stroke="rgb(74,144,226)" stroke-opacity="1" stroke-width="24" fill="rgb(74,144,226)" fill-opacity="1"></path></g></g><g><g transform="matrix(1,0,0,1,511.96875,38.480000000000004)"><path transform="matrix(0.024480000000000002,0,0,-0.024480000000000002,0,0)" d="M275 273C213 292 199 327 199 392L199 578C199 703 144 726 44 726C109 707 127 667 127 595L127 409C127 335 139 292 208 274L208 272C136 253 127 207 127 128L127 -45C127 -117 107 -161 44 -175C157 -175 199 -149 199 -17L199 151C199 223 209 254 275 273Z" stroke="rgb(74,144,226)" stroke-opacity="1" stroke-width="0" fill="rgb(74,144,226)" fill-opacity="1"></path></g></g></g></g><g><g><g><g><g><g><text x="157" y="19.578125" style="white-space:pre;stroke:none;fill:rgb(74,144,226);fill-opacity:1;font-size:21.6px;font-family:Arial, Helvetica, sans-serif;font-weight:400;font-style:normal;dominant-baseline:text-before-edge;text-decoration:none;">span</text></g></g></g></g><g><g transform="matrix(1,0,0,1,204.71875,41.058125000000004)"><path transform="matrix(0.024480000000000002,0,0,-0.024480000000000002,0,0)" d="M289 -175C226 -161 206 -117 206 -45L206 128C206 207 197 253 125 272L125 274C194 292 206 335 206 409L206 595C206 667 224 707 289 726C189 726 134 703 134 578L134 392C134 327 120 292 58 273C124 254 134 223 134 151L134 -17C134 -149 176 -175 289 -175Z" stroke="rgb(74,144,226)" stroke-opacity="1" stroke-width="0" fill="rgb(74,144,226)" fill-opacity="1"></path></g></g><g><g transform="matrix(1,0,0,1,213.90625,40.058125000000004)"><path transform="matrix(0.024480000000000002,0,0,-0.024480000000000002,0,0)" d="M539 431L539 459C479 457 461 456 445 456C429 456 411 457 351 459L351 431L392 429C408 428 416 419 416 403C416 387 409 360 397 330C385 301 331 167 293 84L174 372C168 386 165 399 165 410C165 421 174 428 190 429L239 431L239 459C141 456 141 456 122 456C103 456 55 457 6 459L6 431L40 429C55 427 60 421 71 396L243 -7L293 -7L452 362C474 409 488 427 508 429Z" stroke="rgb(74,144,226)" stroke-opacity="1" stroke-width="24" fill="rgb(74,144,226)" fill-opacity="1"></path></g></g><g><g transform="matrix(1,0,0,1,229.65625,41.058125000000004)"><path transform="matrix(0.024480000000000002,0,0,-0.024480000000000002,0,0)" d="M275 273C213 292 199 327 199 392L199 578C199 703 144 726 44 726C109 707 127 667 127 595L127 409C127 335 139 292 208 274L208 272C136 253 127 207 127 128L127 -45C127 -117 107 -161 44 -175C157 -175 199 -149 199 -17L199 151C199 223 209 254 275 273Z" stroke="rgb(74,144,226)" stroke-opacity="1" stroke-width="0" fill="rgb(74,144,226)" fill-opacity="1"></path></g></g></g></g><g><g><g><g transform="matrix(1,0,0,1,157,134.48)"><path transform="matrix(0.024480000000000002,0,0,-0.024480000000000002,0,0)" d="M539 431L539 459C479 457 461 456 445 456C429 456 411 457 351 459L351 431L392 429C408 428 416 419 416 403C416 387 409 360 397 330C385 301 331 167 293 84L174 372C168 386 165 399 165 410C165 421 174 428 190 429L239 431L239 459C141 456 141 456 122 456C103 456 55 457 6 459L6 431L40 429C55 427 60 421 71 396L243 -7L293 -7L452 362C474 409 488 427 508 429Z" stroke="rgb(74,144,226)" stroke-opacity="1" stroke-width="24" fill="rgb(74,144,226)" fill-opacity="1"></path></g></g></g></g></svg>
</svg>
