<?xml version="1.0" encoding="UTF-8" standalone="no"?>
<svg
   x="0"
   y="0"
   width="300"
   height="295"
   style="fill:none"
   version="1.1"
   id="svg170"
   sodipodi:docname="sum_of_subspaces.svg"
   inkscape:version="1.2.2 (b0a8486, 2022-12-01)"
   xmlns:inkscape="http://www.inkscape.org/namespaces/inkscape"
   xmlns:sodipodi="http://sodipodi.sourceforge.net/DTD/sodipodi-0.dtd"
   xmlns="http://www.w3.org/2000/svg"
   xmlns:svg="http://www.w3.org/2000/svg">
  <defs
     id="defs174" />
  <sodipodi:namedview
     id="namedview172"
     pagecolor="#ffffff"
     bordercolor="#000000"
     borderopacity="0.25"
     inkscape:showpageshadow="2"
     inkscape:pageopacity="0.0"
     inkscape:pagecheckerboard="0"
     inkscape:deskcolor="#d1d1d1"
     showgrid="false"
     inkscape:zoom="1.7160121"
     inkscape:cx="331"
     inkscape:cy="147.72623"
     inkscape:window-width="1280"
     inkscape:window-height="677"
     inkscape:window-x="0"
     inkscape:window-y="25"
     inkscape:window-maximized="0"
     inkscape:current-layer="svg170" />
  <svg
     class="role-diagram-draw-area"
     version="1.1"
     id="svg76"
     width="100%"
     height="100%">
    <g
       class="shapes-region"
       style="fill:none;stroke:#000000"
       id="g68">
      <g
         class="composite-shape"
         id="g4">
        <path
           class="real"
           d="M 60.13,142.72 167.68,34.45 162.5,121.08 54.94,229.35 Z"
           style="fill:#4a90e2;fill-opacity:0.2;stroke:#4a90e2;stroke-width:1;stroke-opacity:1"
           id="path2" />
      </g>
      <g
         class="arrow-line"
         id="g12">
        <path
           class="connection real"
           stroke-dasharray="none"
           d="M 129.65,123.63 99,182.58"
           style="fill:none;fill-opacity:1;stroke:#4a90e2;stroke-width:2;stroke-opacity:1"
           id="path6" />
        <g
           stroke="none"
           fill="rgb(74,144,226)"
           fill-opacity="1"
           transform="rotate(117.47,29.295893,99.960697)"
           style="fill:#4a90e2;stroke:none;stroke-width:2"
           id="g10">
          <path
             d="M 11.61,-5.58 0,0 11.61,5.58 Z"
             id="path8" />
        </g>
      </g>
      <g
         class="arrow-line"
         id="g20">
        <path
           class="connection real"
           stroke-dasharray="none"
           d="m 99,182.58 1.48,-138.5"
           style="fill:none;fill-opacity:1;stroke:#4a90e2;stroke-width:1;stroke-opacity:1"
           id="path14" />
        <g
           stroke="rgb(74,144,226)"
           stroke-opacity="1"
           transform="rotate(90.61,29.433746,70.756903)"
           style="stroke:#4a90e2;stroke-width:1"
           id="g18">
          <path
             d="M 10.93,-3.29 Q 4.96,-0.45 0,0 4.96,0.45 10.93,3.29"
             id="path16" />
        </g>
      </g>
      <g
         class="composite-shape"
         id="g24">
        <path
           class="real"
           d="M 57.12,227.2 162.5,121.08 247.47,120.77 142.09,226.88 Z"
           style="fill:#7ed321;fill-opacity:0.2;stroke:#7ed321;stroke-width:1;stroke-opacity:1"
           id="path22" />
      </g>
      <g
         class="arrow-line"
         id="g32">
        <path
           class="connection real"
           stroke-dasharray="none"
           d="m 99,182.58 142.5,-0.49"
           style="fill:none;fill-opacity:1;stroke:#4a90e2;stroke-width:1;stroke-opacity:1"
           id="path26" />
        <g
           stroke="rgb(74,144,226)"
           stroke-opacity="1"
           transform="rotate(179.8,121.59111,91.251557)"
           style="stroke:#4a90e2;stroke-width:1"
           id="g30">
          <path
             d="M 10.93,-3.29 Q 4.96,-0.45 0,0 4.96,0.45 10.93,3.29"
             id="path28" />
        </g>
      </g>
      <g
         class="arrow-line"
         id="g40">
        <path
           class="connection real"
           stroke-dasharray="none"
           d="M 162.5,121.08 31.9,253.65"
           style="fill:none;fill-opacity:1;stroke:#4a90e2;stroke-width:1;stroke-opacity:1"
           id="path34" />
        <g
           stroke="rgb(74,144,226)"
           stroke-opacity="1"
           transform="rotate(-45.43,319.91788,91.109556)"
           style="stroke:#4a90e2;stroke-width:1"
           id="g38">
          <path
             d="M 10.93,-3.29 Q 4.96,-0.45 0,0 4.96,0.45 10.93,3.29"
             id="path36" />
        </g>
      </g>
      <g
         class="arrow-line"
         id="g48">
        <path
           class="connection real"
           stroke-dasharray="none"
           d="M 184.61,162.01 99,182.58"
           style="fill:none;fill-opacity:1;stroke:#7ed321;stroke-width:2;stroke-opacity:1"
           id="path42" />
        <g
           stroke="none"
           fill="rgb(126,211,33)"
           fill-opacity="1"
           transform="rotate(166.49,84.710447,91.702625)"
           style="fill:#7ed321;stroke:none;stroke-width:2"
           id="g46">
          <path
             d="M 11.61,-5.58 0,0 11.61,5.58 Z"
             id="path44" />
        </g>
      </g>
      <g
         class="arrow-line"
         id="g56">
        <path
           class="connection real"
           stroke-dasharray="none"
           d="M 217.71,100.85 99,182.58"
           style="fill:none;fill-opacity:1;stroke:#f5a623;stroke-width:2;stroke-opacity:1"
           id="path50" />
        <g
           stroke="none"
           fill="rgb(245,166,35)"
           fill-opacity="1"
           transform="rotate(145.45,95.171756,83.653095)"
           style="fill:#f5a623;stroke:none;stroke-width:2"
           id="g54">
          <path
             d="M 11.61,-5.58 0,0 11.61,5.58 Z"
             id="path52" />
        </g>
      </g>
      <g
         class="arrow-line"
         id="g60">
        <path
           class="connection real"
           stroke-dasharray="7.5, 6"
           d="m 221,98.58 -32.5,62.5"
           style="fill:none;fill-opacity:1;stroke:#4a90e2;stroke-width:2;stroke-opacity:1"
           id="path58" />
      </g>
      <g
         class="arrow-line"
         id="g64">
        <path
           class="connection real"
           stroke-dasharray="7.5, 6"
           d="m 221,98.58 -89.5,21.5"
           style="fill:none;fill-opacity:1;stroke:#7ed321;stroke-width:2;stroke-opacity:1"
           id="path62" />
      </g>
      <g
         id="g66" />
    </g>
    <g
       id="g70" />
    <g
       id="g72" />
    <g
       id="g74" />
  </svg>
  <svg
     width="660"
     height="293"
     style="font-family:Asana-Math, Asana"
     version="1.1"
     id="svg168">
    <g
       id="g122">
      <g
         id="g120">
        <g
           id="g82">
          <g
             transform="translate(206,84.4)"
             id="g80">
            <path
               transform="scale(0.0204,-0.0204)"
               d="M 283,49 C 203,49 183,94 183,170 v 295 l -9,4 C 123,448 71,434 18,428 v -28 h 37 c 40,0 44,-7 44,-73 V 159 c 0,-89 5,-171 141,-171 45,0 85,14 112,39 l 67,62 c 0,-29 -1,-45 -4,-92 67,3 68,3 83,3 14,0 14,0 83,-3 v 30 l -41,3 c -34,2 -37,8 -37,72 v 363 l -9,4 C 443,448 391,434 338,428 v -28 h 37 c 40,0 44,-7 44,-73 V 164 C 419,126 370,49 283,49 Z"
               stroke="#4a90e2"
               stroke-opacity="1"
               stroke-width="24"
               fill="#4a90e2"
               fill-opacity="1"
               id="path78" />
          </g>
        </g>
        <g
           id="g94">
          <g
             id="g92">
            <g
               id="g90">
              <g
                 id="g88">
                <g
                   transform="translate(219.64062,87.99875)"
                   id="g86">
                  <path
                     transform="scale(0.01428,-0.01428)"
                     d="m 418,-3 v 30 l -52,3 c -55,3 -65,14 -65,66 V 700 L 60,598 67,548 217,614 V 96 C 217,44 206,33 152,30 L 96,27 V -3 c 154,3 154,3 165,3 31,0 141,-3 157,-3 z"
                     stroke="#4a90e2"
                     stroke-opacity="1"
                     stroke-width="0"
                     fill="#4a90e2"
                     fill-opacity="1"
                     id="path84" />
                </g>
              </g>
            </g>
          </g>
        </g>
        <g
           id="g100">
          <g
             transform="translate(231.94623,84.4)"
             id="g98">
            <path
               transform="scale(0.0204,-0.0204)"
               d="m 604,241 v 59 H 364 V 538 H 305 V 300 H 65 V 241 H 305 V 0 h 59 v 241 z"
               stroke="#f5a623"
               stroke-opacity="1"
               stroke-width="0"
               fill="#f5a623"
               fill-opacity="1"
               id="path96" />
          </g>
        </g>
        <g
           id="g106">
          <g
             transform="translate(249.3844,84.4)"
             id="g104">
            <path
               transform="scale(0.0204,-0.0204)"
               d="M 283,49 C 203,49 183,94 183,170 v 295 l -9,4 C 123,448 71,434 18,428 v -28 h 37 c 40,0 44,-7 44,-73 V 159 c 0,-89 5,-171 141,-171 45,0 85,14 112,39 l 67,62 c 0,-29 -1,-45 -4,-92 67,3 68,3 83,3 14,0 14,0 83,-3 v 30 l -41,3 c -34,2 -37,8 -37,72 v 363 l -9,4 C 443,448 391,434 338,428 v -28 h 37 c 40,0 44,-7 44,-73 V 164 C 419,126 370,49 283,49 Z"
               stroke="#7ed321"
               stroke-opacity="1"
               stroke-width="24"
               fill="#7ed321"
               fill-opacity="1"
               id="path102" />
          </g>
        </g>
        <g
           id="g118">
          <g
             id="g116">
            <g
               id="g114">
              <g
                 id="g112">
                <g
                   transform="translate(263.03125,87.99875)"
                   id="g110">
                  <path
                     transform="scale(0.01428,-0.01428)"
                     d="M 16,23 V -3 c 187,0 187,3 223,3 36,0 36,-3 229,-3 V 82 C 353,77 307,81 122,77 l 182,193 c 97,103 127,158 127,233 0,115 -78,186 -205,186 -72,0 -121,-20 -170,-70 L 39,483 h 29 l 13,46 c 16,58 52,83 119,83 86,0 141,-54 141,-139 0,-75 -42,-149 -155,-269 z"
                     stroke="#7ed321"
                     stroke-opacity="1"
                     stroke-width="0"
                     fill="#7ed321"
                     fill-opacity="1"
                     id="path108" />
                </g>
              </g>
            </g>
          </g>
        </g>
      </g>
    </g>
    <g
       id="g144">
      <g
         id="g142">
        <g
           id="g128">
          <g
             transform="translate(54,103.48)"
             id="g126">
            <path
               transform="scale(0.02448,-0.02448)"
               d="m 378,-20 c 208,0 286,89 286,300 v 289 c 0,78 5,87 51,90 l 44,3 v 30 c -105,-3 -105,-3 -120,-3 -17,0 -17,0 -116,3 v -30 l 44,-3 c 46,-3 51,-12 51,-90 V 249 C 618,108 550,42 405,42 266,42 206,97 206,225 v 344 c 0,79 5,87 51,90 l 48,3 v 30 c -73,-3 -95,-3 -147,-3 -50,0 -74,1 -146,3 v -30 l 48,-3 c 46,-3 51,-11 51,-90 V 214 C 111,42 201,-20 378,-20 Z"
               stroke="#4a90e2"
               stroke-opacity="1"
               stroke-width="24"
               fill="#4a90e2"
               fill-opacity="1"
               id="path124" />
          </g>
        </g>
        <g
           id="g140">
          <g
             id="g138">
            <g
               id="g136">
              <g
                 id="g134">
                <g
                   transform="translate(74.375,108.79225)"
                   id="g132">
                  <path
                     transform="scale(0.017136,-0.017136)"
                     d="m 418,-3 v 30 l -52,3 c -55,3 -65,14 -65,66 V 700 L 60,598 67,548 217,614 V 96 C 217,44 206,33 152,30 L 96,27 V -3 c 154,3 154,3 165,3 31,0 141,-3 157,-3 z"
                     stroke="#4a90e2"
                     stroke-opacity="1"
                     stroke-width="0"
                     fill="#4a90e2"
                     fill-opacity="1"
                     id="path130" />
                </g>
              </g>
            </g>
          </g>
        </g>
      </g>
    </g>
    <g
       id="g166">
      <g
         id="g164">
        <g
           id="g150">
          <g
             transform="translate(179,226.48)"
             id="g148">
            <path
               transform="scale(0.02448,-0.02448)"
               d="m 378,-20 c 208,0 286,89 286,300 v 289 c 0,78 5,87 51,90 l 44,3 v 30 c -105,-3 -105,-3 -120,-3 -17,0 -17,0 -116,3 v -30 l 44,-3 c 46,-3 51,-12 51,-90 V 249 C 618,108 550,42 405,42 266,42 206,97 206,225 v 344 c 0,79 5,87 51,90 l 48,3 v 30 c -73,-3 -95,-3 -147,-3 -50,0 -74,1 -146,3 v -30 l 48,-3 c 46,-3 51,-11 51,-90 V 214 C 111,42 201,-20 378,-20 Z"
               stroke="#4a90e2"
               stroke-opacity="1"
               stroke-width="24"
               fill="#4a90e2"
               fill-opacity="1"
               id="path146" />
          </g>
        </g>
        <g
           id="g162">
          <g
             id="g160">
            <g
               id="g158">
              <g
                 id="g156">
                <g
                   transform="translate(199.375,231.79225)"
                   id="g154">
                  <path
                     transform="scale(0.017136,-0.017136)"
                     d="M 16,23 V -3 c 187,0 187,3 223,3 36,0 36,-3 229,-3 V 82 C 353,77 307,81 122,77 l 182,193 c 97,103 127,158 127,233 0,115 -78,186 -205,186 -72,0 -121,-20 -170,-70 L 39,483 h 29 l 13,46 c 16,58 52,83 119,83 86,0 141,-54 141,-139 0,-75 -42,-149 -155,-269 z"
                     stroke="#4a90e2"
                     stroke-opacity="1"
                     stroke-width="0"
                     fill="#4a90e2"
                     fill-opacity="1"
                     id="path152" />
                </g>
              </g>
            </g>
          </g>
        </g>
      </g>
    </g>
  </svg>
</svg>
