<?xml version="1.0" standalone="no"?><!DOCTYPE svg PUBLIC "-//W3C//DTD SVG 1.1//EN" "http://www.w3.org/Graphics/SVG/1.1/DTD/svg11.dtd"><svg t="1637933025959" class="icon" viewBox="0 0 1170 1024" version="1.1" xmlns="http://www.w3.org/2000/svg" p-id="3456" xmlns:xlink="http://www.w3.org/1999/xlink" width="228.515625" height="200"><defs><style type="text/css"></style></defs><path d="M1011.844987 819.359584a483.394494 483.394494 0 0 0 55.694961-169.425454l22.953558 11.46348a507.531636 507.531636 0 0 1-57.756259 170.489351 850.83761 850.83761 0 0 0-20.878961-12.527377z m-874.296519 12.527377A507.531636 507.531636 0 0 1 79.792208 661.39761l22.953558-11.476779a483.394494 483.394494 0 0 0 55.694961 169.438753c-7.035013 4.082701-13.990234 8.245195-20.878961 12.527377zM102.745766 520.378182L79.792208 508.888104a508.356156 508.356156 0 0 1 94.128208-227.141818l24.336623 8.112208a484.232312 484.232312 0 0 0-95.511273 230.506389z m179.00052-346.444468A508.356156 508.356156 0 0 1 508.888104 79.792208l11.476779 22.953558a484.232312 484.232312 0 0 0-230.506389 95.511273l-8.112208-24.336623zM1090.493506 508.888104l-22.953558 11.476779a484.232312 484.232312 0 0 0-95.511273-230.506389l24.336624-8.112208A508.356156 508.356156 0 0 1 1090.493506 508.888104zM880.427221 198.257039a484.232312 484.232312 0 0 0-230.50639-95.511273L661.39761 79.792208a508.356156 508.356156 0 0 1 227.141819 94.128208l-8.112208 24.336623z" fill="#6958CA" p-id="3457"></path><path d="M952.187013 787.815065a416.648312 416.648312 0 0 0 51.080312-172.391065L1050.597403 639.095688a465.427948 465.427948 0 0 1-54.537974 171.327169 848.364052 848.364052 0 0 0-43.885715-22.607792zM174.212987 810.422857A465.427948 465.427948 0 0 1 119.688312 639.095688l47.330078-23.671688A416.648312 416.648312 0 0 0 218.098701 787.828364a848.364052 848.364052 0 0 0-43.872415 22.594493z m-7.207896-255.561143L119.688312 531.190026a466.279065 466.279065 0 0 1 98.210909-237.022753l50.176 16.729766a417.432935 417.432935 0 0 0-101.07013 243.964675z m127.148883-336.962493A466.279065 466.279065 0 0 1 531.190026 119.688312l23.671688 47.330078a417.432935 417.432935 0 0 0-243.964675 101.070129l-16.729766-50.189298zM1050.597403 531.190026l-47.330078 23.671688a417.432935 417.432935 0 0 0-101.07013-243.964675l50.189299-16.729766A466.279065 466.279065 0 0 1 1050.597403 531.190026zM859.388675 268.075221a417.432935 417.432935 0 0 0-243.964675-101.07013L639.095688 119.688312a466.279065 466.279065 0 0 1 237.022754 98.210909l-16.729767 50.176z" fill="#211F4A" p-id="3458"></path><path d="M585.142857 159.584416L505.350649 0h159.584416zM914.272416 256.013299l28.206545-84.632935 56.42639 56.426389zM256.013299 256.013299l-84.632935-28.206546 56.426389-56.426389zM159.584416 585.142857L0 664.935065V505.350649l159.584416 79.792208z m-53.194806 0l-79.792207-39.896104v79.792208l79.792207-39.896104zM1010.701299 585.142857l159.584415-79.792208v159.584416l-159.584415-79.792208z m53.194805 0l79.792208 39.896104v-79.792208l-79.792208 39.896104zM47.236987 976.124675C193.855169 856.396468 381.114182 784.623377 585.142857 784.623377c204.028675 0 391.287688 71.78639 537.90587 191.501298a667.967169 667.967169 0 0 1-33.007376 41.718026A794.624 794.624 0 0 0 585.142857 837.818182 794.624 794.624 0 0 0 80.244364 1017.842701 667.967169 667.967169 0 0 1 47.236987 976.124675z" fill="#6958CA" p-id="3459"></path></svg>