<?xml version="1.0" standalone="no"?><!DOCTYPE svg PUBLIC "-//W3C//DTD SVG 1.1//EN" "http://www.w3.org/Graphics/SVG/1.1/DTD/svg11.dtd"><svg t="1637933009679" class="icon" viewBox="0 0 1041 1024" version="1.1" xmlns="http://www.w3.org/2000/svg" p-id="3296" xmlns:xlink="http://www.w3.org/1999/xlink" width="203.3203125" height="200"><defs><style type="text/css"></style></defs><path d="M989.288309 520.677966c0 258.811661-209.798508 468.610169-468.610169 468.61017S52.06797 779.489627 52.06797 520.677966 261.866479 52.067797 520.67814 52.067797s468.610169 209.798508 468.610169 468.610169" fill="#F18D46" p-id="3297"></path><path d="M34.712038 971.932203h971.932203v52.067797H34.712038v-52.067797z" fill="#8697CB" p-id="3298"></path><path d="M121.491699 919.864407h798.372881v52.067796H121.491699v-52.067796z" fill="#556080" p-id="3299"></path><path d="M208.27136 867.79661h624.813559v52.067797H208.27136v-52.067797z" fill="#8697CB" p-id="3300"></path><path d="M124.147157 540.706712l-70.18739 21.052746A466.596881 466.596881 0 0 0 161.583902 821.664542l64.546712-34.763932c18.258441-9.823458 38.148339 10.066441 28.324882 28.324882L226.14797 867.79661h589.060339l-28.307525-52.571118c-9.840814-18.258441 10.066441-38.148339 28.324881-28.324882l64.546712 34.763932a466.458034 466.458034 0 0 0 107.60678-259.905084l-70.170034-21.052746c-19.872542-5.953085-19.872542-34.104407 0-40.057492l70.170034-21.052745a466.353898 466.353898 0 0 0-107.60678-259.887729l-64.546712 34.746576c-18.258441 9.840814-38.165695-10.066441-28.324881-28.324881l34.746576-64.546712a466.492746 466.492746 0 0 0-259.887729-107.624136l-21.052746 70.18739c-5.953085 19.872542-34.104407 19.872542-40.057491 0l-21.052746-70.18739A466.596881 466.596881 0 0 0 219.691563 161.583729l34.763933 64.546712c9.823458 18.258441-10.066441 38.165695-28.324882 28.324881L161.583902 219.708746a466.492746 466.492746 0 0 0-107.624135 259.887729l70.18739 21.052745c19.872542 5.953085 19.872542 34.104407 0 40.057492" fill="#D1D4D1" p-id="3301"></path><path d="M361.906072 867.79661h317.544135C810.921394 807.415322 902.508648 674.590373 902.508648 520.677966c0-210.544814-171.285695-381.830508-381.830508-381.830508S138.847631 310.133153 138.847631 520.677966c0 153.912407 91.569898 286.737356 223.058441 347.118644" fill="#8697CB" p-id="3302"></path><path d="M295.051021 260.338983a17.355932 17.355932 0 1 0 0 34.711864 17.355932 17.355932 0 0 0 0-34.711864M399.186614 156.20339a17.355932 17.355932 0 1 0 0 34.711864 17.355932 17.355932 0 0 0 0-34.711864M399.186614 260.338983a17.355932 17.355932 0 1 0 0 34.711864 17.355932 17.355932 0 0 0 0-34.711864M503.322207 156.20339a17.355932 17.355932 0 1 0 0 34.711864 17.355932 17.355932 0 0 0 0-34.711864M503.322207 260.338983a17.355932 17.355932 0 1 0 0 34.711864 17.355932 17.355932 0 0 0 0-34.711864M347.118818 208.271186a17.355932 17.355932 0 1 0 0 34.711865 17.355932 17.355932 0 0 0 0-34.711865M451.254411 208.271186a17.355932 17.355932 0 1 0 0 34.711865 17.355932 17.355932 0 0 0 0-34.711865M607.457801 156.20339a17.355932 17.355932 0 1 0 0 34.711864 17.355932 17.355932 0 0 0 0-34.711864M607.457801 260.338983a17.355932 17.355932 0 1 0 0 34.711864 17.355932 17.355932 0 0 0 0-34.711864M711.593394 260.338983a17.355932 17.355932 0 1 0 0 34.711864 17.355932 17.355932 0 0 0 0-34.711864M555.390004 208.271186a17.355932 17.355932 0 1 0 0 34.711865 17.355932 17.355932 0 0 0 0-34.711865M659.525597 208.271186a17.355932 17.355932 0 1 0 0 34.711865 17.355932 17.355932 0 0 0 0-34.711865M242.983224 312.40678a17.355932 17.355932 0 1 0 0 34.711864 17.355932 17.355932 0 0 0 0-34.711864M190.915428 364.474576a17.355932 17.355932 0 1 0 0 34.711865 17.355932 17.355932 0 0 0 0-34.711865M242.983224 416.542373a17.355932 17.355932 0 1 0 0 34.711864 17.355932 17.355932 0 0 0 0-34.711864M190.915428 468.610169a17.355932 17.355932 0 1 0 0 34.711865 17.355932 17.355932 0 0 0 0-34.711865M190.915428 572.745763a17.355932 17.355932 0 1 0 0 34.711864 17.355932 17.355932 0 0 0 0-34.711864M295.051021 364.474576a17.355932 17.355932 0 1 0 0 34.711865 17.355932 17.355932 0 0 0 0-34.711865M295.051021 468.610169a17.355932 17.355932 0 1 0 0 34.711865 17.355932 17.355932 0 0 0 0-34.711865M295.051021 572.745763a17.355932 17.355932 0 1 0 0 34.711864 17.355932 17.355932 0 0 0 0-34.711864M242.983224 520.677966a17.355932 17.355932 0 1 0 0 34.711865 17.355932 17.355932 0 0 0 0-34.711865M347.118818 312.40678a17.355932 17.355932 0 1 0 0 34.711864 17.355932 17.355932 0 0 0 0-34.711864M451.254411 312.40678a17.355932 17.355932 0 1 0 0 34.711864 17.355932 17.355932 0 0 0 0-34.711864M399.186614 364.474576a17.355932 17.355932 0 1 0 0 34.711865 17.355932 17.355932 0 0 0 0-34.711865M347.118818 416.542373a17.355932 17.355932 0 1 0 0 34.711864 17.355932 17.355932 0 0 0 0-34.711864M451.254411 416.542373a17.355932 17.355932 0 1 0 0 34.711864 17.355932 17.355932 0 0 0 0-34.711864M399.186614 468.610169a17.355932 17.355932 0 1 0 0 34.711865 17.355932 17.355932 0 0 0 0-34.711865M399.186614 572.745763a17.355932 17.355932 0 1 0 0 34.711864 17.355932 17.355932 0 0 0 0-34.711864M503.322207 364.474576a17.355932 17.355932 0 1 0 0 34.711865 17.355932 17.355932 0 0 0 0-34.711865M503.322207 468.610169a17.355932 17.355932 0 1 0 0 34.711865 17.355932 17.355932 0 0 0 0-34.711865M503.322207 572.745763a17.355932 17.355932 0 1 0 0 34.711864 17.355932 17.355932 0 0 0 0-34.711864M347.118818 520.677966a17.355932 17.355932 0 1 0 0 34.711865 17.355932 17.355932 0 0 0 0-34.711865M451.254411 520.677966a17.355932 17.355932 0 1 0 0 34.711865 17.355932 17.355932 0 0 0 0-34.711865M555.390004 312.40678a17.355932 17.355932 0 1 0 0 34.711864 17.355932 17.355932 0 0 0 0-34.711864M659.525597 312.40678a17.355932 17.355932 0 1 0 0 34.711864 17.355932 17.355932 0 0 0 0-34.711864M607.457801 364.474576a17.355932 17.355932 0 1 0 0 34.711865 17.355932 17.355932 0 0 0 0-34.711865M555.390004 416.542373a17.355932 17.355932 0 1 0 0 34.711864 17.355932 17.355932 0 0 0 0-34.711864M659.525597 416.542373a17.355932 17.355932 0 1 0 0 34.711864 17.355932 17.355932 0 0 0 0-34.711864M607.457801 468.610169a17.355932 17.355932 0 1 0 0 34.711865 17.355932 17.355932 0 0 0 0-34.711865M607.457801 572.745763a17.355932 17.355932 0 1 0 0 34.711864 17.355932 17.355932 0 0 0 0-34.711864M711.593394 364.474576a17.355932 17.355932 0 1 0 0 34.711865 17.355932 17.355932 0 0 0 0-34.711865M711.593394 468.610169a17.355932 17.355932 0 1 0 0 34.711865 17.355932 17.355932 0 0 0 0-34.711865M711.593394 572.745763a17.355932 17.355932 0 1 0 0 34.711864 17.355932 17.355932 0 0 0 0-34.711864M555.390004 520.677966a17.355932 17.355932 0 1 0 0 34.711865 17.355932 17.355932 0 0 0 0-34.711865M659.525597 520.677966a17.355932 17.355932 0 1 0 0 34.711865 17.355932 17.355932 0 0 0 0-34.711865M763.661191 312.40678a17.355932 17.355932 0 1 0 0 34.711864 17.355932 17.355932 0 0 0 0-34.711864M815.728987 364.474576a17.355932 17.355932 0 1 0 0 34.711865 17.355932 17.355932 0 0 0 0-34.711865M763.661191 416.542373a17.355932 17.355932 0 1 0 0 34.711864 17.355932 17.355932 0 0 0 0-34.711864M867.796784 451.254237a17.355932 17.355932 0 1 0 0-34.711864 17.355932 17.355932 0 0 0 0 34.711864M815.728987 468.610169a17.355932 17.355932 0 1 0 0 34.711865 17.355932 17.355932 0 0 0 0-34.711865M815.728987 572.745763a17.355932 17.355932 0 1 0 0 34.711864 17.355932 17.355932 0 0 0 0-34.711864M763.661191 520.677966a17.355932 17.355932 0 1 0 0 34.711865 17.355932 17.355932 0 0 0 0-34.711865M867.796784 520.677966a17.355932 17.355932 0 1 0 0 34.711865 17.355932 17.355932 0 0 0 0-34.711865M242.983224 624.813559a17.355932 17.355932 0 1 0 0 34.711865 17.355932 17.355932 0 0 0 0-34.711865M190.915428 676.881356a17.355932 17.355932 0 1 0 0 34.711864 17.355932 17.355932 0 0 0 0-34.711864M242.983224 728.949153a17.355932 17.355932 0 1 0 0 34.711864 17.355932 17.355932 0 0 0 0-34.711864M295.051021 676.881356a17.355932 17.355932 0 1 0 0 34.711864 17.355932 17.355932 0 0 0 0-34.711864M295.051021 781.016949a17.355932 17.355932 0 1 0 0 34.711865 17.355932 17.355932 0 0 0 0-34.711865M347.118818 624.813559a17.355932 17.355932 0 1 0 0 34.711865 17.355932 17.355932 0 0 0 0-34.711865M451.254411 624.813559a17.355932 17.355932 0 1 0 0 34.711865 17.355932 17.355932 0 0 0 0-34.711865M399.186614 676.881356a17.355932 17.355932 0 1 0 0 34.711864 17.355932 17.355932 0 0 0 0-34.711864M347.118818 728.949153a17.355932 17.355932 0 1 0 0 34.711864 17.355932 17.355932 0 0 0 0-34.711864M451.254411 728.949153a17.355932 17.355932 0 1 0 0 34.711864 17.355932 17.355932 0 0 0 0-34.711864M399.186614 781.016949a17.355932 17.355932 0 1 0 0 34.711865 17.355932 17.355932 0 0 0 0-34.711865M503.322207 676.881356a17.355932 17.355932 0 1 0 0 34.711864 17.355932 17.355932 0 0 0 0-34.711864M503.322207 781.016949a17.355932 17.355932 0 1 0 0 34.711865 17.355932 17.355932 0 0 0 0-34.711865M347.118818 833.084746a17.355932 17.355932 0 1 0 0 34.711864 17.355932 17.355932 0 0 0 0-34.711864M451.254411 833.084746a17.355932 17.355932 0 1 0 0 34.711864 17.355932 17.355932 0 0 0 0-34.711864M555.390004 624.813559a17.355932 17.355932 0 1 0 0 34.711865 17.355932 17.355932 0 0 0 0-34.711865M659.525597 624.813559a17.355932 17.355932 0 1 0 0 34.711865 17.355932 17.355932 0 0 0 0-34.711865M607.457801 676.881356a17.355932 17.355932 0 1 0 0 34.711864 17.355932 17.355932 0 0 0 0-34.711864M555.390004 728.949153a17.355932 17.355932 0 1 0 0 34.711864 17.355932 17.355932 0 0 0 0-34.711864M659.525597 728.949153a17.355932 17.355932 0 1 0 0 34.711864 17.355932 17.355932 0 0 0 0-34.711864M607.457801 781.016949a17.355932 17.355932 0 1 0 0 34.711865 17.355932 17.355932 0 0 0 0-34.711865M711.593394 676.881356a17.355932 17.355932 0 1 0 0 34.711864 17.355932 17.355932 0 0 0 0-34.711864M711.593394 781.016949a17.355932 17.355932 0 1 0 0 34.711865 17.355932 17.355932 0 0 0 0-34.711865M555.390004 833.084746a17.355932 17.355932 0 1 0 0 34.711864 17.355932 17.355932 0 0 0 0-34.711864M659.525597 833.084746a17.355932 17.355932 0 1 0 0 34.711864 17.355932 17.355932 0 0 0 0-34.711864M763.661191 624.813559a17.355932 17.355932 0 1 0 0 34.711865 17.355932 17.355932 0 0 0 0-34.711865M867.796784 624.813559a17.355932 17.355932 0 1 0 0 34.711865 17.355932 17.355932 0 0 0 0-34.711865M815.728987 676.881356a17.355932 17.355932 0 1 0 0 34.711864 17.355932 17.355932 0 0 0 0-34.711864M763.661191 728.949153a17.355932 17.355932 0 1 0 0 34.711864 17.355932 17.355932 0 0 0 0-34.711864" fill="#556080" p-id="3303"></path><path d="M1024.000174 545.496949a17.355932 17.355932 0 0 0-12.548339 5.362983l-89.244204-26.780203a3.297627 3.297627 0 0 1-2.360407-2.915797L919.86458 520.677966l-0.017356-0.503322a3.332339 3.332339 0 0 1 2.343051-2.898441l89.26156-26.780203A17.355932 17.355932 0 0 0 1041.356106 478.503051a24.749559 24.749559 0 0 0-31.813424-23.673492l-91.569898 27.457085a397.346712 397.346712 0 0 0-89.330983-215.317695l84.245695-45.385763a24.818983 24.818983 0 0 0 12.75661-18.136949 24.923119 24.923119 0 0 0-6.925017-21.087457 17.355932 17.355932 0 0 0-29.661288 12.617762l-82.041492 44.188204a3.141424 3.141424 0 0 1-4.130712-0.55539l-0.138847-0.121492c-1.770305-1.857085-0.902508-3.505898-0.55539-4.148067l44.188203-82.041492c4.026576-0.034712 9.198644-1.596746 12.687187-5.102644a17.355932 17.355932 0 0 0-0.069424-24.558644 24.576 24.576 0 0 0-21.087458-6.925017 24.853695 24.853695 0 0 0-18.136949 12.739254l-45.368406 84.280407a397.346712 397.346712 0 0 0-215.335051-89.348339l27.439729-91.535186a24.818983 24.818983 0 0 0-3.818306-21.868475A24.818983 24.818983 0 0 0 562.853055 0a17.355932 17.355932 0 0 0-11.992949 29.904271l-26.762848 89.244204a3.367051 3.367051 0 0 1-2.915796 2.360406L520.67814 121.491525l-0.503322 0.017356a3.332339 3.332339 0 0 1-2.898441-2.34305l-26.780203-89.26156A17.355932 17.355932 0 0 0 478.503224 0a24.818983 24.818983 0 0 0-19.83783 9.979661 24.818983 24.818983 0 0 0-3.835661 21.833763l27.457085 91.569898a397.346712 397.346712 0 0 0-215.335051 89.348339l-45.368407-84.263051a24.818983 24.818983 0 0 0-18.136949-12.75661 24.680136 24.680136 0 0 0-21.104814 6.925017 17.373288 17.373288 0 0 0-0.052068 24.558644c3.505898 3.505898 8.087864 5.03322 12.704543 5.102644l44.170847 82.058848c0.347119 0.624814 1.214915 2.273627-0.55539 4.130711l-0.138847 0.121492c-1.857085 1.787661-3.488542 0.902508-4.130712 0.55539l-82.041491-44.170848a17.338576 17.338576 0 0 0-29.609221-12.66983c-5.501831 5.484475-8.10522 13.364068-6.99444 21.070101 1.128136 7.688678 5.901017 14.492203 12.739254 18.189017l84.280407 45.368407a397.485559 397.485559 0 0 0-89.348339 215.335051l-91.535187-27.457085a24.818983 24.818983 0 0 0-21.851118 3.835661A24.818983 24.818983 0 0 0 0.000174 478.503051a17.355932 17.355932 0 0 0 29.904271 11.992949l89.244203 26.780203c0.624814 0.173559 2.065356 0.850441 2.360407 2.915797L121.491699 520.677966l0.017356 0.485966a3.297627 3.297627 0 0 1-2.343051 2.915797l-89.261559 26.780203A17.355932 17.355932 0 0 0 0.000174 562.852881c0 7.775458 3.731525 15.203797 9.979661 19.837831a24.818983 24.818983 0 0 0 21.833762 3.835661l91.77817-27.526509a399.793898 399.793898 0 0 0 89.487186 215.21356L128.434072 819.790102a24.836339 24.836339 0 0 0-12.739254 18.171661c-1.11078 7.706034 1.49261 15.585627 6.99444 21.070101a17.303864 17.303864 0 0 0 24.541288 0 17.251797 17.251797 0 0 0 5.067933-12.66983l82.041491-44.170848c0.642169-0.347119 2.343051-1.284339 4.217492 0.607458 1.857085 1.874441 0.954576 3.575322 0.607457 4.200136a17.408 17.408 0 0 0 7.046509 23.534644 17.217085 17.217085 0 0 0 20.063457-2.898441 398.231864 398.231864 0 0 0 88.393763 55.93817l3.436475 1.579389h325.146034l3.436474-1.579389a398.231864 398.231864 0 0 0 88.393763-55.93817 17.182373 17.182373 0 0 0 20.046102 2.898441c8.452339-4.56461 11.593763-15.099661 7.063864-23.534644-0.347119-0.624814-1.266983-2.325695 0.607458-4.200136 1.891797-1.891797 3.575322-0.954576 4.217491-0.607458l82.041492 44.188204a17.32122 17.32122 0 0 0 17.355932 17.737763 17.303864 17.303864 0 0 0 12.305356-5.12c5.467119-5.501831 8.053153-13.381424 6.925017-21.087458a24.871051 24.871051 0 0 0-12.721899-18.136949l-84.644881-45.559322a399.724475 399.724475 0 0 0 89.487187-215.21356l91.743457 27.509153a24.818983 24.818983 0 0 0 21.868475-3.818305A24.818983 24.818983 0 0 0 1041.356106 562.852881a17.355932 17.355932 0 0 0-17.355932-17.355932zM675.614546 850.440678H365.741733c-126.88922-59.843254-208.791864-188.051525-209.468746-328.009763 0.017356-0.590102 0.138847-1.162847 0.138848-1.752949 0-0.520678-0.104136-1.024-0.138848-1.544678a363.363797 363.363797 0 0 1 106.634848-255.878508l0.190915-0.156204 0.173559-0.208271a363.294373 363.294373 0 0 1 255.861153-106.600136c0.520678 0.017356 1.006644 0.121492 1.544678 0.121492 0.520678 0 1.024-0.104136 1.544678-0.121492a363.294373 363.294373 0 0 1 255.861152 106.600136l0.173559 0.208271 0.190916 0.156204a363.259661 363.259661 0 0 1 106.617491 255.861152c-0.017356 0.538034-0.121492 1.041356-0.121491 1.562034 0 0.590102 0.121492 1.162847 0.138847 1.752949-0.676881 139.958237-82.579525 268.166508-209.468746 328.009763z" fill="#A5A5A4" p-id="3304"></path></svg>