<?xml version="1.0" encoding="UTF-8" standalone="no"?>
<svg
   x="0"
   y="0"
   width="350"
   height="340"
   style="fill:none"
   version="1.1"
   id="svg449"
   sodipodi:docname="CNN-MNIST.svg"
   inkscape:version="1.1.2 (b8e25be833, 2022-02-05)"
   xmlns:inkscape="http://www.inkscape.org/namespaces/inkscape"
   xmlns:sodipodi="http://sodipodi.sourceforge.net/DTD/sodipodi-0.dtd"
   xmlns="http://www.w3.org/2000/svg"
   xmlns:svg="http://www.w3.org/2000/svg">
  <defs
     id="defs453" />
  <sodipodi:namedview
     id="namedview451"
     pagecolor="#ffffff"
     bordercolor="#666666"
     borderopacity="1.0"
     inkscape:pageshadow="2"
     inkscape:pageopacity="0.0"
     inkscape:pagecheckerboard="0"
     showgrid="false"
     width="340px"
     inkscape:zoom="1.7744283"
     inkscape:cx="221.47979"
     inkscape:cy="170.75923"
     inkscape:window-width="1920"
     inkscape:window-height="986"
     inkscape:window-x="-11"
     inkscape:window-y="-11"
     inkscape:window-maximized="1"
     inkscape:current-layer="svg449" />
  <svg
     version="1.1"
     id="svg232"
     width="100%"
     height="100%" />
  <svg
     class="role-diagram-draw-area"
     version="1.1"
     id="svg397"
     width="100%"
     height="100%">
    <g
       class="shapes-region"
       style="fill:none;stroke:#000000"
       id="g389">
      <g
         class="composite-shape"
         data-amt="diagram/shapes/plot"
         transform="translate(27.333313,70.666656)"
         id="g321">
        <g
           id="g319">
          <g
             id="g304">
            <g
               class="test-xgi"
               id="g266">
              <line
                 x1="14"
                 y1="3"
                 x2="14"
                 y2="154"
                 fill="none"
                 stroke="#d3d3d3"
                 stroke-width="0.5"
                 id="line234" />
              <line
                 x1="26.5"
                 y1="3"
                 x2="26.5"
                 y2="154"
                 fill="none"
                 stroke="#d3d3d3"
                 stroke-width="0.5"
                 id="line236" />
              <line
                 x1="39"
                 y1="3"
                 x2="39"
                 y2="154"
                 fill="none"
                 stroke="#d3d3d3"
                 stroke-width="0.5"
                 id="line238" />
              <line
                 x1="51.5"
                 y1="3"
                 x2="51.5"
                 y2="154"
                 fill="none"
                 stroke="#d3d3d3"
                 stroke-width="0.5"
                 id="line240" />
              <line
                 x1="64"
                 y1="3"
                 x2="64"
                 y2="154"
                 fill="none"
                 stroke="#d3d3d3"
                 stroke-width="0.5"
                 id="line242" />
              <line
                 x1="76.5"
                 y1="3"
                 x2="76.5"
                 y2="154"
                 fill="none"
                 stroke="#d3d3d3"
                 stroke-width="0.5"
                 id="line244" />
              <line
                 x1="89"
                 y1="3"
                 x2="89"
                 y2="154"
                 fill="none"
                 stroke="#d3d3d3"
                 stroke-width="0.5"
                 id="line246" />
              <line
                 x1="101.5"
                 y1="3"
                 x2="101.5"
                 y2="154"
                 fill="none"
                 stroke="#d3d3d3"
                 stroke-width="0.5"
                 id="line248" />
              <line
                 x1="114"
                 y1="3"
                 x2="114"
                 y2="154"
                 fill="none"
                 stroke="#d3d3d3"
                 stroke-width="0.5"
                 id="line250" />
              <line
                 x1="126.5"
                 y1="3"
                 x2="126.5"
                 y2="154"
                 fill="none"
                 stroke="#d3d3d3"
                 stroke-width="0.5"
                 id="line252" />
              <line
                 x1="139"
                 y1="3"
                 x2="139"
                 y2="154"
                 fill="none"
                 stroke="#d3d3d3"
                 stroke-width="0.5"
                 id="line254" />
              <line
                 x1="151.5"
                 y1="3"
                 x2="151.5"
                 y2="154"
                 fill="none"
                 stroke="#d3d3d3"
                 stroke-width="0.5"
                 id="line256" />
              <line
                 x1="14"
                 y1="3"
                 x2="14"
                 y2="154"
                 fill="none"
                 stroke="#c3c3c3"
                 stroke-width="1"
                 id="line258" />
              <line
                 x1="64"
                 y1="3"
                 x2="64"
                 y2="154"
                 fill="none"
                 stroke="#c3c3c3"
                 stroke-width="1"
                 id="line260" />
              <line
                 x1="114"
                 y1="3"
                 x2="114"
                 y2="154"
                 fill="none"
                 stroke="#c3c3c3"
                 stroke-width="1"
                 id="line262" />
              <line
                 x1="164"
                 y1="3"
                 x2="164"
                 y2="154"
                 fill="none"
                 stroke="#c3c3c3"
                 stroke-width="1"
                 id="line264" />
            </g>
            <g
               class="test-ygi"
               id="g302">
              <line
                 x1="14"
                 y1="154"
                 x2="164"
                 y2="154"
                 fill="none"
                 stroke="#d3d3d3"
                 stroke-width="0.5"
                 id="line268" />
              <line
                 x1="14"
                 y1="141.5"
                 x2="164"
                 y2="141.5"
                 fill="none"
                 stroke="#d3d3d3"
                 stroke-width="0.5"
                 id="line270" />
              <line
                 x1="14"
                 y1="129"
                 x2="164"
                 y2="129"
                 fill="none"
                 stroke="#d3d3d3"
                 stroke-width="0.5"
                 id="line272" />
              <line
                 x1="14"
                 y1="116.5"
                 x2="164"
                 y2="116.5"
                 fill="none"
                 stroke="#d3d3d3"
                 stroke-width="0.5"
                 id="line274" />
              <line
                 x1="14"
                 y1="104"
                 x2="164"
                 y2="104"
                 fill="none"
                 stroke="#d3d3d3"
                 stroke-width="0.5"
                 id="line276" />
              <line
                 x1="14"
                 y1="91.5"
                 x2="164"
                 y2="91.5"
                 fill="none"
                 stroke="#d3d3d3"
                 stroke-width="0.5"
                 id="line278" />
              <line
                 x1="14"
                 y1="79"
                 x2="164"
                 y2="79"
                 fill="none"
                 stroke="#d3d3d3"
                 stroke-width="0.5"
                 id="line280" />
              <line
                 x1="14"
                 y1="66.5"
                 x2="164"
                 y2="66.5"
                 fill="none"
                 stroke="#d3d3d3"
                 stroke-width="0.5"
                 id="line282" />
              <line
                 x1="14"
                 y1="54"
                 x2="164"
                 y2="54"
                 fill="none"
                 stroke="#d3d3d3"
                 stroke-width="0.5"
                 id="line284" />
              <line
                 x1="14"
                 y1="41.5"
                 x2="164"
                 y2="41.5"
                 fill="none"
                 stroke="#d3d3d3"
                 stroke-width="0.5"
                 id="line286" />
              <line
                 x1="14"
                 y1="29"
                 x2="164"
                 y2="29"
                 fill="none"
                 stroke="#d3d3d3"
                 stroke-width="0.5"
                 id="line288" />
              <line
                 x1="14"
                 y1="16.5"
                 x2="164"
                 y2="16.5"
                 fill="none"
                 stroke="#d3d3d3"
                 stroke-width="0.5"
                 id="line290" />
              <line
                 x1="14"
                 y1="4"
                 x2="164"
                 y2="4"
                 fill="none"
                 stroke="#d3d3d3"
                 stroke-width="0.5"
                 id="line292" />
              <line
                 x1="14"
                 y1="154"
                 x2="164"
                 y2="154"
                 fill="none"
                 stroke="#c3c3c3"
                 stroke-width="1"
                 id="line294" />
              <line
                 x1="14"
                 y1="104"
                 x2="164"
                 y2="104"
                 fill="none"
                 stroke="#c3c3c3"
                 stroke-width="1"
                 id="line296" />
              <line
                 x1="14"
                 y1="54"
                 x2="164"
                 y2="54"
                 fill="none"
                 stroke="#c3c3c3"
                 stroke-width="1"
                 id="line298" />
              <line
                 x1="14"
                 y1="4"
                 x2="164"
                 y2="4"
                 fill="none"
                 stroke="#c3c3c3"
                 stroke-width="1"
                 id="line300" />
            </g>
          </g>
          <g
             id="g317">
            <rect
               class="real"
               x="15"
               y="4"
               width="148"
               height="149"
               style="stroke:#808080"
               id="rect306" />
            <g
               class="test-plot-expression"
               id="g315">
              <defs
                 id="defs311">
                <clipPath
                   id="cpuwgjmpyj1">
                  <rect
                     x="15"
                     y="4"
                     width="148"
                     height="149"
                     id="rect308" />
                </clipPath>
              </defs>
              <g
                 clip-path="url(#cpuwgjmpyj1)"
                 id="g313" />
            </g>
          </g>
        </g>
      </g>
      <g
         class="composite-shape"
         id="g325">
        <path
           class="real"
           d="M 264,27.27 C 264,20.49 269.49,15 276.27,15 h 36.8 c 6.77,0 12.26,5.49 12.26,12.27 v 258.8 c 0,6.77 -5.49,12.26 -12.26,12.26 h -36.8 c -6.78,0 -12.27,-5.49 -12.27,-12.26 z"
           style="fill:#f5a623;fill-opacity:0.3;stroke:none;stroke-width:1;stroke-opacity:1"
           id="path323" />
      </g>
      <g
         class="composite-shape"
         id="g329">
        <path
           class="real"
           d="m 275,46.33 c 0,-10.86 8.81,-19.66 19.67,-19.66 10.86,0 19.66,8.8 19.66,19.66 0,10.86 -8.8,19.67 -19.66,19.67 C 283.81,66 275,57.19 275,46.33 Z"
           style="fill:#ffffff;fill-opacity:1;stroke:#4a90e2;stroke-width:2;stroke-opacity:1"
           id="path327" />
      </g>
      <g
         class="composite-shape"
         id="g333">
        <path
           class="real"
           d="m 275,95.33 c 0,-10.86 8.81,-19.66 19.67,-19.66 10.86,0 19.66,8.8 19.66,19.66 0,10.86 -8.8,19.67 -19.66,19.67 C 283.81,115 275,106.19 275,95.33 Z"
           style="fill:#ffffff;fill-opacity:1;stroke:#f5a623;stroke-width:2;stroke-opacity:1"
           id="path331" />
      </g>
      <g
         class="composite-shape"
         id="g337">
        <path
           class="real"
           d="m 275,144.83 c 0,-10.86 8.81,-19.66 19.67,-19.66 10.86,0 19.66,8.8 19.66,19.66 0,10.86 -8.8,19.67 -19.66,19.67 -10.86,0 -19.67,-8.81 -19.67,-19.67 z"
           style="fill:#ffffff;fill-opacity:1;stroke:#7ed321;stroke-width:2;stroke-opacity:1"
           id="path335" />
      </g>
      <g
         class="composite-shape"
         id="g341">
        <path
           class="real"
           d="m 275,195.83 c 0,-10.86 8.81,-19.66 19.67,-19.66 10.86,0 19.66,8.8 19.66,19.66 0,10.86 -8.8,19.67 -19.66,19.67 -10.86,0 -19.67,-8.81 -19.67,-19.67 z"
           style="fill:#ffffff;fill-opacity:1;stroke:#9013fe;stroke-width:2;stroke-opacity:1"
           id="path339" />
      </g>
      <g
         class="composite-shape"
         id="g345">
        <path
           class="real"
           d="m 275,268.83 c 0,-10.86 8.81,-19.66 19.67,-19.66 10.86,0 19.66,8.8 19.66,19.66 0,10.86 -8.8,19.67 -19.66,19.67 -10.86,0 -19.67,-8.81 -19.67,-19.67 z"
           style="fill:#ffffff;fill-opacity:1;stroke:#d0021b;stroke-width:2;stroke-opacity:1"
           id="path343" />
      </g>
      <g
         class="composite-shape"
         id="g349">
        <path
           class="real"
           d="m 204,144.75 h 38 v -4.25 l 15,8.5 -15,8.5 v -4.25 h -38 z"
           style="fill:#7ed321;fill-opacity:0.3;stroke:#7ed321;stroke-width:1;stroke-opacity:1"
           id="path347" />
      </g>
      <g
         class="composite-shape"
         id="g353">
        <path
           class="real"
           d="m 42,75 h 49.33 v 49.33 H 42 Z"
           style="fill:#4a90e2;fill-opacity:0.25;stroke:none;stroke-width:1;stroke-opacity:1"
           id="path351" />
      </g>
      <g
         class="composite-shape"
         id="g357">
        <path
           class="real"
           d="m 91.33,75 h 49.34 v 49.33 H 91.33 Z"
           style="fill:#f5a623;fill-opacity:0.25;stroke:none;stroke-width:1;stroke-opacity:1"
           id="path355" />
      </g>
      <g
         class="composite-shape"
         id="g361">
        <path
           class="real"
           d="M 140.67,75 H 190 v 49.33 h -49.33 z"
           style="fill:#7ed321;fill-opacity:0.25;stroke:none;stroke-width:1;stroke-opacity:1"
           id="path359" />
      </g>
      <g
         class="composite-shape"
         id="g365">
        <path
           class="real"
           d="m 42,124.33 h 49.33 v 49.34 H 42 Z"
           style="fill:#9013fe;fill-opacity:0.25;stroke:none;stroke-width:1;stroke-opacity:1"
           id="path363" />
      </g>
      <g
         class="composite-shape"
         id="g369">
        <path
           class="real"
           d="m 91,124.67 h 49.33 V 174 H 91 Z"
           style="fill:#000000;fill-opacity:0.25;stroke:none;stroke-width:1;stroke-opacity:1"
           id="path367" />
      </g>
      <g
         class="composite-shape"
         id="g373">
        <path
           class="real"
           d="M 140.67,124.33 H 190 v 49.34 h -49.33 z"
           style="fill:#50e3c2;fill-opacity:0.25;stroke:none;stroke-width:1;stroke-opacity:1"
           id="path371" />
      </g>
      <g
         class="composite-shape"
         id="g377">
        <path
           class="real"
           d="M 42,173.67 H 91.33 V 223 H 42 Z"
           style="fill:#f8e71c;fill-opacity:0.25;stroke:none;stroke-width:1;stroke-opacity:1"
           id="path375" />
      </g>
      <g
         class="composite-shape"
         id="g381">
        <path
           class="real"
           d="m 91,174 h 49.33 v 49.33 H 91 Z"
           style="fill:#8b572a;fill-opacity:0.25;stroke:none;stroke-width:1;stroke-opacity:1"
           id="path379" />
      </g>
      <g
         class="composite-shape"
         id="g385">
        <path
           class="real"
           d="m 140.33,174 h 49.34 v 49.33 h -49.34 z"
           style="fill:#d0021b;fill-opacity:0.25;stroke:none;stroke-width:1;stroke-opacity:1"
           id="path383" />
      </g>
      <g
         id="g387" />
    </g>
    <g
       id="g391" />
    <g
       id="g393" />
    <g
       id="g395" />
  </svg>
  <svg
     width="960"
     height="339"
     style="font-family:Asana-Math, Asana"
     version="1.1"
     id="svg447">
    <g
       id="g407">
      <g
         id="g405">
        <g
           id="g403">
          <g
             transform="translate(292.11462,237.73333)"
             id="g401">
            <path
               transform="scale(0.0204,-0.0204)"
               d="m 124,674 c -30,0 -57,-28 -57,-58 0,-30 27,-58 56,-58 32,0 60,27 60,58 0,30 -28,58 -59,58 z m 0,-345 c -30,0 -57,-28 -57,-58 0,-30 27,-58 56,-58 32,0 60,27 60,58 0,30 -28,58 -59,58 z m 0,-355 c -30,0 -57,-28 -57,-58 0,-30 27,-58 56,-58 32,0 60,27 60,58 0,30 -28,58 -59,58 z"
               stroke="#000000"
               stroke-opacity="1"
               stroke-width="8"
               fill="#000000"
               fill-opacity="1"
               id="path399" />
          </g>
        </g>
      </g>
    </g>
    <g
       id="g417">
      <g
         id="g415">
        <g
           id="g413">
          <g
             transform="translate(104,257.48002)"
             id="g411">
            <path
               transform="scale(0.02448,-0.02448)"
               d="m 288,254 142,166 c 6,7 17,11 34,11 h 14 v 28 H 396 L 272,284 196,400 c -15,22 -26,35 -60,69 l -116,-20 5,-26 21,-2 c 18,-1 40,-15 50,-29 L 216,218 67,42 C 60,33 47,27 37,27 H 20 V 0 h 86 L 240,192 373,-3 c 52,3 52,3 61,3 10,0 10,0 62,-3 v 30 l -25,3 c -12,1 -24,9 -35,24 z"
               stroke="#000000"
               stroke-opacity="1"
               stroke-width="24"
               fill="#000000"
               fill-opacity="1"
               id="path409" />
          </g>
        </g>
      </g>
    </g>
    <g
       id="g427">
      <g
         id="g425">
        <g
           id="g423">
          <g
             transform="translate(78,200.999)"
             id="g421">
            <path
               transform="scale(0.149999,-0.149999)"
               d="m 459,253 c 0,113 -81,193 -195,193 -48,0 -84,-3 -137,-50 v 209 l 305,-1 v 85 L 75,690 V 322 l 20,-6 c 47,47 74,61 123,61 96,0 156,-68 156,-176 C 374,90 310,25 201,25 147,25 97,43 83,69 L 37,151 13,137 C 36,80 48,48 62,4 c 28,-15 68,-24 111,-24 128,0 286,109 286,273 z"
               stroke="#000000"
               stroke-opacity="0.6"
               stroke-width="8"
               fill="#000000"
               fill-opacity="0.6"
               id="path419" />
          </g>
        </g>
      </g>
    </g>
    <g
       id="g435">
      <g
         id="g433">
        <g
           id="g431">
          <text
             x="271"
             y="312"
             style="font-style:normal;font-weight:400;font-size:15px;font-family:Arial, Helvetica, sans-serif;text-decoration:none;text-decoration-line:none;text-decoration-style:solid;text-decoration-color:#000000;dominant-baseline:text-before-edge;white-space:pre;fill:#000000;fill-opacity:1;stroke:none"
             id="text429">9 units</text>
        </g>
      </g>
    </g>
    <g
       id="g445">
      <g
         id="g443">
        <g
           id="g441">
          <g
             transform="translate(220,131.33333)"
             id="g439">
            <path
               transform="scale(0.017,-0.017)"
               d="m 734,-9 180,639 c 6,18 16,27 38,29 l 32,3 v 30 l -105,-3 c -10,0 -10,0 -105,3 v -30 l 40,-3 c 35,-3 46,-8 47,-24 L 728,137 531,700 H 499 L 285,144 c -3,12 -104,472 -104,482 0,22 10,31 37,33 l 42,3 v 30 l -126,-3 c -7,0 -49,1 -126,3 v -30 l 28,-3 c 29,-3 41,-14 50,-50 L 228,-9 h 50 L 488,536 684,-9 Z"
               stroke="#000000"
               stroke-opacity="1"
               stroke-width="24"
               fill="#000000"
               fill-opacity="1"
               id="path437" />
          </g>
        </g>
      </g>
    </g>
  </svg>
</svg>
