<?xml version="1.0" encoding="utf-8"?>
<!DOCTYPE svg PUBLIC "-//W3C//DTD SVG 1.0//EN"    "http://www.w3.org/TR/2001/REC-SVG-20010904/DTD/svg10.dtd" [
	<!ENTITY ns_flows "http://ns.adobe.com/Flows/1.0/">
	<!ENTITY ns_svg "http://www.w3.org/2000/svg">
	<!ENTITY ns_xlink "http://www.w3.org/1999/xlink">
]>
<svg  xmlns="&ns_svg;" xmlns:xlink="&ns_xlink;" xmlns:a="http://ns.adobe.com/AdobeSVGViewerExtensions/3.0/"
	 width="396.852" height="141.732" viewBox="0 0 396.852 141.732" overflow="visible" enable-background="new 0 0 396.852 141.732"
	 xml:space="preserve">
	<g id="Ebene_1">
		<rect y="85.039" fill="#FFFFFF" width="396.852" height="28.347"/> 
		<rect y="28.346" fill="#FFFFFF" width="396.852" height="28.347"/> 
		<rect y="56.692" fill="#F3F3F3" width="396.852" height="28.348"/> 
		<rect fill="#F3F3F3" width="396.852" height="28.347"/> 
		<rect y="113.386" fill="#F3F3F3" width="396.852" height="28.347"/> 
		<text transform="matrix(1 0 0 1 8.5039 15)" enable-background="new     "><tspan x="0" y="0" font-family="'ArialUnicodeMS'" font-size="11">European</tspan></text>
		<text transform="matrix(1 0 0 1 8.5039 22.6)" enable-background="new     "><tspan x="0" y="0" font-family="'ArialUnicodeMS'" font-size="9">(descended from the West Arabic)</tspan></text>
		<text transform="matrix(1 0 0 1 8.5044 45.7637)" enable-background="new    "><tspan x="0" y="0" font-family="'ArialUnicodeMS'" font-size="11">Arabic-Indic</tspan></text>
		<text transform="matrix(1 0 0 1 8.5044 70.6631)" enable-background="new    "><tspan x="0" y="0" font-family="'ArialUnicodeMS'" font-size="11">Eastern Arabic-Indic</tspan></text>
		<text transform="matrix(1 0 0 1 8.5044 78.4326)" enable-background="new     "><tspan x="0" y="0" font-family="'ArialUnicodeMS'" font-size="9">(Persian and Urdu)</tspan></text>
		<text transform="matrix(1 0 0 1 8.5044 99.0098)" enable-background="new    "><tspan x="0" y="0" font-family="'ArialUnicodeMS'" font-size="11">Devanagari</tspan></text>
		<text transform="matrix(1 0 0 1 8.5044 106.7803)" enable-background="new    "><tspan x="0" y="0" font-family="'ArialUnicodeMS'" font-size="9">(Hindi)</tspan></text>
		<text transform="matrix(1 0 0 1 8.5044 130.8037)" enable-background="new   "><tspan x="0" y="0" font-family="'ArialUnicodeMS'" font-size="11">Tamil</tspan></text>
		<g>
			<path d="M177.943,13.267c0-1.056,0.16-1.964,0.479-2.727c0.319-0.764,0.743-1.33,1.272-1.703c0.41-0.296,0.834-0.444,1.271-0.444
				c0.712,0,1.351,0.362,1.916,1.085c0.707,0.896,1.062,2.111,1.062,3.646c0,1.072-0.155,1.985-0.465,2.735
				c-0.311,0.751-0.706,1.296-1.188,1.636c-0.48,0.339-0.944,0.508-1.392,0.508c-0.885,0-1.622-0.521-2.21-1.563
				C178.191,15.563,177.943,14.505,177.943,13.267z M179.287,13.435c0,1.272,0.157,2.313,0.471,3.116
				c0.261,0.677,0.646,1.016,1.161,1.016c0.246,0,0.501-0.109,0.766-0.331c0.265-0.22,0.465-0.59,0.602-1.107
				c0.209-0.782,0.314-1.883,0.314-3.307c0-1.054-0.109-1.934-0.328-2.638c-0.164-0.521-0.376-0.894-0.636-1.111
				c-0.188-0.149-0.412-0.225-0.677-0.225c-0.31,0-0.585,0.139-0.826,0.416c-0.327,0.378-0.551,0.971-0.67,1.779
				C179.347,11.852,179.287,12.647,179.287,13.435z"/>
			<path d="M201.762,9.487l2.259-1.094h0.225v7.813c0,0.522,0.021,0.849,0.065,0.978c0.043,0.128,0.133,0.228,0.271,0.296
				s0.416,0.107,0.836,0.117v0.25h-3.469v-0.25c0.431-0.009,0.709-0.047,0.835-0.114c0.126-0.065,0.213-0.155,0.263-0.269
				c0.05-0.112,0.074-0.448,0.074-1.008v-5c0-0.669-0.022-1.101-0.067-1.29c-0.032-0.146-0.092-0.251-0.177-0.32
				c-0.084-0.068-0.187-0.103-0.305-0.103c-0.169,0-0.405,0.07-0.707,0.212L201.762,9.487z"/>
			<path d="M229.188,16.048l-0.646,1.799h-5.446v-0.256c1.605-1.467,2.736-2.664,3.392-3.593c0.655-0.93,0.983-1.779,0.983-2.55
				c0-0.585-0.181-1.065-0.539-1.442c-0.36-0.376-0.79-0.565-1.29-0.565c-0.455,0-0.864,0.132-1.227,0.397
				c-0.361,0.265-0.629,0.653-0.802,1.165h-0.253c0.114-0.84,0.406-1.485,0.878-1.936c0.471-0.448,1.06-0.674,1.766-0.674
				c0.751,0,1.378,0.241,1.883,0.724c0.503,0.48,0.755,1.05,0.755,1.703c0,0.47-0.109,0.938-0.328,1.407
				c-0.337,0.738-0.883,1.521-1.64,2.345c-1.134,1.236-1.837,1.979-2.108,2.229h2.391c0.486,0,0.828-0.018,1.023-0.055
				c0.194-0.037,0.373-0.11,0.529-0.223c0.158-0.11,0.296-0.27,0.412-0.475L229.188,16.048L229.188,16.048z"/>
			<path d="M246.146,10.347c0.266-0.624,0.603-1.104,1.009-1.444c0.406-0.339,0.913-0.509,1.518-0.509
				c0.749,0,1.322,0.241,1.723,0.724c0.303,0.359,0.455,0.743,0.455,1.153c0,0.673-0.428,1.37-1.281,2.088
				c0.571,0.224,1.003,0.541,1.295,0.955c0.293,0.414,0.439,0.901,0.439,1.461c0,0.802-0.257,1.495-0.768,2.082
				c-0.667,0.765-1.633,1.146-2.896,1.146c-0.626,0-1.053-0.078-1.277-0.233c-0.227-0.155-0.339-0.322-0.339-0.501
				c0-0.132,0.053-0.249,0.161-0.35c0.107-0.102,0.235-0.151,0.387-0.151c0.114,0,0.229,0.02,0.349,0.055
				c0.078,0.023,0.253,0.107,0.527,0.251c0.273,0.146,0.463,0.231,0.568,0.259c0.169,0.051,0.349,0.076,0.541,0.076
				c0.465,0,0.869-0.18,1.215-0.538c0.345-0.359,0.517-0.784,0.517-1.274c0-0.359-0.08-0.708-0.238-1.049
				c-0.117-0.254-0.246-0.447-0.387-0.579c-0.195-0.182-0.462-0.346-0.802-0.494c-0.34-0.146-0.687-0.221-1.039-0.221h-0.217V13.05
				c0.356-0.045,0.716-0.175,1.076-0.389c0.359-0.215,0.62-0.472,0.783-0.771c0.163-0.301,0.245-0.63,0.245-0.99
				c0-0.468-0.147-0.847-0.444-1.136s-0.665-0.433-1.105-0.433c-0.712,0-1.307,0.375-1.785,1.125L246.146,10.347z"/>
			<path d="M274.667,14.425v0.969h-1.25v2.453h-1.125v-2.453h-3.922V14.52l4.297-6.126h0.75v6.031H274.667z M272.292,14.425V9.82
				l-3.252,4.604H272.292z"/>
			<path d="M296.906,8.582l-0.535,1.155h-2.804l-0.609,1.231c1.221,0.178,2.183,0.627,2.887,1.348
				c0.604,0.62,0.905,1.351,0.905,2.189c0,0.488-0.099,0.939-0.297,1.354s-0.447,0.77-0.747,1.062
				c-0.301,0.292-0.635,0.526-1.004,0.705c-0.522,0.251-1.061,0.376-1.611,0.376c-0.555,0-0.959-0.094-1.212-0.282
				c-0.252-0.188-0.379-0.396-0.379-0.622c0-0.127,0.054-0.239,0.156-0.337c0.104-0.097,0.236-0.146,0.395-0.146
				c0.118,0,0.223,0.018,0.311,0.054c0.089,0.036,0.239,0.129,0.452,0.278c0.342,0.236,0.688,0.354,1.04,0.352
				c0.533,0,1.002-0.202,1.404-0.605c0.403-0.402,0.605-0.894,0.605-1.473c0-0.56-0.18-1.083-0.54-1.568
				c-0.359-0.484-0.855-0.859-1.488-1.125c-0.497-0.205-1.173-0.322-2.028-0.354l1.777-3.594h3.322V8.582z"/>
			<path d="M319.756,8.394V8.66c-0.597,0.059-1.084,0.178-1.462,0.357c-0.377,0.179-0.75,0.453-1.118,0.82
				c-0.368,0.368-0.674,0.778-0.915,1.229c-0.241,0.452-0.444,0.989-0.607,1.611c0.654-0.45,1.311-0.675,1.97-0.675
				c0.631,0,1.18,0.254,1.643,0.764c0.464,0.509,0.694,1.164,0.694,1.963c0,0.773-0.233,1.479-0.702,2.114
				c-0.563,0.773-1.31,1.159-2.236,1.159c-0.632,0-1.168-0.209-1.608-0.628c-0.864-0.814-1.296-1.87-1.296-3.167
				c0-0.828,0.165-1.615,0.496-2.361c0.33-0.746,0.803-1.408,1.417-1.986c0.613-0.577,1.201-0.967,1.764-1.167
				c0.563-0.199,1.085-0.3,1.569-0.3L319.756,8.394L319.756,8.394z M315.537,13.176c-0.084,0.612-0.125,1.107-0.125,1.483
				c0,0.436,0.08,0.908,0.241,1.419s0.4,0.916,0.719,1.215c0.23,0.213,0.512,0.319,0.844,0.319c0.396,0,0.747-0.186,1.059-0.558
				s0.467-0.903,0.467-1.593c0-0.775-0.154-1.447-0.463-2.015c-0.308-0.566-0.745-0.851-1.313-0.851
				c-0.172,0-0.355,0.037-0.554,0.109C316.214,12.778,315.922,12.936,315.537,13.176z"/>
			<path d="M337.589,8.582h4.95V8.83l-3.075,9.205h-0.757l2.757-8.345h-2.546c-0.515,0-0.881,0.063-1.1,0.186
				c-0.383,0.209-0.689,0.533-0.922,0.971l-0.198-0.075L337.589,8.582z"/>
			<path d="M363.298,13.178c-0.727-0.601-1.193-1.083-1.403-1.447c-0.21-0.363-0.314-0.742-0.314-1.133
				c0-0.601,0.231-1.118,0.696-1.553c0.464-0.436,1.081-0.652,1.85-0.652c0.747,0,1.349,0.203,1.804,0.607
				c0.455,0.403,0.683,0.867,0.683,1.385c0,0.346-0.124,0.698-0.371,1.058c-0.247,0.36-0.762,0.782-1.544,1.27
				c0.805,0.619,1.337,1.105,1.598,1.46c0.348,0.465,0.521,0.954,0.521,1.468c0,0.651-0.249,1.207-0.747,1.669
				s-1.151,0.693-1.96,0.693c-0.882,0-1.569-0.275-2.063-0.826c-0.393-0.441-0.589-0.924-0.589-1.447
				c0-0.409,0.139-0.814,0.414-1.218C362.146,14.109,362.621,13.665,363.298,13.178z M363.62,13.438
				c-0.38,0.317-0.662,0.662-0.845,1.035c-0.185,0.374-0.274,0.777-0.274,1.211c0,0.584,0.161,1.052,0.482,1.402
				c0.322,0.351,0.731,0.525,1.229,0.525c0.493,0,0.89-0.138,1.187-0.414c0.297-0.275,0.445-0.61,0.445-1.004
				c0-0.325-0.088-0.617-0.262-0.876C365.262,14.839,364.605,14.212,363.62,13.438z M364.374,12.446
				c0.551-0.491,0.9-0.88,1.047-1.165c0.147-0.284,0.222-0.606,0.222-0.967c0-0.479-0.136-0.854-0.403-1.124
				c-0.27-0.271-0.637-0.406-1.102-0.406c-0.467,0-0.845,0.134-1.137,0.402c-0.292,0.27-0.438,0.583-0.438,0.943
				c0,0.236,0.06,0.474,0.18,0.71s0.292,0.462,0.516,0.676L364.374,12.446z"/>
			<path d="M384.037,18.035v-0.25c0.59-0.01,1.14-0.147,1.646-0.413c0.507-0.267,0.999-0.732,1.473-1.397s0.804-1.396,0.99-2.196
				c-0.716,0.463-1.362,0.693-1.941,0.693c-0.65,0-1.209-0.251-1.674-0.754s-0.697-1.171-0.697-2.005
				c0-0.811,0.232-1.532,0.697-2.165c0.561-0.77,1.291-1.154,2.193-1.154c0.761,0,1.413,0.314,1.955,0.942
				c0.664,0.777,0.997,1.739,0.997,2.882c0,1.028-0.252,1.988-0.757,2.878c-0.504,0.89-1.205,1.628-2.104,2.215
				c-0.731,0.482-1.528,0.725-2.393,0.725H384.037z M388.256,13.272c0.083-0.593,0.125-1.065,0.125-1.422
				c0-0.44-0.074-0.919-0.226-1.431s-0.363-0.905-0.639-1.179c-0.276-0.273-0.589-0.41-0.94-0.41c-0.405,0-0.761,0.182-1.064,0.546
				c-0.307,0.365-0.458,0.907-0.458,1.627c0,0.961,0.201,1.713,0.606,2.255c0.296,0.392,0.66,0.587,1.093,0.587
				c0.21,0,0.458-0.05,0.744-0.15C387.784,13.597,388.037,13.455,388.256,13.272z"/>
		</g>
		<g>
			<path d="M181.897,43.779c-0.164,0.51-0.286,0.923-0.368,1.238c-0.082,0.316-0.178,0.771-0.289,1.361
				c-0.496-0.281-0.884-0.521-1.164-0.72c-0.187-0.136-0.528-0.401-1.023-0.8c0.121-0.531,0.233-0.971,0.337-1.316
				c0.102-0.346,0.252-0.796,0.45-1.353c0.326,0.287,0.656,0.56,0.989,0.816C181.053,43.178,181.407,43.435,181.897,43.779z"/>
			<path d="M204.288,44.07c0,0.529-0.041,1.144-0.123,1.843c-0.018,0.17-0.1,0.783-0.246,1.841h-0.313
				c0-0.142,0.012-0.549,0.037-1.225c0-1.244-0.17-2.406-0.51-3.487c-0.264-0.839-0.626-1.629-1.089-2.369
				c-0.233-0.376-0.567-0.828-1.001-1.356l0.828-1.905c0.469,0.558,0.845,1.074,1.13,1.551c0.403,0.676,0.708,1.389,0.917,2.141
				C204.165,41.995,204.288,42.983,204.288,44.07z"/>
			<path d="M228.166,38.82c0,0.646-0.155,1.162-0.468,1.55c-0.343,0.423-0.828,0.634-1.454,0.634c-0.079,0-0.287-0.023-0.624-0.07
				c0.235,0.47,0.402,0.843,0.501,1.119c0.167,0.464,0.294,1.008,0.38,1.63s0.129,1.457,0.129,2.502c0,0.183-0.006,0.48-0.018,0.896
				s-0.018,0.639-0.018,0.674h-0.313c-0.447-1.893-0.744-3.087-0.891-3.585c-0.282-0.974-0.616-1.82-1.001-2.544
				c-0.386-0.725-0.964-1.566-1.733-2.527l0.578-1.781c0.396,0.555,0.749,0.965,1.057,1.234c0.563,0.49,1.157,0.735,1.785,0.735
				c0.663,0,1.122-0.222,1.376-0.662c0.143-0.241,0.251-0.678,0.329-1.308l0.313-0.018c0.022,0.206,0.041,0.445,0.053,0.717
				C228.16,38.289,228.166,38.558,228.166,38.82z"/>
			<path d="M252.254,38.197c0,0.729-0.14,1.283-0.42,1.667c-0.279,0.385-0.711,0.576-1.294,0.576c-0.336,0-0.627-0.052-0.875-0.156
				s-0.43-0.265-0.548-0.479c-0.201,0.334-0.454,0.585-0.76,0.755c-0.308,0.17-0.675,0.255-1.104,0.255
				c0.215,0.429,0.369,0.756,0.461,0.985c0.168,0.416,0.298,0.859,0.388,1.328s0.135,1.035,0.135,1.697
				c0,0.369-0.016,0.726-0.048,1.068s-0.119,0.963-0.259,1.859h-0.345c0-1.288-0.082-2.344-0.245-3.169
				c-0.164-0.825-0.443-1.627-0.84-2.406c-0.304-0.591-0.837-1.451-1.602-2.581l0.641-2.094c0.301,0.5,0.626,0.879,0.975,1.135
				c0.388,0.285,0.819,0.428,1.295,0.428c0.492,0,0.878-0.169,1.156-0.507c0.237-0.292,0.403-0.706,0.496-1.243h0.313
				c0.047,0.531,0.151,0.904,0.316,1.117c0.165,0.214,0.4,0.32,0.706,0.32c0.617,0,0.984-0.479,1.103-1.438h0.313
				c0,0.128,0.008,0.298,0.022,0.512C252.249,38.039,252.254,38.163,252.254,38.197z"/>
			<path d="M273.605,45.973l-0.554,1.781c-0.53,0-1.041-0.038-1.53-0.114c-0.648-0.1-1.171-0.25-1.565-0.449
				c-0.482-0.239-0.726-0.54-0.726-0.897c0-0.334,0.103-0.677,0.309-1.03c0.176-0.299,0.445-0.642,0.811-1.029
				c0.192-0.205,0.561-0.563,1.101-1.073c-0.497-0.188-0.993-0.379-1.489-0.572c-0.591-0.264-0.886-0.531-0.886-0.801
				c0-0.446,0.217-0.962,0.65-1.55c0.334-0.451,0.819-0.966,1.459-1.541c0.443-0.398,0.938-0.807,1.483-1.224l-0.271,1.688
				c-0.649,0.24-1.082,0.415-1.299,0.52c-0.516,0.252-0.772,0.484-0.772,0.696c0,0.188,0.22,0.379,0.658,0.573
				c0.409,0.158,0.822,0.313,1.237,0.467c0.443,0.182,0.667,0.349,0.667,0.501c0,0.17-0.2,0.466-0.601,0.889
				c-0.371,0.387-0.742,0.771-1.112,1.152c-0.399,0.452-0.601,0.798-0.601,1.038c0,0.281,0.405,0.516,1.215,0.704
				C272.314,45.822,272.92,45.914,273.605,45.973z"/>
			<path d="M296.972,42.227c0,1.016-0.304,1.854-0.907,2.518c-0.688,0.757-1.662,1.135-2.925,1.135c-0.711,0-1.271-0.123-1.684-0.37
				c-0.47-0.281-0.704-0.689-0.704-1.223c0-0.476,0.129-1.109,0.389-1.901c0.293-0.892,0.646-1.625,1.057-2.2
				c0.505-0.704,1.027-1.056,1.568-1.056c0.691,0,1.398,0.349,2.122,1.047C296.61,40.874,296.972,41.558,296.972,42.227z
				 M296.314,43.175c0-0.335-0.234-0.696-0.702-1.084c-0.393-0.323-0.884-0.617-1.475-0.881c-0.546-0.241-0.954-0.361-1.229-0.361
				c-0.387,0-0.708,0.265-0.966,0.793c-0.211,0.429-0.315,0.855-0.315,1.278c0,0.481,0.201,0.834,0.605,1.058
				c0.368,0.206,0.916,0.31,1.642,0.31c0.714,0,1.299-0.107,1.756-0.322C296.086,43.749,296.314,43.485,296.314,43.175z"/>
			<path d="M319.147,45.504l-0.328,2c-0.38-0.251-0.667-0.486-0.859-0.703c-0.328-0.357-0.577-0.802-0.746-1.335
				c-0.211-0.649-0.315-1.452-0.315-2.406c0-0.339,0.015-0.688,0.044-1.045c0.006-0.099,0.07-0.682,0.192-1.748
				c-0.281,0.053-0.489,0.091-0.625,0.114c-0.435,0.082-0.789,0.123-1.064,0.123c-0.916,0-1.515-0.094-1.796-0.281
				c-0.225-0.146-0.335-0.449-0.335-0.906c0-0.192,0.009-0.482,0.025-0.871c0.019-0.387,0.026-0.68,0.026-0.879l0.313-0.035
				c0.141,0.324,0.275,0.54,0.404,0.646c0.271,0.218,0.716,0.327,1.339,0.327c0.465,0,0.986-0.056,1.567-0.168
				c0.129-0.023,0.443-0.091,0.942-0.204c-0.101,0.604-0.171,1.054-0.211,1.353c-0.07,0.511-0.105,0.955-0.105,1.335
				c0,0.943,0.082,1.737,0.245,2.382c0.128,0.51,0.326,0.975,0.595,1.396C318.55,44.746,318.78,45.047,319.147,45.504z"/>
			<path d="M342.716,37.535l-0.069,2.5c-0.865,0.888-1.552,1.946-2.062,3.176c-0.508,1.229-0.882,2.744-1.121,4.543h-0.123
				c-0.376-1.802-0.855-3.273-1.44-4.412c-0.584-1.139-1.355-2.137-2.313-2.994l0.316-2.781c0.91,1.062,1.662,2.203,2.256,3.428
				c0.575,1.188,1.049,2.558,1.419,4.104h0.088c0.229-1.628,0.603-3.077,1.121-4.348C341.29,39.521,341.934,38.448,342.716,37.535z"
				/>
			<path d="M365.615,44.815l-0.316,2.781c-0.865-0.898-1.624-2.017-2.272-3.355c-0.65-1.34-1.118-2.752-1.405-4.238h-0.062
				c-0.252,1.317-0.472,2.311-0.658,2.978c-0.246,0.884-0.544,1.672-0.896,2.363c-0.368,0.727-0.875,1.488-1.519,2.284v-2.5
				c0.843-0.781,1.523-1.797,2.046-3.049c0.503-1.217,0.9-2.772,1.193-4.67h0.167c0.299,1.398,0.632,2.563,1.001,3.491
				c0.346,0.87,0.752,1.628,1.221,2.274C364.5,43.706,365.001,44.252,365.615,44.815z"/>
			<path d="M389.491,45.879l-0.547,1.875c-0.6-0.358-0.996-0.959-1.188-1.804c-0.155-0.692-0.233-1.922-0.233-3.688
				c-0.396,0.142-0.694,0.233-0.894,0.274c-0.198,0.041-0.395,0.062-0.587,0.062c-0.636,0-1.143-0.131-1.519-0.395
				c-0.376-0.265-0.564-0.642-0.564-1.134c0-0.362,0.088-0.811,0.266-1.344c0.223-0.679,0.521-1.226,0.896-1.642
				c0.481-0.532,1.048-0.799,1.699-0.799c0.487,0,0.857,0.255,1.109,0.765c0.205,0.41,0.341,1.021,0.404,1.836
				c0.041,0.504,0.063,1.248,0.063,2.232c0.119,1.348,0.281,2.293,0.483,2.838C388.973,45.195,389.175,45.504,389.491,45.879z
				 M387.46,40.716c0-0.533-0.066-0.938-0.202-1.212c-0.182-0.375-0.506-0.563-0.975-0.563c-0.352,0-0.69,0.132-1.019,0.396
				c-0.329,0.264-0.492,0.509-0.492,0.738c0,0.245,0.144,0.436,0.431,0.57s0.635,0.202,1.045,0.202c0.176,0,0.39-0.018,0.642-0.053
				S387.331,40.732,387.46,40.716z"/>
		</g>
		<g>
			<path d="M181.897,72.127c-0.164,0.509-0.286,0.922-0.368,1.237c-0.082,0.316-0.178,0.771-0.289,1.361
				c-0.496-0.281-0.884-0.521-1.164-0.72c-0.187-0.135-0.528-0.401-1.023-0.799c0.121-0.532,0.233-0.972,0.337-1.317
				c0.102-0.345,0.252-0.796,0.45-1.352c0.326,0.287,0.656,0.559,0.989,0.815C181.053,71.523,181.407,71.781,181.897,72.127z"/>
			<path d="M204.288,72.417c0,0.528-0.041,1.143-0.123,1.842c-0.018,0.17-0.1,0.784-0.246,1.841h-0.313
				c0-0.141,0.012-0.549,0.037-1.224c0-1.245-0.17-2.407-0.51-3.488c-0.264-0.839-0.626-1.629-1.089-2.369
				c-0.233-0.376-0.567-0.828-1.001-1.355l0.828-1.906c0.469,0.558,0.845,1.075,1.13,1.551c0.403,0.676,0.708,1.389,0.917,2.141
				C204.165,70.341,204.288,71.331,204.288,72.417z"/>
			<path d="M228.166,67.168c0,0.646-0.155,1.162-0.468,1.549c-0.343,0.423-0.828,0.634-1.454,0.634c-0.079,0-0.287-0.022-0.624-0.07
				c0.235,0.471,0.402,0.844,0.501,1.119c0.167,0.464,0.294,1.009,0.38,1.63c0.086,0.622,0.129,1.457,0.129,2.502
				c0,0.183-0.006,0.48-0.018,0.896s-0.018,0.639-0.018,0.674h-0.313c-0.447-1.892-0.744-3.087-0.891-3.585
				c-0.282-0.973-0.616-1.82-1.001-2.544c-0.386-0.724-0.964-1.566-1.733-2.527l0.578-1.78c0.396,0.554,0.749,0.965,1.057,1.233
				c0.563,0.49,1.157,0.735,1.785,0.735c0.663,0,1.122-0.221,1.376-0.662c0.143-0.241,0.251-0.677,0.329-1.307l0.313-0.019
				c0.022,0.206,0.041,0.445,0.053,0.717C228.16,66.636,228.166,66.903,228.166,67.168z"/>
			<path d="M252.254,66.545c0,0.728-0.14,1.283-0.42,1.667c-0.279,0.384-0.711,0.576-1.294,0.576c-0.336,0-0.627-0.053-0.875-0.157
				s-0.43-0.264-0.548-0.479c-0.201,0.334-0.454,0.585-0.76,0.755c-0.308,0.171-0.675,0.256-1.104,0.256
				c0.215,0.428,0.369,0.756,0.461,0.984c0.168,0.416,0.298,0.859,0.388,1.328s0.135,1.035,0.135,1.697
				c0,0.37-0.016,0.726-0.048,1.069c-0.032,0.343-0.119,0.963-0.259,1.858h-0.345c0-1.288-0.082-2.344-0.245-3.169
				c-0.164-0.825-0.443-1.627-0.84-2.406c-0.304-0.591-0.837-1.45-1.602-2.581l0.641-2.094c0.301,0.5,0.626,0.879,0.975,1.135
				c0.388,0.285,0.819,0.429,1.295,0.429c0.492,0,0.878-0.169,1.156-0.508c0.237-0.292,0.403-0.705,0.496-1.242h0.313
				c0.047,0.53,0.151,0.903,0.316,1.116c0.165,0.215,0.4,0.32,0.706,0.32c0.617,0,0.984-0.479,1.103-1.438h0.313
				c0,0.128,0.008,0.298,0.022,0.511S252.254,66.51,252.254,66.545z"/>
			<path d="M267.824,67.882l0.672-2.125c0.522,0.949,0.893,1.563,1.106,1.845s0.527,0.544,0.939,0.791
				c0.082-0.952,0.264-1.639,0.542-2.063c0.279-0.425,0.688-0.636,1.223-0.636c0.357,0,0.682,0.087,0.97,0.261
				c0.265,0.155,0.541,0.407,0.829,0.755l-0.07,0.104c-0.029-0.006-0.141-0.041-0.335-0.104c-0.288-0.095-0.566-0.142-0.837-0.142
				c-0.546,0-0.985,0.154-1.317,0.462c-0.332,0.309-0.583,0.804-0.753,1.483c0.302,0.094,0.561,0.163,0.774,0.207
				c0.216,0.044,0.415,0.066,0.598,0.066c0.484,0,0.896-0.082,1.23-0.247c0.337-0.165,0.688-0.469,1.054-0.909l0.188,0.071
				c-0.165,0.852-0.476,1.501-0.932,1.946c-0.456,0.446-1.042,0.669-1.76,0.669c-0.348,0-0.622-0.029-0.825-0.09
				c-0.203-0.06-0.422-0.173-0.657-0.34c0.249,0.565,0.408,1.039,0.479,1.421c0.054,0.294,0.08,0.756,0.08,1.386
				c0,0.836-0.149,1.939-0.449,3.312h-0.313c0-1.281-0.113-2.448-0.342-3.501c-0.199-0.93-0.497-1.811-0.895-2.642
				C268.71,69.204,268.311,68.543,267.824,67.882z"/>
			<path d="M292.875,67.851l0.58-1.938c1.23,1.226,2.153,2.448,2.771,3.669c0.539,1.066,0.809,2.044,0.809,2.93
				c0,0.704-0.19,1.364-0.571,1.979c-0.434,0.698-0.964,1.048-1.59,1.048c-0.164,0-0.315-0.021-0.457-0.063
				c-0.141-0.041-0.293-0.131-0.457-0.268c-0.258,0.214-0.517,0.363-0.775,0.45c-0.262,0.086-0.528,0.129-0.804,0.129
				c-0.556,0-1.013-0.152-1.369-0.456c-0.381-0.321-0.569-0.761-0.569-1.316c0-0.661,0.235-1.408,0.71-2.241
				c0.474-0.833,1.284-1.917,2.431-3.25L292.875,67.851z M294.284,73.399c0.129,0.136,0.307,0.249,0.532,0.343
				s0.456,0.14,0.689,0.14c0.281,0,0.519-0.074,0.709-0.224s0.286-0.338,0.286-0.565c0-0.432-0.256-1.043-0.766-1.832
				c-0.47-0.725-1.118-1.548-1.945-2.472c-0.237,0.251-0.497,0.571-0.775,0.963c-0.372,0.52-0.672,1.019-0.898,1.498
				c-0.285,0.602-0.427,1.118-0.427,1.549c0,0.374,0.099,0.669,0.297,0.885s0.475,0.324,0.83,0.324c0.25,0,0.479-0.04,0.686-0.121
				S293.971,73.643,294.284,73.399z"/>
			<path d="M314.805,76.007c0-0.999,0.104-1.94,0.314-2.823c0.21-0.882,0.554-1.712,1.033-2.49c-0.881,0-1.534-0.092-1.96-0.276
				c-0.426-0.186-0.639-0.458-0.639-0.821c0-0.275,0.113-0.625,0.344-1.05c0.229-0.425,0.563-0.897,1.003-1.419
				c0.346-0.435,0.69-0.771,1.038-1.01c0.346-0.24,0.649-0.36,0.915-0.36c0.311,0,0.635,0.126,0.972,0.377
				c0.338,0.251,0.727,0.655,1.166,1.21l-0.088,0.088c-0.425-0.146-0.75-0.245-0.974-0.292c-0.226-0.047-0.479-0.071-0.765-0.071
				c-0.729,0-1.31,0.1-1.743,0.295c-0.433,0.196-0.649,0.441-0.649,0.734c0,0.316,0.157,0.563,0.473,0.739
				c0.316,0.176,0.751,0.264,1.306,0.264c0.502,0,0.959-0.049,1.371-0.146c0.411-0.099,0.978-0.311,1.694-0.635l-0.396,1.688
				c-0.572,0.198-1.134,0.554-1.684,1.067c-0.606,0.565-1.11,1.241-1.508,2.028c-0.45,0.887-0.733,1.854-0.852,2.904L314.805,76.007
				L314.805,76.007z"/>
			<path d="M342.716,65.882l-0.069,2.5c-0.865,0.888-1.552,1.947-2.062,3.176c-0.508,1.229-0.882,2.744-1.121,4.543h-0.123
				c-0.376-1.802-0.855-3.272-1.44-4.412c-0.584-1.139-1.355-2.137-2.313-2.994l0.316-2.78c0.91,1.061,1.662,2.203,2.256,3.427
				c0.575,1.188,1.049,2.558,1.419,4.104h0.088c0.229-1.628,0.603-3.076,1.121-4.348C341.29,67.867,341.934,66.795,342.716,65.882z"
				/>
			<path d="M365.615,73.163l-0.316,2.78c-0.865-0.897-1.624-2.017-2.272-3.355c-0.65-1.339-1.118-2.751-1.405-4.238h-0.062
				c-0.252,1.318-0.472,2.312-0.658,2.979c-0.246,0.884-0.544,1.672-0.896,2.362c-0.368,0.728-0.875,1.488-1.519,2.284v-2.5
				c0.843-0.781,1.523-1.797,2.046-3.049c0.503-1.216,0.9-2.772,1.193-4.67h0.167c0.299,1.398,0.632,2.563,1.001,3.492
				c0.346,0.87,0.752,1.628,1.221,2.273C364.5,72.052,365.001,72.599,365.615,73.163z"/>
			<path d="M389.491,74.226l-0.547,1.875c-0.6-0.357-0.996-0.959-1.188-1.804c-0.155-0.692-0.233-1.921-0.233-3.688
				c-0.396,0.143-0.694,0.233-0.894,0.274c-0.198,0.041-0.395,0.062-0.587,0.062c-0.636,0-1.143-0.131-1.519-0.395
				s-0.564-0.641-0.564-1.133c0-0.363,0.088-0.812,0.266-1.345c0.223-0.679,0.521-1.226,0.896-1.642
				c0.481-0.532,1.048-0.799,1.699-0.799c0.487,0,0.857,0.255,1.109,0.765c0.205,0.41,0.341,1.022,0.404,1.836
				c0.041,0.504,0.063,1.248,0.063,2.232c0.119,1.348,0.281,2.293,0.483,2.838C388.973,73.543,389.175,73.851,389.491,74.226z
				 M387.46,69.063c0-0.533-0.066-0.937-0.202-1.212c-0.182-0.375-0.506-0.562-0.975-0.562c-0.352,0-0.69,0.132-1.019,0.396
				c-0.329,0.265-0.492,0.509-0.492,0.738c0,0.246,0.144,0.436,0.431,0.571c0.287,0.135,0.635,0.201,1.045,0.201
				c0.176,0,0.39-0.018,0.642-0.053S387.331,69.08,387.46,69.063z"/>
		</g>
		<g>
			<path d="M183.201,98.603c0,0.859-0.309,1.587-0.926,2.185c-0.617,0.597-1.294,0.895-2.03,0.895c-0.654,0-1.241-0.253-1.762-0.759
				c-0.521-0.506-0.782-1.146-0.782-1.918c0-0.83,0.313-1.534,0.938-2.112s1.284-0.867,1.979-0.867c0.71,0,1.318,0.255,1.824,0.767
				C182.948,97.301,183.201,97.904,183.201,98.603z M178.639,98.117c0,0.582,0.274,1.196,0.826,1.844
				c0.552,0.646,1.118,0.97,1.701,0.97c0.278,0,0.531-0.133,0.757-0.397c0.227-0.266,0.341-0.575,0.341-0.93
				c0-0.634-0.282-1.273-0.848-1.921c-0.564-0.646-1.104-0.971-1.619-0.971c-0.313,0-0.586,0.137-0.814,0.41
				C178.752,97.396,178.639,97.728,178.639,98.117z"/>
			<path d="M201.034,99.884l1.978-2.383c-0.893-0.634-1.466-1.15-1.721-1.548s-0.382-0.823-0.382-1.275
				c0-0.556,0.185-1.059,0.551-1.509c0.367-0.45,0.79-0.675,1.271-0.675c0.599,0,1.164,0.322,1.694,0.969
				c0.531,0.646,0.798,1.31,0.798,1.991c0,0.624-0.232,1.329-0.695,2.114c-0.464,0.786-1.261,1.79-2.391,3.012l2.272,2.819
				c0.625,0.789,0.938,1.373,0.938,1.752c0,0.354-0.229,0.529-0.688,0.529l-1.656-1.344c0.333-0.021,0.583-0.078,0.75-0.172
				c0.167-0.095,0.25-0.223,0.25-0.384c0-0.119-0.102-0.33-0.305-0.633L201.034,99.884z M203.237,97.149
				c0.781-1.069,1.172-1.916,1.172-2.538c0-0.35-0.091-0.639-0.272-0.868c-0.184-0.229-0.406-0.345-0.671-0.345
				c-0.374,0-0.699,0.199-0.979,0.596c-0.28,0.396-0.42,0.818-0.42,1.268C202.065,95.968,202.456,96.597,203.237,97.149z"/>
			<path d="M223.008,94.899l-0.702-1.25c0.98-0.292,1.843-0.438,2.585-0.438c1.281,0,2.271,0.294,2.966,0.883
				s1.043,1.37,1.043,2.345c0,0.786-0.234,1.493-0.703,2.119s-1.109,1.101-1.922,1.419c1.297,2.354,2.339,4.118,3.125,5.29
				l-0.289,0.228c-0.776-1.151-1.859-2.942-3.25-5.375h-0.574c-0.456,0-0.858-0.144-1.208-0.429
				c-0.349-0.285-0.522-0.631-0.522-1.036c0-0.296,0.09-0.536,0.271-0.724c0.181-0.187,0.379-0.28,0.594-0.28
				c0.204,0,0.402,0.073,0.595,0.22c0.19,0.146,0.438,0.489,0.743,1.03c0.76-0.21,1.38-0.585,1.858-1.125
				c0.479-0.539,0.72-1.143,0.72-1.812c0-0.563-0.155-1.011-0.469-1.345c-0.313-0.333-0.768-0.5-1.366-0.5
				C225.806,94.119,224.642,94.379,223.008,94.899z"/>
			<path d="M245.39,92.681h2.591c0.747,0,1.396,0.272,1.952,0.817c0.555,0.545,0.832,1.148,0.832,1.813
				c0,0.599-0.281,1.105-0.845,1.524c0.896,0.529,1.345,1.288,1.345,2.277c0,0.565-0.152,1.047-0.456,1.442
				c-0.305,0.396-0.758,0.709-1.359,0.938l1.823,3.554l-0.368,0.172l-1.848-3.601c-0.239,0.042-0.462,0.062-0.671,0.062
				c-0.544,0-0.97-0.126-1.28-0.38c-0.312-0.254-0.466-0.579-0.466-0.976c0-0.246,0.095-0.473,0.285-0.679s0.438-0.31,0.74-0.31
				c0.422,0,0.812,0.313,1.166,0.938h0.265c0.48,0,0.89-0.122,1.227-0.365c0.336-0.244,0.505-0.575,0.505-0.991
				c0-0.458-0.206-0.852-0.617-1.181c-0.412-0.328-0.97-0.493-1.674-0.493h-2.052l-0.313-1.125h1.689
				c0.771,0,1.355-0.152,1.75-0.456c0.394-0.305,0.592-0.633,0.592-0.982c0-0.216-0.142-0.416-0.426-0.599
				c-0.284-0.184-0.672-0.275-1.163-0.275h-2.724L245.39,92.681z"/>
			<path d="M266.255,92.882l0.326-0.326l4.465,4.105l4.004-4.105l0.907,0.748l-4.058,4.114c0.898,0.833,1.423,1.388,1.57,1.667
				c0.146,0.278,0.221,0.546,0.221,0.802c0,0.554-0.205,0.996-0.613,1.327c-0.408,0.332-0.86,0.497-1.355,0.497
				c-0.72,0-1.283-0.224-1.694-0.668c-0.412-0.445-0.617-0.984-0.617-1.618c0-0.805,0.446-1.625,1.34-2.461L266.255,92.882z
				 M271.602,97.77c-1.086,0.974-1.629,1.709-1.629,2.208c0,0.225,0.094,0.423,0.28,0.598c0.188,0.175,0.434,0.262,0.737,0.262
				c0.381,0,0.749-0.138,1.104-0.413c0.354-0.275,0.532-0.644,0.532-1.102C272.628,98.896,272.285,98.379,271.602,97.77z"/>
			<path d="M297.181,105.931l-2.521-6.453c-0.439,0.177-0.881,0.266-1.321,0.266c-1.006,0-1.805-0.349-2.396-1.043
				c-0.591-0.695-0.887-1.657-0.887-2.888c0-0.849,0.094-1.789,0.28-2.819l1.406,0.422c-0.25,0.879-0.438,1.654-0.563,2.329
				c-0.125,0.674-0.188,1.244-0.188,1.712c0,0.474,0.128,0.827,0.383,1.061c0.255,0.234,0.64,0.352,1.151,0.352
				c0.502,0,1.035-0.245,1.6-0.734c-0.109-0.345-0.165-0.67-0.165-0.975c0-0.402,0.089-0.729,0.269-0.979
				c0.179-0.25,0.42-0.375,0.725-0.375c0.314,0,0.572,0.151,0.771,0.452c0.198,0.302,0.299,0.66,0.299,1.076
				c0,0.379-0.087,0.727-0.262,1.041c-0.175,0.313-0.434,0.594-0.775,0.838l3.006,6.357L297.181,105.931z"/>
			<path d="M319.689,105.619l-2.185-3.563c-0.791-0.067-1.44-0.329-1.948-0.784c-0.509-0.455-0.763-1.021-0.763-1.699
				c0-0.755,0.338-1.396,1.017-1.924c-0.842-0.016-1.472-0.195-1.89-0.543c-0.418-0.346-0.627-0.854-0.627-1.526
				c0-0.729,0.277-1.327,0.832-1.793c0.556-0.467,1.356-0.699,2.405-0.699h1.263l0.345,1.125h-1.891
				c-0.928,0-1.559,0.077-1.892,0.229c-0.334,0.154-0.5,0.409-0.5,0.766c0,0.294,0.128,0.554,0.385,0.777
				c0.257,0.225,0.601,0.371,1.031,0.438c0.43,0.067,1.064,0.101,1.906,0.101h0.553l0.313,1.125h-0.626
				c-0.563,0-1.046,0.167-1.452,0.501c-0.405,0.334-0.608,0.719-0.608,1.149c0,0.381,0.159,0.711,0.478,0.991
				c0.319,0.279,0.798,0.42,1.437,0.42h0.181c0.324-0.646,0.749-0.969,1.275-0.969c0.282,0,0.506,0.089,0.668,0.266
				s0.244,0.401,0.244,0.672c0,0.344-0.142,0.654-0.423,0.93c-0.28,0.276-0.689,0.426-1.226,0.445l2.147,3.563h-0.449V105.619z"/>
			<path d="M335.651,94.431c0.089,1.33,0.251,2.469,0.488,3.416c0.235,0.947,0.545,1.703,0.925,2.267
				c0.765,1.129,1.688,1.692,2.77,1.692c0.749,0,1.376-0.236,1.881-0.709c0.506-0.473,0.758-1.07,0.758-1.792v-0.312
				c-0.375,0.313-0.766,0.469-1.171,0.469c-0.601,0-1.181-0.286-1.739-0.859c-0.561-0.573-0.84-1.167-0.84-1.784
				c0-0.518,0.151-0.94,0.456-1.27c0.304-0.329,0.684-0.493,1.141-0.493c0.534,0,1.033,0.206,1.497,0.617
				c0.464,0.412,0.813,0.948,1.051,1.607c0.238,0.66,0.355,1.269,0.355,1.821c0,0.658-0.134,1.309-0.399,1.95
				s-0.658,1.152-1.176,1.53s-1.104,0.566-1.764,0.566c-0.788,0-1.535-0.355-2.24-1.067s-1.271-1.769-1.7-3.166
				c-0.429-1.398-0.661-2.895-0.697-4.484H335.651z M339.534,97.583c0,0.269,0.086,0.498,0.258,0.688
				c0.172,0.19,0.393,0.285,0.66,0.285c0.396,0,0.785-0.169,1.167-0.509c0.381-0.339,0.571-0.687,0.571-1.041
				c0-0.243-0.097-0.462-0.289-0.658s-0.428-0.293-0.706-0.293c-0.371,0-0.74,0.162-1.108,0.486
				C339.72,96.865,339.534,97.214,339.534,97.583z"/>
			<path d="M365.009,92.837l0.822,0.791l-5.751,5.662c-0.248,0.245-0.434,0.484-0.558,0.719s-0.187,0.466-0.187,0.695
				c0,0.474,0.241,0.906,0.725,1.297c0.482,0.39,1.018,0.586,1.606,0.586c0.471,0,0.969-0.185,1.498-0.551
				c0.529-0.367,1.145-0.871,1.843-1.513l0.892,0.892c-0.522,0.547-1.078,0.957-1.668,1.229c-0.59,0.273-1.216,0.41-1.879,0.41
				c-1.144,0-2.136-0.333-2.976-1.001c-0.84-0.667-1.26-1.296-1.26-1.886c0-0.184,0.056-0.374,0.168-0.575s0.281-0.413,0.506-0.638
				L365.009,92.837z"/>
			<path d="M389.722,104.994l-1.109-0.767c0.729-0.56,1.094-0.938,1.094-1.133s-0.519-0.819-1.555-1.872
				c-2.167-2.059-3.47-3.394-3.91-4.003s-0.66-1.188-0.66-1.735c0-0.542,0.251-1.065,0.752-1.572
				c0.502-0.508,1.097-0.762,1.782-0.762c0.759,0,1.396,0.254,1.911,0.762c0.515,0.507,0.772,1.079,0.772,1.715
				c0,0.651-0.267,1.234-0.801,1.75s-1.145,0.772-1.83,0.772c-0.258,0-0.479-0.021-0.666-0.063c0.29,0.336,0.932,0.94,1.925,1.814
				c1.188,1.053,2.059,1.857,2.608,2.417c0.55,0.561,0.826,0.985,0.826,1.275C390.861,103.999,390.481,104.465,389.722,104.994z
				 M384.394,96.332c0,0.203,0.081,0.39,0.242,0.562c0.16,0.172,0.382,0.257,0.66,0.257c0.568,0,1.145-0.257,1.726-0.771
				s0.872-1.021,0.872-1.521c0-0.556-0.253-0.834-0.758-0.834c-0.513,0-1.098,0.285-1.756,0.854
				C384.723,95.449,384.394,95.932,384.394,96.332z"/>
		</g>
		<g>
			<path d="M204.19,130.48l0.055-0.688c0.21,0.083,0.48,0.125,0.813,0.125c0.31,0,0.56-0.114,0.752-0.344
				c0.19-0.229,0.288-0.534,0.288-0.914c0-0.416-0.13-0.743-0.389-0.98s-0.568-0.355-0.929-0.355h-0.776l-0.086,0.939
				c-0.078,0.859-0.348,1.484-0.808,1.877c-0.46,0.394-1.106,0.589-1.938,0.589c-0.843,0-1.519-0.2-2.028-0.6
				c-0.511-0.399-0.765-0.91-0.765-1.53c0-0.573,0.177-1.033,0.527-1.38s0.803-0.521,1.354-0.521h0.244l0.25-2.844h6.281
				l-0.055,0.625h-2.719l-0.203,2.219h1.069c0.803,0,1.409,0.18,1.82,0.537s0.617,0.815,0.617,1.373
				c0,0.584-0.201,1.083-0.604,1.499c-0.401,0.416-0.921,0.623-1.558,0.623C204.835,130.73,204.432,130.646,204.19,130.48z
				 M202.628,127.325h-2.388c-0.384,0-0.681,0.114-0.891,0.343c-0.21,0.228-0.315,0.521-0.315,0.879c0,0.915,0.606,1.372,1.82,1.372
				c0.503,0,0.893-0.118,1.17-0.354c0.276-0.235,0.438-0.594,0.485-1.071L202.628,127.325z M202.887,124.48h-1.576l-0.195,2.22
				h1.584L202.887,124.48z"/>
			<path d="M233.508,129.918v0.625h-13.524c-0.463,0-0.81-0.096-1.038-0.286c-0.229-0.19-0.343-0.478-0.343-0.858
				c0-0.35,0.127-0.613,0.383-0.792c0.255-0.178,0.641-0.267,1.156-0.267l0.983,0.016c0.896,0,1.569-0.161,2.021-0.482
				c0.45-0.322,0.676-0.809,0.676-1.458c0-0.586-0.197-1.086-0.59-1.5c-0.394-0.414-0.886-0.621-1.478-0.621
				c-0.684,0-1.218,0.14-1.604,0.42s-0.579,0.672-0.579,1.175c0,0.272,0.085,0.494,0.256,0.665c0.17,0.17,0.429,0.292,0.775,0.365
				l-0.172,0.656c-0.463-0.011-0.856-0.173-1.184-0.484c-0.327-0.313-0.489-0.716-0.489-1.211c0-0.708,0.291-1.254,0.874-1.637
				c0.583-0.384,1.382-0.574,2.396-0.574c0.999,0,1.808,0.26,2.427,0.78c0.619,0.52,0.929,1.156,0.929,1.91
				c0,0.874-0.354,1.529-1.065,1.967c-0.711,0.437-1.777,0.654-3.199,0.654c-0.318,0-0.556,0.036-0.715,0.108
				s-0.238,0.178-0.238,0.315c0,0.172,0.055,0.3,0.164,0.386c0.109,0.085,0.272,0.128,0.491,0.128H233.508z"/>
			<path d="M245.837,130.543l0.056-0.625h2.699c0.359-0.226,0.631-0.476,0.813-0.749c0.182-0.274,0.273-0.572,0.273-0.896
				c0-0.343-0.102-0.612-0.303-0.81s-0.464-0.296-0.789-0.296c-0.706,0-1.088,0.335-1.146,1.004l-0.079,1.027h-1.411l0.398-4.72
				h-1.583l-0.531,6.063h-0.627l0.586-6.688h6.211l-0.07,0.625h-2.572l-0.195,2.492c0.413-0.411,0.973-0.617,1.68-0.617
				c0.607,0,1.091,0.159,1.452,0.477c0.361,0.316,0.542,0.709,0.542,1.177c0,0.447-0.123,0.829-0.367,1.146
				c-0.245,0.317-0.611,0.571-1.102,0.765h4.367l-0.056,0.625H245.837z"/>
			<path d="M275.874,127.325h-4.43l-0.125,1.169c-0.073,0.695-0.355,1.242-0.849,1.64s-1.134,0.597-1.922,0.597
				c-0.823,0-1.484-0.189-1.982-0.571c-0.498-0.383-0.747-0.896-0.747-1.542c0-0.573,0.186-1.036,0.557-1.389
				c0.371-0.352,0.873-0.528,1.506-0.528l0.281-2.845h5.438l-0.07,0.625h-1.828l-0.211,2.22h3.039l0.258-2.845h1.375
				L275.874,127.325z M270.069,127.325h-2.246c-0.449,0-0.786,0.105-1.011,0.318c-0.226,0.213-0.337,0.53-0.337,0.95
				c0,0.442,0.15,0.773,0.453,0.994c0.302,0.221,0.755,0.331,1.357,0.331c0.518,0,0.915-0.118,1.196-0.354
				c0.281-0.235,0.441-0.594,0.483-1.071L270.069,127.325z M270.313,124.48h-1.582l-0.22,2.22h1.613L270.313,124.48z"/>
			<path d="M301.09,123.543l-0.547,0.313c-0.582-0.831-1.264-1.393-2.043-1.686c-0.778-0.292-1.791-0.439-3.033-0.439
				c-2.245,0-4.011,0.542-5.295,1.625c-1.283,1.083-1.926,2.517-1.926,4.297c0,1.708,0.494,3.061,1.482,4.056
				c0.987,0.995,2.266,1.492,3.833,1.492c1.328,0,2.42-0.396,3.274-1.188c0.856-0.792,1.284-1.813,1.284-3.063
				c0-0.558-0.112-0.999-0.338-1.324s-0.486-0.488-0.782-0.488c-0.32,0-0.57,0.105-0.75,0.316c-0.179,0.211-0.284,0.526-0.314,0.948
				l-0.178,2.142h-1.363l0.522-6.063h-1.614l-0.5,6.063h-0.628l0.586-6.688h6.109l-0.055,0.625h-2.534l-0.209,2.603
				c0.363-0.505,0.874-0.758,1.533-0.758c0.581,0,1.071,0.262,1.475,0.784c0.401,0.523,0.604,1.104,0.604,1.741
				c0,1.543-0.509,2.769-1.523,3.676c-1.016,0.907-2.489,1.361-4.422,1.361c-1.859,0-3.349-0.561-4.469-1.681
				c-1.12-1.121-1.681-2.733-1.681-4.839c0-1.896,0.776-3.561,2.328-4.991c1.554-1.432,3.484-2.146,5.796-2.146
				c1.347,0,2.469,0.277,3.365,0.83C299.978,121.614,300.646,122.441,301.09,123.543z"/>
			<path d="M323.187,126.7l-0.07,0.625h-1.742l-0.297,3.219h-1.375l0.281-3.219h-0.722c-0.266,0-0.472,0.091-0.618,0.271
				c-0.148,0.181-0.238,0.45-0.271,0.807l-0.203,2.142h-1.375l0.188-2.172c0.01-0.121,0.016-0.229,0.016-0.323
				c0-0.23-0.036-0.409-0.107-0.535c-0.072-0.126-0.239-0.188-0.502-0.188h-0.741l-0.142,1.2c-0.084,0.706-0.369,1.25-0.857,1.633
				c-0.489,0.382-1.124,0.572-1.903,0.572c-0.827,0-1.487-0.189-1.98-0.571c-0.494-0.383-0.741-0.896-0.741-1.542
				c0-0.583,0.183-1.05,0.548-1.396c0.366-0.347,0.871-0.521,1.515-0.521l0.281-2.845h6.125l-0.07,0.625h-2.53l-0.211,2.22h1.014
				c0.294,0,0.528,0.064,0.704,0.194c0.175,0.13,0.291,0.323,0.348,0.578c0.132-0.255,0.331-0.448,0.601-0.578
				c0.269-0.13,0.603-0.194,1.002-0.194H323.187z M314.271,127.325h-2.256c-0.446,0-0.781,0.107-1.004,0.322
				c-0.224,0.216-0.334,0.536-0.334,0.962c0,0.415,0.16,0.737,0.484,0.967c0.324,0.229,0.764,0.343,1.318,0.343
				c0.519,0,0.919-0.118,1.202-0.354c0.281-0.235,0.443-0.594,0.485-1.071L314.271,127.325z M314.515,124.48h-1.583l-0.22,2.22
				h1.614L314.515,124.48z"/>
			<path d="M344.938,123.855l-0.056,0.625h-2.118l-0.548,6.063h-1.411l0.547-6.063h-3.164c-0.966,0-1.754,0.286-2.365,0.857
				c-0.61,0.571-0.916,1.354-0.916,2.351c0,0.535,0.117,0.962,0.354,1.282c0.234,0.32,0.529,0.479,0.886,0.479
				c0.366,0,0.657-0.112,0.874-0.338c0.217-0.225,0.325-0.512,0.325-0.86c0-0.296-0.081-0.578-0.242-0.845
				c-0.161-0.268-0.372-0.44-0.633-0.521l0.233-0.5c0.627,0.047,1.131,0.265,1.51,0.653c0.38,0.388,0.568,0.874,0.568,1.456
				c0,0.619-0.204,1.146-0.611,1.582c-0.407,0.436-0.928,0.652-1.56,0.652c-0.748,0-1.333-0.265-1.757-0.796
				c-0.423-0.531-0.635-1.23-0.635-2.1c0-1.151,0.363-2.103,1.093-2.854c0.728-0.751,1.702-1.126,2.924-1.126H344.938z"/>
			<path d="M368.756,123.855l-0.969,11.031h-1.364l0.492-5.688h-1.226c-0.587,1.239-1.381,2.169-2.381,2.788
				c-1,0.62-2.206,0.931-3.619,0.931c-1.527,0-2.817-0.382-3.869-1.146s-1.577-1.635-1.577-2.611c0-0.192,0.057-0.339,0.171-0.438
				s0.285-0.147,0.515-0.147h9.301c0.135-0.341,0.202-0.792,0.202-1.356c0-0.873-0.266-1.573-0.792-2.102
				c-0.528-0.528-1.252-0.792-2.174-0.792c-0.645,0-1.166,0.137-1.563,0.409c-0.398,0.273-0.597,0.655-0.597,1.146
				c0,0.261,0.098,0.488,0.295,0.684c0.195,0.195,0.452,0.314,0.768,0.355l-0.172,0.656c-0.493-0.021-0.89-0.183-1.19-0.484
				s-0.449-0.711-0.449-1.228c0-0.697,0.282-1.237,0.851-1.62c0.566-0.384,1.389-0.574,2.466-0.574c1.202,0,2.189,0.378,2.962,1.133
				c0.773,0.755,1.159,1.666,1.159,2.731c0,0.443-0.045,0.792-0.133,1.042h1.102l0.398-4.72H368.756z M364.003,129.2h-8.551
				c-0.177,0-0.308,0.022-0.394,0.068s-0.128,0.116-0.128,0.208c0,0.549,0.408,1.141,1.229,1.773c0.819,0.633,1.914,0.95,3.284,0.95
				c1.011,0,1.925-0.268,2.742-0.801S363.608,130.133,364.003,129.2z"/>
			<path d="M390.562,130.738v-0.5c0.322-0.123,0.564-0.311,0.727-0.56c0.161-0.249,0.242-0.557,0.242-0.925
				c0-0.436-0.144-0.787-0.431-1.058c-0.287-0.27-0.657-0.403-1.112-0.403c-0.259,0-0.447,0.034-0.566,0.101
				c0.448,0.446,0.672,0.988,0.672,1.625c-0.005,0.441-0.137,0.836-0.396,1.187c-0.259,0.35-0.592,0.524-0.999,0.524
				c-0.366,0-0.652-0.147-0.858-0.443c-0.206-0.297-0.31-0.663-0.31-1.099c0-0.649,0.22-1.207,0.659-1.668
				c-0.192-0.13-0.449-0.194-0.771-0.194h-1.013l-0.125,1.169c-0.073,0.695-0.357,1.242-0.853,1.64
				c-0.496,0.397-1.141,0.597-1.933,0.597c-0.829,0-1.494-0.189-1.995-0.571c-0.501-0.383-0.752-0.896-0.752-1.542
				c0-0.573,0.188-1.036,0.565-1.389c0.376-0.353,0.886-0.528,1.527-0.528l0.281-2.845h6.125l-0.069,0.625h-2.517l-0.211,2.22h1.021
				c0.509,0,0.961,0.08,1.354,0.241c0.431-0.307,0.956-0.461,1.574-0.461c0.67,0,1.208,0.185,1.613,0.551
				c0.404,0.367,0.606,0.866,0.606,1.495c0,0.619-0.184,1.128-0.551,1.527C391.705,130.453,391.201,130.681,390.562,130.738z
				 M385.029,127.325h-2.266c-0.453,0-0.793,0.105-1.021,0.318c-0.227,0.213-0.34,0.53-0.34,0.95c0,0.442,0.152,0.773,0.457,0.994
				s0.762,0.331,1.371,0.331c0.521,0,0.923-0.118,1.207-0.354c0.284-0.235,0.446-0.594,0.488-1.071L385.029,127.325z
				 M385.271,124.48h-1.582l-0.22,2.22h1.613L385.271,124.48z M388.577,127.896c-0.345,0.355-0.517,0.772-0.517,1.251
				c0,0.257,0.039,0.45,0.118,0.579c0.078,0.129,0.196,0.193,0.354,0.193c0.142,0,0.25-0.076,0.323-0.229
				c0.073-0.151,0.109-0.38,0.109-0.684C388.967,128.581,388.837,128.21,388.577,127.896z"/>
		</g>
		<line fill="none" stroke="#000000" stroke-width="0.5" x1="170.079" y1="0" x2="170.079" y2="141.731"/>
		<line fill="none" stroke="#000000" stroke-width="0.5" x1="192.756" y1="0" x2="192.756" y2="141.731"/>
		<line fill="none" stroke="#000000" stroke-width="0.5" x1="215.434" y1="0" x2="215.434" y2="141.731"/>
		<line fill="none" stroke="#000000" stroke-width="0.5" x1="238.11" y1="0" x2="238.11" y2="141.731"/>
		<line fill="none" stroke="#000000" stroke-width="0.5" x1="260.787" y1="0" x2="260.787" y2="141.731"/>
		<line fill="none" stroke="#000000" stroke-width="0.5" x1="283.464" y1="0" x2="283.464" y2="141.731"/>
		<line fill="none" stroke="#000000" stroke-width="0.5" x1="306.143" y1="0" x2="306.143" y2="141.731"/>
		<line fill="none" stroke="#000000" stroke-width="0.5" x1="328.818" y1="0" x2="328.818" y2="141.731"/>
		<line fill="none" stroke="#000000" stroke-width="0.5" x1="351.495" y1="0" x2="351.495" y2="141.731"/>
		<line fill="none" stroke="#000000" stroke-width="0.5" x1="374.173" y1="0" x2="374.173" y2="141.731"/>
		<line fill="none" stroke="#000000" stroke-width="0.5" x1="0" y1="28.347" x2="396.852" y2="28.347"/>
		<line fill="none" stroke="#000000" stroke-width="0.5" x1="0" y1="56.692" x2="396.852" y2="56.692"/>
		<line fill="none" stroke="#000000" stroke-width="0.5" x1="0" y1="85.04" x2="396.852" y2="85.04"/>
		<line fill="none" stroke="#000000" stroke-width="0.5" x1="0" y1="113.386" x2="396.852" y2="113.386"/>
	</g>
</svg>
