<svg version="1.1" xmlns="http://www.w3.org/2000/svg" xmlns:xlink="http://www.w3.org/1999/xlink" width="892" height="604"><defs><clipPath id="DoWnXTFhTRQe"><path fill="none" stroke="none" d=" M 0 0 L 892 0 L 892 604 L 0 604 L 0 0 Z"/></clipPath></defs><g transform="scale(1,1)" clip-path="url(#DoWnXTFhTRQe)"><g><rect fill="rgb(255,255,255)" stroke="none" x="0" y="0" width="892" height="604" fill-opacity="1"/><path fill="none" stroke="rgb(0,153,255)" paint-order="fill stroke markers" d=" M 469.18787455088545 299.5192809301827 C 480.59816840686096 298.5150297229103 487.8451310133476 287.86914267778144 485.37441857356015 275.74102669134356 C 482.9037061337727 263.6129107049057 471.6509271855727 254.59523657217187 460.24063332959724 255.59948777944427 C 448.83033947362173 256.6037389867166 441.5833768671351 267.2496260318455 444.05408930692255 279.37774201828336 C 446.52480174671 291.50585800472123 457.77758069491 300.52353213745505 469.18787455088545 299.5192809301827 Z" stroke-opacity="0.6980392156862745" stroke-linecap="round" stroke-linejoin="round" stroke-miterlimit="10" stroke-width="4"/><path fill="none" stroke="rgb(0,153,255)" paint-order="fill stroke markers" d=" M 500.84974528371237 374.56313882721395 C 557.9300192559905 364.3030113817873 581.728194981408 301.9672778947913 554.0044585002565 235.33238118954762 C 526.280722019105 168.6974844843039 457.53348833731 122.99670435209282 400.4532143650319 133.25683179751945 C 343.3729403927538 143.51695924294611 319.57476466733624 205.85269272994208 347.29850114848773 272.4875894351858 C 375.0222376296392 339.1224861404295 443.76947131143424 384.8232662726406 500.84974528371237 374.56313882721395 Z" stroke-opacity="0.6980392156862745" stroke-linecap="round" stroke-linejoin="round" stroke-miterlimit="10" stroke-width="4"/><path fill="none" stroke="rgb(0,153,255)" paint-order="fill stroke markers" d=" M 483.2261248310687 347.39723364663934 C 517.351474188228 342.08420684580494 531.375788186507 299.9278255138888 514.5503068708332 253.238320551801 C 497.7248255551593 206.54881558971317 456.42101640959584 173.0065526958674 422.2956670524365 178.3195794967018 C 388.17031769527716 183.6326062975362 374.14600369699826 225.7889876294523 390.9714850126721 272.47849259154015 C 407.7969663283459 319.16799755362797 449.1007754739094 352.71026044747373 483.2261248310687 347.39723364663934 Z" stroke-opacity="0.6980392156862745" stroke-linecap="round" stroke-linejoin="round" stroke-miterlimit="10" stroke-width="4"/><path fill="none" stroke="rgb(0,153,255)" paint-order="fill stroke markers" d=" M 492.00904025832017 421.1185089839842 C 588.6895979908338 410.67549730403493 647.9186531708333 325.6309528001515 624.3008376845075 231.1662023074923 C 600.6830221981817 136.70145181483312 503.16192229976406 68.58837459568241 406.48136456725035 79.03138627563169 C 309.8008068347367 89.47439795558097 250.5717516547372 174.5189424594644 274.18956714106304 268.9836929521236 C 297.80738262738885 363.44844344478275 395.32848252580646 431.5615206639335 492.00904025832017 421.1185089839842 Z" stroke-opacity="0.6980392156862745" stroke-linecap="round" stroke-linejoin="round" stroke-miterlimit="10" stroke-width="4"/><path fill="none" stroke="rgb(0,153,255)" paint-order="fill stroke markers" d=" M 468.2094702490436 318.3454595533297 C 491.1810024134788 316.6658207494273 506.0346055288787 293.03731194447533 501.3859213745888 265.5697080103077 C 496.7372372202989 238.10210407614008 474.34662791476535 217.1968278337872 451.3750957503301 218.8764666376896 C 428.4035635858949 220.55610544159197 413.54996047049497 244.18461424654396 418.1986446247849 271.6522181807116 C 422.8473287790748 299.1198221148792 445.23793808460834 320.0250983572321 468.2094702490436 318.3454595533297 Z" stroke-opacity="0.6980392156862745" stroke-linecap="round" stroke-linejoin="round" stroke-miterlimit="10" stroke-width="4"/><path fill="none" stroke="rgb(0,0,0)" paint-order="fill stroke markers" d=" M 25.771699009238915 491.04206003770344 L 841.8643536857053 491.04206003770344" stroke-opacity="0.6980392156862745" stroke-linecap="round" stroke-linejoin="round" stroke-miterlimit="10" stroke-width="4"/><path fill="rgb(0,0,0)" stroke="none" paint-order="stroke fill markers" fill-rule="evenodd" d=" M 865.8643536857053 491.04206003770344 L 841.8643536857053 497.04206003770344 L 841.8643536857053 485.04206003770344 Z" fill-opacity="0.6980392156862745"/><path fill="none" stroke="rgb(0,0,0)" paint-order="fill stroke markers" d=" M 145.78493539159126 569.9257984064533 L 145.78493539159126 41.73962982520419" stroke-opacity="0.6980392156862745" stroke-linecap="round" stroke-linejoin="round" stroke-miterlimit="10" stroke-width="4"/><path fill="rgb(0,0,0)" stroke="none" paint-order="stroke fill markers" fill-rule="evenodd" d=" M 145.78493539159126 17.73962982520419 L 151.78493539159126 41.73962982520419 L 139.78493539159126 41.73962982520419 Z" fill-opacity="0.6980392156862745"/><path fill="none" stroke="rgb(0,0,0)" paint-order="fill stroke markers" d=" M 282.38481450271547 165.05811477949067 L 344.07137881856596 188.06038492338376" stroke-opacity="0.6980392156862745" stroke-linecap="round" stroke-linejoin="round" stroke-miterlimit="10" stroke-width="2.5"/><path fill="rgb(0,0,0)" stroke="none" paint-order="stroke fill markers" fill-rule="evenodd" d=" M 360.0000000000001 194.00000000000006 L 342.5864750494119 192.0425402187423 L 345.55628258772003 184.07822962802524 Z" fill-opacity="0.6980392156862745"/><path fill="none" stroke="rgb(0,0,0)" paint-order="fill stroke markers" d=" M 360.0000000000001 194.00000000000006 L 402.7947377530016 215.397368876501" stroke-opacity="0.6980392156862745" stroke-linecap="round" stroke-linejoin="round" stroke-miterlimit="10" stroke-width="2.5"/><path fill="rgb(0,0,0)" stroke="none" paint-order="stroke fill markers" fill-rule="evenodd" d=" M 418.0000000000001 223.00000000000034 L 400.89407997212675 219.19868443825064 L 404.6953955338764 211.59605331475134 Z" fill-opacity="0.6980392156862745"/><path fill="none" stroke="rgb(0,0,0)" paint-order="fill stroke markers" d=" M 418.0000000000001 223.00000000000034 L 441.9791847198286 246.9791847198287" stroke-opacity="0.6980392156862745" stroke-linecap="round" stroke-linejoin="round" stroke-miterlimit="10" stroke-width="2.5"/><path fill="rgb(0,0,0)" stroke="none" paint-order="stroke fill markers" fill-rule="evenodd" d=" M 453.99999999999994 259 L 438.9739808997858 249.98438853987153 L 444.9843885398714 243.9739808997859 Z" fill-opacity="0.6980392156862745"/><path fill="none" stroke="rgb(0,0,0)" paint-order="fill stroke markers" d=" M 453.99999999999994 259 L 459.71344773070234 267.7606198537436" stroke-opacity="0.6980392156862745" stroke-linecap="round" stroke-linejoin="round" stroke-miterlimit="10" stroke-width="2.5"/><path fill="rgb(0,0,0)" stroke="none" paint-order="stroke fill markers" fill-rule="evenodd" d=" M 469.00000000000006 282 L 456.1536026941382 270.08225792106805 L 463.27329276726647 265.43898178641916 Z" fill-opacity="0.6980392156862745"/><path fill="rgb(244,0,153)" stroke="none" paint-order="stroke fill markers" d=" M 288.38481450271547 165.05811477949067 C 288.38481450271547 168.37182327847543 285.6985230017002 171.05811477949067 282.38481450271547 171.05811477949067 C 279.07110600373073 171.05811477949067 276.38481450271547 168.37182327847543 276.38481450271547 165.05811477949067 C 276.38481450271547 161.7444062805059 279.07110600373073 159.05811477949067 282.38481450271547 159.05811477949067 C 285.6985230017002 159.05811477949067 288.38481450271547 161.7444062805059 288.38481450271547 165.05811477949067 Z" fill-opacity="1"/><g transform="scale(35,35)"><g transform="translate(22.142857142857142,15.186857142857143)"><path fill="rgb(0,153,255)" stroke="none" paint-order="stroke fill markers" d=" M 0.556 -0.355 L 0.542 -0.299 Q 0.534 -0.267 0.517 -0.198 Q 0.501 -0.131 0.501 -0.107 Q 0.501 -0.028 0.5740000000000001 -0.028 Q 0.634 -0.028 0.677 -0.10400000000000001 Q 0.6980000000000001 -0.14100000000000001 0.7155 -0.1975 Q 0.733 -0.254 0.733 -0.269 Q 0.733 -0.303 0.683 -0.332 Q 0.653 -0.34900000000000003 0.653 -0.377 Q 0.653 -0.404 0.677 -0.4285 Q 0.7010000000000001 -0.453 0.729 -0.453 Q 0.734 -0.453 0.741 -0.451 Q 0.748 -0.449 0.7625000000000001 -0.442 Q 0.777 -0.435 0.787 -0.41400000000000003 Q 0.797 -0.393 0.797 -0.362 Q 0.797 -0.32 0.776 -0.241 Q 0.755 -0.162 0.726 -0.109 Q 0.665 0.008 0.5670000000000001 0.008 Q 0.461 0.008 0.417 -0.048 Q 0.371 0.008 0.305 0.008 Q 0.256 0.008 0.2185 -0.002 Q 0.181 -0.012 0.152 -0.044 Q 0.123 -0.076 0.123 -0.128 Q 0.123 -0.182 0.177 -0.316 Q 0.199 -0.373 0.199 -0.395 Q 0.199 -0.41600000000000004 0.182 -0.41600000000000004 Q 0.17300000000000001 -0.41600000000000004 0.163 -0.41200000000000003 Q 0.153 -0.40800000000000003 0.1375 -0.3975 Q 0.122 -0.387 0.1065 -0.3605 Q 0.091 -0.334 0.079 -0.295 Q 0.075 -0.28200000000000003 0.056 -0.28200000000000003 Q 0.032 -0.28200000000000003 0.032 -0.296 Q 0.032 -0.306 0.042 -0.3295 Q 0.052000000000000005 -0.353 0.07 -0.3815 Q 0.088 -0.41000000000000003 0.11950000000000001 -0.431 Q 0.151 -0.452 0.188 -0.452 Q 0.233 -0.452 0.267 -0.4275 Q 0.301 -0.403 0.301 -0.362 Q 0.301 -0.34600000000000003 0.28300000000000003 -0.301 Q 0.231 -0.168 0.231 -0.11 Q 0.231 -0.028 0.312 -0.028 Q 0.34900000000000003 -0.028 0.373 -0.0555 Q 0.397 -0.083 0.397 -0.094 L 0.396 -0.10200000000000001 Q 0.394 -0.11 0.394 -0.126 Q 0.394 -0.152 0.402 -0.187 Q 0.43 -0.304 0.453 -0.391 Q 0.462 -0.421 0.4815 -0.4325 Q 0.501 -0.444 0.519 -0.444 Q 0.541 -0.444 0.5535 -0.431 Q 0.5660000000000001 -0.418 0.5660000000000001 -0.4 Q 0.5660000000000001 -0.392 0.556 -0.355 Z"/></g><g transform="translate(22.973857142857142,15.336857142857143) scale(0.7,0.7)"><path fill="rgb(0,153,255)" stroke="none" paint-order="stroke fill markers" d=" M 0.354 -0.623 L 0.354 -0.047 L 0.494 -0.047 L 0.494 0 Q 0.45 -0.003 0.295 -0.003 Q 0.14 -0.003 0.096 0 L 0.096 -0.047 L 0.23500000000000001 -0.047 L 0.23500000000000001 -0.5640000000000001 Q 0.17300000000000001 -0.544 0.105 -0.544 L 0.085 -0.544 L 0.085 -0.591 L 0.105 -0.591 Q 0.229 -0.591 0.306 -0.648 Q 0.315 -0.655 0.328 -0.655 Q 0.34600000000000003 -0.655 0.35000000000000003 -0.6485 Q 0.354 -0.642 0.354 -0.623 Z"/></g></g><g transform="scale(35,35)"><g transform="translate(2.657142857142857,2.501142857142857)"><path fill="rgb(0,153,255)" stroke="none" paint-order="stroke fill markers" d=" M 0.556 -0.355 L 0.542 -0.299 Q 0.534 -0.267 0.517 -0.198 Q 0.501 -0.131 0.501 -0.107 Q 0.501 -0.028 0.5740000000000001 -0.028 Q 0.634 -0.028 0.677 -0.10400000000000001 Q 0.6980000000000001 -0.14100000000000001 0.7155 -0.1975 Q 0.733 -0.254 0.733 -0.269 Q 0.733 -0.303 0.683 -0.332 Q 0.653 -0.34900000000000003 0.653 -0.377 Q 0.653 -0.404 0.677 -0.4285 Q 0.7010000000000001 -0.453 0.729 -0.453 Q 0.734 -0.453 0.741 -0.451 Q 0.748 -0.449 0.7625000000000001 -0.442 Q 0.777 -0.435 0.787 -0.41400000000000003 Q 0.797 -0.393 0.797 -0.362 Q 0.797 -0.32 0.776 -0.241 Q 0.755 -0.162 0.726 -0.109 Q 0.665 0.008 0.5670000000000001 0.008 Q 0.461 0.008 0.417 -0.048 Q 0.371 0.008 0.305 0.008 Q 0.256 0.008 0.2185 -0.002 Q 0.181 -0.012 0.152 -0.044 Q 0.123 -0.076 0.123 -0.128 Q 0.123 -0.182 0.177 -0.316 Q 0.199 -0.373 0.199 -0.395 Q 0.199 -0.41600000000000004 0.182 -0.41600000000000004 Q 0.17300000000000001 -0.41600000000000004 0.163 -0.41200000000000003 Q 0.153 -0.40800000000000003 0.1375 -0.3975 Q 0.122 -0.387 0.1065 -0.3605 Q 0.091 -0.334 0.079 -0.295 Q 0.075 -0.28200000000000003 0.056 -0.28200000000000003 Q 0.032 -0.28200000000000003 0.032 -0.296 Q 0.032 -0.306 0.042 -0.3295 Q 0.052000000000000005 -0.353 0.07 -0.3815 Q 0.088 -0.41000000000000003 0.11950000000000001 -0.431 Q 0.151 -0.452 0.188 -0.452 Q 0.233 -0.452 0.267 -0.4275 Q 0.301 -0.403 0.301 -0.362 Q 0.301 -0.34600000000000003 0.28300000000000003 -0.301 Q 0.231 -0.168 0.231 -0.11 Q 0.231 -0.028 0.312 -0.028 Q 0.34900000000000003 -0.028 0.373 -0.0555 Q 0.397 -0.083 0.397 -0.094 L 0.396 -0.10200000000000001 Q 0.394 -0.11 0.394 -0.126 Q 0.394 -0.152 0.402 -0.187 Q 0.43 -0.304 0.453 -0.391 Q 0.462 -0.421 0.4815 -0.4325 Q 0.501 -0.444 0.519 -0.444 Q 0.541 -0.444 0.5535 -0.431 Q 0.5660000000000001 -0.418 0.5660000000000001 -0.4 Q 0.5660000000000001 -0.392 0.556 -0.355 Z"/></g><g transform="translate(3.488142857142857,2.651142857142857) scale(0.7,0.7)"><path fill="rgb(0,153,255)" stroke="none" paint-order="stroke fill markers" d=" M 0.517 -0.222 L 0.486 0 L 0.057 0 L 0.057 -0.018000000000000002 Q 0.057 -0.034 0.059000000000000004 -0.0385 Q 0.061 -0.043000000000000003 0.07 -0.052000000000000005 L 0.271 -0.257 Q 0.379 -0.367 0.379 -0.465 Q 0.379 -0.525 0.34400000000000003 -0.5665 Q 0.309 -0.608 0.247 -0.608 Q 0.186 -0.608 0.14400000000000002 -0.5730000000000001 Q 0.155 -0.5700000000000001 0.166 -0.5645 Q 0.177 -0.559 0.189 -0.542 Q 0.201 -0.525 0.201 -0.501 Q 0.201 -0.466 0.1785 -0.4475 Q 0.156 -0.429 0.129 -0.429 Q 0.10400000000000001 -0.429 0.0805 -0.4465 Q 0.057 -0.464 0.057 -0.503 Q 0.057 -0.5700000000000001 0.11850000000000001 -0.6125 Q 0.18 -0.655 0.272 -0.655 Q 0.379 -0.655 0.448 -0.603 Q 0.517 -0.551 0.517 -0.466 Q 0.517 -0.431 0.507 -0.404 Q 0.497 -0.377 0.46900000000000003 -0.34750000000000003 Q 0.441 -0.318 0.417 -0.299 Q 0.393 -0.28 0.339 -0.24 Q 0.292 -0.20600000000000002 0.195 -0.125 L 0.342 -0.125 Q 0.433 -0.125 0.444 -0.131 Q 0.457 -0.138 0.47000000000000003 -0.222 L 0.517 -0.222 Z"/></g></g><g transform="scale(35,35)"><g transform="translate(19.34285714285714,6.807142857142857)"><path fill="rgb(0,0,0)" stroke="none" paint-order="stroke fill markers" d=" M 0.541 -0.61 L 0.424 -0.14300000000000002 Q 0.403 -0.059000000000000004 0.318 -0.01 Q 0.262 0.022 0.203 0.022 Q 0.122 0.022 0.08700000000000001 -0.032 Q 0.07100000000000001 -0.057 0.07100000000000001 -0.08700000000000001 Q 0.07100000000000001 -0.151 0.122 -0.165 Q 0.131 -0.167 0.138 -0.167 Q 0.169 -0.167 0.179 -0.14200000000000002 L 0.179 -0.14100000000000001 Q 0.182 -0.134 0.182 -0.125 Q 0.182 -0.091 0.152 -0.07100000000000001 Q 0.136 -0.061 0.117 -0.061 Q 0.108 -0.061 0.105 -0.062 Q 0.122 -0.007 0.189 -0.001 Q 0.195 0 0.2 0 Q 0.253 0 0.299 -0.057 Q 0.331 -0.096 0.34400000000000003 -0.15 L 0.459 -0.609 Q 0.463 -0.625 0.463 -0.63 Q 0.463 -0.644 0.447 -0.647 Q 0.442 -0.649 0.432 -0.65 Q 0.40700000000000003 -0.652 0.374 -0.652 Q 0.343 -0.652 0.341 -0.658 Q 0.34 -0.66 0.34 -0.663 Q 0.34 -0.683 0.361 -0.683 L 0.507 -0.68 L 0.508 -0.68 L 0.618 -0.683 L 0.619 -0.683 Q 0.633 -0.683 0.633 -0.671 Q 0.623 -0.653 0.606 -0.652 Q 0.559 -0.652 0.55 -0.637 Q 0.546 -0.63 0.541 -0.61 Z"/></g><g transform="translate(19.99385714285714,6.807142857142857)"><path fill="rgb(0,0,0)" stroke="none" paint-order="stroke fill markers" d=" M 0.331 0.24 L 0.331 0.24 Q 0.331 0.25 0.321 0.25 Q 0.309 0.25 0.268 0.209 Q 0.20600000000000002 0.147 0.165 0.062 Q 0.099 -0.074 0.099 -0.25 Q 0.099 -0.419 0.162 -0.555 Q 0.214 -0.666 0.294 -0.733 Q 0.315 -0.75 0.321 -0.75 Q 0.331 -0.75 0.331 -0.74 Q 0.331 -0.735 0.318 -0.723 Q 0.157 -0.559 0.157 -0.25 Q 0.157 0.058 0.314 0.218 Q 0.331 0.23500000000000001 0.331 0.24 Z"/></g><g transform="translate(20.38285714285714,6.807142857142857)"><path fill="rgb(0,0,0)" stroke="none" paint-order="stroke fill markers" d=" M 0.737 -0.376 L 0.593 -0.023 Q 0.589 -0.012 0.586 -0.0075 Q 0.583 -0.003 0.5760000000000001 0.0005 Q 0.5690000000000001 0.004 0.557 0.004 Q 0.54 0.004 0.5335 -0.002 Q 0.527 -0.008 0.521 -0.023 L 0.41500000000000004 -0.28200000000000003 L 0.309 -0.023 Q 0.305 -0.012 0.302 -0.0075 Q 0.299 -0.003 0.292 0.0005 Q 0.28500000000000003 0.004 0.273 0.004 Q 0.256 0.004 0.2495 -0.002 Q 0.243 -0.008 0.23700000000000002 -0.023 L 0.084 -0.397 L 0.025 -0.397 L 0.025 -0.444 Q 0.127 -0.441 0.134 -0.441 Q 0.196 -0.441 0.257 -0.444 L 0.257 -0.397 L 0.201 -0.397 L 0.306 -0.139 L 0.385 -0.331 Q 0.389 -0.343 0.389 -0.34400000000000003 Q 0.389 -0.34700000000000003 0.368 -0.397 L 0.309 -0.397 L 0.309 -0.444 Q 0.357 -0.441 0.40900000000000003 -0.441 Q 0.427 -0.441 0.523 -0.444 L 0.523 -0.397 L 0.467 -0.397 L 0.581 -0.117 L 0.686 -0.373 L 0.6900000000000001 -0.385 Q 0.6900000000000001 -0.397 0.632 -0.397 L 0.632 -0.444 Q 0.6980000000000001 -0.441 0.728 -0.441 Q 0.77 -0.441 0.805 -0.444 L 0.805 -0.397 Q 0.777 -0.397 0.7625000000000001 -0.394 Q 0.748 -0.391 0.744 -0.3875 Q 0.74 -0.384 0.737 -0.376 Z"/></g><g transform="translate(21.229857142857142,6.807142857142857)"><path fill="rgb(0,0,0)" stroke="none" paint-order="stroke fill markers" d=" M 0.289 -0.25 L 0.289 -0.25 Q 0.289 -0.081 0.226 0.055 Q 0.17400000000000002 0.166 0.094 0.233 Q 0.073 0.25 0.067 0.25 Q 0.057 0.25 0.057 0.24 Q 0.057 0.23500000000000001 0.07 0.223 Q 0.231 0.059000000000000004 0.231 -0.25 Q 0.231 -0.555 0.081 -0.712 L 0.076 -0.717 Q 0.057 -0.735 0.057 -0.74 Q 0.057 -0.75 0.067 -0.75 Q 0.079 -0.75 0.12 -0.709 Q 0.182 -0.647 0.223 -0.562 Q 0.289 -0.426 0.289 -0.25 Z"/></g></g><text fill="rgb(244,0,153)" stroke="none" font-family="geogebra-sans-serif, sans-serif" font-size="22px" font-style="normal" font-weight="normal" text-decoration="normal" x="201" y="172" text-anchor="start" dominant-baseline="alphabetic" fill-opacity="1">start</text></g></g></svg>