<?xml version="1.0" encoding="UTF-8" standalone="no"?>
<!-- Created with Inkscape (http://www.inkscape.org/) -->

<svg
   width="800"
   height="400"
   viewBox="0 0 211.66666 105.83334"
   version="1.1"
   id="svg5"
   inkscape:version="1.1.2 (b8e25be833, 2022-02-05)"
   sodipodi:docname="LearningRateOfGradientDescent.svg"
   xmlns:inkscape="http://www.inkscape.org/namespaces/inkscape"
   xmlns:sodipodi="http://sodipodi.sourceforge.net/DTD/sodipodi-0.dtd"
   xmlns="http://www.w3.org/2000/svg"
   xmlns:svg="http://www.w3.org/2000/svg">
  <sodipodi:namedview
     id="namedview7"
     pagecolor="#ffffff"
     bordercolor="#666666"
     borderopacity="1.0"
     inkscape:pageshadow="2"
     inkscape:pageopacity="0"
     inkscape:pagecheckerboard="false"
     inkscape:document-units="mm"
     showgrid="false"
     units="px"
     inkscape:zoom="1.4004209"
     inkscape:cx="529.48368"
     inkscape:cy="202.08211"
     inkscape:window-width="1920"
     inkscape:window-height="986"
     inkscape:window-x="-11"
     inkscape:window-y="-11"
     inkscape:window-maximized="1"
     inkscape:current-layer="layer1" />
  <defs
     id="defs2">
    <clipPath
       id="OKMpThNGkEgT">
      <path
         fill="none"
         stroke="none"
         d="M 0,0 H 878 V 568 H 0 Z"
         id="path937" />
    </clipPath>
    <clipPath
       id="PhFxTVluvarP">
      <path
         fill="none"
         stroke="none"
         d=" M 0 0 L 892 0 L 892 604 L 0 604 L 0 0 Z"
         id="path1385" />
    </clipPath>
  </defs>
  <g
     inkscape:label="图层 1"
     inkscape:groupmode="layer"
     id="layer1">
    <g
       transform="matrix(5.8729178,0,0,6.0952119,-25.543573,-1.3953971)"
       id="g1036">
      <g
         transform="translate(6.1142857,5.0071429)"
         id="g1022">
        <path
           fill="#000000"
           stroke="none"
           paint-order="stroke fill markers"
           d="M 0.541,-0.61 0.424,-0.143 Q 0.403,-0.059 0.318,-0.01 0.262,0.022 0.203,0.022 q -0.081,0 -0.116,-0.054 -0.016,-0.025 -0.016,-0.055 0,-0.064 0.051,-0.078 0.009,-0.002 0.016,-0.002 0.031,0 0.041,0.025 v 0.001 q 0.003,0.007 0.003,0.016 0,0.034 -0.03,0.054 -0.016,0.01 -0.035,0.01 -0.009,0 -0.012,-0.001 0.017,0.055 0.084,0.061 Q 0.195,0 0.2,0 0.253,0 0.299,-0.057 0.331,-0.096 0.344,-0.15 L 0.459,-0.609 Q 0.463,-0.625 0.463,-0.63 0.463,-0.644 0.447,-0.647 0.442,-0.649 0.432,-0.65 0.407,-0.652 0.374,-0.652 0.343,-0.652 0.341,-0.658 0.34,-0.66 0.34,-0.663 q 0,-0.02 0.021,-0.02 l 0.146,0.003 h 0.001 l 0.11,-0.003 h 0.001 q 0.014,0 0.014,0.012 -0.01,0.018 -0.027,0.019 -0.047,0 -0.056,0.015 -0.004,0.007 -0.009,0.027 z"
           id="path1020" />
      </g>
      <g
         transform="translate(6.7652857,5.0071429)"
         id="g1026">
        <path
           fill="#000000"
           stroke="none"
           paint-order="stroke fill markers"
           d="m 0.331,0.24 v 0 q 0,0.01 -0.01,0.01 Q 0.309,0.25 0.268,0.209 0.206,0.147 0.165,0.062 0.099,-0.074 0.099,-0.25 q 0,-0.169 0.063,-0.305 0.052,-0.111 0.132,-0.178 0.021,-0.017 0.027,-0.017 0.01,0 0.01,0.01 0,0.005 -0.013,0.017 -0.161,0.164 -0.161,0.473 0,0.308 0.157,0.468 0.017,0.017 0.017,0.022 z"
           id="path1024" />
      </g>
      <g
         transform="translate(7.1542857,5.0071429)"
         id="g1030">
        <path
           fill="#000000"
           stroke="none"
           paint-order="stroke fill markers"
           d="M 0.737,-0.376 0.593,-0.023 Q 0.589,-0.012 0.586,-0.0075 0.583,-0.003 0.576,5e-4 0.569,0.004 0.557,0.004 0.54,0.004 0.5335,-0.002 0.527,-0.008 0.521,-0.023 L 0.415,-0.282 0.309,-0.023 Q 0.305,-0.012 0.302,-0.0075 0.299,-0.003 0.292,5e-4 0.285,0.004 0.273,0.004 0.256,0.004 0.2495,-0.002 0.243,-0.008 0.237,-0.023 L 0.084,-0.397 H 0.025 v -0.047 q 0.102,0.003 0.109,0.003 0.062,0 0.123,-0.003 v 0.047 H 0.201 l 0.105,0.258 0.079,-0.192 q 0.004,-0.012 0.004,-0.013 0,-0.003 -0.021,-0.053 H 0.309 v -0.047 q 0.048,0.003 0.1,0.003 0.018,0 0.114,-0.003 v 0.047 H 0.467 l 0.114,0.28 0.105,-0.256 0.004,-0.012 q 0,-0.012 -0.058,-0.012 v -0.047 q 0.066,0.003 0.096,0.003 0.042,0 0.077,-0.003 v 0.047 q -0.028,0 -0.0425,0.003 Q 0.748,-0.391 0.744,-0.3875 0.74,-0.384 0.737,-0.376 Z"
           id="path1028" />
      </g>
      <g
         transform="translate(8.0012857,5.0071429)"
         id="g1034">
        <path
           fill="#000000"
           stroke="none"
           paint-order="stroke fill markers"
           d="m 0.289,-0.25 v 0 q 0,0.169 -0.063,0.305 Q 0.174,0.166 0.094,0.233 0.073,0.25 0.067,0.25 q -0.01,0 -0.01,-0.01 0,-0.005 0.013,-0.017 0.161,-0.164 0.161,-0.473 0,-0.305 -0.15,-0.462 L 0.076,-0.717 Q 0.057,-0.735 0.057,-0.74 q 0,-0.01 0.01,-0.01 0.012,0 0.053,0.041 0.062,0.062 0.103,0.147 0.066,0.136 0.066,0.312 z"
           id="path1032" />
      </g>
    </g>
    <g
       id="g4499"
       transform="translate(1.5875)">
      <path
         fill="none"
         stroke="#cc0000"
         paint-order="fill stroke markers"
         d="m 27.307282,22.514019 0.233528,1.109859 m 0,0 0.287747,1.353725 0.287747,1.338464 m 0,0 0.287745,1.323207 0.287748,1.307948 0.287747,1.292691 0.287746,1.27743 0.287747,1.262175 0.287747,1.246915 0.287747,1.231655 0.287746,1.2164 0.287746,1.201139 0.287748,1.18588 0.287747,1.170625 0.287745,1.155364 0.287748,1.140109 0.287747,1.124847 0.287747,1.109591 0.287746,1.094332 0.287746,1.079071 0.287748,1.063818 0.287747,1.048554 0.287745,1.033299 0.287749,1.018042 0.287746,1.002781 0.287747,0.987524 0.287746,0.972266 0.287747,0.957006 0.287747,0.941749 0.287747,0.92649 0.287745,0.911233 0.287749,0.895974 0.287746,0.880714 0.575494,1.715656 0.575493,1.654624 0.575492,1.593588 0.575495,1.532558 0.575494,1.471521 0.575493,1.41049 0.575493,1.349456 0.575493,1.288423 0.575495,1.227391 0.575494,1.166354 0.575492,1.105326 0.575495,1.044288 0.575493,0.983257 0.575494,0.922223 0.575491,0.861191 0.575495,0.800157 0.575493,0.739123 m 0,0 0.575494,0.67809 0.575492,0.617056 0.575494,0.556025 0.575495,0.494991 0.575493,0.433958 0.575492,0.372925 0.575494,0.31189 0.575495,0.250858 0.575493,0.189823 0.575493,0.128791 0.575493,0.06775 0.575495,0.0068 0.575494,-0.0543 0.575492,-0.115341 0.575495,-0.176375 0.575493,-0.237409 0.575494,-0.298443 0.575492,-0.359473 0.575494,-0.420509 0.575494,-0.481542 0.575494,-0.542574 0.575491,-0.603609 0.575494,-0.664641 0.575495,-0.725676 0.575493,-0.786708 0.575492,-0.847741 0.575494,-0.908774 0.575495,-0.969807 0.575494,-1.030842 0.575492,-1.091875 0.575493,-1.152908 0.575495,-1.21394 m 0,0 0.575494,-1.274973 0.575492,-1.336008 0.575494,-1.39704 0.575494,-1.458074 0.575494,-1.519108 0.575492,-1.58014 0.575494,-1.641174 0.575494,-1.702207 0.287746,-0.87399 0.287748,-0.88925 0.287746,-0.904508 0.287746,-0.919766 0.287748,-0.935025 0.287746,-0.950282 0.287748,-0.965539 0.287747,-0.980801 0.287745,-0.996057 0.287748,-1.011316 0.287746,-1.026575 0.287745,-1.041832 0.287749,-1.05709 0.287745,-1.072351 0.287749,-1.087607 0.287746,-1.102865 m 0,0 0.287746,-1.118123 0.287748,-1.133381 0.287747,-1.148642 0.287745,-1.163899 0.287748,-1.179158 0.287745,-1.194416 0.287749,-1.209672 0.287746,-1.224933 0.287746,-1.240191 0.287748,-1.255448 0.287747,-1.270708 0.287745,-1.285965 0.287748,-1.301223 0.287746,-1.316483 0.287748,-1.331741 0.287746,-1.346998 m 0,0 0.360339,-1.708336"
         stroke-opacity="0.698039"
         stroke-linecap="round"
         stroke-linejoin="round"
         stroke-miterlimit="10"
         stroke-width="0.512832"
         id="path944" />
      <path
         fill="none"
         stroke="#000000"
         paint-order="fill stroke markers"
         d="M 13.790902,90.199042 H 88.609307"
         stroke-opacity="0.698039"
         stroke-linecap="round"
         stroke-linejoin="round"
         stroke-miterlimit="10"
         stroke-width="0.683775"
         id="path946" />
      <path
         fill="#000000"
         stroke="none"
         paint-order="stroke fill markers"
         fill-rule="evenodd"
         d="m 92.63645,90.199042 -4.027143,1.044894 v -2.089788 z"
         fill-opacity="0.698039"
         id="path948"
         style="stroke-width:0.170943" />
      <path
         fill="none"
         stroke="#000000"
         paint-order="fill stroke markers"
         d="M 25.054554,24.238695 V 98.391928"
         stroke-opacity="0.698039"
         stroke-linecap="round"
         stroke-linejoin="round"
         stroke-miterlimit="10"
         stroke-width="0.683775"
         id="path950" />
      <path
         fill="#000000"
         stroke="none"
         paint-order="stroke fill markers"
         fill-rule="evenodd"
         d="m 25.054554,20.059122 1.006784,4.179573 h -2.013571 z"
         fill-opacity="0.698039"
         id="path952"
         style="stroke-width:0.170943" />
      <path
         fill="none"
         stroke="#000000"
         paint-order="fill stroke markers"
         d="m 33.239471,47.592418 1.14162,3.996826"
         stroke-opacity="0.698039"
         stroke-linecap="round"
         stroke-linejoin="round"
         stroke-miterlimit="10"
         stroke-width="0.427359"
         id="path954" />
      <path
         fill="#000000"
         stroke="none"
         paint-order="stroke fill markers"
         fill-rule="evenodd"
         d="m 35.191837,54.427683 -1.494477,-2.62808 1.36746,-0.420718 z"
         fill-opacity="0.698039"
         id="path956"
         style="stroke-width:0.170943" />
      <path
         fill="none"
         stroke="#000000"
         paint-order="fill stroke markers"
         d="m 35.191837,54.427683 1.204084,3.765639"
         stroke-opacity="0.698039"
         stroke-linecap="round"
         stroke-linejoin="round"
         stroke-miterlimit="10"
         stroke-width="0.427359"
         id="path958" />
      <path
         fill="#000000"
         stroke="none"
         paint-order="stroke fill markers"
         fill-rule="evenodd"
         d="M 37.294386,61.00317 35.71908,58.42644 37.072765,57.960204 Z"
         fill-opacity="0.698039"
         id="path960"
         style="stroke-width:0.170943" />
      <path
         fill="none"
         stroke="#000000"
         paint-order="fill stroke markers"
         d="m 37.294386,61.00317 1.529084,4.1261"
         stroke-opacity="0.698039"
         stroke-linecap="round"
         stroke-linejoin="round"
         stroke-miterlimit="10"
         stroke-width="0.427359"
         id="path962" />
      <path
         fill="#000000"
         stroke="none"
         paint-order="stroke fill markers"
         fill-rule="evenodd"
         d="m 39.84748,67.892469 -1.689616,-2.497505 1.331212,-0.531387 z"
         fill-opacity="0.698039"
         id="path964"
         style="stroke-width:0.170943" />
      <path
         fill="none"
         stroke="#000000"
         paint-order="fill stroke markers"
         d="m 39.84748,67.892469 1.780394,3.892665"
         stroke-opacity="0.698039"
         stroke-linecap="round"
         stroke-linejoin="round"
         stroke-miterlimit="10"
         stroke-width="0.427359"
         id="path966" />
      <path
         fill="#000000"
         stroke="none"
         paint-order="stroke fill markers"
         fill-rule="evenodd"
         d="M 42.851118,74.459644 40.983631,72.10252 42.272116,71.467748 Z"
         fill-opacity="0.698039"
         id="path968"
         style="stroke-width:0.170943" />
      <path
         fill="none"
         stroke="#000000"
         paint-order="fill stroke markers"
         d="m 42.851118,74.459644 1.473491,2.40604"
         stroke-opacity="0.698039"
         stroke-linecap="round"
         stroke-linejoin="round"
         stroke-miterlimit="10"
         stroke-width="0.427359"
         id="path970" />
      <path
         fill="#000000"
         stroke="none"
         paint-order="stroke fill markers"
         fill-rule="evenodd"
         d="M 45.854758,79.364242 43.722752,77.262701 44.926468,76.46867 Z"
         fill-opacity="0.698039"
         id="path972"
         style="stroke-width:0.170943" />
      <path
         fill="none"
         stroke="#000000"
         paint-order="fill stroke markers"
         d="M 45.854758,79.364242 47.1551,80.731798"
         stroke-opacity="0.698039"
         stroke-linecap="round"
         stroke-linejoin="round"
         stroke-miterlimit="10"
         stroke-width="0.427359"
         id="path974" />
      <path
         fill="#000000"
         stroke="none"
         paint-order="stroke fill markers"
         fill-rule="evenodd"
         d="m 49.158763,82.839026 -2.511256,-1.587354 1.015187,-1.03975 z"
         fill-opacity="0.698039"
         id="path976"
         style="stroke-width:0.170943" />
      <path
         fill="none"
         stroke="#000000"
         paint-order="fill stroke markers"
         d="m 49.158763,82.839026 1.509894,0.543243"
         stroke-opacity="0.698039"
         stroke-linecap="round"
         stroke-linejoin="round"
         stroke-miterlimit="10"
         stroke-width="0.427359"
         id="path978" />
      <path
         fill="#000000"
         stroke="none"
         paint-order="stroke fill markers"
         fill-rule="evenodd"
         d="m 53.36386,84.351971 -2.928787,-0.270397 0.467168,-1.39861 z"
         fill-opacity="0.698039"
         id="path980"
         style="stroke-width:0.170943" />
      <path
         fill="#7d7dff"
         stroke="none"
         paint-order="stroke fill markers"
         d="m 34.078459,47.592418 c 0,0.480899 -0.375627,0.870745 -0.838988,0.870745 -0.46336,0 -0.838988,-0.389846 -0.838988,-0.870745 0,-0.4809 0.375628,-0.870745 0.838988,-0.870745 0.463361,0 0.838988,0.389845 0.838988,0.870745 z"
         fill-opacity="1"
         id="path982"
         style="stroke-width:0.170943" />
      <path
         fill="none"
         stroke="#000000"
         paint-order="fill stroke markers"
         d="m 34.078459,47.592418 c 0,0.480899 -0.375627,0.870745 -0.838988,0.870745 -0.46336,0 -0.838988,-0.389846 -0.838988,-0.870745 0,-0.4809 0.375628,-0.870745 0.838988,-0.870745 0.463361,0 0.838988,0.389845 0.838988,0.870745 z"
         stroke-opacity="1"
         stroke-linecap="round"
         stroke-linejoin="round"
         stroke-miterlimit="10"
         id="path984"
         style="stroke-width:0.170943" />
      <path
         fill="#7d7dff"
         stroke="none"
         paint-order="stroke fill markers"
         d="m 36.030825,54.427683 c 0,0.480898 -0.375627,0.870744 -0.838988,0.870744 -0.46336,0 -0.838988,-0.389846 -0.838988,-0.870744 0,-0.480899 0.375628,-0.870745 0.838988,-0.870745 0.463361,0 0.838988,0.389846 0.838988,0.870745 z"
         fill-opacity="1"
         id="path986"
         style="stroke-width:0.170943" />
      <path
         fill="none"
         stroke="#000000"
         paint-order="fill stroke markers"
         d="m 36.030825,54.427683 c 0,0.480898 -0.375627,0.870744 -0.838988,0.870744 -0.46336,0 -0.838988,-0.389846 -0.838988,-0.870744 0,-0.480899 0.375628,-0.870745 0.838988,-0.870745 0.463361,0 0.838988,0.389846 0.838988,0.870745 z"
         stroke-opacity="1"
         stroke-linecap="round"
         stroke-linejoin="round"
         stroke-miterlimit="10"
         id="path988"
         style="stroke-width:0.170943" />
      <path
         fill="#7d7dff"
         stroke="none"
         paint-order="stroke fill markers"
         d="m 38.133374,61.00317 c 0,0.4809 -0.375627,0.870744 -0.838988,0.870744 -0.46336,0 -0.838989,-0.389844 -0.838989,-0.870744 0,-0.480899 0.375629,-0.870746 0.838989,-0.870746 0.463361,0 0.838988,0.389847 0.838988,0.870746 z"
         fill-opacity="1"
         id="path990"
         style="stroke-width:0.170943" />
      <path
         fill="none"
         stroke="#000000"
         paint-order="fill stroke markers"
         d="m 38.133374,61.00317 c 0,0.4809 -0.375627,0.870744 -0.838988,0.870744 -0.46336,0 -0.838989,-0.389844 -0.838989,-0.870744 0,-0.480899 0.375629,-0.870746 0.838989,-0.870746 0.463361,0 0.838988,0.389847 0.838988,0.870746 z"
         stroke-opacity="1"
         stroke-linecap="round"
         stroke-linejoin="round"
         stroke-miterlimit="10"
         id="path992"
         style="stroke-width:0.170943" />
      <path
         fill="#7d7dff"
         stroke="none"
         paint-order="stroke fill markers"
         d="m 40.686468,67.892469 c 0,0.480898 -0.375628,0.870745 -0.838988,0.870745 -0.463362,0 -0.838989,-0.389847 -0.838989,-0.870745 0,-0.480898 0.375627,-0.870745 0.838989,-0.870745 0.46336,0 0.838988,0.389847 0.838988,0.870745 z"
         fill-opacity="1"
         id="path994"
         style="stroke-width:0.170943" />
      <path
         fill="none"
         stroke="#000000"
         paint-order="fill stroke markers"
         d="m 40.686468,67.892469 c 0,0.480898 -0.375628,0.870745 -0.838988,0.870745 -0.463362,0 -0.838989,-0.389847 -0.838989,-0.870745 0,-0.480898 0.375627,-0.870745 0.838989,-0.870745 0.46336,0 0.838988,0.389847 0.838988,0.870745 z"
         stroke-opacity="1"
         stroke-linecap="round"
         stroke-linejoin="round"
         stroke-miterlimit="10"
         id="path996"
         style="stroke-width:0.170943" />
      <path
         fill="#7d7dff"
         stroke="none"
         paint-order="stroke fill markers"
         d="m 43.690106,74.459644 c 0,0.480899 -0.375626,0.870744 -0.838988,0.870744 -0.463359,0 -0.838987,-0.389845 -0.838987,-0.870744 0,-0.480898 0.375628,-0.870745 0.838987,-0.870745 0.463362,0 0.838988,0.389847 0.838988,0.870745 z"
         fill-opacity="1"
         id="path998"
         style="stroke-width:0.170943" />
      <path
         fill="none"
         stroke="#000000"
         paint-order="fill stroke markers"
         d="m 43.690106,74.459644 c 0,0.480899 -0.375626,0.870744 -0.838988,0.870744 -0.463359,0 -0.838987,-0.389845 -0.838987,-0.870744 0,-0.480898 0.375628,-0.870745 0.838987,-0.870745 0.463362,0 0.838988,0.389847 0.838988,0.870745 z"
         stroke-opacity="1"
         stroke-linecap="round"
         stroke-linejoin="round"
         stroke-miterlimit="10"
         id="path1000"
         style="stroke-width:0.170943" />
      <path
         fill="#7d7dff"
         stroke="none"
         paint-order="stroke fill markers"
         d="m 46.693747,79.364242 c 0,0.480899 -0.375627,0.870746 -0.838989,0.870746 -0.46336,0 -0.838988,-0.389847 -0.838988,-0.870746 0,-0.480897 0.375628,-0.870743 0.838988,-0.870743 0.463362,0 0.838989,0.389846 0.838989,0.870743 z"
         fill-opacity="1"
         id="path1002"
         style="stroke-width:0.170943" />
      <path
         fill="none"
         stroke="#000000"
         paint-order="fill stroke markers"
         d="m 46.693747,79.364242 c 0,0.480899 -0.375627,0.870746 -0.838989,0.870746 -0.46336,0 -0.838988,-0.389847 -0.838988,-0.870746 0,-0.480897 0.375628,-0.870743 0.838988,-0.870743 0.463362,0 0.838989,0.389846 0.838989,0.870743 z"
         stroke-opacity="1"
         stroke-linecap="round"
         stroke-linejoin="round"
         stroke-miterlimit="10"
         id="path1004"
         style="stroke-width:0.170943" />
      <path
         fill="#7d7dff"
         stroke="none"
         paint-order="stroke fill markers"
         d="m 49.997752,82.839026 c 0,0.4809 -0.375629,0.870744 -0.838989,0.870744 -0.46336,0 -0.838988,-0.389844 -0.838988,-0.870744 0,-0.4809 0.375628,-0.870745 0.838988,-0.870745 0.46336,0 0.838989,0.389845 0.838989,0.870745 z"
         fill-opacity="1"
         id="path1006"
         style="stroke-width:0.170943" />
      <path
         fill="none"
         stroke="#000000"
         paint-order="fill stroke markers"
         d="m 49.997752,82.839026 c 0,0.4809 -0.375629,0.870744 -0.838989,0.870744 -0.46336,0 -0.838988,-0.389844 -0.838988,-0.870744 0,-0.4809 0.375628,-0.870745 0.838988,-0.870745 0.46336,0 0.838989,0.389845 0.838989,0.870745 z"
         stroke-opacity="1"
         stroke-linecap="round"
         stroke-linejoin="round"
         stroke-miterlimit="10"
         id="path1008"
         style="stroke-width:0.170943" />
      <path
         fill="#7d7dff"
         stroke="none"
         paint-order="stroke fill markers"
         d="m 54.202848,84.351971 c 0,0.480897 -0.375628,0.870744 -0.838988,0.870744 -0.463362,0 -0.838989,-0.389847 -0.838989,-0.870744 0,-0.480899 0.375627,-0.870746 0.838989,-0.870746 0.46336,0 0.838988,0.389847 0.838988,0.870746 z"
         fill-opacity="1"
         id="path1010"
         style="stroke-width:0.170943" />
      <path
         fill="none"
         stroke="#000000"
         paint-order="fill stroke markers"
         d="m 54.202848,84.351971 c 0,0.480897 -0.375628,0.870744 -0.838988,0.870744 -0.463362,0 -0.838989,-0.389847 -0.838989,-0.870744 0,-0.480899 0.375627,-0.870746 0.838989,-0.870746 0.46336,0 0.838988,0.389847 0.838988,0.870746 z"
         stroke-opacity="1"
         stroke-linecap="round"
         stroke-linejoin="round"
         stroke-miterlimit="10"
         id="path1012"
         style="stroke-width:0.170943" />
      <g
         transform="matrix(5.8729178,0,0,6.0952119,-27.131074,-1.3953971)"
         id="g1018">
        <g
           transform="translate(19.028571,16.215429)"
           id="g1016">
          <path
             fill="#000000"
             stroke="none"
             paint-order="stroke fill markers"
             d="M 0.737,-0.376 0.593,-0.023 Q 0.589,-0.012 0.586,-0.0075 0.583,-0.003 0.576,5e-4 0.569,0.004 0.557,0.004 0.54,0.004 0.5335,-0.002 0.527,-0.008 0.521,-0.023 L 0.415,-0.282 0.309,-0.023 Q 0.305,-0.012 0.302,-0.0075 0.299,-0.003 0.292,5e-4 0.285,0.004 0.273,0.004 0.256,0.004 0.2495,-0.002 0.243,-0.008 0.237,-0.023 L 0.084,-0.397 H 0.025 v -0.047 q 0.102,0.003 0.109,0.003 0.062,0 0.123,-0.003 v 0.047 H 0.201 l 0.105,0.258 0.079,-0.192 q 0.004,-0.012 0.004,-0.013 0,-0.003 -0.021,-0.053 H 0.309 v -0.047 q 0.048,0.003 0.1,0.003 0.018,0 0.114,-0.003 v 0.047 H 0.467 l 0.114,0.28 0.105,-0.256 0.004,-0.012 q 0,-0.012 -0.058,-0.012 v -0.047 q 0.066,0.003 0.096,0.003 0.042,0 0.077,-0.003 v 0.047 q -0.028,0 -0.0425,0.003 Q 0.748,-0.391 0.744,-0.3875 0.74,-0.384 0.737,-0.376 Z"
             id="path1014" />
        </g>
      </g>
      <text
         fill="#000000"
         stroke="none"
         font-family="geogebra-sans-serif, sans-serif"
         font-size="3.76076px"
         font-style="normal"
         font-weight="normal"
         text-decoration="normal"
         x="61.251007"
         y="84.273132"
         text-anchor="start"
         dominant-baseline="alphabetic"
         fill-opacity="1"
         id="text1038"
         transform="scale(0.98159547,1.0187496)"
         style="stroke-width:0.170943">mininum</text>
      <text
         fill="#000000"
         stroke="none"
         font-family="geogebra-sans-serif, sans-serif"
         font-size="3.76076px"
         font-style="normal"
         font-weight="bold"
         text-decoration="normal"
         x="25.195263"
         y="11.10918"
         text-anchor="start"
         dominant-baseline="alphabetic"
         fill-opacity="1"
         id="text1040"
         transform="scale(0.98159547,1.0187496)"
         style="font-size:3.88056px;stroke-width:0.171;stroke-miterlimit:10;stroke-dasharray:none">If learning rate is too small</text>
    </g>
    <g
       id="g4544">
      <path
         fill="none"
         stroke="#cc0000"
         paint-order="fill stroke markers"
         d="m 134.81554,23.511078 0.21966,1.202855 0.21967,1.190706 m 0,0 0.2467,1.322718 0.24669,1.3074 0.24669,1.292076 0.2467,1.276759 m 0,0 0.24669,1.261437 0.2467,1.246117 0.24669,1.230797 0.24669,1.215477 0.2467,1.200156 0.24669,1.184836 0.2467,1.169517 0.24669,1.154196 0.24669,1.138875 0.2467,1.123556 0.24669,1.108235 0.24669,1.092915 0.2467,1.077595 0.24669,1.062273 0.2467,1.046954 0.24669,1.031634 0.24669,1.016314 0.2467,1.000993 0.24669,0.985673 0.2467,0.970354 0.24669,0.955032 0.24669,0.939713 0.2467,0.924391 0.24669,0.909073 0.2467,0.893751 0.24669,0.878432 0.24669,0.863111 0.2467,0.847791 0.49338,1.649621 0.49339,1.588341 0.49339,1.52706 0.49339,1.465778 0.49339,1.404497 0.49338,1.343216 0.49339,1.281936 0.49339,1.220654 0.49339,1.159375 0.49339,1.098092 0.49338,1.036811 0.49339,0.975532 0.49339,0.91425 0.49339,0.852967 0.49338,0.791689 0.49339,0.730406 0.49339,0.669127 0.49339,0.607845 m 0,0 0.49339,0.546564 0.49338,0.485282 0.49339,0.424003 0.49339,0.362722 0.49339,0.301439 0.49339,0.240159 0.49338,0.178879 0.49339,0.117597 0.49339,0.05632 0.49339,-0.005 0.49338,-0.06625 0.49339,-0.127527 0.49339,-0.188807 0.49339,-0.250089 0.49338,-0.311368 0.49339,-0.372652 0.49339,-0.433931 0.49339,-0.495213 0.49339,-0.556493 0.49338,-0.617774 0.49339,-0.679055 0.49339,-0.740337 0.49339,-0.801616 0.49339,-0.862898 0.49338,-0.924179 0.49339,-0.985459 0.49339,-1.046743 0.49339,-1.108021 0.49338,-1.169303 0.49339,-1.230584 0.49339,-1.291865 0.49339,-1.353145 m 0,0 0.49339,-1.414426 0.49338,-1.475709 0.49339,-1.536989 0.49339,-1.598268 0.49339,-1.659551 0.24669,-0.852755 0.2467,-0.868078 0.24669,-0.883395 0.24669,-0.898716 0.2467,-0.914037 0.24669,-0.929358 0.24669,-0.944676 0.2467,-0.959997 0.24669,-0.975317 0.2467,-0.990639 0.24669,-1.005958 0.24669,-1.021278 0.2467,-1.036598 0.24669,-1.051919 0.2467,-1.067239 0.24669,-1.08256 0.24669,-1.097879 0.2467,-1.113199 0.24669,-1.12852 0.24669,-1.143841 0.2467,-1.159161 0.24669,-1.174481 m 0,0 0.2467,-1.1898 0.24669,-1.205122 0.24669,-1.220441 0.2467,-1.235761 0.24669,-1.251081 0.2467,-1.266403 0.24669,-1.281722 0.24669,-1.297044 m 0,0 0.2467,-1.312361 0.24669,-1.327683 m 0,0 0.1797,-0.976756 0.1797,-0.984883"
         stroke-opacity="0.698039"
         stroke-linecap="round"
         stroke-linejoin="round"
         stroke-miterlimit="10"
         stroke-width="0.464646"
         id="path1392" />
      <path
         fill="none"
         stroke="#000000"
         paint-order="fill stroke markers"
         d="m 123.40941,89.354268 h 63.13732"
         stroke-opacity="0.698039"
         stroke-linecap="round"
         stroke-linejoin="round"
         stroke-miterlimit="10"
         stroke-width="0.619528"
         id="path1394"
         style="stroke-width:0.684;stroke-miterlimit:10;stroke-dasharray:none" />
      <path
         fill="#000000"
         stroke="none"
         paint-order="stroke fill markers"
         fill-rule="evenodd"
         d="m 189.94513,89.354268 -3.3984,1.01646 v -2.03292 z"
         fill-opacity="0.698039"
         id="path1396"
         style="stroke-width:0.154882" />
      <path
         fill="none"
         stroke="#000000"
         paint-order="fill stroke markers"
         d="M 132.91452,100.72615 V 25.188823"
         stroke-opacity="0.698039"
         stroke-linecap="round"
         stroke-linejoin="round"
         stroke-miterlimit="10"
         stroke-width="0.619528"
         id="path1398"
         style="stroke-width:0.684;stroke-miterlimit:10;stroke-dasharray:none" />
      <path
         fill="#000000"
         stroke="none"
         paint-order="stroke fill markers"
         fill-rule="evenodd"
         d="m 132.91452,21.122983 0.8496,4.06584 h -1.6992 z"
         fill-opacity="0.698039"
         id="path1400"
         style="stroke-width:0.154882" />
      <path
         fill="none"
         stroke="#000000"
         paint-order="fill stroke markers"
         d="m 152.03006,80.949987 11.55429,-6.45835"
         stroke-opacity="0.698039"
         stroke-linecap="round"
         stroke-linejoin="round"
         stroke-miterlimit="10"
         stroke-width="0.387205"
         id="path1402" />
      <path
         fill="#000000"
         stroke="none"
         paint-order="stroke fill markers"
         fill-rule="evenodd"
         d="m 165.76527,73.272597 -1.92619,1.871352 -0.50946,-1.304623 z"
         fill-opacity="0.698039"
         id="path1404"
         style="stroke-width:0.154882" />
      <path
         fill="none"
         stroke="#000000"
         paint-order="fill stroke markers"
         d="M 165.76527,73.272597 147.11881,66.74598"
         stroke-opacity="0.698039"
         stroke-linecap="round"
         stroke-linejoin="round"
         stroke-miterlimit="10"
         stroke-width="0.387205"
         id="path1406" />
      <path
         fill="#000000"
         stroke="none"
         paint-order="stroke fill markers"
         fill-rule="evenodd"
         d="m 144.80845,65.937312 2.47934,0.117641 -0.33796,1.382054 z"
         fill-opacity="0.698039"
         id="path1408"
         style="stroke-width:0.154882" />
      <path
         fill="none"
         stroke="#000000"
         paint-order="fill stroke markers"
         d="m 144.80845,65.937312 24.46857,-9.315826"
         stroke-opacity="0.698039"
         stroke-linecap="round"
         stroke-linejoin="round"
         stroke-miterlimit="10"
         stroke-width="0.387205"
         id="path1410" />
      <path
         fill="#000000"
         stroke="none"
         paint-order="stroke fill markers"
         fill-rule="evenodd"
         d="m 171.57087,55.748156 -2.11136,1.55942 -0.36499,-1.37218 z"
         fill-opacity="0.698039"
         id="path1412"
         style="stroke-width:0.154882" />
      <path
         fill="none"
         stroke="#000000"
         paint-order="fill stroke markers"
         d="M 171.57087,55.748156 142.80161,50.805925"
         stroke-opacity="0.698039"
         stroke-linecap="round"
         stroke-linejoin="round"
         stroke-miterlimit="10"
         stroke-width="0.387205"
         id="path1414" />
      <path
         fill="#000000"
         stroke="none"
         paint-order="stroke fill markers"
         fill-rule="evenodd"
         d="m 140.41885,50.396595 2.4683,-0.303352 -0.17107,1.425367 z"
         fill-opacity="0.698039"
         id="path1416"
         style="stroke-width:0.154882" />
      <path
         fill="none"
         stroke="#000000"
         paint-order="fill stroke markers"
         d="M 140.41885,50.396595 173.06356,40.295211"
         stroke-opacity="0.698039"
         stroke-linecap="round"
         stroke-linejoin="round"
         stroke-miterlimit="10"
         stroke-width="0.387205"
         id="path1418" />
      <path
         fill="#000000"
         stroke="none"
         paint-order="stroke fill markers"
         fill-rule="evenodd"
         d="m 175.39407,39.574071 -2.17982,1.418196 -0.30138,-1.394111 z"
         fill-opacity="0.698039"
         id="path1420"
         style="stroke-width:0.154882" />
      <path
         fill="#7d7dff"
         stroke="none"
         paint-order="stroke fill markers"
         d="m 152.73806,80.949987 c 0,0.467812 -0.31698,0.84705 -0.708,0.84705 -0.39102,0 -0.708,-0.379238 -0.708,-0.84705 0,-0.467814 0.31698,-0.84705 0.708,-0.84705 0.39102,0 0.708,0.379236 0.708,0.84705 z"
         fill-opacity="1"
         id="path1422"
         style="stroke-width:0.154882" />
      <path
         fill="none"
         stroke="#000000"
         paint-order="fill stroke markers"
         d="m 152.73806,80.949987 c 0,0.467812 -0.31698,0.84705 -0.708,0.84705 -0.39102,0 -0.708,-0.379238 -0.708,-0.84705 0,-0.467814 0.31698,-0.84705 0.708,-0.84705 0.39102,0 0.708,0.379236 0.708,0.84705 z"
         stroke-opacity="1"
         stroke-linecap="round"
         stroke-linejoin="round"
         stroke-miterlimit="10"
         id="path1424"
         style="stroke-width:0.154882" />
      <path
         fill="#7d7dff"
         stroke="none"
         paint-order="stroke fill markers"
         d="m 166.47327,73.272597 c 0,0.467814 -0.31699,0.84705 -0.708,0.84705 -0.39102,0 -0.708,-0.379236 -0.708,-0.84705 0,-0.467812 0.31698,-0.84705 0.708,-0.84705 0.39101,0 0.708,0.379238 0.708,0.84705 z"
         fill-opacity="1"
         id="path1426"
         style="stroke-width:0.154882" />
      <path
         fill="none"
         stroke="#000000"
         paint-order="fill stroke markers"
         d="m 166.47327,73.272597 c 0,0.467814 -0.31699,0.84705 -0.708,0.84705 -0.39102,0 -0.708,-0.379236 -0.708,-0.84705 0,-0.467812 0.31698,-0.84705 0.708,-0.84705 0.39101,0 0.708,0.379238 0.708,0.84705 z"
         stroke-opacity="1"
         stroke-linecap="round"
         stroke-linejoin="round"
         stroke-miterlimit="10"
         id="path1428"
         style="stroke-width:0.154882" />
      <path
         fill="#7d7dff"
         stroke="none"
         paint-order="stroke fill markers"
         d="m 145.51645,65.937312 c 0,0.467812 -0.31698,0.84705 -0.708,0.84705 -0.39101,0 -0.708,-0.379238 -0.708,-0.84705 0,-0.467814 0.31699,-0.84705 0.708,-0.84705 0.39102,0 0.708,0.379236 0.708,0.84705 z"
         fill-opacity="1"
         id="path1430"
         style="stroke-width:0.154882" />
      <path
         fill="none"
         stroke="#000000"
         paint-order="fill stroke markers"
         d="m 145.51645,65.937312 c 0,0.467812 -0.31698,0.84705 -0.708,0.84705 -0.39101,0 -0.708,-0.379238 -0.708,-0.84705 0,-0.467814 0.31699,-0.84705 0.708,-0.84705 0.39102,0 0.708,0.379236 0.708,0.84705 z"
         stroke-opacity="1"
         stroke-linecap="round"
         stroke-linejoin="round"
         stroke-miterlimit="10"
         id="path1432"
         style="stroke-width:0.154882" />
      <path
         fill="#7d7dff"
         stroke="none"
         paint-order="stroke fill markers"
         d="m 172.27887,55.748156 c 0,0.467812 -0.31698,0.84705 -0.708,0.84705 -0.39102,0 -0.708,-0.379238 -0.708,-0.84705 0,-0.467813 0.31698,-0.84705 0.708,-0.84705 0.39102,0 0.708,0.379237 0.708,0.84705 z"
         fill-opacity="1"
         id="path1434"
         style="stroke-width:0.154882" />
      <path
         fill="none"
         stroke="#000000"
         paint-order="fill stroke markers"
         d="m 172.27887,55.748156 c 0,0.467812 -0.31698,0.84705 -0.708,0.84705 -0.39102,0 -0.708,-0.379238 -0.708,-0.84705 0,-0.467813 0.31698,-0.84705 0.708,-0.84705 0.39102,0 0.708,0.379237 0.708,0.84705 z"
         stroke-opacity="1"
         stroke-linecap="round"
         stroke-linejoin="round"
         stroke-miterlimit="10"
         id="path1436"
         style="stroke-width:0.154882" />
      <path
         fill="#7d7dff"
         stroke="none"
         paint-order="stroke fill markers"
         d="m 141.12685,50.396595 c 0,0.467813 -0.31698,0.84705 -0.708,0.84705 -0.39102,0 -0.708,-0.379237 -0.708,-0.84705 0,-0.467814 0.31698,-0.84705 0.708,-0.84705 0.39102,0 0.708,0.379236 0.708,0.84705 z"
         fill-opacity="1"
         id="path1438"
         style="stroke-width:0.154882" />
      <path
         fill="none"
         stroke="#000000"
         paint-order="fill stroke markers"
         d="m 141.12685,50.396595 c 0,0.467813 -0.31698,0.84705 -0.708,0.84705 -0.39102,0 -0.708,-0.379237 -0.708,-0.84705 0,-0.467814 0.31698,-0.84705 0.708,-0.84705 0.39102,0 0.708,0.379236 0.708,0.84705 z"
         stroke-opacity="1"
         stroke-linecap="round"
         stroke-linejoin="round"
         stroke-miterlimit="10"
         id="path1440"
         style="stroke-width:0.154882" />
      <path
         fill="#7d7dff"
         stroke="none"
         paint-order="stroke fill markers"
         d="m 176.10207,39.574071 c 0,0.467812 -0.31698,0.84705 -0.708,0.84705 -0.39101,0 -0.708,-0.379238 -0.708,-0.84705 0,-0.467814 0.31699,-0.84705 0.708,-0.84705 0.39102,0 0.708,0.379236 0.708,0.84705 z"
         fill-opacity="1"
         id="path1442"
         style="stroke-width:0.154882" />
      <path
         fill="none"
         stroke="#000000"
         paint-order="fill stroke markers"
         d="m 176.10207,39.574071 c 0,0.467812 -0.31698,0.84705 -0.708,0.84705 -0.39101,0 -0.708,-0.379238 -0.708,-0.84705 0,-0.467814 0.31699,-0.84705 0.708,-0.84705 0.39102,0 0.708,0.379236 0.708,0.84705 z"
         stroke-opacity="1"
         stroke-linecap="round"
         stroke-linejoin="round"
         stroke-miterlimit="10"
         id="path1444"
         style="stroke-width:0.154882" />
      <path
         fill="#f40099"
         stroke="none"
         paint-order="stroke fill markers"
         d="m 157.69406,83.668245 c 0,0.654937 -0.44377,1.18587 -0.9912,1.18587 -0.54742,0 -0.9912,-0.530933 -0.9912,-1.18587 0,-0.654939 0.44378,-1.18587 0.9912,-1.18587 0.54743,0 0.9912,0.530931 0.9912,1.18587 z"
         fill-opacity="1"
         id="path1446"
         style="stroke-width:0.154882" />
      <path
         fill="none"
         stroke="#000000"
         paint-order="fill stroke markers"
         d="m 157.69406,83.668245 c 0,0.654937 -0.44377,1.18587 -0.9912,1.18587 -0.54742,0 -0.9912,-0.530933 -0.9912,-1.18587 0,-0.654939 0.44378,-1.18587 0.9912,-1.18587 0.54743,0 0.9912,0.530931 0.9912,1.18587 z"
         stroke-opacity="1"
         stroke-linecap="round"
         stroke-linejoin="round"
         stroke-miterlimit="10"
         id="path1448"
         style="stroke-width:0.154882" />
      <g
         transform="matrix(4.9560032,0,0,5.92935,88.876403,0.25228061)"
         id="g1454">
        <g
           transform="translate(19.028571,16.215429)"
           id="g1452">
          <path
             fill="#000000"
             stroke="none"
             paint-order="stroke fill markers"
             d="M 0.737,-0.376 0.593,-0.023 Q 0.589,-0.012 0.586,-0.0075 0.583,-0.003 0.576,5e-4 0.569,0.004 0.557,0.004 0.54,0.004 0.5335,-0.002 0.527,-0.008 0.521,-0.023 L 0.415,-0.282 0.309,-0.023 Q 0.305,-0.012 0.302,-0.0075 0.299,-0.003 0.292,5e-4 0.285,0.004 0.273,0.004 0.256,0.004 0.2495,-0.002 0.243,-0.008 0.237,-0.023 L 0.084,-0.397 H 0.025 v -0.047 q 0.102,0.003 0.109,0.003 0.062,0 0.123,-0.003 v 0.047 H 0.201 l 0.105,0.258 0.079,-0.192 q 0.004,-0.012 0.004,-0.013 0,-0.003 -0.021,-0.053 H 0.309 v -0.047 q 0.048,0.003 0.1,0.003 0.018,0 0.114,-0.003 v 0.047 H 0.467 l 0.114,0.28 0.105,-0.256 0.004,-0.012 q 0,-0.012 -0.058,-0.012 v -0.047 q 0.066,0.003 0.096,0.003 0.042,0 0.077,-0.003 v 0.047 q -0.028,0 -0.0425,0.003 Q 0.748,-0.391 0.744,-0.3875 0.74,-0.384 0.737,-0.376 Z"
             id="path1450" />
        </g>
      </g>
      <g
         transform="matrix(4.9560032,0,0,5.92935,88.876403,0.25228061)"
         id="g1472">
        <g
           transform="translate(6.1142857,5.0071429)"
           id="g1458">
          <path
             fill="#000000"
             stroke="none"
             paint-order="stroke fill markers"
             d="M 0.541,-0.61 0.424,-0.143 Q 0.403,-0.059 0.318,-0.01 0.262,0.022 0.203,0.022 q -0.081,0 -0.116,-0.054 -0.016,-0.025 -0.016,-0.055 0,-0.064 0.051,-0.078 0.009,-0.002 0.016,-0.002 0.031,0 0.041,0.025 v 0.001 q 0.003,0.007 0.003,0.016 0,0.034 -0.03,0.054 -0.016,0.01 -0.035,0.01 -0.009,0 -0.012,-0.001 0.017,0.055 0.084,0.061 Q 0.195,0 0.2,0 0.253,0 0.299,-0.057 0.331,-0.096 0.344,-0.15 L 0.459,-0.609 Q 0.463,-0.625 0.463,-0.63 0.463,-0.644 0.447,-0.647 0.442,-0.649 0.432,-0.65 0.407,-0.652 0.374,-0.652 0.343,-0.652 0.341,-0.658 0.34,-0.66 0.34,-0.663 q 0,-0.02 0.021,-0.02 l 0.146,0.003 h 0.001 l 0.11,-0.003 h 0.001 q 0.014,0 0.014,0.012 -0.01,0.018 -0.027,0.019 -0.047,0 -0.056,0.015 -0.004,0.007 -0.009,0.027 z"
             id="path1456" />
        </g>
        <g
           transform="translate(6.7652857,5.0071429)"
           id="g1462">
          <path
             fill="#000000"
             stroke="none"
             paint-order="stroke fill markers"
             d="m 0.331,0.24 v 0 q 0,0.01 -0.01,0.01 Q 0.309,0.25 0.268,0.209 0.206,0.147 0.165,0.062 0.099,-0.074 0.099,-0.25 q 0,-0.169 0.063,-0.305 0.052,-0.111 0.132,-0.178 0.021,-0.017 0.027,-0.017 0.01,0 0.01,0.01 0,0.005 -0.013,0.017 -0.161,0.164 -0.161,0.473 0,0.308 0.157,0.468 0.017,0.017 0.017,0.022 z"
             id="path1460" />
        </g>
        <g
           transform="translate(7.1542857,5.0071429)"
           id="g1466">
          <path
             fill="#000000"
             stroke="none"
             paint-order="stroke fill markers"
             d="M 0.737,-0.376 0.593,-0.023 Q 0.589,-0.012 0.586,-0.0075 0.583,-0.003 0.576,5e-4 0.569,0.004 0.557,0.004 0.54,0.004 0.5335,-0.002 0.527,-0.008 0.521,-0.023 L 0.415,-0.282 0.309,-0.023 Q 0.305,-0.012 0.302,-0.0075 0.299,-0.003 0.292,5e-4 0.285,0.004 0.273,0.004 0.256,0.004 0.2495,-0.002 0.243,-0.008 0.237,-0.023 L 0.084,-0.397 H 0.025 v -0.047 q 0.102,0.003 0.109,0.003 0.062,0 0.123,-0.003 v 0.047 H 0.201 l 0.105,0.258 0.079,-0.192 q 0.004,-0.012 0.004,-0.013 0,-0.003 -0.021,-0.053 H 0.309 v -0.047 q 0.048,0.003 0.1,0.003 0.018,0 0.114,-0.003 v 0.047 H 0.467 l 0.114,0.28 0.105,-0.256 0.004,-0.012 q 0,-0.012 -0.058,-0.012 v -0.047 q 0.066,0.003 0.096,0.003 0.042,0 0.077,-0.003 v 0.047 q -0.028,0 -0.0425,0.003 Q 0.748,-0.391 0.744,-0.3875 0.74,-0.384 0.737,-0.376 Z"
             id="path1464" />
        </g>
        <g
           transform="translate(8.0012857,5.0071429)"
           id="g1470">
          <path
             fill="#000000"
             stroke="none"
             paint-order="stroke fill markers"
             d="m 0.289,-0.25 v 0 q 0,0.169 -0.063,0.305 Q 0.174,0.166 0.094,0.233 0.073,0.25 0.067,0.25 q -0.01,0 -0.01,-0.01 0,-0.005 0.013,-0.017 0.161,-0.164 0.161,-0.473 0,-0.305 -0.15,-0.462 L 0.076,-0.717 Q 0.057,-0.735 0.057,-0.74 q 0,-0.01 0.01,-0.01 0.012,0 0.053,0.041 0.062,0.062 0.103,0.147 0.066,0.136 0.066,0.312 z"
             id="path1468" />
        </g>
      </g>
      <text
         fill="#000000"
         stroke="none"
         font-family="geogebra-sans-serif, sans-serif"
         font-size="3.40741px"
         font-style="normal"
         font-weight="normal"
         text-decoration="normal"
         x="177.75165"
         y="77.826591"
         text-anchor="start"
         dominant-baseline="alphabetic"
         fill-opacity="1"
         id="text1474"
         transform="scale(0.91424426,1.0937996)"
         style="stroke-width:0.154882">mininum</text>
      <text
         fill="#000000"
         stroke="none"
         font-family="geogebra-sans-serif, sans-serif"
         font-size="3.40741px"
         font-style="normal"
         font-weight="bold"
         text-decoration="normal"
         x="143.38391"
         y="11.537041"
         text-anchor="start"
         dominant-baseline="alphabetic"
         fill-opacity="1"
         id="text1476"
         transform="scale(0.91424426,1.0937996)"
         style="font-size:3.88056px;stroke-width:0.171;stroke-miterlimit:10;stroke-dasharray:none">If learning rate is too large</text>
    </g>
  </g>
</svg>
