<svg width="1024" height="1024" xmlns="http://www.w3.org/2000/svg" version="1.1" viewBox="0 0 1024 1024">
<defs>
    <radialGradient id="RadialGradient" cx="0.4" cy="0.4" r="0.4">
        <stop offset="0%" stop-opacity="0.6" stop-color="white"/>
        <stop offset="100%" stop-opacity="0" stop-color="white"/>
      </radialGradient>
</defs>
    <g id="earth">
        <circle cx="512" cy="512" r="405" fill="#0277BD"/>
        <path fill="#7CB342"
            d="m232.96,792.576c0,4.608 -1.024,5.632 -1.536,5.12c0.512,0.512 0.512,1.024 1.024,1.536c1.536,-2.048 2.56,-4.096 3.072,-6.656c-0.512,0.512 -1.536,0.512 -2.56,0zm677.888,-223.744c0,-0.512 1.536,-8.704 0,0c1.024,-5.12 5.12,-20.992 3.072,-25.6c-2.56,-5.632 -7.168,2.56 -6.144,-5.632c-7.68,-0.512 -7.168,16.384 -6.144,19.456c1.024,3.584 6.656,7.68 9.216,11.776zm-418.816,-262.144s-0.512,0 0,0c-0.512,0.512 -0.512,0.512 0,0zm-369.152,288.768c9.216,0 -6.656,8.192 -3.072,1.024c-1.536,3.072 0,-1.024 -3.072,-1.024c0.512,1.536 2.56,14.336 5.12,13.824c-0.512,0 1.024,-3.072 0,0c4.096,-10.752 7.168,-3.072 12.288,-9.728c-4.096,-7.68 0,-4.096 -11.264,-4.096zm16.896,-45.568c-1.024,0 -0.512,0 0,0zm-8.704,-172.544c0.512,0.512 0.512,0 0,0zm93.696,-150.016c0.512,0.512 0,0.512 0,0c-1.024,1.536 1.536,1.024 0,0zm-27.136,180.736l-1.024,0c0.512,0.512 0.512,0 1.024,0zm45.056,-165.888c-3.072,-1.024 -5.632,1.024 -8.704,2.56c2.56,-0.512 5.12,-0.512 8.192,-0.512c-0.512,-1.024 0.512,-1.024 0.512,-2.048zm94.208,-94.208c2.56,-1.536 5.632,-2.56 8.192,-3.584c12.8,-6.144 31.232,-15.36 -8.192,3.584zm-95.232,71.168c0,-0.512 0.512,-0.512 1.024,-1.024c-1.536,-0.512 -3.072,-1.024 -4.608,-2.048c0.512,0 3.072,1.024 3.584,0c-2.048,-3.584 -7.168,2.56 -7.68,2.56c1.536,0.512 4.608,1.024 6.656,1.024c0,0.512 0.512,0 1.024,-0.512zm250.368,87.552c0.512,0 0.512,0 0,0zm-353.792,141.312c0.512,0 0.512,0 0,0c0.512,0 1.024,-0.512 0,0zm204.288,-277.504c-0.512,0.512 -1.536,0.512 -2.048,1.024c1.024,0.512 2.048,0.512 2.048,-1.024zm228.352,228.864c-1.536,-3.072 -1.536,1.536 0,0zm231.424,-167.936c0,0.512 0,0.512 0,0zm-39.424,8.192c3.584,8.192 16.384,2.56 20.48,-1.024c5.632,-5.12 1.024,-16.384 11.264,-14.848c-1.024,-3.072 -3.072,-4.096 -5.12,-2.56c-0.512,0 -0.512,0 0,0c-6.144,1.024 -5.632,-7.168 -9.728,-10.752c-1.536,6.144 2.56,14.336 1.536,18.432c-3.072,11.776 -9.728,8.704 -18.432,10.752zm39.424,-7.68c0,-0.512 -0.512,-0.512 0,0c-2.048,-0.512 -1.536,-1.536 -3.072,-3.584c-0.512,6.656 6.144,6.656 3.072,3.584zm-231.424,167.424zm128,2.56c-5.12,-10.24 -10.24,0 -9.728,-4.096c1.536,1.024 -10.752,-15.36 -10.752,-15.872c1.024,-1.024 4.096,1.024 5.632,0c-3.584,-5.12 2.56,-4.608 7.68,-4.096c-4.096,-7.68 0,-12.288 -14.848,-6.656c-11.776,4.096 -11.264,6.656 -11.264,16.384c0.512,0 0,-1.536 1.024,-1.536c0,10.24 11.264,12.8 12.288,19.968c-4.096,0 -4.608,3.584 -5.632,6.656c-0.512,-0.512 -1.024,15.36 12.8,12.8c15.36,-2.56 4.096,-13.824 5.12,-14.336c0,-2.048 2.56,-0.512 2.56,-1.536c-1.536,-0.512 -6.144,-5.12 -3.072,-8.192c1.536,2.56 7.168,2.56 8.192,0.512zm-457.216,-181.248c0.512,0 0.512,0 1.024,-0.512c0.512,-1.536 0,-1.536 -1.024,-1.024l-1.024,1.024c0.512,0.512 0.512,0.512 1.024,0.512z" />
        <path fill="#7CB342"
            d="m502.272,315.392c1.024,4.096 2.048,-1.024 4.096,-0.512c1.024,5.12 -3.072,2.56 0,4.608l-2.048,2.048c0,0.512 -6.144,-8.192 -2.048,-6.144zm-10.752,-8.704l0.512,0c1.536,-1.024 3.584,-4.096 5.632,-3.584c-1.536,3.072 -8.192,8.704 -10.752,6.144c1.024,-2.048 2.56,-2.56 4.608,-2.56zm196.608,-111.104c1.536,-4.608 2.048,-11.264 13.824,-9.728l1.024,0c7.68,2.56 -2.048,3.584 -1.024,8.192c1.024,4.608 7.68,10.752 7.68,13.824c-7.168,0 -9.728,0.512 -15.872,-0.512c0,-2.56 2.56,-1.536 3.072,-3.584c-15.36,-4.608 -10.752,-0.512 -8.704,-8.192zm-148.48,-79.36c7.168,8.192 8.704,3.072 14.848,0.512c-2.048,7.168 25.6,0.512 13.824,10.24l-0.512,0.512c-8.192,4.096 -13.824,4.096 -23.04,4.096c0,-3.584 4.096,-2.048 4.096,-6.144c-5.632,1.024 -10.752,0.512 -16.384,-1.024c3.072,-3.072 4.608,-4.608 7.168,-8.192zm-25.6,13.312c0,-1.536 0,-2.56 0.512,-3.584c4.608,-2.048 4.608,5.12 8.192,5.632c3.072,-2.56 1.024,-15.872 7.68,-2.56c5.12,2.56 0,-6.144 6.144,2.048l0,0c-0.512,-1.024 0,0 0.512,0c3.072,0.512 5.632,1.536 7.68,4.096c-14.848,7.168 -10.752,25.6 -29.184,14.336c3.072,-3.072 7.168,-0.512 9.728,-4.096c-4.096,-4.096 -9.728,3.584 -12.8,-2.048c0.512,0 12.288,-3.072 12.288,-4.608c-1.536,0 -29.696,-0.512 -18.432,-5.632c-3.072,-4.608 -5.632,2.048 -7.168,-5.12c8.192,-6.656 9.216,0.512 14.848,1.536zm-173.056,28.16c0,0.512 0,0 0,0zm3.584,8.192c-1.024,0 -0.512,0 0,0c-4.096,0.512 -4.608,-0.512 -1.536,-2.56c6.144,-1.536 3.072,1.536 1.536,2.56zm0,-9.728c0.512,0 0.512,0 0,0c-4.608,-1.024 0.512,-5.632 3.584,-2.56c1.536,0.512 -3.072,2.56 -3.584,2.56zm-6.656,18.944c1.536,-0.512 3.072,-0.512 4.608,0c-2.048,1.024 -7.168,3.072 -4.608,0zm2.048,3.072c0,-2.56 14.336,-4.608 6.144,-1.536c1.024,0 -0.512,0.512 0,0c-1.536,0.512 -5.12,2.048 -6.144,1.536zm13.824,2.56c-2.048,2.048 -13.312,-1.024 -12.8,-1.536c1.536,-2.048 10.24,-2.048 11.264,-0.512c-1.024,0 -1.536,0.512 -2.56,1.024c4.096,0 5.632,0.512 4.096,1.024zm-5.12,16.896c-1.536,0.512 -7.168,4.608 -8.704,3.584c-5.12,-5.632 15.872,-7.68 8.704,-3.584zm-107.008,28.16c1.536,2.048 -4.608,4.608 0,0zm-71.68,203.776s0.512,0 0,0c0.512,0 0,0 0,0c0,-1.024 2.048,2.56 0,0zm1.536,0.512c0,1.024 -0.512,0 0,0zm-27.136,28.16zm0,0.512c0,-1.024 0,0 0,0zm0,0c0,-0.512 0.512,0 0,0zm0.512,0.512c0,-1.024 0,0 0,0zm0,0zm0.512,1.536s-0.512,0 0,0c2.048,4.096 0.512,1.536 0,0zm-5.632,89.088c-2.56,-0.512 -4.608,2.048 -7.168,-1.536c3.072,-2.048 12.288,3.072 7.168,1.536zm32.768,-2.048c-3.072,-1.024 -7.168,0.512 -8.192,3.584c-1.536,-0.512 -13.312,-2.048 -13.824,-4.096c1.024,-2.56 6.656,1.024 9.728,-0.512c-2.56,-3.584 -1.024,-3.072 -5.12,-5.12c0,-4.608 21.504,3.072 23.04,5.632c-3.072,4.096 -2.048,-1.024 -5.632,0.512zm12.8,57.344c-0.512,0.512 0,0 0,0c-1.024,-2.56 -1.024,-2.56 2.56,-2.56c0,4.608 -7.168,4.608 -2.56,2.56zm1.024,-55.296c-2.56,1.536 -3.584,1.024 -3.072,-1.536c1.024,-1.024 5.632,-0.512 6.656,0.512c-1.024,1.024 -2.048,1.536 -3.584,1.024zm24.064,-141.824c0,0.512 0.512,1.536 0,0c-0.512,-1.024 -0.512,-0.512 0,0c0.512,-2.56 1.536,-4.608 3.072,-6.656c5.12,3.072 -2.048,3.584 -1.536,6.656c2.048,1.536 3.072,-4.096 5.632,-0.512c-2.56,3.072 -4.608,3.072 -7.168,0.512zm35.328,-5.12c-0.512,-3.072 -0.512,-0.512 -2.048,-1.024c0,-2.048 2.048,-3.584 -0.512,-4.608c-1.536,4.096 -4.096,5.632 -7.68,4.608c-0.512,-2.56 4.608,-1.536 4.608,-4.096c-5.632,-0.512 -11.776,-0.512 -19.968,0.512c-1.024,-3.072 2.56,-3.584 4.608,-5.12c-3.584,-1.024 5.12,-19.968 12.288,-17.408c0,0.512 -5.632,9.216 -5.632,10.752c3.584,-1.024 1.536,-3.072 5.12,-1.536c-5.12,5.12 7.168,3.072 9.216,4.096c-1.024,1.024 -1.536,2.048 -3.072,2.56c2.56,2.56 2.048,0.512 4.608,1.536c0,1.536 -2.56,2.048 -3.072,2.048c0,1.024 0.512,2.048 1.024,2.56c5.12,-2.56 5.12,6.656 0.512,5.12zm26.624,-102.4c2.048,-6.656 1.536,4.608 0,0zm333.824,129.536c-3.072,1.024 -4.096,2.048 -2.56,3.584c-2.56,0 -6.656,4.608 -8.192,-0.512c2.56,0 8.192,-2.56 10.752,-3.072zm-49.152,0c0,1.536 10.24,2.56 11.776,2.048c-0.512,3.072 -3.072,4.096 -7.168,2.048c0,-2.56 -1.536,-3.072 -5.632,-1.536c0.512,-2.048 0.512,-1.536 1.024,-2.56zm-37.376,-12.8s-0.512,5.12 -1.024,6.144c-2.56,1.024 -11.264,-1.024 -12.8,-4.096c1.024,-2.56 11.776,-2.56 13.824,-2.048zm-27.648,-26.112c1.024,0.512 1.024,9.216 -1.536,8.704c0,-2.56 -5.12,-5.12 1.536,-8.704zm1.536,17.92c0,-0.512 0,0 0,0c0.512,1.024 0,0 0,0c0.512,4.608 -2.56,2.048 -4.096,4.096c-5.632,-1.536 2.048,-21.504 4.096,-4.096zm-57.856,-110.592c1.024,1.536 -4.608,4.096 -5.12,5.632c0.512,1.024 10.752,-1.024 10.24,1.536c-0.512,4.096 -7.168,5.632 -3.584,7.68c-1.536,1.024 -3.072,1.024 -5.12,1.536c1.024,2.56 23.552,10.752 17.408,19.968c5.12,1.024 13.312,4.608 1.024,7.68c1.536,-0.512 0.512,0 0,0c0.512,0 4.608,0.512 4.608,0.512c0,3.072 -30.208,7.68 -32.256,7.168c3.072,-5.632 11.776,-5.12 13.824,-9.216c-3.584,1.536 -8.192,1.024 -11.264,-1.536c5.632,-5.632 3.072,-3.072 3.072,-6.144c3.584,-7.168 7.68,1.536 7.68,-8.192c-3.584,0 -3.584,-1.024 -1.536,-4.096c-3.584,-1.024 -6.144,1.024 -8.704,0.512c0.512,-3.072 2.56,-6.144 2.048,-8.192c-1.536,0 -3.072,0.512 -4.096,2.56c0,-2.048 0.512,-3.072 1.536,-5.12c-2.56,-1.536 -1.024,1.536 -3.584,0c4.096,-5.12 2.048,-16.896 13.824,-12.288zm-11.264,17.92c0,0.512 0,0.512 0,0c0.512,4.096 -2.048,0.512 0,0zm-15.36,15.872c-0.512,-1.536 -4.096,-0.512 -5.632,-1.536c1.024,-1.024 1.024,-1.536 2.048,-3.072l-2.048,0c0,-4.096 4.608,-2.048 7.168,-2.048c-1.024,-1.536 0,-2.048 1.536,-2.56c-5.12,0 9.216,-9.216 11.264,2.048l0,0.512c-4.608,8.192 -1.024,13.312 -13.824,16.384c-4.096,1.024 -8.192,-2.048 -8.192,-3.584c1.024,0 5.632,-1.536 6.144,-3.072c-3.072,0 -0.512,-2.048 1.536,-3.072zm-61.44,-71.168c10.24,-10.752 -2.048,-1.024 -5.12,-5.632c0.512,-1.536 9.728,-2.048 8.704,-3.584c-2.56,-4.608 -8.704,1.536 -10.752,-2.048c-2.048,-3.072 6.144,1.024 2.56,-3.584c1.536,-0.512 3.072,-0.512 5.12,0c0,-8.192 4.608,3.072 6.656,5.632c6.656,-6.144 8.704,-5.632 15.872,-6.144c7.168,-0.512 5.632,-5.12 13.312,0.512c2.56,1.536 9.216,8.192 1.536,9.728c1.024,0 0,0.512 0,0c-1.536,7.68 -32.256,11.776 -37.888,5.12zm141.824,322.048s0.512,-0.512 0,0c-4.608,2.56 -1.024,0 0,0zm187.904,88.576c-3.584,-2.048 -0.512,-3.072 -2.56,-2.048c0,8.704 -4.608,50.176 -19.968,48.128c-5.632,-0.512 -11.776,-16.384 -7.68,-19.968c10.752,-3.584 -1.024,-13.824 2.048,-18.432c5.12,-8.704 6.144,-2.56 11.264,-7.68c4.096,-4.096 6.656,-5.12 6.656,-10.752c3.584,0.512 4.608,-6.144 6.656,-5.12c3.584,1.024 6.144,13.312 3.584,15.872zm-29.184,-76.288c-13.312,12.8 -22.528,23.552 -19.456,39.936c5.12,24.576 10.752,28.16 -9.728,44.544c-17.408,13.824 -4.608,13.312 -8.192,27.136c-1.536,5.12 -10.24,11.776 -11.776,13.824c-9.728,15.36 -17.408,34.816 -37.888,39.936c-6.144,1.536 -25.6,2.56 -28.16,0c-3.072,-3.072 -1.536,-12.8 -4.096,-17.92c-5.632,-14.336 -9.728,-23.552 -14.336,-37.888c-6.144,-19.968 -12.288,-25.088 -7.68,-45.568c2.048,-8.704 5.632,-14.336 2.56,-24.064c-1.536,-6.144 -25.6,-38.4 -15.872,-37.376c0,-1.536 0.512,-15.36 -0.512,-17.408c-3.072,-4.096 -6.656,-1.536 -9.216,-3.072c-1.536,-1.024 -8.704,-2.56 -10.752,-3.072c0.512,0 0.512,-1.536 -1.024,-2.048c-12.288,-3.584 -25.088,0 -37.376,2.048c-13.312,2.56 -40.448,3.072 -45.568,-14.848c3.072,0 -10.752,-13.824 -8.704,-15.872c-4.096,-4.608 -8.704,-4.096 -9.216,-12.288c0,0.512 5.12,-34.816 0.512,-29.184c-1.024,-8.192 10.752,-23.04 15.872,-28.16c8.192,-8.704 13.312,-12.288 17.408,-23.04c2.048,-5.12 15.36,-22.016 18.944,-23.04c1.024,-0.512 11.776,4.608 15.36,4.096c2.56,0 7.168,-2.56 9.728,-3.584c10.752,-2.56 19.968,-5.632 30.72,-6.144c5.632,-0.512 16.384,1.536 19.968,-0.512c0,6.144 0.512,9.728 -4.608,15.36c0.512,2.56 22.528,12.288 26.624,14.336c21.504,10.24 12.8,-6.656 31.232,-7.168c7.68,0 18.432,8.192 28.16,9.216c9.728,0.512 35.84,-7.68 24.576,15.36c-1.536,0.512 -3.072,-1.536 -4.608,-4.096c7.168,16.384 25.6,60.928 29.696,64.512c0.512,0 1.024,-1.024 0.512,-1.536c5.12,2.56 19.968,14.336 12.288,17.408c0,13.824 35.328,-4.096 38.912,-0.512c9.728,11.264 -30.208,46.08 -34.304,50.688zm164.864,-37.888c3.584,-11.776 12.288,22.016 1.536,13.824c-4.096,-2.56 -4.096,-11.776 -1.536,-13.824c-0.512,0.512 0,-1.024 0,0zm-470.528,-397.824c-0.512,0 1.024,-0.512 0,0c2.56,-2.048 -2.048,-0.512 -2.048,0s0.512,0.512 2.048,0zm-4.608,-2.048c0.512,-0.512 0.512,-0.512 0,0zm284.672,211.968c-0.512,-0.512 -0.512,0 0,0zm-381.44,-91.648c0.512,-0.512 0.512,-4.096 -0.512,-1.536c0,1.024 0,1.536 0.512,1.536c-0.512,0 -0.512,0 0,0zm-12.288,-20.992l1.024,0c0.512,0 0.512,-0.512 1.024,-0.512c-1.536,0 -3.072,-0.512 -2.048,0.512zm-32.256,151.552z" />
        <path fill="#7CB342"
            d="m342.528,159.744c1.024,-0.512 -0.512,0 0,0zm-113.664,98.304c0.512,-0.512 1.024,-0.512 0.512,-0.512c0,0 -0.512,0 -0.512,0.512zm11.776,19.968s0,-0.512 -0.512,-1.536c0,0.512 0,0.512 -0.512,1.024c0.512,0.512 1.024,0.512 1.024,0.512zm-8.192,-22.528c-0.512,0.512 -1.024,0.512 -1.536,1.024c1.024,0 2.56,-0.512 1.536,-1.024zm12.8,398.336c-8.192,-8.192 -10.752,1.536 -8.192,5.632c1.536,0.512 3.072,0 4.096,1.024c1.024,-0.512 2.048,-1.024 3.072,-2.56c0,-1.024 0.512,-2.56 1.024,-4.096zm451.072,-450.048c-0.512,2.048 -3.072,1.024 -3.072,3.584c6.144,1.024 8.704,0.512 15.872,0.512c0,-3.072 -6.656,-9.216 -7.68,-13.824c-1.024,-4.608 8.704,-5.632 1.024,-8.192c1.024,0.512 -1.536,0 -1.024,0c-11.776,-1.024 -12.288,5.12 -13.824,9.728c-1.536,7.68 -6.144,3.584 8.704,8.192z" />
        <path fill="#7CB342"
            d="m702.976,185.856l-1.024,0c-0.512,0 2.048,0.512 1.024,0zm-1.024,0l1.024,0l-1.024,0zm-557.056,273.92l0,0zm352.768,-156.672c-2.048,-1.024 -4.096,2.56 -5.632,3.584l-1.024,0c-2.048,-0.512 -4.096,0.512 -4.608,2.56c3.072,3.072 9.728,-3.072 11.264,-6.144zm38.912,-172.032c0.512,0 0.512,0 0,0c0.512,-0.512 -0.512,-1.024 0,0zm12.8,-6.144c0,4.096 -4.096,2.048 -4.096,6.144c9.216,0.512 14.848,0.512 23.04,-4.096c-1.024,0.512 0.512,-0.512 0.512,-0.512c11.776,-9.216 -15.872,-3.072 -13.824,-10.24c-6.144,2.56 -8.192,7.68 -14.848,-0.512c-2.56,3.584 -4.096,5.12 -7.168,7.68c5.12,2.56 10.752,2.56 16.384,1.536z" />
        <path fill="#7CB342"
            d="m568.32,127.488c0,-0.512 0,-0.512 0,0c0,-0.512 -1.024,0 0,0zm0.512,-0.512c-0.512,0 -0.512,0 0,0zm-327.68,533.504c-0.512,-1.024 -2.048,-0.512 -4.096,-1.024c1.024,1.536 2.048,2.048 4.096,1.024zm250.88,-353.792l-0.512,0l0.512,0zm-345.6,290.304c-0.512,1.024 0,1.536 1.024,2.56c0.512,-0.512 1.024,-0.512 1.536,-1.024c-1.536,-1.024 -1.536,0.512 -2.56,-1.536zm357.376,-275.968c1.024,-0.512 1.536,-1.536 2.048,-2.048c-3.072,-1.536 1.024,0.512 0,-4.608c-2.048,0 -2.56,4.608 -4.096,0.512c0.512,1.024 0,0 0,0c-3.584,-1.536 2.56,7.168 2.048,6.144zm-1.536,-5.632s0.512,1.024 0,0zm-258.56,342.528c-1.024,1.536 1.024,-0.512 0,0zm545.792,-436.736c0.512,-0.512 0,0 0,0zm-647.68,233.472c-0.512,0 -0.512,-0.512 -1.024,-0.512c0.512,0 1.024,0.512 1.024,0.512zm88.576,-208.384c1.024,0 2.56,-0.512 3.584,-1.536c-1.536,0.512 -2.56,1.024 -3.584,1.536zm1.024,551.936c-1.536,-2.048 -0.512,0 0,0zm-90.112,-346.112c-0.512,-1.024 -1.024,-1.536 0,0zm1.024,-3.072c-1.024,-3.584 -1.536,0 0,0zm440.832,-45.056c0.512,-0.512 0,-0.512 -1.536,-0.512c0.512,0.512 1.024,0.512 1.536,0.512zm-351.232,396.8c0.512,0 0.512,-0.512 1.024,-1.024c-0.512,0 -0.512,0.512 -1.024,1.024zm678.912,-231.936c1.536,-8.704 0,-0.512 0,0zm-404.48,-436.224c-11.264,5.12 16.896,5.632 18.432,5.632c0,1.536 -11.776,4.608 -12.288,4.608c2.56,5.632 8.192,-1.536 12.8,2.048c-2.56,3.584 -7.168,1.024 -9.728,4.096c18.432,11.264 14.336,-6.656 29.184,-14.336c-2.048,-2.56 -4.608,-3.584 -7.68,-4.096l-0.512,0c-6.144,-8.192 -1.536,0.512 -6.144,-2.048c-6.144,-13.312 -4.608,0 -7.68,2.56c-3.584,-1.024 -4.096,-7.68 -8.192,-5.632c-0.512,1.024 -0.512,2.56 -0.512,3.584c-5.12,-1.024 -6.656,-8.192 -14.848,-2.048c1.536,7.68 4.096,1.024 7.168,5.632zm-263.168,88.064l-2.56,0l2.56,0zm546.304,0.512c-0.512,0 -0.512,0 0,0zm-667.648,388.096c1.024,-3.072 -0.512,0 0,0zm118.784,-389.12l1.024,-1.024l-1.024,1.024zm-15.872,7.168c0,0.512 0.512,0.512 0,0zm-86.016,220.672c-0.512,0 -0.512,0.512 0,0c0.512,0.512 0.512,0.512 1.024,0.512c-0.512,0 -1.024,-0.512 -1.024,-0.512zm440.832,-164.864c0,-0.512 0,0 0,0zm-53.248,8.192l-1.536,0l1.536,0zm195.584,-65.536c-0.512,0 -0.512,0.512 0,0c0,0.512 0,0 0,0zm-135.68,176.64c-1.024,-0.512 -1.536,-0.512 -2.048,-0.512c1.024,0.512 2.048,1.024 2.048,0.512zm174.592,-206.848c6.656,6.144 2.048,-1.024 0,0zm-432.128,-17.408zm0,3.072c0.512,0 0.512,-0.512 0.512,-1.024c-0.512,0.512 -1.024,1.024 -0.512,1.024zm-91.136,81.408c0,0.512 0,0.512 0,0c0,0.512 0.512,0.512 0,0zm99.328,-114.688s3.584,-1.536 8.192,-3.584c-2.56,1.024 -5.12,2.048 -8.192,3.584zm-1.536,11.264c-1.024,0 -1.536,0.512 -2.048,0.512c-2.048,2.048 0,1.024 2.048,-0.512zm2.56,13.312c0.512,0 0.512,0 0,0c1.024,0 1.536,-0.512 2.048,-0.512c-0.512,0 -2.048,-0.512 -2.048,0.512zm-43.52,121.344c-0.512,0 -1.024,-0.512 -1.024,-0.512c0.512,0.512 1.024,0.512 1.024,0.512zm156.672,48.64c0.512,0 1.536,-0.512 0,0zm38.4,70.656c1.536,-2.048 4.608,0.512 4.096,-4.096c-2.048,-17.408 -9.728,2.56 -4.096,4.096zm-217.088,-112.64c1.536,4.608 2.048,-6.656 0,0z" />
        <path fill="#7CB342"
            d="m425.984,311.296c-0.512,2.048 -1.536,2.56 -1.536,5.12c1.024,-1.536 2.56,-2.56 4.096,-2.56c0.512,2.56 -1.536,5.632 -2.048,8.192c3.072,0.512 5.632,-1.536 8.704,-0.512c-2.56,3.072 -2.048,4.096 1.536,4.096c0,9.728 -4.096,1.024 -7.68,8.192c0,2.56 2.56,0.512 -3.072,6.144c3.072,2.56 7.68,2.56 11.264,1.536c-2.048,4.096 -10.752,3.072 -13.824,9.216c2.048,0.512 32.256,-4.096 32.256,-7.168c-0.512,0 -4.096,-0.512 -4.608,-0.512c12.288,-3.584 3.584,-7.168 -1.024,-7.68c6.144,-9.216 -16.384,-17.408 -17.408,-19.968c1.536,0 3.584,-0.512 5.12,-1.536c-3.584,-2.048 2.56,-3.584 3.584,-7.68c0.512,-2.56 -9.728,-0.512 -10.24,-1.536c0,-2.048 5.632,-4.096 5.12,-5.632c-11.264,-4.608 -9.728,7.168 -13.312,13.312c2.048,0.512 0.512,-2.56 3.072,-1.024zm-1.536,5.632c0,-0.512 0,0 0,0zm69.12,92.16s0.512,1.024 0,0z" />
        <path fill="#7CB342"
            d="m424.448,316.928s0,-0.512 0,0c-2.048,0 0.512,3.584 0,0zm137.216,117.248c0,-0.512 2.048,0 0,0c4.096,2.048 6.656,1.024 7.168,-2.048c-1.536,1.024 -11.776,-0.512 -11.776,-2.048c-0.512,1.024 -0.512,0.512 -1.024,2.048c4.096,-1.024 6.144,-0.512 5.632,2.048zm41.984,-0.512c-1.536,0 0,-0.512 0,0c-1.536,-1.536 -1.024,-2.56 2.56,-3.584c-2.56,1.024 -8.192,3.072 -10.24,3.072c1.024,5.12 5.12,0.512 7.68,0.512z" />
        <path fill="#7CB342"
            d="m561.664,434.176c2.048,0 0,-0.512 0,0zm41.984,-0.512c0,-0.512 -1.536,0 0,0zm-179.712,-108.544l0,-0.512s-0.512,2.048 0,0.512zm67.072,75.264s-0.512,0 0,0c2.56,0.512 2.048,-8.192 1.024,-8.704c-6.656,3.072 -1.536,5.632 -1.024,8.704c-0.512,0 0,0 0,0zm27.648,23.04s0.512,-0.512 0,0c0.512,-1.024 1.024,-6.144 1.024,-6.144c-2.048,-0.512 -12.8,-0.512 -13.824,2.048c2.048,3.072 10.752,5.12 12.8,4.096zm-25.088,-14.336s0,-0.512 0,0zm0,0z" />
        <path fill="#7CB342"
            d="m518.656,423.424c0.512,0 0.512,0 0,0c0.512,-0.512 0,0 0,0zm0.512,0zm-25.6,-14.336zm0,0zm149.504,136.704c7.68,-3.584 -7.168,-14.848 -12.288,-17.408c0.512,1.024 0,1.536 -0.512,1.536c-4.096,-3.584 -22.528,-48.128 -29.696,-64.512c-1.536,-2.56 -2.56,-5.632 -3.072,-6.144l3.072,6.144c1.536,2.56 3.072,4.608 4.608,4.096c11.776,-22.528 -14.848,-14.336 -24.576,-15.36c-9.216,-0.512 -20.48,-9.216 -28.16,-9.216c-18.432,0 -9.728,17.408 -31.232,7.168c-4.096,-2.048 -25.6,-11.776 -26.624,-14.336c5.12,-5.632 4.608,-8.704 4.608,-15.36c-3.584,2.048 -14.336,0 -19.968,0.512c-10.752,1.024 -19.968,3.584 -30.72,6.144c-2.56,0.512 -7.168,3.072 -9.728,3.584c-3.072,0.512 -14.336,-4.608 -15.36,-4.096c-3.584,1.024 -16.896,17.92 -18.944,23.04c0,0 -1.024,3.072 0,0c-4.096,10.752 -9.216,14.336 -17.408,23.04c-5.12,5.632 -16.896,20.48 -15.872,28.16c4.608,-5.632 -0.512,29.696 -0.512,29.184c0.512,8.704 5.12,7.68 9.216,12.288c-1.536,2.048 11.776,15.872 8.704,15.872c5.12,17.92 32.256,16.896 45.568,14.848c12.288,-2.048 25.088,-5.632 37.376,-2.048c1.024,0.512 1.536,2.048 1.024,2.048c2.048,0.512 9.216,2.048 10.752,3.072c2.56,1.024 6.144,-1.024 9.216,3.072c1.024,2.048 0.512,15.872 0.512,17.408c-9.728,-1.024 13.824,30.72 15.872,37.376c2.56,9.728 -1.024,15.36 -2.56,24.064c-4.608,20.48 1.536,25.6 7.68,45.568c4.608,14.336 8.704,23.552 14.336,37.888c2.048,5.12 1.024,14.336 4.096,17.92c2.56,2.56 22.016,1.536 28.16,0c20.48,-5.12 27.648,-24.576 37.888,-39.936c1.536,-2.048 10.24,-9.216 11.776,-13.824c3.584,-14.336 -9.216,-13.312 8.192,-27.136c20.992,-16.384 14.848,-19.968 9.728,-44.544c-3.072,-16.384 5.632,-27.136 19.456,-39.936c4.096,-4.096 44.032,-39.424 33.792,-49.664c-3.072,-4.608 -38.4,13.312 -38.4,-0.512zm169.984,11.776c0,-1.024 -0.512,0.512 0,0zm-410.624,-219.648c0,1.536 4.096,4.608 8.192,3.584c12.8,-3.072 9.216,-8.192 13.824,-16.384c-0.512,1.536 -0.512,-1.024 0,-0.512c-2.048,-10.752 -16.896,-1.536 -11.264,-2.048c-2.048,0.512 -2.56,1.536 -1.536,2.56c-2.56,0 -7.168,-2.56 -7.168,2.048l2.048,0c-1.536,1.536 -1.536,2.048 -2.048,3.072c1.536,0.512 5.12,0 5.632,1.536c-2.56,1.024 -4.608,3.072 -1.024,3.072c-1.024,1.536 -5.632,3.072 -6.656,3.072z" />
        <path fill="#7CB342"
            d="m814.08,571.392c10.752,8.192 2.048,-25.6 -1.536,-13.824c-2.048,2.048 -2.048,11.264 1.536,13.824zm-409.088,-119.296c-1.024,2.56 0,0 0,0z" />
        <path fill="#7CB342"
            d="m512,105.472c-225.28,0 -407.04,181.76 -407.04,407.04s181.76,407.04 407.04,407.04s407.04,-181.76 407.04,-407.04s-181.76,-407.04 -407.04,-407.04zm267.776,104.448c4.096,3.584 3.584,11.776 9.728,10.752c0,0 0.512,0 0,0c2.048,-1.024 4.096,-0.512 5.12,2.56c-9.728,-2.048 -5.12,9.728 -11.264,14.848c-4.096,3.584 -16.896,9.216 -20.48,1.024c8.192,-2.048 15.36,1.024 18.432,-11.264c1.024,-3.072 -3.072,-11.264 -1.536,-17.92zm-538.624,6.656c-0.512,1.024 -3.072,0 -3.584,0c1.536,1.024 3.072,1.536 4.608,2.048l-1.024,1.024c0.512,-0.512 1.536,-1.024 1.024,1.024c0,0 -0.512,0.512 -1.024,0.512l1.536,0l-2.56,0l1.024,0l-1.024,0c-2.048,-0.512 -5.12,-0.512 -6.656,-1.024c0.512,-1.024 5.632,-7.68 7.68,-3.584zm-16.384,10.752c1.536,1.024 -1.024,1.536 0,0zm-93.696,150.016c0.512,0 0.512,0.512 0,0c0,0.512 0,0.512 0,0c0,0.512 0,0.512 0,0zm-9.216,231.936c-2.56,0.512 -4.608,-12.288 -5.12,-13.824c3.072,0.512 1.536,4.096 3.072,1.024c-3.584,7.168 12.288,-1.024 3.072,-1.024c11.264,0 7.168,-3.584 11.264,4.096c-5.12,6.656 -8.704,-1.024 -12.288,9.728zm785.92,-71.68c-0.512,8.192 3.584,0 6.144,5.632c2.048,4.608 -2.048,20.48 -3.072,25.6c-2.56,-4.096 -8.704,-8.192 -9.728,-12.288c-0.512,-2.56 -1.024,-19.456 6.656,-18.944zm-88.576,-13.824c5.632,-7.168 22.528,-20.992 29.184,-25.088c6.656,-4.096 6.144,0 12.8,-6.656c1.024,1.536 14.848,17.408 12.8,17.92c4.096,4.096 3.072,5.632 3.072,14.848c2.048,1.536 11.264,1.536 12.288,-6.144c6.656,0 7.168,26.624 8.192,29.696c1.024,4.096 -2.048,7.68 -1.536,12.288c-0.512,-2.048 5.632,5.632 6.144,6.656c0.512,1.536 6.144,10.752 6.656,14.336c2.048,17.92 -9.216,43.52 -14.848,60.416c-28.16,81.92 -83.456,154.112 -155.136,202.752c-75.264,51.2 -166.912,75.264 -258.048,68.096c-50.688,-4.096 -100.352,-17.408 -146.432,-39.936c-23.552,-11.776 -46.592,-25.6 -67.072,-41.984c-9.216,-7.168 -24.064,-15.872 -30.208,-25.6l-4.096,-6.144l-1.024,1.024c0,-0.512 0.512,-0.512 0.512,-1.024c-0.512,-0.512 -1.024,-1.024 -1.024,-1.536c-1.024,0 -1.536,-2.048 0,0c0.512,0 1.536,-1.024 1.536,-5.12c1.024,0 2.048,0.512 2.56,0.512c-1.024,2.56 -2.048,4.608 -3.072,6.656c4.096,-4.096 9.728,-12.288 11.776,-16.896c1.024,-3.072 -1.536,-10.752 0,-12.8c3.072,-4.608 12.8,-8.192 17.92,-10.752c12.288,-5.632 14.848,-1.536 20.992,-15.872c4.096,-10.24 5.632,-21.504 6.144,-34.304c5.632,1.024 19.968,-20.48 16.384,-28.672c-4.096,-10.24 -32.256,-21.504 -43.008,-14.336c-3.072,-13.312 -11.264,-8.704 -21.504,-3.584c0,-1.024 0,-1.024 -0.512,-1.536c-1.536,1.024 -3.072,0.512 -4.096,-1.024c-1.024,-0.512 -2.048,-1.024 -3.072,-3.072c-1.024,0.512 -3.584,2.56 -5.12,1.536c35.84,-27.648 -29.184,-32.256 -29.184,-36.352c-1.024,-8.704 -7.168,-8.704 -14.848,-9.216l4.096,-3.584c-2.56,-2.048 -9.728,-1.536 -9.728,-5.12c1.536,0 2.56,1.024 3.584,-0.512c0,0 -30.208,1.024 -36.352,-3.584c-2.048,1.024 -4.096,2.048 -6.144,2.56c1.024,0.512 3.584,7.68 -0.512,8.704c-5.632,-4.096 1.024,-11.264 2.56,-13.312c-1.024,-5.12 -6.144,1.024 -7.68,1.536c7.68,-15.36 -12.288,-4.096 -17.92,-7.168c-3.584,-2.048 -12.288,-56.32 -8.192,-61.952c1.536,-2.048 12.288,-2.56 6.144,-1.024c6.144,5.12 16.384,4.096 23.04,8.704c0,0.512 -2.56,2.56 -2.56,3.072c1.536,0 14.848,0.512 15.872,-1.536c-8.192,-6.144 -30.72,-17.92 -42.496,-12.288c-0.512,-11.776 -0.512,-22.528 0,-34.304c4.608,4.608 6.656,24.064 14.848,24.064c4.096,-13.312 -8.192,-23.04 -2.048,-34.816c4.096,-7.168 17.92,-8.704 20.992,-14.848c-1.536,-0.512 -2.56,1.024 -3.072,-1.024c1.024,1.024 1.536,1.024 2.56,-0.512c0,-0.512 -2.048,-1.024 -2.56,-1.536c1.536,0.512 4.608,1.536 6.144,-1.024c0,-3.072 -1.536,0 -1.536,0c0,-4.096 -3.072,1.024 -3.072,-3.072c1.024,1.536 3.072,1.024 4.096,1.024l0,-0.512l0,-0.512c-1.024,-2.56 -2.56,-0.512 -5.12,-5.12c1.024,-0.512 1.536,1.536 3.072,1.536c0,-1.024 -0.512,-1.536 -1.024,-1.536s-0.512,0 -1.024,-0.512c0.512,0 0.512,0.512 1.024,0.512l1.536,0c0,-0.512 -1.024,-1.536 -1.536,-2.56c-1.536,-1.024 -1.024,-1.024 0,0l0.512,0.512c2.048,2.048 -1.024,-2.048 -2.56,-3.584l-1.024,0l0,-0.512s-0.512,0 -0.512,-0.512c1.024,-0.512 0.512,0 0.512,0.512c0,0 0.512,0 1.024,0.512c1.024,0 1.536,1.024 3.072,1.536c0,-0.512 0,-1.024 -0.512,-1.536c-1.536,0 -1.024,-3.584 0,0c-1.536,-4.608 0,-5.12 2.048,-6.656c-0.512,0.512 -0.512,1.024 0.512,1.024c-2.56,0.512 -1.536,8.192 -0.512,11.776c6.144,-1.536 1.024,-13.312 2.56,-14.336c-0.512,-0.512 1.536,4.608 2.048,5.12c4.608,-3.072 3.584,-8.192 5.12,-11.776c-1.536,4.096 10.24,-2.56 12.288,-3.584c0,2.048 5.12,0 5.12,-0.512c-11.264,4.608 5.632,-15.872 5.632,-14.848c-0.512,0 9.728,2.048 7.68,-3.072c2.048,1.536 12.288,-1.536 11.264,-4.608l1.024,1.024l1.024,0s-0.512,0 -0.512,0.512c-1.024,0.512 -2.048,1.536 -2.048,2.56c3.072,-2.048 5.632,-2.048 6.656,0c-3.072,0 -11.264,1.536 -12.8,5.12c0.512,0.512 1.024,0.512 1.536,-0.512c-3.072,7.68 15.36,-1.024 22.016,-4.096c-2.048,-2.56 -9.216,-4.096 -14.336,-4.096c0,0 1.024,-0.512 1.536,-0.512c-2.56,-1.536 -5.12,-5.632 -7.168,-5.632c1.536,-1.536 2.048,-2.56 3.072,-3.584c-1.024,-1.024 -6.144,-1.536 -8.192,-1.536c0,0 9.216,-1.024 10.24,-3.072c-4.608,-12.288 -26.624,7.168 -30.72,10.752c6.656,-14.336 18.944,-18.944 31.744,-20.48c9.728,-1.536 26.624,0.512 33.792,-7.68c10.24,-12.8 -5.632,-14.336 -16.384,-10.24c1.024,-6.144 10.24,-3.072 12.8,-8.192c-5.632,-1.536 -8.704,-3.072 -14.336,-3.072c2.048,-5.12 -5.12,-7.168 -7.68,-10.752c1.024,-0.512 2.56,-0.512 4.096,0c1.024,-2.56 -11.264,-18.944 -14.848,-22.528c-7.168,14.848 -9.216,10.752 -23.04,10.752c-1.536,-1.536 3.072,-10.752 1.536,-13.824c-1.536,-3.072 -9.728,-1.024 -10.24,-5.12c-3.584,-18.432 18.432,-5.632 26.112,-2.56c-2.048,-6.656 -12.288,-8.192 -13.312,-13.824c3.072,0 5.632,4.096 5.12,-0.512c3.584,2.56 9.728,7.68 13.824,9.216c0,-0.512 -2.56,-7.68 -2.048,-9.728c1.024,1.536 2.048,3.072 3.584,4.608c0,-2.56 -6.656,-8.192 -3.072,-8.192c-5.12,-2.56 -10.752,-4.608 -13.312,-9.728c2.048,-3.072 2.048,-2.56 4.608,-6.144c7.168,3.072 9.216,11.264 16.384,11.264c-2.048,-7.68 0.512,-6.144 5.632,-6.656c-1.024,-1.024 -2.048,-2.048 -2.56,-3.072c3.072,-1.536 5.12,2.048 6.656,-2.048c-6.144,-4.096 -8.704,-3.584 -15.36,-3.584c0,-2.048 1.024,-2.048 3.072,-2.048c-1.024,-3.072 -3.072,-4.608 -5.632,-4.096c3.072,-4.096 28.16,-42.496 36.352,-34.304c-1.024,0 -2.048,0 -3.072,1.024c-0.512,3.072 10.24,-0.512 10.752,-2.048c1.024,-1.536 -7.68,-5.12 -8.192,-5.12c2.048,-2.048 12.288,2.048 15.872,1.024c-1.024,2.56 -3.072,5.12 -3.072,7.168c2.048,-0.512 2.048,-1.024 3.584,0c0,0.512 -9.728,5.12 -2.56,3.584c0,0 -10.752,5.12 -11.776,5.12c1.536,0 9.728,0 8.704,-1.536c0.512,-0.512 3.072,1.536 4.096,3.072c-3.584,1.024 -8.192,-1.536 -11.776,-0.512c-0.512,1.024 3.584,1.536 3.072,1.536c0,0 -9.216,1.024 -6.656,4.096l1.536,0c1.024,-0.512 2.56,-1.024 3.584,-1.536c2.56,-1.536 5.632,-3.584 8.704,-2.56c0,0.512 -1.024,1.024 -0.512,2.048c-3.072,0 -5.632,0 -8.192,0.512c-1.024,0.512 -2.56,1.024 -3.584,1.536c-1.024,0.512 -1.536,1.024 -2.56,1.536c4.608,1.536 9.728,-3.072 13.824,0.512c-4.096,-0.512 -9.216,0 -13.312,1.024c1.024,0.512 7.68,2.56 7.68,2.56c-1.536,0.512 -3.584,1.024 -5.12,1.536c1.024,0.512 2.048,1.024 2.048,1.536c4.608,-2.56 12.8,-6.144 14.848,-5.12c-3.584,3.072 -15.36,4.096 -17.92,9.216c0.512,1.024 1.024,1.024 2.048,1.024c0.512,0 1.024,-0.512 1.536,-0.512c-0.512,0.512 -1.024,0.512 -1.536,0.512c-0.512,0.512 -1.024,0.512 -1.024,1.536c0.512,0 5.632,2.048 6.656,1.536l0.512,-0.512s0,0.512 -0.512,0.512c-3.072,3.072 -1.024,2.048 2.048,5.12c-1.024,0 -3.584,4.608 -2.56,5.632c1.536,1.536 6.656,-7.68 6.656,-8.192c0,0 7.68,5.12 7.68,6.144c-6.656,0.512 -6.656,-4.096 -12.288,2.048c2.048,3.072 6.656,-3.584 8.704,-1.024c-1.536,0.512 -6.144,2.56 -7.68,2.048l0,1.024c1.024,-2.56 1.024,1.024 0.512,1.536c2.048,1.024 1.024,0.512 5.12,0c-3.584,2.56 -1.536,3.584 0,5.632c2.56,0.512 2.048,-1.536 5.12,-1.024c0,9.216 2.56,4.608 5.12,8.192c-1.024,0.512 -1.536,1.024 -2.048,1.536c4.096,-1.024 4.096,1.024 1.024,2.048c0.512,0.512 9.728,-1.024 4.096,0.512c2.56,1.024 3.072,1.536 4.096,2.56c0,0 6.656,0.512 1.024,1.536c5.12,1.536 10.752,-4.096 13.312,-5.12c3.072,1.024 0,2.56 -0.512,3.584c1.024,-1.024 2.048,-1.024 3.584,-2.048c0,0.512 0.512,1.024 1.536,1.536c0,0.512 -3.584,3.072 -3.584,3.072c1.024,2.048 2.56,-1.536 4.608,1.024c1.024,-1.024 1.536,-1.536 2.56,-2.048l-2.048,4.608c2.048,0.512 12.8,-1.024 13.312,-2.56c1.024,-2.56 -4.096,-0.512 -4.608,-2.048c2.56,0 4.608,-1.024 6.144,-2.56c-1.024,0 -4.096,1.536 -4.608,-0.512c5.12,-1.024 2.56,0 1.536,-1.024c3.584,-1.536 1.536,-2.048 0,-2.56c-0.512,0 -0.512,0 -1.024,-0.512c0,0 0.512,0.512 1.024,0.512c1.536,0 3.584,-5.12 4.096,-5.12c-1.536,0 -1.536,-2.56 -5.632,-6.144c1.536,1.024 3.072,1.024 4.096,0.512c-0.512,-0.512 -3.072,-2.56 -3.072,-2.048c4.608,-2.56 4.096,-1.024 2.56,-5.12c7.168,3.584 1.536,-1.024 1.536,-1.024s5.12,-1.536 4.608,-3.584c-1.536,1.024 -3.584,0 -4.608,-0.512c1.024,0 4.608,1.024 5.632,0c1.024,-1.536 -6.144,-3.584 -6.144,-3.584c1.536,-0.512 4.608,-1.024 6.144,-2.048c0,-2.56 -3.584,-4.096 -6.144,-5.632c0.512,0 13.312,-5.632 4.096,-4.096c-1.024,-3.072 5.632,1.024 3.584,-3.072c-0.512,0 8.192,1.536 6.144,-0.512c0,-1.536 -0.512,-2.56 -2.048,-2.56c0.512,-2.56 4.608,-3.584 5.632,-4.096c-0.512,0.512 -3.072,5.12 -1.536,6.144l1.536,0c-0.512,-3.072 6.656,-5.12 6.656,-8.704c0,0 6.656,-1.536 8.192,-5.12c0.512,-1.536 -1.024,-3.584 -0.512,-5.12c2.56,-7.68 5.12,-4.608 0.512,-9.728c0,-0.512 0,-0.512 0.512,-0.512c0.512,0.512 13.312,4.608 8.704,0c11.264,0.512 27.648,-21.504 26.624,-27.136c-7.68,3.072 -18.432,9.728 -25.6,10.24c0.512,0 6.656,-4.608 7.168,-5.12c0.512,-1.024 -10.24,3.072 -11.264,3.072c-2.048,-3.072 6.144,-3.072 0.512,-5.632c17.92,-4.608 3.584,-3.072 -2.048,-5.12c0,-1.024 0.512,-1.024 1.536,-1.536c0,-1.024 -6.144,-1.024 -6.656,-2.048c7.68,-1.024 15.872,2.048 22.528,2.56c6.656,0.512 6.656,0 8.192,-1.024c0.512,1.536 4.096,3.584 5.632,1.536c1.536,-2.56 -7.68,-5.12 -8.192,-5.12c-0.512,0 -1.024,-3.584 -1.024,-3.584c-5.12,1.024 -10.24,-2.56 -15.36,1.536c-5.632,-3.072 2.048,-0.512 0.512,-4.096c-1.024,-1.536 -8.704,0.512 -9.216,1.024c0.512,-1.024 3.584,-2.048 4.608,-3.072c0,0 -6.144,0.512 -8.192,1.536c0,0.512 0,1.024 -0.512,1.024c-0.512,-0.512 0,-0.512 0.512,-1.024l0,-2.048c0,-0.512 0,0 0,0c4.096,-1.024 7.68,-2.048 4.608,-4.608c0.512,0 2.56,-0.512 4.608,-1.024l-0.512,0c0,-0.512 1.024,-0.512 2.048,-0.512c1.024,-0.512 1.536,-0.512 2.048,-1.024c0,1.024 -1.024,1.024 -2.048,1.024c-0.512,0 -1.024,0.512 -2.048,0.512c4.608,2.56 8.192,-0.512 11.264,-3.072c-1.536,1.536 -11.264,-4.096 -12.288,-6.144c1.024,0 10.752,0 10.24,-3.072c-0.512,-3.072 -6.656,1.024 -7.168,1.536l0,-1.536c-0.512,-2.048 -3.072,-1.024 -5.12,-0.512c-2.048,1.024 -4.096,2.048 -2.048,0.512c0.512,0 1.536,0 2.048,-0.512c1.024,-0.512 2.048,-1.536 2.56,-1.536c-1.024,-1.024 -5.632,0 -6.144,-0.512c3.072,-0.512 -0.512,-1.024 -0.512,-1.024c0.512,0 11.776,1.024 10.24,-1.024c-3.072,-4.096 -7.168,-2.56 -11.264,-1.536c-0.512,-1.024 7.168,-3.072 3.072,-3.584c2.56,-1.536 7.68,1.024 3.584,-1.536c38.912,-18.944 20.992,-9.728 8.192,-3.584c118.784,-53.76 258.56,-46.592 371.712,18.944c-10.24,5.12 -10.752,8.704 -13.312,14.336c0,0 -17.92,9.216 -0.512,5.632c3.584,-0.512 11.776,2.56 7.168,-4.096c3.072,-3.072 11.776,-8.192 14.848,-10.24c8.704,5.632 21.504,11.264 28.16,18.944c3.584,4.096 5.632,6.144 7.168,7.68c2.048,-1.024 6.144,6.144 0,0c-0.512,0.512 -1.024,1.536 -1.024,4.096c0,1.536 -6.144,11.264 -7.168,15.872c1.536,2.56 13.312,4.608 9.216,9.728c-4.096,5.12 -11.776,-3.584 -16.896,-5.632c-17.408,-7.168 -19.456,-3.072 -23.552,6.656l0,0c-1.024,-1.024 -10.752,-1.024 -12.8,-1.024c-6.144,0.512 -10.752,5.12 -16.384,3.072c0,-2.048 2.048,-1.536 2.56,-5.12c-13.312,0 -27.648,22.016 -40.96,11.776c1.536,-2.56 4.608,-4.096 7.68,-3.072c-2.56,-5.12 -6.656,-7.168 -12.8,-5.632c-1.024,7.168 1.024,11.264 1.024,18.944c-7.68,-0.512 -6.656,-3.072 -13.824,1.024c-14.336,8.192 2.56,2.048 -3.072,10.24c-5.12,-1.536 -13.312,-5.632 -16.896,-2.56c0,2.048 9.728,5.632 5.632,7.168c-6.144,2.56 -11.264,-4.096 -14.336,-7.168c-6.656,-6.144 2.56,-4.096 0,-7.68c-2.048,-3.072 -7.68,-5.632 -10.752,-8.704c5.632,-3.072 21.504,9.728 30.208,7.168c17.92,-5.12 7.168,-11.264 -1.536,-16.384c-7.168,-4.608 -18.944,-8.192 -23.552,-9.216c-3.584,-0.512 -17.408,-2.048 -20.48,-5.632c3.072,0.512 6.144,0 9.216,-1.536c-0.512,-6.656 -12.288,-1.024 -13.312,-1.024c3.072,-10.24 -2.048,-1.536 -5.632,0c-0.512,-11.264 -3.072,2.56 -7.168,2.048c0,-2.56 1.024,-4.608 3.072,-6.144c-9.216,-0.512 -19.456,8.192 -25.6,12.8c0,-1.024 1.536,-3.072 0.512,-3.584c-11.776,6.656 -20.992,13.312 -29.184,22.528c-1.536,1.536 -5.12,10.24 -7.68,13.312c-6.144,8.704 -17.92,10.752 -23.04,16.384c0,1.024 -6.656,8.192 -7.68,12.8c-0.512,2.56 0,9.728 3.584,8.192c-1.536,1.536 -3.072,1.536 -3.584,0.512c-1.024,0.512 -1.536,1.536 -1.024,2.56c0.512,0 2.56,0.512 2.048,-1.536c1.536,1.024 -0.512,2.048 2.048,0c0,0.512 -1.536,3.584 0.512,3.584c0,1.024 -1.536,0 -0.512,1.024c-0.512,-0.512 -2.56,-1.024 -2.56,-1.024c4.096,14.336 15.872,1.024 23.04,-4.096c2.048,8.704 11.776,18.432 10.24,27.648c5.12,1.024 9.728,-8.192 13.312,-4.096c4.096,-7.168 4.096,-10.752 3.072,-16.896c4.096,0 2.56,-2.048 5.632,-3.072c0,4.096 3.584,-2.048 3.584,-2.048c-2.048,0 -5.12,0 -8.192,-0.512l-1.536,0l1.536,0c3.072,-0.512 10.24,-2.048 10.752,-2.048c0,-8.704 -9.728,-4.608 -7.168,-15.872c1.024,-5.632 8.704,-5.632 12.8,-10.752s3.072,-12.288 9.216,-15.36c4.096,-2.048 14.336,-1.536 13.824,6.144c-2.56,0 -12.288,9.728 -12.288,7.68c-21.504,22.528 16.384,32.256 17.92,22.528c0,2.56 6.656,1.024 8.704,-0.512c0,0 0,-0.512 0.512,-0.512l-0.512,0.512c0.512,1.024 6.656,4.608 7.68,5.12c-4.608,3.072 -8.704,-2.56 -8.704,3.584c-4.096,-4.096 -30.208,-1.024 -16.384,7.68c-2.048,14.848 -7.68,3.072 -8.704,4.096c-6.656,6.144 -2.56,8.704 -6.144,14.848c-2.56,3.584 -30.208,5.12 -30.208,10.752c-1.536,-0.512 -15.36,-2.56 -16.896,-2.56c1.536,-0.512 2.048,-1.536 1.024,-2.048c-14.848,1.536 -1.024,-13.824 -1.024,-13.824c-6.656,0 -11.776,-4.096 -12.288,6.656c0,0.512 3.072,9.728 4.096,10.24c-2.56,1.536 -8.192,2.56 -8.704,4.096c-10.24,0 -5.12,6.144 -9.728,5.632c0.512,-1.536 1.536,-2.56 0,-3.584c-3.072,1.024 -18.944,20.992 -21.504,20.48c-3.072,3.072 -7.68,-1.024 -10.24,-1.536c1.536,1.536 2.048,3.584 2.048,6.144c-1.024,1.024 -14.848,-3.072 -14.848,2.048c1.536,-0.512 3.584,1.024 0.512,1.536c4.096,8.192 14.848,3.584 17.92,16.896c-4.096,-5.12 0,8.192 -4.096,9.728c-6.144,2.56 -16.384,-2.56 -23.552,-1.024c-15.872,4.096 -4.096,8.704 -11.776,25.6c0.512,1.536 1.536,0 2.56,-0.512c0.512,1.024 0,5.12 0,10.24c11.776,-5.632 14.848,8.704 30.208,1.024c12.8,-6.656 11.776,-20.48 24.576,-28.672c1.024,-0.512 1.536,-5.12 4.096,-6.656c1.024,-0.512 3.072,1.536 4.608,0.512c-1.536,1.024 12.288,-2.56 11.264,-2.56c7.168,0 6.656,-1.536 13.312,2.56c5.12,2.56 12.288,10.24 16.896,14.336c5.12,4.096 6.656,6.144 6.656,14.848c8.192,5.632 -1.024,-17.92 12.288,-9.216c1.024,-2.56 -43.52,-31.232 -20.992,-32.768c1.024,1.024 -0.512,2.048 1.024,5.12c1.536,-0.512 2.048,-1.536 2.048,-3.072c1.536,2.048 3.584,4.096 5.12,6.144c2.56,0 15.36,14.336 18.432,18.432c5.12,7.168 5.12,13.312 16.384,14.336c0,-0.512 -14.336,3.072 -3.072,8.704c0.512,-1.536 1.024,-1.536 2.56,-0.512c-1.024,-1.536 -1.536,-3.072 -1.536,-5.12c2.56,1.024 1.024,0.512 3.584,0.512c-1.024,-1.024 -1.024,-1.024 -2.048,-2.56c3.072,-1.024 2.048,0 4.096,1.536c1.024,-1.024 -0.512,-2.048 0.512,-2.56c-2.048,-1.536 -4.096,-3.072 -6.656,-4.096c0,-0.512 1.024,-0.512 1.024,-2.048c2.048,-1.536 1.024,2.56 2.048,0.512c-4.608,-5.12 -3.584,-4.608 -2.048,-7.68c2.56,0.512 2.048,7.168 2.048,2.048c1.024,1.536 1.536,1.536 3.072,1.536c0.512,-0.512 0,-1.024 -1.024,-1.536c0.512,-0.512 3.072,1.024 3.072,0.512c-5.12,-6.656 10.24,-5.632 8.704,0c0.512,0 13.824,-6.656 13.312,-6.144c-5.632,-7.68 -8.192,-8.192 -2.048,-17.92c4.096,-6.144 7.68,-8.192 14.336,-12.8c1.024,1.024 7.168,4.608 7.68,5.12c-11.264,12.8 11.776,7.168 12.8,3.072c-4.096,-0.512 -9.728,0.512 -11.776,-4.608c3.072,-1.024 23.04,-8.192 24.576,-5.632c-3.072,2.56 -5.12,3.072 -6.144,3.072c0.512,0.512 1.536,1.024 2.56,2.56c-2.56,2.048 -3.072,4.096 -6.656,5.12c4.608,6.144 39.936,27.648 5.12,23.552c-9.216,-1.024 -12.288,-5.632 -22.528,-5.12c0,0 -16.384,5.632 -18.432,5.12c0.512,0 1.024,0.512 1.536,1.024c0.512,0 1.536,0 2.048,0.512c0,0.512 -1.024,0 -2.048,-0.512c-1.536,0 -2.048,0.512 -2.56,1.536c1.024,0 2.048,0 1.536,0.512c-0.512,-0.512 -1.024,-0.512 -1.536,-0.512c-5.12,1.024 -20.48,6.656 -8.192,5.12c0,5.632 -3.072,9.216 3.072,13.824c9.216,7.168 23.552,1.024 37.376,1.024c2.048,3.072 -3.072,14.848 -4.096,18.944c-2.56,14.848 -1.536,19.456 4.608,31.744c5.632,11.264 12.288,20.992 18.432,31.744c3.584,5.632 9.216,11.776 11.776,18.432c1.536,4.608 0,12.8 4.096,15.872c9.216,6.144 49.152,-18.432 55.808,-23.552c2.56,-2.048 18.432,-14.848 17.408,-20.48c-1.536,-8.192 -14.848,-8.192 -15.872,-18.944c-8.704,0 -6.656,13.312 -18.432,10.24c-5.632,-1.536 -2.048,-8.704 -5.12,-9.216c-1.024,0.512 -1.024,7.68 -2.048,7.68c-6.144,-8.192 -4.608,-18.432 -14.336,-23.552c7.168,-8.704 6.656,-3.584 13.824,1.024c6.144,4.096 8.704,9.728 16.896,12.288c3.072,1.024 6.144,-3.072 10.752,-2.048c0,0 7.168,7.168 9.728,8.192c6.656,2.56 14.848,-0.512 21.504,0c8.704,1.024 9.216,0 15.36,3.072c4.608,2.048 6.144,11.776 14.848,8.704c0,3.072 -5.12,2.56 -6.656,2.56c7.168,15.872 12.288,0.512 17.408,1.024c-3.584,12.288 5.12,31.232 10.24,43.52c1.536,4.096 4.608,16.896 7.68,18.944c6.656,4.096 4.608,-0.512 11.264,-2.56c-2.56,-9.216 5.12,-32.768 9.216,-37.376zm-479.232,-356.352zm354.304,242.176c0,1.024 -2.56,-1.024 -2.56,1.536c-1.024,0.512 10.24,11.776 -5.12,14.336c-13.824,2.56 -13.312,-13.312 -12.8,-12.8c0.512,-3.072 1.024,-6.656 5.632,-6.656c-1.536,-7.168 -12.288,-9.728 -12.288,-19.968c-1.024,0 -0.512,1.536 -1.024,1.536c0,-10.24 -0.512,-12.288 11.264,-16.384c14.848,-5.632 10.752,-1.024 14.848,6.656c-5.12,-0.512 -11.264,-1.024 -7.68,4.096c-1.536,1.024 -4.608,-1.024 -5.632,0c0,0.512 12.288,16.384 10.752,15.872c-0.512,4.096 4.608,-6.656 9.728,4.096c-1.024,2.048 -6.656,2.048 -8.192,-0.512c-3.072,3.072 1.024,7.68 3.072,8.192zm-123.392,-10.24c-1.536,1.536 -1.536,-3.072 0,0zm231.424,-167.936c0,0.512 0,0.512 0,0c3.072,3.584 -3.584,3.584 -3.072,-3.072c2.048,1.536 1.024,2.56 3.072,3.072z" />
        <path fill="#7CB342"
            d="m802.304,231.936c0,-0.512 0,-0.512 0,0c-0.512,-0.512 0,-0.512 0,0zm-201.728,233.984c-1.536,-3.584 -2.56,-6.144 -3.072,-6.144c0.512,0.512 1.536,3.584 3.072,6.144zm-215.552,-210.432c7.168,-1.536 0.512,-8.192 -1.536,-9.728c-7.68,-5.632 -6.144,-1.024 -13.312,-0.512c-7.168,0.512 -9.216,0 -15.872,6.144c-2.048,-3.072 -6.656,-13.824 -6.656,-5.632c-1.536,-0.512 -3.072,-0.512 -5.12,0c3.584,4.608 -4.608,0.512 -2.56,3.584c2.048,3.584 8.192,-2.56 10.752,2.048c1.024,2.048 -8.192,2.048 -8.704,3.584c3.072,5.12 15.36,-4.608 5.12,5.632c6.144,7.168 36.864,3.072 37.888,-5.12zm104.448,327.68c-1.024,0 -4.608,2.56 0,0c0,0.512 0,0 0,0zm0.512,0c-0.512,0 -0.512,0.512 0,0zm-104.96,-327.68s0.512,-0.512 0,0zm288.768,399.872c-2.048,-1.024 -3.072,5.632 -6.656,5.12c-0.512,6.144 -3.072,7.168 -6.656,10.752c-5.12,4.608 -6.144,-1.024 -11.264,7.68c-2.56,4.608 9.216,14.848 -2.048,18.432c0.512,0 0,0 0,0c-4.096,3.584 2.048,19.456 7.68,19.968c15.36,2.048 19.968,-39.424 19.968,-48.128c2.048,-1.024 -1.024,0 2.56,2.048c2.56,-2.048 0,-14.336 -3.584,-15.872zm-184.32,-72.192c0.512,0 0.512,0 0,0c0.512,-0.512 0,0 0,0z" />
        <path fill="#7CB342"
            d="m647.168,697.344s0,0.512 0,0c0,0.512 0.512,0 0,0zm-405.504,-471.552c0.512,1.024 -1.024,1.024 0,0c-4.608,4.608 1.536,2.048 0,0zm98.816,-24.064c1.536,0.512 7.168,-3.072 8.192,-3.584c7.168,-4.608 -13.824,-2.56 -8.192,3.584zm-196.096,257.024c0,-0.512 0,-0.512 0,0c0,-0.512 0,-0.512 0,0c0,0 0,-1.024 0,0zm207.872,-280.064c-1.024,-1.536 -9.728,-2.048 -11.264,0.512c-0.512,0.512 10.752,3.584 12.8,1.536c1.536,-0.512 0,-1.024 -4.096,-1.024c1.024,-0.512 1.536,-0.512 2.56,-1.024zm-182.272,250.88c2.048,2.56 0,-1.024 0,0z" />
        <path fill="#7CB342"
            d="m346.112,176.64c7.68,-2.56 -6.144,-0.512 -6.144,1.536c1.024,0.512 4.608,-1.024 6.144,-1.536zm-174.592,253.44c-0.512,0 0,1.024 0,0zm70.144,-204.288c-1.024,1.024 0.512,1.024 0,0zm99.328,-68.096s0,0.512 0,0zm7.68,39.936c0,0.512 0,0.512 0,0zm-4.096,-31.744c0,-0.512 0,-0.512 0,0zm-1.536,-2.56c-3.072,2.048 -2.56,3.072 1.536,2.56c1.536,-1.024 4.608,-4.096 -1.536,-2.56zm1.536,2.56c-0.512,0 -1.024,0 0,0zm0,-9.728c0.512,0 0.512,0 0,0zm-6.656,18.944c-0.512,0 0.512,0 0,0zm6.656,-18.944z" />
        <path fill="#7CB342"
            d="m346.112,176.64c-0.512,0 1.024,-0.512 0,0zm-8.192,-1.536c0.512,0 -0.512,0 0,0c-2.048,3.072 2.56,1.024 4.608,0c-1.536,-0.512 -3.072,-0.512 -4.608,0zm6.656,-18.944c0.512,-0.512 4.608,-2.048 4.096,-2.56c-3.584,-2.56 -8.192,1.536 -4.096,2.56zm4.096,41.984s-0.512,0 0,0zm-138.24,209.92c-0.512,-0.512 -0.512,-1.024 0,0zm0,0c0.512,1.536 0,0.512 0,0zm0,0zm-27.648,139.776c-0.512,2.56 0.512,3.072 3.072,1.536l-0.512,0l0.512,0c1.536,0.512 2.56,0 3.584,-1.536c-1.024,-0.512 -5.12,-1.024 -6.656,0zm-38.4,-89.088c0.512,0 0,-0.512 0,0zm40.96,146.432c-4.608,2.048 2.56,1.536 2.56,-2.56c-3.584,0 -3.584,0.512 -2.56,2.56zm60.416,-202.24c0.512,0 0,-0.512 0,0z" />
        <path fill="#7CB342"
            d="m211.968,408.064c-0.512,-3.072 6.656,-3.584 1.536,-6.656c-1.536,1.536 -3.072,4.096 -3.072,6.656c2.56,2.56 5.12,2.56 7.168,-0.512c-2.56,-3.584 -3.584,2.048 -5.632,0.512zm33.792,-10.24c-1.024,-1.024 -1.024,-1.536 -1.024,-2.56c1.024,-0.512 3.072,-1.024 3.072,-2.048c-2.56,-1.024 -2.048,1.024 -4.608,-1.536c1.024,-0.512 2.048,-1.536 3.072,-2.56c-2.048,-1.024 -14.336,1.024 -9.216,-4.096c-4.096,-1.536 -2.048,1.024 -5.12,1.536c0,-2.048 6.144,-10.752 5.632,-10.752c-7.168,-2.56 -15.872,16.384 -12.288,17.408c-2.048,2.048 -5.632,2.048 -4.608,5.12c8.192,-1.024 14.336,-1.024 19.968,-0.512c0,2.56 -5.632,1.536 -4.608,4.096c3.072,1.024 5.632,-0.512 7.68,-4.608c2.56,1.024 0.512,2.56 0.512,4.608c2.048,0 2.048,-2.56 2.048,1.024c0,-0.512 1.024,0 0,0c4.096,1.536 4.096,-7.68 -0.512,-5.12zm-100.352,62.976c-0.512,-0.512 -0.512,-0.512 0,0c-0.512,0 0,0 0,0z" />
        <path fill="#7CB342"
            d="m145.408,460.8c0.512,1.536 2.048,4.096 0,0c-0.512,-0.512 -0.512,-0.512 0,0zm-0.512,-1.536s0,-1.024 0,0zm-12.288,89.088c2.56,3.072 4.608,1.024 7.168,1.536c-0.512,0 -0.512,0 0,0c5.12,1.536 -4.096,-3.584 -7.168,-1.536zm7.168,1.536zm32.768,-2.048c2.048,-1.024 -0.512,0 0,0z" />
        <path fill="#7CB342"
            d="m154.624,541.696c4.096,2.048 3.072,1.536 5.12,5.12c-2.56,1.536 -8.192,-1.536 -9.728,0.512c1.024,1.536 12.288,3.072 13.824,4.096c1.024,-3.072 5.12,-4.608 8.192,-3.584c-0.512,0 2.048,-1.024 0,0c3.584,-1.536 2.56,3.584 5.12,-0.512c-1.024,-2.048 -22.528,-10.24 -22.528,-5.632zm30.72,63.488s-0.512,0.512 0,0z" />
        <circle cx="512" cy="512" r="405" fill="url(#RadialGradient)"/>
    </g>
</svg>