<svg width="550" height="512" xmlns="http://www.w3.org/2000/svg">
 <defs>
  <marker orient="auto" markerHeight="6" markerWidth="6" refY="5" refX="1" viewBox="0 0 10 10" id="Triangle">
   <path id="svg_53" fill="white" d="m0,0l10,5l-10,5l0,-10z"/>
  </marker>
 </defs>
 <filter id="blurMe">
  <feGaussianBlur in="SourceGraphic" stdDeviation="1"/>
 </filter>
 <g>
  <title>annual parallax</title>
  <rect width="550" height="512" fill="black" id="svg_1" y="0" x="0"/>
  <g id="bg">
   <path fill="yellow" id="star" filter="url(#blurMe)" d="m438.58933,81.65862c-0.33982,-0.98729 -0.89263,-0.98618 -1.2282,0.00268l-1.89511,5.58239c-0.33557,0.98886 -1.4191,2.07305 -2.40795,2.40929l-5.54086,1.88439c-0.98863,0.33624 -0.99064,0.89218 -0.00447,1.23557l5.5076,1.91743c0.98618,0.34339 2.07104,1.43205 2.41086,2.41956l1.92212,5.58753c0.33959,0.98752 0.89084,0.98573 1.22463,-0.0038l1.87657,-5.56319c0.33356,-0.98953 1.41508,-2.07595 2.40304,-2.41421l5.62772,-1.92748c0.98796,-0.33825 0.98685,-0.88883 -0.00246,-1.22329l-5.53863,-1.87345c-0.9893,-0.33468 -2.07685,-1.41619 -2.41666,-2.40349l-1.9382,-5.62995l0,0.00002z"/>
   <circle cy="101" cx="490" r="6" fill="white" filter="url(#blurMe)" id="svg_3"/>
   <circle cy="33" cx="400" r="5" fill="white" filter="url(#blurMe)" id="svg_4"/>
   <circle cy="55" cx="513" r="3" fill="white" filter="url(#blurMe)" id="svg_5"/>
   <circle cy="75" cx="392" r="3" fill="white" filter="url(#blurMe)" id="svg_6"/>
   <circle cy="22" cx="441" r="6" fill="white" filter="url(#blurMe)" id="svg_7"/>
  </g>
  <g id="parallax">
   <ellipse stroke="skyblue" transform="matrix(0.762989 0.762989 -0.762989 0.762989 310.217 -4.94877)" cx="147.27008" cy="330.44912" rx="100" ry="60" fill="none" stroke-width="2" id="svg_9"/>
  <path id="svg_55" marker-end="url(#Triangle)" d="m180,457q18,8 40,5" fill="none" stroke="white"/>
  <path transform="rotate(-161.654 174 269.909)" id="svg_56" marker-end="url(#Triangle)" d="m154,267q18,8 40,5" fill="none" stroke="white"/>
   <line stroke="white" x1="475.64947" y1="54.35054" x2="170.45382" y2="359.54619" fill="white" stroke-dasharray="5,5" id="svg_10"/>
   <line stroke="white" x1="94.15473" y1="283.24687" x2="246.75255" y2="435.84469" fill="white" id="svg_11"/>
   <line stroke="white" x1="94.15491" y1="283.24727" x2="506.16903" y2="54.35053" fill="white" id="svg_12"/>
   <line stroke="white" x1="246.75273" y1="435.84509" x2="475.64947" y2="23.83097" fill="white" id="svg_13"/>
   <circle stroke="null" transform="matrix(0.762989 0.762989 -0.762989 0.762989 310.217 -4.94837)" cx="147.27008" cy="330.44912" r="10" fill="yellow" filter="url(#blurMe)" id="svg_14"/>
   <g stroke="null" id="earth">
    <circle stroke="null" fill="#00456b" r="8.5" cy="435.5" cx="248.5" id="svg_2"/>&gt;
    <path stroke="null" p-id="21302" d="m254.49621,429.75946c-0.32508,0.00988 -0.55138,0.0105 -0.81253,0.19098c-0.10523,0.07285 -0.17667,0.16932 -0.31022,0.20683c-0.11975,0.03376 -0.24899,0.00418 -0.36778,0.04452c-0.42866,0.14568 -0.36075,1.06511 -0.92557,0.92624c-0.2653,-0.06519 -0.45229,-0.37917 -0.58584,-0.5842c-0.11761,-0.18038 -0.33182,-0.32956 -0.18715,-0.55532c-0.06598,0.01695 -0.13635,-0.00236 -0.20135,0.01001c0.0905,-0.19896 0.39395,-0.18158 0.44443,-0.28327c0.12574,-0.25486 -0.34618,-0.28147 -0.4798,-0.31681c0.16108,-0.17191 0.2426,0.05783 0.4016,0.01882c0.15277,-0.03767 -0.08064,-0.23917 -0.17226,-0.26179c-0.03291,-0.00817 -0.57089,0.14889 -0.2595,-0.13017c-0.38441,-0.24538 -0.76863,-0.49068 -1.15312,-0.73625c-0.0647,0.27301 0.51162,0.42817 0.69987,0.52436c-0.02922,0.11274 -0.20434,0.27689 -0.33842,0.22884c-0.1263,-0.04535 -0.07502,-0.25491 -0.26573,-0.23387c-0.13617,0.31703 0.28789,0.22436 0.3273,0.41863c0.04476,0.22137 -0.16031,0.12755 -0.23918,0.12372c-0.0188,-0.00096 -0.16579,-0.15333 -0.17373,-0.03799c-0.00952,0.13697 0.23445,0.08356 0.25167,0.2219c-0.28418,0.01151 -0.4293,-0.09122 -0.66065,-0.24514c-0.27001,-0.17944 -0.40855,-0.16327 -0.73936,-0.16327c0.09892,-0.0407 0.23522,-0.07087 0.31982,-0.13641c0.0462,-0.0358 0.22755,-0.21229 0.2395,-0.2517c0.05125,-0.17001 -0.00278,-0.15711 -0.16523,-0.26857c-0.1444,-0.09893 -0.31952,-0.27652 -0.49451,-0.31151c-0.63394,-0.12672 -0.19552,0.57317 -0.67674,0.66969c0.00823,0.00043 0.01714,0.0008 0.02422,0.0008l-0.02756,0c0.00123,-0.00008 0.00222,-0.00054 0.00334,-0.0008c-0.11133,-0.00399 -0.31998,-0.03111 -0.39171,0.02779c-0.05064,0.04139 -0.05489,0.20771 -0.11149,0.26793c-0.10074,0.10755 -0.25092,0.12902 -0.37112,0.20656c-0.11732,0.07577 -0.37601,0.27012 -0.44491,0.40198c-0.25396,0.48586 0.5722,0.63668 0.88544,0.77872c0.14151,0.06418 0.55509,0.15205 0.63212,0.25928c0.10331,0.14399 -0.08903,0.27901 0.12667,0.38024c0.0689,0.03224 0.21097,0.03882 0.27033,-0.02798c0.09644,-0.10884 -0.03919,-0.13339 -0.06229,-0.25909c-0.04473,-0.24198 0.02898,-0.14584 0.15052,-0.23574c0.24768,-0.18313 0.19191,-0.19435 0.1028,-0.48616c-0.04139,-0.13582 -0.1975,-0.51499 -0.06018,-0.61526c0.17905,-0.13082 0.56095,0.0709 0.69824,0.08776c0.15977,0.0196 0.25052,0.24131 0.3376,0.33199c0.05783,0.06021 0.16127,0.18798 0.26231,0.17416c0.16039,-0.02201 0.09328,-0.16241 0.1863,-0.22718c0.24955,-0.17333 0.3153,0.06212 0.41476,0.29759c0.09355,0.22118 0.1821,0.30327 0.34861,0.44514c0.07735,0.06605 0.41628,0.30174 0.3843,0.44702c-0.02168,0.09786 -0.40885,0.24629 -0.51239,0.27914c-0.37845,0.12003 -1.08839,-0.19652 -1.16465,0.4045c0.14683,-0.05475 0.5645,-0.39644 0.68976,-0.23448c0.05711,0.07347 -0.04532,0.18048 -0.0212,0.25344c0.07147,0.21877 0.23996,0.14254 0.41663,0.1072c-0.01203,0.00752 -0.02438,0.01408 -0.03743,0.01992c0.2414,-0.12423 0.21632,-0.09834 0.32709,-0.29984c0.03617,-0.06584 0.08997,-0.22517 0.14093,-0.27229c0.17547,-0.16163 0.2025,-0.05033 0.31121,0.07438c0.02847,0.03288 0.29722,0.4204 0.20156,0.40107c-0.31262,-0.06278 -0.61279,-0.05438 -0.87205,0.11681c-0.14937,0.09882 -0.29067,0.23213 -0.46908,0.29775c-0.04275,0.01564 -0.35941,0.04568 -0.32198,-0.00838c0.05465,-0.07885 0.24271,-0.13103 0.31693,-0.21614c-0.20568,-0.08482 -0.37722,0.10246 -0.53884,0.21197c-0.17151,0.08126 -0.21137,0.23266 -0.35741,0.36544c-0.06374,0.05789 -0.18429,0.06774 -0.24688,0.14391c-0.06072,0.07392 -0.06826,0.19015 -0.12579,0.26032c-0.04034,0.04913 -0.14381,0.01946 -0.18595,0.09349c-0.05489,0.09676 0.05024,0.18656 0.02719,0.25625c-0.04222,0.12664 -0.28273,0.23408 -0.37524,0.32527c0.01235,-0.01189 0.02462,-0.02415 0.03671,-0.03655c-0.09269,0.0974 -0.20998,0.16902 -0.28239,0.28174c0.03323,0.15912 0.13801,0.53861 0.10879,0.62594c-0.09641,0.28726 -0.28367,-0.15625 -0.35963,-0.27082c-0.26094,-0.39374 -0.78248,-0.13025 -1.13877,-0.09759c-0.45563,0.04174 -0.90194,0.63392 -0.62086,1.11459c0.13491,0.23052 0.36187,0.31979 0.6222,0.26643c0.23172,-0.0475 0.30129,-0.3721 0.51945,-0.37802c0.40096,-0.01071 0.00885,0.39344 -0.02585,0.54177c-0.03208,0.1374 0.05,0.15009 0.19122,0.18415c0.1043,0.02498 0.25199,-0.04469 0.34241,0.01494c0.05695,0.03767 0.05419,0.2438 0.13256,0.1788c-0.15421,0.12801 -0.1182,0.43154 0.03992,0.54123c0.17531,0.12179 0.38171,0.00902 0.56525,0.05577c0.34652,0.08854 0.18111,-0.02645 0.48542,-0.21042c0.20539,-0.12396 0.23907,0.02335 0.37944,0.02394c0.09553,0.00037 0.15622,-0.13756 0.31597,-0.09743c0.1302,0.03288 0.18164,0.13352 0.33711,0.15668c0.06374,0.0094 0.12954,-0.02402 0.19033,-0.0173c0.28752,0.03199 0.50766,0.21596 0.73425,0.38233c0.18672,0.13689 0.3104,0.10916 0.52852,0.17159c0.15935,0.04549 0.45336,0.27641 0.43831,0.47917c-0.0027,0.03628 -0.14199,0.21861 -0.16579,0.30072c0.04077,0.02827 0.32436,-0.03518 0.40735,-0.04115c-0.02727,0.03178 -0.22038,0.16766 -0.22038,0.0955c0,0.037 0.13665,0.11293 0.16993,0.13652c0.10071,-0.3275 0.26616,-0.11676 0.46529,-0.03564c0.16929,0.06905 0.37767,0.07274 0.55825,0.11582c0.15328,0.03655 0.4913,0.14019 0.60487,0.26562c0.13673,0.15098 0.04222,0.39628 -0.05895,0.54651c-0.13234,0.19689 -0.33187,0.27264 -0.41443,0.50431c-0.06524,0.18361 -0.01626,0.36913 -0.05353,0.57269c-0.0504,0.27556 -0.0908,0.17896 -0.268,0.3471c-0.14911,0.14161 -0.00249,0.117 -0.20549,0.20726c-0.20392,0.09074 -0.38347,0.06375 -0.52464,0.28779c0.00564,-0.01408 0.01024,-0.02822 0.01417,-0.04295c-0.05957,0.08348 -0.08935,0.25443 -0.11758,0.31052c-0.07117,0.14313 -0.16935,0.23341 -0.28193,0.35261c-0.04313,0.04565 -0.43975,0.58827 -0.46267,0.54466c-0.02946,-0.05668 -0.34219,0.05695 -0.35709,-0.02391c0.01243,0.06795 -0.00297,0.04517 0.0747,0.08434c-0.07192,0.44594 -0.26027,0.51248 -0.69757,0.51698c0.03762,0.21432 -0.15846,0.17157 -0.24958,0.2868c-0.05328,0.06728 -0.07871,0.25649 -0.11563,0.34364c-0.02307,0.05473 -0.19378,0.27403 -0.19378,0.31748c-0.00019,0.04003 0.05743,0.09866 0.11136,0.15491c-0.30829,0.06104 -0.62263,0.10364 -0.94188,0.12959c0.05976,-0.0754 0.07414,-0.14166 -0.11622,-0.15074c0.05093,-0.13861 0.17055,-0.21767 0.22124,-0.35194c0.02404,-0.06335 0.00414,-0.08838 0.02449,-0.15116c0.06965,-0.21665 0.03944,-0.13491 0.00016,-0.30321c-0.092,-0.39446 0.03272,-0.50233 0.1401,-0.86348c0.11023,-0.37114 0.09997,-0.85224 0.1706,-1.25202c0.0335,-0.1913 0.08839,-0.58937 0.02203,-0.7702c-0.07475,-0.20367 -0.40358,-0.36407 -0.55418,-0.50102c-0.21322,-0.19454 -0.32655,-0.40474 -0.48488,-0.64519c-0.08037,-0.12212 -0.17197,-0.24195 -0.23466,-0.37473c-0.13411,-0.28391 0.00008,-0.11494 0.02265,-0.28249c0.02163,-0.16193 -0.01925,-0.30664 0.04494,-0.47657c0.07101,-0.18787 0.24827,-0.30495 0.3065,-0.4944c0.0524,-0.16865 0.01254,-0.38064 -0.16047,-0.43689c-0.09641,-0.03151 -0.20279,0.0411 -0.29968,0.02517c-0.13507,-0.02193 -0.288,-0.12292 -0.39401,-0.20367c-0.14798,-0.1129 -0.20346,-0.29639 -0.36104,-0.40345c-0.13194,-0.08921 -0.22579,-0.03582 -0.36692,-0.07756c-0.14718,-0.04343 -0.23806,-0.22527 -0.35679,-0.28222c-0.17817,-0.08536 -0.27856,0.03719 -0.46665,0.01242c-0.15996,-0.02096 -0.40393,-0.1985 -0.55338,-0.26557c-0.30391,-0.13622 -0.48897,-0.28659 -0.61052,-0.59545c-0.10406,-0.26487 -0.25578,-0.38843 -0.43443,-0.60902c-0.18103,-0.22353 -0.23771,-0.414 -0.51673,-0.47357c-0.03275,-0.00712 0.06828,0.23465 0.07871,0.25403c0.0997,0.18487 0.24942,0.35374 0.36984,0.52586c0.17718,0.25355 0.10165,0.30112 -0.07858,0.05596c-0.20611,-0.28048 -0.44526,-0.55936 -0.62404,-0.85639c-0.06759,-0.11226 -0.05462,-0.18485 -0.16608,-0.29143c-0.10772,-0.10297 -0.24867,-0.15315 -0.35714,-0.25108c-0.39026,-0.35146 -0.46122,-0.82064 -0.41671,-1.32166c0.01444,-0.16332 0.07336,-0.29395 0.04738,-0.45092c-0.02144,-0.13036 -0.09828,-0.23813 -0.19429,-0.33416c-0.03093,-0.04934 -0.1086,-0.17087 -0.11309,-0.17861c-0.0886,-0.14739 -0.15753,-0.29232 -0.29827,-0.4132c-0.08074,-0.06967 -0.28968,-0.23248 -0.48641,-0.36886c0.88384,-1.10388 2.04036,-1.97869 3.36707,-2.52185c0.01053,0.0668 0.03919,0.13347 0.08213,0.1973c0.10908,0.16201 0.21303,0.14918 0.42596,0.19403c-0.02281,0.2475 -0.31169,0.24945 -0.50723,0.22262c-0.23341,-0.0321 -0.47898,-0.10975 -0.68118,0.0951c0.1117,0.06726 0.4182,0.32913 0.37749,0.0555c0.22359,-0.01122 0.43973,-0.01788 0.65848,0.00889c0.08764,0.01076 0.38131,0.10945 0.4609,0.06444c0.03339,-0.0189 0.06898,-0.18391 0.10435,-0.23467c-0.06237,0.00035 -0.12921,-0.03116 -0.19132,-0.02519c0.14486,-0.18573 0.28918,-0.04003 0.47352,0.04538c-0.20295,0.12351 -0.08259,0.41952 0.11585,0.17901c0.16298,-0.19778 -0.03989,-0.34115 -0.24685,-0.45639c0.2087,-0.26139 0.33738,-0.28498 0.53376,0.01004c0.03235,-0.18195 0.179,-0.1091 0.33227,-0.09566l0,-0.04552c-0.06748,0.00163 -0.13951,-0.03724 -0.20629,-0.03023c0.15614,-0.24945 0.05649,-0.30645 0.27971,-0.38787c0.17774,-0.06482 0.68484,-0.00447 0.74732,-0.17183c-0.35489,0.0691 -0.78366,0.08562 -1.10385,0.24723c-0.13804,0.06967 -0.30249,0.28964 -0.44037,0.14667c-0.14133,-0.14667 0.10106,-0.38252 0.22509,-0.4544l-0.02968,0c0.56151,-0.1196 1.14307,-0.1838 1.73971,-0.1838c0.38553,0 0.76441,0.02857 1.13631,0.07944c-0.12868,0.06768 -0.03353,0.11339 -0.12726,0.18254c-0.179,0.13186 -0.49675,0.24187 -0.70979,0.32519c0.27078,-0.00072 0.92627,0.25427 1.05241,-0.1261c-0.08743,-0.01344 -0.17461,-0.02693 -0.26196,-0.04037c0.16317,-0.10835 0.34519,-0.19604 0.53627,-0.26032c1.72439,0.34209 3.25818,1.21797 4.42496,2.44702c-0.00842,-0.00016 -0.01671,-0.00037 -0.02476,-0.00016l0,0l-0.00008,-0.00003zm1.52692,3.31711c0.01553,-0.0332 0.05181,-0.04415 0.06679,-0.07154c0.03152,-0.05759 0.02449,-0.09665 0.06328,-0.14608c0.04155,-0.05344 0.09761,-0.06653 0.14397,-0.10827c0.01872,-0.01681 0.02912,-0.03237 0.0377,-0.04822c0.13916,0.38892 0.25009,0.79103 0.33075,1.20388c-0.00243,0.00297 -0.0038,0.00744 -0.00684,0.00993c-0.02029,0.01604 -0.1525,0.03572 -0.17964,0.03665c-0.09577,0.00369 -0.16689,-0.05992 -0.23565,-0.11981c-0.06994,-0.06083 -0.15229,-0.14222 -0.20199,-0.22099c-0.05307,-0.08415 -0.02032,-0.17058 -0.0165,-0.26669c0.00315,-0.0808 -0.03612,-0.19604 -0.00187,-0.26886l0,0zm0.10796,4.33189c-0.16205,-0.14099 -0.35324,-0.32999 -0.46847,-0.51261c-0.12307,-0.19473 -0.04722,-0.3951 -0.03821,-0.6181c0.00746,-0.18755 -0.08403,-0.45443 -0.00444,-0.62329c0.03655,-0.07708 0.12029,-0.1026 0.15477,-0.16576c0.07328,-0.13376 0.05703,-0.22418 0.14694,-0.33917c0.09646,-0.12351 0.22619,-0.15392 0.33364,-0.25076c0.11259,-0.10153 0.10946,-0.18166 0.18074,-0.31173c0.05214,-0.09518 0.17469,-0.25382 0.29073,-0.33679c0.06296,0.41304 0.09577,0.83604 0.09577,1.26635c0,0.74453 -0.09892,1.46613 -0.28214,2.15368c-0.15619,-0.04035 -0.28466,-0.15309 -0.40933,-0.26182l0,0z" fill="#0e6d0e" id="svg_8"/></g>
   <g stroke="null" id="earth-2">
    <circle stroke="null" fill="#00456b" r="8.5" cy="284.5" cx="94.5" id="svg_15"/>&gt;
    <path stroke="null" p-id="21302" d="m100.49621,278.75946c-0.32508,0.00988 -0.55138,0.0105 -0.81253,0.19098c-0.10523,0.07285 -0.17667,0.16932 -0.31022,0.20683c-0.11975,0.03376 -0.24899,0.00418 -0.36778,0.04452c-0.42866,0.14568 -0.36075,1.06511 -0.92557,0.92624c-0.2653,-0.06519 -0.45229,-0.37917 -0.58584,-0.5842c-0.11761,-0.18038 -0.33182,-0.32956 -0.18715,-0.55532c-0.06598,0.01695 -0.13635,-0.00236 -0.20135,0.01001c0.0905,-0.19896 0.39395,-0.18158 0.44443,-0.28327c0.12574,-0.25486 -0.34618,-0.28147 -0.4798,-0.31681c0.16108,-0.17191 0.2426,0.05783 0.4016,0.01882c0.15277,-0.03767 -0.08064,-0.23917 -0.17226,-0.26179c-0.03291,-0.00817 -0.57089,0.14889 -0.2595,-0.13017c-0.38441,-0.24538 -0.76863,-0.49068 -1.15312,-0.73625c-0.0647,0.27301 0.51162,0.42817 0.69987,0.52436c-0.02922,0.11274 -0.20434,0.27689 -0.33842,0.22884c-0.1263,-0.04535 -0.07502,-0.25491 -0.26573,-0.23387c-0.13617,0.31703 0.28789,0.22436 0.3273,0.41863c0.04476,0.22137 -0.16031,0.12755 -0.23918,0.12372c-0.0188,-0.00096 -0.16579,-0.15333 -0.17373,-0.03799c-0.00952,0.13697 0.23445,0.08356 0.25167,0.2219c-0.28418,0.01151 -0.4293,-0.09122 -0.66065,-0.24514c-0.27001,-0.17944 -0.40855,-0.16327 -0.73936,-0.16327c0.09892,-0.0407 0.23522,-0.07087 0.31982,-0.13641c0.0462,-0.0358 0.22755,-0.21229 0.2395,-0.2517c0.05125,-0.17001 -0.00278,-0.15711 -0.16523,-0.26857c-0.1444,-0.09893 -0.31952,-0.27652 -0.49451,-0.31151c-0.63394,-0.12672 -0.19552,0.57317 -0.67674,0.66969c0.00823,0.00043 0.01714,0.0008 0.02422,0.0008l-0.02756,0c0.00123,-0.00008 0.00222,-0.00054 0.00334,-0.0008c-0.11133,-0.00399 -0.31998,-0.03111 -0.39171,0.02779c-0.05064,0.04139 -0.05489,0.20771 -0.11149,0.26793c-0.10074,0.10755 -0.25092,0.12902 -0.37112,0.20656c-0.11732,0.07577 -0.37601,0.27012 -0.44491,0.40198c-0.25396,0.48586 0.5722,0.63668 0.88544,0.77872c0.14151,0.06418 0.55509,0.15205 0.63212,0.25928c0.10331,0.14399 -0.08903,0.27901 0.12667,0.38024c0.0689,0.03224 0.21097,0.03882 0.27033,-0.02798c0.09644,-0.10884 -0.03919,-0.13339 -0.06229,-0.25909c-0.04473,-0.24198 0.02898,-0.14584 0.15052,-0.23574c0.24768,-0.18313 0.19191,-0.19435 0.1028,-0.48616c-0.04139,-0.13582 -0.1975,-0.51499 -0.06018,-0.61526c0.17905,-0.13082 0.56095,0.0709 0.69824,0.08776c0.15977,0.0196 0.25052,0.24131 0.3376,0.33199c0.05783,0.06021 0.16127,0.18798 0.26231,0.17416c0.16039,-0.02201 0.09328,-0.16241 0.1863,-0.22718c0.24955,-0.17333 0.3153,0.06212 0.41476,0.29759c0.09355,0.22118 0.1821,0.30327 0.34861,0.44514c0.07735,0.06605 0.41628,0.30174 0.3843,0.44702c-0.02168,0.09786 -0.40885,0.24629 -0.51239,0.27914c-0.37845,0.12003 -1.08839,-0.19652 -1.16465,0.4045c0.14683,-0.05475 0.5645,-0.39644 0.68976,-0.23448c0.05711,0.07347 -0.04532,0.18048 -0.0212,0.25344c0.07147,0.21877 0.23996,0.14254 0.41663,0.1072c-0.01203,0.00752 -0.02438,0.01408 -0.03743,0.01992c0.2414,-0.12423 0.21632,-0.09834 0.32709,-0.29984c0.03617,-0.06584 0.08997,-0.22517 0.14093,-0.27229c0.17547,-0.16163 0.2025,-0.05033 0.31121,0.07438c0.02847,0.03288 0.29722,0.4204 0.20156,0.40107c-0.31262,-0.06278 -0.61279,-0.05438 -0.87205,0.11681c-0.14937,0.09882 -0.29067,0.23213 -0.46908,0.29775c-0.04275,0.01564 -0.35941,0.04568 -0.32198,-0.00838c0.05465,-0.07885 0.24271,-0.13103 0.31693,-0.21614c-0.20568,-0.08482 -0.37722,0.10246 -0.53884,0.21197c-0.17151,0.08126 -0.21137,0.23266 -0.35741,0.36544c-0.06374,0.05789 -0.18429,0.06774 -0.24688,0.14391c-0.06072,0.07392 -0.06826,0.19015 -0.12579,0.26032c-0.04034,0.04913 -0.14381,0.01946 -0.18595,0.09349c-0.05489,0.09676 0.05024,0.18656 0.02719,0.25625c-0.04222,0.12664 -0.28273,0.23408 -0.37524,0.32527c0.01235,-0.01189 0.02462,-0.02415 0.03671,-0.03655c-0.09269,0.0974 -0.20998,0.16902 -0.28239,0.28174c0.03323,0.15912 0.13801,0.53861 0.10879,0.62594c-0.09641,0.28726 -0.28367,-0.15625 -0.35963,-0.27082c-0.26094,-0.39374 -0.78248,-0.13025 -1.13877,-0.09759c-0.45563,0.04174 -0.90194,0.63392 -0.62086,1.11459c0.13491,0.23052 0.36187,0.31979 0.6222,0.26643c0.23172,-0.0475 0.30129,-0.3721 0.51945,-0.37802c0.40096,-0.01071 0.00885,0.39344 -0.02585,0.54177c-0.03208,0.1374 0.05,0.15009 0.19122,0.18415c0.1043,0.02498 0.25199,-0.04469 0.34241,0.01494c0.05695,0.03767 0.05419,0.2438 0.13256,0.1788c-0.15421,0.12801 -0.1182,0.43154 0.03992,0.54123c0.17531,0.12179 0.38171,0.00902 0.56525,0.05577c0.34652,0.08854 0.18111,-0.02645 0.48542,-0.21042c0.20539,-0.12396 0.23907,0.02335 0.37944,0.02394c0.09553,0.00037 0.15622,-0.13756 0.31597,-0.09743c0.1302,0.03288 0.18164,0.13352 0.33711,0.15668c0.06374,0.0094 0.12954,-0.02402 0.19033,-0.0173c0.28752,0.03199 0.50766,0.21596 0.73425,0.38233c0.18672,0.13689 0.3104,0.10916 0.52852,0.17159c0.15935,0.04549 0.45336,0.27641 0.43831,0.47917c-0.0027,0.03628 -0.14199,0.21861 -0.16579,0.30072c0.04077,0.02827 0.32436,-0.03518 0.40735,-0.04115c-0.02727,0.03178 -0.22038,0.16766 -0.22038,0.0955c0,0.037 0.13665,0.11293 0.16993,0.13652c0.10071,-0.3275 0.26616,-0.11676 0.46529,-0.03564c0.16929,0.06905 0.37767,0.07274 0.55825,0.11582c0.15328,0.03655 0.4913,0.14019 0.60487,0.26562c0.13673,0.15098 0.04222,0.39628 -0.05895,0.54651c-0.13234,0.19689 -0.33187,0.27264 -0.41443,0.50431c-0.06524,0.18361 -0.01626,0.36913 -0.05353,0.57269c-0.0504,0.27556 -0.0908,0.17896 -0.268,0.3471c-0.14911,0.14161 -0.00249,0.117 -0.20549,0.20726c-0.20392,0.09074 -0.38347,0.06375 -0.52464,0.28779c0.00564,-0.01408 0.01024,-0.02822 0.01417,-0.04295c-0.05957,0.08348 -0.08935,0.25443 -0.11758,0.31052c-0.07117,0.14313 -0.16935,0.23341 -0.28193,0.35261c-0.04313,0.04565 -0.43975,0.58827 -0.46267,0.54466c-0.02946,-0.05668 -0.34219,0.05695 -0.35709,-0.02391c0.01243,0.06795 -0.00297,0.04517 0.0747,0.08434c-0.07192,0.44594 -0.26027,0.51248 -0.69757,0.51698c0.03762,0.21432 -0.15846,0.17157 -0.24958,0.2868c-0.05328,0.06728 -0.07871,0.25649 -0.11563,0.34364c-0.02307,0.05473 -0.19378,0.27403 -0.19378,0.31748c-0.00019,0.04003 0.05743,0.09866 0.11136,0.15491c-0.30829,0.06104 -0.62263,0.10364 -0.94188,0.12959c0.05976,-0.0754 0.07414,-0.14166 -0.11622,-0.15074c0.05093,-0.13861 0.17055,-0.21767 0.22124,-0.35194c0.02404,-0.06335 0.00414,-0.08838 0.02449,-0.15116c0.06965,-0.21665 0.03944,-0.13491 0.00016,-0.30321c-0.092,-0.39446 0.03272,-0.50233 0.1401,-0.86348c0.11023,-0.37114 0.09997,-0.85224 0.1706,-1.25202c0.0335,-0.1913 0.08839,-0.58937 0.02203,-0.7702c-0.07475,-0.20367 -0.40358,-0.36407 -0.55418,-0.50102c-0.21322,-0.19454 -0.32655,-0.40474 -0.48488,-0.64519c-0.08037,-0.12212 -0.17197,-0.24195 -0.23466,-0.37473c-0.13411,-0.28391 0.00008,-0.11494 0.02265,-0.28249c0.02163,-0.16193 -0.01925,-0.30664 0.04494,-0.47657c0.07101,-0.18787 0.24827,-0.30495 0.3065,-0.4944c0.0524,-0.16865 0.01254,-0.38064 -0.16047,-0.43689c-0.09641,-0.03151 -0.20279,0.0411 -0.29968,0.02517c-0.13507,-0.02193 -0.288,-0.12292 -0.39401,-0.20367c-0.14798,-0.1129 -0.20346,-0.29639 -0.36104,-0.40345c-0.13194,-0.08921 -0.22579,-0.03582 -0.36692,-0.07756c-0.14718,-0.04343 -0.23806,-0.22527 -0.35679,-0.28222c-0.17817,-0.08536 -0.27856,0.03719 -0.46665,0.01242c-0.15996,-0.02096 -0.40393,-0.1985 -0.55338,-0.26557c-0.30391,-0.13622 -0.48897,-0.28659 -0.61052,-0.59545c-0.10406,-0.26487 -0.25578,-0.38843 -0.43443,-0.60902c-0.18103,-0.22353 -0.23771,-0.414 -0.51673,-0.47357c-0.03275,-0.00712 0.06828,0.23465 0.07871,0.25403c0.0997,0.18487 0.24942,0.35374 0.36984,0.52586c0.17718,0.25355 0.10165,0.30112 -0.07858,0.05596c-0.20611,-0.28048 -0.44526,-0.55936 -0.62404,-0.85639c-0.06759,-0.11226 -0.05462,-0.18485 -0.16608,-0.29143c-0.10772,-0.10297 -0.24867,-0.15315 -0.35714,-0.25108c-0.39026,-0.35146 -0.46122,-0.82064 -0.41671,-1.32166c0.01444,-0.16332 0.07336,-0.29395 0.04738,-0.45092c-0.02144,-0.13036 -0.09828,-0.23813 -0.19429,-0.33416c-0.03093,-0.04934 -0.1086,-0.17087 -0.11309,-0.17861c-0.0886,-0.14739 -0.15753,-0.29232 -0.29827,-0.4132c-0.08074,-0.06967 -0.28968,-0.23248 -0.48641,-0.36886c0.88384,-1.10388 2.04036,-1.97869 3.36707,-2.52185c0.01053,0.0668 0.03919,0.13347 0.08213,0.1973c0.10908,0.16201 0.21303,0.14918 0.42596,0.19403c-0.02281,0.2475 -0.31169,0.24945 -0.50723,0.22262c-0.23341,-0.0321 -0.47898,-0.10975 -0.68118,0.0951c0.1117,0.06726 0.4182,0.32913 0.37749,0.0555c0.22359,-0.01122 0.43973,-0.01788 0.65848,0.00889c0.08764,0.01076 0.38131,0.10945 0.4609,0.06444c0.03339,-0.0189 0.06898,-0.18391 0.10435,-0.23467c-0.06237,0.00035 -0.12921,-0.03116 -0.19132,-0.02519c0.14486,-0.18573 0.28918,-0.04003 0.47352,0.04538c-0.20295,0.12351 -0.08259,0.41952 0.11585,0.17901c0.16298,-0.19778 -0.03989,-0.34115 -0.24685,-0.45639c0.2087,-0.26139 0.33738,-0.28498 0.53376,0.01004c0.03235,-0.18195 0.179,-0.1091 0.33227,-0.09566l0,-0.04552c-0.06748,0.00163 -0.13951,-0.03724 -0.20629,-0.03023c0.15614,-0.24945 0.05649,-0.30645 0.27971,-0.38787c0.17774,-0.06482 0.68484,-0.00447 0.74732,-0.17183c-0.35489,0.0691 -0.78366,0.08562 -1.10385,0.24723c-0.13804,0.06967 -0.30249,0.28964 -0.44037,0.14667c-0.14133,-0.14667 0.10106,-0.38252 0.22509,-0.4544l-0.02968,0c0.56151,-0.1196 1.14307,-0.1838 1.73971,-0.1838c0.38553,0 0.76441,0.02857 1.13631,0.07944c-0.12868,0.06768 -0.03353,0.11339 -0.12726,0.18254c-0.179,0.13186 -0.49675,0.24187 -0.70979,0.32519c0.27078,-0.00072 0.92627,0.25427 1.05241,-0.1261c-0.08743,-0.01344 -0.17461,-0.02693 -0.26196,-0.04037c0.16317,-0.10835 0.34519,-0.19604 0.53627,-0.26032c1.72439,0.34209 3.25818,1.21797 4.42496,2.44702c-0.00842,-0.00016 -0.01671,-0.00037 -0.02476,-0.00016l0,0l-0.00008,-0.00003zm1.52692,3.31711c0.01553,-0.0332 0.05181,-0.04415 0.06679,-0.07154c0.03152,-0.05759 0.02449,-0.09665 0.06328,-0.14608c0.04155,-0.05344 0.09761,-0.06653 0.14397,-0.10827c0.01872,-0.01681 0.02912,-0.03237 0.0377,-0.04822c0.13916,0.38892 0.25009,0.79103 0.33075,1.20388c-0.00243,0.00297 -0.0038,0.00744 -0.00684,0.00993c-0.02029,0.01604 -0.1525,0.03572 -0.17964,0.03665c-0.09577,0.00369 -0.16689,-0.05992 -0.23565,-0.11981c-0.06994,-0.06083 -0.15229,-0.14222 -0.20199,-0.22099c-0.05307,-0.08415 -0.02032,-0.17058 -0.0165,-0.26669c0.00315,-0.0808 -0.03612,-0.19604 -0.00187,-0.26886l0,0zm0.10796,4.33189c-0.16205,-0.14099 -0.35324,-0.32999 -0.46847,-0.51261c-0.12307,-0.19473 -0.04722,-0.3951 -0.03821,-0.6181c0.00746,-0.18755 -0.08403,-0.45443 -0.00444,-0.62329c0.03655,-0.07708 0.12029,-0.1026 0.15477,-0.16576c0.07328,-0.13376 0.05703,-0.22418 0.14694,-0.33917c0.09646,-0.12351 0.22619,-0.15392 0.33364,-0.25076c0.11259,-0.10153 0.10946,-0.18166 0.18074,-0.31173c0.05214,-0.09518 0.17469,-0.25382 0.29073,-0.33679c0.06296,0.41304 0.09577,0.83604 0.09577,1.26635c0,0.74453 -0.09892,1.46613 -0.28214,2.15368c-0.15619,-0.04035 -0.28466,-0.15309 -0.40933,-0.26182l0,0z" fill="#0e6d0e" id="svg_16"/></g>
  </g>
  <g id="svg_23" stroke="null">
   <path fill="yellow" id="svg_17" filter="url(#blurMe)" d="m342,392c-0.20871,-0.60637 -0.54823,-0.60569 -0.75433,0.00165l-1.16393,3.42855c-0.2061,0.60733 -0.87157,1.27321 -1.4789,1.47972l-3.40305,1.15734c-0.60719,0.20651 -0.60842,0.54795 -0.00275,0.75885l3.38262,1.17763c0.60569,0.2109 1.27198,0.87953 1.48069,1.48603l1.18051,3.43171c0.20857,0.60651 0.54713,0.60541 0.75213,-0.00233l1.15254,-3.41676c0.20486,-0.60774 0.8691,-1.27499 1.47588,-1.48274l3.45639,-1.18381c0.60678,-0.20774 0.6061,-0.5459 -0.00151,-0.75131l-3.40168,-1.15062c-0.6076,-0.20555 -1.27555,-0.86979 -1.48425,-1.47616l-1.19039,-3.45776l0,0.00001l0.00003,0z" stroke="null"/>
   <circle cy="397.31496" cx="394.0315" r="3.68504" fill="white" filter="url(#blurMe)" id="svg_18" stroke="null"/>
   <circle cy="355.55118" cx="338.7559" r="3.07087" fill="white" filter="url(#blurMe)" id="svg_19" stroke="null"/>
   <circle cy="369.06299" cx="408.15748" r="1.84252" fill="white" filter="url(#blurMe)" id="svg_20" stroke="null"/>
   <circle cy="381.34646" cx="333.84252" r="1.84252" fill="white" filter="url(#blurMe)" id="svg_21" stroke="null"/>
   <circle cy="348.79528" cx="363.93701" r="3.68504" fill="white" filter="url(#blurMe)" id="svg_22" stroke="null"/>
   <rect fill="none" stroke="#ffffff" x="324.66667" y="337" width="94" height="72" id="svg_31"/>
   <text id="svg_24" font-size="15" fill="white" x="327" y="404">
    <tspan id="svg_25" x="327" y="424">Stars as seen</tspan>
    <tspan id="svg_26" x="327" y="444">in July</tspan>
   </text>
  </g>
  <g id="svg_39" stroke="null">
   <path fill="yellow" id="svg_28" filter="url(#blurMe)" d="m121,179.436c-0.20871,-0.60637 -0.54823,-0.60569 -0.75433,0.00165l-1.16393,3.42855c-0.2061,0.60733 -0.87157,1.27321 -1.4789,1.47972l-3.40305,1.15734c-0.60719,0.20651 -0.60842,0.54795 -0.00275,0.75885l3.38262,1.17763c0.60569,0.2109 1.27198,0.87953 1.48069,1.48603l1.18051,3.43171c0.20857,0.60651 0.54713,0.60541 0.75213,-0.00233l1.15254,-3.41676c0.20486,-0.60774 0.8691,-1.27499 1.47588,-1.48274l3.45639,-1.18381c0.60678,-0.20774 0.6061,-0.5459 -0.00151,-0.75131l-3.40168,-1.15062c-0.6076,-0.20555 -1.27555,-0.86979 -1.48425,-1.47616l-1.19039,-3.45776l0,0.00001l0.00003,0z" stroke="null"/>
   <circle cy="191.31496" cx="136.0315" r="3.68504" fill="white" filter="url(#blurMe)" id="svg_29" stroke="null"/>
   <circle cy="149.55118" cx="80.7559" r="3.07087" fill="white" filter="url(#blurMe)" id="svg_30" stroke="null"/>
   <circle cy="163.06299" cx="150.15748" r="1.84252" fill="white" filter="url(#blurMe)" id="svg_32" stroke="null"/>
   <circle cy="175.34646" cx="75.84252" r="1.84252" fill="white" filter="url(#blurMe)" id="svg_33" stroke="null"/>
   <circle cy="142.79528" cx="105.93701" r="3.68504" fill="white" filter="url(#blurMe)" id="svg_34" stroke="null"/>
   <rect fill="none" stroke="#ffffff" x="66.66667" y="131" width="94" height="72" id="svg_35"/>
   <text id="svg_38" font-size="15" fill="white" x="70" y="219">
    <tspan id="svg_36" x="70" y="219">Stars as seen</tspan>
    <tspan id="svg_37" x="70" y="239">in January</tspan>
   </text>
  </g>
  <text id="svg_40" font-size="15" fill="white" x="122" y="365">Sun</text>
  <text id="svg_27" font-size="15" fill="white" x="39" y="287">Earth</text>
  <text id="svg_41" font-size="15" fill="white" x="114" y="357" transform="rotate(45.8647 179.176 351)">1 a.u.</text>
  <text id="svg_42" font-size="15" fill="white" x="470" y="125">
   <tspan x="436" y="125" id="svg_44">Observed</tspan>
   <tspan x="436" y="145" id="svg_45">Star</tspan>
  </text>
  <text id="svg_43" font-size="15" fill="white" x="301" y="20">
   <tspan x="301" y="20" id="svg_46">Distant Star</tspan>
   <tspan x="301" y="40" id="svg_47">Background</tspan>
  </text>
  <text font-size="15" fill="white" x="309" y="99" id="svg_48">
   <tspan x="309" y="99" id="svg_49">Parallax</tspan>
   <tspan x="309" y="119" id="svg_50">angle</tspan>
  </text>
  <text font-size="15" fill="white" x="145" y="494" id="svg_51">Earth's yearly motion around the Sun</text>
  <text id="svg_52" font-size="15" fill="white" x="182" y="428" transform="rotate(45.8647 247.176 422)">1 a.u.</text>
  <path id="svg_54" marker-end="url(#Triangle)" d="m330,130q5,20 30,20" fill="none" stroke="white"/>
 </g>
</svg>