<svg width="1080" height="720" xmlns="http://www.w3.org/2000/svg" t="1643443143042" class="icon" version="1.1" p-id="15924">
 <g id="Layer_1">
  <title>Layer 1</title>
  <g stroke="null">

   <path stroke="null" p-id="19307" d="m617.06728,561.06425l0,151.45101l36.99234,0l0,-69.63264l7.83367,0l0,69.63264l37.42755,0l0,-151.45101l-37.42755,0l0,56.14132l-7.83367,0l0,-56.14132l-36.99234,0zm128.8204,0l-36.12194,0l0,151.45101l36.12194,0l0,-151.45101zm5.65765,0l28.72347,151.45101l43.0852,0l28.72347,-151.45101l-38.29795,0l-9.57449,64.84541c-0.8704,2.61122 -3.48163,2.61122 -3.91684,0l-9.57449,-64.84541l-39.16836,0zm180.17447,0l-71.80867,0l0,151.45101l71.80867,0l0,-39.60357l-40.03877,-0.43521l0,-16.97296l19.14898,0l0,-39.60357l-19.14898,0l0,-15.23214l40.03877,0l0,-39.60357z"/>
   <path stroke="null" p-id="19308" fill="#FDEE21" d="m543.5178,101.48878c-6.09286,-16.53776 -214.5556,-97.48571 -217.16682,-88.78162c-38.29795,10.0097 -53.9653,53.9653 -80.07754,81.81836l-58.31734,-3.48164c-25.67703,33.0755 -39.16836,67.02142 -30.02908,101.83775c33.07551,45.26122 71.37347,83.55918 94.87448,139.7005c1.74081,26.54744 114.45867,2.61122 138.83009,-2.61122c-33.0755,23.50102 -61.79897,60.05816 -49.17805,165.81274c11.3153,49.61326 19.14897,104.88417 118.8107,160.59029c13.05612,7.39847 40.47398,16.10255 57.01172,22.19541c16.10255,7.39847 34.81633,10.4449 87.91122,-5.65765c30.89948,-13.05612 63.97499,-21.325 94.00407,-34.38112l-36.12194,1.74082c-49.61326,0.8704 -88.34642,4.78724 -100.09693,-9.13928l-45.69642,-79.64234l26.54745,-51.78928c36.99234,3.91684 49.17805,33.94592 81.81835,45.26122l38.29796,-28.28827c111.41223,65.71581 155.80304,-41.77959 168.42396,-125.33876c-1.30561,-33.94592 -73.98469,10.8801 -69.19744,-5.22245c1.74081,-36.55714 -28.28827,-84.42959 -47.43725,-121.85713l22.19541,-86.60561c10.0097,-9.13928 -47.00204,-105.31937 -93.56886,-117.06988c-40.47398,-10.88011 -101.83775,40.90918 -101.83775,40.90918z"/>
   <path stroke="null" p-id="19309" fill="#C8C037" d="m726.7387,285.14489c0.4352,9.13928 0.4352,20.45458 1.30561,27.41785c0,5.22245 -4.35204,5.65765 -7.39847,6.52806l21.7602,7.83367c4.35204,7.39846 7.83367,14.36173 11.31531,21.7602c3.91684,17.84337 0.8704,18.27857 -1.74082,19.58418c-7.83367,0 -15.66735,0 -23.06581,-1.30561c3.48163,1.74082 3.91684,3.04643 4.35204,5.22245c0.4352,3.91684 -2.17602,9.57449 -6.52806,15.23214c6.52806,3.48164 18.27857,6.96326 26.98265,10.4449l10.00969,-22.19541c-4.78724,-32.2051 -18.27857,-61.79897 -36.99234,-90.52244zm40.47398,108.80101c12.18571,5.22245 28.72347,3.48164 51.78928,-8.26887c3.48163,-2.61122 6.52806,-0.87041 0.4352,3.04643c-30.46428,26.98265 -44.82601,13.49132 -52.22449,5.22245z"/>
   <path stroke="null" p-id="19310" fill="#C8C037" d="m821.17797,382.19539c3.48164,6.96326 1.30561,12.18571 0,18.27857c-3.91684,29.59388 -13.05612,52.65969 -30.89948,77.03112c-58.31734,94.00407 -117.50509,35.25153 -164.50713,-3.04643l-19.58418,48.74285c-0.87041,4.35204 -5.22245,7.39847 25.24183,20.88979l30.89949,-21.7602c118.37549,89.65204 201.93467,-126.20917 158.84947,-140.1357zm-181.04488,83.99438c-7.83367,0.43521 -31.7699,8.70408 -32.6403,13.49133l10.8801,-16.10255l21.7602,2.61122zm-15.66735,-99.66172c1.30561,0 8.26887,1.74081 7.83367,1.30561c-0.87041,-0.4352 0,10.0097 2.17601,15.23214l-8.70408,18.71377c16.53775,-18.71377 42.21479,-17.84337 66.15101,-20.01938l-11.3153,-6.96327c2.17601,-6.52806 -0.43521,-11.75051 -1.30561,-17.40816l-54.83571,9.13928zm40.47398,-56.14132c-17.40817,5.22245 -34.38112,14.36173 -45.69642,33.0755c8.70408,-30.89948 10.4449,-29.59387 13.05612,-31.33469c12.18571,-5.65765 22.19541,-2.17601 32.6403,-1.74081z"/>
   <path stroke="null" p-id="19311" fill="#FCF6A0" d="m570.93565,672.9117c-21.325,23.50102 -68.76224,-1.74082 -107.93061,-14.79694c-100.09693,-63.53979 -119.68111,-123.59794 -120.98673,-182.35049c-5.22245,-84.42959 20.88979,-133.17244 53.5301,-144.92295c-21.7602,41.77959 -31.76989,116.63468 -21.7602,172.3408c8.26887,30.89948 8.26887,83.12397 60.05816,111.41223c25.24183,14.36173 18.71377,25.24183 35.68673,38.73316c18.71377,14.79693 71.37347,28.72347 101.40254,19.58418zm31.76989,-389.07242c-36.12194,-50.91887 -86.6056,-70.06785 -143.61733,-72.24388c11.31531,-3.91684 23.06582,-5.65765 34.38112,-11.3153c2.61122,-3.04643 1.74082,-8.26888 0.87041,-13.49133c-54.83571,-14.36173 -89.65204,-32.20509 -133.60764,-48.74285l118.37549,28.72347c80.07755,3.04643 73.11428,23.06582 123.59795,117.06989z"/>
   <path stroke="null" p-id="19312" fill="#FCF6A0" d="m641.43871,259.03265c-26.54745,-37.86275 -52.22449,-83.99439 -87.47601,-113.58826c-84.42959,-37.86275 -168.42396,-66.15102 -266.34487,-91.82806l31.33469,-40.03877c104.01376,23.93622 201.49947,63.53979 288.97548,128.82039c15.23214,37.42755 24.80663,74.8551 33.51071,116.63469zm53.5301,-67.02143s-14.79694,-33.51071 -22.19541,-46.13163c-16.97296,-18.71377 -25.24184,-53.5301 -60.05816,-70.06785c10.8801,3.04643 18.27857,-0.4352 40.47398,19.58418l35.25153,66.58622l6.52806,30.02908z"/>
   <path stroke="null" p-id="19313" fill="#FCF6A0" d="m713.68258,249.89337c3.48164,-29.15868 10.0097,-75.2903 2.61122,-94.00407c-20.88979,-27.85306 -41.77959,-57.01173 -62.66938,-83.55918c-3.48164,-3.04643 -6.09286,-7.83367 -8.70408,-10.88011c29.59388,7.83367 60.49337,28.28827 101.83775,109.23622l-33.0755,79.20714z"/>
   <path stroke="null" p-id="19314" d="m589.21422,253.37499c-11.75051,-9.13928 -22.19541,-41.77959 -40.03877,-48.74285c-16.53776,-1.30561 -22.63061,-6.52806 -44.39081,-2.17602c7.83367,-3.91684 15.23214,-9.13928 23.50102,-11.75051c5.65765,-1.30561 10.8801,0 16.53776,0.87041c1.30561,-0.4352 2.17601,-1.30561 1.74081,-2.61122c-21.7602,-13.49132 -66.58622,-13.49132 -97.0505,-21.325c35.25153,1.30561 73.98468,-0.87041 100.53213,7.83367c21.325,18.71377 28.28826,54.4005 39.16836,77.90152zm64.4102,-157.97907c4.78725,0.43521 30.89949,41.77959 32.2051,48.74286c2.17601,15.23214 7.39846,31.76989 9.13928,47.87244c-4.35205,-15.23214 -9.13928,-30.46428 -14.79694,-45.26122c-1.74081,-4.35205 -6.09285,-13.49133 -18.27857,-26.98265c-5.65765,-9.57449 -6.96326,-16.97296 -8.26887,-24.37143zm88.78162,225.8709l-11.31531,0l12.18572,3.04643l-0.87041,-3.04643zm-76.59591,-10.8801c-11.3153,-1.30561 -22.63061,-1.74081 -33.94592,0.87041c-4.78724,6.09285 -4.78724,12.62091 -6.96326,18.27857c13.49132,-15.23214 19.14898,-16.10255 40.90918,-19.14898zm154.06223,77.90153c-6.09285,4.78724 -6.96326,9.57449 -25.67703,15.23214c-13.49133,3.04643 -21.325,-2.17601 -27.41785,-9.57449c9.57449,2.61122 11.3153,10.0097 36.99234,1.74081l16.10255,-7.39846zm-56.14132,3.04643c-4.35204,12.62092 -9.57449,24.80663 -14.36173,36.55714c-11.75051,13.92653 -6.52806,6.09286 -24.37142,26.98265c5.65765,-8.70408 13.05612,-16.97296 16.53775,-26.11224c2.61122,-6.09286 6.09286,-12.18572 7.39847,-17.40817c-4.78725,-2.17601 -13.92653,-2.61122 -15.23214,-1.74081c-15.66735,9.13928 -18.27857,18.71377 -27.41785,28.28827c6.52806,-10.4449 12.18572,-22.19541 20.01939,-31.7699c0.8704,-1.30561 6.52806,-1.30561 10.00969,-2.17601c-5.65765,-0.87041 -15.66735,-3.04643 -16.53775,-2.61122c-10.0097,2.61122 -15.66735,11.3153 -23.50102,16.97296c5.65765,-7.83367 10.4449,-16.10255 17.40816,-23.06582c0.87041,-0.87041 19.58418,0.87041 29.15867,4.78725l0,3.91684l5.65766,2.17601l4.35204,-10.4449l10.8801,-4.35204zm-123.16274,74.85509c-2.61122,-0.8704 -24.80663,-3.91684 -24.80663,-3.04643c-8.70408,6.09286 -9.57449,11.75051 -9.57449,16.97296c13.92652,-13.92653 13.49132,-13.92653 34.38112,-13.92653zm-16.97296,-100.09692s16.10255,-2.17602 15.66735,-0.87041c-1.30561,5.65765 2.17602,19.14898 2.17602,16.97296l-9.13928,7.39847c18.71377,-9.57449 38.73315,-7.39847 58.75255,-9.13928c0,0 -16.97296,-4.78725 -15.66735,-4.78725c3.91684,-0.4352 -0.87041,-17.40816 -2.17602,-17.84337c3.04643,-0.8704 6.52806,-1.74081 9.57449,-2.61122c-24.37142,-6.09285 -38.29795,-2.61122 -59.18775,10.88011z"/>
   <path stroke="null" p-id="19315" d="m761.55502,378.27856l-3.48164,1.74081c-0.4352,-10.4449 -11.75051,-9.57449 -20.88979,-9.57449l-7.83367,-1.74081c2.17602,2.17601 9.57449,2.17601 6.52806,6.52806c-2.61122,1.30561 -3.48164,6.96326 -4.78725,11.75051l-4.35204,0c7.39847,3.04643 14.36173,5.22245 22.19541,8.70408l4.78725,0.87041l11.3153,-6.09286l-3.48163,-12.18571z"/>
   <path stroke="null" p-id="19316" fill="#FFFFFF" d="m655.80044,370.88008c-1.74082,-3.48163 -10.88011,-3.04643 -12.62092,-0.8704c-1.74081,1.74081 0,13.92652 1.74081,11.75051c3.04643,-2.61122 6.96327,-3.48164 11.31531,-3.48164c0.87041,-2.17602 0.4352,-4.78725 -0.4352,-7.39847zm86.6056,17.84337c0.87041,-0.4352 2.61122,-6.52806 2.17602,-8.26887c-1.30561,-4.35205 -9.57449,-3.48164 -9.57449,-3.48164c-2.17601,1.30561 -3.91684,7.83367 -3.04643,10.0097c0.4352,2.17601 9.13928,2.61122 10.4449,1.74081z"/>
   <path stroke="null" p-id="19317" d="m383.36271,596.31578l5.22245,0.4352c31.33469,15.23214 83.12397,38.29796 158.41427,26.11224l11.75051,18.71378c-33.0755,16.10255 -68.76223,12.18571 -101.83775,13.49132l-73.54948,-58.75255zm-45.26122,-122.29234l15.66735,66.15102c42.2148,26.54744 114.45867,56.57652 174.51682,53.9653l-13.49132,-30.46428c-125.33876,-26.11224 -135.78366,-60.05816 -176.69285,-89.65204zm39.16836,-135.34845c7.83367,51.35407 17.84337,90.08724 62.66938,122.72754c27.41785,19.58418 54.40051,39.16836 87.47601,55.27091c0,0 -3.04643,15.23214 -5.22245,14.79693c-98.35611,-10.8801 -170.16478,-92.26325 -178.86886,-129.6908c8.26888,-28.28827 20.45459,-46.13163 33.94592,-63.10458zm47.00204,-29.15868c13.05612,57.01173 44.39081,114.45867 75.2903,166.68315c11.31531,14.36173 14.36173,20.88979 31.76989,29.59388c23.50102,7.39846 40.47398,5.65765 57.44693,4.35204c-4.78724,-8.70408 -8.70408,-17.84337 -14.36173,-26.11224c-38.29795,-30.46428 -20.88979,-58.31734 -10.4449,-75.7255c-21.325,-5.22245 -49.61326,-16.97296 -53.5301,-32.2051c-6.09285,-48.74285 -2.61122,-63.97499 3.48164,-89.21683c-28.72347,6.09286 -58.31734,12.18571 -89.65204,22.63061z"/>
   <path stroke="null" p-id="19318" d="m318.0821,7.48471c-9.57449,6.09286 -18.71377,15.23214 -28.72347,25.24183c-16.53776,16.97296 -27.41785,33.51071 -43.95561,45.69642c-3.48163,3.04643 -12.62091,7.39847 -24.37142,8.26888c-5.65766,0.4352 -9.13928,1.30561 -19.14898,0c-9.13928,-4.78725 -17.40816,-1.74082 -25.67704,8.26887c-9.13928,13.05612 -20.88979,37.86275 -25.67703,53.9653c-10.0097,39.60357 15.23214,72.67908 39.60357,97.92091c21.7602,20.88979 33.94592,34.38112 42.65,53.5301c6.52806,12.62092 11.75051,29.59388 16.97296,41.77959c1.74081,3.91684 1.74081,3.91684 6.96326,4.78725c11.31531,2.61122 26.98265,2.61122 40.90918,3.48164c6.09286,0 14.36173,0 22.19541,-0.87041c10.88011,-2.17602 23.50102,-3.91684 33.94592,-7.83367c10.4449,-2.61122 19.58418,-6.09286 27.85306,-9.13928c-0.87041,3.48164 -9.13928,6.96326 -12.18572,11.75051c-28.28826,40.47398 -36.12193,76.59591 -30.89948,133.17244c2.61122,25.24183 8.70408,46.13163 17.40816,70.06785c3.91684,10.8801 12.62092,28.28826 20.45459,39.60357c24.37142,34.38112 78.33673,77.90153 153.62702,94.87448c13.05612,1.74081 27.85306,0.8704 42.2148,-3.04643c36.99234,-11.3153 113.15305,-37.86275 113.15305,-37.86275s-67.45662,5.65766 -97.92091,2.61122c-6.96326,-1.30561 -14.79693,-1.30561 -20.01938,-6.52806c-0.87041,-0.8704 -3.91684,-6.96326 -1.74081,-7.39846c2.61122,0 10.4449,-3.04643 22.19541,-4.35205c-25.24184,-2.61122 -24.80663,-2.61122 -26.54745,-7.39846c-3.48163,-8.70408 -7.39846,-16.97296 -11.75051,-25.24184c10.88011,0.87041 35.68674,2.17602 43.95561,-6.09285c0,0 -14.36173,1.74081 -27.41785,0c-4.35204,-0.43521 -11.75051,-3.04643 -13.92653,-3.91684c-5.65765,-2.17602 -10.4449,-3.04643 -11.75051,-4.35205c-2.17601,-5.22245 -3.48163,-6.96326 -5.65765,-13.49132c-3.48164,-9.13928 -3.48164,-19.14898 -4.35204,-28.28827c8.26887,10.4449 19.14897,19.14898 33.0755,23.50102c0,-0.4352 18.27857,7.83367 31.76989,3.48164l2.61122,-0.87041c0,0.43521 -8.70408,0.87041 -12.18571,-0.8704c-26.98265,-11.31531 -30.89949,-21.325 -35.25153,-26.54745l-11.75051,-17.40816c3.48164,-6.96326 5.65765,-7.39847 10.0097,-7.39847c13.92652,1.74082 20.45458,2.61122 28.72347,0.87041c5.65765,12.18571 7.39846,23.93622 20.45458,32.6403c43.95561,13.05612 53.5301,-3.91684 64.4102,-18.71377c31.76989,23.50102 83.55918,30.46428 119.24591,0.4352c45.69642,-52.65969 60.05816,-135.78366 56.14132,-140.57091c-5.65765,-9.57449 -13.05612,-19.58418 -19.58418,-18.27857c-23.06582,6.09286 -31.33469,17.84337 -53.9653,15.23214c2.61122,0 7.39846,0 7.39846,-0.4352c1.74082,-19.14898 0,-28.28827 -0.8704,-30.02908c-6.96327,-15.23214 -16.10255,-31.33469 -22.19541,-43.0852c-1.74082,-2.61122 -6.52806,-21.325 -14.36173,-28.72347c-3.48164,-3.04643 -11.75051,-10.4449 -11.75051,-10.4449l-0.87041,8.26887s3.48164,0.4352 4.35204,5.65765c4.78725,19.14898 28.72347,64.84541 30.46429,67.02143c8.70408,13.92652 0.8704,30.89948 7.39846,40.47398c0.43521,1.30561 13.05612,0 23.06582,0.4352c16.10255,-3.48164 15.23214,-10.4449 29.15867,-11.75051c9.57449,-0.87041 10.4449,16.97296 10.0097,18.27857c-1.74081,19.58418 -7.83367,41.77959 -16.53776,62.66938c-18.71377,36.12194 -39.60357,68.76224 -69.63264,73.11428c-36.55714,6.52806 -55.27091,-9.57449 -74.85509,-19.58418l-7.39847,6.52806c-25.67704,25.67704 -56.14132,23.06582 -68.32703,-10.0097c-6.09286,-13.05612 -14.36173,-20.88979 -21.325,-31.76989l-36.55714,26.54744c-3.04643,6.09286 -6.96326,16.10255 -11.3153,26.98265c-3.04643,7.83367 -5.65766,20.88979 -5.65766,31.76989c-4.78724,7.83367 16.10255,40.47398 29.59388,60.05816c3.91684,5.65766 11.31531,16.10255 11.31531,16.53776c2.61122,6.96326 8.26887,13.05612 8.70408,13.49132c24.80663,32.2051 -30.89948,24.80663 -42.64999,22.63062c-22.63062,-3.48164 -44.82602,-13.05612 -65.71582,-25.67704c-1.30561,-0.87041 -2.61122,-1.30561 -3.48163,-2.17602c-24.80663,-15.66735 -47.43725,-35.68673 -67.02143,-55.27091c-11.75051,-13.05612 -22.63061,-40.03877 -30.89948,-58.75255c-12.18572,-45.69642 -29.59388,-124.90356 17.84336,-184.96172c3.04643,-3.48163 6.09286,-9.13928 9.13928,-10.4449c13.92653,-9.57449 29.59388,-16.10255 45.69642,-19.58418l-1.74081,-10.4449c-8.26887,1.74082 -35.68673,12.18572 -43.5204,16.10255c-17.84337,5.22245 -32.6403,10.4449 -55.27092,16.10255c-7.39846,0.87041 -14.36173,0.87041 -21.7602,0c-16.10255,-2.17602 -43.95561,-0.4352 -45.69642,-1.74081c-10.88011,-15.23214 -13.92653,-43.0852 -23.93623,-57.88214c-6.09285,-7.83367 -12.62091,-14.36173 -19.58418,-20.88979c-23.93622,-23.93622 -44.82601,-47.00204 -50.48366,-71.80867c-1.30561,-7.39846 -5.22245,-14.79693 -3.04643,-36.12193c5.65766,-20.01939 15.23214,-36.55714 31.33469,-52.65969c16.53776,0.43521 33.07551,0.43521 46.13163,3.04643c6.09285,0.8704 18.27857,2.61122 30.89948,7.39846c32.2051,11.75051 74.41989,31.7699 74.41989,31.7699c-31.76989,-17.40817 -67.45662,-40.03877 -89.65203,-44.82602c-3.48164,-0.4352 -5.22245,-2.17601 -6.52806,-4.78724c33.94592,-20.01939 40.03877,-43.0852 62.23417,-63.97499c10.0097,-4.35205 13.92653,-6.52806 22.63062,-7.39847c79.64234,12.62092 130.126,44.39081 169.72958,65.71581c16.10255,8.70408 30.89948,15.23214 44.82601,23.50102c12.18571,3.91684 49.17806,31.7699 60.05816,47.00204c10.8801,23.06582 19.14898,48.30765 26.54744,72.67908c5.22245,24.80663 10.0097,34.81633 10.0097,34.81633s-4.35204,-20.45459 -3.91684,-24.37143c4.78725,1.74081 15.66735,5.22245 20.01938,4.78725c0,0 -20.45458,-10.4449 -23.06581,-19.58418c-8.70408,-29.59388 -16.97296,-76.16071 -19.58418,-78.33673c-6.52806,-8.26888 -33.51071,-28.72347 -50.04847,-38.29796c-6.09285,-3.48163 -9.57449,-6.09285 -10.00969,-7.39846c5.22245,-5.22245 11.75051,-12.62092 17.84336,-16.97296c5.65766,-4.35205 10.88011,-9.13928 18.71378,-12.18572c34.38112,-15.66735 54.4005,6.09286 58.75255,1.74082c0,0 -7.39847,-8.70408 -3.91684,-6.96327c3.48163,1.74082 14.36173,3.91684 15.66735,5.22245c12.62091,10.0097 45.69642,45.69642 65.28061,83.99439c4.78724,9.13928 6.52806,15.23214 4.35204,26.54744c-2.17602,11.31531 -3.91684,17.40816 -6.52806,24.80663c-2.17602,4.78725 -14.36173,39.16836 -14.36173,43.95561c-2.61122,18.71377 8.26887,42.21479 8.26887,42.21479c0,-6.52806 -0.4352,-10.0097 0,-14.36173l0.87041,-8.26887s-0.4352,-2.17602 -0.4352,-3.04643c0.4352,-5.65765 1.74081,-10.4449 2.17601,-13.49132c3.91684,-24.37143 10.88011,-42.21479 18.71378,-63.97499c2.17601,-5.22245 5.22245,-8.26887 5.22245,-12.62092c0,-7.39846 -6.52806,-16.97296 -11.31531,-26.98265c-5.22245,-10.88011 -11.31531,-21.7602 -17.84337,-32.2051c-16.97296,-24.80663 -31.76989,-43.95561 -58.31734,-56.14132c-7.39847,-3.48164 -36.99235,-6.52806 -47.00204,-4.78725c-12.18572,2.61122 -23.06582,5.22245 -31.33469,10.4449c-13.49133,8.70408 -23.93623,21.7602 -36.12194,29.59388c-26.98265,-13.49132 -40.03877,-23.93622 -42.65,-25.24183c-16.10255,-8.70408 -35.68673,-18.71378 -56.14132,-28.28827c-10.8801,-10.8801 -72.67907,-33.51071 -129.6908,-37.86275zm347.29283,506.57751c-16.53776,-13.05612 -30.89949,-26.54744 -40.03877,-40.47398c-3.04643,16.10255 -13.92652,27.85306 -22.63061,39.16836c-1.74081,2.61122 -3.04643,6.52806 5.22245,17.84337c2.17602,3.04643 10.4449,3.48163 15.66735,3.48163c-5.65765,-4.35204 -13.92653,-8.70408 -15.23214,-12.62091c10.0097,6.52806 18.71378,8.70408 26.98265,7.39846c1.74081,0 4.35204,-2.17601 6.09286,-5.22245c3.48163,-7.83367 6.52806,-9.57449 9.57449,-11.75051l6.52806,8.26888l7.83367,-6.09286z"/>
  </g>
 </g>

</svg>