<?xml version="1.0" encoding="UTF-8"?>
<svg width="112px" height="32px" viewBox="0 0 112 32" version="1.1" xmlns="http://www.w3.org/2000/svg" xmlns:xlink="http://www.w3.org/1999/xlink">
    <title>编组</title>
    <defs>
        <polygon id="path-1" points="0.084983808 0.09364992 5.67602381 0.09364992 5.67602381 19.0620918 0.084983808 19.0620918"></polygon>
    </defs>
    <g id="首页" stroke="none" stroke-width="1" fill="none" fill-rule="evenodd">
        <g transform="translate(-360.000000, -14.000000)" id="导航条">
            <g id="编组" transform="translate(360.000000, 14.000000)">
                <path d="M11.237012,0.1991808 L6.02406605,0.1991808 C2.69669837,0.1991808 0.000419328,2.89615872 0.000419328,6.22282752 L0.000419328,13.4702131 L2.34376397,13.4702131 C4.13778893,13.4702131 5.59145933,12.0172416 5.59145933,10.2239155 L5.59145933,6.22212864 C5.59145933,5.98381056 5.78435021,5.7902208 6.02336717,5.7902208 L11.237012,5.7902208 C12.6361697,5.7902208 13.9346888,6.14455296 14.946667,6.53872128 C16.2479816,7.04540928 17.7254139,6.65613312 18.5661665,5.54141952 L20.4433582,3.05340672 C20.4433582,3.05340672 16.8783713,0.1991808 11.237012,0.1991808" id="Fill-1" fill="#1E69FF"></path>
                <path d="M44.2263145,30.336983 L35.784543,30.336983 C34.1267996,30.336983 32.5012047,30.0686131 30.9601743,29.5486464 C28.9907305,28.8833126 28.1884163,26.5308826 29.3520515,24.8088422 L30.4870326,23.1294336 C32.0525238,24.186839 33.8842883,24.745943 35.784543,24.745943 L41.1414582,24.745943 C42.8446287,24.745943 44.2263145,26.1269299 44.2263145,27.8307994 L44.2263145,30.336983 Z" id="Fill-3" fill="#1E69FF"></path>
                <path d="M44.2263145,0.1991808 L35.784543,0.1991808 C27.4622799,0.1991808 20.7152924,6.94616832 20.7152924,15.2684314 L20.7152924,16.5180288 C20.7152924,19.7293824 19.1106639,22.7876813 16.3521846,24.4328448 C11.8199478,27.1354138 7.15142938,24.7599206 5.9102185,20.867159 C5.51115802,19.6168627 4.29161242,18.8103552 2.97911578,18.8103552 L0.000489216,18.8103552 C0.000489216,25.6321229 5.54959642,31.1812301 12.3713641,31.1812301 C20.0555497,31.1812301 26.3063324,24.9304474 26.3063324,17.2462618 L26.3063324,15.2684314 C26.3063324,10.0338202 30.5499318,5.7902208 35.784543,5.7902208 L41.0205519,5.7902208 C42.790815,5.7902208 44.2263145,4.35542016 44.2263145,2.58515712 L44.2263145,0.1991808 Z" id="Fill-5" fill="#1E69FF"></path>
                <path d="M37.0477686,13.4772019 C37.0477686,14.8008806 35.9749878,15.8736614 34.6513091,15.8736614 C33.3283292,15.8736614 32.2555484,14.8008806 32.2555484,13.4772019 C32.2555484,12.1535232 33.3283292,11.0814413 34.6513091,11.0814413 C35.9749878,11.0814413 37.0477686,12.1535232 37.0477686,13.4772019" id="Fill-7" fill="#FFCC01"></path>
                <path d="M58.6414134,30.3185326 L56.214902,30.3185326 C54.4670031,30.3185326 53.0503734,28.9019028 53.0503734,27.154004 L53.0503734,0.594467328 L55.4768847,0.594467328 C57.2247836,0.594467328 58.6414134,2.01109709 58.6414134,3.75899597 L58.6414134,30.3185326 Z" id="Fill-9" fill="#1E69FF"></path>
                <path d="M85.1783762,30.3144791 L82.8462136,30.3144791 C81.0465976,30.3144791 79.5873362,28.8559165 79.5873362,27.0556017 L79.5873362,19.1897073 L85.1783762,19.1897073 L85.1783762,30.3144791 Z" id="Fill-11" fill="#1E69FF"></path>
                <path d="M74.092532,13.4505746 C71.0621883,13.4505746 68.5972385,15.981918 68.5972385,19.0933317 C68.5972385,22.2040466 71.0621883,24.73539 74.092532,24.73539 C77.1221768,24.73539 79.5871265,22.2040466 79.5871265,19.0933317 C79.5871265,15.981918 77.1221768,13.4505746 74.092532,13.4505746 M74.092532,30.32643 C67.9794286,30.32643 63.0061985,25.2875052 63.0061985,19.0933317 C63.0061985,12.8991583 67.9794286,7.85953459 74.092532,7.85953459 C80.2049364,7.85953459 85.1781665,12.8991583 85.1781665,19.0933317 C85.1781665,25.2875052 80.2049364,30.32643 74.092532,30.32643" id="Fill-13" fill="#1E69FF"></path>
                <g transform="translate(89.456640, 0.081210)">
                    <mask id="mask-2" fill="white">
                        <use xlink:href="#path-1"></use>
                    </mask>
                    <g id="Clip-16"></g>
                    <path d="M5.67602381,19.0620918 L0.084983808,19.0620918 L0.084983808,0.093090816 L2.43811277,0.093090816 C4.22654669,0.093090816 5.67602381,1.54326682 5.67602381,3.33170074 L5.67602381,19.0620918 Z" id="Fill-15" fill="#1E69FF" mask="url(#mask-2)"></path>
                </g>
                <path d="M100.627468,13.5004047 C97.5978232,13.5004047 95.1328735,16.0317481 95.1328735,19.1431619 C95.1328735,22.2538767 97.5978232,24.7852201 100.627468,24.7852201 C103.657812,24.7852201 106.122761,22.2538767 106.122761,19.1431619 C106.122761,16.0317481 103.657812,13.5004047 100.627468,13.5004047 M100.627468,30.3762601 C94.5150636,30.3762601 89.5418335,25.3373353 89.5418335,19.1431619 C89.5418335,12.9489884 94.5150636,7.90936474 100.627468,7.90936474 C106.740571,7.90936474 111.713801,12.9489884 111.713801,19.1431619 C111.713801,25.3373353 106.740571,30.3762601 100.627468,30.3762601" id="Fill-17" fill="#1E69FF"></path>
            </g>
        </g>
    </g>
</svg>