<?xml version="1.0" encoding="utf-8"?>
<!-- Generator: Adobe Illustrator 22.0.0, SVG Export Plug-In . SVG Version: 6.00 Build 0)  -->
<svg version="1.1" id="图层_1" xmlns="http://www.w3.org/2000/svg" xmlns:xlink="http://www.w3.org/1999/xlink" x="0px" y="0px"
	 viewBox="0 0 244 200" style="enable-background:new 0 0 244 200;" xml:space="preserve">
<style type="text/css">
	.st0{fill:#D6473B;fill-opacity:0.4;}
	.st1{fill:#EF6A63;}
	.st2{fill:#FA4E4E;}
	.st3{fill:#FFFFFF;}
</style>
<path class="st0" d="M195.5,46.7l0.5,139c0,3.2-2.6,5.8-5.8,5.8H55.9c-3.2,0-5.8-2.6-5.8-5.8V14.3c0-3.2,2.6-5.8,5.8-5.8l102-0.2
	l-8-8.3H56.1c-7.5,0-13.6,6.1-13.6,13.6c0,0,0,0,0,0v172.8c0,7.5,6.1,13.6,13.6,13.6c0,0,0,0,0,0h133.8c7.5,0,13.6-6.1,13.6-13.6
	c0,0,0,0,0,0V55L195.5,46.7L195.5,46.7z"/>
<path class="st1" d="M149.9,40.3c0,8.1,6.6,14.8,14.7,14.8c0,0,0,0,0,0h38.9L149.9,0V40.3z"/>
<path class="st2" d="M122,94H39.5c-10.4,0-18.8-8.4-18.8-18.8c0,0,0,0,0,0V62.7c0-10.4,8.4-18.8,18.8-18.9c0,0,0,0,0,0H122
	c10.4,0,18.8,8.4,18.8,18.8c0,0,0,0,0,0v12.5C140.8,85.5,132.4,94,122,94C122,94,122,94,122,94"/>
<path class="st3" d="M32.3,52.3h19.5v6.9H39.6v5.2h11.3v6.6H39.6v6.4h12.6v7.4H32.3L32.3,52.3z M63.4,66.2h1.8c1.4,0,2.4-0.3,3-1
	c0.6-0.7,0.9-1.5,0.9-2.6c0-1-0.2-1.9-0.7-2.6c-0.5-0.7-1.4-1.1-2.8-1.1h-2.1C63.4,59,63.4,66.2,63.4,66.2z M56.1,52.3h12.1
	c2.6,0,4.6,0.9,5.9,2.6c1.3,1.7,2,4.2,2,7.4c0,3.3-0.7,5.9-2.1,7.7c-1.4,1.8-3.6,2.8-6.6,2.8h-4v12.1h-7.3
	C56.1,84.9,56.1,52.3,56.1,52.3z M95.2,52.3h7.3v19.4c0,1.9-0.2,3.7-0.7,5.4c-0.4,1.6-1.1,3.1-2,4.5c-0.9,1.3-1.9,2.2-2.9,2.7
	c-1.4,0.7-3.1,1.1-5.1,1.1c-1.1,0-2.4-0.1-3.8-0.3c-1.4-0.2-2.5-0.7-3.4-1.3c-0.9-0.7-1.7-1.6-2.5-2.8c-0.7-1.2-1.3-2.4-1.6-3.8
	c-0.5-2.1-0.7-3.9-0.7-5.5V52.3h7.3v19.8c0,1.8,0.4,3.2,1.1,4.2c0.7,1,1.7,1.5,3,1.5c1.3,0,2.2-0.5,3-1.5c0.7-1,1.1-2.4,1.1-4.2
	L95.2,52.3L95.2,52.3z M114.7,77.9h3.7c1.3,0,2.1-0.3,2.7-0.9c0.5-0.6,0.8-1.4,0.8-2.5c0-1-0.3-1.7-0.8-2.3
	c-0.5-0.6-1.4-0.9-2.7-0.9h-3.7L114.7,77.9L114.7,77.9z M114.7,65.1h3.2c1.1,0,1.9-0.3,2.4-0.8c0.4-0.5,0.7-1.3,0.7-2.3
	c0-0.9-0.2-1.7-0.7-2.2c-0.4-0.5-1.2-0.8-2.3-0.8h-3.2V65.1z M107.4,52.3H121c2.3,0,4,0.8,5.2,2.3c1.2,1.6,1.8,3.5,1.8,5.8
	c0,1.9-0.4,3.6-1.3,4.9c-0.6,0.9-1.4,1.6-2.5,2.2c1.7,0.6,2.9,1.5,3.7,2.9c0.8,1.4,1.2,3.1,1.2,5.2c0,1.7-0.3,3.2-0.9,4.6
	c-0.6,1.3-1.3,2.4-2.3,3.2c-0.6,0.5-1.5,0.8-2.8,1.1c-1.6,0.3-2.7,0.4-3.3,0.4h-12.6L107.4,52.3L107.4,52.3z"/>
<path class="st1" d="M121.9,175.4c-2,0-3.8-1.3-4.3-3.2L102,120.8c-0.7-2.4,0.6-4.9,3-5.7c0.2-0.1,0.5-0.1,0.7-0.2l48.9-6.6
	c2.1-0.3,4.2,1,4.9,3l7,20.4c0.8,2.4-0.4,5-2.8,5.8c0,0,0,0-0.1,0l-26.1,8.6c-2.4,0.8-4.9-0.5-5.7-2.9c0,0,0,0,0,0
	c-0.8-2.4,0.5-4.9,2.9-5.7c0,0,0,0,0,0l21.8-7.1l-4.3-12.5l-39.9,5.4l12.8,42.1l39.8-10.2c2.4-0.6,4.9,0.8,5.5,3.3c0,0,0,0,0,0
	c0.6,2.4-0.8,4.9-3.3,5.5c0,0,0,0,0,0l-44,11.3C122.7,175.4,122.3,175.4,121.9,175.4"/>
</svg>
