<?xml version="1.0" encoding="utf-8"?>
<!-- Generator: Adobe Illustrator 22.0.0, SVG Export Plug-In . SVG Version: 6.00 Build 0)  -->
<svg version="1.1" id="图层_1" xmlns="http://www.w3.org/2000/svg" xmlns:xlink="http://www.w3.org/1999/xlink" x="0px" y="0px"
	 viewBox="0 0 234 200" style="enable-background:new 0 0 234 200;" xml:space="preserve">
<style type="text/css">
	.st0{fill:#E9EDED;}
	.st1{fill:#F17F53;}
</style>
<path class="st0" d="M180.6,46.9v134.4c0,5.2-4.2,9.4-9.4,9.4H58.7c-5.2,0-9.4-4.2-9.4-9.4V18.8c0-5.2,4.2-9.4,9.4-9.4h84.4
	L180.6,46.9z"/>
<path class="st1" d="M46.3,150v31.3c0,6.9,5.6,12.5,12.5,12.5h112.5c6.9,0,12.5-5.6,12.5-12.5V150H46.3z"/>
<path class="st1" d="M180.6,46.9h-28.1c-5.2,0-9.4-4.2-9.4-9.4V9.4"/>
<path class="st1" d="M99.4,62.5c-6.9,0-12.5,5.6-12.5,12.5v6.3c0,3.5-2.7,6.3-6.3,6.3c-1.5,0-2.8,1-3.1,2.5c0,0,0,0,0,0
	c-0.2,1,0.2,2.1,0.9,2.8c0.1,0.1,0.3,0.3,0.5,0.4c0.3,0.2,0.6,0.3,0.9,0.4c0.2,0.1,0.4,0.1,0.6,0.1c0.1,0,0.1,0,0.2,0
	c3.5,0,6.3,2.7,6.3,6.3v6.3c0,6.9,5.6,12.5,12.5,12.5c1.7,0,3.1-1.4,3.1-3.1s-1.4-3.1-3.1-3.1c-3.5,0-6.3-2.7-6.3-6.3V100
	c0-3.7-1.7-7.1-4.3-9.4c2.7-2.3,4.3-5.8,4.3-9.4V75c0-3.5,2.7-6.3,6.3-6.3c1.7,0,3.1-1.4,3.1-3.1C102.5,63.9,101.2,62.5,99.4,62.5
	L99.4,62.5z M124,62.5c-1.7,0.1-3.1,1.6-3,3.3c0.1,1.7,1.6,3.1,3.3,3c3.5,0,6.2,2.7,6.2,6.3v6.3c0,3.7,1.7,7.1,4.3,9.4
	c-2.6,2.3-4.3,5.6-4.3,9.4v6.3c0,3.5-2.7,6.3-6.2,6.3c-1.7,0-3.1,1.4-3.1,3.1c0,1.7,1.4,3.1,3.1,3.1c6.9,0,12.5-5.6,12.5-12.5V100
	c0-3.5,2.7-6.3,6.3-6.3c0.7,0,1.5-0.2,2-0.7c0.1-0.1,0.2-0.1,0.2-0.2c1.2-1.2,1.2-3.2,0-4.4c-0.6-0.6-1.4-0.9-2.2-0.9
	c-3.5,0-6.3-2.7-6.3-6.3V75c0-6.9-5.6-12.5-12.5-12.5C124.2,62.5,124.1,62.5,124,62.5L124,62.5z M111.9,75c-1.7,0-3.1,1.4-3.1,3.1
	s1.4,3.1,3.1,3.1s3.1-1.4,3.1-3.1S113.6,75,111.9,75z M111.8,87.5c-1.7,0-3.1,1.4-3.1,3.2v18.8c0,1.7,1.4,3.1,3.1,3.1
	s3.1-1.4,3.1-3.1V90.6C115,88.9,113.6,87.5,111.8,87.5C111.9,87.5,111.9,87.5,111.8,87.5z"/>
<path class="st0" d="M155.7,156.2c-0.1,0-0.2,0-0.3,0c-1.7,0.1-3,1.6-2.9,3.3c0,0,0,0.1,0,0.1v24.8c0,1.7,1.4,3.1,3.1,3.1
	c1.7,0,3.1-1.4,3.1-3.1v-15.6l13,17.4c0,0,0,0,0,0l0.1,0.1c1,1.4,3,1.7,4.4,0.7c0.8-0.6,1.3-1.5,1.3-2.5v-24.9
	c0-1.7-1.4-3.1-3.1-3.2c0,0-0.1,0-0.1,0c-1.7,0-3.1,1.4-3.1,3.2c0,0,0,0,0,0V175l-13.1-17.5C157.6,156.7,156.7,156.2,155.7,156.2
	L155.7,156.2z M74.3,156.3c-1.7,0-3.1,1.4-3.1,3.2c0,0,0,0,0,0v18.7c0,1.8-1.3,3.1-3.1,3.1c-1.7,0-3.1-1.3-3.1-3c0-0.1,0-0.1,0-0.2
	c0-1.7-1.4-3.1-3.1-3.2c0,0-0.1,0-0.1,0c-1.7,0-3.1,1.4-3.1,3.2c0,5.1,4.2,9.4,9.4,9.4c4.8,0,8.8-3.8,9.3-8.5
	c0.1-0.3,0.1-0.5,0.1-0.8v-18.8c0-1.7-1.3-3.1-3.1-3.2C74.4,156.2,74.4,156.2,74.3,156.3z M130.6,156.3c-8.6,0-15.6,7-15.6,15.6
	c0,8.6,7,15.6,15.6,15.6s15.6-7,15.6-15.6S139.2,156.3,130.6,156.3z M92.8,156.3c-0.1,0-0.3,0-0.4,0.1c-4.8,0.4-8.7,4.4-8.7,9.3
	c0,4.9,3.9,9,8.8,9.3c0.2,0,0.4,0.1,0.6,0.1h6.3c1.8,0,3.1,1.3,3.1,3.1c0,1.8-1.3,3.1-3.1,3.1H86.8c-1.7,0-3.1,1.4-3.1,3.1
	s1.4,3.1,3.1,3.1h12.5c0.2,0,0.4,0,0.7-0.1c4.9-0.3,8.7-4.4,8.7-9.3c0-4.9-3.9-9-8.7-9.3c-0.2,0-0.4-0.1-0.7-0.1h-6
	c-0.1,0-0.1,0-0.2,0c-1.7,0-3.1-1.3-3.1-3c0-0.1,0-0.1,0-0.2c0-1.8,1.3-3.1,3.1-3.1h12.5c1.7,0,3.1-1.4,3.1-3.1s-1.4-3.1-3.1-3.1
	H93.3c-0.1,0-0.1,0-0.2,0C93,156.3,92.9,156.3,92.8,156.3L92.8,156.3z M130.6,162.5c5.2,0,9.4,4.2,9.4,9.4s-4.2,9.4-9.4,9.4
	s-9.4-4.2-9.4-9.4S125.4,162.5,130.6,162.5z"/>
</svg>
