<?xml version="1.0" encoding="utf-8"?>
<!-- Generator: Adobe Illustrator 22.0.0, SVG Export Plug-In . SVG Version: 6.00 Build 0)  -->
<svg version="1.1" id="图层_1" xmlns="http://www.w3.org/2000/svg" xmlns:xlink="http://www.w3.org/1999/xlink" x="0px" y="0px"
	 viewBox="0 0 4216 2684" style="enable-background:new 0 0 4216 2684;" xml:space="preserve">
<style type="text/css">
	.st0{fill:url(#SVGID_1_);}
	.st1{fill:url(#SVGID_2_);}
</style>
<linearGradient id="SVGID_1_" gradientUnits="userSpaceOnUse" x1="1699.7457" y1="1734.1848" x2="1700.4979" y2="1733.48" gradientTransform="matrix(2341.4561 0 0 -2498.4375 -3978775.25 4333234)">
	<stop  offset="0" style="stop-color:#000000"/>
	<stop  offset="1" style="stop-color:#FFFFFF"/>
</linearGradient>
<path class="st0" d="M2003.9,1948.9c553.1,754,1094.4-210.4,1093.6-790.4c-0.9-685.7-695.9-1068.9-1094-1068.9
	C1364.5,89.6,756,617.6,756,1340.1c0,803.1,697.5,1247.9,1247.4,1247.9c-124.4-17.9-539.2-106.8-544.7-1062
	c-3.8-646,210.7-904.2,543.8-790.6c7.5,2.8,367.4,144.8,367.4,608.6C2369.9,1805.9,2003.9,1948.9,2003.9,1948.9L2003.9,1948.9z"/>
<linearGradient id="SVGID_2_" gradientUnits="userSpaceOnUse" x1="1700.3868" y1="1733.5165" x2="1699.5344" y2="1734.2209" gradientTransform="matrix(2065.9375 0 0 -2499.9961 -3509959.75 4335935.5)">
	<stop  offset="0" style="stop-color:#000000"/>
	<stop  offset="1" style="stop-color:#FFFFFF"/>
</linearGradient>
<path class="st1" d="M2003.2,734.9c-365.5-126-813.2,175.3-813.2,778.6c0,985.1,730,1074.5,818.5,1074.5
	c638.9,0,1247.4-528.1,1247.4-1250.6c0-803.1-697.5-1247.9-1247.4-1247.9c152.3-21.1,820.9,164.8,820.9,1078.7
	c0,596-499.3,920.4-824,781.8c-7.5-2.8-367.4-144.8-367.4-608.6C1638.1,879.5,2003.2,734.9,2003.2,734.9L2003.2,734.9z"/>
</svg>
