<?xml version="1.0" encoding="UTF-8" standalone="no"?>
<svg xmlns="http://www.w3.org/2000/svg" version="1.0" width="800" height="800">
<rect width="780" height="780" fill="#fff" stroke="#000" stroke-width="10" x="5" y="5"/>
<path fill="#000" d="M 505.46183,49.999986 L 481.85489,149.56007 L 391.01905,149.56007 L 414.62613,49.999986 L 505.46183,49.999986 z M 340.21258,395.89442 C 348.08141,361.68161 352.01604,336.02182 352.01604,318.91491 C 352.01604,303.5194 348.33802,293.08446 340.98245,287.60993 C 333.62644,282.13627 319.17146,279.05705 297.61725,278.37243 L 303.26242,251.17303 L 428.48245,246.55421 L 458.76093,246.55421 L 384.86061,576.02636 C 377.33366,609.55542 373.57026,634.87303 373.5704,651.97953 C 373.57026,665.66476 375.79406,675.5866 380.24193,681.74488 C 384.68939,687.90332 391.70309,690.98253 401.28291,690.98238 C 411.54677,690.98253 422.49496,686.79142 434.12748,678.40904 C 445.75973,670.02696 462.18202,654.03238 483.39436,630.42516 L 512.64662,659.16417 C 479.11757,694.40376 451.91816,718.35286 431.04843,731.01175 C 410.17825,743.67064 386.74225,750.00001 360.74045,750.00001 C 338.50189,750.00001 320.71107,741.8744 307.368,725.62321 C 294.02477,709.37199 287.35324,688.58751 287.35339,663.26974 C 287.35324,637.26792 292.14316,604.08133 301.72282,563.70963 L 340.21258,395.89442 z"/>
</svg>
