<?xml version="1.0" encoding="UTF-8" standalone="no"?>
<svg xmlns:rdf="http://www.w3.org/1999/02/22-rdf-syntax-ns#" xmlns="http://www.w3.org/2000/svg" viewBox="0 0 640 200" width="640" version="1.1" xmlns:cc="http://creativecommons.org/ns#" height="200" xmlns:dc="http://purl.org/dc/elements/1.1/">
 <metadata><![CDATA[
      This work is distributed under (TODO: see issue 1)
    ]]>
  <rdf:RDF>
   <cc:Work rdf:about="">
    <dc:format>image/svg+xml</dc:format>
    <dc:type rdf:resource="http://purl.org/dc/dcmitype/StillImage"/>
    <dc:title>MathML Association Logo</dc:title>
    <cc:license rdf:resource="TODO. See https://github.com/MathML/logo/issues/1"/>
   </cc:Work>
  </rdf:RDF>
 </metadata>
 <title>MathML Association Logo</title>
 <desc>This is a rectangular logo, divided into two parts.
  The left hand-side contains an image of the mathematical formula
  "the W-th root of open paren W raised to the power W close paren" written
  in green on a black background that has the shape of a square with rounded
  corner. This image suggests mathematics and the World Wide Web.
  The right hand-side contains the left-aligned sans-serif text
  "MathML Association" with "MathML" written in black on the first line and
  "Association" written in green on the second line.</desc>
 <path d="m1.5 0.5h-1m639 199h-1" stroke-opacity=".1" stroke="#fff" stroke-linecap="square" stroke-width="1px"/>
 <g transform="translate(5,5)">
  <path style="" d="m15 0h160c8.31 0 15 6.69 15 15v160c0 8.31-6.69 15-15 15h-160c-8.31 0-15-6.69-15-15v-160c0-8.31 6.69-15 15-15z"/>
  <path fill="#53c271" d="m85 25h100l-5 15h-80l-35 140-35-60-20 10-5-10 40-25 15 30"/>
  <g fill="#53c271">
   <path fill="#53c271" d="m51.125 65.936c0-2.0794-1.0208-2.6465-1.6635-2.6465-0.94519 0-1.8904 0.983-1.8904 1.8148 0 0.4915 0.22684 0.71834 0.56711 1.0208 0.41588 0.41588 1.3611 1.3989 1.3611 3.2136 0 1.2855-1.0964 4.9906-2.0794 6.9188-0.983 2.0038-2.3063 3.3271-4.1588 3.3271-1.777 0-2.7978-1.1342-2.7978-3.2893 0-1.0586 0.26465-2.2306 0.41588-2.7599l1.5879-6.3517c0.18904-0.83176 0.56711-2.2306 0.56711-2.4575 0-0.68054-0.5293-1.0208-1.0964-1.0208-0.45369 0-1.1342 0.30246-1.3989 1.0586-0.11342 0.26465-1.8904 7.4859-2.155 8.4689-0.26465 1.1342-0.34027 1.8148-0.34027 2.4953 0 0.41588 0 0.4915 0.03781 0.68054-0.86957 2.0038-2.0038 3.1758-3.4783 3.1758-3.0246 0-3.0246-2.7978-3.0246-3.4405 0-1.2098 0.18904-2.6843 1.966-7.3347 0.41588-1.1342 0.64273-1.6635 0.64273-2.4197 0-1.7013-1.2476-3.1002-3.1002-3.1002-3.5917 0-4.9906 5.4821-4.9906 5.8224 0 0.37808 0.45369 0.37808 0.45369 0.37808 0.37808 0 0.41588-0.07561 0.60492-0.68054 1.0208-3.5161 2.4953-4.6881 3.8186-4.6881 0.34027 0 0.94519 0.03781 0.94519 1.2476 0 0.94519-0.41588 2.0038-0.68054 2.6465-1.6635 4.4613-2.1172 6.2004-2.1172 7.6371 0 3.4405 2.5331 4.7637 5.3687 4.7637 0.64273 0 2.4197 0 3.932-2.6465 0.983 2.4197 3.5917 2.6465 4.7259 2.6465 2.8356 0 4.4991-2.3819 5.4821-4.6503 1.2855-2.949 2.4953-8.0152 2.4953-9.83z"/>
   <path fill="#53c271" d="m136.82 122.1c0-4.125-2.025-5.25-3.3-5.25-1.875 0-3.75 1.95-3.75 3.6 0 0.975 0.45 1.425 1.125 2.025 0.825 0.825 2.7 2.775 2.7 6.375 0 2.55-2.175 9.9-4.125 13.725-1.95 3.975-4.575 6.6-8.25 6.6-3.525 0-5.55-2.25-5.55-6.525 0-2.1 0.525-4.425 0.825-5.475l3.15-12.6c0.375-1.65 1.125-4.425 1.125-4.875 0-1.35-1.05-2.025-2.175-2.025-0.9 0-2.25 0.6-2.775 2.1-0.225 0.525-3.75 14.85-4.275 16.8-0.525 2.25-0.675 3.6-0.675 4.95 0 0.825 0 0.975 0.075 1.35-1.725 3.975-3.975 6.3-6.9 6.3-6 0-6-5.55-6-6.825 0-2.4 0.375-5.325 3.9-14.55 0.825-2.25 1.275-3.3 1.275-4.8 0-3.375-2.475-6.15-6.15-6.15-7.125 0-9.9 10.875-9.9 11.55 0 0.75 0.9 0.75 0.9 0.75 0.75 0 0.825-0.15 1.2-1.35 2.025-6.975 4.95-9.3 7.575-9.3 0.675 0 1.875 0.075 1.875 2.475 0 1.875-0.825 3.975-1.35 5.25-3.3 8.85-4.2 12.3-4.2 15.15 0 6.825 5.025 9.45 10.65 9.45 1.275 0 4.8 0 7.8-5.25 1.95 4.8 7.125 5.25 9.375 5.25 5.625 0 8.925-4.725 10.875-9.225 2.55-5.85 4.95-15.9 4.95-19.5z"/>
   <path fill="#53c271" d="m176.8 90.191c0-2.9288-1.4378-3.7275-2.343-3.7275-1.3312 0-2.6625 1.3845-2.6625 2.556 0 0.69225 0.3195 1.0118 0.79875 1.4378 0.58575 0.58575 1.917 1.9702 1.917 4.5262 0 1.8105-1.5442 7.029-2.9288 9.7448-1.3845 2.8222-3.2482 4.686-5.8575 4.686-2.5028 0-3.9405-1.5975-3.9405-4.6328 0-1.491 0.37275-3.1418 0.58575-3.8872l2.2365-8.946c0.26625-1.1715 0.79875-3.1418 0.79875-3.4612 0-0.9585-0.7455-1.4378-1.5442-1.4378-0.639 0-1.5975 0.426-1.9702 1.491-0.15975 0.37275-2.6625 10.544-3.0352 11.928-0.37275 1.5975-0.47925 2.556-0.47925 3.5145 0 0.58575 0 0.69225 0.0532 0.9585-1.2248 2.8222-2.8222 4.473-4.899 4.473-4.26 0-4.26-3.9405-4.26-4.8458 0-1.704 0.26625-3.7808 2.769-10.33 0.58575-1.5975 0.90525-2.343 0.90525-3.408 0-2.3962-1.7572-4.3665-4.3665-4.3665-5.0588 0-7.029 7.7212-7.029 8.2005 0 0.5325 0.639 0.5325 0.639 0.5325 0.5325 0 0.58575-0.1065 0.852-0.9585 1.4378-4.9522 3.5145-6.603 5.3782-6.603 0.47925 0 1.3312 0.05325 1.3312 1.7572 0 1.3312-0.58575 2.8222-0.9585 3.7275-2.343 6.2835-2.982 8.733-2.982 10.756 0 4.8458 3.5678 6.7095 7.5615 6.7095 0.90525 0 3.408 0 5.538-3.7275 1.3845 3.408 5.0588 3.7275 6.6562 3.7275 3.9938 0 6.3368-3.3548 7.7212-6.5498 1.8105-4.1535 3.5145-11.289 3.5145-13.845z"/>
  </g>
 </g>
 <g transform="translate(200)">
  <g>
   <path d="m68.49 100v-65.61h-11.61l-19.08 57.15-19.44-57.15h-11.61v65.61h7.92v-54.99l18.63 54.99h8.82l18.45-54.99v54.99h7.92z"/>
   <path d="m123.21 99.82v-5.67c-0.81 0.18-1.17 0.18-1.62 0.18-2.61 0-4.05-1.35-4.05-3.69v-26.28c0-8.37-6.12-12.87-17.73-12.87-11.43 0-18.45 4.41-18.9 15.3h7.56c0.63-5.76 4.05-8.37 11.07-8.37 6.75 0 10.53 2.52 10.53 7.02v1.98c0 3.15-1.89 4.5-7.83 5.22-10.62 1.35-12.24 1.71-15.12 2.88-5.49 2.25-8.28 6.48-8.28 12.24 0 8.55 5.94 13.59 15.48 13.59 6.03 0 11.88-2.52 16.02-6.93 0.81 3.6 4.05 6.21 7.74 6.21 1.53 0 2.7-0.18 5.13-0.81zm-13.14-16.11c0 6.75-6.84 11.07-14.13 11.07-5.85 0-9.27-2.07-9.27-7.2 0-4.95 3.33-7.11 11.34-8.28 7.92-1.08 9.54-1.44 12.06-2.61v7.02z"/>
   <path d="m148.02 100v-6.3c-0.99 0.27-2.16 0.36-3.6 0.36-3.24 0-4.14-0.9-4.14-4.23v-30.87h7.74v-6.12h-7.74v-12.96h-7.47v12.96h-6.39v6.12h6.39v34.2c0 4.77 3.24 7.47 9.09 7.47 1.8 0 3.6-0.18 6.12-0.63z"/>
   <path d="m193.33 100v-35.64c0-7.92-5.67-12.87-14.85-12.87-6.66 0-10.71 2.07-15.12 7.83v-24.93h-7.47v65.61h7.47v-26.01c0-9.63 5.04-15.93 12.78-15.93 5.31 0 9.72 3.06 9.72 9.27v32.67h7.47z"/>
   <path d="m268.18 100v-65.61h-11.61l-19.08 57.15-19.44-57.15h-11.61v65.61h7.92v-54.99l18.63 54.99h8.82l18.45-54.99v54.99h7.92z"/>
   <path d="m322.72 100v-7.38h-32.4v-58.23h-8.37v65.61h40.77z"/>
  </g>
  <g fill="#53c270">
   <path d="m60.505 175-21.76-61.965h-10.2l-22.1 61.965h8.415l6.545-18.615h23.885l6.375 18.615h8.84zm-17.425-25.245h-19.72l10.2-28.22 9.52 28.22z"/>
   <path d="m100.79 162.5c0-6.63-3.74-9.945-12.58-12.07l-6.8-1.615c-5.78-1.36-8.245-3.23-8.245-6.375 0-4.08 3.655-6.715 9.435-6.715 5.695 0 8.755 2.465 8.925 7.14h7.48c-0.085-8.755-5.865-13.685-16.15-13.685-10.37 0-17.085 5.355-17.085 13.6 0 6.97 3.57 10.285 14.11 12.835l6.63 1.615c4.93 1.19 6.885 2.635 6.885 5.865 0 4.165-4.165 6.63-10.37 6.63-6.375 0-9.945-1.53-10.88-8.33h-7.48c0.34 10.285 6.12 14.875 17.765 14.875 11.22 0 18.36-5.185 18.36-13.77z"/>
   <path d="m143.29 162.5c0-6.63-3.74-9.945-12.58-12.07l-6.8-1.615c-5.78-1.36-8.245-3.23-8.245-6.375 0-4.08 3.655-6.715 9.435-6.715 5.695 0 8.755 2.465 8.925 7.14h7.48c-0.085-8.755-5.865-13.685-16.15-13.685-10.37 0-17.085 5.355-17.085 13.6 0 6.97 3.57 10.285 14.11 12.835l6.63 1.615c4.93 1.19 6.885 2.635 6.885 5.865 0 4.165-4.165 6.63-10.37 6.63-6.375 0-9.945-1.53-10.88-8.33h-7.48c0.34 10.285 6.12 14.875 17.765 14.875 11.22 0 18.36-5.185 18.36-13.77z"/>
   <path d="m190.13 153.07c0-15.385-7.395-23.885-20.23-23.885-12.495 0-20.06 8.585-20.06 23.545s7.48 23.545 20.145 23.545c12.495 0 20.145-8.585 20.145-23.205zm-7.395-0.085c0 10.455-4.93 16.745-12.75 16.745-7.905 0-12.75-6.205-12.75-17 0-10.71 4.845-17 12.75-17 7.99 0 12.75 6.205 12.75 17.255z"/>
   <path d="m234.64 159.7h-7.14c-1.19 7.14-4.845 10.03-10.88 10.03-7.82 0-12.495-6.035-12.495-16.575 0-11.135 4.59-17.425 12.325-17.425 5.95 0 9.69 3.485 10.54 9.69h7.14c-0.85-10.88-7.65-16.235-17.595-16.235-11.985 0-19.805 9.18-19.805 23.97 0 14.365 7.65 23.12 19.72 23.12 10.625 0 17.34-6.375 18.19-16.575z"/>
   <path d="m249.6 175v-44.54h-7.055v44.54h7.055zm0.935-51.255v-8.84h-8.84v8.84h8.84z"/>
   <path d="m300.99 174.83v-5.355c-0.765 0.17-1.105 0.17-1.53 0.17-2.465 0-3.825-1.275-3.825-3.485v-24.82c0-7.905-5.78-12.155-16.745-12.155-10.795 0-17.425 4.165-17.85 14.45h7.14c0.595-5.44 3.825-7.905 10.455-7.905 6.375 0 9.945 2.38 9.945 6.63v1.87c0 2.975-1.785 4.25-7.395 4.93-10.03 1.275-11.56 1.615-14.28 2.72-5.185 2.125-7.82 6.12-7.82 11.56 0 8.075 5.61 12.835 14.62 12.835 5.695 0 11.22-2.38 15.13-6.545 0.765 3.4 3.825 5.865 7.31 5.865 1.445 0 2.55-0.17 4.845-0.765zm-12.41-15.215c0 6.375-6.46 10.455-13.345 10.455-5.525 0-8.755-1.955-8.755-6.8 0-4.675 3.145-6.715 10.71-7.82 7.48-1.02 9.01-1.36 11.39-2.465v6.63z"/>
   <path d="m324.42 175v-5.95c-0.935 0.255-2.04 0.34-3.4 0.34-3.06 0-3.91-0.85-3.91-3.995v-29.155h7.31v-5.78h-7.31v-12.24h-7.055v12.24h-6.035v5.78h6.035v32.3c0 4.505 3.06 7.055 8.585 7.055 1.7 0 3.4-0.17 5.78-0.595z"/>
   <path d="m339.41 175v-44.54h-7.055v44.54h7.055zm0.935-51.255v-8.84h-8.84v8.84h8.84z"/>
   <path d="m388.68 153.07c0-15.385-7.395-23.885-20.23-23.885-12.495 0-20.06 8.585-20.06 23.545s7.48 23.545 20.145 23.545c12.495 0 20.145-8.585 20.145-23.205zm-7.395-0.085c0 10.455-4.93 16.745-12.75 16.745-7.905 0-12.75-6.205-12.75-17 0-10.71 4.845-17 12.75-17 7.99 0 12.75 6.205 12.75 17.255z"/>
   <path d="m434.04 175v-33.66c0-7.395-5.525-12.155-14.11-12.155-6.63 0-10.88 2.55-14.79 8.755v-7.48h-6.545v44.54h7.055v-24.565c0-9.095 4.93-15.045 12.155-15.045 5.61 0 9.18 3.4 9.18 8.755v30.855h7.055z"/>
  </g>
 </g>
</svg>