<?xml version="1.0" standalone="no"?><!DOCTYPE svg PUBLIC "-//W3C//DTD SVG 1.1//EN" "http://www.w3.org/Graphics/SVG/1.1/DTD/svg11.dtd"><svg t="1637899175446" class="icon" viewBox="0 0 1024 1024" version="1.1" xmlns="http://www.w3.org/2000/svg" p-id="9269" xmlns:xlink="http://www.w3.org/1999/xlink" width="200" height="200"><defs><style type="text/css"></style></defs><path d="M686.506667 439.466667l-139.093334-187.306667 37.546667-27.733333 139.093333 187.306666-37.546666 27.733334z m15.36 308.053333H282.026667v-186.88H328.533333v139.946667h326.4v-139.946667h46.506667v186.88h0.426667zM375.466667 654.08h233.386666v-46.506667H375.466667v46.506667z m14.08-151.893333l228.266666 47.786666-9.386666 45.653334-228.266667-47.786667 9.386667-45.653333z m40.533333-105.813334l211.626667 98.56-20.053334 42.24-211.2-98.56 19.626667-42.24z m68.693333-97.28l179.2 149.333334-29.866666 35.84-179.2-149.333334 29.866666-35.84zM512 85.333333C276.48 85.333333 85.333333 276.48 85.333333 512s191.146667 426.666667 426.666667 426.666667 426.666667-191.146667 426.666667-426.666667S747.946667 85.333333 512 85.333333z" fill="#FF9D43" p-id="9270"></path></svg>