<svg width="500" height="500" 
     viewBox="0 0 150 150" 
     xmlns="http://www.w3.org/2000/svg" 
     xmlns:xlink="http://www.w3.org/1999/xlink"
     xml:space="preserve">
<rect x="10" y="10" 
      width="125" height="125" 
      rx="5" ry="5" 
      fill="none" stroke="black" 
      stroke-opacity="0.2" 
      stroke-width="0.5"/>
<rect width="95" height="95" 
      x="20" y="20" 
      fill="none" stroke="black" 
      stroke-opacity="0.3" 
      stroke-width="0.5"/>
<g>
  <line x1="20" x2="20" y1="20" y2="120" stroke="black" stroke-width="0.5"/>
  <path d="M20,125 l1,-5 h-2 z" />
  <line x1="20" x2="120" y1="20" y2="20" stroke="black" stroke-width="0.5"/>
  <path d="M125,20 l-5,1 v-2 z" />
</g>
<g fill="none" stroke="black" stroke-width="0.5" stroke-opacity="0.08" >
  <path d="M20,30 h95" />
  <path d="M20,40 h95" />
  <path d="M20,50 h95" />
  <path d="M20,60 h95" />
  <path d="M20,70 h95" />
  <path d="M20,80 h95" />
  <path d="M20,90 h95" />
  <path d="M20,100 h95" />
  <path d="M20,110 h95" />
  <path d="M30,20 v95" />
  <path d="M40,20 v95" />
  <path d="M50,20 v95" />
  <path d="M60,20 v95" />
  <path d="M70,20 v95" />
  <path d="M80,20 v95" />
  <path d="M90,20 v95" />
  <path d="M100,20 v95" />
  <path d="M110,20 v95" />
</g>
<g>
  <line x1="25" x2="40" y1="45" y2="45" stroke="black" stroke-width="0.5"/>
  <path d="M20,45 l5,1 v-2 z" /> <path d="M45,45 l-5,1 v-2 z" />
  <line x1="45" x2="45" y1="25" y2="40" stroke="black" stroke-width="0.5"/>
  <path d="M45,20 l1,5 h-2 z" /> <path d="M45,45 l1,-5 h-2 z" />
</g>
<rect x="45" y="45" width="30" height="30" fill="orange" fill-opacity="0.6"/>
<g font-size="5">
  <text x="15" y="18" >(0, 0)</text>
  <text x="127" y="22" >X</text>
  <text x="18" y="130" >Y</text>
  <text x="31" y="44" >x</text>
  <text x="41" y="35" >y</text>
  <text x="60" y="120" >width</text>
  <text x="120" y="75" transform="rotate(-90, 120, 75)">height</text>
</g>
</svg>