<?xml version="1.0" encoding="utf-8"?>
<!-- Generator: Adobe Illustrator 22.0.0, SVG Export Plug-In . SVG Version: 6.00 Build 0)  -->
<svg version="1.1"
	 id="svg_SympyLogo" xmlns:cc="http://creativecommons.org/ns#" xmlns:dc="http://purl.org/dc/elements/1.1/" xmlns:rdf="http://www.w3.org/1999/02/22-rdf-syntax-ns#" xmlns:svg="http://www.w3.org/2000/svg"
	 xmlns="http://www.w3.org/2000/svg" xmlns:xlink="http://www.w3.org/1999/xlink" x="0px" y="0px" viewBox="0 0 1011 558"
	 style="enable-background:new 0 0 1011 558;" xml:space="preserve">
<style type="text/css">
	.st0{fill:url(#rect3259_2_);filter:url(#Adobe_OpacityMaskFilter);}
	.st1{fill:#FFFFFF;}
	.st2{mask:url(#Mask_1_);}
	.st3{fill:#72BA45;stroke:#293720;stroke-width:8;}
	.st4{fill:#C7E06D;stroke:#C7E06D;stroke-width:8;stroke-opacity:0.5395;}
	.st5{fill:#2E642C;}
	.st6{fill:#4F873B;}
	.st7{opacity:0.6473;}
	.st8{opacity:0.5;fill:#3B4F87;stroke:#066506;stroke-width:8;stroke-linejoin:bevel;enable-background:new    ;}
	.st9{fill:#DECD85;stroke:#505050;stroke-width:8;stroke-opacity:0.6184;}
	.st10{fill:#B9B083;stroke:#505050;stroke-width:8;}
	.st11{fill:#EEE5BD;stroke:#505050;stroke-width:8;stroke-linejoin:bevel;stroke-opacity:0.6579;}
	.st12{fill:#897751;}
	.st13{fill:#9A8354;}
	.st14{opacity:0.5;stroke:#000000;enable-background:new    ;}
	.st15{opacity:0.5;stroke:#000000;stroke-width:1.0823;enable-background:new    ;}
	.st16{fill:#72BA45;stroke:#344829;stroke-width:8;stroke-linejoin:round;}
	.st17{opacity:0.5;stroke:#505050;stroke-width:6;stroke-linejoin:round;enable-background:new    ;}
	.st18{fill:none;stroke:#9D2020;stroke-width:6;}
	.st19{fill:#C7E06D;stroke:#C7E06D;stroke-width:13.4228;stroke-opacity:0.5263;}
	.st20{fill:#C7E06D;stroke:#C7E06D;stroke-width:8;stroke-opacity:0.5132;}
	.st21{opacity:0.5;fill:#C7E06D;enable-background:new    ;}
	.st22{opacity:0.5;fill:#3B4F87;stroke:#066506;stroke-width:6.7852;stroke-linejoin:bevel;enable-background:new    ;}
	.st23{opacity:0.5;fill:#3B4F87;stroke:#066506;stroke-width:5.816;stroke-linejoin:bevel;enable-background:new    ;}
	.st24{opacity:0.5;fill:#3B4F87;stroke:#066506;stroke-width:5.3454;stroke-linejoin:bevel;enable-background:new    ;}
	.st25{opacity:0.5;fill:#3B4F87;stroke:#066506;stroke-width:5.0961;stroke-linejoin:bevel;enable-background:new    ;}
	.st26{opacity:0.5072;}
	.st27{stroke:#000000;stroke-width:0.971;}
</style>
<title  id="title3248">SymPy Logo, with tail.</title>
<desc  id="desc3250">
	I created this logo and permit its free use on the same terms as the rest of Sympy&apos;s code and documentation.

Fredrik Johansson</desc>
<g id="SympyLogo" transform="translate(-7,10)">
	<defs>
		<filter id="Adobe_OpacityMaskFilter" filterUnits="userSpaceOnUse" x="147.8" y="224" width="147.1" height="117.3">
			<feColorMatrix  type="matrix" values="1 0 0 0 0  0 1 0 0 0  0 0 1 0 0  0 0 0 1 0"/>
		</filter>
	</defs>
	<mask maskUnits="userSpaceOnUse" x="147.8" y="224" width="147.1" height="117.3" id="Mask_1_">
		
			<linearGradient id="rect3259_2_" gradientUnits="userSpaceOnUse" x1="250.5338" y1="466.8784" x2="170.33" y2="466.8784" gradientTransform="matrix(1 0 0 -1 0 732)">
			<stop  offset="0" style="stop-color:#FFFFFF"/>
			<stop  offset="1" style="stop-color:#FFFFFF;stop-opacity:0"/>
		</linearGradient>
		<rect id="rect3259_1_" x="170.3" y="172.2" class="st0" width="81.2" height="185.8"/>
		<rect id="rect3261_1_" x="250.5" y="-10" class="st1" width="800" height="800"/>
	</mask>
	<g id="SnakeTail" class="st2">
		<g id="layer1">
			<path id="path3272" class="st3" d="M290.9,334.3c0,0-17.7-10.2-40.1-16s-26.9-4.2-49.6-7s-41.1-4-41.1-4l-1.1-78.9
				c0,0,33.1,3.7,59.4,8c26.4,4.2,27.9,4.5,46,9c18.1,4.5,26.4,9,26.4,9V334.3z"/>
		</g>
		<path id="path3274" class="st4" d="M282.6,277c0,0-22.8-10.3-55-15.8s-75-8.2-75-8.2l-0.5-9.9c0,0,44.5,2.1,77.5,7
			c33,4.9,53,12.8,53,12.8V277z"/>
		<path id="path3276" class="st5" d="M287.6,331c0,0-13.3-9.4-45.5-16s-84.9-8.4-84.9-8.4l0.4-30.1c0,0,44,0.9,77,6.9
			s52.5,13.9,52.5,13.9L287.6,331z"/>
		<path id="path3278" class="st6" d="M287.2,314.6c0,0-13.3-10.3-45.5-14.7c-32.3-4.4-84.9-5.6-84.9-5.6l0.4-20.2c0,0,44,3.6,77,7.6
			c33,4,52.5,14.3,52.5,14.3L287.2,314.6L287.2,314.6z"/>
		<g id="TailSpots" class="st7">
			<path id="path5172" class="st8" d="M277.4,283.7c0,10.2-7.6,18.4-17,18.4c-9.4,0-17-8.2-17-18.4c0,0,0,0,0,0
				c0-10.2,7.6-18.4,17-18.4C269.8,265.3,277.4,273.5,277.4,283.7C277.4,283.7,277.4,283.7,277.4,283.7z"/>
			<path id="path5174" class="st8" d="M209.6,273.8c0,11.7-9.2,21.2-20.5,21.2c-11.3,0-20.5-9.5-20.5-21.2c0,0,0,0,0,0
				c0-11.7,9.2-21.2,20.5-21.2C200.4,252.6,209.6,262.1,209.6,273.8C209.6,273.8,209.6,273.8,209.6,273.8z"/>
		</g>
	</g>
	<g id="Cube">
		<path id="path3284" class="st9" d="M292.6,123.7l200,60v270l-200-60V123.7L292.6,123.7z"/>
		<path id="path3286" class="st10" d="M692.6,123.7l-200,60v270l200-60C692.6,393.7,692.6,123.7,692.6,123.7z"/>
		<path id="path3288" class="st11" d="M292.6,123.7l200,60l200-60l-200-70C492.6,53.7,292.6,123.7,292.6,123.7z"/>
		<g id="g3290">
			<g id="text3292" transform="matrix(0.9140294,-0.3682282,-0.03940923,1.1099332,0,0)">
				<path id="path3404" class="st12" d="M605.6,580.2c-5.3,0-10-1.4-14-4.1c-4-2.8-5.9-6.5-5.9-11.2c0-2.3,0.7-4.1,2.2-5.4
					c1.6-1.3,3.4-2,5.4-2s3.8,0.7,5.2,2c1.6,1.3,2.3,3.1,2.3,5.4c0,2.2-0.7,3.9-2,5.2c-1.3,1.3-2.9,2.1-4.9,2.3
					c3.1,2.5,7,3.8,11.7,3.8c11.6,0,17.5-12.4,17.5-37.3l0-115.6c0-11,2.9-20.6,8.8-28.8c6-8.3,13.9-12.4,23.6-12.4
					c5.3,0,9.9,1.4,13.9,4.1c4.1,2.8,6.1,6.5,6.1,11.2c0,2.4-0.8,4.3-2.3,5.6c-1.4,1.2-3.2,1.8-5.2,1.8c-2,0-3.8-0.6-5.4-1.8
					c-1.4-1.3-2.2-3.2-2.2-5.6c0-2.2,0.7-3.9,2-5.2c1.3-1.3,2.9-2.1,4.9-2.3c-3.1-2.5-7-3.8-11.7-3.8c-11.6,0-17.5,12.4-17.5,37.3
					V539c0,11-3,20.6-9,28.8C623.2,576,615.4,580.2,605.6,580.2"/>
			</g>
		</g>
		<g id="g3296">
			<g id="text3298" transform="matrix(0.8246541,-0.2574405,0,1.2126296,0,0)">
				<path id="path3407" class="st12" d="M758.5,430.9v-3.4c-7.7,0-8.6-0.8-8.6-6.2v-66.8l-15.8,1.2v3.4c7.7,0,8.6,0.8,8.6,6.2v23.8
					c-3.2-4-7.9-6.8-13.9-6.8c-13,0-24.5,10.8-24.5,25c0,14,10.8,24.9,23.3,24.9c7,0,12-3.7,14.7-7.3v7.3L758.5,430.9 M742.3,417.9
					c0,2,0,2.2-1.2,4.1c-3.3,5.3-8.3,7.7-13,7.7c-5,0-8.9-2.9-11.5-7c-2.9-4.5-3.2-10.8-3.2-15.3c0-4.1,0.2-10.7,3.4-15.6
					c2.3-3.4,6.5-7,12.4-7c3.8,0,8.5,1.6,11.9,6.6c1.2,1.9,1.2,2.1,1.2,4.1V417.9"/>
				<path id="path3409" class="st12" d="M815.4,415.2c0-1.1-0.9-1.1-1.7-1.1c-1.3,0-1.4,0.1-2,1.9c-3,9.5-8.5,13.8-13.1,13.8
					c-2.2,0-5.2-1.3-5.2-7c0-2.6,1.2-7.4,2.1-11.1l3.7-15.1c1.5-5.7,4.5-11.8,9.7-11.8c0.3,0,3.1,0,4.8,1.5
					c-4.4,1.1-4.4,5.3-4.4,5.3c0,1.4,1,3.5,3.8,3.5c2,0,5.4-1.5,5.4-5.8c0-5.6-6.4-6.9-9.6-6.9c-6.1,0-9.7,5.4-10.8,7.5
					c-2.4-6.6-7.8-7.5-10.6-7.5c-11,0-16.9,14.4-16.9,16.9c0,1.1,1.1,1.1,1.7,1.1c1.4,0,1.4-0.1,2-1.9c3-9.5,8.7-13.8,13.1-13.8
					c3.2,0,5.3,2.5,5.3,6.9c0,2.6-1.3,8-2.3,12.1l-2.5,10c-1.8,7.1-4.1,15.9-10.7,15.9c-0.3,0-3,0-4.8-1.5c3.3-0.9,4.3-3.6,4.3-5.3
					c0-2.9-2.3-3.5-3.7-3.5c-2.8,0-5.5,2.3-5.5,5.9c0,4.3,4.6,6.8,9.7,6.8c5.3,0,8.9-4.2,10.8-7.5c2.2,6.3,7.6,7.5,10.5,7.5
					C809.8,432.1,815.4,417.4,815.4,415.2"/>
			</g>
		</g>
		<g id="g3304">
			<g id="text3306" transform="matrix(0.8385983,0.2552685,0,1.192466,0,0)">
				<path id="path3412" class="st12" d="M546.3,170.8l-6.1,0c-4.4,40.7-21,47.3-59.3,47.3l-67.3,0l61.2-69.3
					c2.2-2.4,2.2-3.9,2.2-3.9c0-1.2-1-2.4-1.7-3.4l-50-72.2l56.4,0c41.2,0,53.4,8.8,58.6,47.3h6.1l-6.8-54.9l-135.4,0
					c-5.9,0-6.3,0-6.3,5.6l60.8,88.3l-58.1,66.1c-2.4,2.7-2.4,3.2-2.4,3.9c0,2.7,2.4,2.7,6.1,2.7l135.4,0L546.3,170.8"/>
			</g>
		</g>
		<g id="g3310">
			<g id="text3312" transform="matrix(1.4265625,-0.3736626,1.32988,0.3526474,0,0)">
				<path id="path3415" class="st13" d="M2,336.8l0-2.4h-7l0-28.8c0-1.1,0-1.6-1.3-1.6c-0.5,0-0.7,0-1.1,0.4c-3.8,2.9-9,2.9-10,2.9
					h-1l0,2.4h1c0.8,0,3.6,0,6.5-1l0,25.9h-6.9l0,2.4c2.2-0.1,7.5-0.1,9.9-0.1C-5.5,336.7-0.2,336.7,2,336.8"/>
				<path id="path3417" class="st13" d="M51.6,320.9c0-4.9-0.1-16.8-12.1-16.8S27.4,316,27.4,320.9c0,5,0.1,16.5,12.1,16.5
					C51.5,337.4,51.6,325.9,51.6,320.9 M45.2,320.3c0,2.8,0,7.4-0.4,10c-0.7,4.6-3.9,5.4-5.3,5.4c-1.8,0-4.6-1.1-5.2-4.8
					c-0.4-2.6-0.4-7.8-0.4-10.6c0-3.6,0-6.9,0.4-9.5c0.6-4.5,4.1-5,5.3-5c1.8,0,3.9,1,4.8,3.1C45.2,310.9,45.2,316.2,45.2,320.3"/>
				<path id="path3419" class="st13" d="M3.8,394.9c0-4.9-0.1-16.8-12.1-16.8s-12.1,11.9-12.1,16.8c0,5,0.1,16.5,12.1,16.5
					C3.7,411.4,3.8,399.9,3.8,394.9 M-2.6,394.3c0,2.8,0,7.4-0.4,10c-0.7,4.6-3.9,5.4-5.3,5.4c-1.8,0-4.6-1.1-5.2-4.8
					c-0.4-2.6-0.4-7.8-0.4-10.5c0-3.6,0-6.9,0.4-9.5c0.6-4.5,4.1-5,5.3-5c1.8,0,3.9,1,4.8,3.1C-2.6,384.9-2.6,390.2-2.6,394.3"/>
				<path id="path3421" class="st13" d="M49.9,410.8l0-2.4h-7l0-28.8c0-1.1,0-1.6-1.3-1.6c-0.5,0-0.7,0-1.1,0.4
					c-3.8,2.9-9,2.9-10,2.9h-1l0,2.4h1c0.8,0,3.5,0,6.5-1l0,25.9H30l0,2.4c2.2-0.1,7.5-0.1,9.9-0.1
					C42.4,410.7,47.7,410.7,49.9,410.8"/>
			</g>
		</g>
		<g id="g3318" transform="matrix(0.7152743,-0.2134016,0.6667979,0.2013996,-410.97556,263.60616)">
			<g id="text3320" transform="matrix(0.6991488,0.00805929,0.01450938,1.4304778,0,0)">
				<path id="path3424" class="st13" d="M1256.3,301.8v-9.8l-16.6,0l0-140.5l16.6,0v-9.8l-26.4,0l0,160L1256.3,301.8"/>
				<path id="path3426" class="st13" d="M1517.8,301.8l0-160l-26.4,0v9.8l16.6,0l0,140.5l-16.6,0v9.8L1517.8,301.8"/>
			</g>
		</g>
	</g>
	<g id="g3326">
		<g id="SnakeShadowOnCube">
			<path id="path3329" class="st14" d="M481,258.4c-16.8-14,62.8,3.3,90,12s43.3,17,60,31c11.3,9.5,24.4,31.8,26.5,45.1
				c1,6.4,5.3,60.7-3.5,57.9c-1.1-0.3-30.6,10.5-15,4.1C673.7,394.4,497.1,271.8,481,258.4z"/>
			<path id="path3331" class="st15" d="M358.2,193.8c-4.7,41.8,23.2,78.9,53.6,101.3c23.9,17.8,50.2,35.5,79.7,38.7
				c22.6-2,51.6-4.9,64.3,19.8c18.5,14.2,34.7-17.2,22.2-32.7c-20.5-31.2-53.9-48.2-83.7-67.3c-45.6-26.7-81.4-66.8-127.8-91.7
				C362.2,167.2,359.9,180,358.2,193.8L358.2,193.8z"/>
			<path id="path3333" class="st14" d="M652,109.4c-54.4-2.2-110.7-3.9-162.7,15c-24.1,7.6-46.2,29-47.2,55.3
				c1,10.8,3,21.1,4.8,31.8c3.2,12.8,11.1,24.3,12.6,37.5c-5.7,5.3-17.7-4.6-25.9-5.4c-8.2-4.7-24.4-4.2-27.3-12.3
				c3.2-32,6.5-63.9,9.7-95.9c33.7-15.3,67.3-30.7,101-46C562,96,607,102.7,652,109.4L652,109.4z"/>
		</g>
		<g id="SnakeBody">
			<path id="path3336" class="st16" d="M368.8,444.2c-5.1-4.4-17.7-21.1-22.3-26.6c-9.9-11.9,5.4-3.3,18.8-0.2
				c38.3,10.5,82.1,24.1,120.4,34.6c21.4-1.8,46.7-6.4,64.1-20.3c18.4-24.1,22.8-59.4,10.1-87.1c-19-24.9-52.7-29.6-80.9-38.1
				c-34.1-7.7-64.1-27-88.7-51.6c-31.2-25.4-31.3-71.7-17.4-106.3c8.2-27.7,28-52,55.8-61.6c44-19.4,92.8-22.2,140.2-19.6
				c45.6,2,91.2,10.3,133.4,28.1c19.5,7.9,35.5,8.1,56.9,4.5c10.9,3.9,23.3,9.7,29.8,16.2c11.7,11.8,18,32.8,28.7,45.2
				c20.1,22.9-10.4,50.7-34.6,36.8c-24.5-7.4-59.3-0.9-71.1-30.1c-5.7-15.9-18.4-20.3-17.8-40.6c-15.6-14.8-42.9-17.2-63.2-20.6
				c-60-9-126.9-11.6-180.4,22c-22.6,13.9-36.1,46.8-20.6,70.3c19.6,19.3,49.7,20,74.8,28c48.6,11.1,101.2,28.8,128.6,73.8
				c14.3,23.1,14.1,51.7,15.9,78.1c1.1,41.8-11,80-55.9,107.9c-46.9,20.1-87,16.8-130.5,6.7C424.8,484.7,398.7,472.9,368.8,444.2
				L368.8,444.2z"/>
			<path id="path3338" class="st17" d="M762.8,175.1c0,3.1-2.8,5.7-6.4,5.7c-3.5,0-6.4-2.5-6.4-5.6c0,0,0,0,0,0
				c0-3.1,2.8-5.7,6.4-5.7C759.9,169.4,762.8,171.9,762.8,175.1C762.8,175.1,762.8,175.1,762.8,175.1z"/>
			<path id="path3340" class="st17" d="M786.8,137.6c0,3.5-2.8,6.4-6.4,6.4c-3.5,0-6.4-2.8-6.4-6.4c0,0,0,0,0,0
				c0-3.5,2.8-6.4,6.4-6.4S786.8,134.1,786.8,137.6C786.8,137.6,786.8,137.6,786.8,137.6z"/>
			<path id="path3342" class="st18" d="M819.7,195.6c4.4,5.2,6.6,11.3,17,11.3c0.8,4.2,0,9.7,0,14.1"/>
			<path id="path3344" class="st18" d="M836.5,206.9c0,0.1,12,0,17,0"/>
		</g>
		<g id="SnakeShadowsOnHimself">
			<path id="path3347" class="st5" d="M367.1,201.9c1.2,14.9,3.9,27.3,12.4,38.7c15.4,20.5,35.4,36,58.9,48.5
				c9.5,5.1,21.9,9.3,32.2,12.2c29.3,8.9,63.6,15.4,86.9,37.5c16.7,19.6-1.2-17.3-16.6-28.9c-42.9-32.5-105.8-26.4-145.4-65.6
				C384.2,232.2,373.3,217,367.1,201.9L367.1,201.9z"/>
			<path id="path3349" class="st5" d="M643.9,350.5c-1.9,36.1-9.3,81.6-34,107.8c-42.4,29.9-111.3,31.9-159.2,15.2
				c-26-8.1-46.2-19.9-69.9-33.3c-9.3-5.3-21.2-18.1-25-19.5c-5.4-2,5.5,15.1,11.7,21.6c28.8,32.9,66,42.6,116.4,54.4
				c43.9,5.7,74.3,9.3,119-17.8c31.7-24.2,36.7-44.2,41.6-67.8C648.6,374.3,645.7,376.4,643.9,350.5L643.9,350.5z"/>
			<path id="path3351" class="st5" d="M427.4,201.8c-9.6-27.4-5.8-51,11.4-65.7c21.4-18.4,36.8-24.1,67.9-33.5
				c33.6-2.9,48.2-2.5,123.1,1.6c-57.3-10.3-133.4-19.9-186.6,8.8C412.2,130.9,398.6,172.3,427.4,201.8L427.4,201.8z"/>
			<path id="path3353" class="st5" d="M696,122.9c1.3,1.1,1.7,7.7,6.3,14.9s8.1,7,12,13.8s2.1,6.6,3.6,13.2
				c1.6,6.6,3.9,13.9,2.6,13.2s-3.3-8.6-7.8-16s-6.5-6.6-10.4-13.8s-3.6-8.6-5.2-14.9S694.7,121.7,696,122.9L696,122.9z"/>
			<path id="path3355" class="st6" d="M642.6,350.8c-3.4,22.4-10.3,50.8-21,68.9c-18.7,24.1-26.8,29.5-51.2,41.5
				c-39,12-89.7,16.6-135.6-1c-24.2-8.4-49.4-16.2-69.7-33.6c-2.8-5.4-17-13.1-9-1.5c19.1,33,54.3,48.3,87.4,57.3
				c35.2,9.6,73,16.5,108.7,5.9c36.4-6.6,64.8-25.7,83.5-63.3c5.5-12.9,9-43.6,7.8-57.8C643.5,361.6,642.1,356.3,642.6,350.8
				L642.6,350.8z"/>
			<path id="path3357" class="st6" d="M367.4,191.1c1.2,14.9,3.9,27.3,12.4,38.7c15.4,20.5,35.4,36,58.9,48.5
				c9.5,5.1,21.9,9.3,32.2,12.2c29.3,8.9,62.1,18.9,85.4,41c8.2,7.1-0.7-11.8-16.1-23.4c-42.9-32.5-108.8-28.4-148.4-67.6
				C380.6,228.4,373.7,206.3,367.4,191.1z"/>
		</g>
		<g id="SnakeHighlight">
			<path id="path3360" class="st19" d="M609.8,394.9c-0.3-28-5.5-77.5-36-101c-35.9-36-101.6-26.7-143.4-52.8
				c-17.2-15.6,29.2-4.3,67.8,5.4c39.3,9.1,86.2,17.7,109.8,52C627.1,331.1,630.7,373.3,609.8,394.9L609.8,394.9z"/>
			<path id="path3362" class="st20" d="M383.2,189.5c-4.7-27.3,3-57.6,24.6-76c32-28.1,75.8-37,117.4-37.9
				c57.2-2.7,114.8,5.8,168.8,25.2c13.4,4.7,26.8,9.5,39.7,15.4c-42.8-8.3-84.2-23.6-127.7-28.4c-35.4-4.3-71.3-5.6-106.9-2.8
				c-30.7,4.1-64,10.4-85.8,34.5c-12.8,10.4-21.8,25.3-22.8,42c-4,18.8,2,40.1,15.7,52.9c15.2,10.6,14.7,11.3,26.3,15.8
				c7.1,2.8,7.1,3.9,8.6,8c0.8,2.1-0.4,4.2,1.3,6c-7.1-1.2-12.5-1.7-18.4-4.5c-6.5-3.1-11-6.2-20.5-14.1
				C393.1,215.2,385,205,383.2,189.5z"/>
			<path id="path3364" class="st21" d="M780.5,124.9c0.6,3.2-4.9-4.5-7.5-6.5c-2.7-2.1-5.7-2.4-8-3.5c-2.7-1.4-3.2-2.2-5.5-4.5
				c-4-4,3.5-1.5,7-1.5c1.9,0,6.8,3.9,9,5c2.6,1.3,5.5,3,7.5,4.5c2.1,1.5,2.1,3.8,3,5.5C786.8,125.5,782.3,124.3,780.5,124.9z"/>
			<path id="path3366" class="st21" d="M805.5,192.4c-2.4,3.2,4.9-4.2,7-8.5c1-2.1,0-8.9-0.5-11c-0.8-3.3-2.6-5.4-4.5-8
				c-1.6-2.2,5.1,1.8,7.5,3c1.6,0.8,2,4,2,6.5c0,2.5,0,5,0,7.5c0,2.7-1.1,5.6-2,7.5c-0.7,1.4-3,1-4.5,1"/>
			<path id="path3368" class="st21" d="M733.8,167.1c4-7.2,9.6-9.9,19.8-9.9c11.3,0,16.4,0.3,11.3-9.9c-3.8-7.6-8.9-10.6-4.2-19.8
				c6.2-12.3-9.2-3-11.3-1.4c-7.9,5.9-12.2,5.7-22.6,5.7c-6,0-4.2,3.2-4.2,8.5"/>
		</g>
		<g id="Spots" class="st7">
			<path id="path5123" class="st8" d="M700,106.8c0,2.7-1.9,4.9-4.2,4.9c-2.3,0-4.2-2.2-4.2-4.9l0,0c0-2.7,1.9-4.9,4.2-4.9
				C698.1,101.8,700,104.1,700,106.8z"/>
			<path id="path5125" class="st8" d="M659.5,94.5c0,2.7-2.8,5-6.4,5c-3.5,0-6.4-2.2-6.4-4.9c0,0,0,0,0,0c0-2.7,2.8-5,6.4-5
				C656.6,89.5,659.4,91.7,659.5,94.5C659.5,94.5,659.5,94.5,659.5,94.5z"/>
			<path id="path5129" class="st8" d="M616.5,86.5c0,2.9-2.7,5.2-6,5.2c-3.3,0-6-2.3-6-5.2l0,0c0-2.9,2.7-5.2,6-5.2
				C613.8,81.2,616.5,83.6,616.5,86.5z"/>
			<path id="path5131" class="st8" d="M573.5,82.9c0,3.1-3.5,5.7-7.8,5.7c-4.3,0-7.8-2.5-7.8-5.6c0,0,0,0,0,0c0-3.1,3.5-5.7,7.8-5.7
				C570,77.2,573.5,79.7,573.5,82.9C573.5,82.9,573.5,82.9,573.5,82.9z"/>
			<path id="path5133" class="st8" d="M523,84.7c0,3.9-3.8,7.1-8.5,7.1c-4.7,0-8.5-3.2-8.5-7.1c0,0,0,0,0,0c0-3.9,3.8-7.1,8.5-7.1
				C519.2,77.6,523,80.8,523,84.7C523,84.7,523,84.7,523,84.7z"/>
			<path id="path5135" class="st8" d="M477.8,95.7c0,4.3-4.4,7.8-9.9,7.8c-5.5,0-9.9-3.5-9.9-7.8c0,0,0,0,0,0c0-4.3,4.4-7.8,9.9-7.8
				C473.3,87.9,477.8,91.4,477.8,95.7C477.8,95.7,477.8,95.7,477.8,95.7z"/>
			<path id="path5137" class="st8" d="M438.3,120.9c0,5.9-5.4,10.6-12,10.6c-6.6,0-12-4.7-12-10.6c0,0,0,0,0,0
				c0-5.9,5.4-10.6,12-10.6S438.3,115.1,438.3,120.9C438.3,120.9,438.3,120.9,438.3,120.9z"/>
			<path id="path5141" class="st8" d="M411.5,167.2c0,6.6-5.7,12-12.7,12c-7,0-12.7-5.4-12.7-12l0,0c0-6.6,5.7-12,12.7-12
				C405.8,155.2,411.5,160.5,411.5,167.2z"/>
			<path id="path5144" class="st22" d="M439.5,228.7c0,9.1-7.6,16.4-16.9,16.4s-16.9-7.4-16.9-16.4c0,0,0,0,0,0
				c0-9.1,7.6-16.4,16.9-16.4C431.9,212.3,439.5,219.6,439.5,228.7C439.5,228.7,439.5,228.7,439.5,228.7z"/>
			<path id="path5148" class="st8" d="M523.2,267.3c0,10.2-9.2,18.4-20.5,18.4c-11.3,0-20.5-8.2-20.5-18.4c0,0,0,0,0,0
				c0-10.2,9.2-18.4,20.5-18.4S523.2,257.1,523.2,267.3L523.2,267.3L523.2,267.3z"/>
			<path id="path5150" class="st8" d="M596.7,304.8c0,9.8-7.6,17.7-17,17.7c-9.4,0-17-7.9-17-17.7s7.6-17.7,17-17.7
				C589.1,287.1,596.7,295,596.7,304.8z"/>
			<path id="path5152" class="st8" d="M627.9,374.1c0,10.5-7,19.1-15.6,19.1c-8.6,0-15.6-8.5-15.6-19.1s7-19.1,15.6-19.1
				C620.9,355,627.9,363.5,627.9,374.1z"/>
			<path id="path5154" class="st8" d="M612.3,432.8c0,8.6-6.6,15.6-14.8,15.6c-8.2,0-14.8-7-14.8-15.6l0,0c0-8.6,6.6-15.6,14.8-15.6
				C605.6,417.2,612.3,424.2,612.3,432.8z"/>
			<path id="path5158" class="st23" d="M569.4,475.6c0,6.6-8,11.9-17.8,11.9c-9.8,0-17.8-5.3-17.8-11.9c0,0,0,0,0,0
				c0-6.6,8-11.9,17.8-11.9C561.4,463.7,569.4,469,569.4,475.6C569.4,475.6,569.4,475.6,569.4,475.6z"/>
			<path id="path5168" class="st24" d="M487.4,473.1c0,5.5-7.3,9.9-16.3,9.9c-9,0-16.3-4.4-16.3-9.9c0,0,0,0,0,0
				c0-5.5,7.3-9.9,16.3-9.9C480,463.2,487.4,467.6,487.4,473.1C487.4,473.1,487.4,473.1,487.4,473.1z"/>
			<path id="path5170" class="st25" d="M428.1,450c0,3.5-7.5,6.3-16.7,6.3c-9.2,0-16.7-2.8-16.8-6.3c0,0,0,0,0,0
				c0-3.5,7.5-6.3,16.7-6.3C420.6,443.7,428.1,446.5,428.1,450C428.1,450,428.1,450,428.1,450z"/>
		</g>
		<g id="g3387" class="st26">
			<path id="path38439" class="st27" d="M348.4,414.1c48.1,12.4,96.2,24.9,144.3,37.3c4.2-1.3,8.5-2.7,12.7-4
				c-3.8,4.5-7.7,9-12.4,12.8c-4.5,5.1-1.5,12-2,17.9c0.7,5.2-2,12.2-8.9,10.9c-9.8-0.5-18.6-5.2-28-7.3
				c-21.2-5.4-42.9-11.7-61.2-22.6c-16.6-9.8-29.9-24.4-44.9-36.7C348.2,419.6,348.3,416.8,348.4,414.1L348.4,414.1z"/>
		</g>
	</g>
</g>
</svg>
