<?xml version="1.0" standalone="no"?><!DOCTYPE svg PUBLIC "-//W3C//DTD SVG 1.1//EN" "http://www.w3.org/Graphics/SVG/1.1/DTD/svg11.dtd"><svg t="1636795827810" class="icon" viewBox="0 0 2030 1024" version="1.1" xmlns="http://www.w3.org/2000/svg" p-id="9025" xmlns:xlink="http://www.w3.org/1999/xlink" width="396.484375" height="200"><defs><style type="text/css"></style></defs><path d="M1018.274268 418.095172c-10.599237 0-18.096356-1.015263-22.49404-3.044447s-8.850356-5.976237-13.360699-11.838475l-83.551976-119.744689 53.445476-77.46174c4.510342-6.088895 10.655566-11.6145 18.435672-16.574133s20.577514-7.442132 38.393566-7.442131v-11.839816h-92.346003v11.839816c7.442132 0 13.24804 1.860198 17.420409 5.580593s6.257882 7.836435 6.257881 12.346776c0 1.578553-0.112658 3.100776-0.337973 4.566671s-1.127921 2.988118-2.706474 4.566671l-44.651449 65.623266-50.739002-74.756608-1.522224-1.860197-1.522223-3.889383c0-3.157105 2.143184-5.976237 6.426869-8.456053s10.148605-3.720395 17.589395-3.720395v-11.839816H755.443233v11.839816h6.088894c10.373921 0 18.154027 0.902605 23.340317 2.706473s9.246 4.960974 12.17779 9.471317l71.71216 107.228925-62.578818 92.685318c-2.931789 4.510342-8.288408 9.640303-16.068513 15.391225s-21.367461 8.626381-40.760725 8.626381v11.838475h22.012562c-4.451331 23.790948-10.658248 41.729047-18.631482 53.78479-9.246 13.981658-30.217817 20.971817-62.918133 20.971817h-50.740344c-9.020684 0-14.263303-1.015263-15.729198-3.044447s-2.198172-5.976237-2.198171-11.838475v-101.817319h32.811633c17.816053 0 29.202554 3.382421 34.164869 10.148605s7.442132 18.379343 7.442132 34.840817h9.133342v-101.479345h-9.133342c0 16.461475-2.085514 28.019646-6.257882 34.67183s-15.954514 9.978277-35.349119 9.978277h-32.811633v-92.685319c0-5.863579 0.733618-9.810631 2.198171-11.838474s6.708514-3.044447 15.729198-3.044448h47.695896c29.767185 0 48.878805 5.74958 57.334858 17.251422s14.263303 30.66979 17.420409 57.505186h8.795368l-11.838474-86.595082H585.080246l-5.875649-83.551976H343.434273l-6.088895 86.595082h8.795368c3.157105-31.345738 8.344737-51.641607 15.560211-60.887607s25.031527-13.869 53.445476-13.869001h20.635184c4.510342 0 7.159146 1.353237 7.949093 4.058369s1.18425 6.314211 1.18425 10.824553v200.253559c0 5.863579-1.634882 10.316251-4.904645 13.360699s-14.602618 4.566671-33.995883 4.566671H388.087063v11.838474h143.42432v-11.838474h-12.177789c-19.393264 0-30.66979-1.522224-33.825555-4.566671s-4.735658-7.498461-4.735658-13.360699V199.918267c0-4.510342 0.225316-7.723777 0.675948-9.640303s2.141843-3.664066 5.074973-5.24396h20.973158c28.413949 0 46.22866 4.623 53.445476 13.869 6.976747 8.940214 11.945768 28.242279 14.917792 57.84316h-29.46274v11.838475h8.795368c15.109579 0 23.903606 1.127921 26.384764 3.382421s3.720395 7.104158 3.720395 14.544949v200.253559c0 7.442132-1.240579 12.290448-3.720395 14.546289s-11.275185 3.382421-26.384764 3.382421h-8.795368v11.838475h220.88606l13.093807-86.595083h64.707249v-11.838474c-9.020684 0-15.278566-2.255842-18.773646-6.766184s-5.242619-8.230737-5.242619-11.162527c0-1.578553 0.112658-3.100776 0.337974-4.566671s1.127921-2.988118 2.705133-4.566671l53.78479-80.507529 59.534371 92.683977c0 1.353237 0.506961 2.143184 1.522224 2.367159l1.522223 0.337974c0 3.157105-2.085514 5.976237-6.257881 8.456053s-9.978277 3.720395-17.420409 3.720395v11.838475H1024.025189v-11.838475h-5.750921z" p-id="9026" fill="#1296db"></path></svg>