<?xml version="1.0" standalone="no"?><!DOCTYPE svg PUBLIC "-//W3C//DTD SVG 1.1//EN" "http://www.w3.org/Graphics/SVG/1.1/DTD/svg11.dtd"><svg t="1633437229761" class="icon" viewBox="0 0 1024 1024" version="1.1" xmlns="http://www.w3.org/2000/svg" p-id="41710" xmlns:xlink="http://www.w3.org/1999/xlink" width="200" height="200"><defs><style type="text/css"></style></defs><path d="M0 0m200.224022 0l623.551956 0q200.224022 0 200.224022 200.224022l0 623.551956q0 200.224022-200.224022 200.224022l-623.551956 0q-200.224022 0-200.224022-200.224022l0-623.551956q0-200.224022 200.224022-200.224022Z" fill="#409EFF" p-id="41711"></path><path d="M906.203532 294.74095l-0.349693 14.986828c-34.619573 0.999122-55.451264 19.482876-68.739584 49.656357-30.772953 71.187433-127.23817 295.590204-191.281881 441.711777h-16.735291l-100.861353-237.84096c-39.964875 78.331154-84.126061 160.109279-122.192604 237.84096a152.665821 152.665821 0 0 1-18.483754-0.349693c-57.749244-134.881452-118.345985-269.263343-176.245097-404.644355-14.087618-32.971022-60.896478-86.374085-93.168114-85.924481 0-3.796663-0.349693-12.339155-0.349693-17.484632H317.221192V309.727778c-23.629232 1.348815-64.942921 16.385599-53.353107 42.112987 26.97629 61.196214 127.587862 295.989853 154.863889 355.48756 18.483755-36.56786 71.187433-134.481803 92.768465-175.895405-17.13494-34.969265-72.186555-164.855108-89.671187-197.076788-11.939506-21.930725-44.460923-23.879013-68.739585-24.278661v-17.035028l175.495756 0.349693V309.727778c-23.879013 0.749341-46.908772 9.59157-36.218168 32.171724 23.279539 49.256708 37.666894 83.876281 59.247927 128.936677 6.893941-13.288321 42.762416-85.474876 59.247927-124.140892 10.940384-25.377695-4.995609-35.219046-47.558201-36.218167 0.349693-4.446092 0-12.688848 0.349692-16.735292 54.701922-0.349693 136.829739-0.349693 151.616744-0.749341V309.727778a91.369695 91.369695 0 0 0-71.587082 39.065665l-72.935896 151.267051c7.893063 19.982437 77.981462 175.895404 85.225095 193.030344L806.690994 344.697044c-10.590692-28.474973-44.960484-34.619573-58.148892-34.969266v-16.935115l157.41165 1.348814z" fill="#FFFFFF" p-id="41712"></path></svg>