<?xml version="1.0" standalone="no"?><!DOCTYPE svg PUBLIC "-//W3C//DTD SVG 1.1//EN" "http://www.w3.org/Graphics/SVG/1.1/DTD/svg11.dtd"><svg t="1638006280680" class="icon" viewBox="0 0 1024 1024" version="1.1" xmlns="http://www.w3.org/2000/svg" p-id="2064" xmlns:xlink="http://www.w3.org/1999/xlink" width="200" height="200"><defs><style type="text/css"></style></defs><path d="M132.14 356.43h752.9v335.36h-752.9z" fill="#E21D23" p-id="2065"></path><path d="M815.56 399.98v203.65h38.16v44.65h-82.69v-248.3M500.39 521.74c-3.44 1.66-7.05 2.49-10.56 2.5v-79.86h0.23c3.51-0.03 29.73 1.04 29.73 39.49-0.01 20.1-8.93 32.78-19.4 37.87z m-130.51 49.02l12.33-106.17L395 570.76h-25.12z m267.3-170.74l-20.75 151.24-20.5-151.24h-45.47l5.09 40.38c-5.24-10.35-23.86-40.38-64.83-40.38-0.27-0.01-45.52 0-45.52 0l-0.17 220.44-33.14-220.43-59.55-0.03-34.29 228.39 0.01-228.36h-56.99l-20.55 128.3-20.02-128.3h-57.02v248.3h44.9v-119.7l20.43 119.68h23.87l20.13-119.68v119.68h86.56l5.24-38.19h34.85l5.24 38.19h85.15v-80.59l10.42-1.52 21.56 82.17h43.96l-0.01-0.06h0.12l-28.3-96.28c14.33-10.62 30.53-37.52 26.22-63.27v-0.01c0.05 0.33 26.71 159.72 26.71 159.72l52.27-0.15 35.73-225.06v225.06h84.75v-44.66h-40.23v-56.93h40.23v-45.35h-40.23V445.3h40.23l-0.14-45.55" fill="#FFFFFF" p-id="2066"></path></svg>