<svg xmlns="http://www.w3.org/2000/svg" xmlns:xlink="http://www.w3.org/1999/xlink" x="0" y="0" width="662" height="302" style="
        width:662px;
        height:302px;
        background: transparent;
        fill: none;
">
        
        
        <svg xmlns="http://www.w3.org/2000/svg" class="role-diagram-draw-area"><g class="shapes-region" style="stroke: black; fill: none;"><g class="arrow-line"><path class="connection real" stroke-dasharray="" d="  M40,235.08 L263,67.08" style="stroke: rgb(245, 166, 35); stroke-opacity: 1; stroke-width: 1; fill: none; fill-opacity: 1;"/></g><g class="composite-shape"><path class="real" d=" M12,16.96 L281.56,16.96 L281.56,286 L12,286 Z" style="stroke-width: 1; stroke: none; stroke-opacity: 0.1; fill: none; fill-opacity: 1;"/><path class="real" d=" M41,16.96 L41,286 M91,16.96 L91,286 M141,16.96 L141,286 M191,16.96 L191,286 M241,16.96 L241,286" style="stroke-width: 1; stroke: rgb(0, 0, 0); stroke-opacity: 0.1; fill: none; fill-opacity: 1;"/><path class="real" d=" M12,45.96 L281.56,45.96 M12,95.96 L281.56,95.96 M12,145.96 L281.56,145.96 M12,195.96 L281.56,195.96 M12,245.96 L281.56,245.96" style="stroke-width: 1; stroke: rgb(0, 0, 0); stroke-opacity: 0.1; fill: none; fill-opacity: 1;"/><path class="real" d=" " style="stroke-width: 1; stroke: rgb(0, 0, 0); stroke-opacity: 0.1; fill: none; fill-opacity: 1;"/></g><g class="composite-shape axis2d" style="stroke-width: 1; stroke: rgb(126, 211, 33); stroke-opacity: 1;"><path class="real" d=" M60.15,195.96 L266.08,195.96 M91,53.61 L91,251.47"/><path d=" M259.08,190.96 L266.08,195.96 L259.08,200.96"/><path d=" M86,60.61 L91,53.61 L96,60.61"/></g><g class="composite-shape"><path class="real" d=" M91,145.96 L141,145.96 L141,195.96 L91,195.96 Z" style="stroke-width: 1; stroke: rgb(126, 211, 33); stroke-opacity: 1; fill: rgb(126, 211, 33); fill-opacity: 0.2;"/></g><g class="arrow-line"><path class="connection real" stroke-dasharray="" d="  M202.78,113.45 L91,195.96" style="stroke: rgb(74, 144, 226); stroke-opacity: 1; stroke-width: 2; fill: none; fill-opacity: 1;"/><g stroke="none" fill="rgb(74,144,226)" fill-opacity="1" transform="matrix(-0.804582973634569,0.5938402466466502,-0.5938402466466502,-0.804582973634569,205.99999999999997,111.078125)" style="stroke: none; fill: rgb(74, 144, 226); stroke-width: 2;"><path d=" M11.61,-5.58 L0,0 L11.61,5.58 Z"/></g></g><g class="arrow-line"><path class="connection real" stroke-dasharray="" d="  M148.29,153.46 L91,195.96" style="stroke: rgb(208, 2, 27); stroke-opacity: 1; stroke-width: 2; fill: none; fill-opacity: 1;"/><g stroke="none" fill="rgb(208,2,27)" fill-opacity="1" transform="matrix(-0.8031295477428814,0.5958044390085684,-0.5958044390085684,-0.8031295477428814,151.5,151.078125)" style="stroke: none; fill: rgb(208, 2, 27); stroke-width: 2;"><path d=" M11.61,-5.58 L0,0 L11.61,5.58 Z"/></g></g><g/></g><g/><g/><g/></svg>
        <svg xmlns="http://www.w3.org/2000/svg" xmlns:xlink="http://www.w3.org/1999/xlink" width="660" height="300" style="width:660px;height:300px;font-family:Asana-Math, Asana;background:transparent;"><g><g><g><g><g><g><g transform="matrix(1,0,0,1,358.59991455078125,141.285)"><path transform="matrix(0.02941,0,0,-0.02941,0,0)" d="M271 204L242 77C238 60 236 42 236 26C236 4 245 -9 260 -9C283 -9 324 17 406 85L399 106C375 86 346 59 324 59C315 59 309 68 309 82C309 87 309 90 310 93L402 472L392 481L359 463C318 478 301 482 274 482C246 482 226 477 199 464C137 433 104 403 79 354C35 265 4 145 4 67C4 23 19 -11 38 -11C75 -11 155 41 271 204ZM319 414C297 305 278 253 244 201C187 117 126 59 94 59C82 59 76 72 76 99C76 163 104 280 139 360C163 415 186 433 234 433C257 433 275 429 319 414Z" stroke="rgb(208,2,27)" stroke-opacity="1" stroke-width="0" fill="rgb(208,2,27)" fill-opacity="1"></path></g></g><g><g><g><g><g transform="matrix(1,0,0,1,373.125,130.462)"><path transform="matrix(0.020587,0,0,-0.020587,0,0)" d="M16 23L16 -3C203 -3 203 0 239 0C275 0 275 -3 468 -3L468 82C353 77 307 81 122 77L304 270C401 373 431 428 431 503C431 618 353 689 226 689C154 689 105 669 56 619L39 483L68 483L81 529C97 587 133 612 200 612C286 612 341 558 341 473C341 398 299 324 186 204Z" stroke="rgb(208,2,27)" stroke-opacity="1" stroke-width="0" fill="rgb(208,2,27)" fill-opacity="1"></path></g></g></g></g></g></g></g><g><g><g><g transform="matrix(1,0,0,1,404.94366455078125,141.285)"><path transform="matrix(0.02941,0,0,-0.02941,0,0)" d="M271 204L242 77C238 60 236 42 236 26C236 4 245 -9 260 -9C283 -9 324 17 406 85L399 106C375 86 346 59 324 59C315 59 309 68 309 82C309 87 309 90 310 93L402 472L392 481L359 463C318 478 301 482 274 482C246 482 226 477 199 464C137 433 104 403 79 354C35 265 4 145 4 67C4 23 19 -11 38 -11C75 -11 155 41 271 204ZM319 414C297 305 278 253 244 201C187 117 126 59 94 59C82 59 76 72 76 99C76 163 104 280 139 360C163 415 186 433 234 433C257 433 275 429 319 414Z" stroke="rgb(74,144,226)" stroke-opacity="1" stroke-width="0" fill="rgb(74,144,226)" fill-opacity="1"></path></g></g></g></g><g><g><g><g transform="matrix(1,0,0,1,365.56085205078125,176.285)"><path transform="matrix(0.02941,0,0,-0.02941,0,0)" d="M271 204L242 77C238 60 236 42 236 26C236 4 245 -9 260 -9C283 -9 324 17 406 85L399 106C375 86 346 59 324 59C315 59 309 68 309 82C309 87 309 90 310 93L402 472L392 481L359 463C318 478 301 482 274 482C246 482 226 477 199 464C137 433 104 403 79 354C35 265 4 145 4 67C4 23 19 -11 38 -11C75 -11 155 41 271 204ZM319 414C297 305 278 253 244 201C187 117 126 59 94 59C82 59 76 72 76 99C76 163 104 280 139 360C163 415 186 433 234 433C257 433 275 429 319 414Z" stroke="rgb(208,2,27)" stroke-opacity="1" stroke-width="0" fill="rgb(208,2,27)" fill-opacity="1"></path></g></g></g></g><g><g><g><g transform="matrix(1,0,0,1,404.1317138671875,176.285)"><path transform="matrix(0.02941,0,0,-0.02941,0,0)" d="M418 -3L418 27L366 30C311 33 301 44 301 96L301 700L60 598L67 548L217 614L217 96C217 44 206 33 152 30L96 27L96 -3C250 0 250 0 261 0C292 0 402 -3 418 -3Z" stroke="rgb(74,144,226)" stroke-opacity="1" stroke-width="0" fill="rgb(74,144,226)" fill-opacity="1"></path></g></g></g></g><svg x="337" overflow="visible" y="108.875" height="74" width="17.640625"><rect style="fill:rgb(0,0,0);fill-opacity:1;stroke-width:1px;stroke:none;stroke-opacity:1;" x="5.62" y="3.27" width="2" height="67.46"></rect></svg><svg x="422.65625" overflow="visible" y="108.875" height="74" width="17.640625"><rect style="fill:rgb(0,0,0);fill-opacity:1;stroke-width:1px;stroke:none;stroke-opacity:1;" x="5.62" y="3.27" width="2" height="67.46"></rect></svg><line stroke-dasharray="1" style="fill:none;stroke-width:[object Object];stroke:rgba(0, 0, 0, 0);" x1="349.265625" y1="109.375" x2="394.703125" y2="109.375"></line><line stroke-dasharray="1" style="fill:none;stroke-width:[object Object];stroke:rgba(0, 0, 0, 0);" x1="349.265625" y1="109.375" x2="349.265625" y2="147.375"></line><line stroke-dasharray="1" style="fill:none;stroke-width:[object Object];stroke:rgba(0, 0, 0, 0);" x1="394.703125" y1="109.375" x2="394.703125" y2="147.375"></line><line stroke-dasharray="1" style="fill:none;stroke-width:[object Object];stroke:rgba(0, 0, 0, 0);" x1="349.265625" y1="147.375" x2="394.703125" y2="147.375"></line><line stroke-dasharray="1" style="fill:none;stroke-width:[object Object];stroke:rgba(0, 0, 0, 0);" x1="394.703125" y1="109.375" x2="428.03125" y2="109.375"></line><line stroke-dasharray="1" style="fill:none;stroke-width:[object Object];stroke:rgba(0, 0, 0, 0);" x1="394.703125" y1="109.375" x2="394.703125" y2="147.375"></line><line stroke-dasharray="1" style="fill:none;stroke-width:[object Object];stroke:rgba(0, 0, 0, 0);" x1="428.03125" y1="109.375" x2="428.03125" y2="147.375"></line><line stroke-dasharray="1" style="fill:none;stroke-width:[object Object];stroke:rgba(0, 0, 0, 0);" x1="394.703125" y1="147.375" x2="428.03125" y2="147.375"></line><line stroke-dasharray="1" style="fill:none;stroke-width:[object Object];stroke:rgba(0, 0, 0, 0);" x1="349.265625" y1="147.375" x2="394.703125" y2="147.375"></line><line stroke-dasharray="1" style="fill:none;stroke-width:[object Object];stroke:rgba(0, 0, 0, 0);" x1="349.265625" y1="147.375" x2="349.265625" y2="182.375"></line><line stroke-dasharray="1" style="fill:none;stroke-width:[object Object];stroke:rgba(0, 0, 0, 0);" x1="394.703125" y1="147.375" x2="394.703125" y2="182.375"></line><line stroke-dasharray="1" style="fill:none;stroke-width:[object Object];stroke:rgba(0, 0, 0, 0);" x1="349.265625" y1="182.375" x2="394.703125" y2="182.375"></line><line stroke-dasharray="1" style="fill:none;stroke-width:[object Object];stroke:rgba(0, 0, 0, 0);" x1="394.703125" y1="147.375" x2="428.03125" y2="147.375"></line><line stroke-dasharray="1" style="fill:none;stroke-width:[object Object];stroke:rgba(0, 0, 0, 0);" x1="394.703125" y1="147.375" x2="394.703125" y2="182.375"></line><line stroke-dasharray="1" style="fill:none;stroke-width:[object Object];stroke:rgba(0, 0, 0, 0);" x1="428.03125" y1="147.375" x2="428.03125" y2="182.375"></line><line stroke-dasharray="1" style="fill:none;stroke-width:[object Object];stroke:rgba(0, 0, 0, 0);" x1="394.703125" y1="182.375" x2="428.03125" y2="182.375"></line></g><g><g transform="matrix(1,0,0,1,449.109375,154.285)"><path transform="matrix(0.02941,0,0,-0.02941,0,0)" d="M604 347L604 406L65 406L65 347ZM604 134L604 193L65 193L65 134Z" stroke="rgb(0,0,0)" stroke-opacity="1" stroke-width="0" fill="rgb(0,0,0)" fill-opacity="1"></path></g></g><g><g transform="matrix(1,0,0,1,477.29388427734375,154.285)"><path transform="matrix(0.02941,0,0,-0.02941,0,0)" d="M271 204L242 77C238 60 236 42 236 26C236 4 245 -9 260 -9C283 -9 324 17 406 85L399 106C375 86 346 59 324 59C315 59 309 68 309 82C309 87 309 90 310 93L402 472L392 481L359 463C318 478 301 482 274 482C246 482 226 477 199 464C137 433 104 403 79 354C35 265 4 145 4 67C4 23 19 -11 38 -11C75 -11 155 41 271 204ZM319 414C297 305 278 253 244 201C187 117 126 59 94 59C82 59 76 72 76 99C76 163 104 280 139 360C163 415 186 433 234 433C257 433 275 429 319 414Z" stroke="rgb(208,2,27)" stroke-opacity="1" stroke-width="0" fill="rgb(208,2,27)" fill-opacity="1"></path></g></g><g><g><g><g><g transform="matrix(1,0,0,1,491.828125,143.462)"><path transform="matrix(0.020587,0,0,-0.020587,0,0)" d="M16 23L16 -3C203 -3 203 0 239 0C275 0 275 -3 468 -3L468 82C353 77 307 81 122 77L304 270C401 373 431 428 431 503C431 618 353 689 226 689C154 689 105 669 56 619L39 483L68 483L81 529C97 587 133 612 200 612C286 612 341 558 341 473C341 398 299 324 186 204Z" stroke="rgb(208,2,27)" stroke-opacity="1" stroke-width="0" fill="rgb(208,2,27)" fill-opacity="1"></path></g></g></g></g></g><g><g transform="matrix(1,0,0,1,509.937744140625,154.285)"><path transform="matrix(0.02941,0,0,-0.02941,0,0)" d="M555 243L555 299L51 299L51 243Z" stroke="rgb(0,0,0)" stroke-opacity="1" stroke-width="0" fill="rgb(0,0,0)" fill-opacity="1"></path></g></g><g><g transform="matrix(1,0,0,1,533.3577270507812,154.285)"><path transform="matrix(0.02941,0,0,-0.02941,0,0)" d="M271 204L242 77C238 60 236 42 236 26C236 4 245 -9 260 -9C283 -9 324 17 406 85L399 106C375 86 346 59 324 59C315 59 309 68 309 82C309 87 309 90 310 93L402 472L392 481L359 463C318 478 301 482 274 482C246 482 226 477 199 464C137 433 104 403 79 354C35 265 4 145 4 67C4 23 19 -11 38 -11C75 -11 155 41 271 204ZM319 414C297 305 278 253 244 201C187 117 126 59 94 59C82 59 76 72 76 99C76 163 104 280 139 360C163 415 186 433 234 433C257 433 275 429 319 414Z" stroke="rgb(74,144,226)" stroke-opacity="1" stroke-width="0" fill="rgb(74,144,226)" fill-opacity="1"></path></g></g><g><g transform="matrix(1,0,0,1,546.2047119140625,154.285)"><path transform="matrix(0.02941,0,0,-0.02941,0,0)" d="M271 204L242 77C238 60 236 42 236 26C236 4 245 -9 260 -9C283 -9 324 17 406 85L399 106C375 86 346 59 324 59C315 59 309 68 309 82C309 87 309 90 310 93L402 472L392 481L359 463C318 478 301 482 274 482C246 482 226 477 199 464C137 433 104 403 79 354C35 265 4 145 4 67C4 23 19 -11 38 -11C75 -11 155 41 271 204ZM319 414C297 305 278 253 244 201C187 117 126 59 94 59C82 59 76 72 76 99C76 163 104 280 139 360C163 415 186 433 234 433C257 433 275 429 319 414Z" stroke="rgb(208,2,27)" stroke-opacity="1" stroke-width="0" fill="rgb(208,2,27)" fill-opacity="1"></path></g></g></g></g><g><g><g><g transform="matrix(1,0,0,1,139,117.4)"><path transform="matrix(0.020399999999999998,0,0,-0.020399999999999998,0,0)" d="M263 689C108 689 29 566 29 324C29 207 50 106 85 57C120 8 176 -20 238 -20C389 -20 465 110 465 366C465 585 400 689 263 689ZM245 654C342 654 381 556 381 316C381 103 343 15 251 15C154 15 113 116 113 360C113 571 150 654 245 654Z" stroke="rgb(245,166,35)" stroke-opacity="1" stroke-width="0" fill="rgb(245,166,35)" fill-opacity="1"></path></g></g><g><g transform="matrix(1,0,0,1,153.05810546875,117.4)"><path transform="matrix(0.020399999999999998,0,0,-0.020399999999999998,0,0)" d="M124 329C94 329 67 301 67 271C67 241 94 213 123 213C155 213 183 240 183 270C183 301 155 329 124 329Z" stroke="rgb(245,166,35)" stroke-opacity="1" stroke-width="0" fill="rgb(245,166,35)" fill-opacity="1"></path></g></g><g><g transform="matrix(1,0,0,1,162.11627197265625,117.4)"><path transform="matrix(0.020399999999999998,0,0,-0.020399999999999998,0,0)" d="M567 55C567 39 552 30 524 28L480 25L480 -3C582 0 582 0 602 0C622 0 622 0 724 -3L724 25L698 28C651 35 650 35 642 80L555 705L509 705L136 112C100 56 82 40 48 32L28 27L28 -3C120 0 120 0 140 0C159 0 161 0 247 -3L247 25L195 28C179 29 164 38 164 47C164 55 171 69 190 102L292 277L538 277L563 89L563 86C563 84 567 69 567 55ZM496 601L533 313L317 313Z" stroke="rgb(245,166,35)" stroke-opacity="1" stroke-width="0" fill="rgb(245,166,35)" fill-opacity="1"></path></g></g></g></g></svg>
</svg>
