<svg xmlns="http://www.w3.org/2000/svg" xmlns:xlink="http://www.w3.org/1999/xlink" x="0" y="0" width="662" height="373" style="
        width:662px;
        height:373px;
        background: transparent;
        fill: none;
">
        
        
        <svg xmlns="http://www.w3.org/2000/svg" class="role-diagram-draw-area"><g class="shapes-region" style="stroke: black; fill: none;"><g class="composite-shape"><path class="real" d=" M285.56,106.75 L411.76,62.11 L363.32,156.56 L237.13,201.2 Z" style="stroke-width: 1; stroke: rgb(245, 166, 35); stroke-opacity: 1; fill: rgb(245, 166, 35); fill-opacity: 0.2;"/></g><g class="composite-shape"><path class="real" d=" M165.13,-20.8 L515,-20.8 L515,248.2 L165.13,248.2 Z" style="stroke-width: 1; stroke: none; stroke-opacity: 0.1; fill: none; fill-opacity: 1;"/><path class="real" d=" M187.13,-20.8 L187.13,248.2 M237.13,-20.8 L237.13,248.2 M287.13,-20.8 L287.13,248.2 M337.13,-20.8 L337.13,248.2 M387.13,-20.8 L387.13,248.2 M437.13,-20.8 L437.13,248.2 M487.13,-20.8 L487.13,248.2" style="stroke-width: 1; stroke: rgb(0, 0, 0); stroke-opacity: 0.1; fill: none; fill-opacity: 1;"/><path class="real" d=" M165.13,1.2 L515,1.2 M165.13,51.2 L515,51.2 M165.13,101.2 L515,101.2 M165.13,151.2 L515,151.2 M165.13,201.2 L515,201.2" style="stroke-width: 1; stroke: rgb(0, 0, 0); stroke-opacity: 0.1; fill: none; fill-opacity: 1;"/><path class="real" d=" " style="stroke-width: 1; stroke: rgb(0, 0, 0); stroke-opacity: 0.1; fill: none; fill-opacity: 1;"/></g><g class="composite-shape axis2d" style="stroke-width: 1; stroke: rgb(126, 211, 33); stroke-opacity: 1;"><path class="real" d=" M164.3,201.2 L475.13,201.2 M237.13,22.02 L237.13,241.24"/><path d=" M468.13,196.2 L475.13,201.2 L468.13,206.2"/><path d=" M232.13,29.02 L237.13,22.02 L242.13,29.02"/></g><g class="composite-shape"><path class="real" d=" M285.56,106.75 L236.5,202.4 L236.5,106.75 Z" style="stroke-width: 1; stroke: rgb(245, 166, 35); stroke-opacity: 1; fill: rgb(74, 144, 226); fill-opacity: 0.2;"/></g><g class="shape"><polygon class="real" points=" 363.32,156.56 363.32,201.2 236.5,202.4" style="stroke: rgb(245, 166, 35); stroke-opacity: 1; stroke-width: 1; fill: rgb(208, 2, 27); fill-opacity: 0.2;"/></g><g class="composite-shape"><path class="real" d=" M363.32,156.56 L411.76,62.11 L411.76,156.56 Z" style="stroke-width: 1; stroke: rgb(245, 166, 35); stroke-opacity: 1; fill: rgb(74, 144, 226); fill-opacity: 0.2;"/></g><g class="shape"><polygon class="real" points=" 286.93,62.11 411.76,62.11 286.93,106.75" style="stroke: rgb(245, 166, 35); stroke-opacity: 1; stroke-width: 1; fill: rgb(208, 2, 27); fill-opacity: 0.2;"/></g><g class="composite-shape"><path class="real" d=" M236.5,62.11 L286.93,62.11 L286.93,106.75 L236.5,106.75 Z" style="stroke-width: 1; stroke: rgb(245, 166, 35); stroke-opacity: 1; fill: rgb(189, 16, 224); fill-opacity: 0.2;"/></g><g class="composite-shape"><path class="real" d=" M363.32,156.56 L411.76,156.56 L411.76,201.2 L363.32,201.2 Z" style="stroke-width: 1; stroke: rgb(245, 166, 35); stroke-opacity: 1; fill: rgb(189, 16, 224); fill-opacity: 0.2;"/></g><g class="arrow-line"><path class="connection real" stroke-dasharray="" d="  M359.56,157.92 L236.5,202.4" style="stroke: rgb(208, 2, 27); stroke-opacity: 1; stroke-width: 2; fill: none; fill-opacity: 1;"/><g stroke="none" fill="rgb(208,2,27)" fill-opacity="1" transform="matrix(-0.9404662204253443,0.33988716986504164,-0.33988716986504164,-0.9404662204253443,363.32433270853414,156.5630282806071)" style="stroke: none; fill: rgb(208, 2, 27); stroke-width: 2;"><path d=" M11.61,-5.58 L0,0 L11.61,5.58 Z"/></g></g><g class="arrow-line"><path class="connection real" stroke-dasharray="" d="  M283.74,110.31 L237.13,201.2" style="stroke: rgb(74, 144, 226); stroke-opacity: 1; stroke-width: 2; fill: none; fill-opacity: 1;"/><g stroke="none" fill="rgb(74,144,226)" fill-opacity="1" transform="matrix(-0.456321590900476,0.8898149277675996,-0.8898149277675996,-0.456321590900476,285.56490907547186,106.74870487774194)" style="stroke: none; fill: rgb(74, 144, 226); stroke-width: 2;"><path d=" M11.61,-5.58 L0,0 L11.61,5.58 Z"/></g></g><g class="composite-shape"><path class="real" d=" M238,213.08 Q238,220.08 245,220.08 L290,220.08 Q300,220.08 300,227.08 Q300,220.08 310,220.08 M307,220.08 L355,220.08 Q362,220.08 362,213.08" style="stroke-width: 2; stroke: rgb(245, 166, 35); stroke-opacity: 1; fill: none; fill-opacity: 1;"/></g><g class="composite-shape"><path class="real" d=" M368,212.08 Q368,219.08 375,219.08 L380,219.08 Q390,219.08 390,226.08 Q390,219.08 400,219.08 M397,219.08 L405,219.08 Q412,219.08 412,212.08" style="stroke-width: 2; stroke: rgb(245, 166, 35); stroke-opacity: 1; fill: none; fill-opacity: 1;"/></g><g class="composite-shape"><path class="real" d=" M424,197.08 Q431,197.08 431,190.08 L431,189.08 Q431,179.08 438,179.08 Q431,179.08 431,169.08 M431,172.08 L431,168.08 Q431,161.08 424,161.08" style="stroke-width: 2; stroke: rgb(245, 166, 35); stroke-opacity: 1; fill: none; fill-opacity: 1;"/></g><g class="composite-shape"><path class="real" d=" M423,155.08 Q430,155 429.92,148 L429.65,122.24 Q429.54,112.24 436.54,112.17 Q429.54,112.24 429.43,102.24 M429.46,105.24 L429.07,69 Q428.99,62 421.99,62.08" style="stroke-width: 2; stroke: rgb(245, 166, 35); stroke-opacity: 1; fill: none; fill-opacity: 1;"/></g><g class="composite-shape"><path class="real" d=" M226,110.08 Q219,110 218.92,117 L218.61,143 Q218.5,153 211.5,152.91 Q218.5,153 218.38,163 M218.42,160 L218.08,189 Q217.99,196 224.99,196.08" style="stroke-width: 2; stroke: rgb(245, 166, 35); stroke-opacity: 1; fill: none; fill-opacity: 1;"/></g><g class="composite-shape"><path class="real" d=" M227,63.08 Q220.01,62.72 219.65,69.71 L219.52,72.23 Q219.01,82.22 212.02,81.86 Q219.01,82.22 218.49,92.21 M218.65,89.21 L218.37,94.73 Q218.01,101.72 225,102.08" style="stroke-width: 2; stroke: rgb(245, 166, 35); stroke-opacity: 1; fill: none; fill-opacity: 1;"/></g><g class="composite-shape"><path class="real" d=" M284,52.08 Q284,45.08 277,45.08 L271,45.08 Q261,45.08 261,38.08 Q261,45.08 251,45.08 M254,45.08 L245,45.08 Q238,45.08 238,52.08" style="stroke-width: 2; stroke: rgb(245, 166, 35); stroke-opacity: 1; fill: none; fill-opacity: 1;"/></g><g class="composite-shape"><path class="real" d=" M411,52.08 Q411.12,45.08 404.12,44.96 L361.62,44.25 Q351.62,44.08 351.73,37.08 Q351.62,44.08 341.62,43.91 M344.62,43.96 L299.12,43.2 Q292.12,43.09 292,50.08" style="stroke-width: 2; stroke: rgb(245, 166, 35); stroke-opacity: 1; fill: none; fill-opacity: 1;"/></g><g/></g><g/><g/><g/></svg>
        <svg xmlns="http://www.w3.org/2000/svg" xmlns:xlink="http://www.w3.org/1999/xlink" width="660" height="371" style="width:660px;height:371px;font-family:Asana-Math, Asana;background:transparent;"><g><g><g><g transform="matrix(1,0,0,1,298,246.48)"><path transform="matrix(0.024480000000000002,0,0,-0.024480000000000002,0,0)" d="M271 204L242 77C238 60 236 42 236 26C236 4 245 -9 260 -9C283 -9 324 17 406 85L399 106C375 86 346 59 324 59C315 59 309 68 309 82C309 87 309 90 310 93L402 472L392 481L359 463C318 478 301 482 274 482C246 482 226 477 199 464C137 433 104 403 79 354C35 265 4 145 4 67C4 23 19 -11 38 -11C75 -11 155 41 271 204ZM319 414C297 305 278 253 244 201C187 117 126 59 94 59C82 59 76 72 76 99C76 163 104 280 139 360C163 415 186 433 234 433C257 433 275 429 319 414Z" stroke="rgb(208,2,27)" stroke-opacity="1" stroke-width="0" fill="rgb(208,2,27)" fill-opacity="1"></path></g></g></g></g><g><g><g><g transform="matrix(1,0,0,1,384,247.48)"><path transform="matrix(0.024480000000000002,0,0,-0.024480000000000002,0,0)" d="M235 722L223 733C171 707 135 698 63 691L59 670L107 670C131 670 141 663 141 646C141 639 140 628 139 622L38 71C37 68 37 64 37 61C37 22 85 -11 140 -11C177 -11 228 8 271 39C367 107 433 244 433 376C433 414 424 453 412 468C405 477 392 482 377 482C353 482 323 474 295 460C244 433 211 403 149 324ZM322 424C348 424 361 401 361 352C361 288 340 202 310 137C277 68 237 36 183 36C137 36 112 59 112 101C112 135 127 276 208 361C241 395 293 424 322 424Z" stroke="rgb(74,144,226)" stroke-opacity="1" stroke-width="0" fill="rgb(74,144,226)" fill-opacity="1"></path></g></g></g></g><g><g><g><g transform="matrix(1,0,0,1,444,188.48)"><path transform="matrix(0.024480000000000002,0,0,-0.024480000000000002,0,0)" d="M342 330L365 330C373 395 380 432 389 458C365 473 330 482 293 482C248 483 175 463 118 400C64 352 25 241 25 136C25 40 67 -11 147 -11C201 -11 249 9 304 54L354 95L346 115L331 105C259 57 221 40 186 40C130 40 101 80 101 159C101 267 136 371 185 409C206 425 230 433 261 433C306 433 342 414 342 390Z" stroke="rgb(208,2,27)" stroke-opacity="1" stroke-width="0" fill="rgb(208,2,27)" fill-opacity="1"></path></g></g></g></g><g><g><g><g transform="matrix(1,0,0,1,443,119.48)"><path transform="matrix(0.024480000000000002,0,0,-0.024480000000000002,0,0)" d="M483 722L471 733C419 707 383 698 311 691L307 670L355 670C379 670 389 663 389 646C389 638 388 629 387 622L359 468C329 477 302 482 277 482C208 482 114 410 68 323C37 265 17 170 17 86C17 21 32 -11 61 -11C88 -11 125 6 159 33C213 77 246 116 313 217L290 126C279 82 274 50 274 24C274 3 283 -9 300 -9C317 -9 341 3 375 28L456 88L446 107L402 76C388 66 372 59 363 59C355 59 349 68 349 82C349 90 350 99 357 128ZM114 59C98 59 89 73 89 98C89 224 135 380 184 418C197 428 216 433 243 433C287 433 316 427 349 410L337 351C300 171 159 59 114 59Z" stroke="rgb(74,144,226)" stroke-opacity="1" stroke-width="0" fill="rgb(74,144,226)" fill-opacity="1"></path></g></g></g></g><g><g><g><g transform="matrix(1,0,0,1,315,192)"><path transform="matrix(0.017,0,0,-0.017,0,0)" d="M271 204L242 77C238 60 236 42 236 26C236 4 245 -9 260 -9C283 -9 324 17 406 85L399 106C375 86 346 59 324 59C315 59 309 68 309 82C309 87 309 90 310 93L402 472L392 481L359 463C318 478 301 482 274 482C246 482 226 477 199 464C137 433 104 403 79 354C35 265 4 145 4 67C4 23 19 -11 38 -11C75 -11 155 41 271 204ZM319 414C297 305 278 253 244 201C187 117 126 59 94 59C82 59 76 72 76 99C76 163 104 280 139 360C163 415 186 433 234 433C257 433 275 429 319 414ZM785 330L808 330C816 395 823 432 832 458C808 473 773 482 736 482C691 483 618 463 561 400C507 352 468 241 468 136C468 40 510 -11 590 -11C644 -11 692 9 747 54L797 95L789 115L774 105C702 57 664 40 629 40C573 40 544 80 544 159C544 267 579 371 628 409C649 425 673 433 704 433C749 433 785 414 785 390Z" stroke="rgb(0,0,0)" stroke-opacity="1" stroke-width="0" fill="rgb(0,0,0)" fill-opacity="1"></path></g></g><g><g transform="matrix(1,0,0,1,332.8236083984375,192)"><path transform="matrix(0.017,0,0,-0.017,0,0)" d="M297 714L242 714L-37 -169L18 -169Z" stroke="rgb(0,0,0)" stroke-opacity="1" stroke-width="0" fill="rgb(0,0,0)" fill-opacity="1"></path></g></g><g><g transform="matrix(1,0,0,1,341.07623291015625,192)"><path transform="matrix(0.017,0,0,-0.017,0,0)" d="M16 23L16 -3C203 -3 203 0 239 0C275 0 275 -3 468 -3L468 82C353 77 307 81 122 77L304 270C401 373 431 428 431 503C431 618 353 689 226 689C154 689 105 669 56 619L39 483L68 483L81 529C97 587 133 612 200 612C286 612 341 558 341 473C341 398 299 324 186 204Z" stroke="rgb(0,0,0)" stroke-opacity="1" stroke-width="0" fill="rgb(0,0,0)" fill-opacity="1"></path></g></g></g></g><g><g><g><g transform="matrix(1,0,0,1,303,83.109375)"><path transform="matrix(0.017,0,0,-0.017,0,0)" d="M271 204L242 77C238 60 236 42 236 26C236 4 245 -9 260 -9C283 -9 324 17 406 85L399 106C375 86 346 59 324 59C315 59 309 68 309 82C309 87 309 90 310 93L402 472L392 481L359 463C318 478 301 482 274 482C246 482 226 477 199 464C137 433 104 403 79 354C35 265 4 145 4 67C4 23 19 -11 38 -11C75 -11 155 41 271 204ZM319 414C297 305 278 253 244 201C187 117 126 59 94 59C82 59 76 72 76 99C76 163 104 280 139 360C163 415 186 433 234 433C257 433 275 429 319 414ZM785 330L808 330C816 395 823 432 832 458C808 473 773 482 736 482C691 483 618 463 561 400C507 352 468 241 468 136C468 40 510 -11 590 -11C644 -11 692 9 747 54L797 95L789 115L774 105C702 57 664 40 629 40C573 40 544 80 544 159C544 267 579 371 628 409C649 425 673 433 704 433C749 433 785 414 785 390Z" stroke="rgb(0,0,0)" stroke-opacity="1" stroke-width="0" fill="rgb(0,0,0)" fill-opacity="1"></path></g></g><g><g transform="matrix(1,0,0,1,320.8236083984375,83.109375)"><path transform="matrix(0.017,0,0,-0.017,0,0)" d="M297 714L242 714L-37 -169L18 -169Z" stroke="rgb(0,0,0)" stroke-opacity="1" stroke-width="0" fill="rgb(0,0,0)" fill-opacity="1"></path></g></g><g><g transform="matrix(1,0,0,1,329.07623291015625,83.109375)"><path transform="matrix(0.017,0,0,-0.017,0,0)" d="M16 23L16 -3C203 -3 203 0 239 0C275 0 275 -3 468 -3L468 82C353 77 307 81 122 77L304 270C401 373 431 428 431 503C431 618 353 689 226 689C154 689 105 669 56 619L39 483L68 483L81 529C97 587 133 612 200 612C286 612 341 558 341 473C341 398 299 324 186 204Z" stroke="rgb(0,0,0)" stroke-opacity="1" stroke-width="0" fill="rgb(0,0,0)" fill-opacity="1"></path></g></g></g></g><g><g><g><g transform="matrix(1,0,0,1,253,91)"><path transform="matrix(0.017,0,0,-0.017,0,0)" d="M235 722L223 733C171 707 135 698 63 691L59 670L107 670C131 670 141 663 141 646C141 639 140 628 139 622L38 71C37 68 37 64 37 61C37 22 85 -11 140 -11C177 -11 228 8 271 39C367 107 433 244 433 376C433 414 424 453 412 468C405 477 392 482 377 482C353 482 323 474 295 460C244 433 211 403 149 324ZM322 424C348 424 361 401 361 352C361 288 340 202 310 137C277 68 237 36 183 36C137 36 112 59 112 101C112 135 127 276 208 361C241 395 293 424 322 424ZM804 330L827 330C835 395 842 432 851 458C827 473 792 482 755 482C710 483 637 463 580 400C526 352 487 241 487 136C487 40 529 -11 609 -11C663 -11 711 9 766 54L816 95L808 115L793 105C721 57 683 40 648 40C592 40 563 80 563 159C563 267 598 371 647 409C668 425 692 433 723 433C768 433 804 414 804 390Z" stroke="rgb(0,0,0)" stroke-opacity="1" stroke-width="0" fill="rgb(0,0,0)" fill-opacity="1"></path></g></g></g></g><g><g><g><g transform="matrix(1,0,0,1,382,186)"><path transform="matrix(0.017,0,0,-0.017,0,0)" d="M235 722L223 733C171 707 135 698 63 691L59 670L107 670C131 670 141 663 141 646C141 639 140 628 139 622L38 71C37 68 37 64 37 61C37 22 85 -11 140 -11C177 -11 228 8 271 39C367 107 433 244 433 376C433 414 424 453 412 468C405 477 392 482 377 482C353 482 323 474 295 460C244 433 211 403 149 324ZM322 424C348 424 361 401 361 352C361 288 340 202 310 137C277 68 237 36 183 36C137 36 112 59 112 101C112 135 127 276 208 361C241 395 293 424 322 424ZM804 330L827 330C835 395 842 432 851 458C827 473 792 482 755 482C710 483 637 463 580 400C526 352 487 241 487 136C487 40 529 -11 609 -11C663 -11 711 9 766 54L816 95L808 115L793 105C721 57 683 40 648 40C592 40 563 80 563 159C563 267 598 371 647 409C668 425 692 433 723 433C768 433 804 414 804 390Z" stroke="rgb(0,0,0)" stroke-opacity="1" stroke-width="0" fill="rgb(0,0,0)" fill-opacity="1"></path></g></g></g></g><g><g><g><g><g><g><g transform="matrix(1,0,0,1,242.69085693359375,130)"><path transform="matrix(0.017,0,0,-0.017,0,0)" d="M235 722L223 733C171 707 135 698 63 691L59 670L107 670C131 670 141 663 141 646C141 639 140 628 139 622L38 71C37 68 37 64 37 61C37 22 85 -11 140 -11C177 -11 228 8 271 39C367 107 433 244 433 376C433 414 424 453 412 468C405 477 392 482 377 482C353 482 323 474 295 460C244 433 211 403 149 324ZM322 424C348 424 361 401 361 352C361 288 340 202 310 137C277 68 237 36 183 36C137 36 112 59 112 101C112 135 127 276 208 361C241 395 293 424 322 424ZM945 722L933 733C881 707 845 698 773 691L769 670L817 670C841 670 851 663 851 646C851 638 850 629 849 622L821 468C791 477 764 482 739 482C670 482 576 410 530 323C499 265 479 170 479 86C479 21 494 -11 523 -11C550 -11 587 6 621 33C675 77 708 116 775 217L752 126C741 82 736 50 736 24C736 3 745 -9 762 -9C779 -9 803 3 837 28L918 88L908 107L864 76C850 66 834 59 825 59C817 59 811 68 811 82C811 90 812 99 819 128ZM576 59C560 59 551 73 551 98C551 224 597 380 646 418C659 428 678 433 705 433C749 433 778 427 811 410L799 351C762 171 621 59 576 59Z" stroke="rgb(0,0,0)" stroke-opacity="1" stroke-width="0" fill="rgb(0,0,0)" fill-opacity="1"></path></g></g></g></g><g><g><g><g transform="matrix(1,0,0,1,246.61785888671875,155)"><path transform="matrix(0.017,0,0,-0.017,0,0)" d="M16 23L16 -3C203 -3 203 0 239 0C275 0 275 -3 468 -3L468 82C353 77 307 81 122 77L304 270C401 373 431 428 431 503C431 618 353 689 226 689C154 689 105 669 56 619L39 483L68 483L81 529C97 587 133 612 200 612C286 612 341 558 341 473C341 398 299 324 186 204Z" stroke="rgb(0,0,0)" stroke-opacity="1" stroke-width="0" fill="rgb(0,0,0)" fill-opacity="1"></path></g></g></g></g><line style="fill:none;stroke-width:1px;stroke:rgb(0, 0, 0);" x1="242.6875" y1="138" x2="259.03125" y2="138"></line></g></g></g><g><g><g><g><g><g><g transform="matrix(1,0,0,1,390.22210693359375,124.328125)"><path transform="matrix(0.017,0,0,-0.017,0,0)" d="M235 722L223 733C171 707 135 698 63 691L59 670L107 670C131 670 141 663 141 646C141 639 140 628 139 622L38 71C37 68 37 64 37 61C37 22 85 -11 140 -11C177 -11 228 8 271 39C367 107 433 244 433 376C433 414 424 453 412 468C405 477 392 482 377 482C353 482 323 474 295 460C244 433 211 403 149 324ZM322 424C348 424 361 401 361 352C361 288 340 202 310 137C277 68 237 36 183 36C137 36 112 59 112 101C112 135 127 276 208 361C241 395 293 424 322 424ZM945 722L933 733C881 707 845 698 773 691L769 670L817 670C841 670 851 663 851 646C851 638 850 629 849 622L821 468C791 477 764 482 739 482C670 482 576 410 530 323C499 265 479 170 479 86C479 21 494 -11 523 -11C550 -11 587 6 621 33C675 77 708 116 775 217L752 126C741 82 736 50 736 24C736 3 745 -9 762 -9C779 -9 803 3 837 28L918 88L908 107L864 76C850 66 834 59 825 59C817 59 811 68 811 82C811 90 812 99 819 128ZM576 59C560 59 551 73 551 98C551 224 597 380 646 418C659 428 678 433 705 433C749 433 778 427 811 410L799 351C762 171 621 59 576 59Z" stroke="rgb(0,0,0)" stroke-opacity="1" stroke-width="0" fill="rgb(0,0,0)" fill-opacity="1"></path></g></g></g></g><g><g><g><g transform="matrix(1,0,0,1,394.14910888671875,149.328125)"><path transform="matrix(0.017,0,0,-0.017,0,0)" d="M16 23L16 -3C203 -3 203 0 239 0C275 0 275 -3 468 -3L468 82C353 77 307 81 122 77L304 270C401 373 431 428 431 503C431 618 353 689 226 689C154 689 105 669 56 619L39 483L68 483L81 529C97 587 133 612 200 612C286 612 341 558 341 473C341 398 299 324 186 204Z" stroke="rgb(0,0,0)" stroke-opacity="1" stroke-width="0" fill="rgb(0,0,0)" fill-opacity="1"></path></g></g></g></g><line style="fill:none;stroke-width:1px;stroke:rgb(0, 0, 0);" x1="390.21875" y1="132.328125" x2="406.5625" y2="132.328125"></line></g></g></g><g><g><g><g><g><g><g transform="matrix(1,0,0,1,78.94180297851562,297.48)"><path transform="matrix(0.024480000000000002,0,0,-0.024480000000000002,0,0)" d="M271 204L242 77C238 60 236 42 236 26C236 4 245 -9 260 -9C283 -9 324 17 406 85L399 106C375 86 346 59 324 59C315 59 309 68 309 82C309 87 309 90 310 93L402 472L392 481L359 463C318 478 301 482 274 482C246 482 226 477 199 464C137 433 104 403 79 354C35 265 4 145 4 67C4 23 19 -11 38 -11C75 -11 155 41 271 204ZM319 414C297 305 278 253 244 201C187 117 126 59 94 59C82 59 76 72 76 99C76 163 104 280 139 360C163 415 186 433 234 433C257 433 275 429 319 414Z" stroke="rgb(208,2,27)" stroke-opacity="1" stroke-width="0" fill="rgb(208,2,27)" fill-opacity="1"></path></g></g></g></g><g><g><g><g transform="matrix(1,0,0,1,106.63568115234375,297.48)"><path transform="matrix(0.024480000000000002,0,0,-0.024480000000000002,0,0)" d="M235 722L223 733C171 707 135 698 63 691L59 670L107 670C131 670 141 663 141 646C141 639 140 628 139 622L38 71C37 68 37 64 37 61C37 22 85 -11 140 -11C177 -11 228 8 271 39C367 107 433 244 433 376C433 414 424 453 412 468C405 477 392 482 377 482C353 482 323 474 295 460C244 433 211 403 149 324ZM322 424C348 424 361 401 361 352C361 288 340 202 310 137C277 68 237 36 183 36C137 36 112 59 112 101C112 135 127 276 208 361C241 395 293 424 322 424Z" stroke="rgb(74,144,226)" stroke-opacity="1" stroke-width="0" fill="rgb(74,144,226)" fill-opacity="1"></path></g></g></g></g><g><g><g><g transform="matrix(1,0,0,1,79.38580322265625,326.48)"><path transform="matrix(0.024480000000000002,0,0,-0.024480000000000002,0,0)" d="M342 330L365 330C373 395 380 432 389 458C365 473 330 482 293 482C248 483 175 463 118 400C64 352 25 241 25 136C25 40 67 -11 147 -11C201 -11 249 9 304 54L354 95L346 115L331 105C259 57 221 40 186 40C130 40 101 80 101 159C101 267 136 371 185 409C206 425 230 433 261 433C306 433 342 414 342 390Z" stroke="rgb(208,2,27)" stroke-opacity="1" stroke-width="0" fill="rgb(208,2,27)" fill-opacity="1"></path></g></g></g></g><g><g><g><g transform="matrix(1,0,0,1,106.19171142578125,326.48)"><path transform="matrix(0.024480000000000002,0,0,-0.024480000000000002,0,0)" d="M483 722L471 733C419 707 383 698 311 691L307 670L355 670C379 670 389 663 389 646C389 638 388 629 387 622L359 468C329 477 302 482 277 482C208 482 114 410 68 323C37 265 17 170 17 86C17 21 32 -11 61 -11C88 -11 125 6 159 33C213 77 246 116 313 217L290 126C279 82 274 50 274 24C274 3 283 -9 300 -9C317 -9 341 3 375 28L456 88L446 107L402 76C388 66 372 59 363 59C355 59 349 68 349 82C349 90 350 99 357 128ZM114 59C98 59 89 73 89 98C89 224 135 380 184 418C197 428 216 433 243 433C287 433 316 427 349 410L337 351C300 171 159 59 114 59Z" stroke="rgb(74,144,226)" stroke-opacity="1" stroke-width="0" fill="rgb(74,144,226)" fill-opacity="1"></path></g></g></g></g><svg x="60" overflow="visible" y="273" height="59" width="14.6875"><rect style="fill:rgb(0,0,0);fill-opacity:1;stroke-width:1px;stroke:none;stroke-opacity:1;" x="4.51" y="2.72" width="2" height="53.56"></rect></svg><svg x="121.75" overflow="visible" y="273" height="59" width="14.6875"><rect style="fill:rgb(0,0,0);fill-opacity:1;stroke-width:1px;stroke:none;stroke-opacity:1;" x="4.51" y="2.72" width="2" height="53.56"></rect></svg><line stroke-dasharray="1" style="fill:none;stroke-width:[object Object];stroke:rgba(0, 0, 0, 0);" x1="70.296875" y1="273.5" x2="98.21875" y2="273.5"></line><line stroke-dasharray="1" style="fill:none;stroke-width:[object Object];stroke:rgba(0, 0, 0, 0);" x1="70.296875" y1="273.5" x2="70.296875" y2="302.5"></line><line stroke-dasharray="1" style="fill:none;stroke-width:[object Object];stroke:rgba(0, 0, 0, 0);" x1="98.21875" y1="273.5" x2="98.21875" y2="302.5"></line><line stroke-dasharray="1" style="fill:none;stroke-width:[object Object];stroke:rgba(0, 0, 0, 0);" x1="70.296875" y1="302.5" x2="98.21875" y2="302.5"></line><line stroke-dasharray="1" style="fill:none;stroke-width:[object Object];stroke:rgba(0, 0, 0, 0);" x1="98.21875" y1="273.5" x2="126.140625" y2="273.5"></line><line stroke-dasharray="1" style="fill:none;stroke-width:[object Object];stroke:rgba(0, 0, 0, 0);" x1="98.21875" y1="273.5" x2="98.21875" y2="302.5"></line><line stroke-dasharray="1" style="fill:none;stroke-width:[object Object];stroke:rgba(0, 0, 0, 0);" x1="126.140625" y1="273.5" x2="126.140625" y2="302.5"></line><line stroke-dasharray="1" style="fill:none;stroke-width:[object Object];stroke:rgba(0, 0, 0, 0);" x1="98.21875" y1="302.5" x2="126.140625" y2="302.5"></line><line stroke-dasharray="1" style="fill:none;stroke-width:[object Object];stroke:rgba(0, 0, 0, 0);" x1="70.296875" y1="302.5" x2="98.21875" y2="302.5"></line><line stroke-dasharray="1" style="fill:none;stroke-width:[object Object];stroke:rgba(0, 0, 0, 0);" x1="70.296875" y1="302.5" x2="70.296875" y2="331.5"></line><line stroke-dasharray="1" style="fill:none;stroke-width:[object Object];stroke:rgba(0, 0, 0, 0);" x1="98.21875" y1="302.5" x2="98.21875" y2="331.5"></line><line stroke-dasharray="1" style="fill:none;stroke-width:[object Object];stroke:rgba(0, 0, 0, 0);" x1="70.296875" y1="331.5" x2="98.21875" y2="331.5"></line><line stroke-dasharray="1" style="fill:none;stroke-width:[object Object];stroke:rgba(0, 0, 0, 0);" x1="98.21875" y1="302.5" x2="126.140625" y2="302.5"></line><line stroke-dasharray="1" style="fill:none;stroke-width:[object Object];stroke:rgba(0, 0, 0, 0);" x1="98.21875" y1="302.5" x2="98.21875" y2="331.5"></line><line stroke-dasharray="1" style="fill:none;stroke-width:[object Object];stroke:rgba(0, 0, 0, 0);" x1="126.140625" y1="302.5" x2="126.140625" y2="331.5"></line><line stroke-dasharray="1" style="fill:none;stroke-width:[object Object];stroke:rgba(0, 0, 0, 0);" x1="98.21875" y1="331.5" x2="126.140625" y2="331.5"></line></g><g><g transform="matrix(1,0,0,1,143.78125,309.48)"><path transform="matrix(0.024480000000000002,0,0,-0.024480000000000002,0,0)" d="M604 347L604 406L65 406L65 347ZM604 134L604 193L65 193L65 134Z" stroke="rgb(0,0,0)" stroke-opacity="1" stroke-width="0" fill="rgb(0,0,0)" fill-opacity="1"></path></g></g><g><g transform="matrix(1,0,0,1,167.15625,310.48)"><path transform="matrix(0.024480000000000002,0,0,-0.024480000000000002,0,0)" d="M146 266C146 526 243 632 301 700L282 726C225 675 60 542 60 266C60 159 85 58 133 -32C168 -99 200 -138 282 -215L301 -194C255 -137 146 -15 146 266Z" stroke="rgb(0,0,0)" stroke-opacity="1" stroke-width="0" fill="rgb(0,0,0)" fill-opacity="1"></path></g></g><g><g transform="matrix(1,0,0,1,175.125732421875,309.48)"><path transform="matrix(0.024480000000000002,0,0,-0.024480000000000002,0,0)" d="M271 204L242 77C238 60 236 42 236 26C236 4 245 -9 260 -9C283 -9 324 17 406 85L399 106C375 86 346 59 324 59C315 59 309 68 309 82C309 87 309 90 310 93L402 472L392 481L359 463C318 478 301 482 274 482C246 482 226 477 199 464C137 433 104 403 79 354C35 265 4 145 4 67C4 23 19 -11 38 -11C75 -11 155 41 271 204ZM319 414C297 305 278 253 244 201C187 117 126 59 94 59C82 59 76 72 76 99C76 163 104 280 139 360C163 415 186 433 234 433C257 433 275 429 319 414Z" stroke="rgb(0,0,0)" stroke-opacity="1" stroke-width="0" fill="rgb(0,0,0)" fill-opacity="1"></path></g></g><g><g transform="matrix(1,0,0,1,190.64837646484375,309.48)"><path transform="matrix(0.024480000000000002,0,0,-0.024480000000000002,0,0)" d="M604 241L604 300L364 300L364 538L305 538L305 300L65 300L65 241L305 241L305 0L364 0L364 241Z" stroke="rgb(0,0,0)" stroke-opacity="1" stroke-width="0" fill="rgb(0,0,0)" fill-opacity="1"></path></g></g><g><g transform="matrix(1,0,0,1,211.57098388671875,309.48)"><path transform="matrix(0.024480000000000002,0,0,-0.024480000000000002,0,0)" d="M235 722L223 733C171 707 135 698 63 691L59 670L107 670C131 670 141 663 141 646C141 639 140 628 139 622L38 71C37 68 37 64 37 61C37 22 85 -11 140 -11C177 -11 228 8 271 39C367 107 433 244 433 376C433 414 424 453 412 468C405 477 392 482 377 482C353 482 323 474 295 460C244 433 211 403 149 324ZM322 424C348 424 361 401 361 352C361 288 340 202 310 137C277 68 237 36 183 36C137 36 112 59 112 101C112 135 127 276 208 361C241 395 293 424 322 424Z" stroke="rgb(0,0,0)" stroke-opacity="1" stroke-width="0" fill="rgb(0,0,0)" fill-opacity="1"></path></g></g><g><g transform="matrix(1,0,0,1,222.65625,310.48)"><path transform="matrix(0.024480000000000002,0,0,-0.024480000000000002,0,0)" d="M51 726L32 700C87 636 187 526 187 266C187 -10 83 -131 32 -194L51 -215C104 -165 273 -23 273 265C273 542 108 675 51 726Z" stroke="rgb(0,0,0)" stroke-opacity="1" stroke-width="0" fill="rgb(0,0,0)" fill-opacity="1"></path></g></g><g><g transform="matrix(1,0,0,1,230.625,310.48)"><path transform="matrix(0.024480000000000002,0,0,-0.024480000000000002,0,0)" d="M146 266C146 526 243 632 301 700L282 726C225 675 60 542 60 266C60 159 85 58 133 -32C168 -99 200 -138 282 -215L301 -194C255 -137 146 -15 146 266Z" stroke="rgb(0,0,0)" stroke-opacity="1" stroke-width="0" fill="rgb(0,0,0)" fill-opacity="1"></path></g></g><g><g transform="matrix(1,0,0,1,238.59649658203125,309.48)"><path transform="matrix(0.024480000000000002,0,0,-0.024480000000000002,0,0)" d="M342 330L365 330C373 395 380 432 389 458C365 473 330 482 293 482C248 483 175 463 118 400C64 352 25 241 25 136C25 40 67 -11 147 -11C201 -11 249 9 304 54L354 95L346 115L331 105C259 57 221 40 186 40C130 40 101 80 101 159C101 267 136 371 185 409C206 425 230 433 261 433C306 433 342 414 342 390Z" stroke="rgb(0,0,0)" stroke-opacity="1" stroke-width="0" fill="rgb(0,0,0)" fill-opacity="1"></path></g></g><g><g transform="matrix(1,0,0,1,253.23114013671875,309.48)"><path transform="matrix(0.024480000000000002,0,0,-0.024480000000000002,0,0)" d="M604 241L604 300L364 300L364 538L305 538L305 300L65 300L65 241L305 241L305 0L364 0L364 241Z" stroke="rgb(0,0,0)" stroke-opacity="1" stroke-width="0" fill="rgb(0,0,0)" fill-opacity="1"></path></g></g><g><g transform="matrix(1,0,0,1,274.15374755859375,309.48)"><path transform="matrix(0.024480000000000002,0,0,-0.024480000000000002,0,0)" d="M483 722L471 733C419 707 383 698 311 691L307 670L355 670C379 670 389 663 389 646C389 638 388 629 387 622L359 468C329 477 302 482 277 482C208 482 114 410 68 323C37 265 17 170 17 86C17 21 32 -11 61 -11C88 -11 125 6 159 33C213 77 246 116 313 217L290 126C279 82 274 50 274 24C274 3 283 -9 300 -9C317 -9 341 3 375 28L456 88L446 107L402 76C388 66 372 59 363 59C355 59 349 68 349 82C349 90 350 99 357 128ZM114 59C98 59 89 73 89 98C89 224 135 380 184 418C197 428 216 433 243 433C287 433 316 427 349 410L337 351C300 171 159 59 114 59Z" stroke="rgb(0,0,0)" stroke-opacity="1" stroke-width="0" fill="rgb(0,0,0)" fill-opacity="1"></path></g></g><g><g transform="matrix(1,0,0,1,286.125,310.48)"><path transform="matrix(0.024480000000000002,0,0,-0.024480000000000002,0,0)" d="M51 726L32 700C87 636 187 526 187 266C187 -10 83 -131 32 -194L51 -215C104 -165 273 -23 273 265C273 542 108 675 51 726Z" stroke="rgb(0,0,0)" stroke-opacity="1" stroke-width="0" fill="rgb(0,0,0)" fill-opacity="1"></path></g></g><g><g transform="matrix(1,0,0,1,298.9891357421875,309.48)"><path transform="matrix(0.024480000000000002,0,0,-0.024480000000000002,0,0)" d="M555 243L555 299L51 299L51 243Z" stroke="rgb(0,0,0)" stroke-opacity="1" stroke-width="0" fill="rgb(0,0,0)" fill-opacity="1"></path></g></g><g><g transform="matrix(1,0,0,1,318.3997802734375,309.48)"><path transform="matrix(0.024480000000000002,0,0,-0.024480000000000002,0,0)" d="M271 204L242 77C238 60 236 42 236 26C236 4 245 -9 260 -9C283 -9 324 17 406 85L399 106C375 86 346 59 324 59C315 59 309 68 309 82C309 87 309 90 310 93L402 472L392 481L359 463C318 478 301 482 274 482C246 482 226 477 199 464C137 433 104 403 79 354C35 265 4 145 4 67C4 23 19 -11 38 -11C75 -11 155 41 271 204ZM319 414C297 305 278 253 244 201C187 117 126 59 94 59C82 59 76 72 76 99C76 163 104 280 139 360C163 415 186 433 234 433C257 433 275 429 319 414ZM785 330L808 330C816 395 823 432 832 458C808 473 773 482 736 482C691 483 618 463 561 400C507 352 468 241 468 136C468 40 510 -11 590 -11C644 -11 692 9 747 54L797 95L789 115L774 105C702 57 664 40 629 40C573 40 544 80 544 159C544 267 579 371 628 409C649 425 673 433 704 433C749 433 785 414 785 390Z" stroke="rgb(0,0,0)" stroke-opacity="1" stroke-width="0" fill="rgb(0,0,0)" fill-opacity="1"></path></g></g><g><g transform="matrix(1,0,0,1,343.6663818359375,309.48)"><path transform="matrix(0.024480000000000002,0,0,-0.024480000000000002,0,0)" d="M555 243L555 299L51 299L51 243Z" stroke="rgb(0,0,0)" stroke-opacity="1" stroke-width="0" fill="rgb(0,0,0)" fill-opacity="1"></path></g></g><g><g transform="matrix(1,0,0,1,363.0770263671875,309.48)"><path transform="matrix(0.024480000000000002,0,0,-0.024480000000000002,0,0)" d="M235 722L223 733C171 707 135 698 63 691L59 670L107 670C131 670 141 663 141 646C141 639 140 628 139 622L38 71C37 68 37 64 37 61C37 22 85 -11 140 -11C177 -11 228 8 271 39C367 107 433 244 433 376C433 414 424 453 412 468C405 477 392 482 377 482C353 482 323 474 295 460C244 433 211 403 149 324ZM322 424C348 424 361 401 361 352C361 288 340 202 310 137C277 68 237 36 183 36C137 36 112 59 112 101C112 135 127 276 208 361C241 395 293 424 322 424ZM945 722L933 733C881 707 845 698 773 691L769 670L817 670C841 670 851 663 851 646C851 638 850 629 849 622L821 468C791 477 764 482 739 482C670 482 576 410 530 323C499 265 479 170 479 86C479 21 494 -11 523 -11C550 -11 587 6 621 33C675 77 708 116 775 217L752 126C741 82 736 50 736 24C736 3 745 -9 762 -9C779 -9 803 3 837 28L918 88L908 107L864 76C850 66 834 59 825 59C817 59 811 68 811 82C811 90 812 99 819 128ZM576 59C560 59 551 73 551 98C551 224 597 380 646 418C659 428 678 433 705 433C749 433 778 427 811 410L799 351C762 171 621 59 576 59Z" stroke="rgb(0,0,0)" stroke-opacity="1" stroke-width="0" fill="rgb(0,0,0)" fill-opacity="1"></path></g></g><g><g transform="matrix(1,0,0,1,391.0316162109375,309.48)"><path transform="matrix(0.024480000000000002,0,0,-0.024480000000000002,0,0)" d="M555 243L555 299L51 299L51 243Z" stroke="rgb(0,0,0)" stroke-opacity="1" stroke-width="0" fill="rgb(0,0,0)" fill-opacity="1"></path></g></g><g><g transform="matrix(1,0,0,1,410.4422607421875,309.48)"><path transform="matrix(0.024480000000000002,0,0,-0.024480000000000002,0,0)" d="M16 23L16 -3C203 -3 203 0 239 0C275 0 275 -3 468 -3L468 82C353 77 307 81 122 77L304 270C401 373 431 428 431 503C431 618 353 689 226 689C154 689 105 669 56 619L39 483L68 483L81 529C97 587 133 612 200 612C286 612 341 558 341 473C341 398 299 324 186 204ZM734 722L722 733C670 707 634 698 562 691L558 670L606 670C630 670 640 663 640 646C640 639 639 628 638 622L537 71C536 68 536 64 536 61C536 22 584 -11 639 -11C676 -11 727 8 770 39C866 107 932 244 932 376C932 414 923 453 911 468C904 477 891 482 876 482C852 482 822 474 794 460C743 433 710 403 648 324ZM821 424C847 424 860 401 860 352C860 288 839 202 809 137C776 68 736 36 682 36C636 36 611 59 611 101C611 135 626 276 707 361C740 395 792 424 821 424ZM1303 330L1326 330C1334 395 1341 432 1350 458C1326 473 1291 482 1254 482C1209 483 1136 463 1079 400C1025 352 986 241 986 136C986 40 1028 -11 1108 -11C1162 -11 1210 9 1265 54L1315 95L1307 115L1292 105C1220 57 1182 40 1147 40C1091 40 1062 80 1062 159C1062 267 1097 371 1146 409C1167 425 1191 433 1222 433C1267 433 1303 414 1303 390Z" stroke="rgb(0,0,0)" stroke-opacity="1" stroke-width="0" fill="rgb(0,0,0)" fill-opacity="1"></path></g></g><g><g transform="matrix(1,0,0,1,450.593994140625,309.48)"><path transform="matrix(0.024480000000000002,0,0,-0.024480000000000002,0,0)" d="M604 347L604 406L65 406L65 347ZM604 134L604 193L65 193L65 134Z" stroke="rgb(0,0,0)" stroke-opacity="1" stroke-width="0" fill="rgb(0,0,0)" fill-opacity="1"></path></g></g><g><g transform="matrix(1,0,0,1,473.9697265625,309.48)"><path transform="matrix(0.024480000000000002,0,0,-0.024480000000000002,0,0)" d="M271 204L242 77C238 60 236 42 236 26C236 4 245 -9 260 -9C283 -9 324 17 406 85L399 106C375 86 346 59 324 59C315 59 309 68 309 82C309 87 309 90 310 93L402 472L392 481L359 463C318 478 301 482 274 482C246 482 226 477 199 464C137 433 104 403 79 354C35 265 4 145 4 67C4 23 19 -11 38 -11C75 -11 155 41 271 204ZM319 414C297 305 278 253 244 201C187 117 126 59 94 59C82 59 76 72 76 99C76 163 104 280 139 360C163 415 186 433 234 433C257 433 275 429 319 414Z" stroke="rgb(208,2,27)" stroke-opacity="1" stroke-width="0" fill="rgb(208,2,27)" fill-opacity="1"></path></g></g><g><g transform="matrix(1,0,0,1,484.60174560546875,309.48)"><path transform="matrix(0.024480000000000002,0,0,-0.024480000000000002,0,0)" d="M483 722L471 733C419 707 383 698 311 691L307 670L355 670C379 670 389 663 389 646C389 638 388 629 387 622L359 468C329 477 302 482 277 482C208 482 114 410 68 323C37 265 17 170 17 86C17 21 32 -11 61 -11C88 -11 125 6 159 33C213 77 246 116 313 217L290 126C279 82 274 50 274 24C274 3 283 -9 300 -9C317 -9 341 3 375 28L456 88L446 107L402 76C388 66 372 59 363 59C355 59 349 68 349 82C349 90 350 99 357 128ZM114 59C98 59 89 73 89 98C89 224 135 380 184 418C197 428 216 433 243 433C287 433 316 427 349 410L337 351C300 171 159 59 114 59Z" stroke="rgb(74,144,226)" stroke-opacity="1" stroke-width="0" fill="rgb(74,144,226)" fill-opacity="1"></path></g></g><g><g transform="matrix(1,0,0,1,501.4683837890625,309.48)"><path transform="matrix(0.024480000000000002,0,0,-0.024480000000000002,0,0)" d="M555 243L555 299L51 299L51 243Z" stroke="rgb(0,0,0)" stroke-opacity="1" stroke-width="0" fill="rgb(0,0,0)" fill-opacity="1"></path></g></g><g><g transform="matrix(1,0,0,1,520.8790283203125,309.48)"><path transform="matrix(0.024480000000000002,0,0,-0.024480000000000002,0,0)" d="M235 722L223 733C171 707 135 698 63 691L59 670L107 670C131 670 141 663 141 646C141 639 140 628 139 622L38 71C37 68 37 64 37 61C37 22 85 -11 140 -11C177 -11 228 8 271 39C367 107 433 244 433 376C433 414 424 453 412 468C405 477 392 482 377 482C353 482 323 474 295 460C244 433 211 403 149 324ZM322 424C348 424 361 401 361 352C361 288 340 202 310 137C277 68 237 36 183 36C137 36 112 59 112 101C112 135 127 276 208 361C241 395 293 424 322 424Z" stroke="rgb(74,144,226)" stroke-opacity="1" stroke-width="0" fill="rgb(74,144,226)" fill-opacity="1"></path></g></g><g><g transform="matrix(1,0,0,1,531.967041015625,309.48)"><path transform="matrix(0.024480000000000002,0,0,-0.024480000000000002,0,0)" d="M342 330L365 330C373 395 380 432 389 458C365 473 330 482 293 482C248 483 175 463 118 400C64 352 25 241 25 136C25 40 67 -11 147 -11C201 -11 249 9 304 54L354 95L346 115L331 105C259 57 221 40 186 40C130 40 101 80 101 159C101 267 136 371 185 409C206 425 230 433 261 433C306 433 342 414 342 390Z" stroke="rgb(208,2,27)" stroke-opacity="1" stroke-width="0" fill="rgb(208,2,27)" fill-opacity="1"></path></g></g></g></g><g><g><g><g transform="matrix(1,0,0,1,346.34375,32.901875000000004)"><path transform="matrix(0.024480000000000002,0,0,-0.024480000000000002,0,0)" d="M271 204L242 77C238 60 236 42 236 26C236 4 245 -9 260 -9C283 -9 324 17 406 85L399 106C375 86 346 59 324 59C315 59 309 68 309 82C309 87 309 90 310 93L402 472L392 481L359 463C318 478 301 482 274 482C246 482 226 477 199 464C137 433 104 403 79 354C35 265 4 145 4 67C4 23 19 -11 38 -11C75 -11 155 41 271 204ZM319 414C297 305 278 253 244 201C187 117 126 59 94 59C82 59 76 72 76 99C76 163 104 280 139 360C163 415 186 433 234 433C257 433 275 429 319 414Z" stroke="rgb(208,2,27)" stroke-opacity="1" stroke-width="0" fill="rgb(208,2,27)" fill-opacity="1"></path></g></g></g></g><g><g><g><g transform="matrix(1,0,0,1,255,32.480000000000004)"><path transform="matrix(0.024480000000000002,0,0,-0.024480000000000002,0,0)" d="M235 722L223 733C171 707 135 698 63 691L59 670L107 670C131 670 141 663 141 646C141 639 140 628 139 622L38 71C37 68 37 64 37 61C37 22 85 -11 140 -11C177 -11 228 8 271 39C367 107 433 244 433 376C433 414 424 453 412 468C405 477 392 482 377 482C353 482 323 474 295 460C244 433 211 403 149 324ZM322 424C348 424 361 401 361 352C361 288 340 202 310 137C277 68 237 36 183 36C137 36 112 59 112 101C112 135 127 276 208 361C241 395 293 424 322 424Z" stroke="rgb(74,144,226)" stroke-opacity="1" stroke-width="0" fill="rgb(74,144,226)" fill-opacity="1"></path></g></g></g></g><g><g><g><g transform="matrix(1,0,0,1,197,87.48)"><path transform="matrix(0.024480000000000002,0,0,-0.024480000000000002,0,0)" d="M342 330L365 330C373 395 380 432 389 458C365 473 330 482 293 482C248 483 175 463 118 400C64 352 25 241 25 136C25 40 67 -11 147 -11C201 -11 249 9 304 54L354 95L346 115L331 105C259 57 221 40 186 40C130 40 101 80 101 159C101 267 136 371 185 409C206 425 230 433 261 433C306 433 342 414 342 390Z" stroke="rgb(208,2,27)" stroke-opacity="1" stroke-width="0" fill="rgb(208,2,27)" fill-opacity="1"></path></g></g></g></g><g><g><g><g transform="matrix(1,0,0,1,193,159.48)"><path transform="matrix(0.024480000000000002,0,0,-0.024480000000000002,0,0)" d="M483 722L471 733C419 707 383 698 311 691L307 670L355 670C379 670 389 663 389 646C389 638 388 629 387 622L359 468C329 477 302 482 277 482C208 482 114 410 68 323C37 265 17 170 17 86C17 21 32 -11 61 -11C88 -11 125 6 159 33C213 77 246 116 313 217L290 126C279 82 274 50 274 24C274 3 283 -9 300 -9C317 -9 341 3 375 28L456 88L446 107L402 76C388 66 372 59 363 59C355 59 349 68 349 82C349 90 350 99 357 128ZM114 59C98 59 89 73 89 98C89 224 135 380 184 418C197 428 216 433 243 433C287 433 316 427 349 410L337 351C300 171 159 59 114 59Z" stroke="rgb(74,144,226)" stroke-opacity="1" stroke-width="0" fill="rgb(74,144,226)" fill-opacity="1"></path></g></g></g></g></svg>
</svg>
