<?xml version="1.0" encoding="UTF-8" standalone="no"?>
<svg
   x="0"
   y="0"
   width="250"
   height="247"
   style="fill:none"
   version="1.1"
   id="svg174"
   sodipodi:docname="diagram-20230708.svg"
   inkscape:version="1.2.2 (b0a8486, 2022-12-01)"
   xmlns:inkscape="http://www.inkscape.org/namespaces/inkscape"
   xmlns:sodipodi="http://sodipodi.sourceforge.net/DTD/sodipodi-0.dtd"
   xmlns="http://www.w3.org/2000/svg"
   xmlns:svg="http://www.w3.org/2000/svg">
  <defs
     id="defs178" />
  <sodipodi:namedview
     id="namedview176"
     pagecolor="#ffffff"
     bordercolor="#000000"
     borderopacity="0.25"
     inkscape:showpageshadow="2"
     inkscape:pageopacity="0.0"
     inkscape:pagecheckerboard="0"
     inkscape:deskcolor="#d1d1d1"
     showgrid="false"
     inkscape:zoom="1.7160121"
     inkscape:cx="331"
     inkscape:cy="123.54225"
     inkscape:window-width="1280"
     inkscape:window-height="680"
     inkscape:window-x="0"
     inkscape:window-y="25"
     inkscape:window-maximized="0"
     inkscape:current-layer="svg174" />
  <svg
     class="role-diagram-draw-area"
     version="1.1"
     id="svg60"
     width="100%"
     height="100%">
    <g
       class="shapes-region"
       style="fill:none;stroke:#000000"
       id="g52">
      <g
         class="arrow-line"
         id="g8">
        <path
           class="connection real"
           stroke-dasharray="none"
           d="m 23,185.08 200,-2.04"
           style="fill:none;fill-opacity:1;stroke:#000000;stroke-width:2"
           id="path2" />
        <g
           stroke="none"
           fill="#000"
           transform="rotate(179.42,113.03687,92.07448)"
           style="fill:#000000;stroke:none;stroke-width:2"
           id="g6">
          <path
             d="M 11.61,-5.58 0,0 11.61,5.58 Z"
             id="path4" />
        </g>
      </g>
      <g
         class="arrow-line"
         id="g16">
        <path
           class="connection real"
           stroke-dasharray="none"
           d="m 74,222.05 v -194"
           style="fill:none;fill-opacity:1;stroke:#000000;stroke-width:2"
           id="path10" />
        <g
           stroke="none"
           fill="#000"
           transform="rotate(90,24.976562,49.023438)"
           style="fill:#000000;stroke:none;stroke-width:2"
           id="g14">
          <path
             d="M 11.61,-5.58 0,0 11.61,5.58 Z"
             id="path12" />
        </g>
      </g>
      <g
         class="arrow-line"
         id="g24">
        <path
           class="connection real"
           stroke-dasharray="none"
           d="M 111.9,50.92 74,183"
           style="fill:#f5a623;fill-opacity:1;stroke:#f5a623;stroke-width:2;stroke-opacity:1"
           id="path18" />
        <g
           stroke="none"
           fill="rgb(245,166,35)"
           fill-opacity="1"
           transform="rotate(106.01,38.765265,66.107136)"
           style="fill:#f5a623;stroke:none;stroke-width:2"
           id="g22">
          <path
             d="M 11.61,-5.58 0,0 11.61,5.58 Z"
             id="path20" />
        </g>
      </g>
      <g
         class="arrow-line"
         id="g32">
        <path
           class="connection real"
           stroke-dasharray="none"
           d="M 199.35,126.72 74,183"
           style="fill:none;fill-opacity:1;stroke:#7ed321;stroke-width:2;stroke-opacity:1"
           id="path26" />
        <g
           stroke="none"
           fill="rgb(126,211,33)"
           fill-opacity="1"
           transform="rotate(155.82,88.104203,84.280248)"
           style="fill:#7ed321;stroke:none;stroke-width:2"
           id="g30">
          <path
             d="M 11.61,-5.58 0,0 11.61,5.58 Z"
             id="path28" />
        </g>
      </g>
      <g
         class="arrow-line"
         id="g40">
        <path
           class="connection real"
           stroke-dasharray="2.25, 3.685"
           d="M 203,125.08 C 190.33,84.13 164.34,59.34 116.71,47.93"
           style="fill:none;fill-opacity:1;stroke:#4a90e2;stroke-width:2;stroke-opacity:1"
           id="path34" />
        <g
           stroke="none"
           fill="rgb(74,144,226)"
           fill-opacity="1"
           transform="rotate(12.41,-160.00478,543.20802)"
           style="fill:#4a90e2;stroke:none;stroke-width:2"
           id="g38">
          <path
             d="M 11.07,-5.32 0,0 11.07,5.32 7.35,0 Z"
             id="path36" />
        </g>
      </g>
      <g
         class="arrow-line"
         id="g48">
        <path
           class="connection real"
           stroke-dasharray="2.25, 3.685"
           d="M 201.3,128.43 C 153.9,107.11 132.5,88.03 113,47.08"
           style="fill:none;fill-opacity:1;stroke:#4a90e2;stroke-width:2;stroke-opacity:1"
           id="path42" />
        <g
           stroke="none"
           fill="rgb(74,144,226)"
           fill-opacity="1"
           transform="rotate(-156.25,116.17624,43.485631)"
           style="fill:#4a90e2;stroke:none;stroke-width:2"
           id="g46">
          <path
             d="M 11.07,-5.32 0,0 11.07,5.32 7.35,0 Z"
             id="path44" />
        </g>
      </g>
      <g
         id="g50" />
    </g>
    <g
       id="g54" />
    <g
       id="g56" />
    <g
       id="g58" />
  </svg>
  <svg
     width="660"
     height="245"
     style="font-family:Asana-Math, Asana"
     version="1.1"
     id="svg172">
    <g
       id="g70">
      <g
         id="g68">
        <g
           id="g66">
          <g
             transform="translate(213,205.4)"
             id="g64">
            <path
               transform="scale(0.0204,-0.0204)"
               d="m 9,1 c 15,-8 31,-12 43,-12 33,0 72,29 103,76 l 76,117 11,-69 c 13,-85 36,-124 72,-124 22,0 54,17 86,46 l 49,44 -9,19 C 404,68 379,53 363,53 c -15,0 -28,10 -38,30 -9,19 -20,56 -25,85 l -18,101 35,49 c 47,65 74,88 105,88 16,0 28,-8 33,-23 l 14,4 15,85 c -12,7 -21,10 -30,10 -40,0 -80,-36 -142,-128 l -37,-55 -6,48 c -12,99 -39,135 -98,135 -26,0 -48,-8 -57,-21 L 56,378 73,368 c 30,34 50,48 69,48 33,0 55,-41 72,-139 l 11,-62 -40,-62 C 142,86 108,54 80,54 65,54 54,58 52,63 L 41,91 21,88 C 21,53 13,27 9,1 Z"
               stroke="#000000"
               stroke-opacity="1"
               stroke-width="0"
               fill="#000000"
               fill-opacity="1"
               id="path62" />
          </g>
        </g>
      </g>
    </g>
    <g
       id="g80">
      <g
         id="g78">
        <g
           id="g76">
          <g
             transform="translate(53,205.4)"
             id="g74">
            <path
               transform="scale(0.0204,-0.0204)"
               d="M 748,425 C 748,603 644,706 464,706 227,706 53,523 53,272 53,83 147,-18 323,-18 595,-18 748,207 748,425 Z M 660,409 C 660,221 571,24 360,24 216,24 141,110 141,277 c 0,148 58,387 292,387 116,0 227,-54 227,-255 z"
               stroke="#000000"
               stroke-opacity="1"
               stroke-width="0"
               fill="#000000"
               fill-opacity="1"
               id="path72" />
          </g>
        </g>
      </g>
    </g>
    <g
       id="g90">
      <g
         id="g88">
        <g
           id="g86">
          <g
             transform="translate(92,159.91562)"
             id="g84">
            <path
               transform="scale(0.0204,-0.0204)"
               d="m 237,-16 c 236,0 335,332 339,520 2,114 -30,198 -157,198 C 159,702 72,412 69,199 67,80 101,-16 237,-16 Z m 164,692 c 135,0 105,-185 84,-295 H 169 c 25,104 103,295 232,295 z M 253,13 C 102,13 147,261 163,349 H 479 C 454,237 396,13 253,13 Z"
               stroke="#000000"
               stroke-opacity="1"
               stroke-width="0"
               fill="#000000"
               fill-opacity="1"
               id="path82" />
          </g>
        </g>
      </g>
    </g>
    <g
       id="g100">
      <g
         id="g98">
        <g
           id="g96">
          <g
             transform="translate(201,153.48)"
             id="g94">
            <path
               transform="scale(0.02448,-0.02448)"
               d="m 539,431 v 28 c -60,-2 -78,-3 -94,-3 -16,0 -34,1 -94,3 v -28 l 41,-2 c 16,-1 24,-10 24,-26 0,-16 -7,-43 -19,-73 C 385,301 331,167 293,84 L 174,372 c -6,14 -9,27 -9,38 0,11 9,18 25,19 l 49,2 v 28 c -98,-3 -98,-3 -117,-3 -19,0 -67,1 -116,3 v -28 l 34,-2 c 15,-2 20,-8 31,-33 L 243,-7 h 50 l 159,369 c 22,47 36,65 56,67 z"
               stroke="#000000"
               stroke-opacity="1"
               stroke-width="24"
               fill="#000000"
               fill-opacity="1"
               id="path92" />
          </g>
        </g>
      </g>
    </g>
    <g
       id="g116">
      <g
         id="g114">
        <g
           id="g106">
          <g
             transform="translate(93,46.48)"
             id="g104">
            <path
               transform="scale(0.02448,-0.02448)"
               d="m 539,431 v 28 c -60,-2 -78,-3 -94,-3 -16,0 -34,1 -94,3 v -28 l 41,-2 c 16,-1 24,-10 24,-26 0,-16 -7,-43 -19,-73 C 385,301 331,167 293,84 L 174,372 c -6,14 -9,27 -9,38 0,11 9,18 25,19 l 49,2 v 28 c -98,-3 -98,-3 -117,-3 -19,0 -67,1 -116,3 v -28 l 34,-2 c 15,-2 20,-8 31,-33 L 243,-7 h 50 l 159,369 c 22,47 36,65 56,67 z"
               stroke="#000000"
               stroke-opacity="1"
               stroke-width="24"
               fill="#000000"
               fill-opacity="1"
               id="path102" />
          </g>
        </g>
        <g
           id="g112">
          <g
             transform="translate(107.53601,46.48)"
             id="g110">
            <path
               transform="scale(0.02448,-0.02448)"
               d="m 104,470 c 57,73 95,140 129,226 l -13,13 C 184,697 174,694 123,679 117,599 93,533 45,456 l 15,-10 z"
               stroke="#000000"
               stroke-opacity="1"
               stroke-width="0"
               fill="#000000"
               fill-opacity="1"
               id="path108" />
          </g>
        </g>
      </g>
    </g>
    <g
       id="g126">
      <g
         id="g124">
        <g
           id="g122">
          <g
             transform="translate(51,45.4)"
             id="g120">
            <path
               transform="scale(0.0204,-0.0204)"
               d="m -7,-180 c -1,-7 -1,-13 -1,-18 0,-43 37,-78 82,-78 106,0 216,124 275,309 l 141,440 -11,9 C 450,471 427,465 405,463 L 370,331 C 358,284 323,211 290,162 255,111 206,67 184,67 c -12,0 -21,23 -20,48 l 16,207 c 2,31 4,69 4,97 0,45 -7,63 -24,63 -13,0 -27,-7 -75,-40 L 3,386 14,368 64,398 c 5,3 16,12 25,12 14,0 22,-19 22,-52 0,-1 0,-7 -1,-15 L 93,100 92,60 c 0,-42 18,-71 43,-71 37,0 121,85 196,198 L 282,16 c -51,-177 -101,-250 -171,-250 -35,0 -62,27 -62,62 0,5 1,13 2,22 l -10,4 z"
               stroke="#000000"
               stroke-opacity="1"
               stroke-width="0"
               fill="#000000"
               fill-opacity="1"
               id="path118" />
          </g>
        </g>
      </g>
    </g>
    <g
       id="g148">
      <g
         id="g146">
        <g
           id="g132">
          <g
             transform="translate(181,63.4)"
             id="g130">
            <path
               transform="scale(0.0204,-0.0204)"
               d="m 105,664 56,-2 c 24,-1 35,-9 35,-27 0,-14 -4,-46 -9,-76 L 112,125 C 96,34 94,32 54,28 L 13,25 9,-3 51,-2 c 47,2 66,2 90,2 l 97,-3 h 26 l 3,28 -49,3 c -27,2 -36,10 -36,30 0,9 1,18 4,35 l 101,555 c 29,6 49,8 76,8 87,0 133,-39 133,-113 0,-95 -78,-165 -182,-165 h -44 l -3,-11 C 401,172 432,124 507,-3 c 0,0 85,3 85,3 1,0 15,-1 34,-3 h 13 v 27 c -40,5 -51,13 -80,55 L 375,354 c 55,10 84,22 120,48 58,42 89,97 89,158 0,86 -64,133 -175,131 H 108 Z"
               stroke="#000000"
               stroke-opacity="1"
               stroke-width="0"
               fill="#000000"
               fill-opacity="1"
               id="path128" />
          </g>
        </g>
        <g
           id="g144">
          <g
             id="g142">
            <g
               id="g140">
              <g
                 id="g138">
                <g
                   transform="translate(194.92187,65.99875)"
                   id="g136">
                  <path
                     transform="scale(0.01428,-0.01428)"
                     d="m 237,-16 c 236,0 335,332 339,520 2,114 -30,198 -157,198 C 159,702 72,412 69,199 67,80 101,-16 237,-16 Z m 164,692 c 135,0 105,-185 84,-295 H 169 c 25,104 103,295 232,295 z M 253,13 C 102,13 147,261 163,349 H 479 C 454,237 396,13 253,13 Z"
                     stroke="#000000"
                     stroke-opacity="1"
                     stroke-width="0"
                     fill="#000000"
                     fill-opacity="1"
                     id="path134" />
                </g>
              </g>
            </g>
          </g>
        </g>
      </g>
    </g>
    <g
       id="g170">
      <g
         id="g168">
        <g
           id="g154">
          <g
             transform="translate(121,114.4)"
             id="g152">
            <path
               transform="scale(0.0204,-0.0204)"
               d="m 105,664 56,-2 c 24,-1 35,-9 35,-27 0,-14 -4,-46 -9,-76 L 112,125 C 96,34 94,32 54,28 L 13,25 9,-3 51,-2 c 47,2 66,2 90,2 l 97,-3 h 26 l 3,28 -49,3 c -27,2 -36,10 -36,30 0,9 1,18 4,35 l 101,555 c 29,6 49,8 76,8 87,0 133,-39 133,-113 0,-95 -78,-165 -182,-165 h -44 l -3,-11 C 401,172 432,124 507,-3 c 0,0 85,3 85,3 1,0 15,-1 34,-3 h 13 v 27 c -40,5 -51,13 -80,55 L 375,354 c 55,10 84,22 120,48 58,42 89,97 89,158 0,86 -64,133 -175,131 H 108 Z"
               stroke="#000000"
               stroke-opacity="1"
               stroke-width="0"
               fill="#000000"
               fill-opacity="1"
               id="path150" />
          </g>
        </g>
        <g
           id="g166">
          <g
             id="g164">
            <g
               id="g162">
              <g
                 id="g160">
                <g
                   transform="translate(134.92187,116.99875)"
                   id="g158">
                  <path
                     transform="scale(0.01428,-0.01428)"
                     d="m 555,243 v 56 H 51 V 243 Z M 842,-16 c 236,0 335,332 339,520 2,114 -30,198 -157,198 C 764,702 677,412 674,199 672,80 706,-16 842,-16 Z m 164,692 c 135,0 105,-185 84,-295 H 774 c 25,104 103,295 232,295 z M 858,13 C 707,13 752,261 768,349 h 316 C 1059,237 1001,13 858,13 Z"
                     stroke="#000000"
                     stroke-opacity="1"
                     stroke-width="0"
                     fill="#000000"
                     fill-opacity="1"
                     id="path156" />
                </g>
              </g>
            </g>
          </g>
        </g>
      </g>
    </g>
  </svg>
</svg>
