<?xml version="1.0" encoding="UTF-8" standalone="no"?>
<svg
   x="0"
   y="0"
   width="360"
   height="163"
   style="fill:none"
   version="1.1"
   id="svg214"
   sodipodi:docname="diagram-20230708.svg"
   inkscape:version="1.2.2 (b0a8486, 2022-12-01)"
   xmlns:inkscape="http://www.inkscape.org/namespaces/inkscape"
   xmlns:sodipodi="http://sodipodi.sourceforge.net/DTD/sodipodi-0.dtd"
   xmlns="http://www.w3.org/2000/svg"
   xmlns:svg="http://www.w3.org/2000/svg">
  <defs
     id="defs218" />
  <sodipodi:namedview
     id="namedview216"
     pagecolor="#ffffff"
     bordercolor="#000000"
     borderopacity="0.25"
     inkscape:showpageshadow="2"
     inkscape:pageopacity="0.0"
     inkscape:pagecheckerboard="0"
     inkscape:deskcolor="#d1d1d1"
     showgrid="false"
     inkscape:zoom="1.7160121"
     inkscape:cx="325.17254"
     inkscape:cy="105.18574"
     inkscape:window-width="1280"
     inkscape:window-height="677"
     inkscape:window-x="0"
     inkscape:window-y="25"
     inkscape:window-maximized="0"
     inkscape:current-layer="svg214" />
  <svg
     class="role-diagram-draw-area"
     version="1.1"
     id="svg56"
     width="100%"
     height="100%">
    <g
       class="shapes-region"
       style="fill:none;stroke:#000000"
       id="g48">
      <g
         class="arrow-line"
         id="g12">
        <path
           class="connection real"
           stroke-dasharray="none"
           d="M 50,78 C 89.2,48.6 103.43,48.09 147.28,76.24"
           style="fill:none;fill-opacity:1;stroke:#4a90e2;stroke-width:2;stroke-opacity:1"
           id="path2" />
        <g
           stroke="rgb(74,144,226)"
           transform="rotate(-36.87,141.99965,-35.999777)"
           fill="rgb(74,144,226)"
           stroke-opacity="1"
           fill-opacity="1"
           style="fill:#4a90e2;stroke:#4a90e2;stroke-width:2"
           id="g6">
          <circle
             cx="0"
             cy="0"
             r="4.355"
             id="circle4" />
        </g>
        <g
           stroke="none"
           transform="rotate(-146.96,86.567136,16.755508)"
           fill="rgb(74,144,226)"
           fill-opacity="1"
           style="fill:#4a90e2;stroke:none;stroke-width:2"
           id="g10">
          <path
             d="M 13.4,-6.43 0,0 13.4,6.44 8.9,0 Z"
             id="path8" />
        </g>
      </g>
      <g
         class="arrow-line"
         id="g24">
        <path
           class="connection real"
           stroke-dasharray="none"
           d="m 150,78 c 39.2,-29.4 53.43,-29.91 97.28,-1.76"
           style="fill:none;fill-opacity:1;stroke:#4a90e2;stroke-width:2;stroke-opacity:1"
           id="path14" />
        <g
           stroke="rgb(74,144,226)"
           transform="rotate(-36.87,191.99965,-185.99933)"
           fill="rgb(74,144,226)"
           stroke-opacity="1"
           fill-opacity="1"
           style="fill:#4a90e2;stroke:#4a90e2;stroke-width:2"
           id="g18">
          <circle
             cx="0"
             cy="0"
             r="4.355"
             id="circle16" />
        </g>
        <g
           stroke="none"
           transform="rotate(-146.96,136.56714,1.9258465)"
           fill="rgb(74,144,226)"
           fill-opacity="1"
           style="fill:#4a90e2;stroke:none;stroke-width:2"
           id="g22">
          <path
             d="M 13.4,-6.43 0,0 13.4,6.44 8.9,0 Z"
             id="path20" />
        </g>
      </g>
      <g
         class="arrow-line"
         id="g32">
        <path
           class="connection real"
           stroke-dasharray="none"
           d="M 54.61,80.54 C 92.58,107.11 102.5,107.18 151,78"
           style="fill:none;fill-opacity:1;stroke:#f5a623;stroke-width:2;stroke-opacity:1"
           id="path26" />
        <g
           stroke="none"
           fill="rgb(245,166,35)"
           transform="rotate(35.35,-96.887496,119.02259)"
           fill-opacity="1"
           style="fill:#f5a623;stroke:none;stroke-width:2"
           id="g30">
          <path
             d="M 13.4,-6.43 0,0 13.4,6.44 8.9,0 Z"
             id="path28" />
        </g>
      </g>
      <g
         class="arrow-line"
         id="g44">
        <path
           class="connection real"
           stroke-dasharray="none"
           d="M 154.61,80.54 C 192.58,107.11 202.5,107.18 251,78"
           style="fill:none;fill-opacity:1;stroke:#f5a623;stroke-width:2;stroke-opacity:1"
           id="path34" />
        <g
           stroke="none"
           fill="rgb(245,166,35)"
           transform="rotate(35.35,-46.887496,275.92964)"
           fill-opacity="1"
           style="fill:#f5a623;stroke:none;stroke-width:2"
           id="g38">
          <path
             d="M 13.4,-6.43 0,0 13.4,6.44 8.9,0 Z"
             id="path36" />
        </g>
        <g
           stroke="rgb(245,166,35)"
           transform="rotate(-31.03,265.98662,-413.07875)"
           fill="rgb(245,166,35)"
           stroke-opacity="1"
           fill-opacity="1"
           style="fill:#f5a623;stroke:#f5a623;stroke-width:2"
           id="g42">
          <circle
             cx="0"
             cy="0"
             r="4.355"
             id="circle40" />
        </g>
      </g>
      <g
         id="g46" />
    </g>
    <g
       id="g50" />
    <g
       id="g52" />
    <g
       id="g54" />
  </svg>
  <svg
     width="660"
     height="161"
     style="font-family:Asana-Math, Asana"
     version="1.1"
     id="svg212">
    <g
       id="g66">
      <g
         id="g64">
        <g
           id="g62">
          <g
             transform="translate(20,80.4)"
             id="g60">
            <path
               transform="scale(0.0204,-0.0204)"
               d="m 539,431 v 28 c -60,-2 -78,-3 -94,-3 -16,0 -34,1 -94,3 v -28 l 41,-2 c 16,-1 24,-10 24,-26 0,-16 -7,-43 -19,-73 C 385,301 331,167 293,84 L 174,372 c -6,14 -9,27 -9,38 0,11 9,18 25,19 l 49,2 v 28 c -98,-3 -98,-3 -117,-3 -19,0 -67,1 -116,3 v -28 l 34,-2 c 15,-2 20,-8 31,-33 L 243,-7 h 50 l 159,369 c 22,47 36,65 56,67 z"
               stroke="#000000"
               stroke-opacity="1"
               stroke-width="24"
               fill="#000000"
               fill-opacity="1"
               id="path58" />
          </g>
        </g>
      </g>
    </g>
    <g
       id="g118">
      <g
         id="g116">
        <g
           id="g72">
          <g
             transform="translate(264,79.4)"
             id="g70">
            <path
               transform="scale(0.0204,-0.0204)"
               d="m 146,266 c 0,260 97,366 155,434 l -19,26 C 225,675 60,542 60,266 60,159 85,58 133,-32 c 35,-67 67,-106 149,-183 l 19,21 c -46,57 -155,179 -155,460 z"
               stroke="#000000"
               stroke-opacity="1"
               stroke-width="0"
               fill="#000000"
               fill-opacity="1"
               id="path68" />
          </g>
        </g>
        <g
           id="g78">
          <g
             transform="translate(270.64062,79.4)"
             id="g76">
            <path
               transform="scale(0.0204,-0.0204)"
               d="m 345,437 h -16 l 21,112 c 16,86 44,124 90,124 30,0 57,-15 72,-39 l 10,4 c 5,16 15,47 23,67 l 5,15 c -16,7 -47,13 -70,13 -11,0 -27,-3 -35,-7 C 421,715 339,654 316,630 294,608 282,578 271,521 l -15,-79 c -41,-20 -61,-28 -86,-37 l -5,-22 h 81 l -9,-56 c -30,-195 -67,-381 -89,-450 -18,-59 -48,-90 -84,-90 -23,0 -34,7 -52,29 l -14,-4 c -4,-23 -18,-71 -23,-80 9,-5 24,-8 35,-8 41,0 95,31 134,78 71,84 91,180 175,581 h 104 c 4,19 11,42 17,56 l -4,7 c -29,-7 -28,-9 -91,-9 z"
               stroke="#000000"
               stroke-opacity="1"
               stroke-width="0"
               fill="#000000"
               fill-opacity="1"
               id="path74" />
          </g>
        </g>
        <g
           id="g84">
          <g
             transform="translate(285.71875,79.4)"
             id="g82">
            <path
               transform="scale(0.0204,-0.0204)"
               d="m 342,271 c 0,81 -65,146 -147,146 -83,0 -148,-65 -148,-146 0,-83 65,-147 148,-147 82,0 147,64 147,147 z m -38,0 c 0,-62 -50,-110 -109,-110 -62,0 -110,48 -110,110 0,60 48,109 110,109 59,0 109,-49 109,-109 z"
               stroke="#000000"
               stroke-opacity="1"
               stroke-width="0"
               fill="#000000"
               fill-opacity="1"
               id="path80" />
          </g>
        </g>
        <g
           id="g90">
          <g
             transform="translate(297.55688,79.4)"
             id="g88">
            <path
               transform="scale(0.0204,-0.0204)"
               d="M 275,482 C 208,482 55,419 55,259 c 0,-77 45,-123 122,-123 8,0 19,0 30,1 L 166,99 C 150,84 139,66 139,52 139,42 146,31 160,19 91,-4 -37,-48 -37,-159 c 0,-71 70,-117 179,-117 129,0 242,72 242,155 0,36 -21,72 -64,107 l -60,49 c -34,27 -47,46 -47,65 0,14 15,28 27,46 98,24 169,107 169,196 0,15 -3,34 -4,38 17,-2 25,-2 34,-2 17,0 27,1 50,4 l 9,45 -3,6 c -28,-7 -48,-9 -102,-9 0,1 -24,58 -118,58 z M 176,1 253,-58 c 46,-36 65,-63 65,-96 0,-52 -69,-94 -152,-94 -82,0 -139,42 -139,103 0,102 110,134 149,146 z m 74,447 c 58,0 87,-36 87,-107 0,-103 -48,-173 -118,-173 -61,0 -93,41 -93,120 0,95 51,160 124,160 z"
               stroke="#000000"
               stroke-opacity="1"
               stroke-width="0"
               fill="#000000"
               fill-opacity="1"
               id="path86" />
          </g>
        </g>
        <g
           id="g96">
          <g
             transform="translate(307.53125,79.4)"
             id="g94">
            <path
               transform="scale(0.0204,-0.0204)"
               d="M 51,726 32,700 C 87,636 187,526 187,266 187,-10 83,-131 32,-194 l 19,-21 c 53,50 222,192 222,480 0,277 -165,410 -222,461 z"
               stroke="#000000"
               stroke-opacity="1"
               stroke-width="0"
               fill="#000000"
               fill-opacity="1"
               id="path92" />
          </g>
        </g>
        <g
           id="g102">
          <g
             transform="translate(314.17187,79.4)"
             id="g100">
            <path
               transform="scale(0.0204,-0.0204)"
               d="m 146,266 c 0,260 97,366 155,434 l -19,26 C 225,675 60,542 60,266 60,159 85,58 133,-32 c 35,-67 67,-106 149,-183 l 19,21 c -46,57 -155,179 -155,460 z"
               stroke="#000000"
               stroke-opacity="1"
               stroke-width="0"
               fill="#000000"
               fill-opacity="1"
               id="path98" />
          </g>
        </g>
        <g
           id="g108">
          <g
             transform="translate(320.81812,79.4)"
             id="g106">
            <path
               transform="scale(0.0204,-0.0204)"
               d="m 539,431 v 28 c -60,-2 -78,-3 -94,-3 -16,0 -34,1 -94,3 v -28 l 41,-2 c 16,-1 24,-10 24,-26 0,-16 -7,-43 -19,-73 C 385,301 331,167 293,84 L 174,372 c -6,14 -9,27 -9,38 0,11 9,18 25,19 l 49,2 v 28 c -98,-3 -98,-3 -117,-3 -19,0 -67,1 -116,3 v -28 l 34,-2 c 15,-2 20,-8 31,-33 L 243,-7 h 50 l 159,369 c 22,47 36,65 56,67 z"
               stroke="#000000"
               stroke-opacity="1"
               stroke-width="24"
               fill="#000000"
               fill-opacity="1"
               id="path104" />
          </g>
        </g>
        <g
           id="g114">
          <g
             transform="translate(333.09375,79.4)"
             id="g112">
            <path
               transform="scale(0.0204,-0.0204)"
               d="M 51,726 32,700 C 87,636 187,526 187,266 187,-10 83,-131 32,-194 l 19,-21 c 53,50 222,192 222,480 0,277 -165,410 -222,461 z"
               stroke="#000000"
               stroke-opacity="1"
               stroke-width="0"
               fill="#000000"
               fill-opacity="1"
               id="path110" />
          </g>
        </g>
      </g>
    </g>
    <g
       id="g146">
      <g
         id="g144">
        <g
           id="g124">
          <g
             transform="translate(136,52.4)"
             id="g122">
            <path
               transform="scale(0.0204,-0.0204)"
               d="M 275,482 C 208,482 55,419 55,259 c 0,-77 45,-123 122,-123 8,0 19,0 30,1 L 166,99 C 150,84 139,66 139,52 139,42 146,31 160,19 91,-4 -37,-48 -37,-159 c 0,-71 70,-117 179,-117 129,0 242,72 242,155 0,36 -21,72 -64,107 l -60,49 c -34,27 -47,46 -47,65 0,14 15,28 27,46 98,24 169,107 169,196 0,15 -3,34 -4,38 17,-2 25,-2 34,-2 17,0 27,1 50,4 l 9,45 -3,6 c -28,-7 -48,-9 -102,-9 0,1 -24,58 -118,58 z M 176,1 253,-58 c 46,-36 65,-63 65,-96 0,-52 -69,-94 -152,-94 -82,0 -139,42 -139,103 0,102 110,134 149,146 z m 74,447 c 58,0 87,-36 87,-107 0,-103 -48,-173 -118,-173 -61,0 -93,41 -93,120 0,95 51,160 124,160 z"
               stroke="#000000"
               stroke-opacity="1"
               stroke-width="0"
               fill="#000000"
               fill-opacity="1"
               id="path120" />
          </g>
        </g>
        <g
           id="g130">
          <g
             transform="translate(145.96875,52.4)"
             id="g128">
            <path
               transform="scale(0.0204,-0.0204)"
               d="m 146,266 c 0,260 97,366 155,434 l -19,26 C 225,675 60,542 60,266 60,159 85,58 133,-32 c 35,-67 67,-106 149,-183 l 19,21 c -46,57 -155,179 -155,460 z"
               stroke="#000000"
               stroke-opacity="1"
               stroke-width="0"
               fill="#000000"
               fill-opacity="1"
               id="path126" />
          </g>
        </g>
        <g
           id="g136">
          <g
             transform="translate(152.62061,52.4)"
             id="g134">
            <path
               transform="scale(0.0204,-0.0204)"
               d="m 539,431 v 28 c -60,-2 -78,-3 -94,-3 -16,0 -34,1 -94,3 v -28 l 41,-2 c 16,-1 24,-10 24,-26 0,-16 -7,-43 -19,-73 C 385,301 331,167 293,84 L 174,372 c -6,14 -9,27 -9,38 0,11 9,18 25,19 l 49,2 v 28 c -98,-3 -98,-3 -117,-3 -19,0 -67,1 -116,3 v -28 l 34,-2 c 15,-2 20,-8 31,-33 L 243,-7 h 50 l 159,369 c 22,47 36,65 56,67 z"
               stroke="#000000"
               stroke-opacity="1"
               stroke-width="24"
               fill="#000000"
               fill-opacity="1"
               id="path132" />
          </g>
        </g>
        <g
           id="g142">
          <g
             transform="translate(164.89062,52.4)"
             id="g140">
            <path
               transform="scale(0.0204,-0.0204)"
               d="M 51,726 32,700 C 87,636 187,526 187,266 187,-10 83,-131 32,-194 l 19,-21 c 53,50 222,192 222,480 0,277 -165,410 -222,461 z"
               stroke="#000000"
               stroke-opacity="1"
               stroke-width="0"
               fill="#000000"
               fill-opacity="1"
               id="path138" />
          </g>
        </g>
      </g>
    </g>
    <g
       id="g156">
      <g
         id="g154">
        <g
           id="g152">
          <g
             transform="translate(84,45.4)"
             id="g150">
            <path
               transform="scale(0.0204,-0.0204)"
               d="M 275,482 C 208,482 55,419 55,259 c 0,-77 45,-123 122,-123 8,0 19,0 30,1 L 166,99 C 150,84 139,66 139,52 139,42 146,31 160,19 91,-4 -37,-48 -37,-159 c 0,-71 70,-117 179,-117 129,0 242,72 242,155 0,36 -21,72 -64,107 l -60,49 c -34,27 -47,46 -47,65 0,14 15,28 27,46 98,24 169,107 169,196 0,15 -3,34 -4,38 17,-2 25,-2 34,-2 17,0 27,1 50,4 l 9,45 -3,6 c -28,-7 -48,-9 -102,-9 0,1 -24,58 -118,58 z M 176,1 253,-58 c 46,-36 65,-63 65,-96 0,-52 -69,-94 -152,-94 -82,0 -139,42 -139,103 0,102 110,134 149,146 z m 74,447 c 58,0 87,-36 87,-107 0,-103 -48,-173 -118,-173 -61,0 -93,41 -93,120 0,95 51,160 124,160 z"
               stroke="#4a90e2"
               stroke-opacity="1"
               stroke-width="0"
               fill="#4a90e2"
               fill-opacity="1"
               id="path148" />
          </g>
        </g>
      </g>
    </g>
    <g
       id="g166">
      <g
         id="g164">
        <g
           id="g162">
          <g
             transform="translate(199,44.4)"
             id="g160">
            <path
               transform="scale(0.0204,-0.0204)"
               d="m 345,437 h -16 l 21,112 c 16,86 44,124 90,124 30,0 57,-15 72,-39 l 10,4 c 5,16 15,47 23,67 l 5,15 c -16,7 -47,13 -70,13 -11,0 -27,-3 -35,-7 C 421,715 339,654 316,630 294,608 282,578 271,521 l -15,-79 c -41,-20 -61,-28 -86,-37 l -5,-22 h 81 l -9,-56 c -30,-195 -67,-381 -89,-450 -18,-59 -48,-90 -84,-90 -23,0 -34,7 -52,29 l -14,-4 c -4,-23 -18,-71 -23,-80 9,-5 24,-8 35,-8 41,0 95,31 134,78 71,84 91,180 175,581 h 104 c 4,19 11,42 17,56 l -4,7 c -29,-7 -28,-9 -91,-9 z"
               stroke="#4a90e2"
               stroke-opacity="1"
               stroke-width="0"
               fill="#4a90e2"
               fill-opacity="1"
               id="path158" />
          </g>
        </g>
      </g>
    </g>
    <g
       id="g188">
      <g
         id="g186">
        <g
           id="g172">
          <g
             transform="translate(81,121.4)"
             id="g170">
            <path
               transform="scale(0.0204,-0.0204)"
               d="M 275,482 C 208,482 55,419 55,259 c 0,-77 45,-123 122,-123 8,0 19,0 30,1 L 166,99 C 150,84 139,66 139,52 139,42 146,31 160,19 91,-4 -37,-48 -37,-159 c 0,-71 70,-117 179,-117 129,0 242,72 242,155 0,36 -21,72 -64,107 l -60,49 c -34,27 -47,46 -47,65 0,14 15,28 27,46 98,24 169,107 169,196 0,15 -3,34 -4,38 17,-2 25,-2 34,-2 17,0 27,1 50,4 l 9,45 -3,6 c -28,-7 -48,-9 -102,-9 0,1 -24,58 -118,58 z M 176,1 253,-58 c 46,-36 65,-63 65,-96 0,-52 -69,-94 -152,-94 -82,0 -139,42 -139,103 0,102 110,134 149,146 z m 74,447 c 58,0 87,-36 87,-107 0,-103 -48,-173 -118,-173 -61,0 -93,41 -93,120 0,95 51,160 124,160 z"
               stroke="#f5a623"
               stroke-opacity="1"
               stroke-width="0"
               fill="#f5a623"
               fill-opacity="1"
               id="path168" />
          </g>
        </g>
        <g
           id="g184">
          <g
             id="g182">
            <g
               id="g180">
              <g
                 id="g178">
                <g
                   transform="translate(92.140625,114.28)"
                   id="g176">
                  <path
                     transform="scale(0.01428,-0.01428)"
                     d="m 555,243 v 56 H 51 V 243 Z M 1023,-3 v 30 l -52,3 c -55,3 -65,14 -65,66 v 604 l -241,-102 7,-50 150,66 V 96 C 822,44 811,33 757,30 L 701,27 V -3 c 154,3 154,3 165,3 31,0 141,-3 157,-3 z"
                     stroke="#f5a623"
                     stroke-opacity="1"
                     stroke-width="0"
                     fill="#f5a623"
                     fill-opacity="1"
                     id="path174" />
                </g>
              </g>
            </g>
          </g>
        </g>
      </g>
    </g>
    <g
       id="g210">
      <g
         id="g208">
        <g
           id="g194">
          <g
             transform="translate(195,124.4)"
             id="g192">
            <path
               transform="scale(0.0204,-0.0204)"
               d="m 345,437 h -16 l 21,112 c 16,86 44,124 90,124 30,0 57,-15 72,-39 l 10,4 c 5,16 15,47 23,67 l 5,15 c -16,7 -47,13 -70,13 -11,0 -27,-3 -35,-7 C 421,715 339,654 316,630 294,608 282,578 271,521 l -15,-79 c -41,-20 -61,-28 -86,-37 l -5,-22 h 81 l -9,-56 c -30,-195 -67,-381 -89,-450 -18,-59 -48,-90 -84,-90 -23,0 -34,7 -52,29 l -14,-4 c -4,-23 -18,-71 -23,-80 9,-5 24,-8 35,-8 41,0 95,31 134,78 71,84 91,180 175,581 h 104 c 4,19 11,42 17,56 l -4,7 c -29,-7 -28,-9 -91,-9 z"
               stroke="#f5a623"
               stroke-opacity="1"
               stroke-width="0"
               fill="#f5a623"
               fill-opacity="1"
               id="path190" />
          </g>
        </g>
        <g
           id="g206">
          <g
             id="g204">
            <g
               id="g202">
              <g
                 id="g200">
                <g
                   transform="translate(207.17187,117.28)"
                   id="g198">
                  <path
                     transform="scale(0.01428,-0.01428)"
                     d="m 555,243 v 56 H 51 V 243 Z M 1023,-3 v 30 l -52,3 c -55,3 -65,14 -65,66 v 604 l -241,-102 7,-50 150,66 V 96 C 822,44 811,33 757,30 L 701,27 V -3 c 154,3 154,3 165,3 31,0 141,-3 157,-3 z"
                     stroke="#f5a623"
                     stroke-opacity="1"
                     stroke-width="0"
                     fill="#f5a623"
                     fill-opacity="1"
                     id="path196" />
                </g>
              </g>
            </g>
          </g>
        </g>
      </g>
    </g>
  </svg>
</svg>
