<svg xmlns="http://www.w3.org/2000/svg" xmlns:xlink="http://www.w3.org/1999/xlink" x="0" y="0" width="662" height="261" style="
        width:662px;
        height:261px;
        background: transparent;
        fill: none;
">
        
        
        <svg xmlns="http://www.w3.org/2000/svg" class="role-diagram-draw-area"><g class="shapes-region" style="stroke: black; fill: none;"><g class="composite-shape"><path class="real" d=" M-43.87,-28.58 L310.64,-28.58 L310.64,273.42 L-43.87,273.42 Z" style="stroke-width: 1; stroke: none; stroke-opacity: 0.1; fill: none; fill-opacity: 1;"/><path class="real" d=" M-21.87,-28.58 L-21.87,273.42 M28.13,-28.58 L28.13,273.42 M78.13,-28.58 L78.13,273.42 M128.13,-28.58 L128.13,273.42 M178.13,-28.58 L178.13,273.42 M228.13,-28.58 L228.13,273.42 M278.13,-28.58 L278.13,273.42" style="stroke-width: 1; stroke: rgb(0, 0, 0); stroke-opacity: 0.1; fill: none; fill-opacity: 1;"/><path class="real" d=" M-43.87,-6.58 L310.64,-6.58 M-43.87,43.42 L310.64,43.42 M-43.87,93.42 L310.64,93.42 M-43.87,143.42 L310.64,143.42 M-43.87,193.42 L310.64,193.42 M-43.87,243.42 L310.64,243.42" style="stroke-width: 1; stroke: rgb(0, 0, 0); stroke-opacity: 0.1; fill: none; fill-opacity: 1;"/><path class="real" d=" " style="stroke-width: 1; stroke: rgb(0, 0, 0); stroke-opacity: 0.1; fill: none; fill-opacity: 1;"/></g><g class="composite-shape axis2d" style="stroke-width: 1; stroke: rgb(126, 211, 33); stroke-opacity: 1;"><path class="real" d=" M28.99,194.54 L286.26,194.54 M127.26,56.08 L127.26,253.94"/><path d=" M279.26,189.54 L286.26,194.54 L279.26,199.54"/><path d=" M122.26,63.08 L127.26,56.08 L132.26,63.08"/></g><g class="composite-shape"><path class="real" d=" M128.13,94.42 L227.13,94.42 L227.13,193.42 L128.13,193.42 Z" style="stroke-width: 1; stroke: rgb(126, 211, 33); stroke-opacity: 1; fill: rgb(126, 211, 33); fill-opacity: 0.2;"/></g><g class="composite-shape"><path class="real" d=" M27.26,94.54 L127.26,94.54 L127.26,194.54 L27.26,194.54 Z" style="stroke-width: 1; stroke: rgb(245, 166, 35); stroke-opacity: 1; fill: rgb(245, 166, 35); fill-opacity: 0.2;"/></g><g class="arrow-line"><path class="connection real" stroke-dasharray="" d="  M224.13,194.43 L127.26,194.54" style="stroke: rgb(208, 2, 27); stroke-opacity: 0.3; stroke-width: 2; fill: none; fill-opacity: 1;"/><g stroke="none" fill="rgb(208,2,27)" fill-opacity="0.3" transform="matrix(-0.9999992536874144,0.0012217301724651184,-0.0012217301724651184,-0.9999992536874144,228.13096136878107,194.421023209686)" style="stroke: none; fill: rgb(208, 2, 27); stroke-width: 2;"><path d=" M11.61,-5.58 L0,0 L11.61,5.58 Z"/></g></g><g class="arrow-line"><path class="connection real" stroke-dasharray="" d="  M32.49,194.5 L128.49,194.5" style="stroke: rgb(208, 2, 27); stroke-opacity: 1; stroke-width: 2; fill: none; fill-opacity: 1;"/><g stroke="none" fill="rgb(208,2,27)" fill-opacity="1" transform="matrix(1,0,0,1,28.491715801997884,194.49628923118163)" style="stroke: none; fill: rgb(208, 2, 27); stroke-width: 2;"><path d=" M11.61,-5.58 L0,0 L11.61,5.58 Z"/></g></g><g class="arrow-line"><path class="connection real" stroke-dasharray="" d="  M128.1,98.42 L127.26,194.54" style="stroke: rgb(74, 144, 226); stroke-opacity: 1; stroke-width: 2; fill: none; fill-opacity: 1;"/><g stroke="none" fill="rgb(74,144,226)" fill-opacity="1" transform="matrix(-0.008726535498373775,0.9999619230641713,-0.9999619230641713,-0.008726535498373775,128.13096136878107,94.42102320968604)" style="stroke: none; fill: rgb(74, 144, 226); stroke-width: 2;"><path d=" M11.61,-5.58 L0,0 L11.61,5.58 Z"/></g></g><g class="composite-shape"><path class="real" d=" M399.13,-28.88 L639.63,-28.88 L639.63,273.12 L399.13,273.12 Z" style="stroke-width: 1; stroke: none; stroke-opacity: 0.1; fill: none; fill-opacity: 1;"/><path class="real" d=" M421.13,-28.88 L421.13,273.12 M471.13,-28.88 L471.13,273.12 M521.13,-28.88 L521.13,273.12 M571.13,-28.88 L571.13,273.12 M621.13,-28.88 L621.13,273.12" style="stroke-width: 1; stroke: rgb(0, 0, 0); stroke-opacity: 0.1; fill: none; fill-opacity: 1;"/><path class="real" d=" M399.13,-6.88 L639.63,-6.88 M399.13,43.12 L639.63,43.12 M399.13,93.12 L639.63,93.12 M399.13,143.12 L639.63,143.12 M399.13,193.12 L639.63,193.12 M399.13,243.12 L639.63,243.12" style="stroke-width: 1; stroke: rgb(0, 0, 0); stroke-opacity: 0.1; fill: none; fill-opacity: 1;"/><path class="real" d=" " style="stroke-width: 1; stroke: rgb(0, 0, 0); stroke-opacity: 0.1; fill: none; fill-opacity: 1;"/></g><g class="composite-shape axis2d" style="stroke-width: 1; stroke: rgb(126, 211, 33); stroke-opacity: 1;"><path class="real" d=" M421.36,193.08 L633.49,193.08 M472.36,53.69 L472.36,251.55"/><path d=" M626.49,188.08 L633.49,193.08 L626.49,198.08"/><path d=" M467.36,60.69 L472.36,53.69 L477.36,60.69"/></g><g class="composite-shape"><path class="real" d=" M472.36,93.08 L572.36,93.08 L572.36,193.08 L472.36,193.08 Z" style="stroke-width: 1; stroke: rgb(245, 166, 35); stroke-opacity: 1; fill: rgb(245, 166, 35); fill-opacity: 0.2;"/></g><g class="arrow-line"><path class="connection real" stroke-dasharray="" d="  M568.36,193.08 L472.36,193.08" style="stroke: rgb(74, 144, 226); stroke-opacity: 1; stroke-width: 2; fill: none; fill-opacity: 1;"/><g stroke="none" fill="rgb(74,144,226)" fill-opacity="1" transform="matrix(-1,1.2246467991473532e-16,-1.2246467991473532e-16,-1,572.3607544332167,193.07526602149562)" style="stroke: none; fill: rgb(74, 144, 226); stroke-width: 2;"><path d=" M11.61,-5.58 L0,0 L11.61,5.58 Z"/></g></g><g class="arrow-line"><path class="connection real" stroke-dasharray="" d="  M471.97,97 L471.13,193.12" style="stroke: rgb(208, 2, 27); stroke-opacity: 1; stroke-width: 2; fill: none; fill-opacity: 1;"/><g stroke="none" fill="rgb(208,2,27)" fill-opacity="1" transform="matrix(-0.008726535498373775,0.9999619230641713,-0.9999619230641713,-0.008726535498373775,472,93)" style="stroke: none; fill: rgb(208, 2, 27); stroke-width: 2;"><path d=" M11.61,-5.58 L0,0 L11.61,5.58 Z"/></g></g><g class="arrow-line"><path class="connection real" stroke-dasharray="7.5 6" d="  M453,213.05 L587,78.05" style="stroke: rgb(189, 16, 224); stroke-width: 2; fill: none; fill-opacity: 1; stroke-opacity: 0.5;"/></g><g/></g><g/><g/><g/></svg>
        <svg xmlns="http://www.w3.org/2000/svg" xmlns:xlink="http://www.w3.org/1999/xlink" width="660" height="259" style="width:660px;height:259px;font-family:Asana-Math, Asana;background:transparent;"><g><g><g><g transform="matrix(1,0,0,1,210.625,218.3375)"><path transform="matrix(0.020399999999999998,0,0,-0.020399999999999998,0,0)" d="M188 465L179 469C128 448 76 434 23 428L23 400L60 400C100 400 104 393 104 327L104 102C104 39 101 32 67 30L21 27L21 -3C121 0 121 0 146 0C171 0 171 0 271 -3L271 27L225 30C191 32 188 39 188 102ZM142 687C112 687 86 661 86 631C86 602 112 576 141 576C170 576 197 602 197 631C197 659 170 687 142 687Z" stroke="rgb(208,2,27)" stroke-opacity="1" stroke-width="24" fill="rgb(208,2,27)" fill-opacity="1"></path></g></g></g></g><g><g><g><g transform="matrix(1,0,0,1,24.625,225.3375)"><path transform="matrix(0.020399999999999998,0,0,-0.020399999999999998,0,0)" d="M567 55C567 39 552 30 524 28L480 25L480 -3C582 0 582 0 602 0C622 0 622 0 724 -3L724 25L698 28C651 35 650 35 642 80L555 705L509 705L136 112C100 56 82 40 48 32L28 27L28 -3C120 0 120 0 140 0C159 0 161 0 247 -3L247 25L195 28C179 29 164 38 164 47C164 55 171 69 190 102L292 277L538 277L563 89L563 86C563 84 567 69 567 55ZM496 601L533 313L317 313Z" stroke="rgb(208,2,27)" stroke-opacity="1" stroke-width="0" fill="rgb(208,2,27)" fill-opacity="1"></path></g></g><g><g transform="matrix(1,0,0,1,39.644989013671875,225.3375)"><path transform="matrix(0.020399999999999998,0,0,-0.020399999999999998,0,0)" d="M188 465L179 469C128 448 76 434 23 428L23 400L60 400C100 400 104 393 104 327L104 102C104 39 101 32 67 30L21 27L21 -3C121 0 121 0 146 0C171 0 171 0 271 -3L271 27L225 30C191 32 188 39 188 102ZM142 687C112 687 86 661 86 631C86 602 112 576 141 576C170 576 197 602 197 631C197 659 170 687 142 687Z" stroke="rgb(208,2,27)" stroke-opacity="1" stroke-width="24" fill="rgb(208,2,27)" fill-opacity="1"></path></g></g></g></g><g><g><g><g transform="matrix(1,0,0,1,140.625,85.3375)"><path transform="matrix(0.020399999999999998,0,0,-0.020399999999999998,0,0)" d="M-10 -248C-16 -248 -32 -246 -40 -245L-28 -283C30 -279 68 -258 106 -208C141 -162 159 -98 159 -19L159 465L150 469C99 448 47 434 -6 428L-6 400L31 400C71 400 75 393 75 327L75 -7C75 -142 58 -248 -10 -248ZM112 688C83 688 56 661 56 633C56 604 83 577 111 577C141 577 167 603 167 633C167 662 141 688 112 688Z" stroke="rgb(74,144,226)" stroke-opacity="1" stroke-width="24" fill="rgb(74,144,226)" fill-opacity="1"></path></g></g></g></g><g><g><g><g transform="matrix(1,0,0,1,95.625,86.3375)"><path transform="matrix(0.020399999999999998,0,0,-0.020399999999999998,0,0)" d="M567 55C567 39 552 30 524 28L480 25L480 -3C582 0 582 0 602 0C622 0 622 0 724 -3L724 25L698 28C651 35 650 35 642 80L555 705L509 705L136 112C100 56 82 40 48 32L28 27L28 -3C120 0 120 0 140 0C159 0 161 0 247 -3L247 25L195 28C179 29 164 38 164 47C164 55 171 69 190 102L292 277L538 277L563 89L563 86C563 84 567 69 567 55ZM496 601L533 313L317 313Z" stroke="rgb(74,144,226)" stroke-opacity="1" stroke-width="0" fill="rgb(74,144,226)" fill-opacity="1"></path></g></g><g><g transform="matrix(1,0,0,1,110.64501953125,86.3375)"><path transform="matrix(0.020399999999999998,0,0,-0.020399999999999998,0,0)" d="M-10 -248C-16 -248 -32 -246 -40 -245L-28 -283C30 -279 68 -258 106 -208C141 -162 159 -98 159 -19L159 465L150 469C99 448 47 434 -6 428L-6 400L31 400C71 400 75 393 75 327L75 -7C75 -142 58 -248 -10 -248ZM112 688C83 688 56 661 56 633C56 604 83 577 111 577C141 577 167 603 167 633C167 662 141 688 112 688Z" stroke="rgb(74,144,226)" stroke-opacity="1" stroke-width="24" fill="rgb(74,144,226)" fill-opacity="1"></path></g></g></g></g><g><g><g><g transform="matrix(1,0,0,1,524.125,214.509375)"><path transform="matrix(0.020399999999999998,0,0,-0.020399999999999998,0,0)" d="M188 465L179 469C128 448 76 434 23 428L23 400L60 400C100 400 104 393 104 327L104 102C104 39 101 32 67 30L21 27L21 -3C121 0 121 0 146 0C171 0 171 0 271 -3L271 27L225 30C191 32 188 39 188 102ZM142 687C112 687 86 661 86 631C86 602 112 576 141 576C170 576 197 602 197 631C197 659 170 687 142 687Z" stroke="rgb(208,2,27)" stroke-opacity="1" stroke-width="24" fill="rgb(208,2,27)" fill-opacity="1"></path></g></g></g></g><g><g><g><g transform="matrix(1,0,0,1,455.484375,147.915625)"><path transform="matrix(0.020399999999999998,0,0,-0.020399999999999998,0,0)" d="M-10 -248C-16 -248 -32 -246 -40 -245L-28 -283C30 -279 68 -258 106 -208C141 -162 159 -98 159 -19L159 465L150 469C99 448 47 434 -6 428L-6 400L31 400C71 400 75 393 75 327L75 -7C75 -142 58 -248 -10 -248ZM112 688C83 688 56 661 56 633C56 604 83 577 111 577C141 577 167 603 167 633C167 662 141 688 112 688Z" stroke="rgb(74,144,226)" stroke-opacity="1" stroke-width="24" fill="rgb(74,144,226)" fill-opacity="1"></path></g></g></g></g><g><g><g><g transform="matrix(1,0,0,1,574.125,214.509375)"><path transform="matrix(0.020399999999999998,0,0,-0.020399999999999998,0,0)" d="M567 55C567 39 552 30 524 28L480 25L480 -3C582 0 582 0 602 0C622 0 622 0 724 -3L724 25L698 28C651 35 650 35 642 80L555 705L509 705L136 112C100 56 82 40 48 32L28 27L28 -3C120 0 120 0 140 0C159 0 161 0 247 -3L247 25L195 28C179 29 164 38 164 47C164 55 171 69 190 102L292 277L538 277L563 89L563 86C563 84 567 69 567 55ZM496 601L533 313L317 313Z" stroke="rgb(74,144,226)" stroke-opacity="1" stroke-width="0" fill="rgb(74,144,226)" fill-opacity="1"></path></g></g><g><g transform="matrix(1,0,0,1,589.14501953125,214.509375)"><path transform="matrix(0.020399999999999998,0,0,-0.020399999999999998,0,0)" d="M-10 -248C-16 -248 -32 -246 -40 -245L-28 -283C30 -279 68 -258 106 -208C141 -162 159 -98 159 -19L159 465L150 469C99 448 47 434 -6 428L-6 400L31 400C71 400 75 393 75 327L75 -7C75 -142 58 -248 -10 -248ZM112 688C83 688 56 661 56 633C56 604 83 577 111 577C141 577 167 603 167 633C167 662 141 688 112 688Z" stroke="rgb(74,144,226)" stroke-opacity="1" stroke-width="24" fill="rgb(74,144,226)" fill-opacity="1"></path></g></g></g></g><g><g><g><g transform="matrix(1,0,0,1,437.625,109.3375)"><path transform="matrix(0.020399999999999998,0,0,-0.020399999999999998,0,0)" d="M567 55C567 39 552 30 524 28L480 25L480 -3C582 0 582 0 602 0C622 0 622 0 724 -3L724 25L698 28C651 35 650 35 642 80L555 705L509 705L136 112C100 56 82 40 48 32L28 27L28 -3C120 0 120 0 140 0C159 0 161 0 247 -3L247 25L195 28C179 29 164 38 164 47C164 55 171 69 190 102L292 277L538 277L563 89L563 86C563 84 567 69 567 55ZM496 601L533 313L317 313Z" stroke="rgb(208,2,27)" stroke-opacity="1" stroke-width="0" fill="rgb(208,2,27)" fill-opacity="1"></path></g></g><g><g transform="matrix(1,0,0,1,452.64501953125,109.3375)"><path transform="matrix(0.020399999999999998,0,0,-0.020399999999999998,0,0)" d="M188 465L179 469C128 448 76 434 23 428L23 400L60 400C100 400 104 393 104 327L104 102C104 39 101 32 67 30L21 27L21 -3C121 0 121 0 146 0C171 0 171 0 271 -3L271 27L225 30C191 32 188 39 188 102ZM142 687C112 687 86 661 86 631C86 602 112 576 141 576C170 576 197 602 197 631C197 659 170 687 142 687Z" stroke="rgb(208,2,27)" stroke-opacity="1" stroke-width="24" fill="rgb(208,2,27)" fill-opacity="1"></path></g></g></g></g><g><g><g><g transform="matrix(1,0,0,1,93.625,32.3375)"><path transform="matrix(0.020399999999999998,0,0,-0.020399999999999998,0,0)" d="M251 722L239 733C187 707 151 698 79 691L75 670L123 670C147 670 157 663 157 648C157 645 157 640 154 622C143 567 70 182 55 132C42 82 36 52 36 31C36 6 47 -9 66 -9C92 -9 128 12 226 85L216 103L190 86C161 67 139 56 129 56C122 56 116 66 116 76C116 82 117 89 120 104Z" stroke="rgb(189,16,224)" stroke-opacity="1" stroke-width="0" fill="rgb(189,16,224)" fill-opacity="1"></path></g></g><g><g transform="matrix(1,0,0,1,103.24310302734375,32.3375)"><path transform="matrix(0.020399999999999998,0,0,-0.020399999999999998,0,0)" d="M123 111C93 111 66 83 66 53C66 23 93 -5 122 -5C154 -5 182 22 182 53C182 83 154 111 123 111ZM123 456C93 456 66 428 66 398C66 368 93 340 122 340C154 340 182 367 182 397C182 428 154 456 123 456Z" stroke="rgb(189,16,224)" stroke-opacity="1" stroke-width="0" fill="rgb(189,16,224)" fill-opacity="1"></path></g></g><g><g transform="matrix(1,0,0,1,112.30126953125,32.3375)"><path transform="matrix(0.020399999999999998,0,0,-0.020399999999999998,0,0)" d="M258 1C273 -7 289 -11 301 -11C334 -11 373 18 404 65L480 182L491 113C504 28 527 -11 563 -11C585 -11 617 6 649 35L698 79L689 98C653 68 628 53 612 53C597 53 584 63 574 83C565 102 554 139 549 168L531 269L566 318C613 383 640 406 671 406C687 406 699 398 704 383L718 387L733 472C721 479 712 482 703 482C663 482 623 446 561 354L524 299L518 347C506 446 479 482 420 482C394 482 372 474 363 461L305 378L322 368C352 402 372 416 391 416C424 416 446 375 463 277L474 215L434 153C391 86 357 54 329 54C314 54 303 58 301 63L290 91L270 88C270 53 262 27 258 1Z" stroke="rgb(189,16,224)" stroke-opacity="1" stroke-width="0" fill="rgb(189,16,224)" fill-opacity="1"></path></g></g><g><g transform="matrix(1,0,0,1,133.37060546875,32.3375)"><path transform="matrix(0.020399999999999998,0,0,-0.020399999999999998,0,0)" d="M604 347L604 406L65 406L65 347ZM604 134L604 193L65 193L65 134Z" stroke="rgb(189,16,224)" stroke-opacity="1" stroke-width="0" fill="rgb(189,16,224)" fill-opacity="1"></path></g></g><g><g transform="matrix(1,0,0,1,152.84002685546875,32.3375)"><path transform="matrix(0.020399999999999998,0,0,-0.020399999999999998,0,0)" d="M263 689C108 689 29 566 29 324C29 207 50 106 85 57C120 8 176 -20 238 -20C389 -20 465 110 465 366C465 585 400 689 263 689ZM245 654C342 654 381 556 381 316C381 103 343 15 251 15C154 15 113 116 113 360C113 571 150 654 245 654Z" stroke="rgb(189,16,224)" stroke-opacity="1" stroke-width="0" fill="rgb(189,16,224)" fill-opacity="1"></path></g></g></g></g><g><g><g><g transform="matrix(1,0,0,1,551.625,55.4)"><path transform="matrix(0.020399999999999998,0,0,-0.020399999999999998,0,0)" d="M251 722L239 733C187 707 151 698 79 691L75 670L123 670C147 670 157 663 157 648C157 645 157 640 154 622C143 567 70 182 55 132C42 82 36 52 36 31C36 6 47 -9 66 -9C92 -9 128 12 226 85L216 103L190 86C161 67 139 56 129 56C122 56 116 66 116 76C116 82 117 89 120 104Z" stroke="rgb(189,16,224)" stroke-opacity="1" stroke-width="0" fill="rgb(189,16,224)" fill-opacity="1"></path></g></g><g><g transform="matrix(1,0,0,1,561.2431030273438,55.4)"><path transform="matrix(0.020399999999999998,0,0,-0.020399999999999998,0,0)" d="M123 111C93 111 66 83 66 53C66 23 93 -5 122 -5C154 -5 182 22 182 53C182 83 154 111 123 111ZM123 456C93 456 66 428 66 398C66 368 93 340 122 340C154 340 182 367 182 397C182 428 154 456 123 456Z" stroke="rgb(189,16,224)" stroke-opacity="1" stroke-width="0" fill="rgb(189,16,224)" fill-opacity="1"></path></g></g><g><g transform="matrix(1,0,0,1,570.30126953125,55.4)"><path transform="matrix(0.020399999999999998,0,0,-0.020399999999999998,0,0)" d="M242 -180C241 -187 241 -193 241 -198C241 -241 278 -276 323 -276C429 -276 539 -152 598 33L739 473L728 482C699 471 676 465 654 463L619 331C607 284 572 211 539 162C504 111 455 67 433 67C421 67 412 90 413 115L429 322C431 353 433 391 433 419C433 464 426 482 409 482C396 482 382 475 334 442L252 386L263 368L313 398C318 401 329 410 338 410C352 410 360 391 360 358C360 357 360 351 359 343L342 100L341 60C341 18 359 -11 384 -11C421 -11 505 74 580 187L531 16C480 -161 430 -234 360 -234C325 -234 298 -207 298 -172C298 -167 299 -159 300 -150L290 -146Z" stroke="rgb(189,16,224)" stroke-opacity="1" stroke-width="0" fill="rgb(189,16,224)" fill-opacity="1"></path></g></g><g><g transform="matrix(1,0,0,1,591.37060546875,55.4)"><path transform="matrix(0.020399999999999998,0,0,-0.020399999999999998,0,0)" d="M604 347L604 406L65 406L65 347ZM604 134L604 193L65 193L65 134Z" stroke="rgb(189,16,224)" stroke-opacity="1" stroke-width="0" fill="rgb(189,16,224)" fill-opacity="1"></path></g></g><g><g transform="matrix(1,0,0,1,610.8399658203125,55.4)"><path transform="matrix(0.020399999999999998,0,0,-0.020399999999999998,0,0)" d="M9 1C24 -7 40 -11 52 -11C85 -11 124 18 155 65L231 182L242 113C255 28 278 -11 314 -11C336 -11 368 6 400 35L449 79L440 98C404 68 379 53 363 53C348 53 335 63 325 83C316 102 305 139 300 168L282 269L317 318C364 383 391 406 422 406C438 406 450 398 455 383L469 387L484 472C472 479 463 482 454 482C414 482 374 446 312 354L275 299L269 347C257 446 230 482 171 482C145 482 123 474 114 461L56 378L73 368C103 402 123 416 142 416C175 416 197 375 214 277L225 215L185 153C142 86 108 54 80 54C65 54 54 58 52 63L41 91L21 88C21 53 13 27 9 1Z" stroke="rgb(189,16,224)" stroke-opacity="1" stroke-width="0" fill="rgb(189,16,224)" fill-opacity="1"></path></g></g></g></g></svg>
</svg>
