<svg xmlns="http://www.w3.org/2000/svg" xmlns:xlink="http://www.w3.org/1999/xlink" x="0" y="0" width="662" height="287" style="
        width:662px;
        height:287px;
        background: transparent;
        fill: none;
">
        
        
        <svg xmlns="http://www.w3.org/2000/svg" class="role-diagram-draw-area"><g class="shapes-region" style="stroke: black; fill: none;"><g class="composite-shape"><path class="real" d=" M121.87,90.42 L220.87,90.42 L162.36,190.87 L63.36,190.87 Z" style="stroke-width: 1; stroke: rgb(245, 166, 35); stroke-opacity: 1; fill: rgb(245, 166, 35); fill-opacity: 0.2;"/></g><g class="composite-shape"><path class="real" d=" M41.8,19.5 L323.7,19.5 L157.92,306.64 L-123.98,306.64 Z" style="stroke-width: 1; stroke: none; stroke-opacity: 0.1; fill: none; fill-opacity: 1;"/><path class="real" d=" M63.8,19.5 L-101.98,306.64 M113.8,19.5 L-51.98,306.64 M163.8,19.5 L-1.98,306.64 M213.8,19.5 L48.02,306.64 M263.8,19.5 L98.02,306.64 M313.8,19.5 L148.02,306.64" style="stroke-width: 1; stroke: rgb(74, 74, 74); stroke-opacity: 0.1; fill: none; fill-opacity: 1;"/><path class="real" d=" M29.09,41.5 L311,41.5 M0.23,91.5 L282.13,91.5 M-28.64,141.5 L253.26,141.5 M-57.51,191.5 L224.39,191.5 M-86.38,241.5 L195.53,241.5 M-115.24,291.5 L166.66,291.5" style="stroke-width: 1; stroke: rgb(74, 74, 74); stroke-opacity: 0.1; fill: none; fill-opacity: 1;"/><path class="real" d=" " style="stroke-width: 1; stroke: rgb(74, 74, 74); stroke-opacity: 0.1; fill: none; fill-opacity: 1;"/></g><g class="composite-shape"><path class="real" d=" M-8.74,19.54 L301.26,19.54 L301.26,288.54 L-8.74,288.54 Z" style="stroke-width: 1; stroke: none; stroke-opacity: 0.1; fill: none; fill-opacity: 1;"/><path class="real" d=" M13.26,19.54 L13.26,288.54 M63.26,19.54 L63.26,288.54 M113.26,19.54 L113.26,288.54 M163.26,19.54 L163.26,288.54 M213.26,19.54 L213.26,288.54 M263.26,19.54 L263.26,288.54" style="stroke-width: 1; stroke: rgb(0, 0, 0); stroke-opacity: 0.1; fill: none; fill-opacity: 1;"/><path class="real" d=" M-8.74,41.54 L301.26,41.54 M-8.74,91.54 L301.26,91.54 M-8.74,141.54 L301.26,141.54 M-8.74,191.54 L301.26,191.54 M-8.74,241.54 L301.26,241.54" style="stroke-width: 1; stroke: rgb(0, 0, 0); stroke-opacity: 0.1; fill: none; fill-opacity: 1;"/><path class="real" d=" " style="stroke-width: 1; stroke: rgb(0, 0, 0); stroke-opacity: 0.1; fill: none; fill-opacity: 1;"/></g><g class="composite-shape axis2d" style="stroke-width: 1; stroke: rgb(126, 211, 33); stroke-opacity: 1;"><path class="real" d=" M30.15,190.42 L255.57,190.42 M64.13,56.37 L64.13,248.56"/><path d=" M248.57,185.42 L255.57,190.42 L248.57,195.42"/><path d=" M59.13,63.37 L64.13,56.37 L69.13,63.37"/></g><g class="composite-shape"><path class="real" d=" M64.13,91.42 L163.13,91.42 L163.13,190.42 L64.13,190.42 Z" style="stroke-width: 1; stroke: rgb(126, 211, 33); stroke-opacity: 1; fill: rgb(126, 211, 33); fill-opacity: 0.2;"/></g><g class="arrow-line"><path class="connection real" stroke-dasharray="" d="  M160.13,191.43 L63.26,191.54" style="stroke: rgb(208, 2, 27); stroke-opacity: 1; stroke-width: 2; fill: none; fill-opacity: 1;"/><g stroke="none" fill="rgb(208,2,27)" fill-opacity="1" transform="matrix(-0.9999992536874144,0.0012217301724651184,-0.0012217301724651184,-0.9999992536874144,164.13096136878104,191.421023209686)" style="stroke: none; fill: rgb(208, 2, 27); stroke-width: 2;"><path d=" M11.61,-5.58 L0,0 L11.61,5.58 Z"/></g></g><g class="arrow-line"><path class="connection real" stroke-dasharray="" d="  M64.15,95.42 L64.49,191.5" style="stroke: rgb(74, 144, 226); stroke-opacity: 0.4; stroke-width: 2; fill: none; fill-opacity: 1;"/><g stroke="none" fill="rgb(74,144,226)" fill-opacity="0.4" transform="matrix(0.003665183223056939,0.999993283193413,-0.999993283193413,0.003665183223056939,64.13096136878106,91.42102320968604)" style="stroke: none; fill: rgb(74, 144, 226); stroke-width: 2;"><path d=" M11.61,-5.58 L0,0 L11.61,5.58 Z"/></g></g><g class="arrow-line"><path class="connection real" stroke-dasharray="" d="  M119.89,93.9 L64.49,191.5" style="stroke: rgb(74, 144, 226); stroke-opacity: 1; stroke-width: 2; fill: none; fill-opacity: 1;"/><g stroke="none" fill="rgb(74,144,226)" fill-opacity="1" transform="matrix(-0.4936383255107501,0.8696672947667646,-0.8696672947667646,-0.4936383255107501,121.86598828774368,90.4210232096859)" style="stroke: none; fill: rgb(74, 144, 226); stroke-width: 2;"><path d=" M11.61,-5.58 L0,0 L11.61,5.58 Z"/></g></g><g class="composite-shape"><path class="real" d=" M433.07,93.96 L533.35,36.07 L533.56,136.41 L433.29,194.31 Z" style="stroke-width: 1; stroke: rgb(245, 166, 35); stroke-opacity: 1; fill: rgb(245, 166, 35); fill-opacity: 0.2;"/></g><g class="composite-shape"><path class="real" d=" M705.35,-136.08 L705.35,234.25 L350.35,439.21 L350.35,68.88 Z" style="stroke-width: 1; stroke: none; stroke-opacity: 0.1; fill: none; fill-opacity: 1;"/><path class="real" d=" M705.35,-114.08 L350.35,90.88 M705.35,-64.08 L350.35,140.88 M705.35,-14.08 L350.35,190.88 M705.35,35.92 L350.35,240.88 M705.35,85.92 L350.35,290.88 M705.35,135.92 L350.35,340.88 M705.35,185.92 L350.35,390.88" style="stroke-width: 1; stroke: rgb(74, 74, 74); stroke-opacity: 0.1; fill: none; fill-opacity: 1;"/><path class="real" d=" M683.35,-123.38 L683.35,246.96 M633.35,-94.51 L633.35,275.82 M583.35,-65.64 L583.35,304.69 M533.35,-36.78 L533.35,333.56 M483.35,-7.91 L483.35,362.43 M433.35,20.96 L433.35,391.29 M383.35,49.83 L383.35,420.16" style="stroke-width: 1; stroke: rgb(74, 74, 74); stroke-opacity: 0.1; fill: none; fill-opacity: 1;"/><path class="real" d=" " style="stroke-width: 1; stroke: rgb(74, 74, 74); stroke-opacity: 0.1; fill: none; fill-opacity: 1;"/></g><g class="composite-shape"><path class="real" d=" M361.35,20.9 L671.35,20.9 L671.35,289.9 L361.35,289.9 Z" style="stroke-width: 1; stroke: none; stroke-opacity: 0.1; fill: none; fill-opacity: 1;"/><path class="real" d=" M383.35,20.9 L383.35,289.9 M433.35,20.9 L433.35,289.9 M483.35,20.9 L483.35,289.9 M533.35,20.9 L533.35,289.9 M583.35,20.9 L583.35,289.9 M633.35,20.9 L633.35,289.9" style="stroke-width: 1; stroke: rgb(0, 0, 0); stroke-opacity: 0.1; fill: none; fill-opacity: 1;"/><path class="real" d=" M361.35,42.9 L671.35,42.9 M361.35,92.9 L671.35,92.9 M361.35,142.9 L671.35,142.9 M361.35,192.9 L671.35,192.9 M361.35,242.9 L671.35,242.9" style="stroke-width: 1; stroke: rgb(0, 0, 0); stroke-opacity: 0.1; fill: none; fill-opacity: 1;"/><path class="real" d=" " style="stroke-width: 1; stroke: rgb(0, 0, 0); stroke-opacity: 0.1; fill: none; fill-opacity: 1;"/></g><g class="composite-shape axis2d" style="stroke-width: 1; stroke: rgb(126, 211, 33); stroke-opacity: 1;"><path class="real" d=" M400.25,191.78 L625.67,191.78 M434.23,57.73 L434.23,249.92"/><path d=" M618.67,186.78 L625.67,191.78 L618.67,196.78"/><path d=" M429.23,64.73 L434.23,57.73 L439.23,64.73"/></g><g class="composite-shape"><path class="real" d=" M433.07,93.96 L532.05,91.63 L534.38,190.6 L435.41,192.94 Z" style="stroke-width: 1; stroke: rgb(126, 211, 33); stroke-opacity: 1; fill: rgb(126, 211, 33); fill-opacity: 0.2;"/></g><g class="arrow-line"><path class="connection real" stroke-dasharray="" d="  M530.23,192.79 L433.35,192.9" style="stroke: rgb(208, 2, 27); stroke-opacity: 0.2; stroke-width: 2; fill: none; fill-opacity: 1;"/><g stroke="none" fill="rgb(208,2,27)" fill-opacity="0.2" transform="matrix(-0.9999992536874144,0.0012217301724651184,-0.0012217301724651184,-0.9999992536874144,534.2254764873046,192.78369795722463)" style="stroke: none; fill: rgb(208, 2, 27); stroke-width: 2;"><path d=" M11.61,-5.58 L0,0 L11.61,5.58 Z"/></g></g><g class="arrow-line"><path class="connection real" stroke-dasharray="" d="  M434.24,96.78 L434.59,192.86" style="stroke: rgb(74, 144, 226); stroke-opacity: 1; stroke-width: 2; fill: none; fill-opacity: 1;"/><g stroke="none" fill="rgb(74,144,226)" fill-opacity="1" transform="matrix(0.003665183223056939,0.999993283193413,-0.999993283193413,0.003665183223056939,434.2254764873046,92.78369795722466)" style="stroke: none; fill: rgb(74, 144, 226); stroke-width: 2;"><path d=" M11.61,-5.58 L0,0 L11.61,5.58 Z"/></g></g><g class="arrow-line"><path class="connection real" stroke-dasharray="" d="  M529.9,137.18 L434.59,192.86" style="stroke: rgb(208, 2, 27); stroke-opacity: 1; stroke-width: 2; fill: none; fill-opacity: 1;"/><g stroke="none" fill="rgb(208,2,27)" fill-opacity="1" transform="matrix(-0.8634835941380867,0.5043769251803377,-0.5043769251803377,-0.8634835941380867,533.3521547586688,135.1643808723695)" style="stroke: none; fill: rgb(208, 2, 27); stroke-width: 2;"><path d=" M11.61,-5.58 L0,0 L11.61,5.58 Z"/></g></g><g/></g><g/><g/><g/></svg>
        <svg xmlns="http://www.w3.org/2000/svg" xmlns:xlink="http://www.w3.org/1999/xlink" width="660" height="285" style="width:660px;height:285px;font-family:Asana-Math, Asana;background:transparent;"><g><g><g><g transform="matrix(1,0,0,1,147.625,216.3375)"><path transform="matrix(0.020399999999999998,0,0,-0.020399999999999998,0,0)" d="M188 465L179 469C128 448 76 434 23 428L23 400L60 400C100 400 104 393 104 327L104 102C104 39 101 32 67 30L21 27L21 -3C121 0 121 0 146 0C171 0 171 0 271 -3L271 27L225 30C191 32 188 39 188 102ZM142 687C112 687 86 661 86 631C86 602 112 576 141 576C170 576 197 602 197 631C197 659 170 687 142 687Z" stroke="rgb(208,2,27)" stroke-opacity="1" stroke-width="24" fill="rgb(208,2,27)" fill-opacity="1"></path></g></g><g><g transform="matrix(1,0,0,1,154.42498779296875,216.3375)"><path transform="matrix(0.020399999999999998,0,0,-0.020399999999999998,0,0)" d="" stroke="rgb(208,2,27)" stroke-opacity="1" stroke-width="0" fill="rgb(208,2,27)" fill-opacity="1"></path></g></g><g><g transform="matrix(1,0,0,1,159.390625,216.3375)"><path transform="matrix(0.020399999999999998,0,0,-0.020399999999999998,0,0)" d="M146 266C146 526 243 632 301 700L282 726C225 675 60 542 60 266C60 159 85 58 133 -32C168 -99 200 -138 282 -215L301 -194C255 -137 146 -15 146 266Z" stroke="rgb(208,2,27)" stroke-opacity="1" stroke-width="0" fill="rgb(208,2,27)" fill-opacity="1"></path></g></g><g><g transform="matrix(1,0,0,1,166.045654296875,216.3375)"><path transform="matrix(0.020399999999999998,0,0,-0.020399999999999998,0,0)" d="M567 55C567 39 552 30 524 28L480 25L480 -3C582 0 582 0 602 0C622 0 622 0 724 -3L724 25L698 28C651 35 650 35 642 80L555 705L509 705L136 112C100 56 82 40 48 32L28 27L28 -3C120 0 120 0 140 0C159 0 161 0 247 -3L247 25L195 28C179 29 164 38 164 47C164 55 171 69 190 102L292 277L538 277L563 89L563 86C563 84 567 69 567 55ZM496 601L533 313L317 313Z" stroke="rgb(208,2,27)" stroke-opacity="1" stroke-width="0" fill="rgb(208,2,27)" fill-opacity="1"></path></g></g><g><g transform="matrix(1,0,0,1,181.06561279296875,216.3375)"><path transform="matrix(0.020399999999999998,0,0,-0.020399999999999998,0,0)" d="M188 465L179 469C128 448 76 434 23 428L23 400L60 400C100 400 104 393 104 327L104 102C104 39 101 32 67 30L21 27L21 -3C121 0 121 0 146 0C171 0 171 0 271 -3L271 27L225 30C191 32 188 39 188 102ZM142 687C112 687 86 661 86 631C86 602 112 576 141 576C170 576 197 602 197 631C197 659 170 687 142 687Z" stroke="rgb(208,2,27)" stroke-opacity="1" stroke-width="24" fill="rgb(208,2,27)" fill-opacity="1"></path></g></g><g><g transform="matrix(1,0,0,1,187.859375,216.3375)"><path transform="matrix(0.020399999999999998,0,0,-0.020399999999999998,0,0)" d="M51 726L32 700C87 636 187 526 187 266C187 -10 83 -131 32 -194L51 -215C104 -165 273 -23 273 265C273 542 108 675 51 726Z" stroke="rgb(208,2,27)" stroke-opacity="1" stroke-width="0" fill="rgb(208,2,27)" fill-opacity="1"></path></g></g></g></g><g><g><g><g transform="matrix(1,0,0,1,45.625,104.3375)"><path transform="matrix(0.020399999999999998,0,0,-0.020399999999999998,0,0)" d="M-10 -248C-16 -248 -32 -246 -40 -245L-28 -283C30 -279 68 -258 106 -208C141 -162 159 -98 159 -19L159 465L150 469C99 448 47 434 -6 428L-6 400L31 400C71 400 75 393 75 327L75 -7C75 -142 58 -248 -10 -248ZM112 688C83 688 56 661 56 633C56 604 83 577 111 577C141 577 167 603 167 633C167 662 141 688 112 688Z" stroke="rgb(74,144,226)" stroke-opacity="1" stroke-width="24" fill="rgb(74,144,226)" fill-opacity="1"></path></g></g></g></g><g><g><g><g transform="matrix(1,0,0,1,117.625,83.3375)"><path transform="matrix(0.020399999999999998,0,0,-0.020399999999999998,0,0)" d="M567 55C567 39 552 30 524 28L480 25L480 -3C582 0 582 0 602 0C622 0 622 0 724 -3L724 25L698 28C651 35 650 35 642 80L555 705L509 705L136 112C100 56 82 40 48 32L28 27L28 -3C120 0 120 0 140 0C159 0 161 0 247 -3L247 25L195 28C179 29 164 38 164 47C164 55 171 69 190 102L292 277L538 277L563 89L563 86C563 84 567 69 567 55ZM496 601L533 313L317 313Z" stroke="rgb(74,144,226)" stroke-opacity="1" stroke-width="0" fill="rgb(74,144,226)" fill-opacity="1"></path></g></g><g><g transform="matrix(1,0,0,1,132.64501953125,83.3375)"><path transform="matrix(0.020399999999999998,0,0,-0.020399999999999998,0,0)" d="M-10 -248C-16 -248 -32 -246 -40 -245L-28 -283C30 -279 68 -258 106 -208C141 -162 159 -98 159 -19L159 465L150 469C99 448 47 434 -6 428L-6 400L31 400C71 400 75 393 75 327L75 -7C75 -142 58 -248 -10 -248ZM112 688C83 688 56 661 56 633C56 604 83 577 111 577C141 577 167 603 167 633C167 662 141 688 112 688Z" stroke="rgb(74,144,226)" stroke-opacity="1" stroke-width="24" fill="rgb(74,144,226)" fill-opacity="1"></path></g></g></g></g><g><g><g><g transform="matrix(1,0,0,1,517.71875,217.696875)"><path transform="matrix(0.020399999999999998,0,0,-0.020399999999999998,0,0)" d="M188 465L179 469C128 448 76 434 23 428L23 400L60 400C100 400 104 393 104 327L104 102C104 39 101 32 67 30L21 27L21 -3C121 0 121 0 146 0C171 0 171 0 271 -3L271 27L225 30C191 32 188 39 188 102ZM142 687C112 687 86 661 86 631C86 602 112 576 141 576C170 576 197 602 197 631C197 659 170 687 142 687Z" stroke="rgb(208,2,27)" stroke-opacity="1" stroke-width="24" fill="rgb(208,2,27)" fill-opacity="1"></path></g></g></g></g><g><g><g><g transform="matrix(1,0,0,1,380.71875,108.696875)"><path transform="matrix(0.020399999999999998,0,0,-0.020399999999999998,0,0)" d="M-10 -248C-16 -248 -32 -246 -40 -245L-28 -283C30 -279 68 -258 106 -208C141 -162 159 -98 159 -19L159 465L150 469C99 448 47 434 -6 428L-6 400L31 400C71 400 75 393 75 327L75 -7C75 -142 58 -248 -10 -248ZM112 688C83 688 56 661 56 633C56 604 83 577 111 577C141 577 167 603 167 633C167 662 141 688 112 688Z" stroke="rgb(74,144,226)" stroke-opacity="1" stroke-width="24" fill="rgb(74,144,226)" fill-opacity="1"></path></g></g><g><g transform="matrix(1,0,0,1,386.37872314453125,108.696875)"><path transform="matrix(0.020399999999999998,0,0,-0.020399999999999998,0,0)" d="" stroke="rgb(74,144,226)" stroke-opacity="1" stroke-width="0" fill="rgb(74,144,226)" fill-opacity="1"></path></g></g><g><g transform="matrix(1,0,0,1,391.34375,108.696875)"><path transform="matrix(0.020399999999999998,0,0,-0.020399999999999998,0,0)" d="M146 266C146 526 243 632 301 700L282 726C225 675 60 542 60 266C60 159 85 58 133 -32C168 -99 200 -138 282 -215L301 -194C255 -137 146 -15 146 266Z" stroke="rgb(74,144,226)" stroke-opacity="1" stroke-width="0" fill="rgb(74,144,226)" fill-opacity="1"></path></g></g><g><g transform="matrix(1,0,0,1,397.9993896484375,108.696875)"><path transform="matrix(0.020399999999999998,0,0,-0.020399999999999998,0,0)" d="M567 55C567 39 552 30 524 28L480 25L480 -3C582 0 582 0 602 0C622 0 622 0 724 -3L724 25L698 28C651 35 650 35 642 80L555 705L509 705L136 112C100 56 82 40 48 32L28 27L28 -3C120 0 120 0 140 0C159 0 161 0 247 -3L247 25L195 28C179 29 164 38 164 47C164 55 171 69 190 102L292 277L538 277L563 89L563 86C563 84 567 69 567 55ZM496 601L533 313L317 313Z" stroke="rgb(74,144,226)" stroke-opacity="1" stroke-width="0" fill="rgb(74,144,226)" fill-opacity="1"></path></g></g><g><g transform="matrix(1,0,0,1,413.01934814453125,108.696875)"><path transform="matrix(0.020399999999999998,0,0,-0.020399999999999998,0,0)" d="M-10 -248C-16 -248 -32 -246 -40 -245L-28 -283C30 -279 68 -258 106 -208C141 -162 159 -98 159 -19L159 465L150 469C99 448 47 434 -6 428L-6 400L31 400C71 400 75 393 75 327L75 -7C75 -142 58 -248 -10 -248ZM112 688C83 688 56 661 56 633C56 604 83 577 111 577C141 577 167 603 167 633C167 662 141 688 112 688Z" stroke="rgb(74,144,226)" stroke-opacity="1" stroke-width="24" fill="rgb(74,144,226)" fill-opacity="1"></path></g></g><g><g transform="matrix(1,0,0,1,418.671875,108.696875)"><path transform="matrix(0.020399999999999998,0,0,-0.020399999999999998,0,0)" d="M51 726L32 700C87 636 187 526 187 266C187 -10 83 -131 32 -194L51 -215C104 -165 273 -23 273 265C273 542 108 675 51 726Z" stroke="rgb(74,144,226)" stroke-opacity="1" stroke-width="0" fill="rgb(74,144,226)" fill-opacity="1"></path></g></g></g></g><g><g><g><g transform="matrix(1,0,0,1,540.71875,147.696875)"><path transform="matrix(0.020399999999999998,0,0,-0.020399999999999998,0,0)" d="M567 55C567 39 552 30 524 28L480 25L480 -3C582 0 582 0 602 0C622 0 622 0 724 -3L724 25L698 28C651 35 650 35 642 80L555 705L509 705L136 112C100 56 82 40 48 32L28 27L28 -3C120 0 120 0 140 0C159 0 161 0 247 -3L247 25L195 28C179 29 164 38 164 47C164 55 171 69 190 102L292 277L538 277L563 89L563 86C563 84 567 69 567 55ZM496 601L533 313L317 313Z" stroke="rgb(208,2,27)" stroke-opacity="1" stroke-width="0" fill="rgb(208,2,27)" fill-opacity="1"></path></g></g><g><g transform="matrix(1,0,0,1,555.73876953125,147.696875)"><path transform="matrix(0.020399999999999998,0,0,-0.020399999999999998,0,0)" d="M188 465L179 469C128 448 76 434 23 428L23 400L60 400C100 400 104 393 104 327L104 102C104 39 101 32 67 30L21 27L21 -3C121 0 121 0 146 0C171 0 171 0 271 -3L271 27L225 30C191 32 188 39 188 102ZM142 687C112 687 86 661 86 631C86 602 112 576 141 576C170 576 197 602 197 631C197 659 170 687 142 687Z" stroke="rgb(208,2,27)" stroke-opacity="1" stroke-width="24" fill="rgb(208,2,27)" fill-opacity="1"></path></g></g></g></g></svg>
</svg>
