<svg xmlns="http://www.w3.org/2000/svg" xmlns:xlink="http://www.w3.org/1999/xlink" x="0" y="0" width="350" height="312" style="
        width:350px;
        height:312px;
        background: #FFF;
        fill: none;
">
        <svg xmlns="http://www.w3.org/2000/svg"/>
        
        <svg xmlns="http://www.w3.org/2000/svg" class="role-diagram-draw-area" style="overflow: visible;"><g class="shapes-region" style="stroke: black; fill: none;"><g class="composite-shape"><path class="real" d=" M121,117 C121,113.69 123.69,111 127,111 C130.31,111 133,113.69 133,117 C133,120.31 130.31,123 127,123 C123.69,123 121,120.31 121,117 Z" style="stroke-width: 3; stroke: rgb(126, 211, 33); stroke-opacity: 1; fill: none; fill-opacity: 1;"/></g><g class="composite-shape"><path class="real" d=" M274.63,74.63 L275.62,75.62 L270.99,80.25 L275.62,84.88 L274.63,85.87 L270,81.24 L265.37,85.87 L264.38,84.88 L269.01,80.25 L264.38,75.62 L265.37,74.63 L270,79.25 Z" style="stroke-width: 1; stroke: rgb(208, 2, 27); stroke-opacity: 1; fill: rgb(208, 2, 27); fill-opacity: 1;"/></g><g class="composite-shape axis2d" style="stroke-width: 2; stroke: rgb(0, 0, 0);"><path class="real" d=" M11,265.8 L336,265.8 M43.5,12 L43.5,294"/><path d=" M329,260.8 L336,265.8 L329,270.8"/><path d=" M38.5,19 L43.5,12 L48.5,19"/></g><g class="arrow-line"><path class="connection real" stroke-dasharray="7.5 6" d="  M65,248.33 C130,39.33 210,234.33 264,42.33" style="stroke: rgb(245, 166, 35); stroke-opacity: 1; stroke-width: 2; fill: none; fill-opacity: 1;"/></g><g class="arrow-line"><path class="connection real" stroke-dasharray="" d="  M114,145 L65,248.33" style="stroke: rgb(74, 144, 226); stroke-opacity: 1; stroke-width: 2; fill: none; fill-opacity: 1;"/></g><g class="arrow-line"><path class="connection real" stroke-dasharray="" d="  M114,145 L228,129" style="stroke: rgb(74, 144, 226); stroke-opacity: 1; stroke-width: 2; fill: none; fill-opacity: 1;"/></g><g class="arrow-line"><path class="connection real" stroke-dasharray="" d="  M228,129 L264,42.33" style="stroke: rgb(74, 144, 226); stroke-opacity: 1; stroke-width: 2; fill: none; fill-opacity: 1;"/></g><g class="arrow-line"><path class="connection real" stroke-dasharray="" d="  M93,139 L90,251" style="stroke: rgb(208, 2, 27); stroke-opacity: 1; stroke-width: 2; fill: none; fill-opacity: 1;"/></g><g class="arrow-line"><path class="connection real" stroke-dasharray="" d="  M93,139 L245,137" style="stroke: rgb(208, 2, 27); stroke-opacity: 1; stroke-width: 2; fill: none; fill-opacity: 1;"/></g><g class="arrow-line"><path class="connection real" stroke-dasharray="" d="  M246.5,34.17 L245.5,137.17" style="stroke: rgb(208, 2, 27); stroke-opacity: 1; stroke-width: 2; fill: none; fill-opacity: 1;"/></g><g class="composite-shape"><path class="real" d=" M89,31 C89,27.69 91.69,25 95,25 C98.31,25 101,27.69 101,31 C101,34.31 98.31,37 95,37 C91.69,37 89,34.31 89,31 Z" style="stroke-width: 3; stroke: rgb(126, 211, 33); stroke-opacity: 1; fill: none; fill-opacity: 1;"/></g><g class="composite-shape"><path class="real" d=" M63,155 C63,151.69 65.69,149 69,149 C72.31,149 75,151.69 75,155 C75,158.31 72.31,161 69,161 C65.69,161 63,158.31 63,155 Z" style="stroke-width: 3; stroke: rgb(126, 211, 33); stroke-opacity: 1; fill: none; fill-opacity: 1;"/></g><g class="composite-shape"><path class="real" d=" M55,215 C55,211.69 57.69,209 61,209 C64.31,209 67,211.69 67,215 C67,218.31 64.31,221 61,221 C57.69,221 55,218.31 55,215 Z" style="stroke-width: 3; stroke: rgb(126, 211, 33); stroke-opacity: 1; fill: none; fill-opacity: 1;"/></g><g class="composite-shape"><path class="real" d=" M134,101 C134,97.69 136.69,95 140,95 C143.31,95 146,97.69 146,101 C146,104.31 143.31,107 140,107 C136.69,107 134,104.31 134,101 Z" style="stroke-width: 3; stroke: rgb(126, 211, 33); stroke-opacity: 1; fill: none; fill-opacity: 1;"/></g><g class="composite-shape"><path class="real" d=" M164,118 C164,114.69 166.69,112 170,112 C173.31,112 176,114.69 176,118 C176,121.31 173.31,124 170,124 C166.69,124 164,121.31 164,118 Z" style="stroke-width: 3; stroke: rgb(126, 211, 33); stroke-opacity: 1; fill: none; fill-opacity: 1;"/></g><g class="composite-shape"><path class="real" d=" M186,37 C186,33.69 188.69,31 192,31 C195.31,31 198,33.69 198,37 C198,40.31 195.31,43 192,43 C188.69,43 186,40.31 186,37 Z" style="stroke-width: 3; stroke: rgb(126, 211, 33); stroke-opacity: 1; fill: none; fill-opacity: 1;"/></g><g class="composite-shape"><path class="real" d=" M187,66 C187,62.69 189.69,60 193,60 C196.31,60 199,62.69 199,66 C199,69.31 196.31,72 193,72 C189.69,72 187,69.31 187,66 Z" style="stroke-width: 3; stroke: rgb(126, 211, 33); stroke-opacity: 1; fill: none; fill-opacity: 1;"/></g><g class="composite-shape"><path class="real" d=" M138,44 C138,40.69 140.69,38 144,38 C147.31,38 150,40.69 150,44 C150,47.31 147.31,50 144,50 C140.69,50 138,47.31 138,44 Z" style="stroke-width: 3; stroke: rgb(126, 211, 33); stroke-opacity: 1; fill: none; fill-opacity: 1;"/></g><g class="composite-shape"><path class="real" d=" M190,91 C190,87.69 192.69,85 196,85 C199.31,85 202,87.69 202,91 C202,94.31 199.31,97 196,97 C192.69,97 190,94.31 190,91 Z" style="stroke-width: 3; stroke: rgb(126, 211, 33); stroke-opacity: 1; fill: none; fill-opacity: 1;"/></g><g class="composite-shape"><path class="real" d=" M205,111 C205,107.69 207.69,105 211,105 C214.31,105 217,107.69 217,111 C217,114.31 214.31,117 211,117 C207.69,117 205,114.31 205,111 Z" style="stroke-width: 3; stroke: rgb(126, 211, 33); stroke-opacity: 1; fill: none; fill-opacity: 1;"/></g><g class="composite-shape"><path class="real" d=" M57,106 C57,102.69 59.69,100 63,100 C66.31,100 69,102.69 69,106 C69,109.31 66.31,112 63,112 C59.69,112 57,109.31 57,106 Z" style="stroke-width: 3; stroke: rgb(126, 211, 33); stroke-opacity: 1; fill: none; fill-opacity: 1;"/></g><g class="composite-shape"><path class="real" d=" M161,80 C161,76.69 163.69,74 167,74 C170.31,74 173,76.69 173,80 C173,83.31 170.31,86 167,86 C163.69,86 161,83.31 161,80 Z" style="stroke-width: 3; stroke: rgb(126, 211, 33); stroke-opacity: 1; fill: none; fill-opacity: 1;"/></g><g class="composite-shape"><path class="real" d=" M221,48 C221,44.69 223.69,42 227,42 C230.31,42 233,44.69 233,48 C233,51.31 230.31,54 227,54 C223.69,54 221,51.31 221,48 Z" style="stroke-width: 3; stroke: rgb(126, 211, 33); stroke-opacity: 1; fill: none; fill-opacity: 1;"/></g><g class="composite-shape"><path class="real" d=" M218,75 C218,71.69 220.69,69 224,69 C227.31,69 230,71.69 230,75 C230,78.31 227.31,81 224,81 C220.69,81 218,78.31 218,75 Z" style="stroke-width: 3; stroke: rgb(126, 211, 33); stroke-opacity: 1; fill: none; fill-opacity: 1;"/></g><g class="composite-shape"><path class="real" d=" M112,72 C112,68.69 114.69,66 118,66 C121.31,66 124,68.69 124,72 C124,75.31 121.31,78 118,78 C114.69,78 112,75.31 112,72 Z" style="stroke-width: 3; stroke: rgb(126, 211, 33); stroke-opacity: 1; fill: none; fill-opacity: 1;"/></g><g class="composite-shape"><path class="real" d=" M93,126 C93,122.69 95.69,120 99,120 C102.31,120 105,122.69 105,126 C105,129.31 102.31,132 99,132 C95.69,132 93,129.31 93,126 Z" style="stroke-width: 3; stroke: rgb(126, 211, 33); stroke-opacity: 1; fill: none; fill-opacity: 1;"/></g><g class="composite-shape"><path class="real" d=" M66,188 C66,184.69 68.69,182 72,182 C75.31,182 78,184.69 78,188 C78,191.31 75.31,194 72,194 C68.69,194 66,191.31 66,188 Z" style="stroke-width: 3; stroke: rgb(126, 211, 33); stroke-opacity: 1; fill: none; fill-opacity: 1;"/></g><g class="composite-shape"><path class="real" d=" M99,92 C99,88.69 101.69,86 105,86 C108.31,86 111,88.69 111,92 C111,95.31 108.31,98 105,98 C101.69,98 99,95.31 99,92 Z" style="stroke-width: 3; stroke: rgb(126, 211, 33); stroke-opacity: 1; fill: none; fill-opacity: 1;"/></g><g class="composite-shape"><path class="real" d=" M141,230 C141,226.69 143.69,224 147,224 C150.31,224 153,226.69 153,230 C153,233.31 150.31,236 147,236 C143.69,236 141,233.31 141,230 Z" style="stroke-width: 3; stroke: rgb(126, 211, 33); stroke-opacity: 1; fill: none; fill-opacity: 1;"/></g><g class="composite-shape"><path class="real" d=" M154.63,161.63 L155.62,162.62 L150.99,167.25 L155.62,171.88 L154.63,172.87 L150,168.24 L145.37,172.87 L144.38,171.88 L149.01,167.25 L144.38,162.62 L145.37,161.63 L150,166.25 Z" style="stroke-width: 1; stroke: rgb(208, 2, 27); stroke-opacity: 1; fill: rgb(208, 2, 27); fill-opacity: 1;"/></g><g class="composite-shape"><path class="real" d=" M191.63,154.63 L192.62,155.62 L187.99,160.25 L192.62,164.88 L191.63,165.87 L187,161.24 L182.37,165.87 L181.38,164.88 L186.01,160.25 L181.38,155.62 L182.37,154.63 L187,159.25 Z" style="stroke-width: 1; stroke: rgb(208, 2, 27); stroke-opacity: 1; fill: rgb(208, 2, 27); fill-opacity: 1;"/></g><g class="composite-shape"><path class="real" d=" M187.63,178.63 L188.62,179.62 L183.99,184.25 L188.62,188.88 L187.63,189.87 L183,185.24 L178.37,189.87 L177.38,188.88 L182.01,184.25 L177.38,179.62 L178.37,178.63 L183,183.25 Z" style="stroke-width: 1; stroke: rgb(208, 2, 27); stroke-opacity: 1; fill: rgb(208, 2, 27); fill-opacity: 1;"/></g><g class="composite-shape"><path class="real" d=" M210.63,185.63 L211.62,186.62 L206.99,191.25 L211.62,195.88 L210.63,196.87 L206,192.24 L201.37,196.87 L200.38,195.88 L205.01,191.25 L200.38,186.62 L201.37,185.63 L206,190.25 Z" style="stroke-width: 1; stroke: rgb(208, 2, 27); stroke-opacity: 1; fill: rgb(208, 2, 27); fill-opacity: 1;"/></g><g class="composite-shape"><path class="real" d=" M275.63,157.63 L276.62,158.62 L271.99,163.25 L276.62,167.88 L275.63,168.87 L271,164.24 L266.37,168.87 L265.38,167.88 L270.01,163.25 L265.38,158.62 L266.37,157.63 L271,162.25 Z" style="stroke-width: 1; stroke: rgb(208, 2, 27); stroke-opacity: 1; fill: rgb(208, 2, 27); fill-opacity: 1;"/></g><g class="composite-shape"><path class="real" d=" M267.63,123.63 L268.62,124.62 L263.99,129.25 L268.62,133.88 L267.63,134.87 L263,130.24 L258.37,134.87 L257.38,133.88 L262.01,129.25 L257.38,124.62 L258.37,123.63 L263,128.25 Z" style="stroke-width: 1; stroke: rgb(208, 2, 27); stroke-opacity: 1; fill: rgb(208, 2, 27); fill-opacity: 1;"/></g><g class="composite-shape"><path class="real" d=" M296.63,147.63 L297.62,148.62 L292.99,153.25 L297.62,157.88 L296.63,158.87 L292,154.24 L287.37,158.87 L286.38,157.88 L291.01,153.25 L286.38,148.62 L287.37,147.63 L292,152.25 Z" style="stroke-width: 1; stroke: rgb(208, 2, 27); stroke-opacity: 1; fill: rgb(208, 2, 27); fill-opacity: 1;"/></g><g class="composite-shape"><path class="real" d=" M286.63,196.63 L287.62,197.62 L282.99,202.25 L287.62,206.88 L286.63,207.87 L282,203.24 L277.37,207.87 L276.38,206.88 L281.01,202.25 L276.38,197.62 L277.37,196.63 L282,201.25 Z" style="stroke-width: 1; stroke: rgb(208, 2, 27); stroke-opacity: 1; fill: rgb(208, 2, 27); fill-opacity: 1;"/></g><g class="composite-shape"><path class="real" d=" M194.63,112.63 L195.62,113.62 L190.99,118.25 L195.62,122.88 L194.63,123.87 L190,119.24 L185.37,123.87 L184.38,122.88 L189.01,118.25 L184.38,113.62 L185.37,112.63 L190,117.25 Z" style="stroke-width: 1; stroke: rgb(208, 2, 27); stroke-opacity: 1; fill: rgb(208, 2, 27); fill-opacity: 1;"/></g><g class="composite-shape"><path class="real" d=" M120.63,174.63 L121.62,175.62 L116.99,180.25 L121.62,184.88 L120.63,185.87 L116,181.24 L111.37,185.87 L110.38,184.88 L115.01,180.25 L110.38,175.62 L111.37,174.63 L116,179.25 Z" style="stroke-width: 1; stroke: rgb(208, 2, 27); stroke-opacity: 1; fill: rgb(208, 2, 27); fill-opacity: 1;"/></g><g class="composite-shape"><path class="real" d=" M229.63,142.63 L230.62,143.62 L225.99,148.25 L230.62,152.88 L229.63,153.87 L225,149.24 L220.37,153.87 L219.38,152.88 L224.01,148.25 L219.38,143.62 L220.37,142.63 L225,147.25 Z" style="stroke-width: 1; stroke: rgb(208, 2, 27); stroke-opacity: 1; fill: rgb(208, 2, 27); fill-opacity: 1;"/></g><g class="composite-shape"><path class="real" d=" M169.63,146.63 L170.62,147.62 L165.99,152.25 L170.62,156.88 L169.63,157.87 L165,153.24 L160.37,157.87 L159.38,156.88 L164.01,152.25 L159.38,147.62 L160.37,146.63 L165,151.25 Z" style="stroke-width: 1; stroke: rgb(208, 2, 27); stroke-opacity: 1; fill: rgb(208, 2, 27); fill-opacity: 1;"/></g><g class="composite-shape"><path class="real" d=" M211.63,221.63 L212.62,222.62 L207.99,227.25 L212.62,231.88 L211.63,232.87 L207,228.24 L202.37,232.87 L201.38,231.88 L206.01,227.25 L201.38,222.62 L202.37,221.63 L207,226.25 Z" style="stroke-width: 1; stroke: rgb(208, 2, 27); stroke-opacity: 1; fill: rgb(208, 2, 27); fill-opacity: 1;"/></g><g class="composite-shape"><path class="real" d=" M186.63,233.63 L187.62,234.62 L182.99,239.25 L187.62,243.88 L186.63,244.87 L182,240.24 L177.37,244.87 L176.38,243.88 L181.01,239.25 L176.38,234.62 L177.37,233.63 L182,238.25 Z" style="stroke-width: 1; stroke: rgb(208, 2, 27); stroke-opacity: 1; fill: rgb(208, 2, 27); fill-opacity: 1;"/></g><g class="composite-shape"><path class="real" d=" M258.63,230.63 L259.62,231.62 L254.99,236.25 L259.62,240.88 L258.63,241.87 L254,237.24 L249.37,241.87 L248.38,240.88 L253.01,236.25 L248.38,231.62 L249.37,230.63 L254,235.25 Z" style="stroke-width: 1; stroke: rgb(208, 2, 27); stroke-opacity: 1; fill: rgb(208, 2, 27); fill-opacity: 1;"/></g><g class="composite-shape"><path class="real" d=" M248.63,193.63 L249.62,194.62 L244.99,199.25 L249.62,203.88 L248.63,204.87 L244,200.24 L239.37,204.87 L238.38,203.88 L243.01,199.25 L238.38,194.62 L239.37,193.63 L244,198.25 Z" style="stroke-width: 1; stroke: rgb(208, 2, 27); stroke-opacity: 1; fill: rgb(208, 2, 27); fill-opacity: 1;"/></g><g class="composite-shape"><path class="real" d=" M130.63,157.13 L131.62,158.12 L126.99,162.75 L131.62,167.38 L130.63,168.37 L126,163.75 L121.37,168.37 L120.38,167.38 L125.01,162.75 L120.38,158.12 L121.37,157.13 L126,161.76 Z" style="stroke-width: 1; stroke: rgb(208, 2, 27); stroke-opacity: 1; fill: rgb(208, 2, 27); fill-opacity: 1;"/></g><g class="composite-shape"><path class="real" d=" M121.63,217.13 L122.62,218.12 L117.99,222.75 L122.62,227.38 L121.63,228.37 L117,223.75 L112.37,228.37 L111.38,227.38 L116.01,222.75 L111.38,218.12 L112.37,217.13 L117,221.76 Z" style="stroke-width: 1; stroke: rgb(208, 2, 27); stroke-opacity: 1; fill: rgb(208, 2, 27); fill-opacity: 1;"/></g><g class="composite-shape"><path class="real" d=" M142.63,197.13 L143.62,198.12 L138.99,202.75 L143.62,207.38 L142.63,208.37 L138,203.75 L133.37,208.37 L132.38,207.38 L137.01,202.75 L132.38,198.12 L133.37,197.13 L138,201.76 Z" style="stroke-width: 1; stroke: rgb(208, 2, 27); stroke-opacity: 1; fill: rgb(208, 2, 27); fill-opacity: 1;"/></g><g class="composite-shape"><path class="real" d=" M266.63,102.13 L267.62,103.12 L262.99,107.75 L267.62,112.38 L266.63,113.37 L262,108.75 L257.37,113.37 L256.38,112.38 L261.01,107.75 L256.38,103.12 L257.37,102.13 L262,106.76 Z" style="stroke-width: 1; stroke: rgb(208, 2, 27); stroke-opacity: 1; fill: rgb(208, 2, 27); fill-opacity: 1;"/></g><g class="composite-shape"><path class="real" d=" M123.63,240.13 L124.62,241.12 L119.99,245.75 L124.62,250.38 L123.63,251.37 L119,246.75 L114.37,251.37 L113.38,250.38 L118.01,245.75 L113.38,241.12 L114.37,240.13 L119,244.76 Z" style="stroke-width: 1; stroke: rgb(208, 2, 27); stroke-opacity: 1; fill: rgb(208, 2, 27); fill-opacity: 1;"/></g><g class="composite-shape"><path class="real" d=" M172.63,212.13 L173.62,213.12 L168.99,217.75 L173.62,222.38 L172.63,223.37 L168,218.75 L163.37,223.37 L162.38,222.38 L167.01,217.75 L162.38,213.12 L163.37,212.13 L168,216.76 Z" style="stroke-width: 1; stroke: rgb(208, 2, 27); stroke-opacity: 1; fill: rgb(208, 2, 27); fill-opacity: 1;"/></g><g/></g><g/><g/><g/></svg>
        <svg xmlns="http://www.w3.org/2000/svg" xmlns:xlink="http://www.w3.org/1999/xlink" width="700" height="310" style="width:700px;height:310px;font-family:Asana-Math, Asana;background:#FFF;"></svg>
</svg>
