<svg xmlns="http://www.w3.org/2000/svg" xmlns:xlink="http://www.w3.org/1999/xlink" x="0" y="0" width="320" height="337" style="
        width:320px;
        height:337px;
        background: #FFF;
        fill: none;
">
        <svg xmlns="http://www.w3.org/2000/svg"/>
        
        <svg xmlns="http://www.w3.org/2000/svg" class="role-diagram-draw-area"><g class="shapes-region" style="stroke: black; fill: none;"><g class="composite-shape"><path class="real" d=" M125.5,67.45 L135,84 L116,84 Z" style="stroke-width: 3; stroke: rgb(126, 211, 33); fill: none; fill-opacity: 1; stroke-opacity: 1;"/></g><g class="composite-shape"><path class="real" d=" M157.5,97.45 L167,114 L148,114 Z" style="stroke-width: 3; stroke: rgb(126, 211, 33); stroke-opacity: 1; fill: none; fill-opacity: 1;"/></g><g class="composite-shape"><path class="real" d=" M126.5,97.45 L136,114 L117,114 Z" style="stroke-width: 3; stroke: rgb(126, 211, 33); stroke-opacity: 1; fill: none; fill-opacity: 1;"/></g><g class="composite-shape"><path class="real" d=" M190.5,67.45 L200,84 L181,84 Z" style="stroke-width: 3; stroke: rgb(126, 211, 33); stroke-opacity: 1; fill: none; fill-opacity: 1;"/></g><g class="composite-shape"><path class="real" d=" M84,78.5 C84,73.25 88.25,69 93.5,69 C98.75,69 103,73.25 103,78.5 C103,83.75 98.75,88 93.5,88 C88.25,88 84,83.75 84,78.5 Z" style="stroke-width: 3; stroke: rgb(208, 2, 27); fill: none; fill-opacity: 1; stroke-opacity: 1;"/></g><g class="composite-shape"><path class="real" d=" M83,108.5 C83,103.25 87.25,99 92.5,99 C97.75,99 102,103.25 102,108.5 C102,113.75 97.75,118 92.5,118 C87.25,118 83,113.75 83,108.5 Z" style="stroke-width: 3; stroke: rgb(208, 2, 27); stroke-opacity: 1; fill: none; fill-opacity: 1;"/></g><g class="composite-shape"><path class="real" d=" M147,77.5 C147,72.25 151.25,68 156.5,68 C161.75,68 166,72.25 166,77.5 C166,82.75 161.75,87 156.5,87 C151.25,87 147,82.75 147,77.5 Z" style="stroke-width: 3; stroke: rgb(208, 2, 27); stroke-opacity: 1; fill: none; fill-opacity: 1;"/></g><g class="composite-shape"><path class="real" d=" M182,107.5 C182,102.25 186.25,98 191.5,98 C196.75,98 201,102.25 201,107.5 C201,112.75 196.75,117 191.5,117 C186.25,117 182,112.75 182,107.5 Z" style="stroke-width: 3; stroke: rgb(208, 2, 27); stroke-opacity: 1; fill: none; fill-opacity: 1;"/></g><g class="composite-shape"><path class="real" d=" M214,77.5 C214,72.25 218.25,68 223.5,68 C228.75,68 233,72.25 233,77.5 C233,82.75 228.75,87 223.5,87 C218.25,87 214,82.75 214,77.5 Z" style="stroke-width: 3; stroke: rgb(208, 2, 27); stroke-opacity: 1; fill: none; fill-opacity: 1;"/></g><g class="composite-shape"><path class="real" d=" M214,108.5 C214,103.25 218.25,99 223.5,99 C228.75,99 233,103.25 233,108.5 C233,113.75 228.75,118 223.5,118 C218.25,118 214,113.75 214,108.5 Z" style="stroke-width: 3; stroke: rgb(208, 2, 27); stroke-opacity: 1; fill: none; fill-opacity: 1;"/></g><g class="composite-shape"><path class="real" d=" M76.5,197.45 L86,214 L67,214 Z" style="stroke-width: 3; stroke: rgb(126, 211, 33); stroke-opacity: 1; fill: none; fill-opacity: 1;"/></g><g class="composite-shape"><path class="real" d=" M108.5,213.45 L118,230 L99,230 Z" style="stroke-width: 3; stroke: rgb(126, 211, 33); stroke-opacity: 1; fill: none; fill-opacity: 1;"/></g><g class="composite-shape"><path class="real" d=" M77.5,227.45 L87,244 L68,244 Z" style="stroke-width: 3; stroke: rgb(126, 211, 33); stroke-opacity: 1; fill: none; fill-opacity: 1;"/></g><g class="composite-shape"><path class="real" d=" M207.5,195.45 L217,212 L198,212 Z" style="stroke-width: 3; stroke: rgb(126, 211, 33); stroke-opacity: 1; fill: none; fill-opacity: 1;"/></g><g class="composite-shape"><path class="real" d=" M35,208.5 C35,203.25 39.25,199 44.5,199 C49.75,199 54,203.25 54,208.5 C54,213.75 49.75,218 44.5,218 C39.25,218 35,213.75 35,208.5 Z" style="stroke-width: 3; stroke: rgb(208, 2, 27); stroke-opacity: 1; fill: none; fill-opacity: 1;"/></g><g class="composite-shape"><path class="real" d=" M34,238.5 C34,233.25 38.25,229 43.5,229 C48.75,229 53,233.25 53,238.5 C53,243.75 48.75,248 43.5,248 C38.25,248 34,243.75 34,238.5 Z" style="stroke-width: 3; stroke: rgb(208, 2, 27); stroke-opacity: 1; fill: none; fill-opacity: 1;"/></g><g class="composite-shape"><path class="real" d=" M263,218.5 C263,213.25 267.25,209 272.5,209 C277.75,209 282,213.25 282,218.5 C282,223.75 277.75,228 272.5,228 C267.25,228 263,223.75 263,218.5 Z" style="stroke-width: 3; stroke: rgb(208, 2, 27); stroke-opacity: 1; fill: none; fill-opacity: 1;"/></g><g class="composite-shape"><path class="real" d=" M199,235.5 C199,230.25 203.25,226 208.5,226 C213.75,226 218,230.25 218,235.5 C218,240.75 213.75,245 208.5,245 C203.25,245 199,240.75 199,235.5 Z" style="stroke-width: 3; stroke: rgb(208, 2, 27); stroke-opacity: 1; fill: none; fill-opacity: 1;"/></g><g class="composite-shape"><path class="real" d=" M231,205.5 C231,200.25 235.25,196 240.5,196 C245.75,196 250,200.25 250,205.5 C250,210.75 245.75,215 240.5,215 C235.25,215 231,210.75 231,205.5 Z" style="stroke-width: 3; stroke: rgb(208, 2, 27); stroke-opacity: 1; fill: none; fill-opacity: 1;"/></g><g class="composite-shape"><path class="real" d=" M231,236.5 C231,231.25 235.25,227 240.5,227 C245.75,227 250,231.25 250,236.5 C250,241.75 245.75,246 240.5,246 C235.25,246 231,241.75 231,236.5 Z" style="stroke-width: 3; stroke: rgb(208, 2, 27); stroke-opacity: 1; fill: none; fill-opacity: 1;"/></g><g class="arrow-line"><path class="connection real" stroke-dasharray="" d="  M113,131 L88.32,181.31" style="stroke: rgb(0, 0, 0); stroke-width: 2; fill: none; fill-opacity: 1;"/><g stroke="#000" transform="matrix(0.4404093156676426,-0.8977971010607902,0.8977971010607902,0.4404093156676426,87,184)" style="stroke: rgb(0, 0, 0); stroke-width: 2;"><path d=" M14.21,-4.28 Q6.45,-0.59 0,0 Q6.45,0.59 14.21,4.28"/></g></g><g class="arrow-line"><path class="connection real" stroke-dasharray="" d="  M204,137 L222.83,181.24" style="stroke: rgb(0, 0, 0); stroke-width: 2; fill: none; fill-opacity: 1;"/><g stroke="#000" transform="matrix(-0.39153427163160764,-0.9201635257593654,0.9201635257593654,-0.39153427163160764,224,184)" style="stroke: rgb(0, 0, 0); stroke-width: 2;"><path d=" M14.21,-4.28 Q6.45,-0.59 0,0 Q6.45,0.59 14.21,4.28"/></g></g><g/></g><g/><g/><g/></svg>
        <svg xmlns="http://www.w3.org/2000/svg" xmlns:xlink="http://www.w3.org/1999/xlink" width="660" height="335" style="width:660px;height:335px;font-family:Asana-Math, Asana;background:#FFF;"><g><g><g><g transform="matrix(1,0,0,1,63,154.33334350585938)"><path transform="matrix(0.017,0,0,-0.017,0,0)" d="M251 722L239 733C187 707 151 698 79 691L75 670L123 670C147 670 157 663 157 648C157 645 157 640 154 622C143 567 70 182 55 132C42 82 36 52 36 31C36 6 47 -9 66 -9C92 -9 128 12 226 85L216 103L190 86C161 67 139 56 129 56C122 56 116 66 116 76C116 82 117 89 120 104ZM605 111L581 94C528 56 480 36 444 36C397 36 368 73 368 133C368 158 371 185 376 214C393 218 502 248 527 259C612 296 651 342 651 404C651 451 617 482 567 482C499 496 389 423 352 349C322 299 292 180 292 113C292 35 336 -11 408 -11C465 -11 521 17 613 92ZM390 274C407 343 427 386 456 412C474 428 505 440 529 440C558 440 577 420 577 388C577 344 542 297 490 272C462 258 426 247 381 237ZM1010 437L994 437L1015 549C1031 635 1059 673 1105 673C1135 673 1162 658 1177 634L1187 638C1192 654 1202 685 1210 705L1215 720C1199 727 1168 733 1145 733C1134 733 1118 730 1110 726C1086 715 1004 654 981 630C959 608 947 578 936 521L921 442C880 422 860 414 835 405L830 383L911 383L902 327C872 132 835 -54 813 -123C795 -182 765 -213 729 -213C706 -213 695 -206 677 -184L663 -188C659 -211 645 -259 640 -268C649 -273 664 -276 675 -276C716 -276 770 -245 809 -198C880 -114 900 -18 984 383L1088 383C1092 402 1099 425 1105 439L1101 446C1072 439 1073 437 1010 437ZM1340 390L1284 107C1283 99 1271 61 1271 31C1271 6 1282 -9 1301 -9C1336 -9 1371 11 1449 74L1480 99L1470 117L1425 86C1396 66 1376 56 1365 56C1356 56 1351 64 1351 76C1351 102 1365 183 1394 328L1407 390L1514 390L1525 440C1487 436 1453 434 1415 434C1431 528 1442 577 1460 631L1449 646C1429 634 1402 622 1371 610L1346 440C1302 419 1276 408 1258 403L1256 390Z" stroke="rgb(0,0,0)" stroke-opacity="1" stroke-width="8" fill="rgb(0,0,0)" fill-opacity="1"></path></g></g></g></g><g><g><g><g transform="matrix(1,0,0,1,224,156.33334350585938)"><path transform="matrix(0.017,0,0,-0.017,0,0)" d="M368 365C371 403 376 435 384 476C373 481 369 482 364 482C333 482 302 458 266 407C227 351 188 291 172 256L204 408C208 425 210 438 210 450C210 470 202 482 187 482C166 482 128 461 54 408L26 388L33 368L65 389C93 407 104 412 113 412C123 412 130 403 130 390C130 332 87 126 47 -2L57 -9C72 -4 88 -1 111 4L124 6L150 126C168 209 191 262 235 319C269 363 296 384 318 384C333 384 343 379 354 365ZM422 388L429 368L461 389C498 412 501 414 508 414C518 414 526 404 526 391C526 384 522 361 518 347L452 107C444 76 439 49 439 30C439 6 450 -9 469 -9C495 -9 531 12 629 85L619 103L593 86C564 67 541 56 532 56C525 56 519 66 519 76C519 86 521 95 526 116L603 420C607 437 609 448 609 456C609 473 600 482 584 482C562 482 525 461 450 408ZM616 712C587 712 558 679 558 645C558 620 573 604 597 604C628 604 652 633 652 671C652 695 637 712 616 712ZM940 482C873 482 720 419 720 259C720 182 765 136 842 136C850 136 861 136 872 137L831 99C815 84 804 66 804 52C804 42 811 31 825 19C756 -4 628 -48 628 -159C628 -230 698 -276 807 -276C936 -276 1049 -204 1049 -121C1049 -85 1028 -49 985 -14L925 35C891 62 878 81 878 100C878 114 893 128 905 146C1003 170 1074 253 1074 342C1074 357 1071 376 1070 380C1087 378 1095 378 1104 378C1121 378 1131 379 1154 382L1163 427L1160 433C1132 426 1112 424 1058 424C1058 425 1034 482 940 482ZM841 1L918 -58C964 -94 983 -121 983 -154C983 -206 914 -248 831 -248C749 -248 692 -206 692 -145C692 -43 802 -11 841 1ZM915 448C973 448 1002 412 1002 341C1002 238 954 168 884 168C823 168 791 209 791 288C791 383 842 448 915 448ZM1400 722L1388 733C1343 711 1302 697 1228 691L1224 670L1272 670C1290 670 1306 667 1306 647C1306 641 1306 632 1304 622L1262 388C1242 272 1200 80 1174 2L1181 -9L1250 7C1258 64 1272 164 1312 236C1357 317 1460 414 1502 414C1513 414 1524 407 1524 393C1524 375 1519 342 1509 303L1458 107C1452 85 1445 55 1445 31C1445 6 1455 -9 1476 -9C1508 -9 1576 41 1635 85L1625 103L1599 86C1576 71 1550 56 1538 56C1531 56 1525 65 1525 76C1525 88 1528 101 1532 116L1596 372C1602 398 1607 423 1607 447C1607 464 1601 482 1575 482C1540 482 1463 437 1395 374C1362 343 1336 308 1308 273L1304 275ZM1788 390L1732 107C1731 99 1719 61 1719 31C1719 6 1730 -9 1749 -9C1784 -9 1819 11 1897 74L1928 99L1918 117L1873 86C1844 66 1824 56 1813 56C1804 56 1799 64 1799 76C1799 102 1813 183 1842 328L1855 390L1962 390L1973 440C1935 436 1901 434 1863 434C1879 528 1890 577 1908 631L1897 646C1877 634 1850 622 1819 610L1794 440C1750 419 1724 408 1706 403L1704 390Z" stroke="rgb(0,0,0)" stroke-opacity="1" stroke-width="8" fill="rgb(0,0,0)" fill-opacity="1"></path></g></g></g></g><g><g><g><g transform="matrix(1,0,0,1,126,38.19792175292969)"><path transform="matrix(0.017,0,0,-0.017,0,0)" d="M176 -11C232 -11 347 62 390 125C431 186 465 296 465 371C465 438 442 482 406 482C364 482 311 456 259 409C218 374 198 348 162 289L186 408C189 425 191 440 191 452C191 471 183 482 169 482C148 482 110 461 36 408L8 388L15 368L47 389C75 407 86 412 95 412C105 412 112 403 112 389C112 381 110 361 108 351L50 8C40 -52 21 -143 1 -233L-7 -270L0 -276C21 -269 41 -264 73 -259L115 3C136 -4 158 -11 176 -11ZM143 165C165 293 272 424 355 424C381 424 393 402 393 356C393 275 353 156 300 80C280 51 248 36 207 36C176 36 151 43 125 59Z" stroke="rgb(0,0,0)" stroke-opacity="1" stroke-width="8" fill="rgb(0,0,0)" fill-opacity="1"></path></g></g><g><g><g><g><g transform="matrix(1,0,0,1,135.4583740234375,31.333343505859375)"><path transform="matrix(0.012,0,0,-0.012,0,0)" d="M368 365C371 403 376 435 384 476C373 481 369 482 364 482C333 482 302 458 266 407C227 351 188 291 172 256L204 408C208 425 210 438 210 450C210 470 202 482 187 482C166 482 128 461 54 408L26 388L33 368L65 389C93 407 104 412 113 412C123 412 130 403 130 390C130 332 87 126 47 -2L57 -9C72 -4 88 -1 111 4L124 6L150 126C168 209 191 262 235 319C269 363 296 384 318 384C333 384 343 379 354 365ZM405 152C405 46 450 -11 533 -11C588 -11 648 15 693 57C755 116 799 230 799 331C799 425 749 482 666 482C562 482 405 382 405 152ZM629 444C690 444 723 399 723 315C723 219 692 113 648 60C630 39 604 27 573 27C515 27 481 72 481 151C481 264 520 387 569 427C582 438 605 444 629 444ZM848 152C848 46 893 -11 976 -11C1031 -11 1091 15 1136 57C1198 116 1242 230 1242 331C1242 425 1192 482 1109 482C1005 482 848 382 848 152ZM1072 444C1133 444 1166 399 1166 315C1166 219 1135 113 1091 60C1073 39 1047 27 1016 27C958 27 924 72 924 151C924 264 963 387 1012 427C1025 438 1048 444 1072 444ZM1399 390L1343 107C1342 99 1330 61 1330 31C1330 6 1341 -9 1360 -9C1395 -9 1430 11 1508 74L1539 99L1529 117L1484 86C1455 66 1435 56 1424 56C1415 56 1410 64 1410 76C1410 102 1424 183 1453 328L1466 390L1573 390L1584 440C1546 436 1512 434 1474 434C1490 528 1501 577 1519 631L1508 646C1488 634 1461 622 1430 610L1405 440C1361 419 1335 408 1317 403L1315 390Z" stroke="rgb(0,0,0)" stroke-opacity="1" stroke-width="8" fill="rgb(0,0,0)" fill-opacity="1"></path></g></g></g></g><g><g><g><g transform="matrix(1,0,0,1,134.9896240234375,43.625)"><path transform="matrix(0.012,0,0,-0.012,0,0)" d="M418 -3L418 27L366 30C311 33 301 44 301 96L301 700L60 598L67 548L217 614L217 96C217 44 206 33 152 30L96 27L96 -3C250 0 250 0 261 0C292 0 402 -3 418 -3Z" stroke="rgb(0,0,0)" stroke-opacity="1" stroke-width="8" fill="rgb(0,0,0)" fill-opacity="1"></path></g></g></g></g></g><g><g transform="matrix(1,0,0,1,160.84375,38.19792175292969)"><path transform="matrix(0.017,0,0,-0.017,0,0)" d="M604 347L604 406L65 406L65 347ZM604 134L604 193L65 193L65 134Z" stroke="rgb(0,0,0)" stroke-opacity="1" stroke-width="8" fill="rgb(0,0,0)" fill-opacity="1"></path></g></g><g><g transform="matrix(1,0,0,1,177.3021240234375,38.19792175292969)"><path transform="matrix(0.017,0,0,-0.017,0,0)" d="M263 689C108 689 29 566 29 324C29 207 50 106 85 57C120 8 176 -20 238 -20C389 -20 465 110 465 366C465 585 400 689 263 689ZM245 654C342 654 381 556 381 316C381 103 343 15 251 15C154 15 113 116 113 360C113 571 150 654 245 654ZM623 111C593 111 566 83 566 53C566 23 593 -5 622 -5C654 -5 682 22 682 53C682 83 654 111 623 111ZM1028 181L1028 106C1028 46 1017 32 968 30L906 27L906 -3C1039 0 1039 0 1063 0C1087 0 1087 0 1220 -3L1220 27L1172 30C1123 33 1112 46 1112 106L1112 181C1171 181 1192 180 1220 177L1220 248L1112 245L1113 697L1033 667L750 204L750 181ZM1028 245L813 245L1028 597Z" stroke="rgb(0,0,0)" stroke-opacity="1" stroke-width="8" fill="rgb(0,0,0)" fill-opacity="1"></path></g></g></g></g><g><g><g><g transform="matrix(1,0,0,1,36,285.19793701171875)"><path transform="matrix(0.017,0,0,-0.017,0,0)" d="M176 -11C232 -11 347 62 390 125C431 186 465 296 465 371C465 438 442 482 406 482C364 482 311 456 259 409C218 374 198 348 162 289L186 408C189 425 191 440 191 452C191 471 183 482 169 482C148 482 110 461 36 408L8 388L15 368L47 389C75 407 86 412 95 412C105 412 112 403 112 389C112 381 110 361 108 351L50 8C40 -52 21 -143 1 -233L-7 -270L0 -276C21 -269 41 -264 73 -259L115 3C136 -4 158 -11 176 -11ZM143 165C165 293 272 424 355 424C381 424 393 402 393 356C393 275 353 156 300 80C280 51 248 36 207 36C176 36 151 43 125 59Z" stroke="rgb(0,0,0)" stroke-opacity="1" stroke-width="8" fill="rgb(0,0,0)" fill-opacity="1"></path></g></g><g><g><g><g><g transform="matrix(1,0,0,1,45.458343505859375,276.3333435058594)"><path transform="matrix(0.012,0,0,-0.012,0,0)" d="M251 722L239 733C187 707 151 698 79 691L75 670L123 670C147 670 157 663 157 648C157 645 157 640 154 622C143 567 70 182 55 132C42 82 36 52 36 31C36 6 47 -9 66 -9C92 -9 128 12 226 85L216 103L190 86C161 67 139 56 129 56C122 56 116 66 116 76C116 82 117 89 120 104ZM605 111L581 94C528 56 480 36 444 36C397 36 368 73 368 133C368 158 371 185 376 214C393 218 502 248 527 259C612 296 651 342 651 404C651 451 617 482 567 482C499 496 389 423 352 349C322 299 292 180 292 113C292 35 336 -11 408 -11C465 -11 521 17 613 92ZM390 274C407 343 427 386 456 412C474 428 505 440 529 440C558 440 577 420 577 388C577 344 542 297 490 272C462 258 426 247 381 237ZM1010 437L994 437L1015 549C1031 635 1059 673 1105 673C1135 673 1162 658 1177 634L1187 638C1192 654 1202 685 1210 705L1215 720C1199 727 1168 733 1145 733C1134 733 1118 730 1110 726C1086 715 1004 654 981 630C959 608 947 578 936 521L921 442C880 422 860 414 835 405L830 383L911 383L902 327C872 132 835 -54 813 -123C795 -182 765 -213 729 -213C706 -213 695 -206 677 -184L663 -188C659 -211 645 -259 640 -268C649 -273 664 -276 675 -276C716 -276 770 -245 809 -198C880 -114 900 -18 984 383L1088 383C1092 402 1099 425 1105 439L1101 446C1072 439 1073 437 1010 437ZM1340 390L1284 107C1283 99 1271 61 1271 31C1271 6 1282 -9 1301 -9C1336 -9 1371 11 1449 74L1480 99L1470 117L1425 86C1396 66 1376 56 1365 56C1356 56 1351 64 1351 76C1351 102 1365 183 1394 328L1407 390L1514 390L1525 440C1487 436 1453 434 1415 434C1431 528 1442 577 1460 631L1449 646C1429 634 1402 622 1371 610L1346 440C1302 419 1276 408 1258 403L1256 390Z" stroke="rgb(0,0,0)" stroke-opacity="1" stroke-width="8" fill="rgb(0,0,0)" fill-opacity="1"></path></g></g></g></g><g><g><g><g transform="matrix(1,0,0,1,44.989593505859375,290.625)"><path transform="matrix(0.012,0,0,-0.012,0,0)" d="M418 -3L418 27L366 30C311 33 301 44 301 96L301 700L60 598L67 548L217 614L217 96C217 44 206 33 152 30L96 27L96 -3C250 0 250 0 261 0C292 0 402 -3 418 -3Z" stroke="rgb(0,0,0)" stroke-opacity="1" stroke-width="8" fill="rgb(0,0,0)" fill-opacity="1"></path></g></g></g></g></g><g><g transform="matrix(1,0,0,1,70.13543701171875,285.19793701171875)"><path transform="matrix(0.017,0,0,-0.017,0,0)" d="M604 347L604 406L65 406L65 347ZM604 134L604 193L65 193L65 134Z" stroke="rgb(0,0,0)" stroke-opacity="1" stroke-width="8" fill="rgb(0,0,0)" fill-opacity="1"></path></g></g><g><g transform="matrix(1,0,0,1,86.59375,285.19793701171875)"><path transform="matrix(0.017,0,0,-0.017,0,0)" d="M263 689C108 689 29 566 29 324C29 207 50 106 85 57C120 8 176 -20 238 -20C389 -20 465 110 465 366C465 585 400 689 263 689ZM245 654C342 654 381 556 381 316C381 103 343 15 251 15C154 15 113 116 113 360C113 571 150 654 245 654ZM623 111C593 111 566 83 566 53C566 23 593 -5 622 -5C654 -5 682 22 682 53C682 83 654 111 623 111ZM879 331C900 512 989 611 1169 665L1127 689C1031 657 990 637 939 593C836 506 780 384 780 247C780 82 860 -20 989 -20C1119 -20 1216 83 1216 219C1216 334 1147 409 1041 409C964 409 932 370 879 331ZM1003 349C1079 349 1130 283 1130 184C1130 80 1079 13 1002 13C917 13 871 86 871 220C871 255 875 274 886 291C908 325 955 349 1003 349Z" stroke="rgb(0,0,0)" stroke-opacity="1" stroke-width="8" fill="rgb(0,0,0)" fill-opacity="1"></path></g></g></g></g><g><g><g><g transform="matrix(1,0,0,1,200,279.19793701171875)"><path transform="matrix(0.017,0,0,-0.017,0,0)" d="M176 -11C232 -11 347 62 390 125C431 186 465 296 465 371C465 438 442 482 406 482C364 482 311 456 259 409C218 374 198 348 162 289L186 408C189 425 191 440 191 452C191 471 183 482 169 482C148 482 110 461 36 408L8 388L15 368L47 389C75 407 86 412 95 412C105 412 112 403 112 389C112 381 110 361 108 351L50 8C40 -52 21 -143 1 -233L-7 -270L0 -276C21 -269 41 -264 73 -259L115 3C136 -4 158 -11 176 -11ZM143 165C165 293 272 424 355 424C381 424 393 402 393 356C393 275 353 156 300 80C280 51 248 36 207 36C176 36 151 43 125 59Z" stroke="rgb(0,0,0)" stroke-opacity="1" stroke-width="8" fill="rgb(0,0,0)" fill-opacity="1"></path></g></g><g><g><g><g><g transform="matrix(1,0,0,1,209.4583740234375,270.3333435058594)"><path transform="matrix(0.012,0,0,-0.012,0,0)" d="M368 365C371 403 376 435 384 476C373 481 369 482 364 482C333 482 302 458 266 407C227 351 188 291 172 256L204 408C208 425 210 438 210 450C210 470 202 482 187 482C166 482 128 461 54 408L26 388L33 368L65 389C93 407 104 412 113 412C123 412 130 403 130 390C130 332 87 126 47 -2L57 -9C72 -4 88 -1 111 4L124 6L150 126C168 209 191 262 235 319C269 363 296 384 318 384C333 384 343 379 354 365ZM422 388L429 368L461 389C498 412 501 414 508 414C518 414 526 404 526 391C526 384 522 361 518 347L452 107C444 76 439 49 439 30C439 6 450 -9 469 -9C495 -9 531 12 629 85L619 103L593 86C564 67 541 56 532 56C525 56 519 66 519 76C519 86 521 95 526 116L603 420C607 437 609 448 609 456C609 473 600 482 584 482C562 482 525 461 450 408ZM616 712C587 712 558 679 558 645C558 620 573 604 597 604C628 604 652 633 652 671C652 695 637 712 616 712ZM940 482C873 482 720 419 720 259C720 182 765 136 842 136C850 136 861 136 872 137L831 99C815 84 804 66 804 52C804 42 811 31 825 19C756 -4 628 -48 628 -159C628 -230 698 -276 807 -276C936 -276 1049 -204 1049 -121C1049 -85 1028 -49 985 -14L925 35C891 62 878 81 878 100C878 114 893 128 905 146C1003 170 1074 253 1074 342C1074 357 1071 376 1070 380C1087 378 1095 378 1104 378C1121 378 1131 379 1154 382L1163 427L1160 433C1132 426 1112 424 1058 424C1058 425 1034 482 940 482ZM841 1L918 -58C964 -94 983 -121 983 -154C983 -206 914 -248 831 -248C749 -248 692 -206 692 -145C692 -43 802 -11 841 1ZM915 448C973 448 1002 412 1002 341C1002 238 954 168 884 168C823 168 791 209 791 288C791 383 842 448 915 448ZM1400 722L1388 733C1343 711 1302 697 1228 691L1224 670L1272 670C1290 670 1306 667 1306 647C1306 641 1306 632 1304 622L1262 388C1242 272 1200 80 1174 2L1181 -9L1250 7C1258 64 1272 164 1312 236C1357 317 1460 414 1502 414C1513 414 1524 407 1524 393C1524 375 1519 342 1509 303L1458 107C1452 85 1445 55 1445 31C1445 6 1455 -9 1476 -9C1508 -9 1576 41 1635 85L1625 103L1599 86C1576 71 1550 56 1538 56C1531 56 1525 65 1525 76C1525 88 1528 101 1532 116L1596 372C1602 398 1607 423 1607 447C1607 464 1601 482 1575 482C1540 482 1463 437 1395 374C1362 343 1336 308 1308 273L1304 275ZM1788 390L1732 107C1731 99 1719 61 1719 31C1719 6 1730 -9 1749 -9C1784 -9 1819 11 1897 74L1928 99L1918 117L1873 86C1844 66 1824 56 1813 56C1804 56 1799 64 1799 76C1799 102 1813 183 1842 328L1855 390L1962 390L1973 440C1935 436 1901 434 1863 434C1879 528 1890 577 1908 631L1897 646C1877 634 1850 622 1819 610L1794 440C1750 419 1724 408 1706 403L1704 390Z" stroke="rgb(0,0,0)" stroke-opacity="1" stroke-width="8" fill="rgb(0,0,0)" fill-opacity="1"></path></g></g></g></g><g><g><g><g transform="matrix(1,0,0,1,208.9896240234375,284.625)"><path transform="matrix(0.012,0,0,-0.012,0,0)" d="M418 -3L418 27L366 30C311 33 301 44 301 96L301 700L60 598L67 548L217 614L217 96C217 44 206 33 152 30L96 27L96 -3C250 0 250 0 261 0C292 0 402 -3 418 -3Z" stroke="rgb(0,0,0)" stroke-opacity="1" stroke-width="8" fill="rgb(0,0,0)" fill-opacity="1"></path></g></g></g></g></g><g><g transform="matrix(1,0,0,1,239.51043701171875,279.19793701171875)"><path transform="matrix(0.017,0,0,-0.017,0,0)" d="M604 347L604 406L65 406L65 347ZM604 134L604 193L65 193L65 134Z" stroke="rgb(0,0,0)" stroke-opacity="1" stroke-width="8" fill="rgb(0,0,0)" fill-opacity="1"></path></g></g><g><g transform="matrix(1,0,0,1,255.96875,279.19793701171875)"><path transform="matrix(0.017,0,0,-0.017,0,0)" d="M263 689C108 689 29 566 29 324C29 207 50 106 85 57C120 8 176 -20 238 -20C389 -20 465 110 465 366C465 585 400 689 263 689ZM245 654C342 654 381 556 381 316C381 103 343 15 251 15C154 15 113 116 113 360C113 571 150 654 245 654ZM623 111C593 111 566 83 566 53C566 23 593 -5 622 -5C654 -5 682 22 682 53C682 83 654 111 623 111ZM764 23L764 -3C951 -3 951 0 987 0C1023 0 1023 -3 1216 -3L1216 82C1101 77 1055 81 870 77L1052 270C1149 373 1179 428 1179 503C1179 618 1101 689 974 689C902 689 853 669 804 619L787 483L816 483L829 529C845 587 881 612 948 612C1034 612 1089 558 1089 473C1089 398 1047 324 934 204Z" stroke="rgb(0,0,0)" stroke-opacity="1" stroke-width="8" fill="rgb(0,0,0)" fill-opacity="1"></path></g></g></g></g><g><g><g><g transform="matrix(1,0,0,1,34,317.19793701171875)"><path transform="matrix(0.017,0,0,-0.017,0,0)" d="M167 420C188 420 201 421 226 424C171 350 72 266 72 126C72 44 107 -11 160 -11C224 -11 276 44 350 187C341 143 338 118 338 95C338 32 367 -11 412 -11C546 -11 699 238 699 384C699 441 673 482 637 482C624 482 612 478 604 470L554 423L565 404C574 410 583 413 592 413C619 413 635 390 635 350C635 205 538 39 453 39C424 39 403 79 403 134C403 181 412 247 424 290L476 474L469 482L395 460L366 311C354 249 340 209 311 155C271 80 233 39 203 39C168 39 145 78 145 136C145 255 186 352 285 464L275 482C255 473 242 470 214 470C186 470 144 472 115 475L103 476C97 477 92 477 91 477C79 477 70 475 59 470C45 443 34 407 21 352L43 352L60 394C67 411 87 422 111 422C145 422 128 420 167 420Z" stroke="rgb(0,0,0)" stroke-opacity="1" stroke-width="8" fill="rgb(0,0,0)" fill-opacity="1"></path></g></g><g><g><g><g><g transform="matrix(1,0,0,1,47.22918701171875,308.3333435058594)"><path transform="matrix(0.012,0,0,-0.012,0,0)" d="M251 722L239 733C187 707 151 698 79 691L75 670L123 670C147 670 157 663 157 648C157 645 157 640 154 622C143 567 70 182 55 132C42 82 36 52 36 31C36 6 47 -9 66 -9C92 -9 128 12 226 85L216 103L190 86C161 67 139 56 129 56C122 56 116 66 116 76C116 82 117 89 120 104ZM605 111L581 94C528 56 480 36 444 36C397 36 368 73 368 133C368 158 371 185 376 214C393 218 502 248 527 259C612 296 651 342 651 404C651 451 617 482 567 482C499 496 389 423 352 349C322 299 292 180 292 113C292 35 336 -11 408 -11C465 -11 521 17 613 92ZM390 274C407 343 427 386 456 412C474 428 505 440 529 440C558 440 577 420 577 388C577 344 542 297 490 272C462 258 426 247 381 237ZM1010 437L994 437L1015 549C1031 635 1059 673 1105 673C1135 673 1162 658 1177 634L1187 638C1192 654 1202 685 1210 705L1215 720C1199 727 1168 733 1145 733C1134 733 1118 730 1110 726C1086 715 1004 654 981 630C959 608 947 578 936 521L921 442C880 422 860 414 835 405L830 383L911 383L902 327C872 132 835 -54 813 -123C795 -182 765 -213 729 -213C706 -213 695 -206 677 -184L663 -188C659 -211 645 -259 640 -268C649 -273 664 -276 675 -276C716 -276 770 -245 809 -198C880 -114 900 -18 984 383L1088 383C1092 402 1099 425 1105 439L1101 446C1072 439 1073 437 1010 437ZM1340 390L1284 107C1283 99 1271 61 1271 31C1271 6 1282 -9 1301 -9C1336 -9 1371 11 1449 74L1480 99L1470 117L1425 86C1396 66 1376 56 1365 56C1356 56 1351 64 1351 76C1351 102 1365 183 1394 328L1407 390L1514 390L1525 440C1487 436 1453 434 1415 434C1431 528 1442 577 1460 631L1449 646C1429 634 1402 622 1371 610L1346 440C1302 419 1276 408 1258 403L1256 390Z" stroke="rgb(0,0,0)" stroke-opacity="1" stroke-width="8" fill="rgb(0,0,0)" fill-opacity="1"></path></g></g></g></g><g><g></g></g></g><g><g transform="matrix(1,0,0,1,71.90625,317.19793701171875)"><path transform="matrix(0.017,0,0,-0.017,0,0)" d="M604 347L604 406L65 406L65 347ZM604 134L604 193L65 193L65 134Z" stroke="rgb(0,0,0)" stroke-opacity="1" stroke-width="8" fill="rgb(0,0,0)" fill-opacity="1"></path></g></g><g><g transform="matrix(1,0,0,1,88.36459350585938,317.19793701171875)"><path transform="matrix(0.017,0,0,-0.017,0,0)" d="M263 689C108 689 29 566 29 324C29 207 50 106 85 57C120 8 176 -20 238 -20C389 -20 465 110 465 366C465 585 400 689 263 689ZM245 654C342 654 381 556 381 316C381 103 343 15 251 15C154 15 113 116 113 360C113 571 150 654 245 654ZM623 111C593 111 566 83 566 53C566 23 593 -5 622 -5C654 -5 682 22 682 53C682 83 654 111 623 111ZM1207 253C1207 366 1126 446 1012 446C964 446 928 443 875 396L875 605L1180 604L1180 689L823 690L823 322L843 316C890 363 917 377 966 377C1062 377 1122 309 1122 201C1122 90 1058 25 949 25C895 25 845 43 831 69L785 151L761 137C784 80 796 48 810 4C838 -11 878 -20 921 -20C1049 -20 1207 89 1207 253Z" stroke="rgb(0,0,0)" stroke-opacity="1" stroke-width="8" fill="rgb(0,0,0)" fill-opacity="1"></path></g></g></g></g><g><g><g><g transform="matrix(1,0,0,1,201,314.19793701171875)"><path transform="matrix(0.017,0,0,-0.017,0,0)" d="M167 420C188 420 201 421 226 424C171 350 72 266 72 126C72 44 107 -11 160 -11C224 -11 276 44 350 187C341 143 338 118 338 95C338 32 367 -11 412 -11C546 -11 699 238 699 384C699 441 673 482 637 482C624 482 612 478 604 470L554 423L565 404C574 410 583 413 592 413C619 413 635 390 635 350C635 205 538 39 453 39C424 39 403 79 403 134C403 181 412 247 424 290L476 474L469 482L395 460L366 311C354 249 340 209 311 155C271 80 233 39 203 39C168 39 145 78 145 136C145 255 186 352 285 464L275 482C255 473 242 470 214 470C186 470 144 472 115 475L103 476C97 477 92 477 91 477C79 477 70 475 59 470C45 443 34 407 21 352L43 352L60 394C67 411 87 422 111 422C145 422 128 420 167 420Z" stroke="rgb(0,0,0)" stroke-opacity="1" stroke-width="8" fill="rgb(0,0,0)" fill-opacity="1"></path></g></g><g><g><g><g><g transform="matrix(1,0,0,1,214.22918701171875,305.3333435058594)"><path transform="matrix(0.012,0,0,-0.012,0,0)" d="M368 365C371 403 376 435 384 476C373 481 369 482 364 482C333 482 302 458 266 407C227 351 188 291 172 256L204 408C208 425 210 438 210 450C210 470 202 482 187 482C166 482 128 461 54 408L26 388L33 368L65 389C93 407 104 412 113 412C123 412 130 403 130 390C130 332 87 126 47 -2L57 -9C72 -4 88 -1 111 4L124 6L150 126C168 209 191 262 235 319C269 363 296 384 318 384C333 384 343 379 354 365ZM422 388L429 368L461 389C498 412 501 414 508 414C518 414 526 404 526 391C526 384 522 361 518 347L452 107C444 76 439 49 439 30C439 6 450 -9 469 -9C495 -9 531 12 629 85L619 103L593 86C564 67 541 56 532 56C525 56 519 66 519 76C519 86 521 95 526 116L603 420C607 437 609 448 609 456C609 473 600 482 584 482C562 482 525 461 450 408ZM616 712C587 712 558 679 558 645C558 620 573 604 597 604C628 604 652 633 652 671C652 695 637 712 616 712ZM940 482C873 482 720 419 720 259C720 182 765 136 842 136C850 136 861 136 872 137L831 99C815 84 804 66 804 52C804 42 811 31 825 19C756 -4 628 -48 628 -159C628 -230 698 -276 807 -276C936 -276 1049 -204 1049 -121C1049 -85 1028 -49 985 -14L925 35C891 62 878 81 878 100C878 114 893 128 905 146C1003 170 1074 253 1074 342C1074 357 1071 376 1070 380C1087 378 1095 378 1104 378C1121 378 1131 379 1154 382L1163 427L1160 433C1132 426 1112 424 1058 424C1058 425 1034 482 940 482ZM841 1L918 -58C964 -94 983 -121 983 -154C983 -206 914 -248 831 -248C749 -248 692 -206 692 -145C692 -43 802 -11 841 1ZM915 448C973 448 1002 412 1002 341C1002 238 954 168 884 168C823 168 791 209 791 288C791 383 842 448 915 448ZM1400 722L1388 733C1343 711 1302 697 1228 691L1224 670L1272 670C1290 670 1306 667 1306 647C1306 641 1306 632 1304 622L1262 388C1242 272 1200 80 1174 2L1181 -9L1250 7C1258 64 1272 164 1312 236C1357 317 1460 414 1502 414C1513 414 1524 407 1524 393C1524 375 1519 342 1509 303L1458 107C1452 85 1445 55 1445 31C1445 6 1455 -9 1476 -9C1508 -9 1576 41 1635 85L1625 103L1599 86C1576 71 1550 56 1538 56C1531 56 1525 65 1525 76C1525 88 1528 101 1532 116L1596 372C1602 398 1607 423 1607 447C1607 464 1601 482 1575 482C1540 482 1463 437 1395 374C1362 343 1336 308 1308 273L1304 275ZM1788 390L1732 107C1731 99 1719 61 1719 31C1719 6 1730 -9 1749 -9C1784 -9 1819 11 1897 74L1928 99L1918 117L1873 86C1844 66 1824 56 1813 56C1804 56 1799 64 1799 76C1799 102 1813 183 1842 328L1855 390L1962 390L1973 440C1935 436 1901 434 1863 434C1879 528 1890 577 1908 631L1897 646C1877 634 1850 622 1819 610L1794 440C1750 419 1724 408 1706 403L1704 390Z" stroke="rgb(0,0,0)" stroke-opacity="1" stroke-width="8" fill="rgb(0,0,0)" fill-opacity="1"></path></g></g></g></g><g><g></g></g></g><g><g transform="matrix(1,0,0,1,244.28125,314.19793701171875)"><path transform="matrix(0.017,0,0,-0.017,0,0)" d="M604 347L604 406L65 406L65 347ZM604 134L604 193L65 193L65 134Z" stroke="rgb(0,0,0)" stroke-opacity="1" stroke-width="8" fill="rgb(0,0,0)" fill-opacity="1"></path></g></g><g><g transform="matrix(1,0,0,1,260.7396240234375,314.19793701171875)"><path transform="matrix(0.017,0,0,-0.017,0,0)" d="M263 689C108 689 29 566 29 324C29 207 50 106 85 57C120 8 176 -20 238 -20C389 -20 465 110 465 366C465 585 400 689 263 689ZM245 654C342 654 381 556 381 316C381 103 343 15 251 15C154 15 113 116 113 360C113 571 150 654 245 654ZM623 111C593 111 566 83 566 53C566 23 593 -5 622 -5C654 -5 682 22 682 53C682 83 654 111 623 111ZM1207 253C1207 366 1126 446 1012 446C964 446 928 443 875 396L875 605L1180 604L1180 689L823 690L823 322L843 316C890 363 917 377 966 377C1062 377 1122 309 1122 201C1122 90 1058 25 949 25C895 25 845 43 831 69L785 151L761 137C784 80 796 48 810 4C838 -11 878 -20 921 -20C1049 -20 1207 89 1207 253Z" stroke="rgb(0,0,0)" stroke-opacity="1" stroke-width="8" fill="rgb(0,0,0)" fill-opacity="1"></path></g></g></g></g></svg>
</svg>
