<?xml version="1.0" encoding="UTF-8" standalone="no"?>
<svg
   x="0"
   y="0"
   width="300"
   height="244"
   style="fill:none"
   version="1.1"
   id="svg172"
   sodipodi:docname="diagram-20230708.svg"
   inkscape:version="1.2.2 (b0a8486, 2022-12-01)"
   xmlns:inkscape="http://www.inkscape.org/namespaces/inkscape"
   xmlns:sodipodi="http://sodipodi.sourceforge.net/DTD/sodipodi-0.dtd"
   xmlns="http://www.w3.org/2000/svg"
   xmlns:svg="http://www.w3.org/2000/svg">
  <defs
     id="defs176" />
  <sodipodi:namedview
     id="namedview174"
     pagecolor="#ffffff"
     bordercolor="#000000"
     borderopacity="0.25"
     inkscape:showpageshadow="2"
     inkscape:pageopacity="0.0"
     inkscape:pagecheckerboard="0"
     inkscape:deskcolor="#d1d1d1"
     showgrid="false"
     inkscape:zoom="1.7160121"
     inkscape:cx="331"
     inkscape:cy="121.79401"
     inkscape:window-width="1280"
     inkscape:window-height="680"
     inkscape:window-x="0"
     inkscape:window-y="25"
     inkscape:window-maximized="0"
     inkscape:current-layer="svg172" />
  <svg
     class="role-diagram-draw-area"
     version="1.1"
     id="svg68"
     width="100%"
     height="100%">
    <g
       class="shapes-region"
       style="fill:none;stroke:#000000"
       id="g60">
      <g
         class="arrow-line"
         id="g8">
        <path
           class="connection real"
           stroke-dasharray="none"
           d="M 16,183 H 266"
           style="fill:none;fill-opacity:1;stroke:#000000;stroke-width:2"
           id="path2" />
        <g
           stroke="none"
           fill="#000"
           transform="rotate(180,135,91.5)"
           style="fill:#000000;stroke:none;stroke-width:2"
           id="g6">
          <path
             d="M 11.61,-5.58 0,0 11.61,5.58 Z"
             id="path4" />
        </g>
      </g>
      <g
         class="arrow-line"
         id="g16">
        <path
           class="connection real"
           stroke-dasharray="none"
           d="m 117,222.05 v -194"
           style="fill:none;fill-opacity:1;stroke:#000000;stroke-width:2"
           id="path10" />
        <g
           stroke="none"
           fill="#000"
           transform="rotate(90,46.476562,70.523438)"
           style="fill:#000000;stroke:none;stroke-width:2"
           id="g14">
          <path
             d="M 11.61,-5.58 0,0 11.61,5.58 Z"
             id="path12" />
        </g>
      </g>
      <g
         class="arrow-line"
         id="g24">
        <path
           class="connection real"
           stroke-dasharray="none"
           d="M 143.93,85.9 117,183"
           style="fill:#f5a623;fill-opacity:1;stroke:#f5a623;stroke-width:2;stroke-opacity:1"
           id="path18" />
        <g
           stroke="none"
           fill="rgb(245,166,35)"
           fill-opacity="1"
           transform="rotate(105.5,41.305053,96.153719)"
           style="fill:#f5a623;stroke:none;stroke-width:2"
           id="g22">
          <path
             d="M 11.61,-5.58 0,0 11.61,5.58 Z"
             id="path20" />
        </g>
      </g>
      <g
         class="arrow-line"
         id="g32">
        <path
           class="connection real"
           stroke-dasharray="none"
           d="M 206.44,136.88 117,183"
           style="fill:none;fill-opacity:1;stroke:#7ed321;stroke-width:2;stroke-opacity:1"
           id="path26" />
        <g
           stroke="none"
           fill="rgb(126,211,33)"
           fill-opacity="1"
           transform="rotate(152.72,88.614454,93.003218)"
           style="fill:#7ed321;stroke:none;stroke-width:2"
           id="g30">
          <path
             d="M 11.61,-5.58 0,0 11.61,5.58 Z"
             id="path28" />
        </g>
      </g>
      <g
         class="arrow-line"
         id="g40">
        <path
           class="connection real"
           stroke-dasharray="none"
           d="m 157.69,161.97 c -4.5,-1.85 1.77,-11.11 -24.78,-21.88"
           style="fill:none;fill-opacity:1;stroke:#4a90e2;stroke-width:2;stroke-opacity:1"
           id="path34" />
        <g
           stroke="none"
           fill="rgb(74,144,226)"
           fill-opacity="1"
           transform="rotate(20.35,-321.79293,429.90513)"
           style="fill:#4a90e2;stroke:none;stroke-width:2"
           id="g38">
          <path
             d="M 11.07,-5.32 0,0 11.07,5.32 7.35,0 Z"
             id="path36" />
        </g>
      </g>
      <g
         class="arrow-line"
         id="g48">
        <path
           class="connection real"
           stroke-dasharray="none"
           d="M 51.57,105.14 117,183"
           style="fill:#f5a623;fill-opacity:1;stroke:#d0021b;stroke-width:2;stroke-opacity:1"
           id="path42" />
        <g
           stroke="none"
           fill="rgb(208,2,27)"
           fill-opacity="1"
           transform="rotate(49.96,-85.053448,103.6274)"
           style="fill:#d0021b;stroke:none;stroke-width:2"
           id="g46">
          <path
             d="M 11.61,-5.58 0,0 11.61,5.58 Z"
             id="path44" />
        </g>
      </g>
      <g
         class="arrow-line"
         id="g56">
        <path
           class="connection real"
           stroke-dasharray="none"
           d="m 124.69,152.97 c -4.38,-1.8 -16.04,-9.76 -29.79,1.48"
           style="fill:none;fill-opacity:1;stroke:#4a90e2;stroke-width:2;stroke-opacity:1"
           id="path50" />
        <g
           stroke="none"
           fill="rgb(74,144,226)"
           fill-opacity="1"
           transform="rotate(-45,235.61007,-32.514761)"
           style="fill:#4a90e2;stroke:none;stroke-width:2"
           id="g54">
          <path
             d="M 11.07,-5.32 0,0 11.07,5.32 7.35,0 Z"
             id="path52" />
        </g>
      </g>
      <g
         id="g58" />
    </g>
    <g
       id="g62" />
    <g
       id="g64" />
    <g
       id="g66" />
  </svg>
  <svg
     width="660"
     height="242"
     style="font-family:Asana-Math, Asana"
     version="1.1"
     id="svg170">
    <g
       id="g78">
      <g
         id="g76">
        <g
           id="g74">
          <g
             transform="translate(256,205.4)"
             id="g72">
            <path
               transform="scale(0.0204,-0.0204)"
               d="m 9,1 c 15,-8 31,-12 43,-12 33,0 72,29 103,76 l 76,117 11,-69 c 13,-85 36,-124 72,-124 22,0 54,17 86,46 l 49,44 -9,19 C 404,68 379,53 363,53 c -15,0 -28,10 -38,30 -9,19 -20,56 -25,85 l -18,101 35,49 c 47,65 74,88 105,88 16,0 28,-8 33,-23 l 14,4 15,85 c -12,7 -21,10 -30,10 -40,0 -80,-36 -142,-128 l -37,-55 -6,48 c -12,99 -39,135 -98,135 -26,0 -48,-8 -57,-21 L 56,378 73,368 c 30,34 50,48 69,48 33,0 55,-41 72,-139 l 11,-62 -40,-62 C 142,86 108,54 80,54 65,54 54,58 52,63 L 41,91 21,88 C 21,53 13,27 9,1 Z"
               stroke="#000000"
               stroke-opacity="1"
               stroke-width="0"
               fill="#000000"
               fill-opacity="1"
               id="path70" />
          </g>
        </g>
      </g>
    </g>
    <g
       id="g88">
      <g
         id="g86">
        <g
           id="g84">
          <g
             transform="translate(94,40.4)"
             id="g82">
            <path
               transform="scale(0.0204,-0.0204)"
               d="m -7,-180 c -1,-7 -1,-13 -1,-18 0,-43 37,-78 82,-78 106,0 216,124 275,309 l 141,440 -11,9 C 450,471 427,465 405,463 L 370,331 C 358,284 323,211 290,162 255,111 206,67 184,67 c -12,0 -21,23 -20,48 l 16,207 c 2,31 4,69 4,97 0,45 -7,63 -24,63 -13,0 -27,-7 -75,-40 L 3,386 14,368 64,398 c 5,3 16,12 25,12 14,0 22,-19 22,-52 0,-1 0,-7 -1,-15 L 93,100 92,60 c 0,-42 18,-71 43,-71 37,0 121,85 196,198 L 282,16 c -51,-177 -101,-250 -171,-250 -35,0 -62,27 -62,62 0,5 1,13 2,22 l -10,4 z"
               stroke="#000000"
               stroke-opacity="1"
               stroke-width="0"
               fill="#000000"
               fill-opacity="1"
               id="path80" />
          </g>
        </g>
      </g>
    </g>
    <g
       id="g98">
      <g
         id="g96">
        <g
           id="g94">
          <g
             transform="translate(96,205.4)"
             id="g92">
            <path
               transform="scale(0.0204,-0.0204)"
               d="M 748,425 C 748,603 644,706 464,706 227,706 53,523 53,272 53,83 147,-18 323,-18 595,-18 748,207 748,425 Z M 660,409 C 660,221 571,24 360,24 216,24 141,110 141,277 c 0,148 58,387 292,387 116,0 227,-54 227,-255 z"
               stroke="#000000"
               stroke-opacity="1"
               stroke-width="0"
               fill="#000000"
               fill-opacity="1"
               id="path90" />
          </g>
        </g>
      </g>
    </g>
    <g
       id="g120">
      <g
         id="g118">
        <g
           id="g104">
          <g
             transform="translate(153,140.4)"
             id="g102">
            <path
               transform="scale(0.0204,-0.0204)"
               d="m 237,-16 c 236,0 335,332 339,520 2,114 -30,198 -157,198 C 159,702 72,412 69,199 67,80 101,-16 237,-16 Z m 164,692 c 135,0 105,-185 84,-295 H 169 c 25,104 103,295 232,295 z M 253,13 C 102,13 147,261 163,349 H 479 C 454,237 396,13 253,13 Z"
               stroke="#000000"
               stroke-opacity="1"
               stroke-width="0"
               fill="#000000"
               fill-opacity="1"
               id="path100" />
          </g>
        </g>
        <g
           id="g116">
          <g
             id="g114">
            <g
               id="g112">
              <g
                 id="g110">
                <g
                   transform="translate(165.85937,143.99875)"
                   id="g108">
                  <path
                     transform="scale(0.01428,-0.01428)"
                     d="m 418,-3 v 30 l -52,3 c -55,3 -65,14 -65,66 V 700 L 60,598 67,548 217,614 V 96 C 217,44 206,33 152,30 L 96,27 V -3 c 154,3 154,3 165,3 31,0 141,-3 157,-3 z"
                     stroke="#000000"
                     stroke-opacity="1"
                     stroke-width="0"
                     fill="#000000"
                     fill-opacity="1"
                     id="path106" />
                </g>
              </g>
            </g>
          </g>
        </g>
      </g>
    </g>
    <g
       id="g142">
      <g
         id="g140">
        <g
           id="g126">
          <g
             transform="translate(90,133.4)"
             id="g124">
            <path
               transform="scale(0.0204,-0.0204)"
               d="m 237,-16 c 236,0 335,332 339,520 2,114 -30,198 -157,198 C 159,702 72,412 69,199 67,80 101,-16 237,-16 Z m 164,692 c 135,0 105,-185 84,-295 H 169 c 25,104 103,295 232,295 z M 253,13 C 102,13 147,261 163,349 H 479 C 454,237 396,13 253,13 Z"
               stroke="#000000"
               stroke-opacity="1"
               stroke-width="0"
               fill="#000000"
               fill-opacity="1"
               id="path122" />
          </g>
        </g>
        <g
           id="g138">
          <g
             id="g136">
            <g
               id="g134">
              <g
                 id="g132">
                <g
                   transform="translate(102.85938,136.99875)"
                   id="g130">
                  <path
                     transform="scale(0.01428,-0.01428)"
                     d="M 16,23 V -3 c 187,0 187,3 223,3 36,0 36,-3 229,-3 V 82 C 353,77 307,81 122,77 l 182,193 c 97,103 127,158 127,233 0,115 -78,186 -205,186 -72,0 -121,-20 -170,-70 L 39,483 h 29 l 13,46 c 16,58 52,83 119,83 86,0 141,-54 141,-139 0,-75 -42,-149 -155,-269 z"
                     stroke="#000000"
                     stroke-opacity="1"
                     stroke-width="0"
                     fill="#000000"
                     fill-opacity="1"
                     id="path128" />
                </g>
              </g>
            </g>
          </g>
        </g>
      </g>
    </g>
    <g
       id="g152">
      <g
         id="g150">
        <g
           id="g148">
          <g
             transform="translate(219,145.48)"
             id="g146">
            <path
               transform="scale(0.02448,-0.02448)"
               d="m 539,431 v 28 c -60,-2 -78,-3 -94,-3 -16,0 -34,1 -94,3 v -28 l 41,-2 c 16,-1 24,-10 24,-26 0,-16 -7,-43 -19,-73 C 385,301 331,167 293,84 L 174,372 c -6,14 -9,27 -9,38 0,11 9,18 25,19 l 49,2 v 28 c -98,-3 -98,-3 -117,-3 -19,0 -67,1 -116,3 v -28 l 34,-2 c 15,-2 20,-8 31,-33 L 243,-7 h 50 l 159,369 c 22,47 36,65 56,67 z"
               stroke="#000000"
               stroke-opacity="1"
               stroke-width="24"
               fill="#000000"
               fill-opacity="1"
               id="path144" />
          </g>
        </g>
      </g>
    </g>
    <g
       id="g168">
      <g
         id="g166">
        <g
           id="g158">
          <g
             transform="translate(26,111.48)"
             id="g156">
            <path
               transform="scale(0.02448,-0.02448)"
               d="m 539,431 v 28 c -60,-2 -78,-3 -94,-3 -16,0 -34,1 -94,3 v -28 l 41,-2 c 16,-1 24,-10 24,-26 0,-16 -7,-43 -19,-73 C 385,301 331,167 293,84 L 174,372 c -6,14 -9,27 -9,38 0,11 9,18 25,19 l 49,2 v 28 c -98,-3 -98,-3 -117,-3 -19,0 -67,1 -116,3 v -28 l 34,-2 c 15,-2 20,-8 31,-33 L 243,-7 h 50 l 159,369 c 22,47 36,65 56,67 z"
               stroke="#000000"
               stroke-opacity="1"
               stroke-width="24"
               fill="#000000"
               fill-opacity="1"
               id="path154" />
          </g>
        </g>
        <g
           id="g164">
          <g
             transform="translate(40.536011,111.48)"
             id="g162">
            <path
               transform="scale(0.02448,-0.02448)"
               d="m 104,470 c 57,73 95,140 129,226 l -13,13 C 184,697 174,694 123,679 117,599 93,533 45,456 l 15,-10 z"
               stroke="#000000"
               stroke-opacity="1"
               stroke-width="0"
               fill="#000000"
               fill-opacity="1"
               id="path160" />
          </g>
        </g>
      </g>
    </g>
  </svg>
</svg>
