<?xml version="1.0" encoding="UTF-8" standalone="no"?>
<svg
   x="0"
   y="0"
   width="300"
   height="210"
   style="fill:none"
   version="1.1"
   id="svg170"
   sodipodi:docname="diagram-20230707.svg"
   inkscape:version="1.2.2 (b0a8486, 2022-12-01)"
   xmlns:inkscape="http://www.inkscape.org/namespaces/inkscape"
   xmlns:sodipodi="http://sodipodi.sourceforge.net/DTD/sodipodi-0.dtd"
   xmlns="http://www.w3.org/2000/svg"
   xmlns:svg="http://www.w3.org/2000/svg">
  <defs
     id="defs174" />
  <sodipodi:namedview
     id="namedview172"
     pagecolor="#ffffff"
     bordercolor="#000000"
     borderopacity="0.25"
     inkscape:showpageshadow="2"
     inkscape:pageopacity="0.0"
     inkscape:pagecheckerboard="0"
     inkscape:deskcolor="#d1d1d1"
     showgrid="false"
     inkscape:zoom="1.7160121"
     inkscape:cx="331"
     inkscape:cy="106.93398"
     inkscape:window-width="1280"
     inkscape:window-height="677"
     inkscape:window-x="0"
     inkscape:window-y="25"
     inkscape:window-maximized="0"
     inkscape:current-layer="svg170" />
  <svg
     class="role-diagram-draw-area"
     version="1.1"
     id="svg28"
     width="100%"
     height="100%">
    <g
       class="shapes-region"
       style="fill:none;stroke:#000000"
       id="g20">
      <g
         class="arrow-line"
         id="g8">
        <path
           class="connection real"
           stroke-dasharray="none"
           d="m 78,156.05 47.79,-35.61"
           style="fill:none;fill-opacity:1;stroke:#f5a623;stroke-width:2;stroke-opacity:1"
           id="path2" />
        <g
           stroke="none"
           fill="rgb(245,166,35)"
           fill-opacity="1"
           transform="rotate(143.31,44.928424,80.410987)"
           style="fill:#f5a623;stroke:none;stroke-width:2"
           id="g6">
          <path
             d="M 11.61,-5.58 0,0 11.61,5.58 Z"
             id="path4" />
        </g>
      </g>
      <g
         class="arrow-line"
         id="g16">
        <path
           class="connection real"
           stroke-dasharray="none"
           d="M 221,158.05 169.37,125.19"
           style="fill:none;fill-opacity:1;stroke:#f5a623;stroke-width:2;stroke-opacity:1"
           id="path10" />
        <g
           stroke="none"
           fill="rgb(245,166,35)"
           fill-opacity="1"
           transform="rotate(32.47,-128.28323,346.56129)"
           style="fill:#f5a623;stroke:none;stroke-width:2"
           id="g14">
          <path
             d="M 11.61,-5.58 0,0 11.61,5.58 Z"
             id="path12" />
        </g>
      </g>
      <g
         id="g18" />
    </g>
    <g
       id="g22" />
    <g
       id="g24" />
    <g
       id="g26" />
  </svg>
  <svg
     width="660"
     height="211"
     style="font-family:Asana-Math, Asana"
     version="1.1"
     id="svg168">
    <g
       id="g118">
      <g
         id="g116">
        <g
           id="g114">
          <g
             id="g38">
            <g
               id="g36">
              <g
                 id="g34">
                <g
                   transform="translate(121.38812,61.189999)"
                   id="g32">
                  <path
                     transform="scale(0.03519,-0.03519)"
                     d="M 271,204 242,77 c -4,-17 -6,-35 -6,-51 0,-22 9,-35 24,-35 23,0 64,26 146,94 l -7,21 C 375,86 346,59 324,59 c -9,0 -15,9 -15,23 0,5 0,8 1,11 l 92,379 -10,9 -33,-18 c -41,15 -58,19 -85,19 -28,0 -48,-5 -75,-18 C 137,433 104,403 79,354 35,265 4,145 4,67 4,23 19,-11 38,-11 c 37,0 117,52 233,215 z m 48,210 C 297,305 278,253 244,201 187,117 126,59 94,59 82,59 76,72 76,99 c 0,64 28,181 63,261 24,55 47,73 95,73 23,0 41,-4 85,-19 z"
                     stroke="#d0021b"
                     stroke-opacity="1"
                     stroke-width="0"
                     fill="#d0021b"
                     fill-opacity="1"
                     id="path30" />
                </g>
              </g>
            </g>
          </g>
          <g
             id="g48">
            <g
               id="g46">
              <g
                 id="g44">
                <g
                   transform="translate(160.7431,61.189999)"
                   id="g42">
                  <path
                     transform="scale(0.03519,-0.03519)"
                     d="m 235,722 -12,11 C 171,707 135,698 63,691 l -4,-21 h 48 c 24,0 34,-7 34,-24 0,-7 -1,-18 -2,-24 L 38,71 c -1,-3 -1,-7 -1,-10 0,-39 48,-72 103,-72 37,0 88,19 131,50 96,68 162,205 162,337 0,38 -9,77 -21,92 -7,9 -20,14 -35,14 -24,0 -54,-8 -82,-22 -51,-27 -84,-57 -146,-136 z m 87,-298 c 26,0 39,-23 39,-72 C 361,288 340,202 310,137 277,68 237,36 183,36 c -46,0 -71,23 -71,65 0,34 15,175 96,260 33,34 85,63 114,63 z"
                     stroke="#7ed321"
                     stroke-opacity="1"
                     stroke-width="0"
                     fill="#7ed321"
                     fill-opacity="1"
                     id="path40" />
                </g>
              </g>
            </g>
          </g>
          <g
             id="g58">
            <g
               id="g56">
              <g
                 id="g54">
                <g
                   transform="translate(122.03564,104.19)"
                   id="g52">
                  <path
                     transform="scale(0.03519,-0.03519)"
                     d="m 342,330 h 23 c 8,65 15,102 24,128 -24,15 -59,24 -96,24 C 248,483 175,463 118,400 64,352 25,241 25,136 25,40 67,-11 147,-11 c 54,0 102,20 157,65 l 50,41 -8,20 -15,-10 C 259,57 221,40 186,40 c -56,0 -85,40 -85,119 0,108 35,212 84,250 21,16 45,24 76,24 45,0 81,-19 81,-43 z"
                     stroke="#d0021b"
                     stroke-opacity="1"
                     stroke-width="0"
                     fill="#d0021b"
                     fill-opacity="1"
                     id="path50" />
                </g>
              </g>
            </g>
          </g>
          <g
             id="g68">
            <g
               id="g66">
              <g
                 id="g64">
                <g
                   transform="translate(160.09564,104.19)"
                   id="g62">
                  <path
                     transform="scale(0.03519,-0.03519)"
                     d="m 483,722 -12,11 C 419,707 383,698 311,691 l -4,-21 h 48 c 24,0 34,-7 34,-24 0,-8 -1,-17 -2,-24 L 359,468 c -30,9 -57,14 -82,14 C 208,482 114,410 68,323 37,265 17,170 17,86 c 0,-65 15,-97 44,-97 27,0 64,17 98,44 54,44 87,83 154,184 L 290,126 C 279,82 274,50 274,24 c 0,-21 9,-33 26,-33 17,0 41,12 75,37 l 81,60 -10,19 -44,-31 C 388,66 372,59 363,59 c -8,0 -14,9 -14,23 0,8 1,17 8,46 z M 114,59 c -16,0 -25,14 -25,39 0,126 46,282 95,320 13,10 32,15 59,15 44,0 73,-6 106,-23 L 337,351 C 300,171 159,59 114,59 Z"
                     stroke="#7ed321"
                     stroke-opacity="1"
                     stroke-width="0"
                     fill="#7ed321"
                     fill-opacity="1"
                     id="path60" />
                </g>
              </g>
            </g>
          </g>
          <svg
             x="100"
             overflow="visible"
             y="25"
             height="87"
             width="15.828125"
             version="1.1"
             id="svg74">
            <path
               d="M 12.39,3.52 12.18,3.31 Q 9.93,3.38 7.71,3.38 5.6,3.38 3.28,3.31 L 2.96,3.77 q 0.32,1.2 0.32,6.51 v 1.76 H 6.24 V 10.28 Q 6.24,7.57 6.38,5.85 6.49,4.62 8.84,4.62 h 3.41 L 12.39,4.44 V 3.53 Z m -9.12,8.13 v 63.7 h 2.96 v -63.7 z"
               style="fill:#000000;fill-opacity:1;stroke:none;stroke-width:1px;stroke-opacity:1"
               id="path70" />
            <path
               d="m 12.39,83.48 -0.21,0.21 Q 9.93,83.62 7.71,83.62 5.6,83.62 3.28,83.69 L 2.96,83.23 q 0.32,-1.2 0.32,-6.51 v -1.76 h 2.96 v 1.76 q 0,2.71 0.14,4.43 0.11,1.23 2.46,1.23 h 3.41 l 0.14,0.18 v 0.91 z"
               style="fill:#000000;fill-opacity:1;stroke:none;stroke-width:1px;stroke-opacity:1"
               id="path72" />
          </svg>
          <svg
             x="182.14062"
             overflow="visible"
             y="25"
             height="87"
             width="15.828125"
             version="1.1"
             id="svg80">
            <path
               d="M 3.25,3.52 3.46,3.31 q 2.25,0.07 4.47,0.07 2.11,0 4.43,-0.07 l 0.32,0.46 q -0.32,1.2 -0.32,6.51 v 1.76 H 9.4 V 10.28 Q 9.4,7.57 9.26,5.85 9.15,4.62 6.8,4.62 H 3.39 L 3.25,4.44 V 3.53 Z m 9.12,8.13 v 63.7 H 9.41 v -63.7 z"
               style="fill:#000000;fill-opacity:1;stroke:none;stroke-width:1px;stroke-opacity:1"
               id="path76" />
            <path
               d="m 3.25,83.48 0.21,0.21 q 2.25,-0.07 4.47,-0.07 2.11,0 4.43,0.07 l 0.32,-0.46 q -0.32,-1.2 -0.32,-6.51 V 74.96 H 9.4 v 1.76 q 0,2.71 -0.14,4.43 -0.11,1.23 -2.46,1.23 H 3.39 l -0.14,0.18 v 0.91 z"
               style="fill:#000000;fill-opacity:1;stroke:none;stroke-width:1px;stroke-opacity:1"
               id="path78" />
          </svg>
          <line
             stroke-dasharray="1"
             style="fill:none"
             x1="109.29688"
             y1="25.5"
             x2="148.98438"
             y2="25.5"
             id="line82" />
          <line
             stroke-dasharray="1"
             style="fill:none"
             x1="109.29688"
             y1="25.5"
             x2="109.29688"
             y2="68.5"
             id="line84" />
          <line
             stroke-dasharray="1"
             style="fill:none"
             x1="148.98438"
             y1="25.5"
             x2="148.98438"
             y2="68.5"
             id="line86" />
          <line
             stroke-dasharray="1"
             style="fill:none"
             x1="109.29688"
             y1="68.5"
             x2="148.98438"
             y2="68.5"
             id="line88" />
          <line
             stroke-dasharray="1"
             style="fill:none"
             x1="148.98438"
             y1="25.5"
             x2="188.67188"
             y2="25.5"
             id="line90" />
          <line
             stroke-dasharray="1"
             style="fill:none"
             x1="148.98438"
             y1="25.5"
             x2="148.98438"
             y2="68.5"
             id="line92" />
          <line
             stroke-dasharray="1"
             style="fill:none"
             x1="188.67188"
             y1="25.5"
             x2="188.67188"
             y2="68.5"
             id="line94" />
          <line
             stroke-dasharray="1"
             style="fill:none"
             x1="148.98438"
             y1="68.5"
             x2="188.67188"
             y2="68.5"
             id="line96" />
          <line
             stroke-dasharray="1"
             style="fill:none"
             x1="109.29688"
             y1="68.5"
             x2="148.98438"
             y2="68.5"
             id="line98" />
          <line
             stroke-dasharray="1"
             style="fill:none"
             x1="109.29688"
             y1="68.5"
             x2="109.29688"
             y2="111.5"
             id="line100" />
          <line
             stroke-dasharray="1"
             style="fill:none"
             x1="148.98438"
             y1="68.5"
             x2="148.98438"
             y2="111.5"
             id="line102" />
          <line
             stroke-dasharray="1"
             style="fill:none"
             x1="109.29688"
             y1="111.5"
             x2="148.98438"
             y2="111.5"
             id="line104" />
          <line
             stroke-dasharray="1"
             style="fill:none"
             x1="148.98438"
             y1="68.5"
             x2="188.67188"
             y2="68.5"
             id="line106" />
          <line
             stroke-dasharray="1"
             style="fill:none"
             x1="148.98438"
             y1="68.5"
             x2="148.98438"
             y2="111.5"
             id="line108" />
          <line
             stroke-dasharray="1"
             style="fill:none"
             x1="188.67188"
             y1="68.5"
             x2="188.67188"
             y2="111.5"
             id="line110" />
          <line
             stroke-dasharray="1"
             style="fill:none"
             x1="148.98438"
             y1="111.5"
             x2="188.67188"
             y2="111.5"
             id="line112" />
        </g>
      </g>
    </g>
    <g
       id="g142">
      <g
         id="g140">
        <g
           id="g122">
          <text
             x="20"
             y="163"
             style="font-style:normal;font-weight:400;font-size:18px;font-family:Arial, Helvetica, sans-serif;text-decoration:none;text-decoration-line:none;dominant-baseline:text-before-edge;white-space:pre;fill:#d0021b;fill-opacity:1;stroke:none"
             id="text120">Where </text>
        </g>
        <g
           id="g134">
          <g
             id="g132">
            <g
               id="g130">
              <g
                 id="g128">
                <g
                   transform="translate(78.015625,179.4)"
                   id="g126">
                  <path
                     transform="scale(0.0204,-0.0204)"
                     d="m 34,388 7,-20 32,21 c 37,23 40,25 47,25 10,0 18,-10 18,-23 0,-7 -4,-30 -8,-44 L 64,107 C 56,76 51,49 51,30 51,6 62,-9 81,-9 c 26,0 62,21 160,94 L 231,103 205,86 C 176,67 153,56 144,56 c -7,0 -13,10 -13,20 0,10 2,19 7,40 l 77,304 c 4,17 6,28 6,36 0,17 -9,26 -25,26 -22,0 -59,-21 -134,-74 z m 194,324 c -29,0 -58,-33 -58,-67 0,-25 15,-41 39,-41 31,0 55,29 55,67 0,24 -15,41 -36,41 z"
                     stroke="#d0021b"
                     stroke-opacity="1"
                     stroke-width="0"
                     fill="#d0021b"
                     fill-opacity="1"
                     id="path124" />
                </g>
              </g>
            </g>
          </g>
        </g>
        <g
           id="g138">
          <text
             x="84.125977"
             y="163"
             style="font-style:normal;font-weight:400;font-size:18px;font-family:Arial, Helvetica, sans-serif;text-decoration:none;text-decoration-line:none;dominant-baseline:text-before-edge;white-space:pre;fill:#d0021b;fill-opacity:1;stroke:none"
             id="text136"> lands</text>
        </g>
      </g>
    </g>
    <g
       id="g166">
      <g
         id="g164">
        <g
           id="g146">
          <text
             x="168"
             y="163"
             style="font-style:normal;font-weight:400;font-size:18px;font-family:Arial, Helvetica, sans-serif;text-decoration:none;text-decoration-line:none;dominant-baseline:text-before-edge;white-space:pre;fill:#d0021b;fill-opacity:1;stroke:none"
             id="text144">Where </text>
        </g>
        <g
           id="g158">
          <g
             id="g156">
            <g
               id="g154">
              <g
                 id="g152">
                <g
                   transform="translate(226.01562,179.4)"
                   id="g150">
                  <path
                     transform="scale(0.0204,-0.0204)"
                     d="M 194,351 94,-144 c -11,-52 -29,-87 -47,-87 -14,0 -32,6 -53,19 l -8,-57 c 10,-5 23,-7 38,-7 40,0 80,43 116,124 20,45 34,95 62,222 l 76,350 c 4,18 6,31 6,37 0,16 -9,25 -25,25 -22,0 -59,-21 -134,-74 l -28,-20 7,-20 32,21 c 37,23 40,25 47,25 10,0 18,-10 18,-23 0,-9 -7,-35 -7,-40 z m 91,361 c -29,0 -58,-33 -58,-67 0,-25 15,-41 39,-41 31,0 55,29 55,67 0,24 -15,41 -36,41 z"
                     stroke="#d0021b"
                     stroke-opacity="1"
                     stroke-width="0"
                     fill="#d0021b"
                     fill-opacity="1"
                     id="path148" />
                </g>
              </g>
            </g>
          </g>
        </g>
        <g
           id="g162">
          <text
             x="232.56348"
             y="163"
             style="font-style:normal;font-weight:400;font-size:18px;font-family:Arial, Helvetica, sans-serif;text-decoration:none;text-decoration-line:none;dominant-baseline:text-before-edge;white-space:pre;fill:#d0021b;fill-opacity:1;stroke:none"
             id="text160"> lands</text>
        </g>
      </g>
    </g>
  </svg>
</svg>
