<?xml version="1.0" encoding="UTF-8" standalone="no"?>
<svg
   x="0"
   y="0"
   width="280"
   height="241"
   style="fill:none"
   version="1.1"
   id="svg126"
   sodipodi:docname="diagram-20230713.svg"
   inkscape:version="1.2.2 (b0a8486, 2022-12-01)"
   xmlns:inkscape="http://www.inkscape.org/namespaces/inkscape"
   xmlns:sodipodi="http://sodipodi.sourceforge.net/DTD/sodipodi-0.dtd"
   xmlns="http://www.w3.org/2000/svg"
   xmlns:svg="http://www.w3.org/2000/svg">
  <defs
     id="defs130" />
  <sodipodi:namedview
     id="namedview128"
     pagecolor="#ffffff"
     bordercolor="#000000"
     borderopacity="0.25"
     inkscape:showpageshadow="2"
     inkscape:pageopacity="0.0"
     inkscape:pagecheckerboard="0"
     inkscape:deskcolor="#d1d1d1"
     showgrid="false"
     inkscape:zoom="1.7160121"
     inkscape:cx="331"
     inkscape:cy="120.91989"
     inkscape:window-width="1280"
     inkscape:window-height="677"
     inkscape:window-x="0"
     inkscape:window-y="25"
     inkscape:window-maximized="0"
     inkscape:current-layer="svg126" />
  <svg
     class="role-diagram-draw-area"
     version="1.1"
     id="svg92"
     width="100%"
     height="100%">
    <g
       class="shapes-region"
       style="fill:none;stroke:#000000"
       id="g84">
      <g
         class="composite-shape axis2d"
         style="stroke:#000000;stroke-width:2;stroke-opacity:1"
         id="g8">
        <path
           class="real"
           d="M 12.64,187.02 H 242.19 M 62.37,23.55 v 195.47"
           id="path2" />
        <path
           d="m 235.19,182.02 7,5 -7,5"
           id="path4" />
        <path
           d="m 57.37,30.55 5,-7 5,7"
           id="path6" />
      </g>
      <g
         class="shape"
         id="g12">
        <path
           class="real"
           d="m 97,88 c 20,-10 110,-20 90,0 -20,20 -20,30 0,60 20,30 -70,30 -90,0 C 77,118 77,98 97,88 Z"
           style="fill:#7ed321;fill-opacity:0.2;stroke:#7ed321;stroke-width:1;stroke-opacity:1"
           id="path10" />
      </g>
      <g
         class="arrow-line"
         id="g16">
        <path
           class="connection real"
           stroke-dasharray="none"
           d="m 82.31,92.08 h 105"
           style="fill:#f8e71c;fill-opacity:0.1;stroke:#f5a623;stroke-width:1;stroke-opacity:1"
           id="path14" />
      </g>
      <g
         class="arrow-line"
         id="g20">
        <path
           class="connection real"
           stroke-dasharray="none"
           d="m 82.31,107.08 h 90"
           style="fill:#f8e71c;fill-opacity:0.1;stroke:#f5a623;stroke-width:1;stroke-opacity:1"
           id="path18" />
      </g>
      <g
         class="arrow-line"
         id="g24">
        <path
           class="connection real"
           stroke-dasharray="none"
           d="m 82.31,122.08 h 90"
           style="fill:#f8e71c;fill-opacity:0.1;stroke:#f5a623;stroke-width:1;stroke-opacity:1"
           id="path22" />
      </g>
      <g
         class="arrow-line"
         id="g28">
        <path
           class="connection real"
           stroke-dasharray="none"
           d="m 82.31,137.08 h 105"
           style="fill:#f8e71c;fill-opacity:0.1;stroke:#f5a623;stroke-width:1;stroke-opacity:1"
           id="path26" />
      </g>
      <g
         class="arrow-line"
         id="g32">
        <path
           class="connection real"
           stroke-dasharray="none"
           d="m 97.31,152.08 h 90"
           style="fill:#f8e71c;fill-opacity:0.1;stroke:#f5a623;stroke-width:1;stroke-opacity:1"
           id="path30" />
      </g>
      <g
         class="arrow-line"
         id="g36">
        <path
           class="connection real"
           stroke-dasharray="none"
           d="m 112.31,167.08 h 75"
           style="fill:#f8e71c;fill-opacity:0.1;stroke:#f5a623;stroke-width:1;stroke-opacity:1"
           id="path34" />
      </g>
      <g
         class="arrow-line"
         id="g40">
        <path
           class="connection real"
           stroke-dasharray="none"
           d="m 112.31,77.08 h 75"
           style="fill:#f8e71c;fill-opacity:0.1;stroke:#f5a623;stroke-width:1;stroke-opacity:1"
           id="path38" />
      </g>
      <g
         class="arrow-line"
         id="g44">
        <path
           class="connection real"
           stroke-dasharray="none"
           d="m 112.31,77.08 v 90"
           style="fill:#f8e71c;fill-opacity:0.1;stroke:#f5a623;stroke-width:1;stroke-opacity:1"
           id="path42" />
      </g>
      <g
         class="arrow-line"
         id="g48">
        <path
           class="connection real"
           stroke-dasharray="none"
           d="m 97.31,92.08 v 60"
           style="fill:#f8e71c;fill-opacity:0.1;stroke:#f5a623;stroke-width:1;stroke-opacity:1"
           id="path46" />
      </g>
      <g
         class="arrow-line"
         id="g52">
        <path
           class="connection real"
           stroke-dasharray="none"
           d="m 82.31,92.08 v 45"
           style="fill:none;fill-opacity:1;stroke:#f8e71c;stroke-width:1;stroke-opacity:1"
           id="path50" />
      </g>
      <g
         class="arrow-line"
         id="g56">
        <path
           class="connection real"
           stroke-dasharray="none"
           d="m 127.31,77.08 v 90"
           style="fill:#f8e71c;fill-opacity:0.1;stroke:#f5a623;stroke-width:1;stroke-opacity:1"
           id="path54" />
      </g>
      <g
         class="arrow-line"
         id="g60">
        <path
           class="connection real"
           stroke-dasharray="none"
           d="m 142.31,77.08 v 90"
           style="fill:#f8e71c;fill-opacity:0.1;stroke:#f5a623;stroke-width:1;stroke-opacity:1"
           id="path58" />
      </g>
      <g
         class="arrow-line"
         id="g64">
        <path
           class="connection real"
           stroke-dasharray="none"
           d="m 157.31,77.08 v 90"
           style="fill:#f8e71c;fill-opacity:0.1;stroke:#f5a623;stroke-width:1;stroke-opacity:1"
           id="path62" />
      </g>
      <g
         class="arrow-line"
         id="g68">
        <path
           class="connection real"
           stroke-dasharray="none"
           d="m 172.31,77.08 v 90"
           style="fill:#f8e71c;fill-opacity:0.1;stroke:#f5a623;stroke-width:1;stroke-opacity:1"
           id="path66" />
      </g>
      <g
         class="arrow-line"
         id="g72">
        <path
           class="connection real"
           stroke-dasharray="none"
           d="m 187.31,137.08 v 30"
           style="fill:#f8e71c;fill-opacity:0.1;stroke:#f5a623;stroke-width:1;stroke-opacity:1"
           id="path70" />
      </g>
      <g
         class="arrow-line"
         id="g76">
        <path
           class="connection real"
           stroke-dasharray="none"
           d="m 187.31,77.08 v 15"
           style="fill:#f8e71c;fill-opacity:0.1;stroke:#f5a623;stroke-width:1;stroke-opacity:1"
           id="path74" />
      </g>
      <g
         class="intersections-group"
         id="g82">
        <g
           style="fill:none;fill-opacity:1;stroke:#000000;stroke-width:1"
           id="g80">
          <g
             id="g78" />
        </g>
      </g>
    </g>
    <g
       id="g86" />
    <g
       id="g88" />
    <g
       id="g90" />
  </svg>
  <svg
     width="660"
     height="239"
     style="font-family:Asana-Math, Asana"
     version="1.1"
     id="svg124">
    <g
       id="g102">
      <g
         id="g100">
        <g
           id="g98">
          <g
             transform="translate(227,213.43125)"
             id="g96">
            <path
               transform="scale(0.0204,-0.0204)"
               d="m 9,1 c 15,-8 31,-12 43,-12 33,0 72,29 103,76 l 76,117 11,-69 c 13,-85 36,-124 72,-124 22,0 54,17 86,46 l 49,44 -9,19 C 404,68 379,53 363,53 c -15,0 -28,10 -38,30 -9,19 -20,56 -25,85 l -18,101 35,49 c 47,65 74,88 105,88 16,0 28,-8 33,-23 l 14,4 15,85 c -12,7 -21,10 -30,10 -40,0 -80,-36 -142,-128 l -37,-55 -6,48 c -12,99 -39,135 -98,135 -26,0 -48,-8 -57,-21 L 56,378 73,368 c 30,34 50,48 69,48 33,0 55,-41 72,-139 l 11,-62 -40,-62 C 142,86 108,54 80,54 65,54 54,58 52,63 L 41,91 21,88 C 21,53 13,27 9,1 Z"
               stroke="#000000"
               stroke-opacity="1"
               stroke-width="0"
               fill="#000000"
               fill-opacity="1"
               id="path94" />
          </g>
        </g>
      </g>
    </g>
    <g
       id="g112">
      <g
         id="g110">
        <g
           id="g108">
          <g
             transform="translate(39,37.43125)"
             id="g106">
            <path
               transform="scale(0.0204,-0.0204)"
               d="m -7,-180 c -1,-7 -1,-13 -1,-18 0,-43 37,-78 82,-78 106,0 216,124 275,309 l 141,440 -11,9 C 450,471 427,465 405,463 L 370,331 C 358,284 323,211 290,162 255,111 206,67 184,67 c -12,0 -21,23 -20,48 l 16,207 c 2,31 4,69 4,97 0,45 -7,63 -24,63 -13,0 -27,-7 -75,-40 L 3,386 14,368 64,398 c 5,3 16,12 25,12 14,0 22,-19 22,-52 0,-1 0,-7 -1,-15 L 93,100 92,60 c 0,-42 18,-71 43,-71 37,0 121,85 196,198 L 282,16 c -51,-177 -101,-250 -171,-250 -35,0 -62,27 -62,62 0,5 1,13 2,22 l -10,4 z"
               stroke="#000000"
               stroke-opacity="1"
               stroke-width="0"
               fill="#000000"
               fill-opacity="1"
               id="path104" />
          </g>
        </g>
      </g>
    </g>
    <g
       id="g122">
      <g
         id="g120">
        <g
           id="g118">
          <g
             transform="translate(39,210.43125)"
             id="g116">
            <path
               transform="scale(0.0204,-0.0204)"
               d="M 748,425 C 748,603 644,706 464,706 227,706 53,523 53,272 53,83 147,-18 323,-18 595,-18 748,207 748,425 Z M 660,409 C 660,221 571,24 360,24 216,24 141,110 141,277 c 0,148 58,387 292,387 116,0 227,-54 227,-255 z"
               stroke="#000000"
               stroke-opacity="1"
               stroke-width="0"
               fill="#000000"
               fill-opacity="1"
               id="path114" />
          </g>
        </g>
      </g>
    </g>
  </svg>
</svg>
