<?xml version="1.0" encoding="UTF-8" standalone="no"?>
<svg
   x="0"
   y="0"
   width="540"
   height="417"
   style="fill:none"
   version="1.1"
   id="svg320"
   sodipodi:docname="diagram-20230715.svg"
   inkscape:version="1.2.2 (b0a8486, 2022-12-01)"
   xmlns:inkscape="http://www.inkscape.org/namespaces/inkscape"
   xmlns:sodipodi="http://sodipodi.sourceforge.net/DTD/sodipodi-0.dtd"
   xmlns="http://www.w3.org/2000/svg"
   xmlns:svg="http://www.w3.org/2000/svg">
  <defs
     id="defs324" />
  <sodipodi:namedview
     id="namedview322"
     pagecolor="#ffffff"
     bordercolor="#000000"
     borderopacity="0.25"
     inkscape:showpageshadow="2"
     inkscape:pageopacity="0.0"
     inkscape:pagecheckerboard="0"
     inkscape:deskcolor="#d1d1d1"
     showgrid="false"
     inkscape:zoom="1.2589928"
     inkscape:cx="512.31429"
     inkscape:cy="218.82571"
     inkscape:window-width="1280"
     inkscape:window-height="677"
     inkscape:window-x="0"
     inkscape:window-y="25"
     inkscape:window-maximized="0"
     inkscape:current-layer="svg320" />
  <svg
     class="role-diagram-draw-area"
     version="1.1"
     id="svg166"
     width="100%"
     height="100%">
    <g
       class="shapes-region"
       style="fill:none;stroke:#000000"
       id="g158">
      <g
         class="shape"
         id="g4">
        <polygon
           class="real"
           points="243.54,15.35 244.53,264.85 143.86,66.43 "
           style="fill:#d0021b;fill-opacity:0.2;stroke:none;stroke-width:1;stroke-opacity:1"
           id="polygon2" />
      </g>
      <g
         class="composite-shape"
         id="g14">
        <path
           class="real"
           d="m 15.53,-14.15 h 514.03 v 516 H 15.53 Z"
           style="fill:none;fill-opacity:1;stroke:none;stroke-width:1;stroke-opacity:0.1"
           id="path6" />
        <path
           class="real"
           d="m 44.53,-14.15 v 516 m 50,-516 v 516 m 50,-516 v 516 m 50,-516 v 516 m 50,-516 v 516 m 50,-516 v 516 m 50,-516 v 516 m 50,-516 v 516 m 50,-516 v 516 m 50,-516 v 516"
           style="fill:none;fill-opacity:1;stroke:#000000;stroke-width:1;stroke-opacity:0.1"
           id="path8" />
        <path
           class="real"
           d="m 15.53,14.85 h 514.03 m -514.03,50 h 514.03 m -514.03,50 h 514.03 m -514.03,50 h 514.03 m -514.03,50 h 514.03 m -514.03,50 h 514.03 m -514.03,50 h 514.03 m -514.03,50 h 514.03 m -514.03,50 h 514.03 m -514.03,50 h 514.03"
           style="fill:none;fill-opacity:1;stroke:#000000;stroke-width:1;stroke-opacity:0.1"
           id="path10" />
        <path
           class="real"
           d=""
           style="fill:none;fill-opacity:1;stroke:#000000;stroke-width:1;stroke-opacity:0.1"
           id="path12" />
      </g>
      <g
         class="composite-shape"
         id="g24">
        <path
           class="real"
           d="m -55.07,42.52 717.83,-367.81 3.09,680.8 -717.83,367.81 z"
           style="fill:none;fill-opacity:1;stroke:none;stroke-width:1;stroke-opacity:0.3"
           id="path16" />
        <path
           class="real"
           d="m -55.07,42.52 3.09,680.8 M 44.6,-8.55 l 3.09,680.8 m 96.59,-731.88 3.09,680.8 m 96.59,-731.87 3.09,680.8 m 96.58,-731.87 3.09,680.8 m 96.59,-731.88 3.09,680.8 m 96.59,-731.87 3.09,680.8 m 96.59,-731.87 3.09,680.8"
           style="fill:none;fill-opacity:1;stroke:#4a90e2;stroke-width:1;stroke-opacity:0.3"
           id="path18" />
        <path
           class="real"
           d="M -55.07,42.52 662.76,-325.29 M -54.5,168.07 663.33,-199.73 M -53.93,293.63 663.9,-74.18 M -53.36,419.18 664.47,51.37 M -52.79,544.74 665.04,176.93 M -52.22,670.29 665.61,302.48"
           style="fill:none;fill-opacity:1;stroke:#4a90e2;stroke-width:1;stroke-opacity:0.3"
           id="path20" />
        <path
           class="real"
           d=""
           style="fill:none;fill-opacity:1;stroke:#4a90e2;stroke-width:1;stroke-opacity:0.3"
           id="path22" />
      </g>
      <g
         class="arrow-line"
         id="g32">
        <path
           class="connection real"
           stroke-dasharray="none"
           d="m 245.45,143.33 0.22,122.63"
           style="fill:none;fill-opacity:1;stroke:#4a90e2;stroke-width:2;stroke-opacity:1"
           id="path26" />
        <g
           stroke="none"
           fill="rgb(74,144,226)"
           fill-opacity="1"
           transform="rotate(89.9,52.93167,192.60251)"
           style="fill:#4a90e2;stroke:none;stroke-width:2"
           id="g30">
          <path
             d="M 11.61,-5.58 0,0 11.61,5.58 Z"
             id="path28" />
        </g>
      </g>
      <g
         class="arrow-line"
         id="g40">
        <path
           class="connection real"
           stroke-dasharray="none"
           d="m 342.14,215.67 -96.47,50.29"
           style="fill:none;fill-opacity:1;stroke:#d0021b;stroke-width:2;stroke-opacity:1"
           id="path34" />
        <g
           stroke="none"
           fill="rgb(208,2,27)"
           fill-opacity="1"
           transform="rotate(152.46,146.64441,149.26663)"
           style="fill:#d0021b;stroke:none;stroke-width:2"
           id="g38">
          <path
             d="M 11.61,-5.58 0,0 11.61,5.58 Z"
             id="path36" />
        </g>
      </g>
      <g
         class="arrow-line"
         id="g54">
        <path
           class="connection real"
           stroke-dasharray="none"
           d="m 197.12,166.34 48.55,99.62"
           style="fill:none;fill-opacity:1;stroke:#7ed321;stroke-width:2;stroke-opacity:1"
           id="path42" />
        <g
           id="g48">
          <g
             stroke="none"
             fill="rgb(126,211,33)"
             fill-opacity="1"
             transform="rotate(64.02,-57.043317,276.91879)"
             style="fill:#7ed321;stroke:none;stroke-width:2"
             id="g46">
            <path
               d="M 13.4,-6.43 0,0 13.4,6.44 8.9,0 Z"
               id="path44" />
          </g>
        </g>
        <g
           stroke="none"
           fill="rgb(126,211,33)"
           fill-opacity="1"
           transform="rotate(64.02,-32.488112,237.63573)"
           style="fill:#7ed321;stroke:none;stroke-width:2"
           id="g52">
          <path
             d="M 13.4,-6.43 0,0 13.4,6.44 8.9,0 Z"
             id="path50" />
        </g>
      </g>
      <g
         class="arrow-line"
         id="g68">
        <path
           class="connection real"
           stroke-dasharray="none"
           d="m 147.12,66.34 48.55,99.62"
           style="fill:none;fill-opacity:1;stroke:#7ed321;stroke-width:2;stroke-opacity:1"
           id="path56" />
        <g
           id="g62">
          <g
             stroke="none"
             fill="rgb(126,211,33)"
             fill-opacity="1"
             transform="rotate(64.02,-2.0576579,186.92596)"
             style="fill:#7ed321;stroke:none;stroke-width:2"
             id="g60">
            <path
               d="M 13.4,-6.43 0,0 13.4,6.44 8.9,0 Z"
               id="path58" />
          </g>
        </g>
        <g
           stroke="none"
           fill="rgb(126,211,33)"
           fill-opacity="1"
           transform="rotate(64.02,22.497547,147.6429)"
           style="fill:#7ed321;stroke:none;stroke-width:2"
           id="g66">
          <path
             d="M 13.4,-6.43 0,0 13.4,6.44 8.9,0 Z"
             id="path64" />
        </g>
      </g>
      <g
         class="arrow-line"
         id="g82">
        <path
           class="connection real"
           stroke-dasharray="none"
           d="m 96.3,-33.7 48.55,99.63"
           style="fill:none;fill-opacity:1;stroke:#7ed321;stroke-width:2;stroke-opacity:1"
           id="path70" />
        <g
           id="g76">
          <g
             stroke="none"
             fill="rgb(126,211,33)"
             fill-opacity="1"
             transform="rotate(64.02,52.548177,96.262155)"
             style="fill:#7ed321;stroke:none;stroke-width:2"
             id="g74">
            <path
               d="M 13.4,-6.43 0,0 13.4,6.44 8.9,0 Z"
               id="path72" />
          </g>
        </g>
        <g
           stroke="none"
           fill="rgb(126,211,33)"
           fill-opacity="1"
           transform="rotate(64.02,77.103382,56.979093)"
           style="fill:#7ed321;stroke:none;stroke-width:2"
           id="g80">
          <path
             d="M 13.4,-6.43 0,0 13.4,6.44 8.9,0 Z"
             id="path78" />
        </g>
      </g>
      <g
         class="arrow-line"
         id="g96">
        <path
           class="connection real"
           stroke-dasharray="none"
           d="m 245.67,265.96 48.55,99.63"
           style="fill:none;fill-opacity:1;stroke:#7ed321;stroke-width:2;stroke-opacity:1"
           id="path84" />
        <g
           stroke="none"
           fill="rgb(126,211,33)"
           fill-opacity="1"
           transform="rotate(-115.98,263.37443,92.084252)"
           style="fill:#7ed321;stroke:none;stroke-width:2"
           id="g88">
          <path
             d="M 13.4,-6.43 0,0 13.4,6.44 8.9,0 Z"
             id="path86" />
        </g>
        <g
           id="g94">
          <g
             stroke="none"
             fill="rgb(126,211,33)"
             fill-opacity="1"
             transform="rotate(-115.98,238.06811,76.265679)"
             style="fill:#7ed321;stroke:none;stroke-width:2"
             id="g92">
            <path
               d="M 13.4,-6.43 0,0 13.4,6.44 8.9,0 Z"
               id="path90" />
          </g>
        </g>
      </g>
      <g
         class="arrow-line"
         id="g106">
        <path
           class="connection real"
           stroke-dasharray="none"
           d="m 295.97,369.18 50.3,103.22"
           style="fill:none;fill-opacity:1;stroke:#7ed321;stroke-width:2;stroke-opacity:1"
           id="path98" />
        <g
           id="g104">
          <g
             stroke="none"
             fill="rgb(126,211,33)"
             fill-opacity="1"
             transform="rotate(-115.98,295.48084,112.15345)"
             style="fill:#7ed321;stroke:none;stroke-width:2"
             id="g102">
            <path
               d="M 13.4,-6.43 0,0 13.4,6.44 8.9,0 Z"
               id="path100" />
          </g>
        </g>
      </g>
      <g
         class="arrow-line"
         id="g120">
        <path
           class="connection real"
           stroke-dasharray="none"
           d="M 246.21,387.52 245.37,262.74"
           style="fill:none;fill-opacity:1;stroke:#7ed321;stroke-width:2;stroke-opacity:1"
           id="path108" />
        <g
           id="g114">
          <g
             stroke="none"
             fill="rgb(126,211,33)"
             fill-opacity="1"
             transform="rotate(-90.39,289.50572,45.620055)"
             style="fill:#7ed321;stroke:none;stroke-width:2"
             id="g112">
            <path
               d="M 13.4,-6.43 0,0 13.4,6.44 8.9,0 Z"
               id="path110" />
          </g>
        </g>
        <g
           stroke="none"
           fill="rgb(126,211,33)"
           fill-opacity="1"
           transform="rotate(-90.39,317.54886,73.475203)"
           style="fill:#7ed321;stroke:none;stroke-width:2"
           id="g118">
          <path
             d="M 13.4,-6.43 0,0 13.4,6.44 8.9,0 Z"
             id="path116" />
        </g>
      </g>
      <g
         class="arrow-line"
         id="g128">
        <path
           class="connection real"
           stroke-dasharray="none"
           d="m 245.41,458.74 0.83,-67.22"
           style="fill:none;fill-opacity:1;stroke:#7ed321;stroke-width:2;stroke-opacity:1"
           id="path122" />
        <g
           stroke="none"
           fill="rgb(126,211,33)"
           fill-opacity="1"
           transform="rotate(-89.3,356.89825,107.18055)"
           style="fill:#7ed321;stroke:none;stroke-width:2"
           id="g126">
          <path
             d="M 13.4,-6.43 0,0 13.4,6.44 8.9,0 Z"
             id="path124" />
        </g>
      </g>
      <g
         class="arrow-line"
         id="g142">
        <path
           class="connection real"
           stroke-dasharray="none"
           d="M 245.1,140.41 244.55,18.85"
           style="fill:none;fill-opacity:1;stroke:#7ed321;stroke-width:2;stroke-opacity:1"
           id="path130" />
        <g
           stroke="none"
           fill="rgb(126,211,33)"
           fill-opacity="1"
           transform="rotate(89.74,114.80322,130.24666)"
           style="fill:#7ed321;stroke:none;stroke-width:2"
           id="g134">
          <path
             d="M 13.4,-6.43 0,0 13.4,6.44 8.9,0 Z"
             id="path132" />
        </g>
        <g
           id="g140">
          <g
             stroke="none"
             fill="rgb(126,211,33)"
             fill-opacity="1"
             transform="rotate(89.74,86.81429,158.36288)"
             style="fill:#7ed321;stroke:none;stroke-width:2"
             id="g138">
            <path
               d="M 13.4,-6.43 0,0 13.4,6.44 8.9,0 Z"
               id="path136" />
          </g>
        </g>
      </g>
      <g
         class="arrow-line"
         id="g150">
        <path
           class="connection real"
           stroke-dasharray="none"
           d="m 244.53,14.85 v -46"
           style="fill:none;fill-opacity:1;stroke:#7ed321;stroke-width:2;stroke-opacity:1"
           id="path144" />
        <g
           stroke="none"
           fill="rgb(126,211,33)"
           fill-opacity="1"
           transform="rotate(90,139.837,104.69058)"
           style="fill:#7ed321;stroke:none;stroke-width:2"
           id="g148">
          <path
             d="M 13.4,-6.43 0,0 13.4,6.44 8.9,0 Z"
             id="path146" />
        </g>
      </g>
      <g
         class="shape"
         id="g154">
        <polygon
           class="real"
           points="244.53,164.85 245.67,265.96 195.67,165.96 "
           style="fill:#9013fe;fill-opacity:0.15;stroke:none;stroke-width:1;stroke-opacity:1"
           id="polygon152" />
      </g>
      <g
         id="g156" />
    </g>
    <g
       id="g160" />
    <g
       id="g162" />
    <g
       id="g164" />
  </svg>
  <svg
     width="660"
     height="415"
     style="font-family:Asana-Math, Asana"
     version="1.1"
     id="svg318">
    <g
       id="g182">
      <g
         id="g180">
        <g
           id="g172">
          <g
             transform="translate(298.67187,261.275)"
             id="g170">
            <path
               transform="scale(0.0204,-0.0204)"
               d="M 567,55 C 567,39 552,30 524,28 L 480,25 V -3 c 102,3 102,3 122,3 20,0 20,0 122,-3 v 28 l -26,3 c -47,7 -48,7 -56,52 L 555,705 H 509 L 136,112 C 100,56 82,40 48,32 L 28,27 V -3 c 92,3 92,3 112,3 19,0 21,0 107,-3 v 28 l -52,3 c -16,1 -31,10 -31,19 0,8 7,22 26,55 L 292,277 H 538 L 563,89 v -3 c 0,-2 4,-17 4,-31 z M 496,601 533,313 H 317 Z"
               stroke="#d0021b"
               stroke-opacity="1"
               stroke-width="0"
               fill="#d0021b"
               fill-opacity="1"
               id="path168" />
          </g>
        </g>
        <g
           id="g178">
          <g
             transform="translate(313.69189,261.275)"
             id="g176">
            <path
               transform="scale(0.0204,-0.0204)"
               d="m 188,465 -9,4 C 128,448 76,434 23,428 v -28 h 37 c 40,0 44,-7 44,-73 V 102 C 104,39 101,32 67,30 L 21,27 V -3 c 100,3 100,3 125,3 25,0 25,0 125,-3 v 30 l -46,3 c -34,2 -37,9 -37,72 z m -46,222 c -30,0 -56,-26 -56,-56 0,-29 26,-55 55,-55 29,0 56,26 56,55 0,28 -27,56 -55,56 z"
               stroke="#d0021b"
               stroke-opacity="1"
               stroke-width="24"
               fill="#d0021b"
               fill-opacity="1"
               id="path174" />
          </g>
        </g>
      </g>
    </g>
    <g
       id="g198">
      <g
         id="g196">
        <g
           id="g188">
          <g
             transform="translate(254,206.4)"
             id="g186">
            <path
               transform="scale(0.0204,-0.0204)"
               d="M 567,55 C 567,39 552,30 524,28 L 480,25 V -3 c 102,3 102,3 122,3 20,0 20,0 122,-3 v 28 l -26,3 c -47,7 -48,7 -56,52 L 555,705 H 509 L 136,112 C 100,56 82,40 48,32 L 28,27 V -3 c 92,3 92,3 112,3 19,0 21,0 107,-3 v 28 l -52,3 c -16,1 -31,10 -31,19 0,8 7,22 26,55 L 292,277 H 538 L 563,89 v -3 c 0,-2 4,-17 4,-31 z M 496,601 533,313 H 317 Z"
               stroke="#4a90e2"
               stroke-opacity="1"
               stroke-width="0"
               fill="#4a90e2"
               fill-opacity="1"
               id="path184" />
          </g>
        </g>
        <g
           id="g194">
          <g
             transform="translate(269.02002,206.4)"
             id="g192">
            <path
               transform="scale(0.0204,-0.0204)"
               d="m -10,-248 c -6,0 -22,2 -30,3 l 12,-38 c 58,4 96,25 134,75 35,46 53,110 53,189 v 484 l -9,4 C 99,448 47,434 -6,428 v -28 h 37 c 40,0 44,-7 44,-73 V -7 c 0,-135 -17,-241 -85,-241 z m 122,936 c -29,0 -56,-27 -56,-55 0,-29 27,-56 55,-56 30,0 56,26 56,56 0,29 -26,55 -55,55 z"
               stroke="#4a90e2"
               stroke-opacity="1"
               stroke-width="24"
               fill="#4a90e2"
               fill-opacity="1"
               id="path190" />
          </g>
        </g>
      </g>
    </g>
    <g
       id="g300">
      <g
         id="g298">
        <g
           id="g204">
          <g
             transform="translate(282,83.48)"
             id="g202">
            <path
               transform="scale(0.02448,-0.02448)"
               d="M 567,55 C 567,39 552,30 524,28 L 480,25 V -3 c 102,3 102,3 122,3 20,0 20,0 122,-3 v 28 l -26,3 c -47,7 -48,7 -56,52 L 555,705 H 509 L 136,112 C 100,56 82,40 48,32 L 28,27 V -3 c 92,3 92,3 112,3 19,0 21,0 107,-3 v 28 l -52,3 c -16,1 -31,10 -31,19 0,8 7,22 26,55 L 292,277 H 538 L 563,89 v -3 c 0,-2 4,-17 4,-31 z M 496,601 533,313 H 317 Z"
               stroke="#000000"
               stroke-opacity="1"
               stroke-width="0"
               fill="#000000"
               fill-opacity="1"
               id="path200" />
          </g>
        </g>
        <g
           id="g210">
          <g
             transform="translate(307.36774,83.48)"
             id="g208">
            <path
               transform="scale(0.02448,-0.02448)"
               d="m 604,347 v 59 H 65 v -59 z m 0,-213 v 59 H 65 v -59 z"
               stroke="#000000"
               stroke-opacity="1"
               stroke-width="0"
               fill="#000000"
               fill-opacity="1"
               id="path206" />
          </g>
        </g>
        <g
           id="g296">
          <g
             id="g220">
            <g
               id="g218">
              <g
                 id="g216">
                <g
                   transform="translate(346.55109,71.48)"
                   id="g214">
                  <path
                     transform="scale(0.02448,-0.02448)"
                     d="M 16,23 V -3 c 187,0 187,3 223,3 36,0 36,-3 229,-3 V 82 C 353,77 307,81 122,77 l 182,193 c 97,103 127,158 127,233 0,115 -78,186 -205,186 -72,0 -121,-20 -170,-70 L 39,483 h 29 l 13,46 c 16,58 52,83 119,83 86,0 141,-54 141,-139 0,-75 -42,-149 -155,-269 z"
                     stroke="#d0021b"
                     stroke-opacity="1"
                     stroke-width="0"
                     fill="#d0021b"
                     fill-opacity="1"
                     id="path212" />
                </g>
              </g>
            </g>
          </g>
          <g
             id="g230">
            <g
               id="g228">
              <g
                 id="g226">
                <g
                   transform="translate(383.32452,71.48)"
                   id="g224">
                  <path
                     transform="scale(0.02448,-0.02448)"
                     d="M 263,689 C 108,689 29,566 29,324 29,207 50,106 85,57 c 35,-49 91,-77 153,-77 151,0 227,130 227,386 0,219 -65,323 -202,323 z M 245,654 C 342,654 381,556 381,316 381,103 343,15 251,15 154,15 113,116 113,360 c 0,211 37,294 132,294 z"
                     stroke="#4a90e2"
                     stroke-opacity="1"
                     stroke-width="0"
                     fill="#4a90e2"
                     fill-opacity="1"
                     id="path222" />
                </g>
              </g>
            </g>
          </g>
          <g
             id="g240">
            <g
               id="g238">
              <g
                 id="g236">
                <g
                   transform="translate(346.55109,100.48)"
                   id="g234">
                  <path
                     transform="scale(0.02448,-0.02448)"
                     d="m 418,-3 v 30 l -52,3 c -55,3 -65,14 -65,66 V 700 L 60,598 67,548 217,614 V 96 C 217,44 206,33 152,30 L 96,27 V -3 c 154,3 154,3 165,3 31,0 141,-3 157,-3 z"
                     stroke="#d0021b"
                     stroke-opacity="1"
                     stroke-width="0"
                     fill="#d0021b"
                     fill-opacity="1"
                     id="path232" />
                </g>
              </g>
            </g>
          </g>
          <g
             id="g250">
            <g
               id="g248">
              <g
                 id="g246">
                <g
                   transform="translate(374.34851,100.48)"
                   id="g244">
                  <path
                     transform="scale(0.02448,-0.02448)"
                     d="M 16,23 V -3 c 187,0 187,3 223,3 36,0 36,-3 229,-3 V 82 C 353,77 307,81 122,77 l 182,193 c 97,103 127,158 127,233 0,115 -78,186 -205,186 -72,0 -121,-20 -170,-70 L 39,483 h 29 l 13,46 c 16,58 52,83 119,83 86,0 141,-54 141,-139 0,-75 -42,-149 -155,-269 z m 607,88 c -30,0 -57,-28 -57,-58 0,-30 27,-58 56,-58 32,0 60,27 60,58 0,30 -28,58 -59,58 z m 584,142 c 0,113 -81,193 -195,193 -48,0 -84,-3 -137,-50 v 209 l 305,-1 v 85 l -357,1 V 322 l 20,-6 c 47,47 74,61 123,61 96,0 156,-68 156,-176 C 1122,90 1058,25 949,25 895,25 845,43 831,69 l -46,82 -24,-14 c 23,-57 35,-89 49,-133 28,-15 68,-24 111,-24 128,0 286,109 286,273 z"
                     stroke="#4a90e2"
                     stroke-opacity="1"
                     stroke-width="0"
                     fill="#4a90e2"
                     fill-opacity="1"
                     id="path242" />
                </g>
              </g>
            </g>
          </g>
          <svg
             x="330.73438"
             overflow="visible"
             y="47"
             height="59"
             width="12.234375"
             version="1.1"
             id="svg256">
            <path
               d="M 9.04,2.45 C 9.04,2.37 8.98,2.34 8.92,2.34 8.88,2.34 8.84,2.36 8.8,2.37 5.13,4.3 2.11,7.74 2.11,15.9 v 0.86 h 2.2 V 15.9 C 4.31,11.25 5.23,5.78 9.08,2.86 9.26,2.73 9.26,2.58 9.26,2.45 Z M 2.07,16.76 v 25.48 h 2.2 V 16.76 Z"
               style="fill:#000000;fill-opacity:1;stroke:none;stroke-width:1px;stroke-opacity:1"
               id="path252" />
            <path
               d="m 9.04,56.55 c 0,0.08 -0.06,0.11 -0.12,0.11 C 8.88,56.66 8.84,56.64 8.8,56.63 5.13,54.7 2.11,51.26 2.11,43.1 v -0.86 h 2.2 v 0.86 c 0,4.65 0.92,10.12 4.77,13.04 0.18,0.13 0.18,0.28 0.18,0.41 z"
               style="fill:#000000;fill-opacity:1;stroke:none;stroke-width:1px;stroke-opacity:1"
               id="path254" />
          </svg>
          <svg
             x="407.73438"
             overflow="visible"
             y="47"
             height="59"
             width="12.234375"
             version="1.1"
             id="svg262">
            <path
               d="m 2.51,2.45 c 0,-0.08 0.06,-0.11 0.12,-0.11 0.04,0 0.08,0.02 0.12,0.03 3.67,1.93 6.69,5.37 6.69,13.53 v 0.86 H 7.24 V 15.9 C 7.24,11.25 6.32,5.78 2.47,2.86 2.29,2.73 2.29,2.58 2.29,2.45 Z M 9.48,16.76 V 42.24 H 7.28 V 16.76 Z"
               style="fill:#000000;fill-opacity:1;stroke:none;stroke-width:1px;stroke-opacity:1"
               id="path258" />
            <path
               d="m 2.51,56.55 c 0,0.08 0.06,0.11 0.12,0.11 0.04,0 0.08,-0.02 0.12,-0.03 C 6.42,54.7 9.44,51.26 9.44,43.1 v -0.86 h -2.2 v 0.86 c 0,4.65 -0.92,10.12 -4.77,13.04 -0.18,0.13 -0.18,0.28 -0.18,0.41 z"
               style="fill:#000000;fill-opacity:1;stroke:none;stroke-width:1px;stroke-opacity:1"
               id="path260" />
          </svg>
          <line
             stroke-dasharray="1"
             style="fill:none"
             x1="338.57812"
             y1="47.5"
             x2="366.5"
             y2="47.5"
             id="line264" />
          <line
             stroke-dasharray="1"
             style="fill:none"
             x1="338.57812"
             y1="47.5"
             x2="338.57812"
             y2="76.5"
             id="line266" />
          <line
             stroke-dasharray="1"
             style="fill:none"
             x1="366.5"
             y1="47.5"
             x2="366.5"
             y2="76.5"
             id="line268" />
          <line
             stroke-dasharray="1"
             style="fill:none"
             x1="338.57812"
             y1="76.5"
             x2="366.5"
             y2="76.5"
             id="line270" />
          <line
             stroke-dasharray="1"
             style="fill:none"
             x1="366.5"
             y1="47.5"
             x2="412.125"
             y2="47.5"
             id="line272" />
          <line
             stroke-dasharray="1"
             style="fill:none"
             x1="366.5"
             y1="47.5"
             x2="366.5"
             y2="76.5"
             id="line274" />
          <line
             stroke-dasharray="1"
             style="fill:none"
             x1="412.125"
             y1="47.5"
             x2="412.125"
             y2="76.5"
             id="line276" />
          <line
             stroke-dasharray="1"
             style="fill:none"
             x1="366.5"
             y1="76.5"
             x2="412.125"
             y2="76.5"
             id="line278" />
          <line
             stroke-dasharray="1"
             style="fill:none"
             x1="338.57812"
             y1="76.5"
             x2="366.5"
             y2="76.5"
             id="line280" />
          <line
             stroke-dasharray="1"
             style="fill:none"
             x1="338.57812"
             y1="76.5"
             x2="338.57812"
             y2="105.5"
             id="line282" />
          <line
             stroke-dasharray="1"
             style="fill:none"
             x1="366.5"
             y1="76.5"
             x2="366.5"
             y2="105.5"
             id="line284" />
          <line
             stroke-dasharray="1"
             style="fill:none"
             x1="338.57812"
             y1="105.5"
             x2="366.5"
             y2="105.5"
             id="line286" />
          <line
             stroke-dasharray="1"
             style="fill:none"
             x1="366.5"
             y1="76.5"
             x2="412.125"
             y2="76.5"
             id="line288" />
          <line
             stroke-dasharray="1"
             style="fill:none"
             x1="366.5"
             y1="76.5"
             x2="366.5"
             y2="105.5"
             id="line290" />
          <line
             stroke-dasharray="1"
             style="fill:none"
             x1="412.125"
             y1="76.5"
             x2="412.125"
             y2="105.5"
             id="line292" />
          <line
             stroke-dasharray="1"
             style="fill:none"
             x1="366.5"
             y1="105.5"
             x2="412.125"
             y2="105.5"
             id="line294" />
        </g>
      </g>
    </g>
    <g
       transform="rotate(61.95,152.5,158.90625)"
       id="g308">
      <g
         id="g306">
        <g
           id="g304">
          <text
             x="81.5625"
             y="145.90625"
             style="font-style:normal;font-weight:400;font-size:21.6px;font-family:Arial, Helvetica, sans-serif;text-decoration:none;text-decoration-line:none;dominant-baseline:text-before-edge;white-space:pre;fill:#000000;fill-opacity:1;stroke:none"
             id="text302">Stretched by 2</text>
        </g>
      </g>
    </g>
    <g
       id="g316">
      <g
         id="g314">
        <g
           id="g312">
          <text
             x="68.125"
             y="321.07812"
             style="font-style:normal;font-weight:400;font-size:21.6px;font-family:Arial, Helvetica, sans-serif;text-decoration:none;text-decoration-line:none;dominant-baseline:text-before-edge;white-space:pre;fill:#000000;fill-opacity:1;stroke:none"
             id="text310">Stretched by 2.5</text>
        </g>
      </g>
    </g>
  </svg>
</svg>
