<svg xmlns="http://www.w3.org/2000/svg" xmlns:xlink="http://www.w3.org/1999/xlink" x="0" y="0" width="962" height="302" style="
        width:962px;
        height:302px;
        background: transparent;
        fill: none;
">
        
        
        <svg xmlns="http://www.w3.org/2000/svg" class="role-diagram-draw-area"><g class="shapes-region" style="stroke: black; fill: none;"><g class="arrow-line"><path class="connection real" stroke-dasharray="" d="  M397,196.05 L513.46,54.14" style="stroke: rgb(245, 166, 35); stroke-opacity: 1; stroke-width: 2; fill: none; fill-opacity: 1;"/><g stroke="none" fill="rgb(245,166,35)" fill-opacity="1" transform="matrix(-0.6344607396357865,0.7729550891615959,-0.7729550891615959,-0.6344607396357865,516,51.046875)" style="stroke: none; fill: rgb(245, 166, 35); stroke-width: 2;"><path d=" M11.61,-5.58 L0,0 L11.61,5.58 Z"/></g></g><g class="arrow-line"><path class="connection real" stroke-dasharray="" d="  M85,197.05 L126.16,117.6" style="stroke: rgb(126, 211, 33); stroke-opacity: 1; stroke-width: 2; fill: none; fill-opacity: 1;"/><g stroke="none" fill="rgb(126,211,33)" fill-opacity="1" transform="matrix(-0.46004482475918923,0.8878956916284068,-0.8878956916284068,-0.46004482475918923,128,114.046875)" style="stroke: none; fill: rgb(126, 211, 33); stroke-width: 2;"><path d=" M11.61,-5.58 L0,0 L11.61,5.58 Z"/></g></g><g class="composite-shape axis2d" style="stroke-width: 2; stroke: rgb(0, 0, 0); stroke-opacity: 1;"><path class="real" d=" M36.64,197.05 L266.19,197.05 M85,32.51 L85,231"/><path d=" M259.19,192.05 L266.19,197.05 L259.19,202.05"/><path d=" M80,39.51 L85,32.51 L90,39.51"/></g><g class="arrow-line"><path class="connection real" stroke-dasharray="" d="  M128,114.05 L243.03,128.55" style="stroke: rgb(74, 144, 226); stroke-opacity: 1; stroke-width: 2; fill: none; fill-opacity: 1;"/><g stroke="none" fill="rgb(74,144,226)" fill-opacity="1" transform="matrix(-0.9921583904222633,-0.12498691257369247,0.12498691257369247,-0.9921583904222633,247.00000000000003,129.04687500000003)" style="stroke: none; fill: rgb(74, 144, 226); stroke-width: 2;"><path d=" M11.61,-5.58 L0,0 L11.61,5.58 Z"/></g></g><g class="arrow-line"><path class="connection real" stroke-dasharray="" d="  M85,197.05 L243.31,130.6" style="stroke: rgb(245, 166, 35); stroke-opacity: 1; stroke-width: 2; fill: none; fill-opacity: 1;"/><g stroke="none" fill="rgb(245,166,35)" fill-opacity="1" transform="matrix(-0.9220659278988154,0.387032846936919,-0.387032846936919,-0.9220659278988154,247.00000000000006,129.046875)" style="stroke: none; fill: rgb(245, 166, 35); stroke-width: 2;"><path d=" M11.61,-5.58 L0,0 L11.61,5.58 Z"/></g></g><g class="arrow-line"><path class="connection real" stroke-dasharray="" d="  M397,196.05 L449.46,132.14" style="stroke: rgb(126, 211, 33); stroke-opacity: 1; stroke-width: 2; fill: none; fill-opacity: 1;"/><g stroke="none" fill="rgb(126,211,33)" fill-opacity="1" transform="matrix(-0.6344607396357865,0.7729550891615959,-0.7729550891615959,-0.6344607396357865,451.99999999999994,129.046875)" style="stroke: none; fill: rgb(126, 211, 33); stroke-width: 2;"><path d=" M11.61,-5.58 L0,0 L11.61,5.58 Z"/></g></g><g class="composite-shape axis2d" style="stroke-width: 2; stroke: rgb(0, 0, 0); stroke-opacity: 1;"><path class="real" d=" M348.64,196.05 L578.19,196.05 M397,31.51 L397,230"/><path d=" M571.19,191.05 L578.19,196.05 L571.19,201.05"/><path d=" M392,38.51 L397,31.51 L402,38.51"/></g><g class="arrow-line"><path class="connection real" stroke-dasharray="" d="  M725,194.05 L773.21,97.62" style="stroke: rgb(126, 211, 33); stroke-opacity: 1; stroke-width: 2; fill: none; fill-opacity: 1;"/><g stroke="none" fill="rgb(126,211,33)" fill-opacity="1" transform="matrix(-0.44729084841871025,0.8943885603700834,-0.8943885603700834,-0.44729084841871025,774.9999999999999,94.046875)" style="stroke: none; fill: rgb(126, 211, 33); stroke-width: 2;"><path d=" M11.61,-5.58 L0,0 L11.61,5.58 Z"/></g></g><g class="composite-shape axis2d" style="stroke-width: 2; stroke: rgb(0, 0, 0); stroke-opacity: 1;"><path class="real" d=" M676.64,194.05 L906.19,194.05 M725,29.51 L725,228"/><path d=" M899.19,189.05 L906.19,194.05 L899.19,199.05"/><path d=" M720,36.51 L725,29.51 L730,36.51"/></g><g class="composite-shape"><path class="real" d=" M653,22.05 L932,22.05 L932,257 L653,257 Z" style="stroke-width: 1; stroke: none; stroke-opacity: 0.1; fill: none; fill-opacity: 1;"/><path class="real" d=" M675,22.05 L675,257 M725,22.05 L725,257 M775,22.05 L775,257 M825,22.05 L825,257 M875,22.05 L875,257 M925,22.05 L925,257" style="stroke-width: 1; stroke: rgb(0, 0, 0); stroke-opacity: 0.1; fill: none; fill-opacity: 1;"/><path class="real" d=" M653,44.05 L932,44.05 M653,94.05 L932,94.05 M653,144.05 L932,144.05 M653,194.05 L932,194.05 M653,244.05 L932,244.05" style="stroke-width: 1; stroke: rgb(0, 0, 0); stroke-opacity: 0.1; fill: none; fill-opacity: 1;"/><path class="real" d=" " style="stroke-width: 1; stroke: rgb(0, 0, 0); stroke-opacity: 0.1; fill: none; fill-opacity: 1;"/></g><g class="arrow-line"><path class="connection real" stroke-dasharray="" d="  M725,194.05 L725,148.05" style="stroke: rgb(74, 144, 226); stroke-opacity: 1; stroke-width: 2; fill: none; fill-opacity: 1;"/><g stroke="none" fill="rgb(74,144,226)" fill-opacity="1" transform="matrix(3.061616997868383e-16,1,-1,3.061616997868383e-16,725,144.046875)" style="stroke: none; fill: rgb(74, 144, 226); stroke-width: 2;"><path d=" M11.61,-5.58 L0,0 L11.61,5.58 Z"/></g></g><g class="arrow-line"><path class="connection real" stroke-dasharray="" d="  M725,194.05 L771,194.05" style="stroke: rgb(208, 2, 27); stroke-opacity: 1; stroke-width: 2; fill: none; fill-opacity: 1;"/><g stroke="none" fill="rgb(208,2,27)" fill-opacity="1" transform="matrix(-1,1.2246467991473532e-16,-1.2246467991473532e-16,-1,775,194.04687499999997)" style="stroke: none; fill: rgb(208, 2, 27); stroke-width: 2;"><path d=" M11.61,-5.58 L0,0 L11.61,5.58 Z"/></g></g><g class="intersections-group"><g style="stroke: rgb(0, 0, 0); stroke-width: 1; fill: none; fill-opacity: 1;"><g/><g/><g/></g></g></g><g/><g/><g/></svg>
        <svg xmlns="http://www.w3.org/2000/svg" xmlns:xlink="http://www.w3.org/1999/xlink" width="960" height="300" style="width:960px;height:300px;font-family:Asana-Math, Asana;background:transparent;"><g><g><g><g transform="matrix(1,0,0,1,251,222.4)"><path transform="matrix(0.020399999999999998,0,0,-0.020399999999999998,0,0)" d="M9 1C24 -7 40 -11 52 -11C85 -11 124 18 155 65L231 182L242 113C255 28 278 -11 314 -11C336 -11 368 6 400 35L449 79L440 98C404 68 379 53 363 53C348 53 335 63 325 83C316 102 305 139 300 168L282 269L317 318C364 383 391 406 422 406C438 406 450 398 455 383L469 387L484 472C472 479 463 482 454 482C414 482 374 446 312 354L275 299L269 347C257 446 230 482 171 482C145 482 123 474 114 461L56 378L73 368C103 402 123 416 142 416C175 416 197 375 214 277L225 215L185 153C142 86 108 54 80 54C65 54 54 58 52 63L41 91L21 88C21 53 13 27 9 1Z" stroke="rgb(0,0,0)" stroke-opacity="1" stroke-width="0" fill="rgb(0,0,0)" fill-opacity="1"></path></g></g></g></g><g><g><g><g transform="matrix(1,0,0,1,63,46.4)"><path transform="matrix(0.020399999999999998,0,0,-0.020399999999999998,0,0)" d="M-7 -180C-8 -187 -8 -193 -8 -198C-8 -241 29 -276 74 -276C180 -276 290 -152 349 33L490 473L479 482C450 471 427 465 405 463L370 331C358 284 323 211 290 162C255 111 206 67 184 67C172 67 163 90 164 115L180 322C182 353 184 391 184 419C184 464 177 482 160 482C147 482 133 475 85 442L3 386L14 368L64 398C69 401 80 410 89 410C103 410 111 391 111 358C111 357 111 351 110 343L93 100L92 60C92 18 110 -11 135 -11C172 -11 256 74 331 187L282 16C231 -161 181 -234 111 -234C76 -234 49 -207 49 -172C49 -167 50 -159 51 -150L41 -146Z" stroke="rgb(0,0,0)" stroke-opacity="1" stroke-width="0" fill="rgb(0,0,0)" fill-opacity="1"></path></g></g></g></g><g><g><g><g transform="matrix(1,0,0,1,64,221.4)"><path transform="matrix(0.020399999999999998,0,0,-0.020399999999999998,0,0)" d="M748 425C748 603 644 706 464 706C227 706 53 523 53 272C53 83 147 -18 323 -18C595 -18 748 207 748 425ZM660 409C660 221 571 24 360 24C216 24 141 110 141 277C141 425 199 664 433 664C549 664 660 610 660 409Z" stroke="rgb(0,0,0)" stroke-opacity="1" stroke-width="0" fill="rgb(0,0,0)" fill-opacity="1"></path></g></g></g></g><g><g><g><g transform="matrix(1,0,0,1,99,141.4)"><path transform="matrix(0.020399999999999998,0,0,-0.020399999999999998,0,0)" d="M539 431L539 459C479 457 461 456 445 456C429 456 411 457 351 459L351 431L392 429C408 428 416 419 416 403C416 387 409 360 397 330C385 301 331 167 293 84L174 372C168 386 165 399 165 410C165 421 174 428 190 429L239 431L239 459C141 456 141 456 122 456C103 456 55 457 6 459L6 431L40 429C55 427 60 421 71 396L243 -7L293 -7L452 362C474 409 488 427 508 429Z" stroke="rgb(0,0,0)" stroke-opacity="1" stroke-width="24" fill="rgb(0,0,0)" fill-opacity="1"></path></g></g></g></g><g><g><g><g transform="matrix(1,0,0,1,203,114.4)"><path transform="matrix(0.020399999999999998,0,0,-0.020399999999999998,0,0)" d="M413 469L254 104C251 113 166 397 166 405C166 420 179 428 204 429L244 431L244 459C145 456 145 456 125 456C105 456 105 456 6 459L6 431L34 429C62 427 75 407 100 329L202 -7L249 -7L399 335L535 -7L581 -7L718 342C748 409 760 426 782 429L808 431L808 459C726 456 726 456 710 456C694 456 694 456 612 459L612 431L646 429C671 428 685 416 685 398L580 98L465 388C451 422 444 442 436 469Z" stroke="rgb(0,0,0)" stroke-opacity="1" stroke-width="24" fill="rgb(0,0,0)" fill-opacity="1"></path></g></g></g></g><g transform="matrix(0.9136164326642494,-0.4065771931206313,0.4065771931206313,0.9136164326642494,-49.04235493936778,99.4560637956127)"><g><g><g transform="matrix(1,0,0,1,183.796875,173.540625)"><path transform="matrix(0.020399999999999998,0,0,-0.020399999999999998,0,0)" d="M539 431L539 459C479 457 461 456 445 456C429 456 411 457 351 459L351 431L392 429C408 428 416 419 416 403C416 387 409 360 397 330C385 301 331 167 293 84L174 372C168 386 165 399 165 410C165 421 174 428 190 429L239 431L239 459C141 456 141 456 122 456C103 456 55 457 6 459L6 431L40 429C55 427 60 421 71 396L243 -7L293 -7L452 362C474 409 488 427 508 429Z" stroke="rgb(0,0,0)" stroke-opacity="1" stroke-width="24" fill="rgb(0,0,0)" fill-opacity="1"></path></g></g><g><g transform="matrix(1,0,0,1,200.15499877929688,173.540625)"><path transform="matrix(0.020399999999999998,0,0,-0.020399999999999998,0,0)" d="M604 241L604 300L364 300L364 538L305 538L305 300L65 300L65 241L305 241L305 0L364 0L364 241Z" stroke="rgb(0,0,0)" stroke-opacity="1" stroke-width="0" fill="rgb(0,0,0)" fill-opacity="1"></path></g></g><g><g transform="matrix(1,0,0,1,217.5931396484375,173.540625)"><path transform="matrix(0.020399999999999998,0,0,-0.020399999999999998,0,0)" d="M413 469L254 104C251 113 166 397 166 405C166 420 179 428 204 429L244 431L244 459C145 456 145 456 125 456C105 456 105 456 6 459L6 431L34 429C62 427 75 407 100 329L202 -7L249 -7L399 335L535 -7L581 -7L718 342C748 409 760 426 782 429L808 431L808 459C726 456 726 456 710 456C694 456 694 456 612 459L612 431L646 429C671 428 685 416 685 398L580 98L465 388C451 422 444 442 436 469Z" stroke="rgb(0,0,0)" stroke-opacity="1" stroke-width="24" fill="rgb(0,0,0)" fill-opacity="1"></path></g></g></g></g><g><g><g><g transform="matrix(1,0,0,1,563,220.4)"><path transform="matrix(0.020399999999999998,0,0,-0.020399999999999998,0,0)" d="M9 1C24 -7 40 -11 52 -11C85 -11 124 18 155 65L231 182L242 113C255 28 278 -11 314 -11C336 -11 368 6 400 35L449 79L440 98C404 68 379 53 363 53C348 53 335 63 325 83C316 102 305 139 300 168L282 269L317 318C364 383 391 406 422 406C438 406 450 398 455 383L469 387L484 472C472 479 463 482 454 482C414 482 374 446 312 354L275 299L269 347C257 446 230 482 171 482C145 482 123 474 114 461L56 378L73 368C103 402 123 416 142 416C175 416 197 375 214 277L225 215L185 153C142 86 108 54 80 54C65 54 54 58 52 63L41 91L21 88C21 53 13 27 9 1Z" stroke="rgb(0,0,0)" stroke-opacity="1" stroke-width="0" fill="rgb(0,0,0)" fill-opacity="1"></path></g></g></g></g><g><g><g><g transform="matrix(1,0,0,1,375,45.4)"><path transform="matrix(0.020399999999999998,0,0,-0.020399999999999998,0,0)" d="M-7 -180C-8 -187 -8 -193 -8 -198C-8 -241 29 -276 74 -276C180 -276 290 -152 349 33L490 473L479 482C450 471 427 465 405 463L370 331C358 284 323 211 290 162C255 111 206 67 184 67C172 67 163 90 164 115L180 322C182 353 184 391 184 419C184 464 177 482 160 482C147 482 133 475 85 442L3 386L14 368L64 398C69 401 80 410 89 410C103 410 111 391 111 358C111 357 111 351 110 343L93 100L92 60C92 18 110 -11 135 -11C172 -11 256 74 331 187L282 16C231 -161 181 -234 111 -234C76 -234 49 -207 49 -172C49 -167 50 -159 51 -150L41 -146Z" stroke="rgb(0,0,0)" stroke-opacity="1" stroke-width="0" fill="rgb(0,0,0)" fill-opacity="1"></path></g></g></g></g><g><g><g><g transform="matrix(1,0,0,1,376,220.4)"><path transform="matrix(0.020399999999999998,0,0,-0.020399999999999998,0,0)" d="M748 425C748 603 644 706 464 706C227 706 53 523 53 272C53 83 147 -18 323 -18C595 -18 748 207 748 425ZM660 409C660 221 571 24 360 24C216 24 141 110 141 277C141 425 199 664 433 664C549 664 660 610 660 409Z" stroke="rgb(0,0,0)" stroke-opacity="1" stroke-width="0" fill="rgb(0,0,0)" fill-opacity="1"></path></g></g></g></g><g><g><g><g transform="matrix(1,0,0,1,415,146.4)"><path transform="matrix(0.020399999999999998,0,0,-0.020399999999999998,0,0)" d="M539 431L539 459C479 457 461 456 445 456C429 456 411 457 351 459L351 431L392 429C408 428 416 419 416 403C416 387 409 360 397 330C385 301 331 167 293 84L174 372C168 386 165 399 165 410C165 421 174 428 190 429L239 431L239 459C141 456 141 456 122 456C103 456 55 457 6 459L6 431L40 429C55 427 60 421 71 396L243 -7L293 -7L452 362C474 409 488 427 508 429Z" stroke="rgb(0,0,0)" stroke-opacity="1" stroke-width="24" fill="rgb(0,0,0)" fill-opacity="1"></path></g></g></g></g><g><g><g><g transform="matrix(1,0,0,1,470,72.4)"><path transform="matrix(0.020399999999999998,0,0,-0.020399999999999998,0,0)" d="M209 656L209 648C211 643 213 639 218 637C235 642 266 653 282 653C334 653 343 500 347 460C219 320 120 161 25 -2L35 -16C60 -5 85 4 111 13C154 159 261 308 353 428C361 365 384 13 401 -6C456 -42 528 44 570 74L570 87L558 87L558 88C541 77 512 55 491 55C452 55 444 188 439 219C424 326 399 672 383 689C347 728 251 667 209 656Z" stroke="rgb(0,0,0)" stroke-opacity="1" stroke-width="0" fill="rgb(0,0,0)" fill-opacity="1"></path></g></g><g><g transform="matrix(1,0,0,1,482.3599853515625,72.4)"><path transform="matrix(0.020399999999999998,0,0,-0.020399999999999998,0,0)" d="M539 431L539 459C479 457 461 456 445 456C429 456 411 457 351 459L351 431L392 429C408 428 416 419 416 403C416 387 409 360 397 330C385 301 331 167 293 84L174 372C168 386 165 399 165 410C165 421 174 428 190 429L239 431L239 459C141 456 141 456 122 456C103 456 55 457 6 459L6 431L40 429C55 427 60 421 71 396L243 -7L293 -7L452 362C474 409 488 427 508 429Z" stroke="rgb(0,0,0)" stroke-opacity="1" stroke-width="24" fill="rgb(0,0,0)" fill-opacity="1"></path></g></g></g></g><g><g><g><text x="115" y="258" style="white-space:pre;stroke:none;fill:rgb(0,0,0);fill-opacity:1;font-size:15px;font-family:Arial, Helvetica, sans-serif;font-weight:400;font-style:normal;dominant-baseline:text-before-edge;text-decoration:none;">vector addition</text></g></g></g><g><g><g><text x="371" y="255" style="white-space:pre;stroke:none;fill:rgb(0,0,0);fill-opacity:1;font-size:15px;font-family:Arial, Helvetica, sans-serif;font-weight:400;font-style:normal;dominant-baseline:text-before-edge;text-decoration:none;">vector multiplication by number</text></g></g></g><g><g><g><g transform="matrix(1,0,0,1,891,219.4)"><path transform="matrix(0.020399999999999998,0,0,-0.020399999999999998,0,0)" d="M9 1C24 -7 40 -11 52 -11C85 -11 124 18 155 65L231 182L242 113C255 28 278 -11 314 -11C336 -11 368 6 400 35L449 79L440 98C404 68 379 53 363 53C348 53 335 63 325 83C316 102 305 139 300 168L282 269L317 318C364 383 391 406 422 406C438 406 450 398 455 383L469 387L484 472C472 479 463 482 454 482C414 482 374 446 312 354L275 299L269 347C257 446 230 482 171 482C145 482 123 474 114 461L56 378L73 368C103 402 123 416 142 416C175 416 197 375 214 277L225 215L185 153C142 86 108 54 80 54C65 54 54 58 52 63L41 91L21 88C21 53 13 27 9 1Z" stroke="rgb(0,0,0)" stroke-opacity="1" stroke-width="0" fill="rgb(0,0,0)" fill-opacity="1"></path></g></g></g></g><g><g><g><g transform="matrix(1,0,0,1,703,43.4)"><path transform="matrix(0.020399999999999998,0,0,-0.020399999999999998,0,0)" d="M-7 -180C-8 -187 -8 -193 -8 -198C-8 -241 29 -276 74 -276C180 -276 290 -152 349 33L490 473L479 482C450 471 427 465 405 463L370 331C358 284 323 211 290 162C255 111 206 67 184 67C172 67 163 90 164 115L180 322C182 353 184 391 184 419C184 464 177 482 160 482C147 482 133 475 85 442L3 386L14 368L64 398C69 401 80 410 89 410C103 410 111 391 111 358C111 357 111 351 110 343L93 100L92 60C92 18 110 -11 135 -11C172 -11 256 74 331 187L282 16C231 -161 181 -234 111 -234C76 -234 49 -207 49 -172C49 -167 50 -159 51 -150L41 -146Z" stroke="rgb(0,0,0)" stroke-opacity="1" stroke-width="0" fill="rgb(0,0,0)" fill-opacity="1"></path></g></g></g></g><g><g><g><g transform="matrix(1,0,0,1,704,218.4)"><path transform="matrix(0.020399999999999998,0,0,-0.020399999999999998,0,0)" d="M748 425C748 603 644 706 464 706C227 706 53 523 53 272C53 83 147 -18 323 -18C595 -18 748 207 748 425ZM660 409C660 221 571 24 360 24C216 24 141 110 141 277C141 425 199 664 433 664C549 664 660 610 660 409Z" stroke="rgb(0,0,0)" stroke-opacity="1" stroke-width="0" fill="rgb(0,0,0)" fill-opacity="1"></path></g></g></g></g><g><g><g><g transform="matrix(1,0,0,1,773,141.4)"><path transform="matrix(0.020399999999999998,0,0,-0.020399999999999998,0,0)" d="M539 431L539 459C479 457 461 456 445 456C429 456 411 457 351 459L351 431L392 429C408 428 416 419 416 403C416 387 409 360 397 330C385 301 331 167 293 84L174 372C168 386 165 399 165 410C165 421 174 428 190 429L239 431L239 459C141 456 141 456 122 456C103 456 55 457 6 459L6 431L40 429C55 427 60 421 71 396L243 -7L293 -7L452 362C474 409 488 427 508 429Z" stroke="rgb(0,0,0)" stroke-opacity="1" stroke-width="24" fill="rgb(0,0,0)" fill-opacity="1"></path></g></g><g><g transform="matrix(1,0,0,1,791.389404296875,141.4)"><path transform="matrix(0.020399999999999998,0,0,-0.020399999999999998,0,0)" d="M604 347L604 406L65 406L65 347ZM604 134L604 193L65 193L65 134Z" stroke="rgb(0,0,0)" stroke-opacity="1" stroke-width="0" fill="rgb(0,0,0)" fill-opacity="1"></path></g></g><g><g transform="matrix(1,0,0,1,810.8587646484375,141.4)"><path transform="matrix(0.020399999999999998,0,0,-0.020399999999999998,0,0)" d="M9 1C24 -7 40 -11 52 -11C85 -11 124 18 155 65L231 182L242 113C255 28 278 -11 314 -11C336 -11 368 6 400 35L449 79L440 98C404 68 379 53 363 53C348 53 335 63 325 83C316 102 305 139 300 168L282 269L317 318C364 383 391 406 422 406C438 406 450 398 455 383L469 387L484 472C472 479 463 482 454 482C414 482 374 446 312 354L275 299L269 347C257 446 230 482 171 482C145 482 123 474 114 461L56 378L73 368C103 402 123 416 142 416C175 416 197 375 214 277L225 215L185 153C142 86 108 54 80 54C65 54 54 58 52 63L41 91L21 88C21 53 13 27 9 1Z" stroke="rgb(208,2,27)" stroke-opacity="1" stroke-width="0" fill="rgb(208,2,27)" fill-opacity="1"></path></g></g><g><g transform="matrix(1,0,0,1,820.8387451171875,141.4)"><path transform="matrix(0.020399999999999998,0,0,-0.020399999999999998,0,0)" d="M188 465L179 469C128 448 76 434 23 428L23 400L60 400C100 400 104 393 104 327L104 102C104 39 101 32 67 30L21 27L21 -3C121 0 121 0 146 0C171 0 171 0 271 -3L271 27L225 30C191 32 188 39 188 102ZM142 687C112 687 86 661 86 631C86 602 112 576 141 576C170 576 197 602 197 631C197 659 170 687 142 687Z" stroke="rgb(208,2,27)" stroke-opacity="1" stroke-width="24" fill="rgb(208,2,27)" fill-opacity="1"></path></g></g><g><g transform="matrix(1,0,0,1,831.7168579101562,141.4)"><path transform="matrix(0.020399999999999998,0,0,-0.020399999999999998,0,0)" d="M604 241L604 300L364 300L364 538L305 538L305 300L65 300L65 241L305 241L305 0L364 0L364 241Z" stroke="rgb(0,0,0)" stroke-opacity="1" stroke-width="0" fill="rgb(0,0,0)" fill-opacity="1"></path></g></g><g><g transform="matrix(1,0,0,1,849.155029296875,141.4)"><path transform="matrix(0.020399999999999998,0,0,-0.020399999999999998,0,0)" d="M-7 -180C-8 -187 -8 -193 -8 -198C-8 -241 29 -276 74 -276C180 -276 290 -152 349 33L490 473L479 482C450 471 427 465 405 463L370 331C358 284 323 211 290 162C255 111 206 67 184 67C172 67 163 90 164 115L180 322C182 353 184 391 184 419C184 464 177 482 160 482C147 482 133 475 85 442L3 386L14 368L64 398C69 401 80 410 89 410C103 410 111 391 111 358C111 357 111 351 110 343L93 100L92 60C92 18 110 -11 135 -11C172 -11 256 74 331 187L282 16C231 -161 181 -234 111 -234C76 -234 49 -207 49 -172C49 -167 50 -159 51 -150L41 -146Z" stroke="rgb(74,144,226)" stroke-opacity="1" stroke-width="0" fill="rgb(74,144,226)" fill-opacity="1"></path></g></g><g><g transform="matrix(1,0,0,1,859.135009765625,141.4)"><path transform="matrix(0.020399999999999998,0,0,-0.020399999999999998,0,0)" d="M-10 -248C-16 -248 -32 -246 -40 -245L-28 -283C30 -279 68 -258 106 -208C141 -162 159 -98 159 -19L159 465L150 469C99 448 47 434 -6 428L-6 400L31 400C71 400 75 393 75 327L75 -7C75 -142 58 -248 -10 -248ZM112 688C83 688 56 661 56 633C56 604 83 577 111 577C141 577 167 603 167 633C167 662 141 688 112 688Z" stroke="rgb(74,144,226)" stroke-opacity="1" stroke-width="24" fill="rgb(74,144,226)" fill-opacity="1"></path></g></g></g></g><g><g><g><text x="735" y="259" style="white-space:pre;stroke:none;fill:rgb(0,0,0);fill-opacity:1;font-size:15px;font-family:Arial, Helvetica, sans-serif;font-weight:400;font-style:normal;dominant-baseline:text-before-edge;text-decoration:none;">basis vectors</text></g></g></g><g><g><g><g transform="matrix(1,0,0,1,744,221.4)"><path transform="matrix(0.020399999999999998,0,0,-0.020399999999999998,0,0)" d="M188 465L179 469C128 448 76 434 23 428L23 400L60 400C100 400 104 393 104 327L104 102C104 39 101 32 67 30L21 27L21 -3C121 0 121 0 146 0C171 0 171 0 271 -3L271 27L225 30C191 32 188 39 188 102ZM142 687C112 687 86 661 86 631C86 602 112 576 141 576C170 576 197 602 197 631C197 659 170 687 142 687Z" stroke="rgb(208,2,27)" stroke-opacity="1" stroke-width="24" fill="rgb(208,2,27)" fill-opacity="1"></path></g></g></g></g><g><g><g><g transform="matrix(1,0,0,1,704,179.4)"><path transform="matrix(0.020399999999999998,0,0,-0.020399999999999998,0,0)" d="M-10 -248C-16 -248 -32 -246 -40 -245L-28 -283C30 -279 68 -258 106 -208C141 -162 159 -98 159 -19L159 465L150 469C99 448 47 434 -6 428L-6 400L31 400C71 400 75 393 75 327L75 -7C75 -142 58 -248 -10 -248ZM112 688C83 688 56 661 56 633C56 604 83 577 111 577C141 577 167 603 167 633C167 662 141 688 112 688Z" stroke="rgb(74,144,226)" stroke-opacity="1" stroke-width="24" fill="rgb(74,144,226)" fill-opacity="1"></path></g></g></g></g><g><g><g><g transform="matrix(1,0,0,1,706,148.3)"><path transform="matrix(0.015300000000000001,0,0,-0.015300000000000001,0,0)" d="M418 -3L418 27L366 30C311 33 301 44 301 96L301 700L60 598L67 548L217 614L217 96C217 44 206 33 152 30L96 27L96 -3C250 0 250 0 261 0C292 0 402 -3 418 -3Z" stroke="rgb(0,0,0)" stroke-opacity="1" stroke-width="0" fill="rgb(0,0,0)" fill-opacity="1"></path></g></g></g></g><g><g><g><g transform="matrix(1,0,0,1,771,215.3)"><path transform="matrix(0.015300000000000001,0,0,-0.015300000000000001,0,0)" d="M418 -3L418 27L366 30C311 33 301 44 301 96L301 700L60 598L67 548L217 614L217 96C217 44 206 33 152 30L96 27L96 -3C250 0 250 0 261 0C292 0 402 -3 418 -3Z" stroke="rgb(0,0,0)" stroke-opacity="1" stroke-width="0" fill="rgb(0,0,0)" fill-opacity="1"></path></g></g></g></g><g><g><g><g transform="matrix(1,0,0,1,821,214.3)"><path transform="matrix(0.015300000000000001,0,0,-0.015300000000000001,0,0)" d="M16 23L16 -3C203 -3 203 0 239 0C275 0 275 -3 468 -3L468 82C353 77 307 81 122 77L304 270C401 373 431 428 431 503C431 618 353 689 226 689C154 689 105 669 56 619L39 483L68 483L81 529C97 587 133 612 200 612C286 612 341 558 341 473C341 398 299 324 186 204Z" stroke="rgb(0,0,0)" stroke-opacity="1" stroke-width="0" fill="rgb(0,0,0)" fill-opacity="1"></path></g></g></g></g><g><g><g><g transform="matrix(1,0,0,1,706,98.3)"><path transform="matrix(0.015300000000000001,0,0,-0.015300000000000001,0,0)" d="M16 23L16 -3C203 -3 203 0 239 0C275 0 275 -3 468 -3L468 82C353 77 307 81 122 77L304 270C401 373 431 428 431 503C431 618 353 689 226 689C154 689 105 669 56 619L39 483L68 483L81 529C97 587 133 612 200 612C286 612 341 558 341 473C341 398 299 324 186 204Z" stroke="rgb(0,0,0)" stroke-opacity="1" stroke-width="0" fill="rgb(0,0,0)" fill-opacity="1"></path></g></g></g></g></svg>
</svg>
