<?xml version="1.0" encoding="UTF-8" standalone="no"?>
<svg
   x="0"
   y="0"
   width="300"
   height="258"
   style="fill:none"
   version="1.1"
   id="svg158"
   sodipodi:docname="diagram-20230707.svg"
   inkscape:version="1.2.2 (b0a8486, 2022-12-01)"
   xmlns:inkscape="http://www.inkscape.org/namespaces/inkscape"
   xmlns:sodipodi="http://sodipodi.sourceforge.net/DTD/sodipodi-0.dtd"
   xmlns="http://www.w3.org/2000/svg"
   xmlns:svg="http://www.w3.org/2000/svg">
  <defs
     id="defs162" />
  <sodipodi:namedview
     id="namedview160"
     pagecolor="#ffffff"
     bordercolor="#000000"
     borderopacity="0.25"
     inkscape:showpageshadow="2"
     inkscape:pageopacity="0.0"
     inkscape:pagecheckerboard="0"
     inkscape:deskcolor="#d1d1d1"
     showgrid="false"
     inkscape:zoom="1.7160121"
     inkscape:cx="331"
     inkscape:cy="129.07835"
     inkscape:window-width="1280"
     inkscape:window-height="677"
     inkscape:window-x="0"
     inkscape:window-y="25"
     inkscape:window-maximized="0"
     inkscape:current-layer="svg158" />
  <svg
     class="role-diagram-draw-area"
     version="1.1"
     id="svg92"
     width="100%"
     height="100%">
    <g
       class="shapes-region"
       style="fill:none;stroke:#000000"
       id="g84">
      <g
         class="composite-shape"
         id="g10">
        <path
           class="real"
           d="M -136.49,169.74 79.92,-205.09 486.42,29.6 270.01,404.43 Z"
           style="fill:none;fill-opacity:1;stroke:none;stroke-width:1;stroke-opacity:0.1"
           id="path2" />
        <path
           class="real"
           d="m -125.49,150.69 406.5,234.69 m -381.5,-277.99 406.5,234.69 M -75.49,64.09 331.01,298.78 M -50.49,20.79 356.01,255.48 m -381.5,-278 406.5,234.7 m -381.5,-278 406.5,234.7 m -381.5,-278 406.5,234.69 M 49.51,-152.42 456.01,82.27 M 74.51,-195.72 481.01,38.97"
           style="fill:none;fill-opacity:1;stroke:#4a4a4a;stroke-width:1;stroke-opacity:0.1"
           id="path4" />
        <path
           class="real"
           d="M -117.44,180.74 98.97,-194.09 M -74.14,205.74 142.27,-169.09 M -30.84,230.74 185.57,-144.09 M 12.46,255.74 228.87,-119.09 M 55.77,280.74 272.18,-94.09 M 99.07,305.74 315.48,-69.09 M 142.37,330.74 358.78,-44.09 M 185.67,355.74 402.08,-19.09 M 228.97,380.74 445.38,5.91"
           style="fill:none;fill-opacity:1;stroke:#4a4a4a;stroke-width:1;stroke-opacity:0.1"
           id="path6" />
        <path
           class="real"
           d=""
           style="fill:none;fill-opacity:1;stroke:#4a4a4a;stroke-width:1;stroke-opacity:0.1"
           id="path8" />
      </g>
      <g
         class="composite-shape"
         id="g20">
        <path
           class="real"
           d="M -55.23,-96.91 H 402.52 V 372.55 H -55.23 Z"
           style="fill:none;fill-opacity:1;stroke:none;stroke-width:1;stroke-opacity:0.1"
           id="path12" />
        <path
           class="real"
           d="m -33.23,-96.91 v 469.46 m 50,-469.46 v 469.46 m 50,-469.46 v 469.46 m 50,-469.46 v 469.46 m 50,-469.46 v 469.46 m 50,-469.46 v 469.46 m 50,-469.46 v 469.46 m 50,-469.46 v 469.46 m 50,-469.46 v 469.46"
           style="fill:none;fill-opacity:1;stroke:#000000;stroke-width:1;stroke-opacity:0.1"
           id="path14" />
        <path
           class="real"
           d="m -55.23,-74.91 h 457.75 m -457.75,50 h 457.75 m -457.75,50 h 457.75 m -457.75,50 h 457.75 m -457.75,50 h 457.75 m -457.75,50 h 457.75 m -457.75,50 h 457.75 m -457.75,50 h 457.75 m -457.75,50 h 457.75"
           style="fill:none;fill-opacity:1;stroke:#000000;stroke-width:1;stroke-opacity:0.1"
           id="path16" />
        <path
           class="real"
           d=""
           style="fill:none;fill-opacity:1;stroke:#000000;stroke-width:1;stroke-opacity:0.1"
           id="path18" />
      </g>
      <g
         class="composite-shape axis2d"
         style="stroke:#7ed321;stroke-width:1;stroke-opacity:1"
         id="g28">
        <path
           class="real"
           d="M 18.5,175.09 H 275.77 M 116.77,36.63 V 234.49"
           id="path22" />
        <path
           d="m 268.77,170.09 7,5 -7,5"
           id="path24" />
        <path
           d="m 111.77,43.63 5,-7 5,7"
           id="path26" />
      </g>
      <g
         class="composite-shape"
         id="g32">
        <path
           class="real"
           d="m 117.64,74.97 h 99 v 99 h -99 z"
           style="fill:#7ed321;fill-opacity:0.2;stroke:#7ed321;stroke-width:1;stroke-opacity:1"
           id="path30" />
      </g>
      <g
         class="composite-shape"
         id="g36">
        <path
           class="real"
           d="m 31.04,123.97 50,-86.6 86.6,50 -50,86.6 z"
           style="fill:#f5a623;fill-opacity:0.2;stroke:#f5a623;stroke-width:1;stroke-opacity:1"
           id="path34" />
      </g>
      <g
         class="arrow-line"
         id="g44">
        <path
           class="connection real"
           stroke-dasharray="none"
           d="m 213.64,174.98 -96.87,0.11"
           style="fill:none;fill-opacity:1;stroke:#d0021b;stroke-width:2;stroke-opacity:0.3"
           id="path38" />
        <g
           stroke="none"
           fill="rgb(208,2,27)"
           fill-opacity="0.3"
           transform="rotate(179.93,108.76618,87.552279)"
           style="fill:#d0021b;stroke:none;stroke-width:2"
           id="g42">
          <path
             d="M 11.61,-5.58 0,0 11.61,5.58 Z"
             id="path40" />
        </g>
      </g>
      <g
         class="arrow-line"
         id="g52">
        <path
           class="connection real"
           stroke-dasharray="none"
           d="m 166,91.91 -48,83.14"
           style="fill:none;fill-opacity:1;stroke:#d0021b;stroke-width:2;stroke-opacity:1"
           id="path46" />
        <g
           stroke="none"
           fill="rgb(208,2,27)"
           fill-opacity="1"
           transform="rotate(120,58.46832,92.71959)"
           style="fill:#d0021b;stroke:none;stroke-width:2"
           id="g50">
          <path
             d="M 11.61,-5.58 0,0 11.61,5.58 Z"
             id="path48" />
        </g>
      </g>
      <g
         class="arrow-line"
         id="g60">
        <path
           class="connection real"
           stroke-dasharray="none"
           d="M 117.65,78.97 118,175.05"
           style="fill:none;fill-opacity:1;stroke:#4a90e2;stroke-width:2;stroke-opacity:0.4"
           id="path54" />
        <g
           stroke="none"
           fill="rgb(74,144,226)"
           fill-opacity="0.4"
           transform="rotate(89.79,21.196173,96.521408)"
           style="fill:#4a90e2;stroke:none;stroke-width:2"
           id="g58">
          <path
             d="M 11.61,-5.58 0,0 11.61,5.58 Z"
             id="path56" />
        </g>
      </g>
      <g
         class="arrow-line"
         id="g68">
        <path
           class="connection real"
           stroke-dasharray="none"
           d="m 34.86,127.05 83.14,48"
           style="fill:none;fill-opacity:1;stroke:#4a90e2;stroke-width:2;stroke-opacity:1"
           id="path62" />
        <g
           stroke="none"
           fill="rgb(74,144,226)"
           fill-opacity="1"
           transform="rotate(30,-217.64192,121.11189)"
           style="fill:#4a90e2;stroke:none;stroke-width:2"
           id="g66">
          <path
             d="M 11.61,-5.58 0,0 11.61,5.58 Z"
             id="path64" />
        </g>
      </g>
      <g
         class="composite-shape"
         id="g72">
        <path
           class="real"
           d="m 138.08,134.4 c 14.26,7.55 24.06,22.45 24.43,39.69 l -45.74,1 z"
           style="fill:#4a90e2;fill-opacity:0.15;stroke:none;stroke-width:1;stroke-opacity:1"
           id="path70" />
      </g>
      <g
         class="arrow-line"
         id="g80">
        <path
           class="connection real"
           stroke-dasharray="none"
           d="m 162.51,174.09 c -4.15,-17.52 -9.56,-28.23 -21.24,-37.35"
           style="fill:none;fill-opacity:1;stroke:#4a90e2;stroke-width:2;stroke-opacity:1"
           id="path74" />
        <g
           stroke="none"
           fill="rgb(74,144,226)"
           fill-opacity="1"
           transform="rotate(34.74,-145.78227,287.91612)"
           style="fill:#4a90e2;stroke:none;stroke-width:2"
           id="g78">
          <path
             d="M 11.07,-5.32 0,0 11.07,5.32 7.35,0 Z"
             id="path76" />
        </g>
      </g>
      <g
         id="g82" />
    </g>
    <g
       id="g86" />
    <g
       id="g88" />
    <g
       id="g90" />
  </svg>
  <svg
     width="660"
     height="256"
     style="font-family:Asana-Math, Asana"
     version="1.1"
     id="svg156">
    <g
       id="g102">
      <g
         id="g100">
        <g
           id="g98">
          <g
             transform="translate(162,151.4)"
             id="g96">
            <path
               transform="scale(0.0204,-0.0204)"
               d="m 237,-16 c 236,0 335,332 339,520 2,114 -30,198 -157,198 C 159,702 72,412 69,199 67,80 101,-16 237,-16 Z m 164,692 c 135,0 105,-185 84,-295 H 169 c 25,104 103,295 232,295 z M 253,13 C 102,13 147,261 163,349 H 479 C 454,237 396,13 253,13 Z"
               stroke="#9013fe"
               stroke-opacity="1"
               stroke-width="0"
               fill="#9013fe"
               fill-opacity="1"
               id="path94" />
          </g>
        </g>
      </g>
    </g>
    <g
       id="g112">
      <g
         id="g110">
        <g
           id="g108">
          <g
             transform="translate(200.125,198.9)"
             id="g106">
            <path
               transform="scale(0.0204,-0.0204)"
               d="m 188,465 -9,4 C 128,448 76,434 23,428 v -28 h 37 c 40,0 44,-7 44,-73 V 102 C 104,39 101,32 67,30 L 21,27 V -3 c 100,3 100,3 125,3 25,0 25,0 125,-3 v 30 l -46,3 c -34,2 -37,9 -37,72 z m -46,222 c -30,0 -56,-26 -56,-56 0,-29 26,-55 55,-55 29,0 56,26 56,55 0,28 -27,56 -55,56 z"
               stroke="#d0021b"
               stroke-opacity="1"
               stroke-width="24"
               fill="#d0021b"
               fill-opacity="1"
               id="path104" />
          </g>
        </g>
      </g>
    </g>
    <g
       id="g128">
      <g
         id="g126">
        <g
           id="g118">
          <g
             transform="translate(175.125,99.9)"
             id="g116">
            <path
               transform="scale(0.0204,-0.0204)"
               d="M 567,55 C 567,39 552,30 524,28 L 480,25 V -3 c 102,3 102,3 122,3 20,0 20,0 122,-3 v 28 l -26,3 c -47,7 -48,7 -56,52 L 555,705 H 509 L 136,112 C 100,56 82,40 48,32 L 28,27 V -3 c 92,3 92,3 112,3 19,0 21,0 107,-3 v 28 l -52,3 c -16,1 -31,10 -31,19 0,8 7,22 26,55 L 292,277 H 538 L 563,89 v -3 c 0,-2 4,-17 4,-31 z M 496,601 533,313 H 317 Z"
               stroke="#d0021b"
               stroke-opacity="1"
               stroke-width="0"
               fill="#d0021b"
               fill-opacity="1"
               id="path114" />
          </g>
        </g>
        <g
           id="g124">
          <g
             transform="translate(190.14502,99.9)"
             id="g122">
            <path
               transform="scale(0.0204,-0.0204)"
               d="m 188,465 -9,4 C 128,448 76,434 23,428 v -28 h 37 c 40,0 44,-7 44,-73 V 102 C 104,39 101,32 67,30 L 21,27 V -3 c 100,3 100,3 125,3 25,0 25,0 125,-3 v 30 l -46,3 c -34,2 -37,9 -37,72 z m -46,222 c -30,0 -56,-26 -56,-56 0,-29 26,-55 55,-55 29,0 56,26 56,55 0,28 -27,56 -55,56 z"
               stroke="#d0021b"
               stroke-opacity="1"
               stroke-width="24"
               fill="#d0021b"
               fill-opacity="1"
               id="path120" />
          </g>
        </g>
      </g>
    </g>
    <g
       id="g138">
      <g
         id="g136">
        <g
           id="g134">
          <g
             transform="translate(99.125,87.9)"
             id="g132">
            <path
               transform="scale(0.0204,-0.0204)"
               d="m -10,-248 c -6,0 -22,2 -30,3 l 12,-38 c 58,4 96,25 134,75 35,46 53,110 53,189 v 484 l -9,4 C 99,448 47,434 -6,428 v -28 h 37 c 40,0 44,-7 44,-73 V -7 c 0,-135 -17,-241 -85,-241 z m 122,936 c -29,0 -56,-27 -56,-55 0,-29 27,-56 55,-56 30,0 56,26 56,56 0,29 -26,55 -55,55 z"
               stroke="#4a90e2"
               stroke-opacity="1"
               stroke-width="24"
               fill="#4a90e2"
               fill-opacity="1"
               id="path130" />
          </g>
        </g>
      </g>
    </g>
    <g
       id="g154">
      <g
         id="g152">
        <g
           id="g144">
          <g
             transform="translate(21.125,155.9)"
             id="g142">
            <path
               transform="scale(0.0204,-0.0204)"
               d="M 567,55 C 567,39 552,30 524,28 L 480,25 V -3 c 102,3 102,3 122,3 20,0 20,0 122,-3 v 28 l -26,3 c -47,7 -48,7 -56,52 L 555,705 H 509 L 136,112 C 100,56 82,40 48,32 L 28,27 V -3 c 92,3 92,3 112,3 19,0 21,0 107,-3 v 28 l -52,3 c -16,1 -31,10 -31,19 0,8 7,22 26,55 L 292,277 H 538 L 563,89 v -3 c 0,-2 4,-17 4,-31 z M 496,601 533,313 H 317 Z"
               stroke="#4a90e2"
               stroke-opacity="1"
               stroke-width="0"
               fill="#4a90e2"
               fill-opacity="1"
               id="path140" />
          </g>
        </g>
        <g
           id="g150">
          <g
             transform="translate(36.144989,155.9)"
             id="g148">
            <path
               transform="scale(0.0204,-0.0204)"
               d="m -10,-248 c -6,0 -22,2 -30,3 l 12,-38 c 58,4 96,25 134,75 35,46 53,110 53,189 v 484 l -9,4 C 99,448 47,434 -6,428 v -28 h 37 c 40,0 44,-7 44,-73 V -7 c 0,-135 -17,-241 -85,-241 z m 122,936 c -29,0 -56,-27 -56,-55 0,-29 27,-56 55,-56 30,0 56,26 56,56 0,29 -26,55 -55,55 z"
               stroke="#4a90e2"
               stroke-opacity="1"
               stroke-width="24"
               fill="#4a90e2"
               fill-opacity="1"
               id="path146" />
          </g>
        </g>
      </g>
    </g>
  </svg>
</svg>
